<svg width="348" height="284" viewBox="0 0 348 284" fill="none" xmlns="http://www.w3.org/2000/svg">
<path d="M15 78.5H276C284.008 78.5 290.5 84.9919 290.5 93V283.5H0.5V93C0.5 84.9919 6.99187 78.5 15 78.5Z" fill="white" stroke="#EEEEEE"/>
<path d="M72 78.5H333C341.008 78.5 347.5 84.9919 347.5 93V283.5H57.5V93C57.5 84.9919 63.9919 78.5 72 78.5Z" fill="white" stroke="#EEEEEE"/>
<path d="M43 22.5005H304C312.008 22.5005 318.5 28.9924 318.5 37.0005V283.5H28.5V37.0005C28.5 28.9924 34.9919 22.5005 43 22.5005Z" fill="white" stroke="#EEEEEE"/>
<rect x="46.5" y="56.5" width="255" height="34" rx="17" fill="white" stroke="#EEEEEE"/>
<path d="M71.75 80.75L67.2501 76.25M68.75 72.5C68.75 75.3995 66.3995 77.75 63.5 77.75C60.6005 77.75 58.25 75.3995 58.25 72.5C58.25 69.6005 60.6005 67.25 63.5 67.25C66.3995 67.25 68.75 69.6005 68.75 72.5Z" stroke="#A400DD" stroke-width="1.5" stroke-linecap="round" stroke-linejoin="round"/>
<rect opacity="0.5" x="83" y="69" width="129" height="10" rx="2" fill="#EEEEEE"/>
<g opacity="0.5">
<rect x="46" y="101" width="139" height="9" rx="2" fill="#EEEEEE"/>
<rect x="218.953" y="101" width="55.619" height="9" rx="2" fill="#EEEEEE"/>
<rect x="278.381" y="101" width="23.619" height="9" rx="2" fill="#EEEEEE"/>
</g>
<rect x="46" y="120" width="256" height="65" rx="5" fill="#E31D1C" fill-opacity="0.1"/>
<rect x="16" y="194" width="316" height="79" rx="8" fill="#A400DD"/>
<rect x="16" y="194" width="316" height="79" rx="8" fill="url(#paint0_linear_12_4561)" fill-opacity="0.2"/>
<rect opacity="0.25" x="271" y="213" width="42" height="42" rx="13.2632" fill="white"/>
<path d="M289 231H289.01M295 237H295.01M296 230L288 238M287.334 225.819C288.138 225.755 288.901 225.438 289.514 224.915C290.947 223.695 293.053 223.695 294.486 224.915C295.099 225.438 295.862 225.755 296.666 225.819C298.542 225.968 300.032 227.458 300.181 229.334C300.245 230.138 300.562 230.901 301.085 231.514C302.305 232.947 302.305 235.053 301.085 236.486C300.562 237.099 300.245 237.862 300.181 238.666C300.032 240.542 298.542 242.032 296.666 242.181C295.862 242.245 295.099 242.562 294.486 243.085C293.053 244.305 290.947 244.305 289.514 243.085C288.901 242.562 288.138 242.245 287.334 242.181C285.458 242.032 283.968 240.542 283.819 238.666C283.755 237.862 283.438 237.099 282.915 236.486C281.695 235.053 281.695 232.947 282.915 231.514C283.438 230.901 283.755 230.138 283.819 229.334C283.968 227.458 285.458 225.968 287.334 225.819ZM289.5 231C289.5 231.276 289.276 231.5 289 231.5C288.724 231.5 288.5 231.276 288.5 231C288.5 230.724 288.724 230.5 289 230.5C289.276 230.5 289.5 230.724 289.5 231ZM295.5 237C295.5 237.276 295.276 237.5 295 237.5C294.724 237.5 294.5 237.276 294.5 237C294.5 236.724 294.724 236.5 295 236.5C295.276 236.5 295.5 236.724 295.5 237Z" stroke="white" stroke-width="2" stroke-linecap="round" stroke-linejoin="round"/>
<rect opacity="0.5" x="48" y="206" width="54.987" height="9" rx="2" fill="white"/>
<rect opacity="0.5" x="106.754" y="206" width="23.3506" height="9" rx="2" fill="white"/>
<g clip-path="url(#clip0_12_4561)">
<path d="M41.5416 210.557V211.062C41.5409 212.244 41.1581 213.394 40.4502 214.341C39.7423 215.288 38.7472 215.981 37.6135 216.316C36.4796 216.651 35.2679 216.611 34.1588 216.201C33.0498 215.792 32.1029 215.034 31.4594 214.043C30.8159 213.051 30.5103 211.877 30.5881 210.698C30.6658 209.518 31.1229 208.395 31.8911 207.496C32.6592 206.597 33.6974 205.971 34.8506 205.71C36.0038 205.45 37.2104 205.569 38.2903 206.05M41.5416 206.672L36.0589 212.16L34.4141 210.516" stroke="white" stroke-width="1.09654" stroke-linecap="round" stroke-linejoin="round"/>
</g>
<g opacity="0.1">
<rect x="57" y="134.928" width="198" height="10.2857" rx="1.71429" fill="#E31D1C"/>
<rect x="57" y="149.499" width="62.5714" height="7.71429" rx="1.71429" fill="#E31D1C"/>
<rect width="75.4286" height="7.71429" rx="1.71429" transform="matrix(-1 0 0 1 220.715 162.356)" fill="#E31D1C"/>
<rect x="123.857" y="149.499" width="26.5714" height="7.71429" rx="1.71429" fill="#E31D1C"/>
<rect width="31.7143" height="7.71429" rx="1.71429" transform="matrix(-1 0 0 1 140.143 162.356)" fill="#E31D1C"/>
<rect x="154.715" y="149.499" width="38.5714" height="7.71429" rx="1.71429" fill="#E31D1C"/>
<rect width="46.2857" height="7.71429" rx="1.71429" transform="matrix(-1 0 0 1 103.285 162.356)" fill="#E31D1C"/>
</g>
<g opacity="0.4">
<rect x="29" y="223.628" width="203" height="9.99572" rx="1.66595" fill="white"/>
<rect x="29" y="237.788" width="64.1515" height="7.49679" rx="1.66595" fill="white"/>
<rect width="77.3333" height="7.49679" rx="1.66595" transform="matrix(-1 0 0 1 196.85 250.283)" fill="white"/>
<rect x="97.5469" y="237.788" width="27.2424" height="7.49679" rx="1.66595" fill="white"/>
<rect width="32.5151" height="7.49679" rx="1.66595" transform="matrix(-1 0 0 1 114.242 250.283)" fill="white"/>
<rect x="129.182" y="237.788" width="39.5454" height="7.49679" rx="1.66595" fill="white"/>
<rect width="47.4545" height="7.49679" rx="1.66595" transform="matrix(-1 0 0 1 76.4551 250.283)" fill="white"/>
</g>
<rect width="46" height="46" rx="18.6486" transform="matrix(-1 5.18986e-09 5.18986e-09 1 197 2)" fill="#A400DD"/>
<rect width="46" height="46" rx="18.6486" transform="matrix(-1 5.18986e-09 5.18986e-09 1 197 2)" fill="url(#paint1_linear_12_4561)" fill-opacity="0.2"/>
<rect width="46" height="46" rx="18.6486" transform="matrix(-1 5.18986e-09 5.18986e-09 1 197 2)" stroke="#FAFAFA" stroke-width="3.72973"/>
<path d="M170.809 16.1966L173.438 15.2105C173.646 15.1326 173.75 15.0936 173.857 15.0782C173.952 15.0644 174.048 15.0644 174.143 15.0782C174.25 15.0936 174.354 15.1326 174.562 15.2105L179.924 17.2212C180.672 17.502 181.046 17.6423 181.322 17.8854C181.566 18.1002 181.754 18.371 181.869 18.6746C182 19.0182 182 19.418 182 20.2175V24.9999C182 25.7202 181.885 26.4117 181.682 27.0708M179.622 30.6255C177.936 32.5859 175.788 33.9788 174.7 34.6138C174.477 34.7436 174.366 34.8085 174.21 34.842C174.088 34.868 173.912 34.868 173.79 34.842C173.634 34.8085 173.523 34.7439 173.302 34.6147C171.354 33.4783 166 29.9083 166 24.9999V18.7762C166 18.3092 166.29 17.8913 166.727 17.7273M165 15.9999L183 33.9999" stroke="white" stroke-width="2" stroke-linecap="round" stroke-linejoin="round"/>
<path d="M276.922 147.758L276.922 151.922M276.922 156.086L276.912 156.086M286.291 147.697L286.291 156.147C286.291 156.503 286.291 156.682 286.238 156.841C286.192 156.981 286.116 157.111 286.016 157.22C285.902 157.343 285.746 157.429 285.434 157.603L277.731 161.882C277.436 162.046 277.288 162.128 277.132 162.16C276.994 162.189 276.851 162.189 276.713 162.16C276.556 162.128 276.409 162.046 276.114 161.882L268.41 157.603C268.099 157.429 267.943 157.343 267.829 157.22C267.729 157.111 267.653 156.981 267.606 156.841C267.554 156.682 267.554 156.503 267.554 156.147L267.554 147.697C267.554 147.34 267.554 147.162 267.606 147.003C267.653 146.862 267.729 146.733 267.829 146.624C267.943 146.501 268.099 146.414 268.41 146.241L276.114 141.962C276.409 141.798 276.556 141.716 276.713 141.683C276.851 141.655 276.994 141.655 277.132 141.683C277.288 141.716 277.436 141.798 277.731 141.962L285.434 146.241C285.746 146.414 285.902 146.501 286.016 146.624C286.116 146.733 286.192 146.862 286.238 147.003C286.291 147.162 286.291 147.34 286.291 147.697Z" stroke="#E31D1C" stroke-width="2.08192" stroke-linecap="round" stroke-linejoin="round"/>
<defs>
<linearGradient id="paint0_linear_12_4561" x1="174" y1="194" x2="174" y2="273" gradientUnits="userSpaceOnUse">
<stop stop-opacity="0"/>
<stop offset="1"/>
</linearGradient>
<linearGradient id="paint1_linear_12_4561" x1="23" y1="0" x2="23" y2="46" gradientUnits="userSpaceOnUse">
<stop stop-color="white" stop-opacity="0"/>
<stop offset="1" stop-color="white"/>
</linearGradient>
<clipPath id="clip0_12_4561">
<rect width="13.1585" height="13.1585" fill="white" transform="translate(29.4785 204.479)"/>
</clipPath>
</defs>
</svg>
