<svg width="589" height="500" viewBox="0 0 589 500" fill="none" xmlns="http://www.w3.org/2000/svg">
<rect width="589" height="500" fill="#A400DD"/>
<mask id="mask0_361_73787" style="mask-type:alpha" maskUnits="userSpaceOnUse" x="0" y="0" width="589" height="500">
<rect opacity="0.4" x="0.5" y="0.5" width="588" height="499" rx="9.5" fill="#A400DD" stroke="#EEEEEE"/>
</mask>
<g mask="url(#mask0_361_73787)">
<rect opacity="0.25" x="-37.5" y="28.5" width="342" height="75" rx="14.5" fill="white" stroke="#EEEEEE"/>
<rect opacity="0.5" x="-24.5" y="38.5" width="55" height="55" rx="14.5" fill="white" stroke="#EEEEEE"/>
<rect opacity="0.25" x="41.5" y="56.5" width="187" height="19" rx="9.5" fill="white" stroke="#EEEEEE"/>
<rect opacity="0.25" x="-142.5" y="120.5" width="342" height="75" rx="14.5" fill="white" stroke="#EEEEEE"/>
<rect opacity="0.25" x="-63.5" y="148.5" width="187" height="19" rx="9.5" fill="white" stroke="#EEEEEE"/>
<rect opacity="0.25" x="29.5" y="212.5" width="342" height="75" rx="14.5" fill="white" stroke="#EEEEEE"/>
<rect opacity="0.5" x="42.5" y="222.5" width="55" height="55" rx="14.5" fill="white" stroke="#EEEEEE"/>
<rect opacity="0.25" x="108.5" y="240.5" width="187" height="19" rx="9.5" fill="white" stroke="#EEEEEE"/>
<rect opacity="0.25" x="-141.5" y="304.5" width="342" height="75" rx="14.5" fill="white" stroke="#EEEEEE"/>
<rect opacity="0.25" x="-62.5" y="332.5" width="187" height="19" rx="9.5" fill="white" stroke="#EEEEEE"/>
<rect opacity="0.25" x="-37.5" y="396.5" width="342" height="75" rx="14.5" fill="white" stroke="#EEEEEE"/>
<rect opacity="0.5" x="-24.5" y="406.5" width="55" height="55" rx="14.5" fill="white" stroke="#EEEEEE"/>
<rect opacity="0.25" x="41.5" y="424.5" width="187" height="19" rx="9.5" fill="white" stroke="#EEEEEE"/>
<rect opacity="0.25" x="330.5" y="28.5" width="342" height="75" rx="14.5" fill="white" stroke="#EEEEEE"/>
<rect opacity="0.5" x="343.5" y="38.5" width="55" height="55" rx="14.5" fill="white" stroke="#EEEEEE"/>
<rect opacity="0.25" x="409.5" y="56.5" width="187" height="19" rx="9.5" fill="white" stroke="#EEEEEE"/>
<rect opacity="0.25" x="225.5" y="120.5" width="342" height="75" rx="14.5" fill="white" stroke="#EEEEEE"/>
<rect opacity="0.5" x="238.5" y="130.5" width="55" height="55" rx="14.5" fill="white" stroke="#EEEEEE"/>
<rect opacity="0.25" x="304.5" y="148.5" width="187" height="19" rx="9.5" fill="white" stroke="#EEEEEE"/>
<rect opacity="0.25" x="397.5" y="212.5" width="342" height="75" rx="14.5" fill="white" stroke="#EEEEEE"/>
<rect opacity="0.5" x="410.5" y="222.5" width="55" height="55" rx="14.5" fill="white" stroke="#EEEEEE"/>
<rect opacity="0.25" x="476.5" y="240.5" width="187" height="19" rx="9.5" fill="white" stroke="#EEEEEE"/>
<rect opacity="0.25" x="226.5" y="304.5" width="342" height="75" rx="14.5" fill="white" stroke="#EEEEEE"/>
<rect opacity="0.5" x="239.5" y="314.5" width="55" height="55" rx="14.5" fill="white" stroke="#EEEEEE"/>
<rect opacity="0.25" x="305.5" y="332.5" width="187" height="19" rx="9.5" fill="white" stroke="#EEEEEE"/>
<rect opacity="0.25" x="330.5" y="396.5" width="342" height="75" rx="14.5" fill="white" stroke="#EEEEEE"/>
<rect opacity="0.5" x="343.5" y="406.5" width="55" height="55" rx="14.5" fill="white" stroke="#EEEEEE"/>
<rect opacity="0.25" x="409.5" y="424.5" width="187" height="19" rx="9.5" fill="white" stroke="#EEEEEE"/>
</g>
<rect x="45.5" y="100.5" width="499" height="299" rx="14.5" fill="white" stroke="#EEEEEE"/>
<path d="M45 115C45 106.716 51.7157 100 60 100H530C538.284 100 545 106.716 545 115V220H45V115Z" fill="#E392FF"/>
<rect x="226.5" y="13.5" width="137" height="27" rx="13.5" fill="white"/>
<rect x="226.5" y="13.5" width="137" height="27" rx="13.5" stroke="#EEEEEE"/>
<path d="M245.982 31H244.294L247.366 22.2727H249.318L252.395 31H250.707L248.376 24.0625H248.308L245.982 31ZM246.037 27.5781H250.639V28.848H246.037V27.5781ZM256.382 31H253.424V22.2727H256.441C257.308 22.2727 258.052 22.4474 258.674 22.7969C259.299 23.1435 259.78 23.642 260.115 24.2926C260.45 24.9432 260.618 25.7216 260.618 26.6278C260.618 27.5369 260.449 28.3182 260.11 28.9716C259.775 29.625 259.291 30.1264 258.657 30.4759C258.027 30.8253 257.268 31 256.382 31ZM255.005 29.6321H256.305C256.913 29.6321 257.42 29.5213 257.826 29.2997C258.233 29.0753 258.538 28.7415 258.743 28.2983C258.947 27.8523 259.049 27.2955 259.049 26.6278C259.049 25.9602 258.947 25.4062 258.743 24.9659C258.538 24.5227 258.235 24.1918 257.835 23.973C257.437 23.7514 256.943 23.6406 256.352 23.6406H255.005V29.6321ZM266.024 22.2727L268.295 29.142H268.385L270.652 22.2727H272.39L269.314 31H267.362L264.29 22.2727H266.024ZM273.42 31V22.2727H279.096V23.598H275.001V25.9673H278.802V27.2926H275.001V29.6747H279.13V31H273.42ZM280.589 31V22.2727H283.862C284.532 22.2727 285.095 22.3892 285.549 22.6222C286.007 22.8551 286.352 23.1818 286.585 23.6023C286.82 24.0199 286.938 24.5071 286.938 25.0639C286.938 25.6236 286.819 26.1094 286.58 26.5213C286.345 26.9304 285.997 27.2472 285.536 27.4716C285.076 27.6932 284.511 27.804 283.84 27.804H281.509V26.4915H283.627C284.019 26.4915 284.34 26.4375 284.59 26.3295C284.84 26.2187 285.025 26.0582 285.144 25.848C285.266 25.6349 285.328 25.3736 285.328 25.0639C285.328 24.7543 285.266 24.4901 285.144 24.2713C285.022 24.0497 284.836 23.8821 284.586 23.7685C284.336 23.652 284.014 23.5938 283.619 23.5938H282.17V31H280.589ZM285.097 27.0455L287.258 31H285.494L283.372 27.0455H285.097ZM289.855 22.2727V31H288.274V22.2727H289.855ZM291.447 31V22.2727H297.037V23.598H293.028V25.9673H296.654V27.2926H293.028V31H291.447ZM299.939 22.2727V31H298.358V22.2727H299.939ZM309.001 25.2173H307.407C307.362 24.956 307.278 24.7244 307.156 24.5227C307.034 24.3182 306.882 24.1449 306.7 24.0028C306.518 23.8608 306.311 23.7543 306.078 23.6832C305.848 23.6094 305.599 23.5724 305.332 23.5724C304.857 23.5724 304.437 23.6918 304.071 23.9304C303.704 24.1662 303.417 24.5128 303.21 24.9702C303.002 25.4247 302.899 25.9801 302.899 26.6364C302.899 27.304 303.002 27.8665 303.21 28.3239C303.42 28.7784 303.707 29.1222 304.071 29.3551C304.437 29.5852 304.856 29.7003 305.328 29.7003C305.589 29.7003 305.833 29.6662 306.061 29.598C306.291 29.527 306.497 29.4233 306.679 29.2869C306.863 29.1506 307.018 28.983 307.143 28.7841C307.271 28.5852 307.359 28.358 307.407 28.1023L309.001 28.1108C308.941 28.5256 308.812 28.9148 308.613 29.2784C308.417 29.642 308.16 29.9631 307.842 30.2415C307.524 30.517 307.152 30.733 306.725 30.8892C306.299 31.0426 305.826 31.1193 305.306 31.1193C304.539 31.1193 303.855 30.9418 303.252 30.5866C302.65 30.2315 302.176 29.7188 301.829 29.0483C301.482 28.3778 301.309 27.5739 301.309 26.6364C301.309 25.696 301.484 24.892 301.833 24.2244C302.183 23.554 302.659 23.0412 303.261 22.6861C303.863 22.331 304.545 22.1534 305.306 22.1534C305.792 22.1534 306.244 22.2216 306.661 22.358C307.079 22.4943 307.451 22.6946 307.778 22.9588C308.105 23.2202 308.373 23.5412 308.583 23.9219C308.796 24.2997 308.936 24.7315 309.001 25.2173ZM311.344 31H309.657L312.729 22.2727H314.681L317.757 31H316.07L313.739 24.0625H313.671L311.344 31ZM311.399 27.5781H316.002V28.848H311.399V27.5781ZM317.349 23.598V22.2727H324.312V23.598H321.614V31H320.046V23.598H317.349ZM327.115 22.2727V31H325.534V22.2727H327.115ZM336.505 26.6364C336.505 27.5767 336.329 28.3821 335.977 29.0526C335.628 29.7202 335.15 30.2315 334.545 30.5866C333.943 30.9418 333.26 31.1193 332.495 31.1193C331.731 31.1193 331.047 30.9418 330.441 30.5866C329.839 30.2287 329.362 29.7159 329.01 29.0483C328.66 28.3778 328.485 27.5739 328.485 26.6364C328.485 25.696 328.66 24.892 329.01 24.2244C329.362 23.554 329.839 23.0412 330.441 22.6861C331.047 22.331 331.731 22.1534 332.495 22.1534C333.26 22.1534 333.943 22.331 334.545 22.6861C335.15 23.0412 335.628 23.554 335.977 24.2244C336.329 24.892 336.505 25.696 336.505 26.6364ZM334.916 26.6364C334.916 25.9744 334.812 25.4162 334.605 24.9616C334.4 24.5043 334.116 24.1591 333.753 23.9261C333.389 23.6903 332.97 23.5724 332.495 23.5724C332.021 23.5724 331.602 23.6903 331.238 23.9261C330.875 24.1591 330.589 24.5043 330.382 24.9616C330.177 25.4162 330.075 25.9744 330.075 26.6364C330.075 27.2983 330.177 27.858 330.382 28.3153C330.589 28.7699 330.875 29.1151 331.238 29.3509C331.602 29.5838 332.021 29.7003 332.495 29.7003C332.97 29.7003 333.389 29.5838 333.753 29.3509C334.116 29.1151 334.4 28.7699 334.605 28.3153C334.812 27.858 334.916 27.2983 334.916 26.6364ZM345.052 22.2727V31H343.646L339.533 25.0554H339.461V31H337.88V22.2727H339.295L343.403 28.2216H343.479V22.2727H345.052Z" fill="#A400DD"/>
<rect x="83" y="183" width="72" height="72" rx="9.6" fill="url(#paint0_linear_361_73787)"/>
<path d="M105.108 203.275L107.847 196.598H128.907C131.818 196.997 137.639 199.577 137.639 206.699C137.639 213.187 132.999 216.095 130.059 216.95C129.526 217.105 128.97 217.144 128.416 217.144H114.011L117.093 210.124H127.757C128.065 210.124 128.375 210.084 128.655 209.955C129.614 209.513 130.962 208.464 130.962 206.699C130.962 204.934 129.614 203.885 128.655 203.444C128.375 203.315 128.065 203.275 127.757 203.275H105.108Z" fill="white"/>
<path d="M116.44 205.268H108.907L100.346 225.814H114.899L108.564 241.909L131.336 218.966H110.79L116.44 205.268Z" fill="white"/>
<rect opacity="0.5" x="308" y="121" width="210" height="14" rx="7" fill="white"/>
<rect x="83" y="267" width="210" height="14" rx="7" fill="#EEEEEE"/>
<rect opacity="0.5" x="308" y="140" width="52" height="12" rx="6" fill="white"/>
<rect x="83" y="286" width="52" height="12" rx="6" fill="#EEEEEE"/>
<rect opacity="0.5" width="36" height="12" rx="6" transform="matrix(-1 0 0 1 381 191)" fill="white"/>
<rect opacity="0.5" width="66" height="12" rx="6" transform="matrix(-1 0 0 1 453 191)" fill="white"/>
<rect opacity="0.5" x="366" y="140" width="31" height="12" rx="6" fill="white"/>
<rect x="141" y="286" width="31" height="12" rx="6" fill="#EEEEEE"/>
<rect width="52" height="12" rx="6" transform="matrix(-1 0 0 1 508 268)" fill="#EEEEEE"/>
<rect width="31" height="12" rx="6" transform="matrix(-1 0 0 1 450 268)" fill="#EEEEEE"/>
<rect opacity="0.5" width="31" height="12" rx="6" transform="matrix(-1 0 0 1 339 191)" fill="white"/>
<rect x="83.75" y="318.75" width="423.5" height="53.5" rx="9.25" fill="#A400DD" fill-opacity="0.1" stroke="#A400DD" stroke-width="1.5" stroke-dasharray="5 5"/>
<path d="M127.5 344.857V346.007C127.498 348.703 126.626 351.326 125.012 353.484C123.398 355.643 121.129 357.223 118.544 357.987C115.959 358.751 113.197 358.66 110.668 357.725C108.14 356.791 105.981 355.065 104.514 352.804C103.047 350.542 102.35 347.867 102.527 345.178C102.704 342.488 103.747 339.928 105.498 337.879C107.249 335.829 109.616 334.401 112.245 333.807C114.874 333.213 117.625 333.485 120.087 334.582M127.5 336L115 348.513L111.25 344.763" stroke="#A400DD" stroke-width="1.75" stroke-linecap="round" stroke-linejoin="round"/>
<rect x="141" y="330" width="75" height="14" rx="7" fill="#EEC2FF"/>
<rect x="224" y="330" width="37" height="14" rx="7" fill="#EEC2FF"/>
<rect x="141" y="349" width="52" height="12" rx="6" fill="#EEC2FF"/>
<rect x="199" y="349" width="31" height="12" rx="6" fill="#EEC2FF"/>
<rect x="236" y="349" width="89" height="12" rx="6" fill="#EEC2FF"/>
<rect x="378.5" y="355.5" width="149" height="74" rx="14.5" fill="white" stroke="#EEEEEE"/>
<rect opacity="0.5" x="388" y="368" width="51" height="12" rx="6" fill="#EEEEEE"/>
<rect opacity="0.5" x="445" y="368" width="30" height="12" rx="6" fill="#EEEEEE"/>
<rect opacity="0.5" x="388" y="390" width="30" height="25" rx="12.5" fill="#EEEEEE"/>
<path d="M511 374C511 371.239 508.761 369 506 369C503.239 369 501 371.239 501 374C501 376.761 503.239 379 506 379C508.761 379 511 376.761 511 374Z" stroke="#A400DD" stroke-width="0.75"/>
<path d="M506.121 376.5V374C506.121 373.764 506.121 373.646 506.048 373.573C505.975 373.5 505.857 373.5 505.621 373.5" stroke="#A400DD" stroke-width="0.75" stroke-linecap="round" stroke-linejoin="round"/>
<path d="M505.996 372H506.001" stroke="#A400DD" stroke-linecap="round" stroke-linejoin="round"/>
<rect x="439" y="390" width="7" height="25" rx="3.5" fill="#A400DD"/>
<rect x="450" y="390" width="7" height="25" rx="3.5" fill="#A400DD"/>
<rect x="461" y="390" width="7" height="25" rx="3.5" fill="#A400DD"/>
<rect x="472" y="390" width="7" height="25" rx="3.5" fill="#A400DD"/>
<rect x="483" y="390" width="7" height="25" rx="3.5" fill="#A400DD"/>
<rect x="494" y="390" width="7" height="25" rx="3.5" fill="#A400DD"/>
<rect opacity="0.25" x="505" y="390" width="7" height="25" rx="3.5" fill="#A400DD"/>
<defs>
<linearGradient id="paint0_linear_361_73787" x1="119" y1="183" x2="119" y2="255" gradientUnits="userSpaceOnUse">
<stop stop-color="#A400DD"/>
<stop offset="1" stop-color="#D14DFF"/>
</linearGradient>
</defs>
</svg>
