<svg width="429" height="282" viewBox="0 0 429 282" fill="none" xmlns="http://www.w3.org/2000/svg">
<mask id="mask0_12_3172" style="mask-type:alpha" maskUnits="userSpaceOnUse" x="0" y="0" width="429" height="282">
<rect width="429" height="282" fill="#D9D9D9"/>
</mask>
<g mask="url(#mask0_12_3172)">
<path opacity="0.75" d="M57.6045 74.6821L338.72 49.9131C346.996 49.1839 354.183 55.5448 354.465 63.8487L361.865 281.673L61.0317 281.673L44.4154 90.4003C43.7223 82.4222 49.6273 75.3849 57.6045 74.6821Z" fill="white" stroke="#EEEEEE"/>
<path opacity="0.75" d="M89.973 49.8866L372.392 74.7704C380.369 75.4733 386.274 82.5106 385.581 90.4887L368.965 281.761L76.1177 281.761L74.2202 64.4413C74.1455 55.8868 81.4522 49.1358 89.973 49.8866Z" fill="white" stroke="#EEEEEE"/>
<path d="M84 28.4995H345C353.008 28.4995 359.5 34.9914 359.5 42.9995V281.5H69.5V42.9995C69.5 34.9914 75.9919 28.4995 84 28.4995Z" fill="white" stroke="#EEEEEE"/>
<rect width="46" height="46" rx="18.6486" transform="matrix(-1 5.18986e-09 5.18986e-09 1 238 -0.000976562)" fill="#A400DD"/>
<rect width="46" height="46" rx="18.6486" transform="matrix(-1 5.18986e-09 5.18986e-09 1 238 -0.000976562)" fill="url(#paint0_linear_12_3172)" fill-opacity="0.2"/>
<rect width="46" height="46" rx="18.6486" transform="matrix(-1 5.18986e-09 5.18986e-09 1 238 -0.000976562)" stroke="#FAFAFA" stroke-width="3.72973"/>
<path d="M219 18.999V15.999L222 12.999L223 14.999L225 15.999L222 18.999H219ZM219 18.999L215 22.9989M225 22.999C225 28.5218 220.523 32.999 215 32.999C209.477 32.999 205 28.5218 205 22.999C205 17.4762 209.477 12.999 215 12.999M220 22.999C220 25.7604 217.761 27.999 215 27.999C212.239 27.999 210 25.7604 210 22.999C210 20.2376 212.239 17.999 215 17.999" stroke="white" stroke-width="2" stroke-linecap="round" stroke-linejoin="round"/>
<rect x="202" y="237" width="26" height="26" rx="8" fill="#A400DD"/>
<rect x="202" y="237" width="26" height="26" rx="8" fill="url(#paint1_linear_12_3172)" fill-opacity="0.2"/>
<rect x="115.5" y="232.5" width="199" height="35" rx="9.5" stroke="#EEEEEE"/>
<g clip-path="url(#clip0_12_3172)">
<path d="M133.001 256.666V243.333M129.667 256.666V253.333M129.667 246.666V243.333M136.334 256.666V253.333M136.334 246.666V243.333M126.334 246.666H139.667M126.334 253.333H139.667M139.667 253.466V246.533C139.667 245.413 139.667 244.853 139.449 244.425C139.258 244.049 138.952 243.743 138.575 243.551C138.147 243.333 137.587 243.333 136.467 243.333H129.534C128.414 243.333 127.854 243.333 127.426 243.551C127.05 243.743 126.744 244.049 126.552 244.425C126.334 244.853 126.334 245.413 126.334 246.533V253.466C126.334 254.586 126.334 255.146 126.552 255.574C126.744 255.951 127.05 256.257 127.426 256.448C127.854 256.666 128.414 256.666 129.534 256.666H136.467C137.587 256.666 138.147 256.666 138.575 256.448C138.952 256.257 139.258 255.951 139.449 255.574C139.667 255.146 139.667 254.586 139.667 253.466Z" stroke="black" stroke-width="1.25" stroke-linecap="round" stroke-linejoin="round"/>
</g>
<path d="M180 256L176 252M177.333 248.666C177.333 251.244 175.244 253.333 172.667 253.333C170.089 253.333 168 251.244 168 248.666C168 246.089 170.089 244 172.667 244C175.244 244 177.333 246.089 177.333 248.666Z" stroke="black" stroke-width="1.25" stroke-linecap="round" stroke-linejoin="round"/>
<path d="M213.001 256V251.066C213.001 250.693 213.001 250.506 213.073 250.364C213.137 250.238 213.239 250.136 213.365 250.072C213.507 250 213.694 250 214.067 250H215.934C216.307 250 216.494 250 216.637 250.072C216.762 250.136 216.864 250.238 216.928 250.364C217.001 250.506 217.001 250.693 217.001 251.066V256M208.334 248.333L214.361 243.813C214.59 243.641 214.705 243.555 214.831 243.521C214.942 243.492 215.059 243.492 215.17 243.521C215.296 243.555 215.411 243.641 215.641 243.813L221.667 248.333M209.667 247.333V253.866C209.667 254.613 209.667 254.986 209.813 255.272C209.94 255.522 210.144 255.726 210.395 255.854C210.681 256 211.054 256 211.801 256H218.201C218.947 256 219.321 256 219.606 255.854C219.857 255.726 220.061 255.522 220.189 255.272C220.334 254.986 220.334 254.613 220.334 253.866V247.333L216.281 244.293C215.822 243.949 215.592 243.776 215.34 243.71C215.118 243.652 214.884 243.652 214.661 243.71C214.409 243.776 214.18 243.949 213.721 244.293L209.667 247.333Z" stroke="white" stroke-width="1.25" stroke-linecap="round" stroke-linejoin="round"/>
<g clip-path="url(#clip1_12_3172)">
<path d="M251.545 254.959C251.95 254.003 252.897 253.333 254.001 253.333H258.001C259.104 253.333 260.051 254.003 260.456 254.959M258.667 248.333C258.667 249.806 257.473 251 256.001 251C254.528 251 253.334 249.806 253.334 248.333C253.334 246.86 254.528 245.666 256.001 245.666C257.473 245.666 258.667 246.86 258.667 248.333ZM262.667 250C262.667 253.682 259.683 256.666 256.001 256.666C252.319 256.666 249.334 253.682 249.334 250C249.334 246.318 252.319 243.333 256.001 243.333C259.683 243.333 262.667 246.318 262.667 250Z" stroke="black" stroke-width="1.25" stroke-linecap="round" stroke-linejoin="round"/>
</g>
<g clip-path="url(#clip2_12_3172)">
<path d="M297.001 256.666C300.683 256.666 303.667 253.682 303.667 250C303.667 246.318 300.683 243.333 297.001 243.333C293.319 243.333 290.334 246.318 290.334 250C290.334 253.682 293.319 256.666 297.001 256.666Z" stroke="black" stroke-width="1.25" stroke-linecap="round" stroke-linejoin="round"/>
<path fill-rule="evenodd" clip-rule="evenodd" d="M296.997 248.045C296.331 247.266 295.219 247.056 294.384 247.77C293.549 248.483 293.432 249.676 294.087 250.52C294.507 251.06 295.583 252.062 296.302 252.713C296.541 252.929 296.661 253.038 296.804 253.081C296.927 253.118 297.067 253.118 297.19 253.081C297.333 253.038 297.453 252.929 297.692 252.713C298.411 252.062 299.487 251.06 299.907 250.52C300.562 249.676 300.459 248.476 299.61 247.77C298.76 247.064 297.664 247.266 296.997 248.045Z" stroke="black" stroke-width="1.25" stroke-linecap="round" stroke-linejoin="round"/>
</g>
<rect x="90" y="56.9995" width="250" height="113" rx="8" fill="#A400DD"/>
<rect x="90" y="56.9995" width="250" height="113" rx="8" fill="url(#paint2_linear_12_3172)" fill-opacity="0.2"/>
<g opacity="0.5">
<rect x="90" y="180.999" width="169" height="12" rx="2" fill="#EEEEEE"/>
<rect x="90" y="197.999" width="53.4069" height="9" rx="2" fill="#EEEEEE"/>
<rect x="147.064" y="197.999" width="22.6797" height="9" rx="2" fill="#EEEEEE"/>
<rect x="173.402" y="197.999" width="32.9221" height="9" rx="2" fill="#EEEEEE"/>
</g>
<rect x="300" y="182" width="40" height="9" rx="2" fill="#A400DD"/>
<rect x="300" y="182" width="40" height="9" rx="2" fill="url(#paint3_linear_12_3172)" fill-opacity="0.2"/>
<g opacity="0.25">
<rect x="110" y="115" width="211" height="38" rx="8" fill="white"/>
<rect x="110.5" y="115.5" width="210" height="37" rx="7.5" stroke="black" stroke-opacity="0.25" stroke-dasharray="2 2"/>
</g>
<rect opacity="0.25" x="147" y="128" width="158" height="12" rx="2" fill="white"/>
<g opacity="0.25">
<rect x="110" y="71.999" width="32" height="32" rx="8" fill="white"/>
<rect x="110.5" y="72.499" width="31" height="31" rx="7.5" stroke="black" stroke-opacity="0.25" stroke-dasharray="2 2"/>
</g>
<g opacity="0.5" clip-path="url(#clip3_12_3172)">
<path d="M125.999 85.4989L119.386 89.7976C118.813 90.1702 118.526 90.3566 118.427 90.5928C118.34 90.7992 118.34 91.032 118.427 91.2384M125.999 85.4989L132.613 89.7976C133.186 90.1702 133.473 90.3566 133.572 90.5928C133.659 90.7992 133.659 91.032 133.572 91.2384M125.999 85.4989V80.0823M125.999 90.4989L119.386 86.2002C118.813 85.8276 118.526 85.6413 118.427 85.4051C118.34 85.1986 118.34 84.9659 118.427 84.7595M125.999 90.4989L132.613 86.2002C133.186 85.8276 133.473 85.6413 133.572 85.4051C133.659 85.1986 133.659 84.9659 133.572 84.7595M125.999 90.4989V95.9156M133.726 91.31L126.726 95.86C126.463 96.0309 126.331 96.1164 126.19 96.1496C126.065 96.1791 125.934 96.1791 125.809 96.1496C125.667 96.1164 125.536 96.0309 125.273 95.86L118.273 91.31C118.051 91.1658 117.94 91.0938 117.86 90.9977C117.789 90.9126 117.735 90.8142 117.703 90.7083C117.666 90.5886 117.666 90.4564 117.666 90.192V85.8058C117.666 85.5415 117.666 85.4093 117.703 85.2896C117.735 85.1836 117.789 85.0852 117.86 85.0001C117.94 84.904 118.051 84.832 118.273 84.6879L125.273 80.1379C125.536 79.967 125.667 79.8815 125.809 79.8482C125.934 79.8188 126.065 79.8188 126.19 79.8482C126.331 79.8815 126.463 79.967 126.726 80.1379L133.726 84.6879C133.948 84.832 134.059 84.904 134.139 85.0001C134.21 85.0852 134.263 85.1836 134.296 85.2896C134.333 85.4093 134.333 85.5415 134.333 85.8058V90.192C134.333 90.4564 134.333 90.5886 134.296 90.7083C134.263 90.8142 134.21 90.9126 134.139 90.9977C134.059 91.0938 133.948 91.1658 133.726 91.31Z" stroke="white" stroke-width="1.66667" stroke-linecap="round" stroke-linejoin="round"/>
</g>
<g opacity="0.5">
<rect x="147" y="74.999" width="174" height="12" rx="2" fill="white"/>
<rect x="147" y="91.999" width="54.987" height="9" rx="2" fill="white"/>
<rect x="205.754" y="91.999" width="23.3506" height="9" rx="2" fill="white"/>
<rect x="232.871" y="91.999" width="33.8961" height="9" rx="2" fill="white"/>
</g>
<g opacity="0.75" clip-path="url(#clip4_12_3172)">
<path d="M128.75 134L130.25 135.5L133.625 132.125M127.5 127.864C128.103 127.815 128.676 127.578 129.136 127.186C130.21 126.271 131.79 126.271 132.864 127.186C133.324 127.578 133.897 127.815 134.5 127.864C135.907 127.976 137.024 129.093 137.136 130.5C137.184 131.103 137.421 131.675 137.813 132.135C138.729 133.21 138.729 134.789 137.813 135.864C137.421 136.324 137.184 136.896 137.136 137.499C137.024 138.906 135.907 140.023 134.5 140.135C133.897 140.184 133.324 140.421 132.864 140.813C131.79 141.728 130.21 141.728 129.136 140.813C128.676 140.421 128.103 140.184 127.5 140.135C126.093 140.023 124.976 138.906 124.864 137.499C124.816 136.896 124.579 136.324 124.187 135.864C123.271 134.789 123.271 133.21 124.187 132.135C124.579 131.675 124.816 131.103 124.864 130.5C124.976 129.093 126.093 127.976 127.5 127.864Z" stroke="white" stroke-width="1.5" stroke-linecap="round" stroke-linejoin="round"/>
</g>
</g>
<defs>
<linearGradient id="paint0_linear_12_3172" x1="23" y1="0" x2="23" y2="46" gradientUnits="userSpaceOnUse">
<stop stop-color="white" stop-opacity="0"/>
<stop offset="1" stop-color="white"/>
</linearGradient>
<linearGradient id="paint1_linear_12_3172" x1="215" y1="237" x2="215" y2="263" gradientUnits="userSpaceOnUse">
<stop stop-opacity="0"/>
<stop offset="1"/>
</linearGradient>
<linearGradient id="paint2_linear_12_3172" x1="215" y1="56.9995" x2="215" y2="170" gradientUnits="userSpaceOnUse">
<stop stop-opacity="0"/>
<stop offset="1"/>
</linearGradient>
<linearGradient id="paint3_linear_12_3172" x1="320" y1="182" x2="320" y2="191" gradientUnits="userSpaceOnUse">
<stop stop-opacity="0"/>
<stop offset="1"/>
</linearGradient>
<clipPath id="clip0_12_3172">
<rect width="16" height="16" fill="white" transform="translate(125 242)"/>
</clipPath>
<clipPath id="clip1_12_3172">
<rect width="16" height="16" fill="white" transform="translate(248 242)"/>
</clipPath>
<clipPath id="clip2_12_3172">
<rect width="16" height="16" fill="white" transform="translate(289 242)"/>
</clipPath>
<clipPath id="clip3_12_3172">
<rect width="20" height="20" fill="white" transform="translate(116 77.999)"/>
</clipPath>
<clipPath id="clip4_12_3172">
<rect width="18" height="18" fill="white" transform="translate(122 125)"/>
</clipPath>
</defs>
</svg>
