<svg width="49" height="49" viewBox="0 0 49 49" fill="none" xmlns="http://www.w3.org/2000/svg">
<g filter="url(#filter0_i_2260_30585)">
<rect width="47.7867" height="48" rx="12.8" fill="url(#paint0_linear_2260_30585)"/>
<rect x="0.527059" y="0.527059" width="46.7325" height="46.9459" rx="12.2729" stroke="#A400DD" stroke-width="1.05412"/>
<g style="mix-blend-mode:overlay">
<path d="M21.3459 14.6914C21.9927 14.1403 22.3167 13.8641 22.6552 13.7026C23.0414 13.5181 23.4641 13.4222 23.8922 13.4222C24.3203 13.4222 24.7429 13.518 25.1292 13.7025C25.4677 13.8639 25.7917 14.14 26.4386 14.6911C27.1056 15.2589 27.7826 15.5461 28.6733 15.6162C29.5206 15.6841 29.9448 15.7186 30.2989 15.8433C31.1162 16.1327 31.7598 16.7751 32.0482 17.5935C32.1729 17.9464 32.2074 18.3706 32.2754 19.219C32.3456 20.1097 32.6318 20.7856 33.1997 21.4525C33.752 22.0993 34.0281 22.4233 34.1896 22.7618C34.5637 23.5445 34.5638 24.4541 34.1897 25.2358C34.0283 25.5743 33.7522 25.8983 33.2011 26.5452C32.6498 27.1646 32.3238 27.9521 32.276 28.7799C32.2081 29.6272 32.1736 30.0514 32.0489 30.4055C31.9062 30.8092 31.675 31.1758 31.3721 31.4785C31.0693 31.7812 30.7025 32.0122 30.2988 32.1548C29.9458 32.2795 29.5216 32.314 28.6732 32.382C27.7825 32.4522 27.1066 32.7384 26.4397 33.3063C25.7929 33.8585 25.4689 34.1347 25.1304 34.2962C24.7442 34.4807 24.3215 34.5765 23.8934 34.5766C23.4654 34.5766 23.0427 34.4808 22.6564 34.2963C22.3179 34.1349 21.9939 33.8588 21.347 33.3077C20.7276 32.7564 19.9401 32.4304 19.1123 32.3826C18.265 32.3147 17.8408 32.2802 17.4867 32.1555C17.083 32.0128 16.7164 31.7815 16.4137 31.4787C16.111 31.1758 15.88 30.8091 15.7375 30.4053C15.6127 30.0524 15.5782 29.6282 15.5102 28.7798C15.4624 27.9525 15.1367 27.1655 14.586 26.5463C14.0337 25.8995 13.7575 25.5755 13.5949 25.237C13.4105 24.8507 13.3149 24.428 13.3151 23.9999C13.3152 23.5718 13.4112 23.1492 13.5959 22.763C13.7573 22.4245 14.0334 22.1005 14.5845 21.4536C15.1635 20.7732 15.4407 20.0918 15.5097 19.2189C15.5775 18.3716 15.612 17.9474 15.7367 17.5933C15.8794 17.1896 16.1107 16.823 16.4135 16.5203C16.7164 16.2176 17.0831 15.9866 17.4869 15.844C17.8398 15.7193 18.264 15.6848 19.1124 15.6168C19.9398 15.569 20.7267 15.2422 21.3459 14.6914Z" stroke="white" stroke-width="1.78146" stroke-linecap="round" stroke-linejoin="round"/>
<path d="M20.1819 24.7051L21.8577 26.6212C21.9679 26.7474 22.1053 26.8471 22.2594 26.9128C22.4136 26.9785 22.5806 27.0085 22.748 27.0007C22.9154 26.9929 23.0788 26.9474 23.2262 26.8676C23.3736 26.7878 23.501 26.6758 23.599 26.5398L27.6036 20.9937" stroke="white" stroke-width="1.78146" stroke-linecap="round" stroke-linejoin="round"/>
</g>
</g>
<g style="mix-blend-mode:soft-light" opacity="0.25">
<line y1="-0.5" x2="48.0716" y2="-0.5" transform="matrix(-4.37114e-08 1 1 4.37114e-08 10.2676 0)" stroke="white"/>
<line y1="-0.5" x2="48.0716" y2="-0.5" transform="matrix(-1 -8.74228e-08 -8.74228e-08 1 48.0723 38.8027)" stroke="white"/>
</g>
<g style="mix-blend-mode:soft-light" opacity="0.25">
<line y1="-0.5" x2="48.0716" y2="-0.5" transform="matrix(4.37114e-08 -1 -1 -4.37114e-08 37.8047 48.0713)" stroke="white"/>
<line y1="-0.5" x2="48.0716" y2="-0.5" transform="matrix(1 8.74228e-08 8.74228e-08 -1 0 9.26855)" stroke="white"/>
</g>
<defs>
<filter id="filter0_i_2260_30585" x="0" y="0" width="47.7871" height="52" filterUnits="userSpaceOnUse" color-interpolation-filters="sRGB">
<feFlood flood-opacity="0" result="BackgroundImageFix"/>
<feBlend mode="normal" in="SourceGraphic" in2="BackgroundImageFix" result="shape"/>
<feColorMatrix in="SourceAlpha" type="matrix" values="0 0 0 0 0 0 0 0 0 0 0 0 0 0 0 0 0 0 127 0" result="hardAlpha"/>
<feMorphology radius="2" operator="erode" in="SourceAlpha" result="effect1_innerShadow_2260_30585"/>
<feOffset dy="4"/>
<feGaussianBlur stdDeviation="2"/>
<feComposite in2="hardAlpha" operator="arithmetic" k2="-1" k3="1"/>
<feColorMatrix type="matrix" values="0 0 0 0 1 0 0 0 0 1 0 0 0 0 1 0 0 0 0.25 0"/>
<feBlend mode="normal" in2="shape" result="effect1_innerShadow_2260_30585"/>
</filter>
<linearGradient id="paint0_linear_2260_30585" x1="23.8933" y1="0" x2="23.8933" y2="48" gradientUnits="userSpaceOnUse">
<stop stop-color="#A400DD"/>
<stop offset="1" stop-color="#580077"/>
</linearGradient>
</defs>
</svg>
