<svg width="427" height="350" viewBox="0 0 427 350" fill="none" xmlns="http://www.w3.org/2000/svg">
<rect x="0.5" width="426.5" height="350" fill="#FAFAFA"/>
<g filter="url(#filter0_d_413_6989)">
<rect x="79.5" y="168" width="8" height="8" rx="4" fill="#12A250"/>
</g>
<rect x="27.5" y="95" width="44" height="44" rx="8" fill="url(#paint0_linear_413_6989)"/>
<path d="M41.0118 107.39L42.6859 103.31H55.5556C57.3344 103.554 60.8919 105.13 60.8919 109.483C60.8919 113.447 58.0565 115.224 56.2595 115.747C55.9341 115.842 55.5944 115.865 55.2556 115.865H46.4526L48.336 111.576H54.8526C55.0412 111.576 55.2304 111.551 55.4016 111.472C55.9876 111.203 56.8112 110.561 56.8112 109.483C56.8112 108.404 55.9876 107.763 55.4016 107.493C55.2304 107.414 55.0412 107.39 54.8526 107.39H41.0118Z" fill="white"/>
<path d="M47.937 108.608H43.3332L38.1016 121.164H46.9953L43.1239 131L57.04 116.979H44.4841L47.937 108.608Z" fill="white"/>
<rect x="79.5" y="95" width="284" height="66" rx="10" fill="white"/>
<rect opacity="0.4" x="91.5" y="107" width="62" height="7" rx="3.5" fill="#DEDEDE"/>
<rect opacity="0.05" x="91.5" y="124" width="131" height="10" rx="5" fill="#1D2026" fill-opacity="0.75"/>
<rect opacity="0.05" x="232.5" y="124" width="51" height="10" rx="5" fill="#1D2026" fill-opacity="0.75"/>
<rect opacity="0.05" x="293.5" y="124" width="58" height="10" rx="5" fill="#1D2026" fill-opacity="0.75"/>
<rect opacity="0.05" width="131" height="10" rx="5" transform="matrix(-1 0 0 1 351.5 139)" fill="#1D2026" fill-opacity="0.75"/>
<rect opacity="0.05" width="51" height="10" rx="5" transform="matrix(-1 0 0 1 210.5 139)" fill="#1D2026" fill-opacity="0.75"/>
<rect opacity="0.05" width="58" height="10" rx="5" transform="matrix(-1 0 0 1 149.5 139)" fill="#1D2026" fill-opacity="0.75"/>
<rect opacity="0.4" x="92.5" y="168" width="50" height="7" rx="3.5" fill="#DEDEDE"/>
<rect opacity="0.4" x="338.5" y="168" width="25" height="7" rx="3.5" fill="#DEDEDE"/>
<rect opacity="0.4" x="302.5" y="168" width="25" height="7" rx="3.5" fill="#DEDEDE"/>
<rect x="331.5" y="170" width="3" height="3" rx="1.5" fill="#DEDEDE"/>
<rect width="44" height="44" rx="8" transform="matrix(-1 0 0 1 401.5 204)" fill="url(#paint1_linear_413_6989)"/>
<g clip-path="url(#clip0_413_6989)">
<path d="M391.6 223.698H388.192C387.92 223.698 387.704 223.482 387.704 223.21V219.813C387.704 219.589 387.528 219.413 387.304 219.413H383.896C383.624 219.413 383.408 219.197 383.408 218.925L383.392 216.471C383.392 216.247 383.256 216.047 383.056 215.959C381.728 215.408 380.312 215.12 378.848 215.12C372.864 215.12 368 219.981 368 225.96C368 231.94 372.864 236.8 378.848 236.8C380.312 236.8 381.72 236.512 383.056 235.953C383.264 235.865 383.392 235.665 383.392 235.441L383.408 232.819C383.408 232.547 383.624 232.331 383.896 232.331H387.304C387.528 232.331 387.704 232.156 387.704 231.932V228.526C387.704 228.254 387.92 228.039 388.192 228.039H391.6C391.824 228.039 392 227.863 392 227.639V224.082C392 223.874 391.824 223.698 391.6 223.698ZM378.568 227.991H375.32C375.048 227.991 374.832 227.775 374.832 227.503V224.249C374.832 223.978 375.048 223.762 375.32 223.762H378.576C378.848 223.762 379.064 223.978 379.064 224.249V227.503C379.056 227.767 378.84 227.991 378.568 227.991ZM382.864 223.698H379.608C379.336 223.698 379.12 223.482 379.12 223.21V219.965C379.12 219.693 379.336 219.477 379.608 219.477H382.864C383.136 219.477 383.352 219.693 383.352 219.965V223.218C383.344 223.482 383.128 223.698 382.864 223.698ZM379.608 228.055H382.864C383.136 228.055 383.352 228.27 383.352 228.542V231.796C383.352 232.068 383.136 232.283 382.864 232.283H379.608C379.336 232.283 379.12 232.068 379.12 231.796V228.542C379.12 228.27 379.344 228.055 379.608 228.055ZM383.904 223.77H387.16C387.432 223.77 387.648 223.986 387.648 224.257V227.511C387.648 227.783 387.432 227.999 387.16 227.999H383.904C383.632 227.999 383.416 227.783 383.416 227.511V224.257C383.416 223.986 383.632 223.77 383.904 223.77Z" fill="white"/>
</g>
<rect width="284" height="51" rx="10" transform="matrix(-1 0 0 1 349.5 204)" fill="white"/>
<rect opacity="0.4" width="62" height="7" rx="3.5" transform="matrix(-1 0 0 1 337.5 216)" fill="#DEDEDE"/>
<rect opacity="0.05" width="131" height="10" rx="5" transform="matrix(-1 0 0 1 337.5 233)" fill="#1D2026" fill-opacity="0.75"/>
<rect opacity="0.05" width="51" height="10" rx="5" transform="matrix(-1 0 0 1 196.5 233)" fill="#1D2026" fill-opacity="0.75"/>
<rect opacity="0.05" width="58" height="10" rx="5" transform="matrix(-1 0 0 1 135.5 233)" fill="#1D2026" fill-opacity="0.75"/>
<rect opacity="0.05" x="27.5" y="23" width="131" height="10" rx="5" fill="#1D2026" fill-opacity="0.75"/>
<rect opacity="0.05" x="168.5" y="23" width="51" height="10" rx="5" fill="#1D2026" fill-opacity="0.75"/>
<rect x="385.5" y="23" width="16" height="10" rx="5" fill="#EA3535"/>
<rect opacity="0.05" x="118.5" y="65" width="131" height="10" rx="5" fill="#1D2026" fill-opacity="0.75"/>
<rect opacity="0.05" x="259.5" y="65" width="51" height="10" rx="5" fill="#1D2026" fill-opacity="0.75"/>
<g filter="url(#filter1_d_413_6989)">
<rect x="38.5" y="286" width="350" height="40" rx="8" fill="white" shape-rendering="crispEdges"/>
<path d="M147.076 300.818H148.607V308.037C148.607 308.69 148.478 309.248 148.219 309.712C147.964 310.176 147.605 310.531 147.141 310.776C146.677 311.018 146.133 311.139 145.51 311.139C144.937 311.139 144.421 311.035 143.964 310.826C143.51 310.617 143.15 310.314 142.885 309.916C142.623 309.515 142.492 309.028 142.492 308.455H144.018C144.018 308.736 144.083 308.98 144.212 309.185C144.345 309.391 144.526 309.552 144.754 309.668C144.986 309.78 145.251 309.837 145.55 309.837C145.875 309.837 146.15 309.769 146.375 309.633C146.604 309.494 146.778 309.29 146.897 309.021C147.016 308.753 147.076 308.425 147.076 308.037V300.818ZM153.801 311.154C153.085 311.154 152.46 310.99 151.926 310.662C151.393 310.334 150.978 309.875 150.683 309.285C150.388 308.695 150.241 308.005 150.241 307.217C150.241 306.424 150.388 305.732 150.683 305.138C150.978 304.545 151.393 304.085 151.926 303.756C152.46 303.428 153.085 303.264 153.801 303.264C154.516 303.264 155.141 303.428 155.675 303.756C156.208 304.085 156.623 304.545 156.918 305.138C157.213 305.732 157.36 306.424 157.36 307.217C157.36 308.005 157.213 308.695 156.918 309.285C156.623 309.875 156.208 310.334 155.675 310.662C155.141 310.99 154.516 311.154 153.801 311.154ZM153.805 309.906C154.27 309.906 154.654 309.784 154.959 309.538C155.264 309.293 155.489 308.967 155.635 308.559C155.784 308.151 155.859 307.702 155.859 307.212C155.859 306.724 155.784 306.277 155.635 305.869C155.489 305.458 155.264 305.129 154.959 304.88C154.654 304.631 154.27 304.507 153.805 304.507C153.338 304.507 152.95 304.631 152.642 304.88C152.337 305.129 152.11 305.458 151.961 305.869C151.815 306.277 151.742 306.724 151.742 307.212C151.742 307.702 151.815 308.151 151.961 308.559C152.11 308.967 152.337 309.293 152.642 309.538C152.95 309.784 153.338 309.906 153.805 309.906ZM158.879 311V303.364H160.366V311H158.879ZM159.63 302.185C159.372 302.185 159.15 302.099 158.964 301.927C158.782 301.751 158.691 301.542 158.691 301.3C158.691 301.055 158.782 300.846 158.964 300.674C159.15 300.498 159.372 300.411 159.63 300.411C159.889 300.411 160.109 300.498 160.291 300.674C160.477 300.846 160.57 301.055 160.57 301.3C160.57 301.542 160.477 301.751 160.291 301.927C160.109 302.099 159.889 302.185 159.63 302.185ZM163.712 306.466V311H162.226V303.364H163.653V304.607H163.747C163.923 304.202 164.198 303.877 164.572 303.632C164.95 303.387 165.426 303.264 165.999 303.264C166.52 303.264 166.975 303.374 167.366 303.592C167.757 303.808 168.061 304.129 168.276 304.557C168.492 304.984 168.599 305.513 168.599 306.143V311H167.113V306.322C167.113 305.768 166.969 305.336 166.68 305.024C166.392 304.709 165.996 304.552 165.492 304.552C165.147 304.552 164.841 304.626 164.572 304.776C164.307 304.925 164.097 305.143 163.941 305.432C163.789 305.717 163.712 306.062 163.712 306.466ZM174.137 311V300.818H177.767C178.555 300.818 179.21 300.954 179.73 301.226C180.254 301.498 180.645 301.874 180.904 302.354C181.162 302.832 181.291 303.384 181.291 304.01C181.291 304.633 181.161 305.182 180.899 305.656C180.64 306.126 180.249 306.492 179.725 306.754C179.205 307.016 178.55 307.147 177.762 307.147H175.012V305.825H177.622C178.12 305.825 178.524 305.753 178.836 305.611C179.15 305.468 179.381 305.261 179.527 304.989C179.672 304.718 179.745 304.391 179.745 304.01C179.745 303.625 179.671 303.292 179.522 303.011C179.376 302.729 179.145 302.513 178.831 302.364C178.519 302.212 178.11 302.136 177.603 302.136H175.674V311H174.137ZM179.164 306.406L181.679 311H179.929L177.463 306.406H179.164ZM186.097 311.154C185.345 311.154 184.697 310.993 184.153 310.672C183.613 310.347 183.195 309.891 182.9 309.305C182.609 308.715 182.463 308.024 182.463 307.232C182.463 306.449 182.609 305.76 182.9 305.163C183.195 304.567 183.606 304.101 184.133 303.766C184.663 303.432 185.283 303.264 185.993 303.264C186.423 303.264 186.841 303.335 187.245 303.478C187.65 303.621 188.013 303.844 188.334 304.149C188.656 304.454 188.909 304.85 189.095 305.337C189.28 305.821 189.373 306.41 189.373 307.102V307.629H183.303V306.516H187.917C187.917 306.125 187.837 305.778 187.678 305.477C187.519 305.172 187.295 304.931 187.007 304.756C186.722 304.58 186.387 304.492 186.003 304.492C185.585 304.492 185.22 304.595 184.909 304.8C184.601 305.003 184.362 305.268 184.193 305.596C184.027 305.921 183.944 306.274 183.944 306.655V307.525C183.944 308.035 184.034 308.469 184.213 308.827C184.395 309.185 184.649 309.459 184.973 309.648C185.298 309.833 185.678 309.926 186.112 309.926C186.394 309.926 186.65 309.886 186.882 309.807C187.114 309.724 187.315 309.601 187.484 309.439C187.653 309.277 187.782 309.076 187.872 308.837L189.279 309.091C189.166 309.505 188.964 309.868 188.672 310.18C188.384 310.488 188.021 310.728 187.583 310.901C187.149 311.07 186.654 311.154 186.097 311.154ZM196.605 305.228L195.258 305.467C195.201 305.294 195.112 305.13 194.989 304.974C194.87 304.819 194.707 304.691 194.502 304.592C194.296 304.492 194.04 304.442 193.731 304.442C193.31 304.442 192.959 304.537 192.677 304.726C192.396 304.911 192.255 305.152 192.255 305.447C192.255 305.702 192.349 305.907 192.538 306.063C192.727 306.219 193.032 306.347 193.453 306.446L194.666 306.724C195.369 306.887 195.892 307.137 196.237 307.475C196.582 307.813 196.754 308.252 196.754 308.793C196.754 309.25 196.621 309.658 196.356 310.016C196.094 310.37 195.728 310.649 195.258 310.851C194.79 311.053 194.248 311.154 193.632 311.154C192.777 311.154 192.079 310.972 191.539 310.607C190.999 310.239 190.667 309.717 190.545 309.041L191.981 308.822C192.071 309.197 192.255 309.48 192.533 309.673C192.812 309.862 193.174 309.956 193.622 309.956C194.109 309.956 194.499 309.855 194.79 309.653C195.082 309.447 195.228 309.197 195.228 308.902C195.228 308.663 195.138 308.463 194.959 308.3C194.784 308.138 194.513 308.015 194.149 307.933L192.856 307.649C192.144 307.487 191.617 307.228 191.275 306.874C190.937 306.519 190.768 306.07 190.768 305.526C190.768 305.076 190.894 304.681 191.146 304.343C191.398 304.005 191.746 303.741 192.19 303.553C192.634 303.36 193.143 303.264 193.716 303.264C194.542 303.264 195.191 303.443 195.665 303.801C196.139 304.156 196.452 304.631 196.605 305.228ZM201.54 311.154C200.787 311.154 200.139 310.993 199.596 310.672C199.055 310.347 198.638 309.891 198.343 309.305C198.051 308.715 197.905 308.024 197.905 307.232C197.905 306.449 198.051 305.76 198.343 305.163C198.638 304.567 199.049 304.101 199.576 303.766C200.106 303.432 200.726 303.264 201.435 303.264C201.866 303.264 202.284 303.335 202.688 303.478C203.092 303.621 203.455 303.844 203.777 304.149C204.098 304.454 204.352 304.85 204.537 305.337C204.723 305.821 204.816 306.41 204.816 307.102V307.629H198.746V306.516H203.359C203.359 306.125 203.28 305.778 203.121 305.477C202.961 305.172 202.738 304.931 202.449 304.756C202.164 304.58 201.83 304.492 201.445 304.492C201.028 304.492 200.663 304.595 200.351 304.8C200.043 305.003 199.805 305.268 199.636 305.596C199.47 305.921 199.387 306.274 199.387 306.655V307.525C199.387 308.035 199.476 308.469 199.655 308.827C199.838 309.185 200.091 309.459 200.416 309.648C200.741 309.833 201.12 309.926 201.555 309.926C201.836 309.926 202.093 309.886 202.325 309.807C202.557 309.724 202.758 309.601 202.927 309.439C203.096 309.277 203.225 309.076 203.314 308.837L204.721 309.091C204.609 309.505 204.407 309.868 204.115 310.18C203.827 310.488 203.464 310.728 203.026 310.901C202.592 311.07 202.096 311.154 201.54 311.154ZM207.812 300.818V311H206.325V300.818H207.812ZM211.158 300.818V311H209.672V300.818H211.158ZM216.309 311.154C215.557 311.154 214.909 310.993 214.365 310.672C213.825 310.347 213.407 309.891 213.112 309.305C212.821 308.715 212.675 308.024 212.675 307.232C212.675 306.449 212.821 305.76 213.112 305.163C213.407 304.567 213.818 304.101 214.345 303.766C214.876 303.432 215.495 303.264 216.205 303.264C216.636 303.264 217.053 303.335 217.458 303.478C217.862 303.621 218.225 303.844 218.546 304.149C218.868 304.454 219.121 304.85 219.307 305.337C219.493 305.821 219.585 306.41 219.585 307.102V307.629H213.515V306.516H218.129C218.129 306.125 218.049 305.778 217.89 305.477C217.731 305.172 217.507 304.931 217.219 304.756C216.934 304.58 216.599 304.492 216.215 304.492C215.797 304.492 215.432 304.595 215.121 304.8C214.813 305.003 214.574 305.268 214.405 305.596C214.239 305.921 214.156 306.274 214.156 306.655V307.525C214.156 308.035 214.246 308.469 214.425 308.827C214.607 309.185 214.861 309.459 215.185 309.648C215.51 309.833 215.89 309.926 216.324 309.926C216.606 309.926 216.863 309.886 217.095 309.807C217.327 309.724 217.527 309.601 217.696 309.439C217.865 309.277 217.994 309.076 218.084 308.837L219.491 309.091C219.378 309.505 219.176 309.868 218.884 310.18C218.596 310.488 218.233 310.728 217.796 310.901C217.361 311.07 216.866 311.154 216.309 311.154ZM221.095 311V303.364H222.531V304.577H222.611C222.75 304.166 222.995 303.843 223.347 303.607C223.701 303.369 224.102 303.249 224.55 303.249C224.643 303.249 224.752 303.253 224.878 303.259C225.007 303.266 225.108 303.274 225.181 303.284V304.706C225.122 304.689 225.016 304.671 224.863 304.651C224.711 304.628 224.558 304.616 224.406 304.616C224.054 304.616 223.741 304.691 223.466 304.84C223.194 304.986 222.979 305.19 222.82 305.452C222.661 305.71 222.581 306.005 222.581 306.337V311H221.095ZM230.012 311V300.818H233.641C234.434 300.818 235.09 300.962 235.61 301.251C236.13 301.539 236.52 301.933 236.778 302.434C237.037 302.931 237.166 303.491 237.166 304.114C237.166 304.741 237.035 305.304 236.773 305.805C236.515 306.302 236.124 306.696 235.6 306.988C235.08 307.276 234.425 307.42 233.636 307.42H231.141V306.118H233.497C233.998 306.118 234.404 306.032 234.715 305.859C235.027 305.684 235.255 305.445 235.401 305.143C235.547 304.842 235.62 304.499 235.62 304.114C235.62 303.73 235.547 303.388 235.401 303.09C235.255 302.792 235.025 302.558 234.71 302.389C234.399 302.22 233.988 302.136 233.477 302.136H231.548V311H230.012ZM238.708 311V303.364H240.145V304.577H240.224C240.363 304.166 240.609 303.843 240.96 303.607C241.315 303.369 241.716 303.249 242.163 303.249C242.256 303.249 242.365 303.253 242.491 303.259C242.621 303.266 242.722 303.274 242.795 303.284V304.706C242.735 304.689 242.629 304.671 242.476 304.651C242.324 304.628 242.171 304.616 242.019 304.616C241.668 304.616 241.354 304.691 241.079 304.84C240.808 304.986 240.592 305.19 240.433 305.452C240.274 305.71 240.194 306.005 240.194 306.337V311H238.708ZM246.884 311.154C246.168 311.154 245.543 310.99 245.01 310.662C244.476 310.334 244.062 309.875 243.767 309.285C243.472 308.695 243.324 308.005 243.324 307.217C243.324 306.424 243.472 305.732 243.767 305.138C244.062 304.545 244.476 304.085 245.01 303.756C245.543 303.428 246.168 303.264 246.884 303.264C247.6 303.264 248.225 303.428 248.758 303.756C249.292 304.085 249.706 304.545 250.001 305.138C250.296 305.732 250.444 306.424 250.444 307.217C250.444 308.005 250.296 308.695 250.001 309.285C249.706 309.875 249.292 310.334 248.758 310.662C248.225 310.99 247.6 311.154 246.884 311.154ZM246.889 309.906C247.353 309.906 247.738 309.784 248.042 309.538C248.347 309.293 248.573 308.967 248.719 308.559C248.868 308.151 248.942 307.702 248.942 307.212C248.942 306.724 248.868 306.277 248.719 305.869C248.573 305.458 248.347 305.129 248.042 304.88C247.738 304.631 247.353 304.507 246.889 304.507C246.422 304.507 246.034 304.631 245.726 304.88C245.421 305.129 245.194 305.458 245.045 305.869C244.899 306.277 244.826 306.724 244.826 307.212C244.826 307.702 244.899 308.151 245.045 308.559C245.194 308.967 245.421 309.293 245.726 309.538C246.034 309.784 246.422 309.906 246.889 309.906ZM255.165 314.023C254.558 314.023 254.036 313.943 253.599 313.784C253.165 313.625 252.81 313.415 252.535 313.153C252.26 312.891 252.054 312.604 251.918 312.293L253.196 311.766C253.285 311.911 253.405 312.066 253.554 312.228C253.706 312.394 253.912 312.535 254.17 312.651C254.432 312.767 254.769 312.825 255.18 312.825C255.743 312.825 256.209 312.687 256.577 312.412C256.945 312.14 257.129 311.706 257.129 311.109V309.608H257.034C256.945 309.77 256.815 309.951 256.646 310.15C256.481 310.349 256.252 310.521 255.96 310.667C255.669 310.813 255.289 310.886 254.822 310.886C254.218 310.886 253.675 310.745 253.191 310.463C252.71 310.178 252.329 309.759 252.048 309.205C251.769 308.648 251.63 307.964 251.63 307.152C251.63 306.34 251.767 305.644 252.043 305.064C252.321 304.484 252.702 304.04 253.186 303.732C253.67 303.42 254.218 303.264 254.832 303.264C255.306 303.264 255.688 303.344 255.98 303.503C256.272 303.659 256.499 303.841 256.661 304.05C256.827 304.259 256.955 304.442 257.044 304.602H257.153V303.364H258.61V311.169C258.61 311.825 258.458 312.364 258.153 312.785C257.848 313.206 257.435 313.517 256.915 313.719C256.398 313.922 255.814 314.023 255.165 314.023ZM255.15 309.653C255.577 309.653 255.939 309.553 256.234 309.354C256.532 309.152 256.757 308.864 256.91 308.489C257.066 308.112 257.143 307.659 257.143 307.132C257.143 306.618 257.067 306.166 256.915 305.775C256.762 305.384 256.539 305.079 256.244 304.86C255.949 304.638 255.584 304.527 255.15 304.527C254.702 304.527 254.33 304.643 254.031 304.875C253.733 305.104 253.508 305.415 253.355 305.81C253.206 306.204 253.131 306.645 253.131 307.132C253.131 307.633 253.208 308.072 253.36 308.45C253.513 308.827 253.738 309.122 254.036 309.335C254.338 309.547 254.709 309.653 255.15 309.653ZM260.464 311V303.364H261.9V304.577H261.98C262.119 304.166 262.364 303.843 262.716 303.607C263.07 303.369 263.471 303.249 263.919 303.249C264.012 303.249 264.121 303.253 264.247 303.259C264.376 303.266 264.477 303.274 264.55 303.284V304.706C264.491 304.689 264.385 304.671 264.232 304.651C264.08 304.628 263.927 304.616 263.775 304.616C263.423 304.616 263.11 304.691 262.835 304.84C262.563 304.986 262.348 305.19 262.189 305.452C262.03 305.71 261.95 306.005 261.95 306.337V311H260.464ZM267.851 311.169C267.367 311.169 266.929 311.08 266.538 310.901C266.147 310.718 265.837 310.455 265.608 310.11C265.383 309.765 265.27 309.343 265.27 308.842C265.27 308.411 265.353 308.057 265.519 307.778C265.685 307.5 265.908 307.28 266.19 307.117C266.472 306.955 266.787 306.832 267.135 306.749C267.483 306.666 267.837 306.603 268.199 306.56C268.656 306.507 269.027 306.464 269.312 306.431C269.597 306.395 269.804 306.337 269.934 306.257C270.063 306.178 270.128 306.048 270.128 305.869V305.835C270.128 305.4 270.005 305.064 269.76 304.825C269.518 304.587 269.157 304.467 268.676 304.467C268.175 304.467 267.781 304.578 267.493 304.8C267.208 305.019 267.01 305.263 266.901 305.531L265.504 305.213C265.67 304.749 265.912 304.375 266.23 304.089C266.551 303.801 266.921 303.592 267.339 303.463C267.756 303.33 268.195 303.264 268.656 303.264C268.961 303.264 269.284 303.301 269.626 303.374C269.97 303.443 270.292 303.572 270.59 303.761C270.892 303.95 271.139 304.22 271.331 304.572C271.523 304.92 271.619 305.372 271.619 305.929V311H270.167V309.956H270.108C270.012 310.148 269.867 310.337 269.675 310.523C269.483 310.708 269.236 310.862 268.934 310.985C268.633 311.108 268.272 311.169 267.851 311.169ZM268.174 309.976C268.585 309.976 268.936 309.895 269.228 309.732C269.523 309.57 269.746 309.358 269.899 309.096C270.055 308.831 270.133 308.547 270.133 308.246V307.261C270.08 307.314 269.977 307.364 269.824 307.411C269.675 307.454 269.505 307.492 269.312 307.525C269.12 307.555 268.933 307.583 268.751 307.609C268.568 307.633 268.416 307.652 268.293 307.669C268.005 307.705 267.741 307.767 267.503 307.853C267.267 307.939 267.078 308.063 266.936 308.226C266.797 308.385 266.727 308.597 266.727 308.862C266.727 309.23 266.863 309.509 267.135 309.697C267.407 309.883 267.753 309.976 268.174 309.976ZM273.459 311V303.364H274.886V304.607H274.98C275.139 304.186 275.4 303.857 275.761 303.622C276.122 303.384 276.555 303.264 277.058 303.264C277.569 303.264 277.996 303.384 278.341 303.622C278.689 303.861 278.946 304.189 279.112 304.607H279.191C279.374 304.199 279.664 303.874 280.061 303.632C280.459 303.387 280.933 303.264 281.483 303.264C282.176 303.264 282.741 303.481 283.179 303.915C283.619 304.35 283.84 305.004 283.84 305.879V311H282.353V306.018C282.353 305.501 282.212 305.127 281.931 304.895C281.649 304.663 281.313 304.547 280.921 304.547C280.438 304.547 280.061 304.696 279.793 304.994C279.524 305.289 279.39 305.669 279.39 306.133V311H277.909V305.924C277.909 305.51 277.779 305.177 277.521 304.925C277.262 304.673 276.926 304.547 276.512 304.547C276.23 304.547 275.97 304.621 275.731 304.771C275.496 304.916 275.305 305.12 275.159 305.382C275.017 305.644 274.946 305.947 274.946 306.292V311H273.459Z" fill="#1D2026"/>
</g>
<defs>
<filter id="filter0_d_413_6989" x="77.9" y="166.4" width="11.2" height="11.2" filterUnits="userSpaceOnUse" color-interpolation-filters="sRGB">
<feFlood flood-opacity="0" result="BackgroundImageFix"/>
<feColorMatrix in="SourceAlpha" type="matrix" values="0 0 0 0 0 0 0 0 0 0 0 0 0 0 0 0 0 0 127 0" result="hardAlpha"/>
<feMorphology radius="1.6" operator="dilate" in="SourceAlpha" result="effect1_dropShadow_413_6989"/>
<feOffset/>
<feComposite in2="hardAlpha" operator="out"/>
<feColorMatrix type="matrix" values="0 0 0 0 0.0705882 0 0 0 0 0.635294 0 0 0 0 0.313726 0 0 0 0.25 0"/>
<feBlend mode="normal" in2="BackgroundImageFix" result="effect1_dropShadow_413_6989"/>
<feBlend mode="normal" in="SourceGraphic" in2="effect1_dropShadow_413_6989" result="shape"/>
</filter>
<filter id="filter1_d_413_6989" x="30.5" y="278" width="366" height="56" filterUnits="userSpaceOnUse" color-interpolation-filters="sRGB">
<feFlood flood-opacity="0" result="BackgroundImageFix"/>
<feColorMatrix in="SourceAlpha" type="matrix" values="0 0 0 0 0 0 0 0 0 0 0 0 0 0 0 0 0 0 127 0" result="hardAlpha"/>
<feOffset/>
<feGaussianBlur stdDeviation="4"/>
<feComposite in2="hardAlpha" operator="out"/>
<feColorMatrix type="matrix" values="0 0 0 0 0 0 0 0 0 0 0 0 0 0 0 0 0 0 0.02 0"/>
<feBlend mode="normal" in2="BackgroundImageFix" result="effect1_dropShadow_413_6989"/>
<feBlend mode="normal" in="SourceGraphic" in2="effect1_dropShadow_413_6989" result="shape"/>
</filter>
<linearGradient id="paint0_linear_413_6989" x1="49.5" y1="95" x2="49.5" y2="139" gradientUnits="userSpaceOnUse">
<stop stop-color="#1675FF"/>
<stop offset="1" stop-color="#0057E1"/>
</linearGradient>
<linearGradient id="paint1_linear_413_6989" x1="22" y1="0" x2="22" y2="44" gradientUnits="userSpaceOnUse">
<stop stop-color="#12A250"/>
<stop offset="1" stop-color="#17D669"/>
</linearGradient>
<clipPath id="clip0_413_6989">
<rect width="24" height="24" fill="white" transform="translate(368 214)"/>
</clipPath>
</defs>
</svg>
