<svg width="427" height="350" viewBox="0 0 427 350" fill="none" xmlns="http://www.w3.org/2000/svg">
<rect width="426.5" height="350" fill="#FAFAFA"/>
<rect x="24.5" y="25.5" width="373" height="278" rx="9.5" fill="white" stroke="#EEEEEE"/>
<path d="M24 64L398 64" stroke="#EEEEEE"/>
<rect opacity="0.05" x="40" y="42" width="131" height="10" rx="5" fill="#1D2026" fill-opacity="0.75"/>
<rect opacity="0.05" x="181" y="42" width="51" height="10" rx="5" fill="#1D2026" fill-opacity="0.75"/>
<rect x="363" y="42" width="16" height="10" rx="5" fill="#12A250"/>
<g filter="url(#filter0_d_413_7035)">
<rect x="99.3359" y="291" width="227.832" height="38" rx="8" fill="white" shape-rendering="crispEdges"/>
<rect x="99.8359" y="291.5" width="226.832" height="37" rx="7.5" stroke="#EEEEEE" shape-rendering="crispEdges"/>
<g clip-path="url(#clip0_413_7035)">
<path d="M132.936 307.698H129.528C129.256 307.698 129.04 307.482 129.04 307.21V303.813C129.04 303.589 128.864 303.413 128.64 303.413H125.232C124.96 303.413 124.744 303.197 124.744 302.925L124.728 300.471C124.728 300.247 124.592 300.047 124.392 299.959C123.064 299.408 121.648 299.12 120.184 299.12C114.2 299.12 109.336 303.981 109.336 309.96C109.336 315.94 114.2 320.8 120.184 320.8C121.648 320.8 123.056 320.512 124.392 319.953C124.6 319.865 124.728 319.665 124.728 319.441L124.744 316.819C124.744 316.547 124.96 316.331 125.232 316.331H128.64C128.864 316.331 129.04 316.156 129.04 315.932V312.526C129.04 312.254 129.256 312.039 129.528 312.039H132.936C133.16 312.039 133.336 311.863 133.336 311.639V308.082C133.336 307.874 133.16 307.698 132.936 307.698ZM119.904 311.991H116.656C116.384 311.991 116.168 311.775 116.168 311.503V308.249C116.168 307.978 116.384 307.762 116.656 307.762H119.912C120.184 307.762 120.4 307.978 120.4 308.249V311.503C120.392 311.767 120.176 311.991 119.904 311.991ZM124.2 307.698H120.944C120.672 307.698 120.456 307.482 120.456 307.21V303.965C120.456 303.693 120.672 303.477 120.944 303.477H124.2C124.472 303.477 124.688 303.693 124.688 303.965V307.218C124.68 307.482 124.464 307.698 124.2 307.698ZM120.944 312.055H124.2C124.472 312.055 124.688 312.27 124.688 312.542V315.796C124.688 316.068 124.472 316.283 124.2 316.283H120.944C120.672 316.283 120.456 316.068 120.456 315.796V312.542C120.456 312.27 120.68 312.055 120.944 312.055ZM125.24 307.77H128.496C128.768 307.77 128.984 307.986 128.984 308.257V311.511C128.984 311.783 128.768 311.999 128.496 311.999H125.24C124.968 311.999 124.752 311.783 124.752 311.511V308.257C124.752 307.986 124.968 307.77 125.24 307.77Z" fill="#1D2026"/>
</g>
<path opacity="0.1" d="M144.668 301.628V318.372H143.336V301.628H144.668Z" fill="#1D2026"/>
<path d="M156.651 315H155.02L158.684 304.818H160.459L164.123 315H162.492L159.614 306.668H159.534L156.651 315ZM156.924 311.013H162.214V312.305H156.924V311.013ZM165.453 315V304.818H169.082C169.875 304.818 170.531 304.962 171.051 305.251C171.572 305.539 171.961 305.933 172.22 306.434C172.478 306.931 172.607 307.491 172.607 308.114C172.607 308.741 172.476 309.304 172.215 309.805C171.956 310.302 171.565 310.696 171.041 310.988C170.521 311.276 169.866 311.42 169.078 311.42H166.582V310.118H168.938C169.439 310.118 169.845 310.032 170.156 309.859C170.468 309.684 170.697 309.445 170.842 309.143C170.988 308.842 171.061 308.499 171.061 308.114C171.061 307.73 170.988 307.388 170.842 307.09C170.697 306.792 170.466 306.558 170.151 306.389C169.84 306.22 169.429 306.136 168.918 306.136H166.989V315H165.453ZM175.805 304.818V315H174.268V304.818H175.805ZM182.327 315H180.696L184.36 304.818H186.135L189.799 315H188.169L185.29 306.668H185.21L182.327 315ZM182.6 311.013H187.89V312.305H182.6V311.013ZM194.104 315.154C193.365 315.154 192.728 314.987 192.195 314.652C191.664 314.314 191.257 313.848 190.972 313.255C190.687 312.662 190.544 311.982 190.544 311.217C190.544 310.441 190.69 309.757 190.982 309.163C191.273 308.567 191.684 308.101 192.215 307.766C192.745 307.432 193.37 307.264 194.089 307.264C194.669 307.264 195.186 307.372 195.64 307.587C196.094 307.799 196.46 308.098 196.739 308.482C197.02 308.867 197.188 309.316 197.241 309.83H195.794C195.715 309.472 195.532 309.163 195.247 308.905C194.966 308.646 194.588 308.517 194.114 308.517C193.699 308.517 193.337 308.626 193.025 308.845C192.717 309.061 192.476 309.369 192.304 309.77C192.132 310.168 192.046 310.638 192.046 311.182C192.046 311.739 192.13 312.219 192.299 312.624C192.468 313.028 192.707 313.341 193.015 313.563C193.327 313.785 193.693 313.896 194.114 313.896C194.395 313.896 194.651 313.845 194.879 313.742C195.111 313.636 195.305 313.485 195.461 313.29C195.62 313.094 195.731 312.859 195.794 312.584H197.241C197.188 313.078 197.027 313.518 196.759 313.906C196.49 314.294 196.131 314.599 195.68 314.821C195.232 315.043 194.707 315.154 194.104 315.154ZM201.907 315.154C201.168 315.154 200.532 314.987 199.998 314.652C199.468 314.314 199.06 313.848 198.775 313.255C198.49 312.662 198.347 311.982 198.347 311.217C198.347 310.441 198.493 309.757 198.785 309.163C199.077 308.567 199.488 308.101 200.018 307.766C200.548 307.432 201.173 307.264 201.892 307.264C202.472 307.264 202.989 307.372 203.443 307.587C203.897 307.799 204.264 308.098 204.542 308.482C204.824 308.867 204.991 309.316 205.044 309.83H203.597C203.518 309.472 203.336 309.163 203.051 308.905C202.769 308.646 202.391 308.517 201.917 308.517C201.503 308.517 201.14 308.626 200.828 308.845C200.52 309.061 200.28 309.369 200.107 309.77C199.935 310.168 199.849 310.638 199.849 311.182C199.849 311.739 199.933 312.219 200.102 312.624C200.272 313.028 200.51 313.341 200.818 313.563C201.13 313.785 201.496 313.896 201.917 313.896C202.199 313.896 202.454 313.845 202.683 313.742C202.915 313.636 203.109 313.485 203.264 313.29C203.423 313.094 203.535 312.859 203.597 312.584H205.044C204.991 313.078 204.83 313.518 204.562 313.906C204.294 314.294 203.934 314.599 203.483 314.821C203.036 315.043 202.51 315.154 201.907 315.154ZM209.785 315.154C209.033 315.154 208.385 314.993 207.841 314.672C207.301 314.347 206.883 313.891 206.588 313.305C206.297 312.715 206.151 312.024 206.151 311.232C206.151 310.449 206.297 309.76 206.588 309.163C206.883 308.567 207.294 308.101 207.821 307.766C208.352 307.432 208.971 307.264 209.681 307.264C210.112 307.264 210.529 307.335 210.934 307.478C211.338 307.621 211.701 307.844 212.022 308.149C212.344 308.454 212.597 308.85 212.783 309.337C212.969 309.821 213.061 310.41 213.061 311.102V311.629H206.991V310.516H211.605C211.605 310.125 211.525 309.778 211.366 309.477C211.207 309.172 210.983 308.931 210.695 308.756C210.41 308.58 210.075 308.492 209.691 308.492C209.273 308.492 208.908 308.595 208.597 308.8C208.289 309.003 208.05 309.268 207.881 309.596C207.715 309.921 207.632 310.274 207.632 310.655V311.525C207.632 312.035 207.722 312.469 207.901 312.827C208.083 313.185 208.337 313.459 208.662 313.648C208.986 313.833 209.366 313.926 209.8 313.926C210.082 313.926 210.339 313.886 210.571 313.807C210.803 313.724 211.003 313.601 211.172 313.439C211.341 313.277 211.47 313.076 211.56 312.837L212.967 313.091C212.854 313.505 212.652 313.868 212.36 314.18C212.072 314.488 211.709 314.728 211.272 314.901C210.837 315.07 210.342 315.154 209.785 315.154ZM220.293 309.228L218.946 309.467C218.889 309.294 218.8 309.13 218.677 308.974C218.558 308.819 218.396 308.691 218.19 308.592C217.985 308.492 217.728 308.442 217.419 308.442C216.998 308.442 216.647 308.537 216.365 308.726C216.084 308.911 215.943 309.152 215.943 309.447C215.943 309.702 216.037 309.907 216.226 310.063C216.415 310.219 216.72 310.347 217.141 310.446L218.354 310.724C219.057 310.887 219.58 311.137 219.925 311.475C220.27 311.813 220.442 312.252 220.442 312.793C220.442 313.25 220.31 313.658 220.044 314.016C219.783 314.37 219.416 314.649 218.946 314.851C218.478 315.053 217.936 315.154 217.32 315.154C216.465 315.154 215.767 314.972 215.227 314.607C214.687 314.239 214.355 313.717 214.233 313.041L215.669 312.822C215.759 313.197 215.943 313.48 216.221 313.673C216.5 313.862 216.863 313.956 217.31 313.956C217.797 313.956 218.187 313.855 218.478 313.653C218.77 313.447 218.916 313.197 218.916 312.902C218.916 312.663 218.826 312.463 218.647 312.3C218.472 312.138 218.202 312.015 217.837 311.933L216.544 311.649C215.832 311.487 215.305 311.228 214.963 310.874C214.625 310.519 214.456 310.07 214.456 309.526C214.456 309.076 214.582 308.681 214.834 308.343C215.086 308.005 215.434 307.741 215.878 307.553C216.322 307.36 216.831 307.264 217.405 307.264C218.23 307.264 218.879 307.443 219.353 307.801C219.827 308.156 220.141 308.631 220.293 309.228ZM227.659 309.228L226.312 309.467C226.255 309.294 226.166 309.13 226.043 308.974C225.924 308.819 225.761 308.691 225.556 308.592C225.35 308.492 225.094 308.442 224.785 308.442C224.364 308.442 224.013 308.537 223.731 308.726C223.45 308.911 223.309 309.152 223.309 309.447C223.309 309.702 223.403 309.907 223.592 310.063C223.781 310.219 224.086 310.347 224.507 310.446L225.72 310.724C226.423 310.887 226.946 311.137 227.291 311.475C227.636 311.813 227.808 312.252 227.808 312.793C227.808 313.25 227.675 313.658 227.41 314.016C227.148 314.37 226.782 314.649 226.312 314.851C225.844 315.053 225.302 315.154 224.686 315.154C223.831 315.154 223.133 314.972 222.593 314.607C222.053 314.239 221.721 313.717 221.598 313.041L223.035 312.822C223.125 313.197 223.309 313.48 223.587 313.673C223.866 313.862 224.228 313.956 224.676 313.956C225.163 313.956 225.553 313.855 225.844 313.653C226.136 313.447 226.282 313.197 226.282 312.902C226.282 312.663 226.192 312.463 226.013 312.3C225.838 312.138 225.567 312.015 225.203 311.933L223.91 311.649C223.198 311.487 222.671 311.228 222.329 310.874C221.991 310.519 221.822 310.07 221.822 309.526C221.822 309.076 221.948 308.681 222.2 308.343C222.452 308.005 222.8 307.741 223.244 307.553C223.688 307.36 224.197 307.264 224.77 307.264C225.596 307.264 226.245 307.443 226.719 307.801C227.193 308.156 227.506 308.631 227.659 309.228Z" fill="#1D2026"/>
<rect x="238.672" y="296" width="83.5" height="28" rx="5" fill="#12A250"/>
<rect x="238.672" y="296" width="83.5" height="28" rx="5" fill="url(#paint0_linear_413_7035)" fill-opacity="0.2"/>
<path d="M256.253 307.125L250.982 312.396L248.586 310" stroke="white" stroke-width="0.958333" stroke-linecap="round" stroke-linejoin="round"/>
<path d="M268.181 308.035C268.085 307.733 267.956 307.463 267.793 307.224C267.634 306.982 267.444 306.777 267.222 306.608C267 306.436 266.746 306.305 266.461 306.215C266.179 306.126 265.869 306.081 265.531 306.081C264.958 306.081 264.441 306.228 263.98 306.523C263.519 306.818 263.155 307.251 262.886 307.821C262.621 308.388 262.489 309.082 262.489 309.904C262.489 310.729 262.623 311.427 262.891 311.997C263.16 312.567 263.528 313 263.995 313.295C264.462 313.59 264.994 313.737 265.591 313.737C266.144 313.737 266.627 313.625 267.038 313.399C267.452 313.174 267.772 312.856 267.997 312.445C268.226 312.03 268.34 311.543 268.34 310.983L268.738 311.058H265.825V309.79H269.827V310.948C269.827 311.803 269.644 312.546 269.28 313.175C268.919 313.802 268.418 314.286 267.778 314.627C267.142 314.969 266.413 315.139 265.591 315.139C264.67 315.139 263.861 314.927 263.165 314.503C262.472 314.079 261.932 313.477 261.544 312.698C261.156 311.916 260.962 310.988 260.962 309.914C260.962 309.102 261.075 308.373 261.3 307.727C261.526 307.08 261.842 306.532 262.25 306.081C262.661 305.627 263.143 305.281 263.697 305.042C264.254 304.8 264.862 304.679 265.521 304.679C266.071 304.679 266.584 304.76 267.058 304.923C267.535 305.085 267.959 305.315 268.33 305.614C268.705 305.912 269.015 306.267 269.26 306.678C269.505 307.085 269.671 307.538 269.757 308.035H268.181ZM271.517 315V307.364H272.954V308.577H273.034C273.173 308.166 273.418 307.843 273.77 307.607C274.124 307.369 274.525 307.249 274.973 307.249C275.066 307.249 275.175 307.253 275.301 307.259C275.43 307.266 275.531 307.274 275.604 307.284V308.706C275.544 308.689 275.438 308.671 275.286 308.651C275.133 308.628 274.981 308.616 274.829 308.616C274.477 308.616 274.164 308.691 273.889 308.84C273.617 308.986 273.402 309.19 273.243 309.452C273.084 309.71 273.004 310.005 273.004 310.337V315H271.517ZM278.904 315.169C278.421 315.169 277.983 315.08 277.592 314.901C277.201 314.718 276.891 314.455 276.662 314.11C276.437 313.765 276.324 313.343 276.324 312.842C276.324 312.411 276.407 312.057 276.573 311.778C276.739 311.5 276.962 311.28 277.244 311.117C277.526 310.955 277.841 310.832 278.189 310.749C278.537 310.666 278.891 310.603 279.252 310.56C279.71 310.507 280.081 310.464 280.366 310.431C280.651 310.395 280.858 310.337 280.988 310.257C281.117 310.178 281.181 310.048 281.181 309.869V309.835C281.181 309.4 281.059 309.064 280.814 308.825C280.572 308.587 280.21 308.467 279.73 308.467C279.229 308.467 278.835 308.578 278.547 308.8C278.261 309.019 278.064 309.263 277.955 309.531L276.558 309.213C276.724 308.749 276.966 308.375 277.284 308.089C277.605 307.801 277.975 307.592 278.392 307.463C278.81 307.33 279.249 307.264 279.71 307.264C280.015 307.264 280.338 307.301 280.679 307.374C281.024 307.443 281.346 307.572 281.644 307.761C281.945 307.95 282.192 308.22 282.385 308.572C282.577 308.92 282.673 309.372 282.673 309.929V315H281.221V313.956H281.162C281.065 314.148 280.921 314.337 280.729 314.523C280.537 314.708 280.29 314.862 279.988 314.985C279.687 315.108 279.325 315.169 278.904 315.169ZM279.228 313.976C279.639 313.976 279.99 313.895 280.282 313.732C280.577 313.57 280.8 313.358 280.953 313.096C281.109 312.831 281.186 312.547 281.186 312.246V311.261C281.133 311.314 281.031 311.364 280.878 311.411C280.729 311.454 280.558 311.492 280.366 311.525C280.174 311.555 279.987 311.583 279.804 311.609C279.622 311.633 279.47 311.652 279.347 311.669C279.059 311.705 278.795 311.767 278.556 311.853C278.321 311.939 278.132 312.063 277.99 312.226C277.851 312.385 277.781 312.597 277.781 312.862C277.781 313.23 277.917 313.509 278.189 313.697C278.46 313.883 278.807 313.976 279.228 313.976ZM285.999 310.466V315H284.513V307.364H285.94V308.607H286.034C286.21 308.202 286.485 307.877 286.859 307.632C287.237 307.387 287.713 307.264 288.286 307.264C288.807 307.264 289.262 307.374 289.654 307.592C290.045 307.808 290.348 308.129 290.563 308.557C290.779 308.984 290.886 309.513 290.886 310.143V315H289.4V310.322C289.4 309.768 289.256 309.336 288.967 309.024C288.679 308.709 288.283 308.552 287.779 308.552C287.435 308.552 287.128 308.626 286.859 308.776C286.594 308.925 286.384 309.143 286.228 309.432C286.076 309.717 285.999 310.062 285.999 310.466ZM296.305 307.364V308.557H292.134V307.364H296.305ZM293.252 305.534H294.739V312.758C294.739 313.046 294.782 313.263 294.868 313.409C294.954 313.552 295.065 313.649 295.201 313.702C295.34 313.752 295.491 313.777 295.653 313.777C295.773 313.777 295.877 313.769 295.967 313.752C296.056 313.736 296.126 313.722 296.175 313.712L296.444 314.94C296.358 314.973 296.235 315.007 296.076 315.04C295.917 315.076 295.718 315.096 295.479 315.099C295.088 315.106 294.724 315.036 294.386 314.891C294.048 314.745 293.774 314.519 293.565 314.214C293.357 313.91 293.252 313.527 293.252 313.066V305.534ZM301.018 315.154C300.266 315.154 299.618 314.993 299.074 314.672C298.534 314.347 298.116 313.891 297.821 313.305C297.53 312.715 297.384 312.024 297.384 311.232C297.384 310.449 297.53 309.76 297.821 309.163C298.116 308.567 298.527 308.101 299.054 307.766C299.585 307.432 300.205 307.264 300.914 307.264C301.345 307.264 301.762 307.335 302.167 307.478C302.571 307.621 302.934 307.844 303.255 308.149C303.577 308.454 303.83 308.85 304.016 309.337C304.202 309.821 304.294 310.41 304.294 311.102V311.629H298.224V310.516H302.838C302.838 310.125 302.758 309.778 302.599 309.477C302.44 309.172 302.216 308.931 301.928 308.756C301.643 308.58 301.308 308.492 300.924 308.492C300.506 308.492 300.142 308.595 299.83 308.8C299.522 309.003 299.283 309.268 299.114 309.596C298.948 309.921 298.866 310.274 298.866 310.655V311.525C298.866 312.035 298.955 312.469 299.134 312.827C299.316 313.185 299.57 313.459 299.895 313.648C300.219 313.833 300.599 313.926 301.033 313.926C301.315 313.926 301.572 313.886 301.804 313.807C302.036 313.724 302.236 313.601 302.405 313.439C302.574 313.277 302.704 313.076 302.793 312.837L304.2 313.091C304.087 313.505 303.885 313.868 303.594 314.18C303.305 314.488 302.942 314.728 302.505 314.901C302.071 315.07 301.575 315.154 301.018 315.154ZM308.662 315.149C308.046 315.149 307.496 314.992 307.012 314.677C306.531 314.359 306.153 313.906 305.878 313.32C305.607 312.73 305.471 312.022 305.471 311.197C305.471 310.371 305.608 309.665 305.883 309.079C306.162 308.492 306.543 308.043 307.027 307.732C307.511 307.42 308.059 307.264 308.672 307.264C309.146 307.264 309.528 307.344 309.816 307.503C310.108 307.659 310.333 307.841 310.492 308.05C310.654 308.259 310.78 308.442 310.87 308.602H310.959V304.818H312.446V315H310.994V313.812H310.87C310.78 313.974 310.651 314.16 310.482 314.369C310.316 314.577 310.088 314.76 309.796 314.915C309.504 315.071 309.127 315.149 308.662 315.149ZM308.991 313.881C309.418 313.881 309.779 313.769 310.074 313.543C310.373 313.315 310.598 312.998 310.751 312.594C310.906 312.189 310.984 311.719 310.984 311.182C310.984 310.652 310.908 310.187 310.756 309.79C310.603 309.392 310.379 309.082 310.084 308.86C309.789 308.638 309.425 308.527 308.991 308.527C308.543 308.527 308.17 308.643 307.872 308.875C307.574 309.107 307.348 309.424 307.196 309.825C307.047 310.226 306.972 310.678 306.972 311.182C306.972 311.692 307.048 312.151 307.201 312.559C307.353 312.967 307.579 313.29 307.877 313.528C308.179 313.764 308.55 313.881 308.991 313.881Z" fill="white"/>
</g>
<rect opacity="0.05" x="40" y="79" width="16" height="10" rx="5" fill="#1D2026" fill-opacity="0.75"/>
<rect opacity="0.05" x="67" y="79" width="128" height="10" rx="5" fill="#1D2026" fill-opacity="0.75"/>
<rect opacity="0.05" width="128" height="10" rx="5" transform="matrix(1 0 0 -1 67 174)" fill="#1D2026" fill-opacity="0.75"/>
<rect opacity="0.05" x="67" y="181" width="61" height="10" rx="5" fill="#1D2026" fill-opacity="0.75"/>
<rect opacity="0.05" x="133" y="181" width="42" height="10" rx="5" fill="#1D2026" fill-opacity="0.75"/>
<rect opacity="0.05" x="182" y="181" width="63" height="10" rx="5" fill="#1D2026" fill-opacity="0.75"/>
<rect opacity="0.05" x="40" y="96" width="16" height="10" rx="5" fill="#1D2026" fill-opacity="0.75"/>
<rect opacity="0.05" x="67" y="96" width="47" height="10" rx="5" fill="#1D2026" fill-opacity="0.75"/>
<rect opacity="0.05" x="67" y="113" width="64" height="10" rx="5" fill="#1D2026" fill-opacity="0.75"/>
<rect opacity="0.05" width="64" height="10" rx="5" transform="matrix(1 0 0 -1 67 157)" fill="#1D2026" fill-opacity="0.75"/>
<rect opacity="0.05" x="67" y="198" width="64" height="10" rx="5" fill="#1D2026" fill-opacity="0.75"/>
<rect opacity="0.05" x="67" y="232" width="31" height="10" rx="5" fill="#1D2026" fill-opacity="0.75"/>
<rect opacity="0.05" x="103" y="232" width="54" height="10" rx="5" fill="#1D2026" fill-opacity="0.75"/>
<rect opacity="0.05" x="122" y="96" width="26" height="10" rx="5" fill="#1D2026" fill-opacity="0.75"/>
<rect opacity="0.05" x="155" y="96" width="61" height="10" rx="5" fill="#1D2026" fill-opacity="0.75"/>
<rect opacity="0.05" x="40" y="113" width="16" height="10" rx="5" fill="#1D2026" fill-opacity="0.75"/>
<rect opacity="0.05" x="40" y="130" width="16" height="10" rx="5" fill="#1D2026" fill-opacity="0.75"/>
<rect opacity="0.05" x="40" y="147" width="16" height="10" rx="5" fill="#1D2026" fill-opacity="0.75"/>
<rect opacity="0.05" x="40" y="164" width="16" height="10" rx="5" fill="#1D2026" fill-opacity="0.75"/>
<rect opacity="0.05" x="40" y="181" width="16" height="10" rx="5" fill="#1D2026" fill-opacity="0.75"/>
<rect opacity="0.05" x="40" y="198" width="16" height="10" rx="5" fill="#1D2026" fill-opacity="0.75"/>
<rect opacity="0.05" x="40" y="215" width="16" height="10" rx="5" fill="#1D2026" fill-opacity="0.75"/>
<rect opacity="0.05" x="40" y="232" width="16" height="10" rx="5" fill="#1D2026" fill-opacity="0.75"/>
<rect opacity="0.05" x="40" y="249" width="16" height="10" rx="5" fill="#1D2026" fill-opacity="0.75"/>
<rect opacity="0.05" x="40" y="266" width="16" height="10" rx="5" fill="#1D2026" fill-opacity="0.75"/>
<path d="M308.382 289L301 296.371L306.448 301.827L313.831 294.456L308.382 289Z" fill="#F9DC5C"/>
<path d="M96.3807 285L94 295.157L101.507 296.917L103.888 286.76L96.3807 285Z" fill="#F9DC5C"/>
<path d="M48.2088 169.866L45.8281 180.023L53.3354 181.783L55.7161 171.626L48.2088 169.866Z" fill="#02FFC2"/>
<path d="M109.099 199.418L114.32 205.091L118.513 201.232L113.291 195.559L109.099 199.418Z" fill="#02FFC2"/>
<path d="M334 238.786L341.828 245.683L346.925 239.897L339.098 233L334 238.786Z" fill="#FF5E5B"/>
<path d="M56.9691 301.356L64.7969 308.253L69.8942 302.467L62.0664 295.571L56.9691 301.356Z" fill="#FF5E5B"/>
<path d="M307.999 197.801L311.617 201.996L318.344 196.195L314.726 192L307.999 197.801Z" fill="#02FFC2"/>
<path d="M379.285 271.579L384.359 271.395L384.008 261.706L378.934 261.89L379.285 271.579Z" fill="#F9DC5C"/>
<path d="M125.833 248.938L131.469 251.163L135.283 241.502L129.647 239.277L125.833 248.938Z" fill="#0AD3FF"/>
<path d="M395.612 206.361C396.218 204.624 398.116 203.707 399.853 204.313C401.59 204.919 402.507 206.817 401.901 208.554C401.296 210.292 399.397 211.208 397.66 210.603C395.924 209.997 395.006 208.098 395.612 206.361Z" fill="#0AD3FF"/>
<path d="M67.0241 270.37C65.9398 270.613 65.2576 271.689 65.5005 272.774C65.7434 273.858 66.8194 274.54 67.9037 274.297C68.9881 274.054 69.6703 272.978 69.4274 271.894C69.1845 270.81 68.1085 270.127 67.0241 270.37Z" fill="#0AD3FF"/>
<path d="M358.838 302.546C357.246 301.99 355.505 302.831 354.949 304.424C354.394 306.016 355.235 307.757 356.827 308.313C358.42 308.868 360.161 308.027 360.716 306.435C361.272 304.842 360.431 303.101 358.838 302.546Z" fill="#0AD3FF"/>
<path d="M311.731 245.43C310.412 244.97 308.97 245.667 308.51 246.986C308.05 248.304 308.746 249.746 310.065 250.206C311.384 250.666 312.826 249.97 313.286 248.651C313.746 247.332 313.049 245.89 311.731 245.43Z" fill="#0AD3FF"/>
<path d="M135.378 288.532C134.065 288.826 133.239 290.129 133.534 291.442C133.828 292.755 135.13 293.58 136.443 293.286C137.756 292.992 138.582 291.69 138.288 290.377C137.994 289.064 136.691 288.238 135.378 288.532Z" fill="#0AD3FF"/>
<path d="M73.1418 321.383C72.7077 319.445 73.9266 317.523 75.8646 317.089C77.8027 316.655 79.7253 317.874 80.1594 319.812C80.5935 321.75 79.3746 323.672 77.4365 324.106C75.4985 324.54 73.5759 323.321 73.1418 321.383Z" fill="#1675FF"/>
<path d="M17.9621 247.22C16.8361 247.472 16.1279 248.59 16.3801 249.715C16.6323 250.841 17.7494 251.55 18.8754 251.297C20.0013 251.045 20.7096 249.928 20.4574 248.802C20.2052 247.676 19.088 246.968 17.9621 247.22Z" fill="#1675FF"/>
<path d="M62.3113 224.025C60.3949 224.454 59.1893 226.356 59.6186 228.272C60.0478 230.188 61.9494 231.394 63.8659 230.965C65.7823 230.536 66.9879 228.634 66.5587 226.717C66.1294 224.801 64.2278 223.595 62.3113 224.025Z" fill="#1675FF"/>
<path d="M76.8752 189.707C75.4419 190.028 74.5403 191.45 74.8614 192.883C75.1824 194.316 76.6045 195.218 78.0377 194.897C79.4709 194.576 80.3726 193.154 80.0515 191.72C79.7305 190.287 78.3084 189.386 76.8752 189.707Z" fill="#F9DC5C"/>
<path d="M373.901 243.448C372.764 243.051 371.521 243.652 371.125 244.788C370.728 245.925 371.328 247.168 372.465 247.564C373.602 247.961 374.845 247.361 375.241 246.224C375.638 245.087 375.037 243.844 373.901 243.448Z" fill="#F9DC5C"/>
<path d="M133.498 272.451C133.312 271.618 133.836 270.793 134.669 270.607C135.502 270.42 136.328 270.944 136.514 271.775C136.7 272.607 136.177 273.434 135.344 273.621C134.511 273.808 133.685 273.283 133.498 272.451Z" fill="#F9DC5C"/>
<rect x="275.144" y="40.0149" width="129" height="129" rx="9.5" transform="rotate(8 275.144 40.0149)" fill="white" stroke="#EEEEEE"/>
<g clip-path="url(#clip1_413_7035)">
<path d="M323.113 67.8172C323.113 67.8172 330.567 81.3715 354.791 73.018C376.305 65.5997 378.75 93.5056 374.065 104.262C367.996 118.196 347.74 122.488 351.11 134.915C354.48 147.343 325.61 152.532 319.466 134.181C311.823 111.353 301.933 122.733 293.462 118.962C287.383 116.255 281.627 95.5922 295.059 88.1067C306.362 81.8077 303.891 76.947 303.478 72.8345C302.881 66.903 315.012 56.926 323.113 67.8172Z" fill="#F1F1F1"/>
<path d="M359.901 106.815C360.406 107.309 361.06 107.619 361.754 107.754C364.659 108.323 374.435 110.756 369.733 117.078C368.77 118.319 359.988 123.759 366.279 129.973C366.738 130.431 367.273 130.807 367.859 131.086C370.165 132.17 375.022 133.674 377.827 132.568C381.216 131.233 378.167 131.224 378.167 131.224C378.167 131.224 367.58 131.146 366.276 125.647C366.131 125.036 366.204 124.274 366.395 123.674C366.725 122.635 367.747 121.523 368.832 120.641C370.3 119.448 377.139 114.185 369.892 108.538C368.214 107.256 365.667 105.641 361.494 105.555C359.06 105.506 359.288 106.215 359.901 106.815Z" fill="#B8B8B8"/>
<path d="M362.872 105.035L360.119 104.867C359.169 104.81 358.352 105.533 358.294 106.483L358.272 106.848C358.214 107.798 358.937 108.615 359.887 108.673L362.64 108.84C363.59 108.898 364.408 108.175 364.465 107.225L364.488 106.86C364.545 105.91 363.822 105.093 362.872 105.035Z" fill="#B5B5B5"/>
<path d="M347.251 101.141L338.173 100.588C337.698 100.56 337.289 100.921 337.26 101.396L337.254 101.492C337.225 101.967 337.587 102.376 338.062 102.405L347.141 102.957C347.616 102.986 348.024 102.624 348.053 102.149L348.059 102.053C348.088 101.578 347.726 101.17 347.251 101.141Z" fill="white"/>
<path d="M346.837 107.91L337.759 107.358C337.284 107.329 336.875 107.691 336.846 108.166L336.84 108.261C336.811 108.737 337.173 109.145 337.648 109.174L346.727 109.726C347.202 109.755 347.61 109.394 347.639 108.918L347.645 108.823C347.674 108.348 347.312 107.939 346.837 107.91Z" fill="white"/>
<path d="M358.367 101.346L351.01 100.899C350.059 100.841 349.242 101.564 349.184 102.514L348.776 109.227C348.718 110.177 349.442 110.994 350.392 111.052L357.75 111.499C358.7 111.557 359.517 110.834 359.575 109.883L359.983 103.171C360.041 102.221 359.318 101.404 358.367 101.346Z" fill="#B5B5B5"/>
<path d="M352.039 100.338L344.681 99.8908C343.731 99.833 342.914 100.556 342.856 101.507L342.369 109.514C342.311 110.465 343.035 111.282 343.985 111.34L351.343 111.787C352.293 111.845 353.11 111.122 353.168 110.171L353.655 102.164C353.713 101.213 352.989 100.396 352.039 100.338Z" fill="#BEBEBE"/>
<path d="M353.65 99.3848L353.592 99.3813C352.959 99.3428 352.414 99.8251 352.376 100.459L351.693 111.677C351.655 112.31 352.137 112.855 352.77 112.893L352.828 112.897C353.462 112.935 354.006 112.453 354.045 111.82L354.727 100.602C354.766 99.9681 354.284 99.4233 353.65 99.3848Z" fill="#A1A1A1"/>
<path d="M286.597 76.9006C286.597 76.9006 300.848 78.9804 295.358 86.3626C294.461 87.518 286.889 92.1527 290.937 97.7986C291.806 99.0109 293.027 99.9202 294.393 100.52C296.841 101.595 300.924 102.849 303.452 101.853C306.841 100.517 303.792 100.509 303.792 100.509C303.792 100.509 295.186 100.262 292.505 96.2105C291.59 94.8271 291.713 92.9923 292.716 91.6717C293.22 91.0179 293.805 90.4311 294.457 89.9253C295.95 88.7633 302.764 83.469 295.517 77.8221C293.839 76.5397 291.292 74.9247 287.119 74.8397C282.946 74.7546 286.597 76.9006 286.597 76.9006Z" fill="#B8B8B8"/>
<path d="M306.536 99.527L303.783 99.3595C302.833 99.3017 302.016 100.025 301.958 100.975L301.936 101.34C301.878 102.29 302.601 103.107 303.552 103.165L306.304 103.333C307.254 103.39 308.072 102.667 308.129 101.717L308.152 101.352C308.209 100.402 307.486 99.5848 306.536 99.527Z" fill="#B5B5B5"/>
<path d="M312.246 97.4202L308.166 97.172C307.216 97.1142 306.398 97.8377 306.341 98.7879L306.021 104.044C305.963 104.994 306.687 105.812 307.637 105.869L311.716 106.117C312.667 106.175 313.484 105.452 313.542 104.502L313.861 99.2454C313.919 98.2952 313.196 97.478 312.246 97.4202Z" fill="#B5B5B5"/>
<path d="M319.609 96.5431L313.525 96.173C312.575 96.1152 311.758 96.8387 311.7 97.7889L311.213 105.797C311.155 106.747 311.879 107.564 312.829 107.622L318.913 107.992C319.863 108.05 320.68 107.326 320.738 106.376L321.225 98.3683C321.283 97.4181 320.559 96.6009 319.609 96.5431Z" fill="#BEBEBE"/>
<path d="M321.353 95.6133L321.295 95.6098C320.662 95.5713 320.117 96.0536 320.079 96.6871L319.396 107.905C319.358 108.539 319.84 109.083 320.474 109.122L320.531 109.125C321.165 109.164 321.71 108.682 321.748 108.048L322.43 96.8301C322.469 96.1966 321.987 95.6519 321.353 95.6133Z" fill="#A1A1A1"/>
<path d="M337.391 95.4165C337.212 95.3121 337.081 95.1424 337.025 94.9433C336.969 94.7442 336.993 94.5311 337.091 94.3489L340.644 87.415C340.856 87.0008 341.359 86.8379 341.749 87.0565L342.292 87.3614C342.682 87.5801 342.803 88.0922 342.559 88.4884L338.462 95.1174C338.356 95.2955 338.186 95.426 337.986 95.4817C337.787 95.5375 337.574 95.5141 337.391 95.4165V95.4165Z" fill="#CBCBCB"/>
<path d="M333.764 94.5341C333.698 94.5252 333.634 94.5035 333.576 94.47C333.519 94.4366 333.468 94.3921 333.428 94.3391C333.387 94.2861 333.358 94.2257 333.341 94.1613C333.323 94.0969 333.319 94.0298 333.328 93.9637L333.907 88.924C333.922 88.7803 333.994 88.6486 334.107 88.5579C334.219 88.4671 334.363 88.4247 334.507 88.44L334.915 88.4916C334.985 88.5011 335.052 88.5249 335.112 88.5616C335.172 88.5983 335.224 88.647 335.264 88.7047C335.305 88.7624 335.332 88.8279 335.346 88.8969C335.36 88.9659 335.359 89.0371 335.344 89.1058L334.357 94.094C334.332 94.2285 334.256 94.3485 334.146 94.4301C334.036 94.5116 333.9 94.5487 333.764 94.5341V94.5341Z" fill="#CBCBCB"/>
<path d="M330.749 96.2484C330.363 96.446 329.863 96.2194 329.617 95.7347L325.25 87.128C324.989 86.614 325.113 86.0105 325.523 85.8011L326.094 85.509C326.504 85.2994 327.034 85.5677 327.261 86.0993L331.058 94.9981C331.271 95.4993 331.135 96.0508 330.749 96.2484Z" fill="#CBCBCB"/>
<path d="M327.526 112.017C327.672 112.163 327.755 112.361 327.759 112.568C327.762 112.774 327.685 112.974 327.543 113.126L322.337 118.922C322.026 119.268 321.499 119.297 321.178 118.986L320.73 118.553C320.408 118.242 320.422 117.715 320.76 117.395L326.414 112.032C326.562 111.887 326.76 111.804 326.967 111.801C327.174 111.798 327.374 111.876 327.526 112.017V112.017Z" fill="#CBCBCB"/>
<path d="M330.812 113.799C330.874 113.824 330.93 113.861 330.977 113.908C331.024 113.955 331.062 114.011 331.087 114.073C331.113 114.134 331.126 114.2 331.126 114.267C331.126 114.334 331.113 114.4 331.088 114.461L329.241 119.186C329.189 119.321 329.086 119.43 328.954 119.489C328.822 119.548 328.672 119.552 328.537 119.501L328.156 119.347C328.091 119.32 328.032 119.279 327.983 119.229C327.935 119.178 327.897 119.117 327.873 119.051C327.849 118.985 327.838 118.915 327.843 118.845C327.847 118.774 327.866 118.706 327.898 118.643L330.126 114.073C330.185 113.949 330.289 113.852 330.416 113.801C330.543 113.751 330.685 113.75 330.812 113.799V113.799Z" fill="#CBCBCB"/>
<path d="M334.156 112.91C334.58 112.817 335.005 113.164 335.119 113.695L337.144 123.132C337.265 123.695 336.991 124.247 336.541 124.345L335.914 124.481C335.464 124.579 335.02 124.184 334.936 123.613L333.538 114.039C333.46 113.5 333.732 113.002 334.156 112.91Z" fill="#CBCBCB"/>
</g>
<path d="M326.5 104.5L331.5 99V102.5L335.5 104.5L327 108.5L331.5 104.5H326.5Z" fill="#CBCBCB"/>
<defs>
<filter id="filter0_d_413_7035" x="91.3359" y="283" width="243.836" height="54" filterUnits="userSpaceOnUse" color-interpolation-filters="sRGB">
<feFlood flood-opacity="0" result="BackgroundImageFix"/>
<feColorMatrix in="SourceAlpha" type="matrix" values="0 0 0 0 0 0 0 0 0 0 0 0 0 0 0 0 0 0 127 0" result="hardAlpha"/>
<feOffset/>
<feGaussianBlur stdDeviation="4"/>
<feComposite in2="hardAlpha" operator="out"/>
<feColorMatrix type="matrix" values="0 0 0 0 0 0 0 0 0 0 0 0 0 0 0 0 0 0 0.02 0"/>
<feBlend mode="normal" in2="BackgroundImageFix" result="effect1_dropShadow_413_7035"/>
<feBlend mode="normal" in="SourceGraphic" in2="effect1_dropShadow_413_7035" result="shape"/>
</filter>
<linearGradient id="paint0_linear_413_7035" x1="280.422" y1="296" x2="280.422" y2="324" gradientUnits="userSpaceOnUse">
<stop stop-color="white" stop-opacity="0"/>
<stop offset="1" stop-color="white"/>
</linearGradient>
<clipPath id="clip0_413_7035">
<rect width="24" height="24" fill="white" transform="translate(109.336 298)"/>
</clipPath>
<clipPath id="clip1_413_7035">
<rect width="114.915" height="114.915" fill="white" transform="translate(303.742 26) rotate(24)"/>
</clipPath>
</defs>
</svg>
