<svg width="648" height="254" viewBox="0 0 648 254" fill="none" xmlns="http://www.w3.org/2000/svg">
<mask id="mask0_102_31276" style="mask-type:alpha" maskUnits="userSpaceOnUse" x="0" y="0" width="648" height="254">
<rect width="648" height="254" rx="10" fill="url(#paint0_linear_102_31276)"/>
</mask>
<g mask="url(#mask0_102_31276)">
<g filter="url(#filter0_i_102_31276)">
<rect x="174" y="57" width="300" height="130" rx="10" fill="white"/>
</g>
<rect x="174.5" y="57.5" width="299" height="129" rx="9.5" stroke="#EEEEEE"/>
<rect x="174.5" y="-45.5" width="299" height="92" rx="9.5" fill="white" stroke="#EEEEEE"/>
<rect x="174.5" y="197.5" width="299" height="92" rx="9.5" fill="white" stroke="#EEEEEE"/>
<path d="M434.12 79.0807L435.794 75H448.664C450.443 75.2441 454 76.8206 454 81.1733C454 85.1377 451.165 86.9148 449.368 87.4375C449.042 87.5321 448.703 87.5559 448.364 87.5559H439.561L441.444 83.2659H447.961C448.149 83.2659 448.339 83.2417 448.51 83.1628C449.096 82.893 449.919 82.2519 449.919 81.1733C449.919 80.0947 449.096 79.4536 448.51 79.1838C448.339 79.1049 448.149 79.0807 447.961 79.0807H434.12Z" fill="url(#paint1_linear_102_31276)"/>
<path d="M441.045 80.2988H436.441L431.21 92.8547H440.103L436.232 102.69L450.148 88.6694H437.592L441.045 80.2988Z" fill="url(#paint2_linear_102_31276)"/>
<path opacity="0.75" d="M196.523 137.69L193.341 126.054H194.773L197.205 135.531H197.318L199.795 126.054H201.386L203.864 135.531H203.977L206.409 126.054H207.841L204.659 137.69H203.205L200.636 128.417H200.545L197.977 137.69H196.523ZM211.988 137.872C211.2 137.872 210.509 137.684 209.914 137.309C209.323 136.934 208.861 136.41 208.528 135.735C208.198 135.061 208.033 134.273 208.033 133.372C208.033 132.463 208.198 131.669 208.528 130.991C208.861 130.313 209.323 129.787 209.914 129.412C210.509 129.037 211.2 128.849 211.988 128.849C212.776 128.849 213.465 129.037 214.056 129.412C214.651 129.787 215.113 130.313 215.442 130.991C215.776 131.669 215.942 132.463 215.942 133.372C215.942 134.273 215.776 135.061 215.442 135.735C215.113 136.41 214.651 136.934 214.056 137.309C213.465 137.684 212.776 137.872 211.988 137.872ZM211.988 136.667C212.586 136.667 213.079 136.514 213.465 136.207C213.851 135.9 214.137 135.497 214.323 134.997C214.509 134.497 214.601 133.955 214.601 133.372C214.601 132.788 214.509 132.245 214.323 131.741C214.137 131.237 213.851 130.83 213.465 130.519C213.079 130.209 212.586 130.054 211.988 130.054C211.389 130.054 210.897 130.209 210.51 130.519C210.124 130.83 209.838 131.237 209.653 131.741C209.467 132.245 209.374 132.788 209.374 133.372C209.374 133.955 209.467 134.497 209.653 134.997C209.838 135.497 210.124 135.9 210.51 136.207C210.897 136.514 211.389 136.667 211.988 136.667ZM217.829 137.69V128.963H219.125V130.281H219.216C219.375 129.849 219.662 129.499 220.079 129.23C220.496 128.961 220.966 128.826 221.488 128.826C221.587 128.826 221.71 128.828 221.858 128.832C222.005 128.836 222.117 128.841 222.193 128.849V130.213C222.147 130.201 222.043 130.184 221.88 130.162C221.721 130.135 221.553 130.122 221.375 130.122C220.95 130.122 220.572 130.211 220.238 130.389C219.909 130.563 219.647 130.805 219.454 131.116C219.265 131.423 219.17 131.773 219.17 132.167V137.69H217.829ZM224.963 126.054V137.69H223.622V126.054H224.963ZM230.555 137.872C229.827 137.872 229.185 137.688 228.628 137.321C228.072 136.949 227.636 136.427 227.322 135.752C227.007 135.074 226.85 134.273 226.85 133.349C226.85 132.432 227.007 131.637 227.322 130.963C227.636 130.288 228.074 129.768 228.634 129.4C229.195 129.033 229.842 128.849 230.577 128.849C231.146 128.849 231.594 128.944 231.924 129.133C232.257 129.319 232.511 129.531 232.685 129.769C232.863 130.004 233.002 130.198 233.1 130.349H233.214V126.054H234.555V137.69H233.259V136.349H233.1C233.002 136.508 232.861 136.709 232.68 136.951C232.498 137.19 232.238 137.404 231.901 137.593C231.564 137.779 231.115 137.872 230.555 137.872ZM230.736 136.667C231.274 136.667 231.729 136.527 232.1 136.247C232.471 135.963 232.753 135.571 232.947 135.071C233.14 134.567 233.236 133.985 233.236 133.326C233.236 132.675 233.142 132.105 232.952 131.616C232.763 131.124 232.483 130.741 232.111 130.468C231.74 130.192 231.282 130.054 230.736 130.054C230.168 130.054 229.695 130.199 229.316 130.491C228.941 130.779 228.659 131.171 228.469 131.667C228.284 132.16 228.191 132.713 228.191 133.326C228.191 133.948 228.286 134.512 228.475 135.019C228.668 135.523 228.952 135.925 229.327 136.224C229.706 136.519 230.176 136.667 230.736 136.667ZM239.014 137.69L236.355 128.963H237.764L239.65 135.644H239.741L241.605 128.963H243.037L244.878 135.622H244.968L246.855 128.963H248.264L245.605 137.69H244.287L242.378 130.985H242.241L240.332 137.69H239.014ZM249.877 137.69V128.963H251.218V137.69H249.877ZM250.558 127.508C250.297 127.508 250.072 127.419 249.882 127.241C249.697 127.063 249.604 126.849 249.604 126.599C249.604 126.349 249.697 126.135 249.882 125.957C250.072 125.779 250.297 125.69 250.558 125.69C250.82 125.69 251.043 125.779 251.229 125.957C251.418 126.135 251.513 126.349 251.513 126.599C251.513 126.849 251.418 127.063 251.229 127.241C251.043 127.419 250.82 127.508 250.558 127.508ZM256.809 137.872C256.082 137.872 255.44 137.688 254.883 137.321C254.326 136.949 253.89 136.427 253.576 135.752C253.262 135.074 253.104 134.273 253.104 133.349C253.104 132.432 253.262 131.637 253.576 130.963C253.89 130.288 254.328 129.768 254.889 129.4C255.449 129.033 256.097 128.849 256.832 128.849C257.4 128.849 257.849 128.944 258.178 129.133C258.512 129.319 258.765 129.531 258.94 129.769C259.118 130.004 259.256 130.198 259.354 130.349H259.468V126.054H260.809V137.69H259.514V136.349H259.354C259.256 136.508 259.116 136.709 258.934 136.951C258.752 137.19 258.493 137.404 258.156 137.593C257.818 137.779 257.37 137.872 256.809 137.872ZM256.991 136.667C257.529 136.667 257.983 136.527 258.354 136.247C258.726 135.963 259.008 135.571 259.201 135.071C259.394 134.567 259.491 133.985 259.491 133.326C259.491 132.675 259.396 132.105 259.207 131.616C259.017 131.124 258.737 130.741 258.366 130.468C257.995 130.192 257.536 130.054 256.991 130.054C256.423 130.054 255.949 130.199 255.57 130.491C255.195 130.779 254.913 131.171 254.724 131.667C254.538 132.16 254.445 132.713 254.445 133.326C254.445 133.948 254.54 134.512 254.729 135.019C254.923 135.523 255.207 135.925 255.582 136.224C255.96 136.519 256.43 136.667 256.991 136.667ZM266.95 137.872C266.109 137.872 265.384 137.686 264.774 137.315C264.168 136.94 263.7 136.417 263.371 135.747C263.045 135.073 262.882 134.288 262.882 133.394C262.882 132.501 263.045 131.713 263.371 131.031C263.7 130.345 264.158 129.811 264.746 129.429C265.336 129.042 266.026 128.849 266.814 128.849C267.268 128.849 267.717 128.925 268.16 129.076C268.604 129.228 269.007 129.474 269.371 129.815C269.734 130.152 270.024 130.599 270.24 131.156C270.456 131.713 270.564 132.398 270.564 133.213V133.781H263.836V132.622H269.2C269.2 132.129 269.102 131.69 268.905 131.304C268.711 130.917 268.435 130.612 268.075 130.389C267.719 130.165 267.299 130.054 266.814 130.054C266.28 130.054 265.818 130.186 265.427 130.451C265.041 130.713 264.744 131.054 264.535 131.474C264.327 131.894 264.223 132.345 264.223 132.826V133.599C264.223 134.258 264.336 134.817 264.564 135.275C264.795 135.73 265.115 136.076 265.524 136.315C265.933 136.55 266.408 136.667 266.95 136.667C267.302 136.667 267.621 136.618 267.905 136.519C268.193 136.417 268.441 136.266 268.649 136.065C268.857 135.86 269.018 135.607 269.132 135.304L270.427 135.667C270.291 136.107 270.062 136.493 269.74 136.826C269.418 137.156 269.02 137.413 268.547 137.599C268.073 137.781 267.541 137.872 266.95 137.872ZM278.374 126.054V137.69H276.965V126.054H278.374ZM281.04 137.69V126.054H284.972C285.884 126.054 286.631 126.218 287.21 126.548C287.794 126.874 288.225 127.315 288.506 127.872C288.786 128.429 288.926 129.05 288.926 129.735C288.926 130.421 288.786 131.044 288.506 131.605C288.229 132.165 287.801 132.612 287.222 132.946C286.642 133.275 285.9 133.44 284.994 133.44H282.176V132.19H284.949C285.574 132.19 286.076 132.082 286.454 131.866C286.833 131.65 287.108 131.359 287.278 130.991C287.453 130.62 287.54 130.201 287.54 129.735C287.54 129.269 287.453 128.853 287.278 128.485C287.108 128.118 286.831 127.83 286.449 127.622C286.066 127.41 285.559 127.304 284.926 127.304H282.449V137.69H281.04ZM297.036 130.917L295.831 131.258C295.756 131.057 295.644 130.862 295.496 130.673C295.352 130.48 295.155 130.321 294.905 130.196C294.655 130.071 294.335 130.008 293.945 130.008C293.411 130.008 292.966 130.131 292.61 130.377C292.258 130.62 292.081 130.929 292.081 131.304C292.081 131.637 292.203 131.9 292.445 132.093C292.687 132.287 293.066 132.448 293.581 132.576L294.877 132.894C295.657 133.084 296.239 133.374 296.621 133.764C297.004 134.15 297.195 134.648 297.195 135.258C297.195 135.758 297.051 136.205 296.763 136.599C296.479 136.993 296.081 137.304 295.57 137.531C295.059 137.758 294.464 137.872 293.786 137.872C292.896 137.872 292.159 137.679 291.576 137.292C290.992 136.906 290.623 136.341 290.468 135.599L291.741 135.281C291.862 135.751 292.091 136.103 292.428 136.338C292.769 136.573 293.214 136.69 293.763 136.69C294.388 136.69 294.884 136.557 295.252 136.292C295.623 136.023 295.809 135.701 295.809 135.326C295.809 135.023 295.703 134.769 295.491 134.565C295.278 134.357 294.953 134.201 294.513 134.099L293.059 133.758C292.259 133.569 291.672 133.275 291.297 132.877C290.926 132.476 290.741 131.974 290.741 131.372C290.741 130.879 290.879 130.444 291.155 130.065C291.436 129.686 291.816 129.389 292.297 129.173C292.782 128.957 293.331 128.849 293.945 128.849C294.809 128.849 295.487 129.038 295.979 129.417C296.475 129.796 296.828 130.296 297.036 130.917Z" fill="#1D2026"/>
<path d="M200.609 147.69V163.69H198.188V150.112H198.094L194.266 152.612V150.299L198.258 147.69H200.609ZM204.498 163.69V161.94L209.912 156.331C210.49 155.721 210.966 155.187 211.341 154.729C211.721 154.265 212.005 153.825 212.193 153.409C212.38 152.992 212.474 152.549 212.474 152.081C212.474 151.549 212.349 151.091 212.099 150.706C211.849 150.315 211.508 150.015 211.076 149.807C210.643 149.594 210.156 149.487 209.615 149.487C209.042 149.487 208.542 149.604 208.115 149.838C207.688 150.073 207.359 150.403 207.13 150.831C206.901 151.258 206.787 151.758 206.787 152.331H204.482C204.482 151.357 204.706 150.505 205.154 149.776C205.602 149.047 206.216 148.482 206.998 148.081C207.779 147.674 208.667 147.471 209.662 147.471C210.667 147.471 211.552 147.672 212.318 148.073C213.089 148.469 213.69 149.01 214.123 149.698C214.555 150.38 214.771 151.151 214.771 152.01C214.771 152.604 214.659 153.185 214.435 153.752C214.216 154.32 213.833 154.953 213.287 155.651C212.74 156.344 211.979 157.185 211.005 158.174L207.826 161.502V161.62H215.029V163.69H204.498ZM223.12 163.909C222.047 163.909 221.089 163.724 220.245 163.354C219.406 162.984 218.742 162.471 218.253 161.815C217.768 161.153 217.508 160.388 217.472 159.518H219.925C219.956 159.992 220.115 160.403 220.401 160.752C220.693 161.096 221.073 161.362 221.542 161.549C222.011 161.737 222.531 161.831 223.104 161.831C223.735 161.831 224.292 161.721 224.776 161.502C225.266 161.284 225.649 160.979 225.925 160.588C226.201 160.193 226.339 159.737 226.339 159.221C226.339 158.685 226.201 158.213 225.925 157.807C225.654 157.396 225.255 157.073 224.729 156.838C224.209 156.604 223.578 156.487 222.839 156.487H221.487V154.518H222.839C223.433 154.518 223.953 154.411 224.401 154.198C224.854 153.984 225.209 153.687 225.464 153.307C225.719 152.922 225.847 152.471 225.847 151.956C225.847 151.461 225.735 151.031 225.511 150.667C225.292 150.297 224.979 150.008 224.573 149.799C224.172 149.591 223.698 149.487 223.151 149.487C222.63 149.487 222.143 149.583 221.69 149.776C221.242 149.963 220.878 150.234 220.597 150.588C220.315 150.937 220.164 151.357 220.143 151.846H217.808C217.834 150.982 218.089 150.221 218.573 149.565C219.063 148.909 219.709 148.396 220.511 148.026C221.313 147.656 222.203 147.471 223.183 147.471C224.209 147.471 225.094 147.672 225.839 148.073C226.589 148.469 227.167 148.997 227.573 149.659C227.985 150.32 228.188 151.044 228.183 151.831C228.188 152.726 227.938 153.487 227.433 154.112C226.933 154.737 226.266 155.156 225.433 155.37V155.495C226.495 155.656 227.318 156.078 227.901 156.76C228.49 157.443 228.781 158.289 228.776 159.299C228.781 160.18 228.537 160.969 228.042 161.667C227.552 162.364 226.883 162.914 226.034 163.315C225.185 163.711 224.214 163.909 223.12 163.909ZM233.887 161.502L233.77 162.354C233.692 162.979 233.559 163.63 233.371 164.307C233.189 164.989 232.999 165.622 232.801 166.206C232.608 166.789 232.45 167.252 232.325 167.596H230.668C230.736 167.273 230.83 166.836 230.95 166.284C231.069 165.737 231.187 165.125 231.301 164.448C231.416 163.771 231.502 163.081 231.559 162.377L231.637 161.502H233.887ZM236.379 160.565V158.612L243.293 147.69H244.832V150.565H243.855L238.91 158.393V158.518H248.386V160.565H236.379ZM243.965 163.69V159.971L243.98 159.081V147.69H246.269V163.69H243.965ZM255.95 163.909C254.971 163.909 254.091 163.721 253.31 163.346C252.534 162.966 251.914 162.445 251.45 161.784C250.987 161.122 250.739 160.367 250.708 159.518H253.052C253.109 160.206 253.414 160.771 253.966 161.213C254.518 161.656 255.18 161.877 255.95 161.877C256.565 161.877 257.109 161.737 257.583 161.456C258.062 161.169 258.437 160.776 258.708 160.276C258.984 159.776 259.122 159.206 259.122 158.565C259.122 157.914 258.982 157.333 258.7 156.823C258.419 156.312 258.031 155.911 257.536 155.62C257.047 155.328 256.484 155.18 255.849 155.174C255.364 155.174 254.877 155.258 254.388 155.424C253.898 155.591 253.502 155.81 253.2 156.081L250.989 155.752L251.888 147.69H260.685V149.76H253.896L253.388 154.237H253.482C253.794 153.935 254.208 153.682 254.724 153.479C255.245 153.276 255.802 153.174 256.396 153.174C257.37 153.174 258.237 153.406 258.997 153.87C259.763 154.333 260.364 154.966 260.802 155.768C261.245 156.565 261.463 157.482 261.458 158.518C261.463 159.555 261.229 160.479 260.755 161.292C260.286 162.104 259.635 162.745 258.802 163.213C257.974 163.677 257.023 163.909 255.95 163.909ZM269.192 147.471C269.906 147.476 270.609 147.607 271.301 147.862C271.994 148.117 272.619 148.534 273.176 149.112C273.739 149.69 274.187 150.471 274.52 151.456C274.859 152.435 275.031 153.653 275.036 155.112C275.036 156.513 274.895 157.76 274.614 158.854C274.333 159.943 273.929 160.862 273.403 161.612C272.882 162.362 272.249 162.932 271.505 163.323C270.76 163.713 269.921 163.909 268.989 163.909C268.036 163.909 267.189 163.721 266.45 163.346C265.71 162.971 265.109 162.453 264.645 161.792C264.182 161.125 263.893 160.359 263.778 159.495H266.161C266.317 160.182 266.635 160.739 267.114 161.167C267.598 161.588 268.223 161.799 268.989 161.799C270.161 161.799 271.075 161.289 271.731 160.268C272.387 159.242 272.718 157.81 272.723 155.971H272.598C272.327 156.419 271.989 156.805 271.583 157.127C271.182 157.45 270.731 157.7 270.231 157.877C269.731 158.055 269.197 158.143 268.63 158.143C267.708 158.143 266.869 157.917 266.114 157.463C265.359 157.01 264.757 156.388 264.309 155.596C263.861 154.805 263.637 153.901 263.637 152.885C263.637 151.875 263.867 150.958 264.325 150.135C264.788 149.312 265.434 148.661 266.262 148.182C267.096 147.698 268.072 147.461 269.192 147.471ZM269.2 149.502C268.59 149.502 268.041 149.653 267.551 149.956C267.067 150.252 266.684 150.656 266.403 151.167C266.122 151.672 265.981 152.234 265.981 152.854C265.981 153.474 266.117 154.036 266.387 154.542C266.663 155.042 267.038 155.44 267.512 155.737C267.992 156.028 268.538 156.174 269.153 156.174C269.611 156.174 270.038 156.086 270.434 155.909C270.83 155.732 271.176 155.487 271.473 155.174C271.77 154.857 272.002 154.497 272.169 154.096C272.335 153.695 272.419 153.273 272.419 152.831C272.419 152.242 272.278 151.695 271.997 151.19C271.721 150.685 271.34 150.278 270.856 149.971C270.372 149.659 269.82 149.502 269.2 149.502ZM279.908 161.502L279.791 162.354C279.713 162.979 279.58 163.63 279.393 164.307C279.21 164.989 279.02 165.622 278.822 166.206C278.63 166.789 278.471 167.252 278.346 167.596H276.69C276.757 167.273 276.851 166.836 276.971 166.284C277.091 165.737 277.208 165.125 277.322 164.448C277.437 163.771 277.523 163.081 277.58 162.377L277.658 161.502H279.908ZM286.873 147.69V163.69H284.451V150.112H284.357L280.529 152.612V150.299L284.521 147.69H286.873ZM296.831 147.69V163.69H294.409V150.112H294.315L290.487 152.612V150.299L294.479 147.69H296.831ZM300.719 163.69V161.94L306.133 156.331C306.711 155.721 307.188 155.187 307.563 154.729C307.943 154.265 308.227 153.825 308.414 153.409C308.602 152.992 308.696 152.549 308.696 152.081C308.696 151.549 308.571 151.091 308.321 150.706C308.071 150.315 307.73 150.015 307.297 149.807C306.865 149.594 306.378 149.487 305.836 149.487C305.263 149.487 304.763 149.604 304.336 149.838C303.909 150.073 303.581 150.403 303.352 150.831C303.123 151.258 303.008 151.758 303.008 152.331H300.704C300.704 151.357 300.927 150.505 301.375 149.776C301.823 149.047 302.438 148.482 303.219 148.081C304 147.674 304.888 147.471 305.883 147.471C306.888 147.471 307.774 147.672 308.539 148.073C309.31 148.469 309.912 149.01 310.344 149.698C310.776 150.38 310.993 151.151 310.993 152.01C310.993 152.604 310.881 153.185 310.657 153.752C310.438 154.32 310.055 154.953 309.508 155.651C308.961 156.344 308.201 157.185 307.227 158.174L304.047 161.502V161.62H311.25V163.69H300.719Z" fill="#1D2026"/>
<g filter="url(#filter1_d_102_31276)">
<rect x="331" y="151.69" width="123" height="8" rx="4" fill="#12A250"/>
</g>
<g filter="url(#filter2_i_102_31276)">
<circle cx="122" cy="83" r="35" fill="white"/>
</g>
<circle cx="122" cy="83" r="34.5" stroke="#EEEEEE"/>
<circle cx="121.089" cy="82.9999" r="19.5556" fill="white"/>
<mask id="mask1_102_31276" style="mask-type:alpha" maskUnits="userSpaceOnUse" x="101" y="63" width="40" height="40">
<circle cx="121.089" cy="82.9999" r="19.5556" fill="#FCFCFC"/>
</mask>
<g mask="url(#mask1_102_31276)">
<rect x="107.889" y="98.1555" width="26.8889" height="4.88889" fill="#D90026"/>
<rect x="107.889" y="98.1555" width="26.8889" height="4.88889" fill="#D90026"/>
<rect x="102.022" y="88.3777" width="38.6222" height="4.88889" fill="#D90026"/>
<rect x="102.022" y="88.3777" width="38.6222" height="4.88889" fill="#D90026"/>
<rect x="102.022" y="78.1111" width="38.6222" height="4.88889" fill="#D90026"/>
<rect x="102.022" y="78.1111" width="38.6222" height="4.88889" fill="#D90026"/>
<rect x="102.022" y="68.3333" width="38.6222" height="4.88889" fill="#D90026"/>
<rect x="102.022" y="68.3333" width="38.6222" height="4.88889" fill="#D90026"/>
<rect x="101.533" y="63.4443" width="20.0444" height="19.5556" fill="#0052B5"/>
<path d="M117.667 79.8221L116.2 80.5554L116.689 79.0887L115.711 78.111H117.178L117.667 76.6443L118.4 78.111H119.622L118.645 79.0887L119.133 80.5554L117.667 79.8221Z" fill="white"/>
<path d="M110.822 79.8221L109.356 80.5554L109.844 79.0887L108.867 78.111H110.333L110.822 76.6443L111.556 78.111H112.778L111.8 79.0887L112.289 80.5554L110.822 79.8221Z" fill="white"/>
<path d="M103.978 79.8221L102.511 80.5554L103 79.0887L102.022 78.111H103.489L103.978 76.6443L104.711 78.111H105.934L104.956 79.0887L105.445 80.5554L103.978 79.8221Z" fill="white"/>
<path d="M117.667 74.4444L116.2 75.1777L116.689 73.711L115.711 72.7333H117.178L117.667 71.2666L118.4 72.7333H119.622L118.645 73.711L119.133 75.1777L117.667 74.4444Z" fill="white"/>
<path d="M117.667 69.0664L116.2 69.7998L116.689 68.3331L115.711 67.3553H117.178L117.667 65.8887L118.4 67.3553H119.622L118.645 68.3331L119.133 69.7998L117.667 69.0664Z" fill="white"/>
<path d="M117.667 63.6888L116.2 64.4221L116.689 62.9554L115.711 61.9777H117.178L117.667 60.511L118.4 61.9777H119.622L118.645 62.9554L119.133 64.4221L117.667 63.6888Z" fill="white"/>
<path d="M110.822 69.0664L109.356 69.7998L109.844 68.3331L108.867 67.3553H110.333L110.822 65.8887L111.556 67.3553H112.778L111.8 68.3331L112.289 69.7998L110.822 69.0664Z" fill="white"/>
<path d="M110.822 74.4444L109.356 75.1777L109.844 73.711L108.867 72.7333H110.333L110.822 71.2666L111.556 72.7333H112.778L111.8 73.711L112.289 75.1777L110.822 74.4444Z" fill="white"/>
<path d="M103.978 74.4444L102.511 75.1777L103 73.711L102.022 72.7333H103.489L103.978 71.2666L104.711 72.7333H105.934L104.956 73.711L105.445 75.1777L103.978 74.4444Z" fill="white"/>
</g>
<g filter="url(#filter3_i_102_31276)">
<circle cx="122" cy="-2" r="35" fill="white"/>
</g>
<circle cx="122" cy="-2" r="34.5" stroke="#EEEEEE"/>
<path d="M121.467 17.5554C110.666 17.5554 101.911 8.80013 101.911 -2.00011C101.911 -12.8003 110.666 -21.5557 121.467 -21.5557C132.267 -21.5557 141.022 -12.8003 141.022 -2.00011C141.022 8.80013 132.267 17.5554 121.467 17.5554Z" fill="#FFDB44"/>
<path d="M139.791 -8.84455C137.017 -16.2691 129.859 -21.5557 121.467 -21.5557C113.074 -21.5557 105.917 -16.2691 103.142 -8.84455L139.791 -8.84455Z" fill="#D90026"/>
<path d="M103.142 4.84433C105.917 12.2689 113.074 17.5554 121.467 17.5554C129.859 17.5554 137.017 12.2689 139.791 4.84433L103.142 4.84433Z" fill="#D90026"/>
<g filter="url(#filter4_i_102_31276)">
<circle cx="122" cy="168" r="35" fill="white"/>
</g>
<circle cx="122" cy="168" r="34.5" stroke="#EEEEEE"/>
<path d="M121.6 187.555C110.8 187.555 102.045 178.8 102.045 168C102.045 157.2 110.8 148.444 121.6 148.444C132.4 148.444 141.156 157.2 141.156 168C141.156 178.8 132.4 187.555 121.6 187.555Z" fill="#0052B5"/>
<path d="M139.924 161.155C137.15 153.731 129.992 148.444 121.6 148.444C113.208 148.444 106.05 153.731 103.276 161.155L139.924 161.155Z" fill="white"/>
<path d="M103.276 174.845C106.05 182.269 113.208 187.556 121.6 187.556C129.993 187.556 137.15 182.269 139.925 174.845L103.276 174.845Z" fill="#D90026"/>
<g filter="url(#filter5_i_102_31276)">
<circle cx="122" cy="253" r="35" fill="white"/>
</g>
<circle cx="122" cy="253" r="34.5" stroke="#EEEEEE"/>
<path d="M121.578 272.723C132.336 272.723 141.057 264.002 141.057 253.244C141.057 242.486 132.336 233.765 121.578 233.765C110.82 233.765 102.099 242.486 102.099 253.244C102.099 264.002 110.82 272.723 121.578 272.723Z" fill="#F5F5F5"/>
<path d="M115.994 254.348C117.812 255.582 120.344 255.062 121.578 253.244C122.812 251.426 125.279 250.907 127.162 252.141C128.915 253.309 129.434 255.582 128.461 257.335C130.603 253.699 129.629 248.959 125.993 246.557C122.292 244.089 117.292 245.063 114.825 248.764C114.76 248.894 114.695 249.024 114.63 249.089C113.721 250.972 114.306 253.179 115.994 254.348" fill="#ED4C5C"/>
<path d="M127.162 252.141C125.344 250.907 122.811 251.426 121.578 253.244C120.344 255.062 117.877 255.582 115.994 254.348C114.241 253.18 113.721 250.907 114.695 249.154C112.487 252.79 113.526 257.53 117.162 259.932C120.863 262.4 125.863 261.426 128.33 257.725C128.395 257.595 128.46 257.465 128.525 257.4C129.434 255.517 128.85 253.309 127.162 252.141" fill="#428BC1"/>
<path d="M105.865 247.595L110.345 240.908L109.89 240.583L109.436 240.323L104.956 247.011L105.41 247.271L105.865 247.595Z" fill="#3E4347"/>
<path d="M107.098 248.44L107.553 248.699L111.968 242.012L111.579 241.752L111.124 241.427L106.644 248.115L107.098 248.44Z" fill="#3E4347"/>
<path d="M112.747 242.531L108.332 249.219L108.787 249.543L109.241 249.803L113.656 243.115L113.202 242.855L112.747 242.531Z" fill="#3E4347"/>
<path d="M135.343 243.765L135.798 243.44L133.72 240.323L133.265 240.583L132.811 240.908L134.889 244.024L135.343 243.765Z" fill="#3E4347"/>
<path d="M132.032 245.972L132.486 245.647L130.408 242.531L129.954 242.855L129.499 243.115L131.577 246.232L132.032 245.972Z" fill="#3E4347"/>
<path d="M135.213 244.479L137.291 247.596L137.745 247.271L138.2 247.011L136.122 243.895L135.668 244.154L135.213 244.479Z" fill="#3E4347"/>
<path d="M136.057 248.44L136.512 248.115L132.032 241.427L131.577 241.752L131.188 242.012L135.603 248.699L136.057 248.44Z" fill="#3E4347"/>
<path d="M134.369 249.543L134.824 249.219L132.746 246.102L132.291 246.427L131.837 246.686L133.915 249.803L134.369 249.543Z" fill="#3E4347"/>
<g filter="url(#filter6_i_102_31276)">
<circle cx="52" cy="48" r="35" fill="white"/>
</g>
<circle cx="52" cy="48" r="34.5" stroke="#EEEEEE"/>
<path d="M71.3777 47.9999C71.3777 58.8001 62.6224 67.5554 51.8222 67.5554C41.0219 67.5554 32.2666 58.8001 32.2666 47.9999C32.2666 37.1997 41.0219 28.4443 51.8222 28.4443C62.6224 28.4443 71.3777 37.1997 71.3777 47.9999Z" fill="#FCFCFC"/>
<path d="M60.1333 47.9999C60.1333 52.59 56.4123 56.311 51.8222 56.311C47.2321 56.311 43.511 52.59 43.511 47.9999C43.511 43.4098 47.2321 39.6888 51.8222 39.6888C56.4123 39.6888 60.1333 43.4098 60.1333 47.9999Z" fill="#D90026"/>
<g filter="url(#filter7_i_102_31276)">
<circle cx="35" cy="35" r="35" transform="matrix(1 0 0 -1 17 168)" fill="white"/>
</g>
<circle cx="35" cy="35" r="34.5" transform="matrix(1 0 0 -1 17 168)" stroke="#EEEEEE"/>
<path d="M71.1555 133C71.1555 143.8 62.4002 152.555 51.6 152.555C40.7998 152.555 32.0444 143.8 32.0444 133C32.0444 122.2 40.7998 113.444 51.6 113.444C62.4002 113.444 71.1555 122.2 71.1555 133Z" fill="#0052B5"/>
<path d="M46.7111 124.2V114.06C47.5074 113.855 48.3234 113.699 49.1555 113.596C49.9563 113.496 50.7722 113.444 51.6 113.444C52.4278 113.444 53.2436 113.496 54.0444 113.596C54.8766 113.699 55.6926 113.855 56.4889 114.06V126.889L64.8 118.571C65.6959 119.391 67.0026 121.027 67.7333 122L61.3778 128.111H70.5395C70.7444 128.907 70.9005 129.723 71.0042 130.555C71.1041 131.356 71.1555 132.172 71.1555 133C71.1555 133.828 71.1041 134.644 71.0042 135.444C70.9005 136.277 70.7444 137.092 70.5395 137.889H59.9111L67.2459 144.733C66.1947 146.133 64.9601 147.387 63.5778 148.459L56.4889 141.311V151.939C55.6926 152.144 54.8766 152.3 54.0444 152.404C53.2436 152.504 52.4278 152.555 51.6 152.555C50.7721 152.555 49.9563 152.504 49.1555 152.404C48.3234 152.3 47.5074 152.144 46.7111 151.939L46.7111 139.355L38.6444 147.649C37.5504 146.68 36.5657 145.591 35.7111 144.403L42.8 137.889H32.6605C32.4556 137.092 32.2995 136.277 32.1957 135.444C32.0959 134.644 32.0444 133.828 32.0444 133C32.0444 132.172 32.0959 131.356 32.1957 130.555C32.2995 129.723 32.4556 128.907 32.6605 128.111H43.0444L35.9555 121.265C37.0405 119.821 38.3208 118.532 39.7572 117.437L46.7111 124.2Z" fill="white"/>
<path d="M46.7111 128.111L37.7864 119.158C37.3145 119.629 36.8665 120.124 36.4444 120.641L44.2667 128.111H46.7111Z" fill="#D90026"/>
<path d="M56.4889 128.111L65.4136 119.158C65.8855 119.629 66.3335 120.124 66.7555 120.641L58.9333 128.111H56.4889Z" fill="#D90026"/>
<path d="M56.4889 138.057L65.4136 147.01C65.8855 146.539 66.3335 146.044 66.7556 145.527L58.9333 138.057H56.4889Z" fill="#D90026"/>
<path d="M46.7111 138.057L37.7864 147.01C37.3145 146.539 36.8665 146.044 36.4444 145.527L44.2667 138.057H46.7111Z" fill="#D90026"/>
<path d="M32.1957 130.555C32.0959 131.356 32.0444 132.172 32.0444 133C32.0444 133.828 32.0959 134.644 32.1957 135.444H49.1555V152.404C49.9563 152.504 50.7721 152.555 51.6 152.555C52.4278 152.555 53.2436 152.504 54.0444 152.404V135.444H71.0042C71.1041 134.644 71.1555 133.828 71.1555 133C71.1555 132.172 71.1041 131.356 71.0042 130.555H54.0444V113.596C53.0876 113.452 52.597 113.444 51.6 113.444C50.7722 113.444 49.9563 113.496 49.1555 113.596V130.555H32.1957Z" fill="#D90026"/>
<g filter="url(#filter8_i_102_31276)">
<circle cx="52" cy="218" r="35" fill="white"/>
</g>
<circle cx="52" cy="218" r="34.5" stroke="#EEEEEE"/>
<path d="M52.1778 237.555C41.3776 237.555 32.6223 228.8 32.6223 218C32.6223 207.2 41.3776 198.444 52.1778 198.444C62.9781 198.444 71.7334 207.2 71.7334 218C71.7334 228.8 62.9781 237.555 52.1778 237.555Z" fill="#FDFDFD"/>
<path d="M69.2561 208.467C65.911 202.487 59.5164 198.444 52.1777 198.444C44.8389 198.444 38.4443 202.487 35.0992 208.467L69.2561 208.467Z" fill="#338AF3"/>
<path d="M69.2561 208.467C65.911 202.487 59.5164 198.444 52.1777 198.444C44.8389 198.444 38.4443 202.487 35.0992 208.467L69.2561 208.467Z" fill="#338AF3"/>
<path d="M35.0994 227.778C38.4445 233.757 44.839 237.8 52.1778 237.8C59.5166 237.8 65.9111 233.757 69.2562 227.778L35.0994 227.778Z" fill="#338AF3"/>
<path d="M35.0994 227.778C38.4445 233.757 44.839 237.8 52.1778 237.8C59.5166 237.8 65.9111 233.757 69.2562 227.778L35.0994 227.778Z" fill="#338AF3"/>
<path d="M51.9333 213.844L49.9777 211.889L49.4888 214.578L46.5555 214.333L47.7777 216.778L45.3333 218L47.7777 219.222L46.7999 221.666L49.4888 221.422L49.9777 224.355L51.9333 222.155L53.8888 224.355L54.3777 221.422L57.0666 221.666L56.0888 219.222L58.5333 218L55.8444 216.778L57.0666 214.333L54.3777 214.578L53.8888 211.889L51.9333 213.844Z" fill="#FFDA44"/>
<g filter="url(#filter9_i_102_31276)">
<circle cx="35" cy="35" r="35" transform="matrix(-1 0 0 1 561 59)" fill="white"/>
</g>
<circle cx="35" cy="35" r="34.5" transform="matrix(-1 0 0 1 561 59)" stroke="#EEEEEE"/>
<path d="M544.733 93.9999C544.733 104.8 535.978 113.555 525.178 113.555C514.377 113.555 505.622 104.8 505.622 93.9999C505.622 83.1997 514.377 74.4443 525.178 74.4443C535.978 74.4443 544.733 83.1997 544.733 93.9999Z" fill="#6EA644"/>
<path d="M525.667 82.2666L541.8 93.9999L525.667 105.733L509.533 93.9999L525.667 82.2666Z" fill="#FFDB44"/>
<path d="M532.511 93.9999C532.511 97.78 529.447 100.844 525.667 100.844C521.886 100.844 518.822 97.78 518.822 93.9999C518.822 90.2198 521.886 87.1554 525.667 87.1554C529.447 87.1554 532.511 90.2198 532.511 93.9999Z" fill="#0051B5"/>
<path d="M519.481 91.0666C519.058 91.9556 518.822 92.9502 518.822 93.9999C525.862 92.8266 529.944 96.2814 531.106 98.1555C531.8 97.248 532.272 96.1617 532.442 94.9777C528.531 91.0666 522.171 90.7406 519.481 91.0666Z" fill="white"/>
<g filter="url(#filter10_i_102_31276)">
<circle cx="35" cy="35" r="35" transform="matrix(-1 0 0 1 561 -26)" fill="white"/>
</g>
<circle cx="35" cy="35" r="34.5" transform="matrix(-1 0 0 1 561 -26)" stroke="#EEEEEE"/>
<path d="M529.667 -8.9668H522.333C515.183 -7.50013 509.5 -1.87791 508.033 5.3332V12.6665C509.5 19.8776 515.183 25.4999 522.333 26.9665H529.667C536.878 25.4999 542.5 19.8165 543.967 12.6665V5.3332C542.5 -1.87791 536.817 -7.50013 529.667 -8.9668Z" fill="white"/>
<path d="M543.831 13.2776C544.166 11.8763 544.334 10.4405 544.333 8.99984C544.333 7.52706 544.16 6.09462 543.831 4.72206H530.278V-8.83177C528.876 -9.16606 527.441 -9.33446 526 -9.33349C524.527 -9.33349 523.095 -9.15994 521.722 -8.83177V4.72206H508.168C507.834 6.1234 507.666 7.55918 507.667 8.99984C507.667 10.4726 507.84 11.9051 508.168 13.2776H521.722V26.8315C523.123 27.1657 524.559 27.3341 526 27.3332C527.473 27.3332 528.905 27.1596 530.278 26.8315V13.2776H543.831Z" fill="#CE1124"/>
<g filter="url(#filter11_i_102_31276)">
<circle cx="35" cy="35" r="35" transform="matrix(-1 0 0 1 561 144)" fill="white"/>
</g>
<circle cx="35" cy="35" r="34.5" transform="matrix(-1 0 0 1 561 144)" stroke="#EEEEEE"/>
<path d="M525.734 198.555C514.934 198.555 506.178 189.8 506.178 179C506.178 168.2 514.934 159.444 525.734 159.444C536.534 159.444 545.289 168.2 545.289 179C545.289 189.8 536.534 198.555 525.734 198.555Z" fill="#D90026"/>
<path d="M544.058 172.155C541.284 164.731 534.126 159.444 525.734 159.444C517.341 159.444 510.184 164.731 507.409 172.155L544.058 172.155Z" fill="black"/>
<path d="M507.409 185.844C510.184 193.269 517.341 198.555 525.734 198.555C534.126 198.555 541.284 193.269 544.058 185.844L507.409 185.844Z" fill="#FFDB44"/>
<g filter="url(#filter12_i_102_31276)">
<circle cx="35" cy="35" r="35" transform="matrix(-1 0 0 1 561 229)" fill="white"/>
</g>
<circle cx="35" cy="35" r="34.5" transform="matrix(-1 0 0 1 561 229)" stroke="#EEEEEE"/>
<g filter="url(#filter13_i_102_31276)">
<circle cx="35" cy="35" r="35" transform="matrix(-1 0 0 1 631 24)" fill="white"/>
</g>
<circle cx="35" cy="35" r="34.5" transform="matrix(-1 0 0 1 631 24)" stroke="#EEEEEE"/>
<path d="M605.311 43.4779C602.5 41.7056 599.139 40.6667 595.533 40.6667C591.928 40.6667 588.566 41.7056 585.755 43.4779V74.4612C588.566 76.2334 591.928 77.2723 595.533 77.2723C599.139 77.2723 602.5 76.2334 605.311 74.4612V43.4779Z" fill="#F9F9F9"/>
<path d="M605.311 43.4778V74.4611C610.444 71.2833 613.866 65.4167 613.866 58.9389C613.866 52.4611 610.444 46.7167 605.311 43.4778" fill="#D90026"/>
<path d="M585.755 43.4778C580.622 46.7167 577.2 52.5833 577.2 59C577.2 65.4167 580.622 71.2833 585.755 74.5222V43.4778Z" fill="#D90026"/>
<path d="M602.194 58.7557C601.95 58.6334 601.889 58.389 601.95 58.2668L602.561 56.0668L600.422 56.4946C600.361 56.4946 600.116 56.4946 600.055 56.0668L599.872 55.3334L598.405 57.0446C598.405 57.0446 597.427 58.0834 597.733 56.4946L598.344 53.1334L597.183 53.7446C597.122 53.7446 596.877 53.8057 596.572 53.1946L595.533 51.0557L594.433 53.0723C594.127 53.6834 593.883 53.6223 593.822 53.6223L592.661 53.0112L593.272 56.3723C593.577 57.9612 592.6 56.9223 592.6 56.9223L591.133 55.2112L590.95 55.9446C590.827 56.3723 590.644 56.3723 590.583 56.3723L588.444 55.9446L589.055 58.1446C589.055 58.3279 589.055 58.5112 588.811 58.6334L588.2 59.0001C588.2 59.0001 590.644 60.9557 591.439 61.6279C591.622 61.7501 591.989 62.1168 591.866 62.5446L591.561 63.4001L594.922 62.9112C595.105 62.9112 595.472 62.9112 595.411 63.4612L595.227 66.9446H595.839L595.655 63.4612C595.655 62.9112 596.022 62.9112 596.144 62.9112L599.505 63.4001L599.2 62.5446C599.077 62.1168 599.444 61.7501 599.627 61.6279C600.422 60.9557 602.866 59.0001 602.866 59.0001L602.194 58.7557Z" fill="#D90026"/>
<g filter="url(#filter14_i_102_31276)">
<circle cx="35" cy="35" r="35" transform="matrix(-1 0 0 1 631 109)" fill="white"/>
</g>
<circle cx="35" cy="35" r="34.5" transform="matrix(-1 0 0 1 631 109)" stroke="#EEEEEE"/>
<path d="M595.533 163.555C584.733 163.555 575.978 154.8 575.978 144C575.978 133.2 584.733 124.444 595.533 124.444C606.333 124.444 615.089 133.2 615.089 144C615.089 154.8 606.333 163.555 595.533 163.555Z" fill="#D90026"/>
<path d="M598.429 136.665L596.507 136.458L597.926 135.314L597.579 133.721L599.034 134.656L600.454 133.513L600.247 135.435L601.459 136.213L599.866 136.56L599.417 138.327L598.429 136.665Z" fill="#FFDB44"/>
<path d="M586.733 147.483L581.966 149.867L583.555 145.1L580.378 141.922H585.144L586.733 137.155L589.116 141.922H593.089L589.911 145.1L591.5 149.867L586.733 147.483Z" fill="#FFDB44"/>
<path d="M598.429 151.351L596.507 151.558L597.926 152.702L597.579 154.294L599.034 153.36L600.454 154.503L600.247 152.581L601.459 151.803L599.866 151.456L599.417 149.689L598.429 151.351Z" fill="#FFDB44"/>
<path d="M603.069 141.834L601.286 141.086L602.974 140.397L603.097 138.771L604.224 140.083L605.911 139.393L605.163 141.176L606.101 142.269L604.476 142.146L603.54 143.709L603.069 141.834Z" fill="#FFDB44"/>
<path d="M603.069 147.29L601.286 148.039L602.974 148.728L603.097 150.354L604.224 149.042L605.911 149.731L605.163 147.948L606.101 146.855L604.476 146.979L603.54 145.415L603.069 147.29Z" fill="#FFDB44"/>
<g filter="url(#filter15_i_102_31276)">
<circle cx="35" cy="35" r="35" transform="matrix(-1 0 0 1 631 194)" fill="white"/>
</g>
<circle cx="35" cy="35" r="34.5" transform="matrix(-1 0 0 1 631 194)" stroke="#EEEEEE"/>
<path d="M596.244 247.333C606.37 247.333 614.578 239.125 614.578 229C614.578 218.875 606.37 210.667 596.244 210.667C586.119 210.667 577.911 218.875 577.911 229C577.911 239.125 586.119 247.333 596.244 247.333Z" fill="#D90026"/>
<path d="M601.928 233.277L601.989 229.977L598.689 228.999L601.989 228.022L601.928 224.722L603.945 227.349L607.245 226.372L605.228 228.999L607.245 231.627L603.945 230.649L601.928 233.277Z" fill="white"/>
<path d="M596.978 236.333C592.945 236.333 589.706 233.033 589.706 229C589.706 224.966 592.945 221.666 596.978 221.666C598.506 221.666 599.911 222.155 601.134 222.95C599.484 221.055 597.039 219.833 594.289 219.833C589.278 219.833 585.245 223.927 585.245 229C585.245 234.072 589.278 238.166 594.289 238.166C597.039 238.166 599.484 236.944 601.134 235.05C599.972 235.844 598.567 236.333 596.978 236.333Z" fill="white"/>
</g>
<defs>
<filter id="filter0_i_102_31276" x="174" y="55" width="300" height="132" filterUnits="userSpaceOnUse" color-interpolation-filters="sRGB">
<feFlood flood-opacity="0" result="BackgroundImageFix"/>
<feBlend mode="normal" in="SourceGraphic" in2="BackgroundImageFix" result="shape"/>
<feColorMatrix in="SourceAlpha" type="matrix" values="0 0 0 0 0 0 0 0 0 0 0 0 0 0 0 0 0 0 127 0" result="hardAlpha"/>
<feOffset dy="-6"/>
<feGaussianBlur stdDeviation="1"/>
<feComposite in2="hardAlpha" operator="arithmetic" k2="-1" k3="1"/>
<feColorMatrix type="matrix" values="0 0 0 0 0 0 0 0 0 0 0 0 0 0 0 0 0 0 0.1 0"/>
<feBlend mode="normal" in2="shape" result="effect1_innerShadow_102_31276"/>
</filter>
<filter id="filter1_d_102_31276" x="329.4" y="150.09" width="126.2" height="11.2" filterUnits="userSpaceOnUse" color-interpolation-filters="sRGB">
<feFlood flood-opacity="0" result="BackgroundImageFix"/>
<feColorMatrix in="SourceAlpha" type="matrix" values="0 0 0 0 0 0 0 0 0 0 0 0 0 0 0 0 0 0 127 0" result="hardAlpha"/>
<feMorphology radius="1.6" operator="dilate" in="SourceAlpha" result="effect1_dropShadow_102_31276"/>
<feOffset/>
<feComposite in2="hardAlpha" operator="out"/>
<feColorMatrix type="matrix" values="0 0 0 0 0.0705882 0 0 0 0 0.635294 0 0 0 0 0.313726 0 0 0 0.25 0"/>
<feBlend mode="normal" in2="BackgroundImageFix" result="effect1_dropShadow_102_31276"/>
<feBlend mode="normal" in="SourceGraphic" in2="effect1_dropShadow_102_31276" result="shape"/>
</filter>
<filter id="filter2_i_102_31276" x="87" y="48" width="70" height="70" filterUnits="userSpaceOnUse" color-interpolation-filters="sRGB">
<feFlood flood-opacity="0" result="BackgroundImageFix"/>
<feBlend mode="normal" in="SourceGraphic" in2="BackgroundImageFix" result="shape"/>
<feColorMatrix in="SourceAlpha" type="matrix" values="0 0 0 0 0 0 0 0 0 0 0 0 0 0 0 0 0 0 127 0" result="hardAlpha"/>
<feOffset dy="-3"/>
<feComposite in2="hardAlpha" operator="arithmetic" k2="-1" k3="1"/>
<feColorMatrix type="matrix" values="0 0 0 0 0 0 0 0 0 0 0 0 0 0 0 0 0 0 0.1 0"/>
<feBlend mode="normal" in2="shape" result="effect1_innerShadow_102_31276"/>
</filter>
<filter id="filter3_i_102_31276" x="87" y="-37" width="70" height="70" filterUnits="userSpaceOnUse" color-interpolation-filters="sRGB">
<feFlood flood-opacity="0" result="BackgroundImageFix"/>
<feBlend mode="normal" in="SourceGraphic" in2="BackgroundImageFix" result="shape"/>
<feColorMatrix in="SourceAlpha" type="matrix" values="0 0 0 0 0 0 0 0 0 0 0 0 0 0 0 0 0 0 127 0" result="hardAlpha"/>
<feOffset dy="-3"/>
<feComposite in2="hardAlpha" operator="arithmetic" k2="-1" k3="1"/>
<feColorMatrix type="matrix" values="0 0 0 0 0 0 0 0 0 0 0 0 0 0 0 0 0 0 0.1 0"/>
<feBlend mode="normal" in2="shape" result="effect1_innerShadow_102_31276"/>
</filter>
<filter id="filter4_i_102_31276" x="87" y="133" width="70" height="70" filterUnits="userSpaceOnUse" color-interpolation-filters="sRGB">
<feFlood flood-opacity="0" result="BackgroundImageFix"/>
<feBlend mode="normal" in="SourceGraphic" in2="BackgroundImageFix" result="shape"/>
<feColorMatrix in="SourceAlpha" type="matrix" values="0 0 0 0 0 0 0 0 0 0 0 0 0 0 0 0 0 0 127 0" result="hardAlpha"/>
<feOffset dy="-3"/>
<feComposite in2="hardAlpha" operator="arithmetic" k2="-1" k3="1"/>
<feColorMatrix type="matrix" values="0 0 0 0 0 0 0 0 0 0 0 0 0 0 0 0 0 0 0.1 0"/>
<feBlend mode="normal" in2="shape" result="effect1_innerShadow_102_31276"/>
</filter>
<filter id="filter5_i_102_31276" x="87" y="218" width="70" height="70" filterUnits="userSpaceOnUse" color-interpolation-filters="sRGB">
<feFlood flood-opacity="0" result="BackgroundImageFix"/>
<feBlend mode="normal" in="SourceGraphic" in2="BackgroundImageFix" result="shape"/>
<feColorMatrix in="SourceAlpha" type="matrix" values="0 0 0 0 0 0 0 0 0 0 0 0 0 0 0 0 0 0 127 0" result="hardAlpha"/>
<feOffset dy="-3"/>
<feComposite in2="hardAlpha" operator="arithmetic" k2="-1" k3="1"/>
<feColorMatrix type="matrix" values="0 0 0 0 0 0 0 0 0 0 0 0 0 0 0 0 0 0 0.1 0"/>
<feBlend mode="normal" in2="shape" result="effect1_innerShadow_102_31276"/>
</filter>
<filter id="filter6_i_102_31276" x="17" y="13" width="70" height="70" filterUnits="userSpaceOnUse" color-interpolation-filters="sRGB">
<feFlood flood-opacity="0" result="BackgroundImageFix"/>
<feBlend mode="normal" in="SourceGraphic" in2="BackgroundImageFix" result="shape"/>
<feColorMatrix in="SourceAlpha" type="matrix" values="0 0 0 0 0 0 0 0 0 0 0 0 0 0 0 0 0 0 127 0" result="hardAlpha"/>
<feOffset dy="-3"/>
<feComposite in2="hardAlpha" operator="arithmetic" k2="-1" k3="1"/>
<feColorMatrix type="matrix" values="0 0 0 0 0 0 0 0 0 0 0 0 0 0 0 0 0 0 0.1 0"/>
<feBlend mode="normal" in2="shape" result="effect1_innerShadow_102_31276"/>
</filter>
<filter id="filter7_i_102_31276" x="17" y="98" width="70" height="70" filterUnits="userSpaceOnUse" color-interpolation-filters="sRGB">
<feFlood flood-opacity="0" result="BackgroundImageFix"/>
<feBlend mode="normal" in="SourceGraphic" in2="BackgroundImageFix" result="shape"/>
<feColorMatrix in="SourceAlpha" type="matrix" values="0 0 0 0 0 0 0 0 0 0 0 0 0 0 0 0 0 0 127 0" result="hardAlpha"/>
<feOffset dy="-3"/>
<feComposite in2="hardAlpha" operator="arithmetic" k2="-1" k3="1"/>
<feColorMatrix type="matrix" values="0 0 0 0 0 0 0 0 0 0 0 0 0 0 0 0 0 0 0.1 0"/>
<feBlend mode="normal" in2="shape" result="effect1_innerShadow_102_31276"/>
</filter>
<filter id="filter8_i_102_31276" x="17" y="183" width="70" height="70" filterUnits="userSpaceOnUse" color-interpolation-filters="sRGB">
<feFlood flood-opacity="0" result="BackgroundImageFix"/>
<feBlend mode="normal" in="SourceGraphic" in2="BackgroundImageFix" result="shape"/>
<feColorMatrix in="SourceAlpha" type="matrix" values="0 0 0 0 0 0 0 0 0 0 0 0 0 0 0 0 0 0 127 0" result="hardAlpha"/>
<feOffset dy="-3"/>
<feComposite in2="hardAlpha" operator="arithmetic" k2="-1" k3="1"/>
<feColorMatrix type="matrix" values="0 0 0 0 0 0 0 0 0 0 0 0 0 0 0 0 0 0 0.1 0"/>
<feBlend mode="normal" in2="shape" result="effect1_innerShadow_102_31276"/>
</filter>
<filter id="filter9_i_102_31276" x="491" y="59" width="70" height="70" filterUnits="userSpaceOnUse" color-interpolation-filters="sRGB">
<feFlood flood-opacity="0" result="BackgroundImageFix"/>
<feBlend mode="normal" in="SourceGraphic" in2="BackgroundImageFix" result="shape"/>
<feColorMatrix in="SourceAlpha" type="matrix" values="0 0 0 0 0 0 0 0 0 0 0 0 0 0 0 0 0 0 127 0" result="hardAlpha"/>
<feOffset dy="-3"/>
<feComposite in2="hardAlpha" operator="arithmetic" k2="-1" k3="1"/>
<feColorMatrix type="matrix" values="0 0 0 0 0 0 0 0 0 0 0 0 0 0 0 0 0 0 0.1 0"/>
<feBlend mode="normal" in2="shape" result="effect1_innerShadow_102_31276"/>
</filter>
<filter id="filter10_i_102_31276" x="491" y="-26" width="70" height="70" filterUnits="userSpaceOnUse" color-interpolation-filters="sRGB">
<feFlood flood-opacity="0" result="BackgroundImageFix"/>
<feBlend mode="normal" in="SourceGraphic" in2="BackgroundImageFix" result="shape"/>
<feColorMatrix in="SourceAlpha" type="matrix" values="0 0 0 0 0 0 0 0 0 0 0 0 0 0 0 0 0 0 127 0" result="hardAlpha"/>
<feOffset dy="-3"/>
<feComposite in2="hardAlpha" operator="arithmetic" k2="-1" k3="1"/>
<feColorMatrix type="matrix" values="0 0 0 0 0 0 0 0 0 0 0 0 0 0 0 0 0 0 0.1 0"/>
<feBlend mode="normal" in2="shape" result="effect1_innerShadow_102_31276"/>
</filter>
<filter id="filter11_i_102_31276" x="491" y="144" width="70" height="70" filterUnits="userSpaceOnUse" color-interpolation-filters="sRGB">
<feFlood flood-opacity="0" result="BackgroundImageFix"/>
<feBlend mode="normal" in="SourceGraphic" in2="BackgroundImageFix" result="shape"/>
<feColorMatrix in="SourceAlpha" type="matrix" values="0 0 0 0 0 0 0 0 0 0 0 0 0 0 0 0 0 0 127 0" result="hardAlpha"/>
<feOffset dy="-3"/>
<feComposite in2="hardAlpha" operator="arithmetic" k2="-1" k3="1"/>
<feColorMatrix type="matrix" values="0 0 0 0 0 0 0 0 0 0 0 0 0 0 0 0 0 0 0.1 0"/>
<feBlend mode="normal" in2="shape" result="effect1_innerShadow_102_31276"/>
</filter>
<filter id="filter12_i_102_31276" x="491" y="229" width="70" height="70" filterUnits="userSpaceOnUse" color-interpolation-filters="sRGB">
<feFlood flood-opacity="0" result="BackgroundImageFix"/>
<feBlend mode="normal" in="SourceGraphic" in2="BackgroundImageFix" result="shape"/>
<feColorMatrix in="SourceAlpha" type="matrix" values="0 0 0 0 0 0 0 0 0 0 0 0 0 0 0 0 0 0 127 0" result="hardAlpha"/>
<feOffset dy="-3"/>
<feComposite in2="hardAlpha" operator="arithmetic" k2="-1" k3="1"/>
<feColorMatrix type="matrix" values="0 0 0 0 0 0 0 0 0 0 0 0 0 0 0 0 0 0 0.1 0"/>
<feBlend mode="normal" in2="shape" result="effect1_innerShadow_102_31276"/>
</filter>
<filter id="filter13_i_102_31276" x="561" y="24" width="70" height="70" filterUnits="userSpaceOnUse" color-interpolation-filters="sRGB">
<feFlood flood-opacity="0" result="BackgroundImageFix"/>
<feBlend mode="normal" in="SourceGraphic" in2="BackgroundImageFix" result="shape"/>
<feColorMatrix in="SourceAlpha" type="matrix" values="0 0 0 0 0 0 0 0 0 0 0 0 0 0 0 0 0 0 127 0" result="hardAlpha"/>
<feOffset dy="-3"/>
<feComposite in2="hardAlpha" operator="arithmetic" k2="-1" k3="1"/>
<feColorMatrix type="matrix" values="0 0 0 0 0 0 0 0 0 0 0 0 0 0 0 0 0 0 0.1 0"/>
<feBlend mode="normal" in2="shape" result="effect1_innerShadow_102_31276"/>
</filter>
<filter id="filter14_i_102_31276" x="561" y="109" width="70" height="70" filterUnits="userSpaceOnUse" color-interpolation-filters="sRGB">
<feFlood flood-opacity="0" result="BackgroundImageFix"/>
<feBlend mode="normal" in="SourceGraphic" in2="BackgroundImageFix" result="shape"/>
<feColorMatrix in="SourceAlpha" type="matrix" values="0 0 0 0 0 0 0 0 0 0 0 0 0 0 0 0 0 0 127 0" result="hardAlpha"/>
<feOffset dy="-3"/>
<feComposite in2="hardAlpha" operator="arithmetic" k2="-1" k3="1"/>
<feColorMatrix type="matrix" values="0 0 0 0 0 0 0 0 0 0 0 0 0 0 0 0 0 0 0.1 0"/>
<feBlend mode="normal" in2="shape" result="effect1_innerShadow_102_31276"/>
</filter>
<filter id="filter15_i_102_31276" x="561" y="194" width="70" height="70" filterUnits="userSpaceOnUse" color-interpolation-filters="sRGB">
<feFlood flood-opacity="0" result="BackgroundImageFix"/>
<feBlend mode="normal" in="SourceGraphic" in2="BackgroundImageFix" result="shape"/>
<feColorMatrix in="SourceAlpha" type="matrix" values="0 0 0 0 0 0 0 0 0 0 0 0 0 0 0 0 0 0 127 0" result="hardAlpha"/>
<feOffset dy="-3"/>
<feComposite in2="hardAlpha" operator="arithmetic" k2="-1" k3="1"/>
<feColorMatrix type="matrix" values="0 0 0 0 0 0 0 0 0 0 0 0 0 0 0 0 0 0 0.1 0"/>
<feBlend mode="normal" in2="shape" result="effect1_innerShadow_102_31276"/>
</filter>
<linearGradient id="paint0_linear_102_31276" x1="324" y1="0" x2="324" y2="254" gradientUnits="userSpaceOnUse">
<stop stop-color="white" stop-opacity="0"/>
<stop offset="0.25" stop-color="white" stop-opacity="0.75"/>
<stop offset="0.5" stop-color="white"/>
<stop offset="0.75" stop-color="white" stop-opacity="0.75"/>
<stop offset="1" stop-color="white" stop-opacity="0"/>
</linearGradient>
<linearGradient id="paint1_linear_102_31276" x1="442.605" y1="75" x2="442.605" y2="102.69" gradientUnits="userSpaceOnUse">
<stop stop-color="#1675FF"/>
<stop offset="1" stop-color="#0057E1"/>
</linearGradient>
<linearGradient id="paint2_linear_102_31276" x1="442.605" y1="75" x2="442.605" y2="102.69" gradientUnits="userSpaceOnUse">
<stop stop-color="#1675FF"/>
<stop offset="1" stop-color="#0057E1"/>
</linearGradient>
</defs>
</svg>
