<svg width="649" height="150" viewBox="0 0 649 150" fill="none" xmlns="http://www.w3.org/2000/svg">
<rect width="649" height="150" fill="#FAFAFA"/>
<rect width="649" height="150" fill="#FAFAFA"/>
<mask id="mask0_373_2737" style="mask-type:alpha" maskUnits="userSpaceOnUse" x="0" y="0" width="649" height="150">
<rect opacity="0.1" x="0.5" y="0.5" width="648" height="149" rx="9.5" fill="#FAFAFA" stroke="#EEEEEE"/>
</mask>
<g mask="url(#mask0_373_2737)">
<path d="M67.6037 114V36.9091H96.5128C102.435 36.9091 107.404 38.0133 111.419 40.2216C115.459 42.4299 118.508 45.4664 120.566 49.331C122.649 53.1705 123.69 57.5369 123.69 62.4304C123.69 67.3741 122.649 71.7656 120.566 75.6051C118.483 79.4446 115.409 82.4685 111.344 84.6768C107.278 86.8601 102.272 87.9517 96.3246 87.9517H77.1648V76.4709H94.4425C97.9055 76.4709 100.741 75.8686 102.95 74.6641C105.158 73.4595 106.789 71.8033 107.843 69.6953C108.922 67.5874 109.462 65.1657 109.462 62.4304C109.462 59.6951 108.922 57.286 107.843 55.2031C106.789 53.1203 105.145 51.5017 102.912 50.3473C100.704 49.1678 97.8554 48.5781 94.3672 48.5781H81.5689V114H67.6037ZM133.098 114V56.1818H146.311V65.8182H146.913C147.967 62.4806 149.774 59.9084 152.333 58.1016C154.918 56.2696 157.867 55.3537 161.179 55.3537C161.932 55.3537 162.773 55.3913 163.701 55.4666C164.655 55.5168 165.445 55.6046 166.073 55.7301V68.2649C165.495 68.0642 164.58 67.8885 163.325 67.7379C162.095 67.5623 160.903 67.4744 159.749 67.4744C157.264 67.4744 155.031 68.014 153.048 69.093C151.091 70.147 149.548 71.6151 148.419 73.4972C147.289 75.3793 146.725 77.55 146.725 80.0092V114H133.098ZM195.845 115.129C190.199 115.129 185.305 113.887 181.164 111.403C177.024 108.918 173.812 105.443 171.528 100.976C169.27 96.509 168.14 91.2893 168.14 85.3168C168.14 79.3442 169.27 74.112 171.528 69.62C173.812 65.1281 177.024 61.6399 181.164 59.1555C185.305 56.6712 190.199 55.429 195.845 55.429C201.491 55.429 206.385 56.6712 210.525 59.1555C214.666 61.6399 217.865 65.1281 220.124 69.62C222.408 74.112 223.549 79.3442 223.549 85.3168C223.549 91.2893 222.408 96.509 220.124 100.976C217.865 105.443 214.666 108.918 210.525 111.403C206.385 113.887 201.491 115.129 195.845 115.129ZM195.92 104.213C198.982 104.213 201.541 103.372 203.599 101.691C205.657 99.9846 207.188 97.701 208.191 94.8402C209.22 91.9794 209.735 88.7924 209.735 85.2791C209.735 81.7408 209.22 78.5412 208.191 75.6804C207.188 72.7945 205.657 70.4983 203.599 68.7919C201.541 67.0855 198.982 66.2322 195.92 66.2322C192.783 66.2322 190.173 67.0855 188.091 68.7919C186.033 70.4983 184.49 72.7945 183.461 75.6804C182.457 78.5412 181.955 81.7408 181.955 85.2791C181.955 88.7924 182.457 91.9794 183.461 94.8402C184.49 97.701 186.033 99.9846 188.091 101.691C190.173 103.372 192.783 104.213 195.92 104.213ZM241.963 56.1818L253.632 77.5249L265.489 56.1818H279.906L262.478 85.0909L280.207 114H265.866L253.632 93.1839L241.511 114H227.057L244.673 85.0909L227.509 56.1818H241.963ZM296.796 135.682C294.939 135.682 293.22 135.531 291.639 135.23C290.083 134.954 288.841 134.628 287.912 134.251L291.074 123.636C293.056 124.214 294.826 124.49 296.382 124.464C297.937 124.439 299.305 123.95 300.484 122.996C301.689 122.068 302.705 120.512 303.533 118.329L304.7 115.205L283.734 56.1818H298.188L311.514 99.8466H312.116L325.479 56.1818H339.971L316.821 121.001C315.742 124.063 314.312 126.685 312.53 128.869C310.748 131.077 308.565 132.758 305.98 133.913C303.421 135.092 300.359 135.682 296.796 135.682ZM413.951 58.1016C413.6 54.8142 412.119 52.2545 409.509 50.4226C406.925 48.5907 403.562 47.6747 399.421 47.6747C396.51 47.6747 394.013 48.1139 391.931 48.9922C389.848 49.8705 388.254 51.0625 387.15 52.5682C386.046 54.0739 385.481 55.7929 385.456 57.7251C385.456 59.3312 385.82 60.724 386.548 61.9034C387.301 63.0829 388.317 64.0866 389.597 64.9148C390.877 65.7178 392.294 66.3954 393.85 66.9474C395.406 67.4995 396.975 67.9638 398.556 68.3402L405.783 70.147C408.694 70.8246 411.492 71.7405 414.177 72.8949C416.887 74.0492 419.309 75.5047 421.442 77.2614C423.6 79.018 425.307 81.1385 426.561 83.6229C427.816 86.1072 428.443 89.0182 428.443 92.3558C428.443 96.8729 427.289 100.85 424.98 104.288C422.672 107.701 419.334 110.374 414.967 112.306C410.626 114.213 405.369 115.167 399.195 115.167C393.198 115.167 387.991 114.238 383.574 112.381C379.182 110.524 375.744 107.814 373.26 104.251C370.801 100.687 369.471 96.3459 369.27 91.2266H383.009C383.21 93.9117 384.038 96.1451 385.494 97.9268C386.949 99.7086 388.844 101.039 391.178 101.917C393.537 102.795 396.172 103.234 399.083 103.234C402.119 103.234 404.779 102.783 407.063 101.879C409.371 100.951 411.178 99.6709 412.483 98.0398C413.788 96.3835 414.453 94.4512 414.478 92.2429C414.453 90.2353 413.863 88.5791 412.709 87.2741C411.555 85.9441 409.936 84.84 407.853 83.9616C405.795 83.0582 403.386 82.2552 400.626 81.5526L391.855 79.294C385.506 77.6629 380.487 75.1911 376.798 71.8786C373.135 68.541 371.303 64.1117 371.303 58.5909C371.303 54.0488 372.532 50.0713 374.992 46.6584C377.476 43.2455 380.851 40.598 385.117 38.7159C389.383 36.8087 394.214 35.8551 399.61 35.8551C405.08 35.8551 409.873 36.8087 413.989 38.7159C418.129 40.598 421.379 43.2204 423.738 46.5831C426.097 49.9207 427.314 53.7602 427.389 58.1016H413.951ZM463.391 115.129C457.745 115.129 452.852 113.887 448.711 111.403C444.57 108.918 441.358 105.443 439.075 100.976C436.816 96.509 435.687 91.2893 435.687 85.3168C435.687 79.3442 436.816 74.112 439.075 69.62C441.358 65.1281 444.57 61.6399 448.711 59.1555C452.852 56.6712 457.745 55.429 463.391 55.429C469.038 55.429 473.931 56.6712 478.072 59.1555C482.212 61.6399 485.412 65.1281 487.67 69.62C489.954 74.112 491.096 79.3442 491.096 85.3168C491.096 91.2893 489.954 96.509 487.67 100.976C485.412 105.443 482.212 108.918 478.072 111.403C473.931 113.887 469.038 115.129 463.391 115.129ZM463.467 104.213C466.528 104.213 469.088 103.372 471.146 101.691C473.203 99.9846 474.734 97.701 475.738 94.8402C476.767 91.9794 477.281 88.7924 477.281 85.2791C477.281 81.7408 476.767 78.5412 475.738 75.6804C474.734 72.7945 473.203 70.4983 471.146 68.7919C469.088 67.0855 466.528 66.2322 463.467 66.2322C460.33 66.2322 457.72 67.0855 455.637 68.7919C453.579 70.4983 452.036 72.7945 451.007 75.6804C450.003 78.5412 449.501 81.7408 449.501 85.2791C449.501 88.7924 450.003 91.9794 451.007 94.8402C452.036 97.701 453.579 99.9846 455.637 101.691C457.72 103.372 460.33 104.213 463.467 104.213ZM514.168 36.9091V114H500.541V36.9091H514.168ZM562.912 89.6832V56.1818H576.538V114H563.326V103.724H562.723C561.419 106.961 559.273 109.608 556.287 111.666C553.325 113.724 549.674 114.753 545.333 114.753C541.544 114.753 538.193 113.912 535.282 112.231C532.397 110.524 530.138 108.053 528.507 104.815C526.876 101.553 526.06 97.6132 526.06 92.9957V56.1818H539.687V90.8878C539.687 94.5516 540.69 97.4626 542.698 99.6207C544.705 101.779 547.34 102.858 550.603 102.858C552.61 102.858 554.555 102.369 556.437 101.39C558.319 100.411 559.863 98.9557 561.067 97.0234C562.297 95.0661 562.912 92.6193 562.912 89.6832ZM617.302 56.1818V66.7216H584.064V56.1818H617.302ZM592.27 42.3295H605.896V96.6094C605.896 98.4413 606.172 99.8466 606.724 100.825C607.302 101.779 608.054 102.431 608.983 102.783C609.911 103.134 610.94 103.31 612.07 103.31C612.923 103.31 613.701 103.247 614.403 103.121C615.131 102.996 615.683 102.883 616.06 102.783L618.356 113.435C617.628 113.686 616.587 113.962 615.231 114.263C613.901 114.565 612.27 114.74 610.338 114.79C606.925 114.891 603.851 114.376 601.116 113.247C598.38 112.093 596.21 110.311 594.604 107.902C593.023 105.493 592.245 102.482 592.27 98.8679V42.3295ZM626.578 114V56.1818H640.204V114H626.578ZM633.429 47.9759C631.271 47.9759 629.414 47.2607 627.858 45.8303C626.302 44.3748 625.524 42.6307 625.524 40.598C625.524 38.5402 626.302 36.7962 627.858 35.3658C629.414 33.9103 631.271 33.1825 633.429 33.1825C635.612 33.1825 637.469 33.9103 639 35.3658C640.556 36.7962 641.334 38.5402 641.334 40.598C641.334 42.6307 640.556 44.3748 639 45.8303C637.469 47.2607 635.612 47.9759 633.429 47.9759ZM677.317 115.129C671.67 115.129 666.777 113.887 662.636 111.403C658.496 108.918 655.284 105.443 653 100.976C650.741 96.509 649.612 91.2893 649.612 85.3168C649.612 79.3442 650.741 74.112 653 69.62C655.284 65.1281 658.496 61.6399 662.636 59.1555C666.777 56.6712 671.67 55.429 677.317 55.429C682.963 55.429 687.857 56.6712 691.997 59.1555C696.138 61.6399 699.337 65.1281 701.596 69.62C703.879 74.112 705.021 79.3442 705.021 85.3168C705.021 91.2893 703.879 96.509 701.596 100.976C699.337 105.443 696.138 108.918 691.997 111.403C687.857 113.887 682.963 115.129 677.317 115.129ZM677.392 104.213C680.454 104.213 683.013 103.372 685.071 101.691C687.129 99.9846 688.66 97.701 689.663 94.8402C690.692 91.9794 691.207 88.7924 691.207 85.2791C691.207 81.7408 690.692 78.5412 689.663 75.6804C688.66 72.7945 687.129 70.4983 685.071 68.7919C683.013 67.0855 680.454 66.2322 677.392 66.2322C674.255 66.2322 671.645 67.0855 669.562 68.7919C667.505 70.4983 665.961 72.7945 664.933 75.6804C663.929 78.5412 663.427 81.7408 663.427 85.2791C663.427 88.7924 663.929 91.9794 664.933 94.8402C665.961 97.701 667.505 99.9846 669.562 101.691C671.645 103.372 674.255 104.213 677.392 104.213ZM728.093 80.1222V114H714.467V56.1818H727.491V66.0064H728.169C729.499 62.7692 731.619 60.197 734.53 58.2898C737.466 56.3826 741.092 55.429 745.409 55.429C749.399 55.429 752.874 56.2822 755.835 57.9886C758.822 59.6951 761.13 62.1669 762.762 65.4041C764.418 68.6413 765.233 72.5687 765.208 77.1861V114H751.582V79.294C751.582 75.4294 750.578 72.4055 748.571 70.2223C746.588 68.0391 743.84 66.9474 740.327 66.9474C737.943 66.9474 735.822 67.4744 733.965 68.5284C732.133 69.5573 730.691 71.0504 729.637 73.0078C728.608 74.9652 728.093 77.3366 728.093 80.1222ZM822.638 71.4645L810.216 72.8196C809.865 71.5649 809.25 70.3854 808.372 69.2812C807.518 68.1771 806.364 67.2862 804.909 66.6087C803.453 65.9311 801.671 65.5923 799.563 65.5923C796.728 65.5923 794.344 66.2071 792.411 67.4368C790.504 68.6664 789.563 70.2599 789.588 72.2173C789.563 73.8987 790.178 75.2663 791.433 76.3203C792.713 77.3743 794.821 78.2401 797.757 78.9176L807.619 81.0256C813.089 82.205 817.155 84.0746 819.815 86.6342C822.5 89.1939 823.855 92.544 823.88 96.6847C823.855 100.323 822.789 103.536 820.681 106.321C818.598 109.081 815.699 111.24 811.985 112.795C808.271 114.351 804.005 115.129 799.187 115.129C792.11 115.129 786.414 113.649 782.098 110.688C777.781 107.701 775.209 103.548 774.381 98.228L787.669 96.9482C788.271 99.558 789.551 101.528 791.508 102.858C793.465 104.188 796.013 104.853 799.149 104.853C802.387 104.853 804.984 104.188 806.941 102.858C808.924 101.528 809.915 99.8842 809.915 97.9268C809.915 96.2706 809.275 94.9029 807.995 93.8239C806.741 92.7448 804.783 91.9167 802.123 91.3395L792.261 89.2692C786.715 88.1148 782.612 86.17 779.952 83.4347C777.292 80.6742 775.974 77.1861 776 72.9702C775.974 69.4067 776.941 66.3201 778.898 63.7102C780.88 61.0753 783.628 59.0426 787.142 57.6122C790.68 56.1567 794.758 55.429 799.375 55.429C806.151 55.429 811.483 56.8719 815.373 59.7578C819.288 62.6437 821.71 66.5459 822.638 71.4645Z" fill="black"/>
</g>
</svg>
