<svg width="1316" height="450" viewBox="0 0 1316 450" fill="none" xmlns="http://www.w3.org/2000/svg">
<rect width="1316" height="450" fill="#1675FF"/>
<path d="M508.903 335V334.233L511.784 331.08C512.122 330.71 512.401 330.389 512.619 330.116C512.838 329.841 513 329.582 513.105 329.341C513.213 329.097 513.267 328.841 513.267 328.574C513.267 328.267 513.193 328.001 513.045 327.777C512.901 327.553 512.702 327.379 512.449 327.257C512.196 327.135 511.912 327.074 511.597 327.074C511.261 327.074 510.969 327.143 510.719 327.283C510.472 327.419 510.28 327.611 510.143 327.858C510.01 328.105 509.943 328.395 509.943 328.727H508.938C508.938 328.216 509.055 327.767 509.291 327.381C509.527 326.994 509.848 326.693 510.254 326.477C510.663 326.261 511.122 326.153 511.631 326.153C512.142 326.153 512.595 326.261 512.99 326.477C513.385 326.693 513.695 326.984 513.919 327.351C514.143 327.717 514.256 328.125 514.256 328.574C514.256 328.895 514.197 329.209 514.081 329.516C513.967 329.82 513.768 330.159 513.484 330.534C513.203 330.906 512.812 331.361 512.312 331.898L510.352 333.994V334.062H514.409V335H508.903ZM518.776 335.119C518.276 335.119 517.826 335.02 517.425 334.821C517.025 334.622 516.704 334.349 516.462 334.003C516.221 333.656 516.089 333.261 516.066 332.818H517.089C517.129 333.213 517.308 333.54 517.626 333.798C517.947 334.054 518.33 334.182 518.776 334.182C519.134 334.182 519.452 334.098 519.731 333.93C520.012 333.763 520.232 333.533 520.391 333.24C520.553 332.945 520.634 332.611 520.634 332.239C520.634 331.858 520.55 331.518 520.383 331.22C520.218 330.919 519.991 330.682 519.701 330.509C519.411 330.335 519.08 330.247 518.708 330.244C518.441 330.241 518.167 330.283 517.886 330.368C517.604 330.45 517.373 330.557 517.191 330.688L516.202 330.568L516.731 326.273H521.265V327.21H517.617L517.31 329.784H517.362C517.541 329.642 517.765 329.524 518.035 329.43C518.305 329.337 518.586 329.29 518.879 329.29C519.413 329.29 519.889 329.418 520.306 329.673C520.727 329.926 521.056 330.273 521.295 330.713C521.536 331.153 521.657 331.656 521.657 332.222C521.657 332.778 521.532 333.276 521.282 333.713C521.035 334.148 520.694 334.491 520.259 334.744C519.825 334.994 519.33 335.119 518.776 335.119ZM523.247 337.455V328.455H524.218V329.494H524.338C524.412 329.381 524.514 329.236 524.645 329.06C524.778 328.881 524.968 328.722 525.216 328.582C525.466 328.44 525.804 328.369 526.23 328.369C526.781 328.369 527.267 328.507 527.687 328.783C528.108 329.058 528.436 329.449 528.672 329.955C528.907 330.46 529.025 331.057 529.025 331.744C529.025 332.438 528.907 333.038 528.672 333.547C528.436 334.053 528.109 334.445 527.691 334.723C527.274 334.999 526.792 335.136 526.247 335.136C525.826 335.136 525.49 335.067 525.237 334.928C524.984 334.786 524.789 334.625 524.653 334.446C524.517 334.264 524.412 334.114 524.338 333.994H524.253V337.455H523.247ZM524.235 331.727C524.235 332.222 524.308 332.658 524.453 333.036C524.598 333.411 524.809 333.705 525.088 333.918C525.366 334.128 525.707 334.233 526.11 334.233C526.531 334.233 526.882 334.122 527.163 333.901C527.447 333.676 527.66 333.375 527.802 332.997C527.947 332.616 528.02 332.193 528.02 331.727C528.02 331.267 527.949 330.852 527.807 330.483C527.667 330.111 527.456 329.817 527.172 329.601C526.89 329.382 526.537 329.273 526.11 329.273C525.701 329.273 525.358 329.376 525.079 329.584C524.801 329.788 524.591 330.075 524.449 330.445C524.307 330.811 524.235 331.239 524.235 331.727ZM530.92 328.455L532.488 331.131L534.056 328.455H535.215L533.102 331.727L535.215 335H534.056L532.488 332.46L530.92 335H529.761L531.84 331.727L529.761 328.455H530.92Z" fill="white"/>
<path d="M985.903 158V157.233L988.784 154.08C989.122 153.71 989.401 153.389 989.619 153.116C989.838 152.841 990 152.582 990.105 152.341C990.213 152.097 990.267 151.841 990.267 151.574C990.267 151.267 990.193 151.001 990.045 150.777C989.901 150.553 989.702 150.379 989.449 150.257C989.196 150.135 988.912 150.074 988.597 150.074C988.261 150.074 987.969 150.143 987.719 150.283C987.472 150.419 987.28 150.611 987.143 150.858C987.01 151.105 986.943 151.395 986.943 151.727H985.938C985.938 151.216 986.055 150.767 986.291 150.381C986.527 149.994 986.848 149.693 987.254 149.477C987.663 149.261 988.122 149.153 988.631 149.153C989.142 149.153 989.595 149.261 989.99 149.477C990.385 149.693 990.695 149.984 990.919 150.351C991.143 150.717 991.256 151.125 991.256 151.574C991.256 151.895 991.197 152.209 991.081 152.516C990.967 152.82 990.768 153.159 990.484 153.534C990.203 153.906 989.812 154.361 989.312 154.898L987.352 156.994V157.062H991.409V158H985.903ZM995.896 158.119C995.254 158.119 994.707 157.945 994.255 157.595C993.803 157.243 993.458 156.733 993.219 156.065C992.981 155.395 992.862 154.585 992.862 153.636C992.862 152.693 992.981 151.888 993.219 151.22C993.461 150.55 993.808 150.038 994.259 149.686C994.714 149.331 995.259 149.153 995.896 149.153C996.532 149.153 997.076 149.331 997.528 149.686C997.982 150.038 998.329 150.55 998.568 151.22C998.809 151.888 998.93 152.693 998.93 153.636C998.93 154.585 998.81 155.395 998.572 156.065C998.333 156.733 997.988 157.243 997.536 157.595C997.085 157.945 996.538 158.119 995.896 158.119ZM995.896 157.182C996.532 157.182 997.026 156.875 997.379 156.261C997.731 155.648 997.907 154.773 997.907 153.636C997.907 152.881 997.826 152.237 997.664 151.706C997.505 151.175 997.275 150.77 996.974 150.491C996.675 150.213 996.316 150.074 995.896 150.074C995.265 150.074 994.772 150.385 994.417 151.007C994.062 151.626 993.884 152.503 993.884 153.636C993.884 154.392 993.964 155.034 994.123 155.562C994.282 156.091 994.511 156.493 994.809 156.768C995.11 157.044 995.472 157.182 995.896 157.182ZM1000.45 160.455V151.455H1001.42V152.494H1001.54C1001.61 152.381 1001.71 152.236 1001.84 152.06C1001.98 151.881 1002.17 151.722 1002.41 151.582C1002.66 151.44 1003 151.369 1003.43 151.369C1003.98 151.369 1004.47 151.507 1004.89 151.783C1005.31 152.058 1005.64 152.449 1005.87 152.955C1006.11 153.46 1006.22 154.057 1006.22 154.744C1006.22 155.438 1006.11 156.038 1005.87 156.547C1005.64 157.053 1005.31 157.445 1004.89 157.723C1004.47 157.999 1003.99 158.136 1003.45 158.136C1003.03 158.136 1002.69 158.067 1002.44 157.928C1002.18 157.786 1001.99 157.625 1001.85 157.446C1001.72 157.264 1001.61 157.114 1001.54 156.994H1001.45V160.455H1000.45ZM1001.43 154.727C1001.43 155.222 1001.51 155.658 1001.65 156.036C1001.8 156.411 1002.01 156.705 1002.29 156.918C1002.57 157.128 1002.91 157.233 1003.31 157.233C1003.73 157.233 1004.08 157.122 1004.36 156.901C1004.65 156.676 1004.86 156.375 1005 155.997C1005.15 155.616 1005.22 155.193 1005.22 154.727C1005.22 154.267 1005.15 153.852 1005.01 153.483C1004.87 153.111 1004.65 152.817 1004.37 152.601C1004.09 152.382 1003.74 152.273 1003.31 152.273C1002.9 152.273 1002.56 152.376 1002.28 152.584C1002 152.788 1001.79 153.075 1001.65 153.445C1001.51 153.811 1001.43 154.239 1001.43 154.727ZM1008.12 151.455L1009.69 154.131L1011.26 151.455H1012.41L1010.3 154.727L1012.41 158H1011.26L1009.69 155.46L1008.12 158H1006.96L1009.04 154.727L1006.96 151.455H1008.12Z" fill="white"/>
<path d="M985.903 302V301.233L988.784 298.08C989.122 297.71 989.401 297.389 989.619 297.116C989.838 296.841 990 296.582 990.105 296.341C990.213 296.097 990.267 295.841 990.267 295.574C990.267 295.267 990.193 295.001 990.045 294.777C989.901 294.553 989.702 294.379 989.449 294.257C989.196 294.135 988.912 294.074 988.597 294.074C988.261 294.074 987.969 294.143 987.719 294.283C987.472 294.419 987.28 294.611 987.143 294.858C987.01 295.105 986.943 295.395 986.943 295.727H985.938C985.938 295.216 986.055 294.767 986.291 294.381C986.527 293.994 986.848 293.693 987.254 293.477C987.663 293.261 988.122 293.153 988.631 293.153C989.142 293.153 989.595 293.261 989.99 293.477C990.385 293.693 990.695 293.984 990.919 294.351C991.143 294.717 991.256 295.125 991.256 295.574C991.256 295.895 991.197 296.209 991.081 296.516C990.967 296.82 990.768 297.159 990.484 297.534C990.203 297.906 989.812 298.361 989.312 298.898L987.352 300.994V301.062H991.409V302H985.903ZM995.896 302.119C995.254 302.119 994.707 301.945 994.255 301.595C993.803 301.243 993.458 300.733 993.219 300.065C992.981 299.395 992.862 298.585 992.862 297.636C992.862 296.693 992.981 295.888 993.219 295.22C993.461 294.55 993.808 294.038 994.259 293.686C994.714 293.331 995.259 293.153 995.896 293.153C996.532 293.153 997.076 293.331 997.528 293.686C997.982 294.038 998.329 294.55 998.568 295.22C998.809 295.888 998.93 296.693 998.93 297.636C998.93 298.585 998.81 299.395 998.572 300.065C998.333 300.733 997.988 301.243 997.536 301.595C997.085 301.945 996.538 302.119 995.896 302.119ZM995.896 301.182C996.532 301.182 997.026 300.875 997.379 300.261C997.731 299.648 997.907 298.773 997.907 297.636C997.907 296.881 997.826 296.237 997.664 295.706C997.505 295.175 997.275 294.77 996.974 294.491C996.675 294.213 996.316 294.074 995.896 294.074C995.265 294.074 994.772 294.385 994.417 295.007C994.062 295.626 993.884 296.503 993.884 297.636C993.884 298.392 993.964 299.034 994.123 299.562C994.282 300.091 994.511 300.493 994.809 300.768C995.11 301.044 995.472 301.182 995.896 301.182ZM1000.45 304.455V295.455H1001.42V296.494H1001.54C1001.61 296.381 1001.71 296.236 1001.84 296.06C1001.98 295.881 1002.17 295.722 1002.41 295.582C1002.66 295.44 1003 295.369 1003.43 295.369C1003.98 295.369 1004.47 295.507 1004.89 295.783C1005.31 296.058 1005.64 296.449 1005.87 296.955C1006.11 297.46 1006.22 298.057 1006.22 298.744C1006.22 299.438 1006.11 300.038 1005.87 300.547C1005.64 301.053 1005.31 301.445 1004.89 301.723C1004.47 301.999 1003.99 302.136 1003.45 302.136C1003.03 302.136 1002.69 302.067 1002.44 301.928C1002.18 301.786 1001.99 301.625 1001.85 301.446C1001.72 301.264 1001.61 301.114 1001.54 300.994H1001.45V304.455H1000.45ZM1001.43 298.727C1001.43 299.222 1001.51 299.658 1001.65 300.036C1001.8 300.411 1002.01 300.705 1002.29 300.918C1002.57 301.128 1002.91 301.233 1003.31 301.233C1003.73 301.233 1004.08 301.122 1004.36 300.901C1004.65 300.676 1004.86 300.375 1005 299.997C1005.15 299.616 1005.22 299.193 1005.22 298.727C1005.22 298.267 1005.15 297.852 1005.01 297.483C1004.87 297.111 1004.65 296.817 1004.37 296.601C1004.09 296.382 1003.74 296.273 1003.31 296.273C1002.9 296.273 1002.56 296.376 1002.28 296.584C1002 296.788 1001.79 297.075 1001.65 297.445C1001.51 297.811 1001.43 298.239 1001.43 298.727ZM1008.12 295.455L1009.69 298.131L1011.26 295.455H1012.41L1010.3 298.727L1012.41 302H1011.26L1009.69 299.46L1008.12 302H1006.96L1009.04 298.727L1006.96 295.455H1008.12Z" fill="white"/>
<path fill-rule="evenodd" clip-rule="evenodd" d="M374.692 144C358.846 144 346 156.846 346 172.692V277.894C346 293.74 358.846 306.586 374.692 306.586H479.894C495.74 306.586 508.586 293.74 508.586 277.894V172.692C508.586 156.846 495.74 144 479.894 144H374.692ZM403.528 172.117L396.677 188.815H453.312C454.084 188.815 454.858 188.914 455.559 189.237C457.957 190.341 461.327 192.964 461.327 197.378C461.327 201.791 457.957 204.414 455.559 205.518C454.858 205.841 454.084 205.94 453.312 205.94H426.647L418.941 223.494H454.961C456.348 223.494 457.738 223.397 459.069 223.01C466.422 220.871 478.024 213.599 478.024 197.378C478.024 179.567 463.467 173.116 456.189 172.117H403.528ZM406.176 193.799H425.015L410.886 228.051H462.263L405.32 285.422L421.161 245.176H384.769L406.176 193.799Z" fill="white"/>
<path d="M533.586 287.505H547.383V267.417H563.186C574.096 267.417 582.278 259.814 582.278 249.65C582.278 239.166 574.256 231.483 563.186 231.483H533.586V287.505ZM547.383 256.053V243.248H561.582C565.593 243.248 568.32 245.889 568.32 249.73C568.32 253.492 565.593 256.053 561.582 256.053H547.383Z" fill="white"/>
<path d="M587.758 287.505H601.555V267.097H612.064L622.652 287.505H638.054L625.781 265.096C632.118 262.215 636.289 256.373 636.289 249.33C636.289 238.926 628.027 231.483 616.476 231.483H587.758V287.505ZM601.555 255.893V243.248H615.192C619.444 243.248 622.332 245.809 622.332 249.57C622.332 253.332 619.444 255.893 615.192 255.893H601.555Z" fill="white"/>
<path d="M669.769 288.385C686.615 288.385 699.77 275.66 699.77 259.494C699.77 243.328 686.615 230.603 669.769 230.603C652.923 230.603 639.768 243.328 639.768 259.494C639.768 275.66 652.923 288.385 669.769 288.385ZM669.769 275.74C660.785 275.74 653.966 268.777 653.966 259.494C653.966 250.21 660.785 243.248 669.769 243.248C678.753 243.248 685.572 250.21 685.572 259.494C685.572 268.777 678.753 275.74 669.769 275.74Z" fill="white"/>
<path d="M695.2 287.505H711.003L724.319 268.777L737.715 287.505H754.16L732.501 258.614L752.475 231.483H736.672L724.64 248.37L712.607 231.483H696.162L716.457 258.614L695.2 287.505Z" fill="white"/>
<path d="M754.269 287.505H768.066V231.483H754.269V287.505Z" fill="white"/>
<path d="M775.774 287.505H820.375V275.58H789.571V265.016H809.706V253.492H789.571V243.408H820.054V231.483H775.774V287.505Z" fill="white"/>
<path d="M847.587 288.305C862.828 288.305 872.213 281.262 872.213 269.898C872.213 261.255 866.518 255.732 855.689 253.972L844.057 252.051C839.324 251.251 837.399 249.89 837.399 247.089C837.399 244.048 840.848 242.207 846.464 242.207C852.4 242.207 857.774 244.288 863.71 248.85L871.01 238.686C864.833 233.724 855.769 230.683 847.426 230.683C833.067 230.683 824.404 237.245 824.404 248.13C824.404 256.373 829.458 261.895 838.602 263.495L850.956 265.656C856.571 266.617 858.737 268.137 858.737 271.258C858.737 274.7 854.967 276.701 848.63 276.701C842.132 276.701 836.757 274.46 829.939 268.938L822.238 278.941C829.217 284.864 838.522 288.305 847.587 288.305Z" fill="white"/>
<path d="M533.624 218.545H576.597V206.5H547.287V163.073H533.624V218.545Z" fill="white"/>
<path d="M582.611 218.545H596.273V163.073H582.611V218.545Z" fill="white"/>
<path d="M631.706 219.417C647.989 219.417 659.904 207.213 659.904 190.492V186.53H630.117V198.337H645.13C643.541 203.488 638.378 207.054 631.944 207.054C622.81 207.054 615.979 200.081 615.979 190.809C615.979 181.616 622.572 174.722 631.468 174.722C637.028 174.722 641.794 177.099 645.448 181.696L655.059 173.058C649.737 166.322 640.92 162.201 631.468 162.201C614.867 162.201 601.92 174.722 601.92 190.809C601.92 206.896 614.946 219.417 631.706 219.417Z" fill="white"/>
<path d="M665.536 218.545H679.198V196.832H702.074V218.545H715.736V163.073H702.074V184.39H679.198V163.073H665.536V218.545Z" fill="white"/>
<path d="M738.377 218.545H752.04V175.118H770.229V163.073H720.188V175.118H738.377V218.545Z" fill="white"/>
<path d="M774.679 218.545H787.546V185.103L813.6 218.545H825.673V163.073H812.805V195.247L787.546 163.073H774.679V218.545Z" fill="white"/>
<path d="M833.284 218.545H846.946V163.073H833.284V218.545Z" fill="white"/>
<path d="M854.578 218.545H867.446V185.103L893.499 218.545H905.573V163.073H892.705V195.247L867.446 163.073H854.578V218.545Z" fill="white"/>
<path d="M940.984 219.417C957.267 219.417 969.182 207.213 969.182 190.492V186.53H939.395V198.337H954.408C952.819 203.488 947.656 207.054 941.222 207.054C932.088 207.054 925.257 200.081 925.257 190.809C925.257 181.616 931.849 174.722 940.746 174.722C946.306 174.722 951.072 177.099 954.726 181.696L964.337 173.058C959.015 166.322 950.198 162.201 940.746 162.201C924.145 162.201 911.197 174.722 911.197 190.809C911.197 206.896 924.224 219.417 940.984 219.417Z" fill="white"/>
<path opacity="0.5" d="M346 0V450" stroke="white"/>
<path opacity="0.5" d="M969 0V450" stroke="white"/>
<path opacity="0.5" d="M1316 144L1.00005 144" stroke="white"/>
<path opacity="0.5" d="M1316 307L1.00005 307" stroke="white"/>
<path opacity="0.5" d="M508.646 314.646C508.451 314.842 508.451 315.158 508.646 315.354L511.828 318.536C512.024 318.731 512.34 318.731 512.536 318.536C512.731 318.34 512.731 318.024 512.536 317.828L509.707 315L512.536 312.172C512.731 311.976 512.731 311.66 512.536 311.464C512.34 311.269 512.024 311.269 511.828 311.464L508.646 314.646ZM533.354 315.354C533.549 315.158 533.549 314.842 533.354 314.646L530.172 311.464C529.976 311.269 529.66 311.269 529.464 311.464C529.269 311.66 529.269 311.976 529.464 312.172L532.293 315L529.464 317.828C529.269 318.024 529.269 318.34 529.464 318.536C529.66 318.731 529.976 318.731 530.172 318.536L533.354 315.354ZM509 315.5L533 315.5L533 314.5L509 314.5L509 315.5Z" fill="white"/>
<path opacity="0.5" d="M976.646 163.354C976.842 163.549 977.158 163.549 977.354 163.354L980.536 160.172C980.731 159.976 980.731 159.66 980.536 159.464C980.34 159.269 980.024 159.269 979.828 159.464L977 162.293L974.172 159.464C973.976 159.269 973.66 159.269 973.464 159.464C973.269 159.66 973.269 159.976 973.464 160.172L976.646 163.354ZM977.354 143.646C977.158 143.451 976.842 143.451 976.646 143.646L973.464 146.828C973.269 147.024 973.269 147.34 973.464 147.536C973.66 147.731 973.976 147.731 974.172 147.536L977 144.707L979.828 147.536C980.024 147.731 980.34 147.731 980.536 147.536C980.731 147.34 980.731 147.024 980.536 146.828L977.354 143.646ZM977.5 163L977.5 144L976.5 144L976.5 163L977.5 163Z" fill="white"/>
<path opacity="0.5" d="M976.646 307.354C976.842 307.549 977.158 307.549 977.354 307.354L980.536 304.172C980.731 303.976 980.731 303.66 980.536 303.464C980.34 303.269 980.024 303.269 979.828 303.464L977 306.293L974.172 303.464C973.976 303.269 973.66 303.269 973.464 303.464C973.269 303.66 973.269 303.976 973.464 304.172L976.646 307.354ZM977.354 287.646C977.158 287.451 976.842 287.451 976.646 287.646L973.464 290.828C973.269 291.024 973.269 291.34 973.464 291.536C973.66 291.731 973.976 291.731 974.172 291.536L977 288.707L979.828 291.536C980.024 291.731 980.34 291.731 980.536 291.536C980.731 291.34 980.731 291.024 980.536 290.828L977.354 287.646ZM977.5 307L977.5 288L976.5 288L976.5 307L977.5 307Z" fill="white"/>
<rect opacity="0.1" x="509" y="144" width="25" height="163" fill="white"/>
<rect opacity="0.1" x="969" y="144" width="19" height="460" transform="rotate(90 969 144)" fill="white"/>
<rect opacity="0.1" x="969" y="288" width="19" height="460" transform="rotate(90 969 288)" fill="white"/>
</svg>
