<svg width="589" height="500" viewBox="0 0 589 500" fill="none" xmlns="http://www.w3.org/2000/svg">
<rect width="589" height="500" fill="#D10975"/>
<mask id="mask0_361_74030" style="mask-type:alpha" maskUnits="userSpaceOnUse" x="0" y="0" width="589" height="500">
<rect x="0.5" y="0.5" width="588" height="499" rx="9.5" fill="#D10975" stroke="#EEEEEE"/>
</mask>
<g mask="url(#mask0_361_74030)">
<path opacity="0.1" d="M272.315 560.974C279.511 565.176 283.108 567.276 288.185 568.366C292.127 569.211 297.873 569.211 301.815 568.366C306.892 567.276 310.489 565.176 317.685 560.974C380.995 524.018 555 407.92 555 248.297V124.719C555 89.7952 555 72.3337 549.621 59.9382C544.151 47.3398 538.705 40.6377 527.492 32.7154C516.458 24.9209 494.829 20.4201 451.575 11.4185C403.901 1.49717 367.29 -16.4186 333.818 -42.3279C317.766 -54.7527 309.742 -60.9647 303.46 -62.659C296.833 -64.447 293.167 -64.447 286.54 -62.659C280.258 -60.9647 272.234 -54.7523 256.182 -42.3279C222.711 -16.4186 186.099 1.49717 138.425 11.4185C95.1695 20.4201 73.5421 24.9209 62.5096 32.7154C51.2961 40.6377 45.8482 47.3398 40.3801 59.9382C35 72.3337 35 89.7952 35 124.719V248.297C35 407.92 209.004 524.018 272.315 560.974Z" fill="url(#paint0_linear_361_74030)"/>
<path opacity="0.1" d="M277.114 495.673C282.787 498.985 285.624 500.641 289.626 501.5C292.735 502.167 297.265 502.167 300.374 501.5C304.376 500.641 307.213 498.985 312.886 495.673C362.804 466.54 500 375.019 500 249.187V151.769C500 124.238 500 110.473 495.759 100.702C491.446 90.7702 487.152 85.4869 478.311 79.2417C469.611 73.0972 452.558 69.5492 418.454 62.4531C380.864 54.632 351.998 40.5088 325.606 20.0843C312.95 10.2898 306.623 5.39275 301.67 4.05711C296.445 2.64763 293.555 2.64763 288.33 4.05711C283.377 5.39275 277.05 10.29 264.394 20.0843C238.003 40.5088 209.136 54.632 171.546 62.4531C137.441 69.5492 120.389 73.0972 111.69 79.2417C102.849 85.4869 98.5534 90.7702 94.242 100.702C90 110.473 90 124.238 90 151.769V249.187C90 375.019 227.195 466.54 277.114 495.673Z" fill="url(#paint1_linear_361_74030)"/>
<path opacity="0.15" d="M280.982 443.099C285.429 445.693 287.652 446.991 290.789 447.664C293.225 448.186 296.776 448.186 299.212 447.664C302.349 446.991 304.572 445.693 309.019 443.099C348.141 420.276 455.667 348.578 455.667 250.001V173.684C455.667 152.117 455.667 141.333 452.344 133.678C448.963 125.898 445.598 121.759 438.669 116.866C431.851 112.053 418.485 109.273 391.756 103.714C362.296 97.5872 339.672 86.5231 318.988 70.5225C309.069 62.8495 304.11 59.0131 300.228 57.9668C296.133 56.8626 293.868 56.8626 289.773 57.9668C285.891 59.0131 280.932 62.8497 271.013 70.5225C250.33 86.5231 227.705 97.5872 198.245 103.714C171.516 109.273 158.151 112.053 151.334 116.866C144.404 121.759 141.038 125.898 137.659 133.678C134.334 141.333 134.334 152.117 134.334 173.684V250.001C134.334 348.578 241.859 420.276 280.982 443.099Z" fill="url(#paint2_linear_361_74030)" stroke="white" stroke-width="2.5" stroke-linecap="round" stroke-linejoin="round"/>
</g>
<rect x="225.5" y="13.5" width="139" height="27" rx="13.5" fill="white"/>
<rect x="225.5" y="13.5" width="139" height="27" rx="13.5" stroke="#EEEEEE"/>
<path d="M244.035 31V22.2727H247.376C248.007 22.2727 248.531 22.3722 248.949 22.571C249.369 22.767 249.683 23.0355 249.89 23.3764C250.101 23.7173 250.206 24.1037 250.206 24.5355C250.206 24.8906 250.138 25.1946 250.001 25.4474C249.865 25.6974 249.682 25.9006 249.452 26.0568C249.221 26.2131 248.964 26.3253 248.68 26.3935V26.4787C248.99 26.4957 249.287 26.5909 249.571 26.7642C249.858 26.9347 250.092 27.1761 250.274 27.4886C250.456 27.8011 250.547 28.179 250.547 28.6222C250.547 29.0739 250.437 29.4801 250.219 29.8409C250 30.1989 249.67 30.4815 249.23 30.6889C248.79 30.8963 248.236 31 247.568 31H244.035ZM245.616 29.679H247.317C247.89 29.679 248.304 29.5696 248.557 29.3509C248.812 29.1293 248.94 28.8452 248.94 28.4986C248.94 28.2401 248.876 28.0071 248.748 27.7997C248.621 27.5895 248.439 27.4247 248.203 27.3054C247.967 27.1832 247.686 27.1222 247.359 27.1222H245.616V29.679ZM245.616 25.9844H247.18C247.453 25.9844 247.699 25.9347 247.917 25.8352C248.136 25.733 248.308 25.5895 248.433 25.4048C248.561 25.2173 248.625 24.9957 248.625 24.7401C248.625 24.402 248.505 24.1236 248.267 23.9048C248.031 23.6861 247.68 23.5767 247.214 23.5767H245.616V25.9844ZM251.802 31V22.2727H255.075C255.745 22.2727 256.308 22.3892 256.762 22.6222C257.22 22.8551 257.565 23.1818 257.798 23.6023C258.034 24.0199 258.151 24.5071 258.151 25.0639C258.151 25.6236 258.032 26.1094 257.794 26.5213C257.558 26.9304 257.21 27.2472 256.749 27.4716C256.289 27.6932 255.724 27.804 255.053 27.804H252.722V26.4915H254.84C255.232 26.4915 255.553 26.4375 255.803 26.3295C256.053 26.2187 256.238 26.0582 256.357 25.848C256.48 25.6349 256.541 25.3736 256.541 25.0639C256.541 24.7543 256.48 24.4901 256.357 24.2713C256.235 24.0497 256.049 23.8821 255.799 23.7685C255.549 23.652 255.227 23.5938 254.832 23.5938H253.383V31H251.802ZM256.311 27.0455L258.471 31H256.707L254.585 27.0455H256.311ZM260.607 31H258.92L261.992 22.2727H263.944L267.021 31H265.333L263.002 24.0625H262.934L260.607 31ZM260.663 27.5781H265.265V28.848H260.663V27.5781ZM275.222 22.2727V31H273.816L269.704 25.0554H269.631V31H268.05V22.2727H269.465L273.573 28.2216H273.65V22.2727H275.222ZM279.782 31H276.825V22.2727H279.842C280.708 22.2727 281.453 22.4474 282.075 22.7969C282.7 23.1435 283.18 23.642 283.515 24.2926C283.85 24.9432 284.018 25.7216 284.018 26.6278C284.018 27.5369 283.849 28.3182 283.511 28.9716C283.176 29.625 282.691 30.1264 282.058 30.4759C281.427 30.8253 280.669 31 279.782 31ZM278.406 29.6321H279.706C280.313 29.6321 280.821 29.5213 281.227 29.2997C281.633 29.0753 281.938 28.7415 282.143 28.2983C282.348 27.8523 282.45 27.2955 282.45 26.6278C282.45 25.9602 282.348 25.4062 282.143 24.9659C281.938 24.5227 281.636 24.1918 281.235 23.973C280.838 23.7514 280.343 23.6406 279.752 23.6406H278.406V29.6321ZM293 24.6719C292.96 24.2997 292.792 24.0099 292.497 23.8026C292.204 23.5952 291.823 23.4915 291.355 23.4915C291.025 23.4915 290.743 23.5412 290.507 23.6406C290.271 23.7401 290.091 23.875 289.966 24.0455C289.841 24.2159 289.777 24.4105 289.774 24.6293C289.774 24.8111 289.815 24.9687 289.897 25.1023C289.983 25.2358 290.098 25.3494 290.243 25.4432C290.387 25.5341 290.548 25.6108 290.724 25.6733C290.9 25.7358 291.078 25.7884 291.257 25.831L292.075 26.0355C292.404 26.1122 292.721 26.2159 293.025 26.3466C293.332 26.4773 293.606 26.642 293.848 26.8409C294.092 27.0398 294.285 27.2798 294.427 27.5611C294.569 27.8423 294.64 28.1719 294.64 28.5497C294.64 29.0611 294.51 29.5114 294.248 29.9006C293.987 30.2869 293.609 30.5895 293.115 30.8082C292.623 31.0241 292.028 31.1321 291.329 31.1321C290.65 31.1321 290.061 31.027 289.561 30.8168C289.064 30.6065 288.674 30.2997 288.393 29.8963C288.115 29.4929 287.964 29.0014 287.941 28.4219H289.497C289.52 28.7259 289.613 28.9787 289.778 29.1804C289.943 29.3821 290.157 29.5327 290.422 29.6321C290.689 29.7315 290.987 29.7812 291.316 29.7812C291.66 29.7812 291.961 29.7301 292.22 29.6278C292.481 29.5227 292.686 29.3778 292.833 29.1932C292.981 29.0057 293.056 28.7869 293.059 28.5369C293.056 28.3097 292.99 28.1222 292.859 27.9744C292.728 27.8239 292.545 27.6989 292.309 27.5994C292.076 27.4972 291.804 27.4062 291.491 27.3267L290.498 27.071C289.779 26.8864 289.211 26.6065 288.794 26.2315C288.379 25.8537 288.172 25.3523 288.172 24.7273C288.172 24.2131 288.311 23.7628 288.589 23.3764C288.87 22.9901 289.252 22.6903 289.735 22.4773C290.218 22.2614 290.765 22.1534 291.376 22.1534C291.995 22.1534 292.538 22.2614 293.004 22.4773C293.473 22.6903 293.841 22.9872 294.108 23.3679C294.375 23.7457 294.512 24.1804 294.521 24.6719H293ZM295.93 31V22.2727H301.606V23.598H297.511V25.9673H301.312V27.2926H297.511V29.6747H301.64V31H295.93ZM310.569 25.2173H308.975C308.93 24.956 308.846 24.7244 308.724 24.5227C308.602 24.3182 308.45 24.1449 308.268 24.0028C308.086 23.8608 307.879 23.7543 307.646 23.6832C307.416 23.6094 307.167 23.5724 306.9 23.5724C306.425 23.5724 306.005 23.6918 305.639 23.9304C305.272 24.1662 304.985 24.5128 304.778 24.9702C304.57 25.4247 304.467 25.9801 304.467 26.6364C304.467 27.304 304.57 27.8665 304.778 28.3239C304.988 28.7784 305.275 29.1222 305.639 29.3551C306.005 29.5852 306.424 29.7003 306.896 29.7003C307.157 29.7003 307.401 29.6662 307.629 29.598C307.859 29.527 308.065 29.4233 308.246 29.2869C308.431 29.1506 308.586 28.983 308.711 28.7841C308.839 28.5852 308.927 28.358 308.975 28.1023L310.569 28.1108C310.509 28.5256 310.38 28.9148 310.181 29.2784C309.985 29.642 309.728 29.9631 309.41 30.2415C309.092 30.517 308.72 30.733 308.293 30.8892C307.867 31.0426 307.394 31.1193 306.874 31.1193C306.107 31.1193 305.423 30.9418 304.82 30.5866C304.218 30.2315 303.744 29.7188 303.397 29.0483C303.05 28.3778 302.877 27.5739 302.877 26.6364C302.877 25.696 303.052 24.892 303.401 24.2244C303.751 23.554 304.227 23.0412 304.829 22.6861C305.431 22.331 306.113 22.1534 306.874 22.1534C307.36 22.1534 307.812 22.2216 308.229 22.358C308.647 22.4943 309.019 22.6946 309.346 22.9588C309.673 23.2202 309.941 23.5412 310.151 23.9219C310.364 24.2997 310.504 24.7315 310.569 25.2173ZM317.398 22.2727H318.979V27.9744C318.979 28.5994 318.831 29.1491 318.536 29.6236C318.243 30.098 317.831 30.4687 317.3 30.7358C316.769 31 316.148 31.1321 315.438 31.1321C314.725 31.1321 314.103 31 313.571 30.7358C313.04 30.4687 312.628 30.098 312.336 29.6236C312.043 29.1491 311.897 28.5994 311.897 27.9744V22.2727H313.478V27.8423C313.478 28.206 313.557 28.5298 313.716 28.8139C313.878 29.098 314.106 29.321 314.398 29.483C314.691 29.642 315.037 29.7216 315.438 29.7216C315.838 29.7216 316.185 29.642 316.478 29.483C316.773 29.321 317 29.098 317.16 28.8139C317.319 28.5298 317.398 28.206 317.398 27.8423V22.2727ZM320.578 31V22.2727H323.85C324.521 22.2727 325.083 22.3892 325.538 22.6222C325.995 22.8551 326.34 23.1818 326.573 23.6023C326.809 24.0199 326.927 24.5071 326.927 25.0639C326.927 25.6236 326.808 26.1094 326.569 26.5213C326.333 26.9304 325.985 27.2472 325.525 27.4716C325.065 27.6932 324.499 27.804 323.829 27.804H321.498V26.4915H323.616C324.008 26.4915 324.329 26.4375 324.579 26.3295C324.829 26.2187 325.014 26.0582 325.133 25.848C325.255 25.6349 325.316 25.3736 325.316 25.0639C325.316 24.7543 325.255 24.4901 325.133 24.2713C325.011 24.0497 324.825 23.8821 324.575 23.7685C324.325 23.652 324.002 23.5938 323.607 23.5938H322.158V31H320.578ZM325.086 27.0455L327.247 31H325.482L323.36 27.0455H325.086ZM329.843 22.2727V31H328.262V22.2727H329.843ZM331.052 23.598V22.2727H338.015V23.598H335.317V31H333.749V23.598H331.052ZM338.64 22.2727H340.426L342.561 26.1335H342.646L344.781 22.2727H346.567L343.392 27.7443V31H341.815V27.7443L338.64 22.2727Z" fill="#D10975"/>
<g filter="url(#filter0_d_361_74030)">
<path d="M113 251.673C113 245.226 118.226 240 124.673 240H466.327C472.774 240 478 245.226 478 251.673V262.327C478 268.774 472.774 274 466.327 274H124.673C118.226 274 113 268.774 113 262.327V251.673Z" fill="white"/>
<path d="M124.673 240.49H466.327C472.503 240.49 477.51 245.497 477.51 251.673V262.327C477.51 268.503 472.503 273.51 466.327 273.51H124.673C118.497 273.51 113.49 268.503 113.49 262.327V251.673C113.49 245.497 118.497 240.49 124.673 240.49Z" stroke="#181818" stroke-opacity="0.1" stroke-width="0.980156"/>
</g>
<g clip-path="url(#clip0_361_74030)">
<path d="M127.001 257.001L129.001 259.001L133.001 255.001M136.667 257.001C136.667 260.683 133.683 263.667 130.001 263.667C126.319 263.667 123.334 260.683 123.334 257.001C123.334 253.319 126.319 250.334 130.001 250.334C133.683 250.334 136.667 253.319 136.667 257.001Z" stroke="#D72B88" stroke-width="1.25" stroke-linecap="round" stroke-linejoin="round"/>
</g>
<g filter="url(#filter1_d_361_74030)">
<path d="M113 300.673C113 294.226 118.226 289 124.673 289H466.327C472.774 289 478 294.226 478 300.673V311.327C478 317.774 472.774 323 466.327 323H124.673C118.226 323 113 317.774 113 311.327V300.673Z" fill="white"/>
<path d="M124.673 289.49H466.327C472.503 289.49 477.51 294.497 477.51 300.673V311.327C477.51 317.503 472.503 322.51 466.327 322.51H124.673C118.497 322.51 113.49 317.503 113.49 311.327V300.673C113.49 294.497 118.497 289.49 124.673 289.49Z" stroke="#181818" stroke-opacity="0.1" stroke-width="0.980156"/>
</g>
<g filter="url(#filter2_d_361_74030)">
<path d="M113 349.673C113 343.226 118.226 338 124.673 338H466.327C472.774 338 478 343.226 478 349.673V360.327C478 366.774 472.774 372 466.327 372H124.673C118.226 372 113 366.774 113 360.327V349.673Z" fill="white"/>
<path d="M124.673 338.49H466.327C472.503 338.49 477.51 343.497 477.51 349.673V360.327C477.51 366.503 472.503 371.51 466.327 371.51H124.673C118.497 371.51 113.49 366.503 113.49 360.327V349.673C113.49 343.497 118.497 338.49 124.673 338.49Z" stroke="#181818" stroke-opacity="0.1" stroke-width="0.980156"/>
</g>
<g filter="url(#filter3_d_361_74030)">
<rect x="82" y="128" width="425" height="89" rx="11.6734" fill="white"/>
<rect x="82.4901" y="128.49" width="424.02" height="88.0198" rx="11.1833" stroke="#181818" stroke-opacity="0.1" stroke-width="0.980156"/>
</g>
<rect x="105" y="149" width="48" height="48" rx="6.4" fill="url(#paint3_linear_361_74030)"/>
<path d="M119.739 162.516L121.566 158.064H135.605C137.546 158.331 141.427 160.051 141.427 164.799C141.427 169.124 138.334 171.062 136.373 171.633C136.018 171.736 135.648 171.762 135.278 171.762H125.675L127.729 167.082H134.838C135.044 167.082 135.25 167.055 135.437 166.969C136.076 166.675 136.975 165.976 136.975 164.799C136.975 163.622 136.076 162.923 135.437 162.629C135.25 162.543 135.044 162.516 134.838 162.516H119.739Z" fill="white"/>
<path d="M127.294 163.845H122.272L116.564 177.542H126.267L122.043 188.272L137.225 172.977H123.527L127.294 163.845Z" fill="white"/>
<g opacity="0.75">
<rect x="171" y="156.5" width="144" height="14" rx="7" fill="#EEEEEE"/>
<rect x="171" y="177.5" width="52" height="12" rx="6" fill="#EEEEEE"/>
<rect x="226" y="177.5" width="31" height="12" rx="6" fill="#EEEEEE"/>
</g>
<path d="M460.251 172.207L463.417 175.374L470.542 168.249M477.667 172.999C477.667 180.771 469.19 186.423 466.106 188.223C465.755 188.427 465.58 188.529 465.333 188.582C465.141 188.624 464.861 188.624 464.669 188.582C464.421 188.529 464.246 188.427 463.895 188.223C460.811 186.423 452.334 180.771 452.334 172.999V165.427C452.334 164.161 452.334 163.528 452.541 162.984C452.724 162.503 453.021 162.075 453.407 161.735C453.844 161.35 454.436 161.127 455.622 160.683L464.111 157.499C464.44 157.376 464.605 157.314 464.774 157.29C464.924 157.268 465.077 157.268 465.227 157.29C465.396 157.314 465.561 157.376 465.89 157.499L474.38 160.683C475.565 161.127 476.158 161.35 476.594 161.735C476.98 162.075 477.277 162.503 477.46 162.984C477.667 163.528 477.667 164.161 477.667 165.427V172.999Z" stroke="#D10975" stroke-width="2.5" stroke-linecap="round" stroke-linejoin="round"/>
<path opacity="0.25" d="M103 217L103 355" stroke="white" stroke-width="1.5" stroke-dasharray="8 8"/>
<g filter="url(#filter4_d_361_74030)">
<circle cx="102.5" cy="256.5" r="4.5" fill="white"/>
<circle cx="102.5" cy="256.5" r="4.00992" stroke="#181818" stroke-opacity="0.1" stroke-width="0.980156"/>
</g>
<g filter="url(#filter5_d_361_74030)">
<circle cx="102.5" cy="305.5" r="4.5" fill="white"/>
<circle cx="102.5" cy="305.5" r="4.00992" stroke="#181818" stroke-opacity="0.1" stroke-width="0.980156"/>
</g>
<g filter="url(#filter6_d_361_74030)">
<circle cx="102.5" cy="354.5" r="4.5" fill="white"/>
<circle cx="102.5" cy="354.5" r="4.00992" stroke="#181818" stroke-opacity="0.1" stroke-width="0.980156"/>
</g>
<rect x="217" y="251" width="36" height="12" rx="6" fill="#EEEEEE"/>
<rect x="145" y="251" width="66" height="12" rx="6" fill="#EEEEEE"/>
<rect x="259" y="251" width="31" height="12" rx="6" fill="#EEEEEE"/>
<g clip-path="url(#clip1_361_74030)">
<path d="M127.001 306.001L129.001 308.001L133.001 304.001M136.667 306.001C136.667 309.683 133.683 312.667 130.001 312.667C126.319 312.667 123.334 309.683 123.334 306.001C123.334 302.319 126.319 299.334 130.001 299.334C133.683 299.334 136.667 302.319 136.667 306.001Z" stroke="#D72B88" stroke-width="1.25" stroke-linecap="round" stroke-linejoin="round"/>
</g>
<g clip-path="url(#clip2_361_74030)">
<path d="M127.001 355.001L129.001 357.001L133.001 353.001M136.667 355.001C136.667 358.683 133.683 361.667 130.001 361.667C126.319 361.667 123.334 358.683 123.334 355.001C123.334 351.319 126.319 348.334 130.001 348.334C133.683 348.334 136.667 351.319 136.667 355.001Z" stroke="#D72B88" stroke-width="1.25" stroke-linecap="round" stroke-linejoin="round"/>
</g>
<rect width="36" height="12" rx="6" transform="matrix(-1 0 0 1 181 300)" fill="#EEEEEE"/>
<rect width="36" height="12" rx="6" transform="matrix(-1 0 0 1 218 349)" fill="#EEEEEE"/>
<rect width="66" height="12" rx="6" transform="matrix(-1 0 0 1 253 300)" fill="#EEEEEE"/>
<rect width="66" height="12" rx="6" transform="matrix(-1 0 0 1 290 349)" fill="#EEEEEE"/>
<rect x="259" y="300" width="31" height="12" rx="6" fill="#EEEEEE"/>
<rect width="31" height="12" rx="6" transform="matrix(-1 0 0 1 176 349)" fill="#EEEEEE"/>
<g opacity="0.5">
<path d="M463 257C463 254.239 460.761 252 458 252C455.239 252 453 254.239 453 257C453 259.761 455.239 262 458 262C460.761 262 463 259.761 463 257Z" stroke="#A1A1A1" stroke-width="0.75"/>
<path d="M458.121 259.5V257C458.121 256.764 458.121 256.646 458.048 256.573C457.975 256.5 457.857 256.5 457.621 256.5" stroke="#A1A1A1" stroke-width="0.75" stroke-linecap="round" stroke-linejoin="round"/>
<path d="M457.996 255H458.001" stroke="#A1A1A1" stroke-linecap="round" stroke-linejoin="round"/>
</g>
<g opacity="0.5">
<path d="M463 306C463 303.239 460.761 301 458 301C455.239 301 453 303.239 453 306C453 308.761 455.239 311 458 311C460.761 311 463 308.761 463 306Z" stroke="#A1A1A1" stroke-width="0.75"/>
<path d="M458.121 308.5V306C458.121 305.764 458.121 305.646 458.048 305.573C457.975 305.5 457.857 305.5 457.621 305.5" stroke="#A1A1A1" stroke-width="0.75" stroke-linecap="round" stroke-linejoin="round"/>
<path d="M457.996 304H458.001" stroke="#A1A1A1" stroke-linecap="round" stroke-linejoin="round"/>
</g>
<g opacity="0.5">
<path d="M463 355C463 352.239 460.761 350 458 350C455.239 350 453 352.239 453 355C453 357.761 455.239 360 458 360C460.761 360 463 357.761 463 355Z" stroke="#A1A1A1" stroke-width="0.75"/>
<path d="M458.121 357.5V355C458.121 354.764 458.121 354.646 458.048 354.573C457.975 354.5 457.857 354.5 457.621 354.5" stroke="#A1A1A1" stroke-width="0.75" stroke-linecap="round" stroke-linejoin="round"/>
<path d="M457.996 353H458.001" stroke="#A1A1A1" stroke-linecap="round" stroke-linejoin="round"/>
</g>
<rect x="315.5" y="329.5" width="213" height="131" rx="14.5" fill="white" stroke="#EEEEEE"/>
<rect opacity="0.5" x="328" y="343" width="51" height="12" rx="6" fill="#EEEEEE"/>
<rect opacity="0.5" x="385" y="343" width="30" height="12" rx="6" fill="#EEEEEE"/>
<rect opacity="0.5" x="328" y="369" width="30" height="12" rx="6" fill="#EEEEEE"/>
<rect opacity="0.1" x="363" y="369" width="141" height="12" rx="6" fill="#D20D78"/>
<path d="M363 375C363 371.686 365.686 369 369 369H478V381H369C365.686 381 363 378.314 363 375V375Z" fill="#D20D78"/>
<rect opacity="0.1" x="363" y="391" width="141" height="12" rx="6" fill="#D20D78"/>
<path d="M363 397C363 393.686 365.686 391 369 391H492V403H369C365.686 403 363 400.314 363 397V397Z" fill="#D20D78"/>
<rect opacity="0.1" x="363" y="413" width="141" height="12" rx="6" fill="#D20D78"/>
<path d="M363 419C363 415.686 365.686 413 369 413H478V425H369C365.686 425 363 422.314 363 419V419Z" fill="#D20D78"/>
<rect opacity="0.1" x="363" y="435" width="141" height="12" rx="6" fill="#D20D78"/>
<path d="M363 441C363 437.686 365.686 435 369 435H488V447H369C365.686 447 363 444.314 363 441V441Z" fill="#D20D78"/>
<rect opacity="0.5" x="328" y="391" width="30" height="12" rx="6" fill="#EEEEEE"/>
<rect opacity="0.5" x="328" y="413" width="30" height="12" rx="6" fill="#EEEEEE"/>
<rect opacity="0.5" x="328" y="435" width="30" height="12" rx="6" fill="#EEEEEE"/>
<path d="M515 349C515 346.239 512.761 344 510 344C507.239 344 505 346.239 505 349C505 351.761 507.239 354 510 354C512.761 354 515 351.761 515 349Z" stroke="#D20D78" stroke-width="0.75"/>
<path d="M510.121 351.5V349C510.121 348.764 510.121 348.646 510.048 348.573C509.975 348.5 509.857 348.5 509.621 348.5" stroke="#D20D78" stroke-width="0.75" stroke-linecap="round" stroke-linejoin="round"/>
<path d="M509.996 347H510.001" stroke="#D20D78" stroke-linecap="round" stroke-linejoin="round"/>
<defs>
<filter id="filter0_d_361_74030" x="107" y="234" width="377" height="46" filterUnits="userSpaceOnUse" color-interpolation-filters="sRGB">
<feFlood flood-opacity="0" result="BackgroundImageFix"/>
<feColorMatrix in="SourceAlpha" type="matrix" values="0 0 0 0 0 0 0 0 0 0 0 0 0 0 0 0 0 0 127 0" result="hardAlpha"/>
<feMorphology radius="6" operator="dilate" in="SourceAlpha" result="effect1_dropShadow_361_74030"/>
<feOffset/>
<feComposite in2="hardAlpha" operator="out"/>
<feColorMatrix type="matrix" values="0 0 0 0 1 0 0 0 0 1 0 0 0 0 1 0 0 0 0.25 0"/>
<feBlend mode="normal" in2="BackgroundImageFix" result="effect1_dropShadow_361_74030"/>
<feBlend mode="normal" in="SourceGraphic" in2="effect1_dropShadow_361_74030" result="shape"/>
</filter>
<filter id="filter1_d_361_74030" x="107" y="283" width="377" height="46" filterUnits="userSpaceOnUse" color-interpolation-filters="sRGB">
<feFlood flood-opacity="0" result="BackgroundImageFix"/>
<feColorMatrix in="SourceAlpha" type="matrix" values="0 0 0 0 0 0 0 0 0 0 0 0 0 0 0 0 0 0 127 0" result="hardAlpha"/>
<feMorphology radius="6" operator="dilate" in="SourceAlpha" result="effect1_dropShadow_361_74030"/>
<feOffset/>
<feComposite in2="hardAlpha" operator="out"/>
<feColorMatrix type="matrix" values="0 0 0 0 1 0 0 0 0 1 0 0 0 0 1 0 0 0 0.25 0"/>
<feBlend mode="normal" in2="BackgroundImageFix" result="effect1_dropShadow_361_74030"/>
<feBlend mode="normal" in="SourceGraphic" in2="effect1_dropShadow_361_74030" result="shape"/>
</filter>
<filter id="filter2_d_361_74030" x="107" y="332" width="377" height="46" filterUnits="userSpaceOnUse" color-interpolation-filters="sRGB">
<feFlood flood-opacity="0" result="BackgroundImageFix"/>
<feColorMatrix in="SourceAlpha" type="matrix" values="0 0 0 0 0 0 0 0 0 0 0 0 0 0 0 0 0 0 127 0" result="hardAlpha"/>
<feMorphology radius="6" operator="dilate" in="SourceAlpha" result="effect1_dropShadow_361_74030"/>
<feOffset/>
<feComposite in2="hardAlpha" operator="out"/>
<feColorMatrix type="matrix" values="0 0 0 0 1 0 0 0 0 1 0 0 0 0 1 0 0 0 0.25 0"/>
<feBlend mode="normal" in2="BackgroundImageFix" result="effect1_dropShadow_361_74030"/>
<feBlend mode="normal" in="SourceGraphic" in2="effect1_dropShadow_361_74030" result="shape"/>
</filter>
<filter id="filter3_d_361_74030" x="76" y="122" width="437" height="101" filterUnits="userSpaceOnUse" color-interpolation-filters="sRGB">
<feFlood flood-opacity="0" result="BackgroundImageFix"/>
<feColorMatrix in="SourceAlpha" type="matrix" values="0 0 0 0 0 0 0 0 0 0 0 0 0 0 0 0 0 0 127 0" result="hardAlpha"/>
<feMorphology radius="6" operator="dilate" in="SourceAlpha" result="effect1_dropShadow_361_74030"/>
<feOffset/>
<feComposite in2="hardAlpha" operator="out"/>
<feColorMatrix type="matrix" values="0 0 0 0 1 0 0 0 0 1 0 0 0 0 1 0 0 0 0.25 0"/>
<feBlend mode="normal" in2="BackgroundImageFix" result="effect1_dropShadow_361_74030"/>
<feBlend mode="normal" in="SourceGraphic" in2="effect1_dropShadow_361_74030" result="shape"/>
</filter>
<filter id="filter4_d_361_74030" x="98" y="252" width="9" height="9" filterUnits="userSpaceOnUse" color-interpolation-filters="sRGB">
<feFlood flood-opacity="0" result="BackgroundImageFix"/>
<feColorMatrix in="SourceAlpha" type="matrix" values="0 0 0 0 0 0 0 0 0 0 0 0 0 0 0 0 0 0 127 0" result="hardAlpha"/>
<feOffset/>
<feComposite in2="hardAlpha" operator="out"/>
<feColorMatrix type="matrix" values="0 0 0 0 1 0 0 0 0 1 0 0 0 0 1 0 0 0 0.25 0"/>
<feBlend mode="normal" in2="BackgroundImageFix" result="effect1_dropShadow_361_74030"/>
<feBlend mode="normal" in="SourceGraphic" in2="effect1_dropShadow_361_74030" result="shape"/>
</filter>
<filter id="filter5_d_361_74030" x="98" y="301" width="9" height="9" filterUnits="userSpaceOnUse" color-interpolation-filters="sRGB">
<feFlood flood-opacity="0" result="BackgroundImageFix"/>
<feColorMatrix in="SourceAlpha" type="matrix" values="0 0 0 0 0 0 0 0 0 0 0 0 0 0 0 0 0 0 127 0" result="hardAlpha"/>
<feOffset/>
<feComposite in2="hardAlpha" operator="out"/>
<feColorMatrix type="matrix" values="0 0 0 0 1 0 0 0 0 1 0 0 0 0 1 0 0 0 0.25 0"/>
<feBlend mode="normal" in2="BackgroundImageFix" result="effect1_dropShadow_361_74030"/>
<feBlend mode="normal" in="SourceGraphic" in2="effect1_dropShadow_361_74030" result="shape"/>
</filter>
<filter id="filter6_d_361_74030" x="98" y="350" width="9" height="9" filterUnits="userSpaceOnUse" color-interpolation-filters="sRGB">
<feFlood flood-opacity="0" result="BackgroundImageFix"/>
<feColorMatrix in="SourceAlpha" type="matrix" values="0 0 0 0 0 0 0 0 0 0 0 0 0 0 0 0 0 0 127 0" result="hardAlpha"/>
<feOffset/>
<feComposite in2="hardAlpha" operator="out"/>
<feColorMatrix type="matrix" values="0 0 0 0 1 0 0 0 0 1 0 0 0 0 1 0 0 0 0.25 0"/>
<feBlend mode="normal" in2="BackgroundImageFix" result="effect1_dropShadow_361_74030"/>
<feBlend mode="normal" in="SourceGraphic" in2="effect1_dropShadow_361_74030" result="shape"/>
</filter>
<linearGradient id="paint0_linear_361_74030" x1="295" y1="-64" x2="295" y2="569" gradientUnits="userSpaceOnUse">
<stop stop-color="white" stop-opacity="0"/>
<stop offset="1" stop-color="white"/>
</linearGradient>
<linearGradient id="paint1_linear_361_74030" x1="295" y1="3" x2="295" y2="502" gradientUnits="userSpaceOnUse">
<stop stop-color="white" stop-opacity="0"/>
<stop offset="1" stop-color="white"/>
</linearGradient>
<linearGradient id="paint2_linear_361_74030" x1="295.001" y1="57.1387" x2="295.001" y2="448.055" gradientUnits="userSpaceOnUse">
<stop stop-color="white" stop-opacity="0"/>
<stop offset="1" stop-color="white"/>
</linearGradient>
<linearGradient id="paint3_linear_361_74030" x1="129" y1="149" x2="129" y2="197" gradientUnits="userSpaceOnUse">
<stop stop-color="#D20D77"/>
<stop offset="1" stop-color="#B30462"/>
</linearGradient>
<clipPath id="clip0_361_74030">
<rect width="16" height="16" fill="white" transform="translate(122 249)"/>
</clipPath>
<clipPath id="clip1_361_74030">
<rect width="16" height="16" fill="white" transform="translate(122 298)"/>
</clipPath>
<clipPath id="clip2_361_74030">
<rect width="16" height="16" fill="white" transform="translate(122 347)"/>
</clipPath>
</defs>
</svg>
