<svg width="649" height="150" viewBox="0 0 649 150" fill="none" xmlns="http://www.w3.org/2000/svg">
<rect width="649" height="150" fill="#FAFAFA"/>
<rect width="649" height="150" fill="#FAFAFA"/>
<mask id="mask0_373_2747" style="mask-type:alpha" maskUnits="userSpaceOnUse" x="0" y="0" width="649" height="150">
<rect opacity="0.1" x="0.5" y="0.5" width="648" height="149" rx="9.5" fill="#FAFAFA" stroke="#EEEEEE"/>
</mask>
<g mask="url(#mask0_373_2747)">
<path d="M66.702 108.078L54.724 102.566C54.724 100.375 55.2893 98.114 56.42 95.782C57.5507 93.3793 59.1407 90.9767 61.19 88.574C63.31 86.1713 65.7833 83.91 68.61 81.79L81.542 72.462C83.1673 71.3313 84.6513 70.024 85.994 68.54C87.4073 67.056 88.538 65.5013 89.386 63.876C90.234 62.18 90.658 60.5193 90.658 58.894C90.658 56.8447 90.128 54.972 89.068 53.276C88.0787 51.58 86.63 50.2373 84.722 49.248C82.8847 48.2587 80.6233 47.764 77.938 47.764C75.5353 47.764 73.38 48.2587 71.472 49.248C69.6347 50.1667 68.1153 51.4033 66.914 52.958C65.7127 54.5127 64.8647 56.2087 64.37 58.046L51.756 55.714C52.4627 52.322 53.9467 49.1773 56.208 46.28C58.54 43.312 61.508 40.9447 65.112 39.178C68.7867 37.4113 72.956 36.528 77.62 36.528C82.8493 36.528 87.372 37.482 91.188 39.39C95.0747 41.298 98.0427 43.948 100.092 47.34C102.212 50.6613 103.272 54.4773 103.272 58.788C103.272 63.1693 102.071 67.1267 99.668 70.66C97.336 74.1227 94.05 77.444 89.81 80.624L77.938 89.422C75.9593 90.8353 74.0867 92.4607 72.32 94.298C70.624 96.0647 69.246 98.0787 68.186 100.34C67.1967 102.601 66.702 105.181 66.702 108.078ZM54.724 112V102.566L63.84 101.082H104.226V112H54.724ZM138.389 113.272C135.138 113.272 131.817 112.777 128.425 111.788C125.103 110.728 122.029 109.173 119.203 107.124C116.376 105.004 114.221 102.354 112.737 99.174L123.655 95.146C125.492 97.7607 127.647 99.6687 130.121 100.87C132.594 102.001 135.138 102.566 137.753 102.566C141.922 102.566 145.314 101.329 147.929 98.856C150.543 96.312 151.851 92.9553 151.851 88.786C151.851 84.758 150.579 81.4367 148.035 78.822C145.491 76.2073 142.169 74.9 138.071 74.9C135.668 74.9 133.407 75.43 131.287 76.49C129.237 77.55 127.647 78.822 126.517 80.306L115.387 77.868L119.521 37.8H160.543V48.93H121.005L119.521 38.224H131.711L126.623 78.822L119.097 77.868C119.945 76.4547 121.04 75.0413 122.383 73.628C123.796 72.144 125.492 70.766 127.471 69.494C129.449 68.222 131.64 67.1973 134.043 66.42C136.445 65.6427 139.06 65.2893 141.887 65.36C146.127 65.36 149.943 66.3493 153.335 68.328C156.727 70.3067 159.412 73.0273 161.391 76.49C163.369 79.882 164.359 83.804 164.359 88.256C164.359 93.2027 163.228 97.5487 160.967 101.294C158.776 105.039 155.737 107.972 151.851 110.092C147.964 112.212 143.477 113.272 138.389 113.272ZM176.456 112L229.138 37.8H241.434L188.434 112H176.456ZM230.092 113.696C226.771 113.696 223.838 112.919 221.294 111.364C218.75 109.809 216.736 107.654 215.252 104.898C213.839 102.142 213.132 99.0327 213.132 95.57C213.132 92.0367 213.839 88.9273 215.252 86.242C216.665 83.5567 218.644 81.4367 221.188 79.882C223.803 78.3273 226.771 77.55 230.092 77.55C233.413 77.55 236.346 78.3273 238.89 79.882C241.434 81.4367 243.413 83.5567 244.826 86.242C246.31 88.9273 247.052 92.0367 247.052 95.57C247.052 99.0327 246.31 102.142 244.826 104.898C243.413 107.654 241.434 109.809 238.89 111.364C236.346 112.919 233.413 113.696 230.092 113.696ZM230.092 105.322C232.424 105.322 234.332 104.403 235.816 102.566C237.3 100.729 238.042 98.3967 238.042 95.57C238.042 92.814 237.3 90.5173 235.816 88.68C234.332 86.772 232.424 85.818 230.092 85.818C227.76 85.818 225.817 86.772 224.262 88.68C222.778 90.5173 222.036 92.814 222.036 95.57C222.036 98.3967 222.778 100.729 224.262 102.566C225.817 104.403 227.76 105.322 230.092 105.322ZM188.116 72.25C184.865 72.25 181.933 71.4727 179.318 69.918C176.774 68.3633 174.795 66.208 173.382 63.452C171.969 60.696 171.262 57.5867 171.262 54.124C171.262 50.5907 171.969 47.4813 173.382 44.796C174.795 42.1107 176.774 39.9907 179.318 38.436C181.933 36.8813 184.901 36.104 188.222 36.104C191.543 36.104 194.476 36.8813 197.02 38.436C199.564 39.9907 201.543 42.1107 202.956 44.796C204.369 47.4813 205.076 50.5907 205.076 54.124C205.076 57.5867 204.369 60.696 202.956 63.452C201.543 66.208 199.529 68.3633 196.914 69.918C194.37 71.4727 191.437 72.25 188.116 72.25ZM188.116 63.876C190.519 63.876 192.462 62.9573 193.946 61.12C195.43 59.2827 196.172 56.9507 196.172 54.124C196.172 51.368 195.43 49.0713 193.946 47.234C192.462 45.3967 190.519 44.478 188.116 44.478C185.784 44.478 183.876 45.3967 182.392 47.234C180.908 49.0713 180.166 51.368 180.166 54.124C180.166 56.9507 180.908 59.2827 182.392 61.12C183.876 62.9573 185.784 63.876 188.116 63.876ZM304.289 113.272C298.847 113.272 294.042 112.106 289.873 109.774C285.703 107.371 282.417 104.085 280.015 99.916C277.683 95.7467 276.517 90.9413 276.517 85.5C276.517 80.0587 277.683 75.2533 280.015 71.084C282.417 66.9147 285.668 63.664 289.767 61.332C293.936 58.9293 298.706 57.728 304.077 57.728C309.306 57.728 314.041 59 318.281 61.544C322.521 64.0173 325.665 67.586 327.715 72.25L316.691 76.49C315.56 74.158 313.829 72.2853 311.497 70.872C309.165 69.4587 306.515 68.752 303.547 68.752C300.649 68.752 298.07 69.494 295.809 70.978C293.547 72.3913 291.781 74.37 290.509 76.914C289.237 79.3873 288.601 82.2493 288.601 85.5C288.601 88.7507 289.237 91.648 290.509 94.192C291.851 96.6653 293.653 98.644 295.915 100.128C298.247 101.541 300.861 102.248 303.759 102.248C306.727 102.248 309.377 101.506 311.709 100.022C314.041 98.4673 315.772 96.3827 316.903 93.768L327.927 98.008C325.877 102.813 322.733 106.559 318.493 109.244C314.323 111.929 309.589 113.272 304.289 113.272ZM359.403 113.272C354.103 113.272 349.368 112.106 345.199 109.774C341.1 107.371 337.885 104.085 335.553 99.916C333.221 95.7467 332.055 90.9413 332.055 85.5C332.055 80.0587 333.185 75.2533 335.447 71.084C337.779 66.9147 340.994 63.664 345.093 61.332C349.191 58.9293 353.891 57.728 359.191 57.728C364.491 57.728 369.19 58.9293 373.289 61.332C377.387 63.664 380.567 66.9147 382.829 71.084C385.161 75.2533 386.327 80.0587 386.327 85.5C386.327 90.9413 385.196 95.7467 382.935 99.916C380.673 104.085 377.493 107.371 373.395 109.774C369.296 112.106 364.632 113.272 359.403 113.272ZM359.403 102.354C362.3 102.354 364.879 101.647 367.141 100.234C369.402 98.75 371.169 96.7713 372.441 94.298C373.713 91.754 374.349 88.8213 374.349 85.5C374.349 82.1787 373.677 79.2813 372.335 76.808C371.063 74.264 369.296 72.2853 367.035 70.872C364.773 69.388 362.159 68.646 359.191 68.646C356.223 68.646 353.608 69.3527 351.347 70.766C349.085 72.1793 347.319 74.158 346.047 76.702C344.775 79.246 344.139 82.1787 344.139 85.5C344.139 88.8213 344.775 91.754 346.047 94.298C347.389 96.7713 349.191 98.75 351.453 100.234C353.785 101.647 356.435 102.354 359.403 102.354ZM394.495 112V59H405.625L406.367 68.752V112H394.495ZM430.429 112V84.864L442.301 81.684V112H430.429ZM430.429 84.864C430.429 80.624 429.934 77.3733 428.945 75.112C428.026 72.78 426.683 71.1547 424.917 70.236C423.221 69.3173 421.207 68.858 418.875 68.858C414.917 68.7873 411.843 70.0947 409.653 72.78C407.462 75.4653 406.367 79.3167 406.367 84.334H401.915C401.915 78.7513 402.727 73.9813 404.353 70.024C405.978 65.996 408.31 62.9573 411.349 60.908C414.387 58.788 417.991 57.728 422.161 57.728C428.591 57.728 433.538 59.7067 437.001 63.664C440.534 67.5507 442.301 73.5573 442.301 81.684L430.429 84.864ZM471.499 113.272C467.965 113.272 464.715 112.742 461.747 111.682C458.779 110.622 456.235 109.138 454.115 107.23C451.995 105.251 450.369 102.955 449.239 100.34L459.521 95.782C460.581 97.7607 462.135 99.4213 464.185 100.764C466.305 102.107 468.637 102.778 471.181 102.778C473.937 102.778 476.127 102.319 477.753 101.4C479.449 100.411 480.297 99.068 480.297 97.372C480.297 95.7467 479.661 94.51 478.389 93.662C477.117 92.7433 475.315 92.0013 472.983 91.436L468.001 90.058C462.983 88.786 459.061 86.772 456.235 84.016C453.408 81.1893 451.995 77.974 451.995 74.37C451.995 69.07 453.691 64.9713 457.083 62.074C460.545 59.1767 465.492 57.728 471.923 57.728C475.173 57.728 478.141 58.2227 480.827 59.212C483.583 60.1307 485.95 61.4733 487.929 63.24C489.907 64.936 491.285 66.95 492.063 69.282L482.205 73.734C481.498 71.9673 480.155 70.6247 478.177 69.706C476.198 68.7167 474.007 68.222 471.605 68.222C469.202 68.222 467.329 68.752 465.987 69.812C464.644 70.8013 463.973 72.2147 463.973 74.052C463.973 75.112 464.573 76.1013 465.775 77.02C466.976 77.868 468.707 78.5747 470.969 79.14L477.223 80.624C480.685 81.472 483.512 82.8147 485.703 84.652C487.893 86.4187 489.519 88.4327 490.579 90.694C491.639 92.8847 492.169 95.1107 492.169 97.372C492.169 100.552 491.25 103.343 489.413 105.746C487.646 108.149 485.208 110.021 482.099 111.364C478.989 112.636 475.456 113.272 471.499 113.272ZM534.974 112L534.338 102.248V59H546.104V112H534.974ZM498.298 89.316V59H510.17V86.136L498.298 89.316ZM510.17 86.136C510.17 90.3053 510.664 93.556 511.654 95.888C512.643 98.22 513.986 99.8453 515.682 100.764C517.448 101.683 519.462 102.142 521.724 102.142C525.752 102.213 528.861 100.905 531.052 98.22C533.242 95.5347 534.338 91.6833 534.338 86.666H538.79C538.79 92.2487 537.942 97.054 536.246 101.082C534.62 105.039 532.288 108.078 529.25 110.198C526.282 112.247 522.713 113.272 518.544 113.272C512.113 113.272 507.131 111.293 503.598 107.336C500.064 103.379 498.298 97.372 498.298 89.316L510.17 86.136ZM557.176 112V59H568.306L569.048 68.752V112H557.176ZM593.11 112V84.864L604.982 81.684V112H593.11ZM629.15 112V84.864L640.916 81.684V112H629.15ZM593.11 84.864C593.11 80.624 592.615 77.3733 591.626 75.112C590.707 72.78 589.364 71.1547 587.598 70.236C585.902 69.3173 583.888 68.858 581.556 68.858C577.598 68.7873 574.524 70.0947 572.334 72.78C570.143 75.4653 569.048 79.3167 569.048 84.334H564.596C564.596 78.7513 565.408 73.9813 567.034 70.024C568.659 65.996 570.991 62.9573 574.03 60.908C577.068 58.788 580.672 57.728 584.842 57.728C591.272 57.728 596.219 59.7067 599.682 63.664C603.215 67.5507 604.982 73.5573 604.982 81.684L593.11 84.864ZM629.15 84.864C629.15 80.624 628.655 77.3733 627.666 75.112C626.676 72.78 625.298 71.1547 623.532 70.236C621.836 69.3173 619.857 68.858 617.596 68.858C613.568 68.7873 610.458 70.0947 608.268 72.78C606.077 75.4653 604.982 79.3167 604.982 84.334H600.53C600.53 78.7513 601.342 73.9813 602.968 70.024C604.593 65.996 606.925 62.9573 609.964 60.908C613.002 58.788 616.606 57.728 620.776 57.728C627.206 57.728 632.188 59.7067 635.722 63.664C639.255 67.5507 640.986 73.5573 640.916 81.684L629.15 84.864ZM674.549 113.272C669.39 113.272 664.797 112.106 660.769 109.774C656.812 107.371 653.667 104.085 651.335 99.916C649.074 95.7467 647.943 90.9413 647.943 85.5C647.943 80.0587 649.109 75.2533 651.441 71.084C653.773 66.9147 656.953 63.664 660.981 61.332C665.08 58.9293 669.744 57.728 674.973 57.728C679.708 57.728 683.948 58.9647 687.693 61.438C691.509 63.8407 694.548 67.3387 696.809 71.932C699.07 76.5253 700.201 82.002 700.201 88.362H688.223C688.223 83.7687 687.658 79.988 686.527 77.02C685.467 74.052 683.912 71.8613 681.863 70.448C679.884 68.964 677.446 68.222 674.549 68.222C671.51 68.222 668.896 68.8933 666.705 70.236C664.514 71.5787 662.854 73.5573 661.723 76.172C660.592 78.716 660.027 81.9313 660.027 85.818C660.027 89.2807 660.698 92.2487 662.041 94.722C663.454 97.1953 665.327 99.1033 667.659 100.446C670.062 101.718 672.712 102.354 675.609 102.354C678.789 102.354 681.404 101.647 683.453 100.234C685.502 98.75 687.092 96.8773 688.223 94.616L699.141 99.28C697.657 102.107 695.749 104.58 693.417 106.7C691.156 108.82 688.435 110.445 685.255 111.576C682.146 112.707 678.577 113.272 674.549 113.272ZM655.787 88.362V78.928H693.947V88.362H655.787ZM745.44 112L744.91 102.142V37.8H756.676V112H745.44ZM728.162 113.272C723.357 113.272 719.152 112.141 715.548 109.88C712.015 107.548 709.223 104.297 707.174 100.128C705.195 95.9587 704.206 91.0827 704.206 85.5C704.206 79.8467 705.195 74.9707 707.174 70.872C709.223 66.7027 712.015 63.4873 715.548 61.226C719.152 58.894 723.357 57.728 728.162 57.728C732.614 57.728 736.43 58.894 739.61 61.226C742.861 63.4873 745.334 66.7027 747.03 70.872C748.726 74.9707 749.574 79.8467 749.574 85.5C749.574 91.0827 748.726 95.9587 747.03 100.128C745.334 104.297 742.861 107.548 739.61 109.88C736.43 112.141 732.614 113.272 728.162 113.272ZM731.13 102.46C733.815 102.46 736.183 101.753 738.232 100.34C740.352 98.856 741.977 96.842 743.108 94.298C744.309 91.754 744.91 88.8213 744.91 85.5C744.91 82.1787 744.309 79.246 743.108 76.702C741.977 74.158 740.352 72.1793 738.232 70.766C736.183 69.3527 733.78 68.646 731.024 68.646C728.197 68.646 725.689 69.3527 723.498 70.766C721.307 72.1793 719.576 74.158 718.304 76.702C717.103 79.246 716.467 82.1787 716.396 85.5C716.467 88.8213 717.103 91.754 718.304 94.298C719.576 96.842 721.307 98.856 723.498 100.34C725.759 101.753 728.303 102.46 731.13 102.46Z" fill="black"/>
</g>
</svg>
