<svg width="393" height="284" viewBox="0 0 393 284" fill="none" xmlns="http://www.w3.org/2000/svg">
<mask id="mask0_12_6897" style="mask-type:alpha" maskUnits="userSpaceOnUse" x="0" y="28" width="393" height="256">
<rect y="28" width="393" height="256" fill="#D9D9D9"/>
</mask>
<g mask="url(#mask0_12_6897)">
<rect x="13" y="42" width="365" height="80" rx="15" fill="#D10975"/>
<rect x="13" y="42" width="365" height="80" rx="15" fill="url(#paint0_linear_12_6897)" fill-opacity="0.2"/>
<rect x="13.5" y="42.5" width="364" height="79" rx="14.5" stroke="black" stroke-opacity="0.25"/>
<path d="M39.0001 86H52.1359C53.1487 86 53.6551 86 54.0582 85.8112C54.4134 85.6448 54.7118 85.3777 54.9163 85.0432C55.1485 84.6633 55.2044 84.16 55.3163 83.1534L55.9013 77.8884C55.9355 77.5809 55.9525 77.4271 55.9031 77.3082C55.8597 77.2037 55.7821 77.117 55.683 77.0623C55.5702 77 55.4155 77 55.1062 77H38.5001M36 74H37.2484C37.5131 74 37.6454 74 37.7489 74.0503C37.84 74.0946 37.9155 74.1656 37.9654 74.2538C38.0221 74.3539 38.0304 74.486 38.0469 74.7501L38.9531 89.2499C38.9696 89.514 38.9779 89.6461 39.0346 89.7462C39.0845 89.8344 39.16 89.9054 39.2511 89.9497C39.3546 90 39.4869 90 39.7516 90H53M41.5 93.5H41.51M50.5 93.5H50.51M42 93.5C42 93.7761 41.7761 94 41.5 94C41.2239 94 41 93.7761 41 93.5C41 93.2239 41.2239 93 41.5 93C41.7761 93 42 93.2239 42 93.5ZM51 93.5C51 93.7761 50.7761 94 50.5 94C50.2239 94 50 93.7761 50 93.5C50 93.2239 50.2239 93 50.5 93C50.7761 93 51 93.2239 51 93.5Z" stroke="white" stroke-width="2" stroke-linecap="round" stroke-linejoin="round"/>
<rect x="13.5" y="129.5" width="364" height="79" rx="14.5" fill="white" stroke="#EEEEEE"/>
<rect x="13.5" y="216.5" width="364" height="79" rx="14.5" fill="white" stroke="#EEEEEE"/>
<g opacity="0.5">
<rect opacity="0.75" x="69" y="78" width="195" height="12" rx="2" fill="white"/>
<rect opacity="0.75" x="69" y="95" width="62" height="9" rx="2" fill="white"/>
<rect opacity="0.75" x="69" y="60" width="84" height="9" rx="2" fill="white"/>
<rect opacity="0.75" x="135" y="95" width="26" height="9" rx="2" fill="white"/>
<rect opacity="0.75" x="165" y="95" width="38" height="9" rx="2" fill="white"/>
</g>
<rect opacity="0.75" x="69" y="165" width="195" height="12" rx="2" fill="#EEEEEE"/>
<rect opacity="0.75" x="69" y="182" width="62" height="9" rx="2" fill="#EEEEEE"/>
<rect opacity="0.75" x="69" y="147" width="84" height="9" rx="2" fill="#EEEEEE"/>
<rect opacity="0.75" x="135" y="182" width="26" height="9" rx="2" fill="#EEEEEE"/>
<rect opacity="0.75" x="165" y="182" width="38" height="9" rx="2" fill="#EEEEEE"/>
<rect opacity="0.75" x="69" y="252" width="195" height="12" rx="2" fill="#EEEEEE"/>
<rect opacity="0.75" x="69" y="269" width="62" height="9" rx="2" fill="#EEEEEE"/>
<rect opacity="0.75" x="69" y="234" width="84" height="9" rx="2" fill="#EEEEEE"/>
<rect opacity="0.75" x="135" y="269" width="26" height="9" rx="2" fill="#EEEEEE"/>
<rect opacity="0.75" x="165" y="269" width="38" height="9" rx="2" fill="#EEEEEE"/>
<rect opacity="0.25" x="322" y="61" width="42" height="42" rx="12.6" fill="white"/>
<path d="M340 82L342 84L346.5 79.5M338.334 73.8187C339.138 73.7545 339.901 73.4385 340.514 72.9154C341.947 71.6949 344.053 71.6949 345.486 72.9154C346.099 73.4385 346.862 73.7545 347.666 73.8187C349.542 73.9684 351.032 75.4579 351.181 77.3338C351.245 78.1376 351.562 78.9007 352.085 79.5145C353.305 80.9467 353.305 83.0533 352.085 84.4855C351.562 85.0993 351.245 85.8624 351.181 86.6662C351.032 88.5421 349.542 90.0316 347.666 90.1813C346.862 90.2455 346.099 90.5615 345.486 91.0846C344.053 92.3051 341.947 92.3051 340.514 91.0846C339.901 90.5615 339.138 90.2455 338.334 90.1813C336.458 90.0316 334.968 88.5421 334.819 86.6662C334.755 85.8624 334.438 85.0993 333.915 84.4855C332.695 83.0533 332.695 80.9467 333.915 79.5145C334.438 78.9007 334.755 78.1376 334.819 77.3338C334.968 75.4579 336.458 73.9684 338.334 73.8187Z" stroke="white" stroke-width="2" stroke-linecap="round" stroke-linejoin="round"/>
<rect opacity="0.1" x="322" y="148" width="42" height="42" rx="12.6" fill="#FFC125"/>
<path d="M343.5 166.875V170.375M343.5 173.875H343.509M342.288 162.405L335.092 174.836C334.692 175.526 334.493 175.87 334.522 176.153C334.548 176.4 334.677 176.624 334.878 176.77C335.108 176.938 335.507 176.938 336.303 176.938H350.697C351.494 176.938 351.892 176.938 352.122 176.77C352.323 176.624 352.452 176.4 352.478 176.153C352.507 175.87 352.308 175.526 351.908 174.836L344.712 162.405C344.314 161.718 344.115 161.375 343.856 161.26C343.629 161.159 343.371 161.159 343.145 161.26C342.885 161.375 342.686 161.718 342.288 162.405Z" stroke="#FFC125" stroke-width="1.75" stroke-linecap="round" stroke-linejoin="round"/>
<rect opacity="0.75" x="322" y="235" width="42" height="42" rx="12.6" fill="#E31D1C" fill-opacity="0.25"/>
<path d="M346 253L340 259M340 253L346 259M353 256C353 261.523 348.523 266 343 266C337.477 266 333 261.523 333 256C333 250.477 337.477 246 343 246C348.523 246 353 250.477 353 256Z" stroke="#E31D1C" stroke-width="2" stroke-linecap="round" stroke-linejoin="round"/>
<path d="M39.0001 171H52.1359C53.1487 171 53.6551 171 54.0582 170.811C54.4134 170.645 54.7118 170.378 54.9163 170.043C55.1485 169.663 55.2044 169.16 55.3163 168.153L55.9013 162.888C55.9355 162.581 55.9525 162.427 55.9031 162.308C55.8597 162.204 55.7821 162.117 55.683 162.062C55.5702 162 55.4155 162 55.1062 162H38.5001M36 159H37.2484C37.5131 159 37.6454 159 37.7489 159.05C37.84 159.095 37.9155 159.166 37.9654 159.254C38.0221 159.354 38.0304 159.486 38.0469 159.75L38.9531 174.25C38.9696 174.514 38.9779 174.646 39.0346 174.746C39.0845 174.834 39.16 174.905 39.2511 174.95C39.3546 175 39.4869 175 39.7516 175H53M41.5 178.5H41.51M50.5 178.5H50.51M42 178.5C42 178.776 41.7761 179 41.5 179C41.2239 179 41 178.776 41 178.5C41 178.224 41.2239 178 41.5 178C41.7761 178 42 178.224 42 178.5ZM51 178.5C51 178.776 50.7761 179 50.5 179C50.2239 179 50 178.776 50 178.5C50 178.224 50.2239 178 50.5 178C50.7761 178 51 178.224 51 178.5Z" stroke="#DADADA" stroke-width="2" stroke-linecap="round" stroke-linejoin="round"/>
<path d="M39.0001 256H52.1359C53.1487 256 53.6551 256 54.0582 255.811C54.4134 255.645 54.7118 255.378 54.9163 255.043C55.1485 254.663 55.2044 254.16 55.3163 253.153L55.9013 247.888C55.9355 247.581 55.9525 247.427 55.9031 247.308C55.8597 247.204 55.7821 247.117 55.683 247.062C55.5702 247 55.4155 247 55.1062 247H38.5001M36 244H37.2484C37.5131 244 37.6454 244 37.7489 244.05C37.84 244.095 37.9155 244.166 37.9654 244.254C38.0221 244.354 38.0304 244.486 38.0469 244.75L38.9531 259.25C38.9696 259.514 38.9779 259.646 39.0346 259.746C39.0845 259.834 39.16 259.905 39.2511 259.95C39.3546 260 39.4869 260 39.7516 260H53M41.5 263.5H41.51M50.5 263.5H50.51M42 263.5C42 263.776 41.7761 264 41.5 264C41.2239 264 41 263.776 41 263.5C41 263.224 41.2239 263 41.5 263C41.7761 263 42 263.224 42 263.5ZM51 263.5C51 263.776 50.7761 264 50.5 264C50.2239 264 50 263.776 50 263.5C50 263.224 50.2239 263 50.5 263C50.7761 263 51 263.224 51 263.5Z" stroke="#DADADA" stroke-width="2" stroke-linecap="round" stroke-linejoin="round"/>
</g>
<rect width="46" height="46" rx="18.6486" transform="matrix(-1 5.18986e-09 5.18986e-09 1 219 2)" fill="#D10975"/>
<rect width="46" height="46" rx="18.6486" transform="matrix(-1 5.18986e-09 5.18986e-09 1 219 2)" fill="url(#paint1_linear_12_6897)" fill-opacity="0.2"/>
<rect width="46" height="46" rx="18.6486" transform="matrix(-1 5.18986e-09 5.18986e-09 1 219 2)" stroke="#FAFAFA" stroke-width="3.72973"/>
<path d="M193.213 27.4999C193.525 28.0944 194.149 28.4999 194.867 28.4999H197C198.105 28.4999 199 27.6045 199 26.4999C199 25.3953 198.105 24.4999 197 24.4999H195C193.895 24.4999 193 23.6045 193 22.4999C193 21.3953 193.895 20.4999 195 20.4999H197.133C197.851 20.4999 198.475 20.9054 198.787 21.4999M196 18.9999V20.4999M196 28.4999V29.9999M204 24.9999C204 29.9084 198.646 33.4783 196.698 34.6148C196.477 34.744 196.366 34.8085 196.21 34.842C196.088 34.868 195.912 34.868 195.79 34.842C195.634 34.8085 195.523 34.744 195.302 34.6148C193.354 33.4783 188 29.9084 188 24.9999V20.2175C188 19.418 188 19.0182 188.131 18.6746C188.246 18.371 188.434 18.1001 188.678 17.8854C188.954 17.6423 189.328 17.5019 190.076 17.2212L195.438 15.2105C195.646 15.1326 195.75 15.0936 195.857 15.0781C195.952 15.0644 196.048 15.0644 196.143 15.0781C196.25 15.0936 196.354 15.1326 196.562 15.2105L201.924 17.2212C202.672 17.5019 203.046 17.6423 203.322 17.8854C203.566 18.1001 203.754 18.371 203.869 18.6746C204 19.0182 204 19.418 204 20.2175V24.9999Z" stroke="white" stroke-width="1.5" stroke-linecap="round" stroke-linejoin="round"/>
<defs>
<linearGradient id="paint0_linear_12_6897" x1="195.5" y1="42" x2="195.5" y2="122" gradientUnits="userSpaceOnUse">
<stop stop-color="white" stop-opacity="0"/>
<stop offset="1" stop-color="white"/>
</linearGradient>
<linearGradient id="paint1_linear_12_6897" x1="23" y1="0" x2="23" y2="46" gradientUnits="userSpaceOnUse">
<stop stop-color="white" stop-opacity="0"/>
<stop offset="1" stop-color="white"/>
</linearGradient>
</defs>
</svg>
