<svg width="345" height="282" viewBox="0 0 345 282" fill="none" xmlns="http://www.w3.org/2000/svg">
<g clip-path="url(#clip0_12_6901)">
<path opacity="0.75" d="M14.9854 77.6826L296.101 52.9136C304.377 52.1844 311.564 58.5453 311.846 66.8492L319.246 284.673L18.4125 284.673L1.79626 93.4008C1.10319 85.4227 7.00816 78.3854 14.9854 77.6826Z" fill="white" stroke="#EEEEEE"/>
<path opacity="0.75" d="M47.3539 52.8871L329.773 77.7709C337.75 78.4738 343.655 85.5111 342.962 93.4892L326.346 284.762L33.4985 284.762L31.6011 67.4418C31.5264 58.8873 38.8331 52.1363 47.3539 52.8871Z" fill="white" stroke="#EEEEEE"/>
<path d="M41.3809 31.5H302.381C310.389 31.5 316.881 37.9919 316.881 46V284.5H26.8809V46C26.8809 37.9919 33.3727 31.5 41.3809 31.5Z" fill="white" stroke="#EEEEEE"/>
<rect width="45.8447" height="45.8447" rx="11.9595" transform="matrix(-1 5.18986e-09 5.18986e-09 1 89.8438 124)" fill="#1675FF"/>
<rect width="45.8447" height="45.8447" rx="11.9595" transform="matrix(-1 5.18986e-09 5.18986e-09 1 89.8438 124)" fill="url(#paint0_linear_12_6901)" fill-opacity="0.2"/>
<path d="M59.0804 137.869L60.6277 134.025H72.5227C74.1667 134.255 77.4547 135.74 77.4547 139.84C77.4547 143.573 74.8342 145.247 73.1732 145.739C72.8725 145.829 72.5585 145.851 72.2454 145.851H64.1092L65.8499 141.81H71.8729C72.0472 141.81 72.222 141.788 72.3803 141.713C72.9219 141.459 73.6832 140.855 73.6832 139.84C73.6832 138.824 72.9219 138.22 72.3803 137.966C72.222 137.892 72.0472 137.869 71.8729 137.869H59.0804Z" fill="white"/>
<path d="M65.4811 139.016H61.226L56.3906 150.841H64.6107L61.0326 160.105L73.8946 146.9H62.2898L65.4811 139.016Z" fill="white"/>
<rect x="44.8809" y="56.5" width="255" height="34" rx="17" fill="white" stroke="#EEEEEE"/>
<path d="M70.1309 80.75L65.6309 76.25M67.1309 72.5C67.1309 75.3995 64.7804 77.75 61.8809 77.75C58.9814 77.75 56.6309 75.3995 56.6309 72.5C56.6309 69.6005 58.9814 67.25 61.8809 67.25C64.7804 67.25 67.1309 69.6005 67.1309 72.5Z" stroke="#D10975" stroke-width="1.5" stroke-linecap="round" stroke-linejoin="round"/>
<rect opacity="0.5" x="81.3809" y="69" width="129" height="10" rx="2" fill="#EEEEEE"/>
<g opacity="0.5">
<rect x="44.3809" y="101" width="139" height="9" rx="2" fill="#EEEEEE"/>
<rect x="217.334" y="101" width="55.619" height="9" rx="2" fill="#EEEEEE"/>
<rect x="276.762" y="101" width="23.619" height="9" rx="2" fill="#EEEEEE"/>
</g>
<rect width="46" height="46" rx="18.6486" transform="matrix(-1 5.18986e-09 5.18986e-09 1 195 3)" fill="#D10975"/>
<rect width="46" height="46" rx="18.6486" transform="matrix(-1 5.18986e-09 5.18986e-09 1 195 3)" fill="url(#paint1_linear_12_6901)" fill-opacity="0.2"/>
<rect width="46" height="46" rx="18.6486" transform="matrix(-1 5.18986e-09 5.18986e-09 1 195 3)" stroke="#FAFAFA" stroke-width="3.72973"/>
<path d="M169 26L171 28L175.5 23.5M167.334 17.8187C168.138 17.7545 168.901 17.4385 169.514 16.9154C170.947 15.6949 173.053 15.6949 174.486 16.9154C175.099 17.4385 175.862 17.7545 176.666 17.8187C178.542 17.9684 180.032 19.4579 180.181 21.3338C180.245 22.1376 180.562 22.9007 181.085 23.5145C182.305 24.9467 182.305 27.0533 181.085 28.4855C180.562 29.0993 180.245 29.8624 180.181 30.6662C180.032 32.5421 178.542 34.0316 176.666 34.1813C175.862 34.2455 175.099 34.5615 174.486 35.0846C173.053 36.3051 170.947 36.3051 169.514 35.0846C168.901 34.5615 168.138 34.2455 167.334 34.1813C165.458 34.0316 163.968 32.5421 163.819 30.6662C163.755 29.8624 163.438 29.0993 162.915 28.4855C161.695 27.0533 161.695 24.9467 162.915 23.5145C163.438 22.9007 163.755 22.1376 163.819 21.3338C163.968 19.4579 165.458 17.9684 167.334 17.8187Z" stroke="white" stroke-width="2" stroke-linecap="round" stroke-linejoin="round"/>
<g opacity="0.75">
<rect opacity="0.75" x="99" y="141.783" width="132" height="9.97272" rx="1.66212" fill="#EEEEEE"/>
<rect opacity="0.75" x="99" y="155.911" width="41.7143" height="7.47954" rx="1.66212" fill="#EEEEEE"/>
<rect opacity="0.75" x="99" y="126.824" width="57.1429" height="7.47954" rx="1.66212" fill="#EEEEEE"/>
<rect opacity="0.75" x="143.572" y="155.911" width="17.7143" height="7.47954" rx="1.66212" fill="#EEEEEE"/>
<rect opacity="0.75" x="164.143" y="155.911" width="25.7143" height="7.47954" rx="1.66212" fill="#EEEEEE"/>
</g>
<rect x="44.3938" y="217.394" width="44.6923" height="43.1169" rx="7.48308" fill="white"/>
<rect x="44.3938" y="217.394" width="44.6923" height="43.1169" rx="7.48308" stroke="#EEEEEE" stroke-width="0.787692"/>
<rect x="54.2402" y="226.452" width="25" height="25" rx="5.46079" fill="url(#paint2_linear_12_6901)"/>
<path d="M64.6597 238.984C64.6597 237.832 65.5927 236.899 66.744 236.899C67.8952 236.899 68.8287 237.832 68.8287 238.984C68.8287 240.136 67.8952 241.069 66.744 241.069C65.5927 241.069 64.6597 240.136 64.6597 238.984ZM63.5328 238.984C63.5328 240.758 64.9704 242.196 66.744 242.196C68.5175 242.196 69.9552 240.758 69.9552 238.984C69.9552 237.21 68.5175 235.772 66.744 235.772C64.9704 235.772 63.5328 237.21 63.5328 238.984ZM69.3319 235.645C69.3318 235.793 69.3758 235.938 69.4582 236.062C69.5406 236.185 69.6578 236.281 69.7949 236.338C69.932 236.395 70.0829 236.41 70.2284 236.381C70.374 236.352 70.5078 236.281 70.6128 236.176C70.7178 236.071 70.7893 235.937 70.8183 235.792C70.8473 235.646 70.8325 235.495 70.7758 235.358C70.719 235.221 70.6229 235.103 70.4995 235.021C70.3761 234.938 70.2311 234.894 70.0826 234.894H70.0823C69.8834 234.894 69.6926 234.973 69.5519 235.114C69.4112 235.255 69.3321 235.446 69.3319 235.645V235.645ZM64.2175 244.076C63.6078 244.048 63.2764 243.947 63.0561 243.861C62.7641 243.747 62.5558 243.612 62.3368 243.393C62.1178 243.174 61.9822 242.966 61.869 242.674C61.7832 242.454 61.6816 242.122 61.6539 241.512C61.6236 240.853 61.6175 240.655 61.6175 238.984C61.6175 237.314 61.6241 237.116 61.6539 236.456C61.6816 235.846 61.784 235.515 61.869 235.294C61.9827 235.002 62.1181 234.794 62.3368 234.575C62.5555 234.356 62.7636 234.22 63.0561 234.107C63.2763 234.021 63.6078 233.92 64.2175 233.892C64.8767 233.861 65.0747 233.855 66.744 233.855C68.4133 233.855 68.6115 233.862 69.2713 233.892C69.881 233.92 70.2118 234.022 70.4326 234.107C70.7246 234.22 70.9329 234.356 71.1519 234.575C71.371 234.794 71.506 235.002 71.6197 235.294C71.7056 235.515 71.8071 235.846 71.8348 236.456C71.8652 237.116 71.8712 237.314 71.8712 238.984C71.8712 240.655 71.8652 240.852 71.8348 241.512C71.8071 242.122 71.705 242.454 71.6197 242.674C71.506 242.966 71.3707 243.174 71.1519 243.393C70.9332 243.611 70.7246 243.747 70.4326 243.861C70.2125 243.947 69.881 244.048 69.2713 244.076C68.6121 244.106 68.414 244.112 66.744 244.112C65.0739 244.112 64.8765 244.106 64.2175 244.076V244.076ZM64.1657 232.766C63.4999 232.797 63.045 232.902 62.6477 233.057C62.2363 233.217 61.888 233.431 61.5399 233.778C61.1919 234.126 60.9782 234.475 60.8186 234.887C60.664 235.284 60.5584 235.739 60.5281 236.405C60.4973 237.072 60.4902 237.285 60.4902 238.984C60.4902 240.683 60.4973 240.896 60.5281 241.563C60.5584 242.229 60.664 242.684 60.8186 243.082C60.9782 243.493 61.1919 243.842 61.5399 244.19C61.8879 244.537 62.2363 244.751 62.6477 244.911C63.0458 245.066 63.4999 245.171 64.1657 245.202C64.8328 245.232 65.0457 245.24 66.744 245.24C68.4423 245.24 68.6555 245.233 69.3223 245.202C69.9881 245.171 70.4427 245.066 70.8402 244.911C71.2514 244.751 71.6 244.537 71.9481 244.19C72.2961 243.842 72.5093 243.493 72.6694 243.082C72.824 242.684 72.93 242.229 72.9599 241.563C72.9902 240.896 72.9972 240.683 72.9972 238.984C72.9972 237.285 72.9902 237.072 72.9599 236.405C72.9295 235.739 72.824 235.284 72.6694 234.887C72.5093 234.475 72.2956 234.127 71.9481 233.778C71.6005 233.43 71.2514 233.217 70.8407 233.057C70.4427 232.902 69.988 232.796 69.3228 232.766C68.656 232.736 68.4428 232.729 66.7445 232.729C65.0462 232.729 64.8328 232.736 64.1657 232.766Z" fill="white"/>
<rect x="97.263" y="217.394" width="44.6923" height="43.1169" rx="7.48308" fill="white"/>
<rect x="97.263" y="217.394" width="44.6923" height="43.1169" rx="7.48308" stroke="#EEEEEE" stroke-width="0.787692"/>
<rect x="107.109" y="226.452" width="25" height="25" rx="5.46079" fill="#FF0000"/>
<path d="M126.562 235.514C126.399 234.9 125.916 234.416 125.302 234.25C124.191 233.952 119.734 233.952 119.734 233.952C119.734 233.952 115.28 233.952 114.167 234.25C113.555 234.414 113.072 234.898 112.906 235.514C112.609 236.627 112.609 238.952 112.609 238.952C112.609 238.952 112.609 241.277 112.906 242.391C113.07 243.004 113.552 243.489 114.167 243.654C115.28 243.952 119.734 243.952 119.734 243.952C119.734 243.952 124.191 243.952 125.302 243.654C125.914 243.491 126.397 243.007 126.562 242.391C126.859 241.277 126.859 238.952 126.859 238.952C126.859 238.952 126.859 236.627 126.562 235.514Z" fill="white"/>
<path d="M118.311 241.095L122.013 238.952L118.311 236.809V241.095Z" fill="#FF0000"/>
<rect x="150.132" y="217.394" width="44.6923" height="43.1169" rx="7.48308" fill="white"/>
<rect x="150.132" y="217.394" width="44.6923" height="43.1169" rx="7.48308" stroke="#EEEEEE" stroke-width="0.787692"/>
<rect x="159.979" y="226.452" width="25" height="25" rx="5.46079" fill="#34AADF"/>
<path d="M166.934 238.509C166.934 238.509 172.02 236.367 173.784 235.613C174.46 235.311 176.753 234.345 176.753 234.345C176.753 234.345 177.812 233.923 177.723 234.949C177.694 235.371 177.459 236.85 177.224 238.449C176.871 240.712 176.488 243.186 176.488 243.186C176.488 243.186 176.43 243.88 175.93 244.001C175.43 244.121 174.607 243.578 174.46 243.457C174.342 243.367 172.255 242.009 171.491 241.345C171.285 241.164 171.05 240.802 171.52 240.38C172.578 239.384 173.842 238.147 174.607 237.363C174.96 237.001 175.312 236.156 173.842 237.182C171.755 238.66 169.697 240.048 169.697 240.048C169.697 240.048 169.227 240.35 168.345 240.078C167.463 239.807 166.434 239.445 166.434 239.445C166.434 239.445 165.728 238.992 166.934 238.509Z" fill="white"/>
<rect x="203.003" y="217.394" width="44.6923" height="43.1169" rx="7.48308" fill="white"/>
<rect x="203.003" y="217.394" width="44.6923" height="43.1169" rx="7.48308" stroke="#EEEEEE" stroke-width="0.787692"/>
<rect x="212.85" y="226.452" width="25" height="25" rx="5.46079" fill="#5865F2"/>
<path d="M229.908 234.854C231.381 237.035 232.109 239.496 231.837 242.328C231.836 242.34 231.83 242.351 231.82 242.358C230.704 243.183 229.623 243.684 228.558 244.016C228.55 244.018 228.541 244.018 228.532 244.015C228.524 244.013 228.517 244.007 228.512 244C228.266 243.655 228.042 243.292 227.846 242.91C227.835 242.887 227.845 242.86 227.868 242.851C228.224 242.716 228.561 242.555 228.886 242.364C228.912 242.348 228.914 242.311 228.89 242.294C228.821 242.242 228.753 242.188 228.687 242.134C228.675 242.124 228.659 242.122 228.645 242.129C226.535 243.11 224.224 243.11 222.09 242.129C222.076 242.122 222.059 242.124 222.047 242.134C221.982 242.188 221.914 242.242 221.845 242.294C221.822 242.311 221.824 242.348 221.849 242.364C222.174 242.551 222.512 242.716 222.867 242.852C222.89 242.861 222.901 242.887 222.889 242.91C222.698 243.292 222.474 243.656 222.223 244.001C222.212 244.015 222.194 244.021 222.177 244.016C221.117 243.684 220.036 243.183 218.92 242.358C218.911 242.351 218.905 242.34 218.904 242.328C218.676 239.878 219.139 237.397 220.83 234.854C220.834 234.847 220.841 234.842 220.848 234.839C221.68 234.454 222.571 234.171 223.503 234.009C223.52 234.007 223.537 234.015 223.546 234.03C223.661 234.235 223.792 234.498 223.881 234.713C224.863 234.562 225.861 234.562 226.863 234.713C226.952 234.503 227.079 234.235 227.194 234.03C227.198 234.022 227.204 234.016 227.212 234.013C227.22 234.009 227.228 234.008 227.237 234.009C228.169 234.172 229.06 234.454 229.891 234.839C229.899 234.842 229.905 234.847 229.908 234.854V234.854ZM224.38 239.512C224.391 238.788 223.866 238.189 223.208 238.189C222.555 238.189 222.036 238.783 222.036 239.512C222.036 240.242 222.566 240.836 223.208 240.836C223.861 240.836 224.38 240.242 224.38 239.512V239.512ZM228.714 239.512C228.725 238.788 228.2 238.189 227.542 238.189C226.889 238.189 226.37 238.783 226.37 239.512C226.37 240.242 226.9 240.836 227.542 240.836C228.2 240.836 228.714 240.242 228.714 239.512V239.512Z" fill="white"/>
<rect x="255.872" y="217.873" width="43.734" height="42.1586" rx="7.48308" fill="white"/>
<rect x="255.872" y="217.873" width="43.734" height="42.1586" rx="7.48308" stroke="#EEEEEE" stroke-width="0.787692"/>
<rect x="265.719" y="226.932" width="24.0417" height="24.0417" rx="5.25147" fill="#33CCFF"/>
<path d="M283.708 235.147C283.311 235.318 282.893 235.437 282.466 235.501C282.666 235.467 282.96 235.107 283.077 234.961C283.254 234.741 283.39 234.491 283.476 234.221C283.476 234.201 283.496 234.173 283.476 234.158C283.466 234.153 283.455 234.15 283.443 234.15C283.432 234.15 283.421 234.153 283.411 234.158C282.947 234.41 282.453 234.602 281.941 234.73C281.923 234.735 281.904 234.736 281.886 234.731C281.868 234.727 281.851 234.717 281.838 234.704C281.798 234.657 281.755 234.612 281.709 234.57C281.501 234.383 281.264 234.229 281.007 234.116C280.661 233.973 280.287 233.912 279.914 233.936C279.552 233.959 279.198 234.056 278.875 234.221C278.557 234.396 278.277 234.633 278.053 234.918C277.817 235.212 277.647 235.553 277.553 235.918C277.476 236.266 277.468 236.625 277.528 236.975C277.528 237.035 277.528 237.044 277.476 237.035C275.441 236.735 273.771 236.013 272.407 234.461C272.347 234.393 272.315 234.393 272.267 234.461C271.673 235.364 271.962 236.793 272.704 237.498C272.804 237.593 272.906 237.684 273.015 237.77C272.675 237.745 272.343 237.653 272.039 237.498C271.982 237.461 271.95 237.481 271.947 237.55C271.939 237.645 271.939 237.74 271.947 237.835C272.007 238.291 272.186 238.722 272.467 239.086C272.748 239.449 273.12 239.732 273.546 239.904C273.65 239.948 273.758 239.982 273.868 240.004C273.553 240.066 273.23 240.076 272.912 240.032C272.844 240.018 272.818 240.055 272.844 240.121C273.263 241.264 274.174 241.612 274.842 241.807C274.933 241.821 275.024 241.821 275.127 241.844C275.127 241.844 275.127 241.844 275.11 241.861C274.913 242.221 274.117 242.464 273.751 242.589C273.084 242.829 272.373 242.921 271.668 242.858C271.556 242.841 271.531 242.844 271.502 242.858C271.473 242.872 271.502 242.904 271.533 242.932C271.676 243.026 271.819 243.109 271.967 243.189C272.409 243.431 272.876 243.622 273.36 243.761C275.866 244.452 278.687 243.944 280.568 242.072C282.046 240.604 282.566 238.578 282.566 236.55C282.566 236.473 282.66 236.427 282.714 236.387C283.088 236.095 283.418 235.751 283.693 235.364C283.741 235.306 283.765 235.233 283.762 235.158V235.158C283.762 235.116 283.762 235.124 283.708 235.147Z" fill="white"/>
<rect x="44" y="183" width="121" height="23" rx="5" fill="#00C153" fill-opacity="0.1"/>
<path d="M66.0631 193.999V194.503C66.0624 195.686 65.6796 196.836 64.9716 197.783C64.2638 198.73 63.2687 199.423 62.1349 199.758C61.0011 200.093 59.7894 200.053 58.6803 199.643C57.5713 199.234 56.6244 198.476 55.9809 197.484C55.3374 196.493 55.0317 195.319 55.1095 194.14C55.1873 192.96 55.6444 191.837 56.4126 190.938C57.1807 190.039 58.2188 189.413 59.3721 189.152C60.5253 188.892 61.7319 189.011 62.8118 189.492M66.0631 190.114L60.5804 195.602L58.9356 193.958" stroke="#00C153" stroke-width="1.09654" stroke-linecap="round" stroke-linejoin="round"/>
<rect opacity="0.5" x="72.1582" y="190" width="54.987" height="9" rx="2" fill="#00C153"/>
<rect opacity="0.5" x="132.146" y="190" width="23.3506" height="9" rx="2" fill="#00C153"/>
</g>
<defs>
<linearGradient id="paint0_linear_12_6901" x1="22.9224" y1="0" x2="22.9224" y2="45.8447" gradientUnits="userSpaceOnUse">
<stop stop-color="white" stop-opacity="0"/>
<stop offset="1" stop-color="white"/>
</linearGradient>
<linearGradient id="paint1_linear_12_6901" x1="23" y1="0" x2="23" y2="46" gradientUnits="userSpaceOnUse">
<stop stop-color="white" stop-opacity="0"/>
<stop offset="1" stop-color="white"/>
</linearGradient>
<linearGradient id="paint2_linear_12_6901" x1="78.7597" y1="251.452" x2="53.7597" y2="226.452" gradientUnits="userSpaceOnUse">
<stop stop-color="#FBE18A"/>
<stop offset="0.21" stop-color="#FCBB45"/>
<stop offset="0.38" stop-color="#F75274"/>
<stop offset="0.52" stop-color="#D53692"/>
<stop offset="0.74" stop-color="#8F39CE"/>
<stop offset="1" stop-color="#5B4FE9"/>
</linearGradient>
<clipPath id="clip0_12_6901">
<rect width="345" height="282" fill="white"/>
</clipPath>
</defs>
</svg>
