<svg width="345" height="282" viewBox="0 0 345 282" fill="none" xmlns="http://www.w3.org/2000/svg">
<g clip-path="url(#clip0_12_6899)">
<path opacity="0.75" d="M14.9854 76.6826L296.101 51.9136C304.377 51.1844 311.564 57.5453 311.846 65.8492L319.246 283.673L18.4125 283.673L1.79626 92.4008C1.10319 84.4227 7.00816 77.3854 14.9854 76.6826Z" fill="white" stroke="#EEEEEE"/>
<path opacity="0.75" d="M47.3539 51.8871L329.773 76.7709C337.75 77.4738 343.655 84.5111 342.962 92.4892L326.346 283.762L33.4985 283.762L31.6011 66.4418C31.5264 57.8873 38.8331 51.1363 47.3539 51.8871Z" fill="white" stroke="#EEEEEE"/>
<path d="M41.3809 30.5H302.381C310.389 30.5 316.881 36.9919 316.881 45V283.5H26.8809V45C26.8809 36.9919 33.3727 30.5 41.3809 30.5Z" fill="white" stroke="#EEEEEE"/>
<rect width="45.8447" height="45.8447" rx="11.9595" transform="matrix(-1 5.18986e-09 5.18986e-09 1 89.8438 123)" fill="#1675FF"/>
<rect width="45.8447" height="45.8447" rx="11.9595" transform="matrix(-1 5.18986e-09 5.18986e-09 1 89.8438 123)" fill="url(#paint0_linear_12_6899)" fill-opacity="0.2"/>
<path d="M59.0804 136.869L60.6277 133.025H72.5227C74.1667 133.255 77.4547 134.74 77.4547 138.84C77.4547 142.573 74.8342 144.247 73.1732 144.739C72.8725 144.829 72.5585 144.851 72.2454 144.851H64.1092L65.8499 140.81H71.8729C72.0472 140.81 72.222 140.788 72.3803 140.713C72.9219 140.459 73.6832 139.855 73.6832 138.84C73.6832 137.824 72.9219 137.22 72.3803 136.966C72.222 136.892 72.0472 136.869 71.8729 136.869H59.0804Z" fill="white"/>
<path d="M65.4811 138.016H61.226L56.3906 149.841H64.6107L61.0326 159.105L73.8946 145.9H62.2898L65.4811 138.016Z" fill="white"/>
<rect x="44.8809" y="55.5" width="255" height="34" rx="17" fill="white" stroke="#EEEEEE"/>
<path d="M70.1309 79.75L65.6309 75.25M67.1309 71.5C67.1309 74.3995 64.7804 76.75 61.8809 76.75C58.9814 76.75 56.6309 74.3995 56.6309 71.5C56.6309 68.6005 58.9814 66.25 61.8809 66.25C64.7804 66.25 67.1309 68.6005 67.1309 71.5Z" stroke="#D10975" stroke-width="1.5" stroke-linecap="round" stroke-linejoin="round"/>
<rect opacity="0.5" x="81.3809" y="68" width="129" height="10" rx="2" fill="#EEEEEE"/>
<g opacity="0.5">
<rect x="44.3809" y="100" width="139" height="9" rx="2" fill="#EEEEEE"/>
<rect x="217.334" y="100" width="55.619" height="9" rx="2" fill="#EEEEEE"/>
<rect x="276.762" y="100" width="23.619" height="9" rx="2" fill="#EEEEEE"/>
</g>
<rect width="46" height="46" rx="18.6486" transform="matrix(-1 5.18986e-09 5.18986e-09 1 195 2)" fill="#D10975"/>
<rect width="46" height="46" rx="18.6486" transform="matrix(-1 5.18986e-09 5.18986e-09 1 195 2)" fill="url(#paint1_linear_12_6899)" fill-opacity="0.2"/>
<rect width="46" height="46" rx="18.6486" transform="matrix(-1 5.18986e-09 5.18986e-09 1 195 2)" stroke="#FAFAFA" stroke-width="3.72973"/>
<path d="M169 25L171 27L175.5 22.5M167.334 16.8187C168.138 16.7545 168.901 16.4385 169.514 15.9154C170.947 14.6949 173.053 14.6949 174.486 15.9154C175.099 16.4385 175.862 16.7545 176.666 16.8187C178.542 16.9684 180.032 18.4579 180.181 20.3338C180.245 21.1376 180.562 21.9007 181.085 22.5145C182.305 23.9467 182.305 26.0533 181.085 27.4855C180.562 28.0993 180.245 28.8624 180.181 29.6662C180.032 31.5421 178.542 33.0316 176.666 33.1813C175.862 33.2455 175.099 33.5615 174.486 34.0846C173.053 35.3051 170.947 35.3051 169.514 34.0846C168.901 33.5615 168.138 33.2455 167.334 33.1813C165.458 33.0316 163.968 31.5421 163.819 29.6662C163.755 28.8624 163.438 28.0993 162.915 27.4855C161.695 26.0533 161.695 23.9467 162.915 22.5145C163.438 21.9007 163.755 21.1376 163.819 20.3338C163.968 18.4579 165.458 16.9684 167.334 16.8187Z" stroke="white" stroke-width="2" stroke-linecap="round" stroke-linejoin="round"/>
</g>
<defs>
<linearGradient id="paint0_linear_12_6899" x1="22.9224" y1="0" x2="22.9224" y2="45.8447" gradientUnits="userSpaceOnUse">
<stop stop-color="white" stop-opacity="0"/>
<stop offset="1" stop-color="white"/>
</linearGradient>
<linearGradient id="paint1_linear_12_6899" x1="23" y1="0" x2="23" y2="46" gradientUnits="userSpaceOnUse">
<stop stop-color="white" stop-opacity="0"/>
<stop offset="1" stop-color="white"/>
</linearGradient>
<clipPath id="clip0_12_6899">
<rect width="345" height="282" fill="white"/>
</clipPath>
</defs>
</svg>
