<svg width="360" height="224" viewBox="0 0 360 224" fill="none" xmlns="http://www.w3.org/2000/svg">
<g clip-path="url(#clip0_373_2735)">
<rect width="360" height="224" fill="#1675FF"/>
<path d="M121.152 155.714V155.411L122.29 154.165C122.423 154.019 122.533 153.892 122.62 153.785C122.706 153.676 122.77 153.574 122.812 153.478C122.854 153.382 122.876 153.281 122.876 153.175C122.876 153.054 122.847 152.949 122.788 152.86C122.731 152.772 122.652 152.703 122.552 152.655C122.453 152.607 122.34 152.583 122.216 152.583C122.083 152.583 121.968 152.61 121.869 152.665C121.771 152.719 121.696 152.795 121.642 152.892C121.589 152.99 121.563 153.104 121.563 153.236H121.165C121.165 153.034 121.212 152.856 121.305 152.704C121.398 152.551 121.525 152.432 121.685 152.347C121.847 152.262 122.028 152.219 122.229 152.219C122.431 152.219 122.61 152.262 122.766 152.347C122.922 152.432 123.045 152.547 123.133 152.692C123.222 152.837 123.266 152.998 123.266 153.175C123.266 153.302 123.243 153.426 123.197 153.547C123.152 153.667 123.074 153.801 122.962 153.95C122.85 154.097 122.696 154.276 122.499 154.488L121.724 155.317V155.343H123.327V155.714H121.152ZM125.052 155.761C124.855 155.761 124.677 155.722 124.519 155.643C124.36 155.565 124.233 155.457 124.138 155.32C124.043 155.183 123.99 155.027 123.981 154.852H124.386C124.401 155.008 124.472 155.137 124.598 155.239C124.724 155.34 124.876 155.391 125.052 155.391C125.194 155.391 125.319 155.358 125.429 155.291C125.54 155.225 125.627 155.134 125.69 155.019C125.754 154.902 125.786 154.77 125.786 154.623C125.786 154.473 125.753 154.338 125.687 154.221C125.622 154.102 125.532 154.008 125.418 153.939C125.303 153.871 125.172 153.836 125.025 153.835C124.92 153.834 124.811 153.85 124.7 153.884C124.589 153.916 124.498 153.959 124.426 154.01L124.035 153.963L124.244 152.266H126.035V152.636H124.594L124.473 153.653H124.493C124.564 153.597 124.653 153.551 124.759 153.514C124.866 153.477 124.977 153.458 125.093 153.458C125.304 153.458 125.492 153.508 125.657 153.61C125.823 153.709 125.953 153.846 126.047 154.02C126.143 154.194 126.19 154.393 126.19 154.616C126.19 154.836 126.141 155.033 126.042 155.205C125.944 155.377 125.81 155.513 125.638 155.613C125.466 155.712 125.271 155.761 125.052 155.761ZM126.818 156.684V153.128H127.202V153.539H127.249C127.278 153.494 127.319 153.437 127.371 153.367C127.423 153.296 127.498 153.234 127.596 153.179C127.695 153.122 127.828 153.094 127.997 153.094C128.214 153.094 128.406 153.149 128.573 153.258C128.739 153.367 128.868 153.521 128.961 153.721C129.055 153.92 129.101 154.156 129.101 154.428C129.101 154.702 129.055 154.939 128.961 155.14C128.868 155.34 128.739 155.494 128.574 155.604C128.409 155.713 128.219 155.768 128.003 155.768C127.837 155.768 127.704 155.74 127.605 155.685C127.505 155.629 127.428 155.566 127.374 155.495C127.32 155.423 127.278 155.364 127.249 155.317H127.216V156.684H126.818ZM127.209 154.421C127.209 154.616 127.238 154.789 127.295 154.938C127.352 155.086 127.436 155.202 127.546 155.286C127.656 155.369 127.79 155.411 127.95 155.411C128.116 155.411 128.254 155.367 128.365 155.28C128.478 155.191 128.562 155.072 128.618 154.923C128.675 154.772 128.704 154.605 128.704 154.421C128.704 154.239 128.676 154.075 128.62 153.929C128.565 153.782 128.481 153.666 128.369 153.581C128.258 153.494 128.118 153.451 127.95 153.451C127.788 153.451 127.652 153.492 127.542 153.574C127.432 153.655 127.349 153.768 127.293 153.914C127.237 154.059 127.209 154.228 127.209 154.421ZM129.85 153.128L130.469 154.185L131.089 153.128H131.547L130.712 154.421L131.547 155.714H131.089L130.469 154.711L129.85 155.714H129.392L130.213 154.421L129.392 153.128H129.85Z" fill="white"/>
<path d="M309.591 85.7891V85.486L310.729 84.2403C310.863 84.0944 310.973 83.9675 311.059 83.8598C311.146 83.7509 311.21 83.6488 311.251 83.5534C311.294 83.4569 311.315 83.3559 311.315 83.2504C311.315 83.1292 311.286 83.0242 311.228 82.9356C311.17 82.8469 311.092 82.7784 310.992 82.7302C310.892 82.6819 310.78 82.6578 310.655 82.6578C310.523 82.6578 310.407 82.6853 310.308 82.7403C310.211 82.7941 310.135 82.8699 310.081 82.9675C310.028 83.0652 310.002 83.1797 310.002 83.311H309.605C309.605 83.1089 309.651 82.9316 309.744 82.779C309.838 82.6263 309.964 82.5074 310.125 82.4221C310.287 82.3368 310.468 82.2941 310.669 82.2941C310.871 82.2941 311.05 82.3368 311.206 82.4221C311.362 82.5074 311.484 82.6224 311.573 82.7672C311.661 82.912 311.706 83.073 311.706 83.2504C311.706 83.3772 311.683 83.5012 311.637 83.6224C311.592 83.7425 311.513 83.8766 311.401 84.0248C311.29 84.1718 311.136 84.3514 310.938 84.5635L310.164 85.3918V85.4187H311.766V85.7891H309.591ZM313.539 85.8362C313.285 85.8362 313.069 85.7672 312.891 85.6291C312.712 85.49 312.576 85.2885 312.482 85.0248C312.387 84.7599 312.34 84.44 312.34 84.0652C312.34 83.6926 312.387 83.3744 312.482 83.1106C312.577 82.8458 312.714 82.6437 312.892 82.5046C313.072 82.3643 313.287 82.2941 313.539 82.2941C313.79 82.2941 314.005 82.3643 314.184 82.5046C314.363 82.6437 314.5 82.8458 314.594 83.1106C314.69 83.3744 314.737 83.6926 314.737 84.0652C314.737 84.44 314.69 84.7599 314.596 85.0248C314.502 85.2885 314.365 85.49 314.187 85.6291C314.008 85.7672 313.792 85.8362 313.539 85.8362ZM313.539 85.4658C313.79 85.4658 313.985 85.3446 314.125 85.1022C314.264 84.8598 314.333 84.5141 314.333 84.0652C314.333 83.7666 314.301 83.5124 314.237 83.3026C314.175 83.0927 314.084 82.9327 313.965 82.8228C313.847 82.7128 313.705 82.6578 313.539 82.6578C313.29 82.6578 313.095 82.7807 312.955 83.0265C312.814 83.2711 312.744 83.6174 312.744 84.0652C312.744 84.3637 312.776 84.6174 312.838 84.8261C312.901 85.0349 312.992 85.1937 313.109 85.3025C313.228 85.4114 313.372 85.4658 313.539 85.4658ZM315.336 86.7588V83.2032H315.72V83.614H315.767C315.797 83.5691 315.837 83.5119 315.889 83.4423C315.941 83.3716 316.017 83.3087 316.114 83.2537C316.213 83.1976 316.347 83.1696 316.515 83.1696C316.733 83.1696 316.925 83.224 317.091 83.3329C317.257 83.4417 317.386 83.596 317.48 83.7958C317.573 83.9956 317.619 84.2313 317.619 84.5029C317.619 84.7767 317.573 85.0141 317.48 85.215C317.386 85.4148 317.257 85.5696 317.092 85.6796C316.927 85.7885 316.737 85.8429 316.522 85.8429C316.356 85.8429 316.223 85.8154 316.123 85.7604C316.023 85.7043 315.946 85.6409 315.892 85.5702C315.838 85.4984 315.797 85.4389 315.767 85.3918H315.734V86.7588H315.336ZM315.727 84.4961C315.727 84.6914 315.756 84.8637 315.813 85.013C315.87 85.1611 315.954 85.2773 316.064 85.3615C316.174 85.4445 316.308 85.486 316.468 85.486C316.634 85.486 316.772 85.4423 316.884 85.3547C316.996 85.2661 317.08 85.1471 317.136 84.9978C317.193 84.8474 317.222 84.6802 317.222 84.4961C317.222 84.3143 317.194 84.1505 317.138 84.0046C317.083 83.8575 316.999 83.7414 316.887 83.6561C316.776 83.5697 316.636 83.5265 316.468 83.5265C316.306 83.5265 316.17 83.5674 316.06 83.6493C315.95 83.7302 315.867 83.8435 315.811 83.9894C315.755 84.1342 315.727 84.3031 315.727 84.4961ZM318.368 83.2032L318.987 84.2605L319.607 83.2032H320.065L319.23 84.4961L320.065 85.7891H319.607L318.987 84.7857L318.368 85.7891H317.91L318.731 84.4961L317.91 83.2032H318.368Z" fill="white"/>
<path d="M309.591 142.678V142.375L310.729 141.129C310.863 140.983 310.973 140.856 311.059 140.748C311.146 140.64 311.21 140.537 311.251 140.442C311.294 140.346 311.315 140.245 311.315 140.139C311.315 140.018 311.286 139.913 311.228 139.824C311.17 139.736 311.092 139.667 310.992 139.619C310.892 139.571 310.78 139.546 310.655 139.546C310.523 139.546 310.407 139.574 310.308 139.629C310.211 139.683 310.135 139.759 310.081 139.856C310.028 139.954 310.002 140.068 310.002 140.2H309.605C309.605 139.998 309.651 139.82 309.744 139.668C309.838 139.515 309.964 139.396 310.125 139.311C310.287 139.225 310.468 139.183 310.669 139.183C310.871 139.183 311.05 139.225 311.206 139.311C311.362 139.396 311.484 139.511 311.573 139.656C311.661 139.801 311.706 139.962 311.706 140.139C311.706 140.266 311.683 140.39 311.637 140.511C311.592 140.631 311.513 140.765 311.401 140.913C311.29 141.06 311.136 141.24 310.938 141.452L310.164 142.28V142.307H311.766V142.678H309.591ZM313.539 142.725C313.285 142.725 313.069 142.656 312.891 142.518C312.712 142.379 312.576 142.177 312.482 141.913C312.387 141.649 312.34 141.329 312.34 140.954C312.34 140.581 312.387 140.263 312.482 139.999C312.577 139.734 312.714 139.532 312.892 139.393C313.072 139.253 313.287 139.183 313.539 139.183C313.79 139.183 314.005 139.253 314.184 139.393C314.363 139.532 314.5 139.734 314.594 139.999C314.69 140.263 314.737 140.581 314.737 140.954C314.737 141.329 314.69 141.649 314.596 141.913C314.502 142.177 314.365 142.379 314.187 142.518C314.008 142.656 313.792 142.725 313.539 142.725ZM313.539 142.355C313.79 142.355 313.985 142.233 314.125 141.991C314.264 141.748 314.333 141.403 314.333 140.954C314.333 140.655 314.301 140.401 314.237 140.191C314.175 139.981 314.084 139.821 313.965 139.711C313.847 139.601 313.705 139.546 313.539 139.546C313.29 139.546 313.095 139.669 312.955 139.915C312.814 140.16 312.744 140.506 312.744 140.954C312.744 141.252 312.776 141.506 312.838 141.715C312.901 141.924 312.992 142.082 313.109 142.191C313.228 142.3 313.372 142.355 313.539 142.355ZM315.336 143.647V140.092H315.72V140.503H315.767C315.797 140.458 315.837 140.401 315.889 140.331C315.941 140.26 316.017 140.197 316.114 140.142C316.213 140.086 316.347 140.058 316.515 140.058C316.733 140.058 316.925 140.113 317.091 140.222C317.257 140.33 317.386 140.485 317.48 140.684C317.573 140.884 317.619 141.12 317.619 141.392C317.619 141.665 317.573 141.903 317.48 142.104C317.386 142.303 317.257 142.458 317.092 142.568C316.927 142.677 316.737 142.732 316.522 142.732C316.356 142.732 316.223 142.704 316.123 142.649C316.023 142.593 315.946 142.53 315.892 142.459C315.838 142.387 315.797 142.328 315.767 142.28H315.734V143.647H315.336ZM315.727 141.385C315.727 141.58 315.756 141.752 315.813 141.902C315.87 142.05 315.954 142.166 316.064 142.25C316.174 142.333 316.308 142.375 316.468 142.375C316.634 142.375 316.772 142.331 316.884 142.243C316.996 142.155 317.08 142.036 317.136 141.886C317.193 141.736 317.222 141.569 317.222 141.385C317.222 141.203 317.194 141.039 317.138 140.893C317.083 140.746 316.999 140.63 316.887 140.545C316.776 140.458 316.636 140.415 316.468 140.415C316.306 140.415 316.17 140.456 316.06 140.538C315.95 140.619 315.867 140.732 315.811 140.878C315.755 141.023 315.727 141.192 315.727 141.385ZM318.368 140.092L318.987 141.149L319.607 140.092H320.065L319.23 141.385L320.065 142.678H319.607L318.987 141.674L318.368 142.678H317.91L318.731 141.385L317.91 140.092H318.368Z" fill="white"/>
<path fill-rule="evenodd" clip-rule="evenodd" d="M68.1279 79.999C61.8678 79.999 56.793 85.0738 56.793 91.3339V132.895C56.793 139.155 61.8678 144.23 68.1279 144.23H109.689C115.949 144.23 121.024 139.155 121.024 132.895V91.3339C121.024 85.0738 115.949 79.999 109.689 79.999H68.1279ZM79.5202 91.107L76.8139 97.7035H99.1881C99.4929 97.7035 99.7987 97.7428 100.076 97.8703C101.023 98.3065 102.354 99.3427 102.354 101.086C102.354 102.83 101.023 103.866 100.076 104.302C99.7987 104.43 99.4929 104.469 99.1881 104.469H88.6538L85.6093 111.404H99.8395C100.387 111.404 100.936 111.366 101.462 111.213C104.367 110.368 108.951 107.495 108.951 101.086C108.951 94.0501 103.2 91.5017 100.325 91.107H79.5202ZM80.5666 99.6728H88.0088L82.4271 113.204H102.724L80.2283 135.869L86.4865 119.97H72.1095L80.5666 99.6728Z" fill="white"/>
<path d="M130.9 136.692H136.351V128.756H142.594C146.904 128.756 150.137 125.752 150.137 121.737C150.137 117.595 146.968 114.56 142.594 114.56H130.9V136.692ZM136.351 124.266V119.208H141.96C143.545 119.208 144.622 120.251 144.622 121.769C144.622 123.255 143.545 124.266 141.96 124.266H136.351Z" fill="white"/>
<path d="M152.301 136.692H157.752V128.629H161.904L166.087 136.692H172.171L167.323 127.839C169.826 126.701 171.474 124.393 171.474 121.61C171.474 117.5 168.21 114.56 163.647 114.56H152.301V136.692ZM157.752 124.203V119.208H163.14C164.819 119.208 165.96 120.219 165.96 121.705C165.96 123.191 164.819 124.203 163.14 124.203H157.752Z" fill="white"/>
<path d="M184.701 137.039C191.356 137.039 196.553 132.012 196.553 125.626C196.553 119.239 191.356 114.212 184.701 114.212C178.046 114.212 172.848 119.239 172.848 125.626C172.848 132.012 178.046 137.039 184.701 137.039ZM184.701 132.044C181.151 132.044 178.458 129.293 178.458 125.626C178.458 121.958 181.151 119.208 184.701 119.208C188.25 119.208 190.944 121.958 190.944 125.626C190.944 129.293 188.25 132.044 184.701 132.044Z" fill="white"/>
<path d="M194.747 136.692H200.99L206.251 129.293L211.543 136.692H218.04L209.483 125.278L217.374 114.56H211.131L206.378 121.231L201.624 114.56H195.128L203.145 125.278L194.747 136.692Z" fill="white"/>
<path d="M218.083 136.692H223.534V114.56H218.083V136.692Z" fill="white"/>
<path d="M226.579 136.692H244.199V131.981H232.03V127.807H239.984V123.255H232.03V119.271H244.072V114.56H226.579V136.692Z" fill="white"/>
<path d="M254.949 137.008C260.97 137.008 264.678 134.226 264.678 129.736C264.678 126.321 262.428 124.14 258.15 123.444L253.555 122.685C251.685 122.369 250.924 121.832 250.924 120.725C250.924 119.524 252.287 118.797 254.505 118.797C256.85 118.797 258.974 119.619 261.319 121.421L264.203 117.405C261.763 115.445 258.181 114.244 254.886 114.244C249.213 114.244 245.79 116.836 245.79 121.136C245.79 124.393 247.787 126.574 251.4 127.207L256.28 128.06C258.498 128.44 259.354 129.04 259.354 130.273C259.354 131.633 257.865 132.423 255.361 132.423C252.794 132.423 250.671 131.538 247.977 129.357L244.935 133.309C247.692 135.648 251.368 137.008 254.949 137.008Z" fill="white"/>
<path d="M130.916 109.449H147.892V104.69H136.313V87.5338H130.916V109.449Z" fill="white"/>
<path d="M150.268 109.449H155.665V87.5338H150.268V109.449Z" fill="white"/>
<path d="M169.664 109.793C176.096 109.793 180.803 104.972 180.803 98.366V96.8007H169.036V101.465H174.967C174.339 103.5 172.299 104.909 169.758 104.909C166.149 104.909 163.45 102.154 163.45 98.4912C163.45 94.8596 166.055 92.1359 169.569 92.1359C171.766 92.1359 173.649 93.0751 175.092 94.8909L178.889 91.4785C176.787 88.8174 173.304 87.1895 169.569 87.1895C163.011 87.1895 157.896 92.1359 157.896 98.4912C157.896 104.847 163.042 109.793 169.664 109.793Z" fill="white"/>
<path d="M183.028 109.449H188.426V100.871H197.463V109.449H202.86V87.5338H197.463V95.9554H188.426V87.5338H183.028V109.449Z" fill="white"/>
<path d="M211.805 109.449H217.202V92.2925H224.388V87.5338H204.619V92.2925H211.805V109.449Z" fill="white"/>
<path d="M226.146 109.449H231.23V96.2371L241.522 109.449H246.292V87.5338H241.208V100.244L231.23 87.5338H226.146V109.449Z" fill="white"/>
<path d="M249.299 109.449H254.696V87.5338H249.299V109.449Z" fill="white"/>
<path d="M257.711 109.449H262.795V96.2371L273.087 109.449H277.857V87.5338H272.773V100.244L262.795 87.5338H257.711V109.449Z" fill="white"/>
<path d="M291.846 109.793C298.279 109.793 302.986 104.972 302.986 98.366V96.8007H291.219V101.465H297.15C296.522 103.5 294.482 104.909 291.941 104.909C288.332 104.909 285.633 102.154 285.633 98.4912C285.633 94.8596 288.238 92.1359 291.752 92.1359C293.949 92.1359 295.832 93.0751 297.275 94.8909L301.072 91.4785C298.97 88.8174 295.487 87.1895 291.752 87.1895C285.194 87.1895 280.079 92.1359 280.079 98.4912C280.079 104.847 285.225 109.793 291.846 109.793Z" fill="white"/>
<path opacity="0.5" d="M57 0V224" stroke="white" stroke-width="0.395058"/>
<path opacity="0.5" d="M303 0V224" stroke="white" stroke-width="0.395058"/>
<path opacity="0.5" d="M440 79.999L-79.5018 79.999" stroke="white" stroke-width="0.395058"/>
<path opacity="0.5" d="M440 144.394L-79.5018 144.394" stroke="white" stroke-width="0.395058"/>
<path opacity="0.5" d="M121.05 147.416C120.973 147.493 120.973 147.618 121.05 147.695L122.307 148.952C122.384 149.03 122.509 149.03 122.586 148.952C122.663 148.875 122.663 148.75 122.586 148.673L121.469 147.556L122.586 146.438C122.663 146.361 122.663 146.236 122.586 146.159C122.509 146.082 122.384 146.082 122.307 146.159L121.05 147.416ZM130.811 147.695C130.888 147.618 130.888 147.493 130.811 147.416L129.553 146.159C129.476 146.082 129.351 146.082 129.274 146.159C129.197 146.236 129.197 146.361 129.274 146.438L130.392 147.556L129.274 148.673C129.197 148.75 129.197 148.875 129.274 148.952C129.351 149.03 129.476 149.03 129.553 148.952L130.811 147.695ZM121.189 147.753L130.671 147.753L130.671 147.358L121.189 147.358L121.189 147.753Z" fill="white"/>
<path opacity="0.5" d="M305.936 87.6446C306.014 87.7217 306.139 87.7217 306.216 87.6446L307.473 86.3875C307.55 86.3103 307.55 86.1853 307.473 86.1081C307.396 86.031 307.271 86.031 307.194 86.1081L306.076 87.2255L304.959 86.1081C304.882 86.031 304.757 86.031 304.679 86.1081C304.602 86.1853 304.602 86.3103 304.679 86.3875L305.936 87.6446ZM306.216 79.8591C306.139 79.782 306.014 79.782 305.936 79.8591L304.679 81.1162C304.602 81.1933 304.602 81.3184 304.679 81.3955C304.757 81.4727 304.882 81.4727 304.959 81.3955L306.076 80.2781L307.194 81.3955C307.271 81.4727 307.396 81.4727 307.473 81.3955C307.55 81.3184 307.55 81.1933 307.473 81.1162L306.216 79.8591ZM306.274 87.5049L306.274 79.9988L305.879 79.9988L305.879 87.5049L306.274 87.5049Z" fill="white"/>
<path opacity="0.5" d="M305.936 144.533C306.014 144.61 306.139 144.61 306.216 144.533L307.473 143.276C307.55 143.199 307.55 143.074 307.473 142.997C307.396 142.92 307.271 142.92 307.194 142.997L306.076 144.114L304.959 142.997C304.882 142.92 304.757 142.92 304.679 142.997C304.602 143.074 304.602 143.199 304.679 143.276L305.936 144.533ZM306.216 136.748C306.139 136.671 306.014 136.671 305.936 136.748L304.679 138.005C304.602 138.082 304.602 138.207 304.679 138.284C304.757 138.361 304.882 138.361 304.959 138.284L306.076 137.167L307.194 138.284C307.271 138.361 307.396 138.361 307.473 138.284C307.55 138.207 307.55 138.082 307.473 138.005L306.216 136.748ZM306.274 144.394L306.274 136.887L305.879 136.887L305.879 144.394L306.274 144.394Z" fill="white"/>
<rect opacity="0.1" x="121.189" y="79.999" width="9.87646" height="64.3945" fill="white"/>
<rect opacity="0.1" x="302.914" y="79.999" width="7.50612" height="181.727" transform="rotate(90 302.914 79.999)" fill="white"/>
<rect opacity="0.1" x="302.914" y="136.889" width="7.50612" height="181.727" transform="rotate(90 302.914 136.889)" fill="white"/>
</g>
<defs>
<clipPath id="clip0_373_2735">
<rect width="360" height="224" fill="white"/>
</clipPath>
</defs>
</svg>
