<svg width="344" height="282" viewBox="0 0 344 282" fill="none" xmlns="http://www.w3.org/2000/svg">
<g clip-path="url(#clip0_12_6898)">
<path opacity="0.75" d="M14.9854 76.6826L296.101 51.9136C304.377 51.1844 311.564 57.5453 311.846 65.8492L319.246 283.673L18.4125 283.673L1.79626 92.4008C1.10319 84.4227 7.00816 77.3854 14.9854 76.6826Z" fill="white" stroke="#EEEEEE"/>
<path opacity="0.75" d="M47.3539 51.8871L329.773 76.7709C337.75 77.4738 343.655 84.5111 342.962 92.4892L326.346 283.762L33.4985 283.762L31.6011 66.4418C31.5264 57.8873 38.8331 51.1363 47.3539 51.8871Z" fill="white" stroke="#EEEEEE"/>
<path d="M41.3809 30.5H302.381C310.389 30.5 316.881 36.9919 316.881 45V283.5H26.8809V45C26.8809 36.9919 33.3727 30.5 41.3809 30.5Z" fill="white" stroke="#EEEEEE"/>
<rect x="42.3809" y="241" width="258" height="54" rx="4.13146" fill="#FFC125" fill-opacity="0.1"/>
<g clip-path="url(#clip1_12_6898)">
<path d="M271.01 266.907V270.212M271.01 273.517H271.018M269.866 262.686L263.07 274.424C262.693 275.076 262.504 275.401 262.532 275.668C262.556 275.901 262.678 276.113 262.868 276.251C263.085 276.409 263.461 276.409 264.214 276.409H277.806C278.558 276.409 278.935 276.409 279.152 276.251C279.341 276.113 279.463 275.901 279.488 275.668C279.516 275.401 279.327 275.076 278.95 274.424L272.154 262.686C271.778 262.037 271.591 261.712 271.346 261.604C271.132 261.508 270.888 261.508 270.674 261.604C270.429 261.712 270.241 262.037 269.866 262.686Z" stroke="#FFC125" stroke-width="1.65258" stroke-linecap="round" stroke-linejoin="round"/>
</g>
<rect width="30.5728" height="30.5728" rx="7.97551" transform="matrix(-1 5.18986e-09 5.18986e-09 1 83.9297 252.859)" fill="#1A67D8"/>
<rect width="30.5728" height="30.5728" rx="7.97551" transform="matrix(-1 5.18986e-09 5.18986e-09 1 83.9297 252.859)" fill="url(#paint0_linear_12_6898)" fill-opacity="0.2"/>
<path d="M65.5737 274.646H63.2734V265.253H65.5737V274.646ZM64.5816 272.713H69.4909V274.646H64.5816V272.713Z" fill="white"/>
<path d="M67.9737 268.673V266.813H70.2005C70.6806 266.813 71.0261 266.708 71.2367 266.497C71.4523 266.282 71.5601 265.961 71.5601 265.535V265.079C71.5601 264.648 71.4548 264.327 71.2441 264.116C71.0334 263.906 70.688 263.8 70.2078 263.8H67.9663V261.948H70.3769C71.5724 261.948 72.4469 262.213 73.0005 262.742C73.5591 263.271 73.8384 264.028 73.8384 265.013V265.608C73.8384 266.598 73.5591 267.357 73.0005 267.886C72.4469 268.411 71.5748 268.673 70.3842 268.673H67.9737ZM66.4303 271.341V261.948H68.6792V267.335L68.6939 268.379V271.341H66.4303Z" fill="white"/>
<g opacity="0.75">
<rect opacity="0.25" x="91.3672" y="265.633" width="109.07" height="8.24037" rx="1.37339" fill="#FFC125"/>
<rect opacity="0.25" x="91.3672" y="277.307" width="34.4681" height="6.18028" rx="1.37339" fill="#FFC125"/>
<rect opacity="0.25" x="91.3672" y="253.272" width="47.2166" height="6.18028" rx="1.37339" fill="#FFC125"/>
<rect opacity="0.25" x="128.195" y="277.307" width="14.6372" height="6.18028" rx="1.37339" fill="#FFC125"/>
<rect opacity="0.25" x="145.193" y="277.307" width="21.2475" height="6.18028" rx="1.37339" fill="#FFC125"/>
</g>
<rect x="44.8809" y="55.5" width="255" height="34" rx="17" fill="white" stroke="#EEEEEE"/>
<path d="M70.1309 79.75L65.6309 75.25M67.1309 71.5C67.1309 74.3995 64.7804 76.75 61.8809 76.75C58.9814 76.75 56.6309 74.3995 56.6309 71.5C56.6309 68.6005 58.9814 66.25 61.8809 66.25C64.7804 66.25 67.1309 68.6005 67.1309 71.5Z" stroke="#D10975" stroke-width="1.5" stroke-linecap="round" stroke-linejoin="round"/>
<rect opacity="0.5" x="81.3809" y="68" width="129" height="10" rx="2" fill="#EEEEEE"/>
<g opacity="0.5">
<rect x="44.3809" y="100" width="139" height="9" rx="2" fill="#EEEEEE"/>
<rect x="217.334" y="100" width="55.619" height="9" rx="2" fill="#EEEEEE"/>
<rect x="276.762" y="100" width="23.619" height="9" rx="2" fill="#EEEEEE"/>
</g>
<rect width="46" height="46" rx="18.6486" transform="matrix(-1 5.18986e-09 5.18986e-09 1 195.381 2)" fill="#D10975"/>
<rect width="46" height="46" rx="18.6486" transform="matrix(-1 5.18986e-09 5.18986e-09 1 195.381 2)" fill="url(#paint1_linear_12_6898)" fill-opacity="0.2"/>
<rect width="46" height="46" rx="18.6486" transform="matrix(-1 5.18986e-09 5.18986e-09 1 195.381 2)" stroke="#FAFAFA" stroke-width="3.72973"/>
<path d="M170.381 27.5347C171.614 26.8218 173.147 26.8218 174.381 27.5347M162.381 28L163.082 20.9851C163.109 20.7191 163.122 20.5862 163.143 20.4721C163.383 19.127 164.502 18.1144 165.864 18.0089C165.98 18 166.114 18 166.381 18M182.381 28L181.679 20.9851C181.653 20.7192 181.639 20.5862 181.619 20.4721C181.379 19.127 180.26 18.1144 178.897 18.0089C178.782 18 178.648 18 178.381 18M169.209 25.1716C170.771 26.7337 170.771 29.2663 169.209 30.8284C167.647 32.3905 165.115 32.3905 163.552 30.8284C161.99 29.2663 161.99 26.7337 163.552 25.1716C165.115 23.6095 167.647 23.6095 169.209 25.1716ZM181.209 25.1716C182.771 26.7337 182.771 29.2663 181.209 30.8284C179.647 32.3905 177.115 32.3905 175.552 30.8284C173.99 29.2663 173.99 26.7337 175.552 25.1716C177.115 23.6095 179.647 23.6095 181.209 25.1716Z" stroke="white" stroke-width="2" stroke-linecap="round" stroke-linejoin="round"/>
<rect x="42.3809" y="179" width="258" height="54" rx="4.13146" fill="#FFC125" fill-opacity="0.1"/>
<g clip-path="url(#clip2_12_6898)">
<path d="M271.01 204.934V208.24M271.01 211.545H271.018M269.866 200.713L263.07 212.452C262.693 213.103 262.504 213.429 262.532 213.696C262.556 213.929 262.678 214.141 262.868 214.279C263.085 214.437 263.461 214.437 264.214 214.437H277.806C278.558 214.437 278.935 214.437 279.152 214.279C279.341 214.141 279.463 213.929 279.488 213.696C279.516 213.429 279.327 213.103 278.95 212.452L272.154 200.713C271.778 200.065 271.591 199.74 271.346 199.631C271.132 199.536 270.888 199.536 270.674 199.631C270.429 199.74 270.241 200.065 269.866 200.713Z" stroke="#FFC125" stroke-width="1.65258" stroke-linecap="round" stroke-linejoin="round"/>
</g>
<rect width="30.5728" height="30.5728" rx="7.97551" transform="matrix(-1 5.18986e-09 5.18986e-09 1 83.9297 190.887)" fill="#5E9BF4"/>
<rect width="30.5728" height="30.5728" rx="7.97551" transform="matrix(-1 5.18986e-09 5.18986e-09 1 83.9297 190.887)" fill="url(#paint2_linear_12_6898)" fill-opacity="0.2"/>
<path d="M61.275 204.677H60.2093C60.1113 204.677 60.0452 204.663 60.0109 204.633C59.9815 204.599 59.9668 204.526 59.9668 204.413V203.59C59.9668 203.457 59.9839 203.374 60.0182 203.34C60.0525 203.301 60.1334 203.281 60.2608 203.281H65.4493C65.5816 203.281 65.6698 203.298 65.7139 203.333C65.758 203.362 65.78 203.445 65.78 203.582V204.376C65.78 204.513 65.7555 204.599 65.7065 204.633C65.6624 204.663 65.5792 204.677 65.4567 204.677H64.3469C64.2195 204.677 64.1314 204.695 64.0824 204.729C64.0383 204.758 64.0162 204.839 64.0162 204.971V212.585C64.0162 212.722 64.0358 212.811 64.075 212.85C64.1191 212.889 64.2097 212.909 64.3469 212.909H66.2871C66.8898 212.909 67.3748 212.82 67.7423 212.644C68.1146 212.463 68.389 212.171 68.5654 211.769C68.7467 211.368 68.8447 210.831 68.8594 210.16C68.8643 210.047 68.8741 209.976 68.8888 209.947C68.9084 209.913 68.9769 209.895 69.0945 209.895H69.8295C69.9372 209.895 70.0107 209.908 70.0499 209.932C70.094 209.957 70.1161 210.023 70.1161 210.131V213.945C70.1161 214.092 70.1014 214.19 70.072 214.239C70.0426 214.283 69.9544 214.305 69.8074 214.305H60.2902C60.1628 214.305 60.077 214.288 60.0329 214.253C59.9888 214.219 59.9668 214.133 59.9668 213.996V213.158C59.9668 213.065 59.9766 213.002 59.9962 212.967C60.0207 212.928 60.077 212.909 60.1652 212.909H61.2162C61.368 212.909 61.466 212.889 61.5101 212.85C61.5591 212.811 61.5836 212.715 61.5836 212.563V205.001C61.5836 204.864 61.5665 204.775 61.5322 204.736C61.4979 204.697 61.4121 204.677 61.275 204.677Z" fill="white"/>
<path d="M68.0631 198.893H67.0636C66.9362 198.893 66.8553 198.876 66.8211 198.842C66.7868 198.808 66.7696 198.727 66.7696 198.599V197.82C66.7696 197.678 66.7917 197.59 66.8358 197.556C66.8847 197.517 66.9778 197.497 67.115 197.497H72.4359C73.1022 197.497 73.7048 197.563 74.2438 197.695C74.7827 197.823 75.2457 198.019 75.6328 198.283C76.0247 198.548 76.3236 198.884 76.5294 199.29C76.7401 199.697 76.8454 200.177 76.8454 200.731C76.8454 201.279 76.7401 201.762 76.5294 202.179C76.3236 202.595 76.0247 202.94 75.6328 203.215C75.2457 203.489 74.7827 203.695 74.2438 203.832C73.7048 203.969 73.1022 204.038 72.4359 204.038H71.2159C71.0346 204.038 70.9219 204.06 70.8778 204.104C70.8386 204.148 70.819 204.258 70.819 204.435V206.713C70.819 206.894 70.8411 207.009 70.8852 207.058C70.9293 207.103 71.042 207.125 71.2232 207.125H72.3036C72.4359 207.125 72.5143 207.147 72.5387 207.191C72.5681 207.23 72.5828 207.318 72.5828 207.455V208.139C72.5828 208.296 72.5681 208.398 72.5387 208.447C72.5094 208.496 72.4163 208.521 72.2595 208.521H67.1444C66.9974 208.521 66.897 208.504 66.8431 208.469C66.7941 208.435 66.7696 208.34 66.7696 208.183V207.411C66.7696 207.289 66.7868 207.21 66.8211 207.176C66.8553 207.142 66.9337 207.125 67.0562 207.125H68.0043C68.1856 207.125 68.2933 207.098 68.3276 207.044C68.3668 206.99 68.3864 206.88 68.3864 206.713V199.165C68.3864 199.038 68.3644 198.962 68.3203 198.938C68.2811 198.908 68.1954 198.893 68.0631 198.893ZM71.1571 202.642H72.2889C72.8817 202.642 73.3472 202.468 73.6852 202.12C74.0233 201.772 74.1923 201.309 74.1923 200.731C74.1923 200.148 74.0233 199.697 73.6852 199.378C73.3472 199.055 72.8817 198.893 72.2889 198.893H71.0542C70.9464 198.893 70.8803 198.918 70.8558 198.967C70.8313 199.011 70.819 199.089 70.819 199.202V202.318C70.819 202.46 70.8386 202.551 70.8778 202.59C70.917 202.624 71.0101 202.642 71.1571 202.642Z" fill="white"/>
<g opacity="0.75">
<rect opacity="0.25" x="91.3672" y="203.66" width="109.07" height="8.24037" rx="1.37339" fill="#FFC125"/>
<rect opacity="0.25" x="91.3672" y="215.334" width="34.4681" height="6.18028" rx="1.37339" fill="#FFC125"/>
<rect opacity="0.25" x="91.3672" y="191.3" width="47.2166" height="6.18028" rx="1.37339" fill="#FFC125"/>
<rect opacity="0.25" x="128.195" y="215.334" width="14.6372" height="6.18028" rx="1.37339" fill="#FFC125"/>
<rect opacity="0.25" x="145.193" y="215.334" width="21.2475" height="6.18028" rx="1.37339" fill="#FFC125"/>
</g>
<rect x="42.8809" y="119.5" width="257" height="53" rx="3.63146" fill="#00C153" fill-opacity="0.1" stroke="#00C153"/>
<g clip-path="url(#clip3_12_6898)">
<path d="M278.636 145.191V145.925C278.635 147.644 278.078 149.317 277.049 150.694C276.019 152.072 274.572 153.079 272.923 153.566C271.275 154.054 269.512 153.995 267.9 153.4C266.287 152.804 264.91 151.702 263.974 150.26C263.038 148.818 262.594 147.111 262.707 145.396C262.82 143.68 263.485 142.047 264.602 140.74C265.719 139.433 267.228 138.522 268.906 138.143C270.583 137.764 272.337 137.938 273.908 138.638M278.636 139.542L270.663 147.523L268.271 145.131" stroke="#00C153" stroke-width="1.59464" stroke-linecap="round" stroke-linejoin="round"/>
</g>
<rect width="30.5728" height="30.5728" rx="7.97551" transform="matrix(-1 5.18986e-09 5.18986e-09 1 83.9297 130.567)" fill="#1675FF"/>
<rect width="30.5728" height="30.5728" rx="7.97551" transform="matrix(-1 5.18986e-09 5.18986e-09 1 83.9297 130.567)" fill="url(#paint3_linear_12_6898)" fill-opacity="0.2"/>
<path d="M63.4148 139.816L64.4467 137.253H72.3792C73.4755 137.406 75.6683 138.396 75.6683 141.13C75.6683 143.62 73.9207 144.736 72.813 145.065C72.6125 145.124 72.4031 145.139 72.1942 145.139H66.7684L67.9293 142.445H71.9459C72.0621 142.445 72.1787 142.429 72.2843 142.38C72.6454 142.21 73.1531 141.808 73.1531 141.13C73.1531 140.453 72.6454 140.05 72.2843 139.881C72.1787 139.831 72.0621 139.816 71.9459 139.816H63.4148Z" fill="white"/>
<path d="M67.6833 140.581H64.8457L61.6211 148.467H67.1029L64.7167 154.645L73.2941 145.838H65.5551L67.6833 140.581Z" fill="white"/>
<g opacity="0.75">
<rect opacity="0.25" x="91.3672" y="143.341" width="109.07" height="8.24037" rx="1.37339" fill="#00C153"/>
<rect opacity="0.25" x="91.3672" y="155.015" width="34.4681" height="6.18028" rx="1.37339" fill="#00C153"/>
<rect opacity="0.25" x="91.3672" y="130.98" width="47.2166" height="6.18028" rx="1.37339" fill="#00C153"/>
<rect opacity="0.25" x="128.195" y="155.015" width="14.6372" height="6.18028" rx="1.37339" fill="#00C153"/>
<rect opacity="0.25" x="145.193" y="155.015" width="21.2475" height="6.18028" rx="1.37339" fill="#00C153"/>
</g>
</g>
<defs>
<linearGradient id="paint0_linear_12_6898" x1="15.2864" y1="0" x2="15.2864" y2="30.5728" gradientUnits="userSpaceOnUse">
<stop stop-color="white" stop-opacity="0"/>
<stop offset="1" stop-color="white"/>
</linearGradient>
<linearGradient id="paint1_linear_12_6898" x1="23" y1="0" x2="23" y2="46" gradientUnits="userSpaceOnUse">
<stop stop-color="white" stop-opacity="0"/>
<stop offset="1" stop-color="white"/>
</linearGradient>
<linearGradient id="paint2_linear_12_6898" x1="15.2864" y1="0" x2="15.2864" y2="30.5728" gradientUnits="userSpaceOnUse">
<stop stop-color="white" stop-opacity="0"/>
<stop offset="1" stop-color="white"/>
</linearGradient>
<linearGradient id="paint3_linear_12_6898" x1="15.2864" y1="0" x2="15.2864" y2="30.5728" gradientUnits="userSpaceOnUse">
<stop stop-color="white" stop-opacity="0"/>
<stop offset="1" stop-color="white"/>
</linearGradient>
<clipPath id="clip0_12_6898">
<rect width="344" height="282" fill="white"/>
</clipPath>
<clipPath id="clip1_12_6898">
<rect width="19.831" height="19.831" fill="white" transform="translate(261.094 259.47)"/>
</clipPath>
<clipPath id="clip2_12_6898">
<rect width="19.831" height="19.831" fill="white" transform="translate(261.094 197.498)"/>
</clipPath>
<clipPath id="clip3_12_6898">
<rect width="19.1357" height="19.1357" fill="white" transform="translate(261.094 136.353)"/>
</clipPath>
</defs>
</svg>
