<svg width="24" height="24" viewBox="0 0 24 24" fill="none" xmlns="http://www.w3.org/2000/svg">
<mask id="mask0_79_2745" style="mask-type:luminance" maskUnits="userSpaceOnUse" x="0" y="0" width="24" height="24">
<path d="M12 24C18.6274 24 24 18.6274 24 12C24 5.37258 18.6274 0 12 0C5.37258 0 0 5.37258 0 12C0 18.6274 5.37258 24 12 24Z" fill="white"/>
</mask>
<g mask="url(#mask0_79_2745)">
<path d="M1.90497 0V14.7273H7.27633L12 6.54545H24V0H1.90497Z" fill="#DB4437"/>
<path d="M1.90497 0V14.7273H7.27633L12 6.54545H24V0H1.90497Z" fill="url(#paint0_linear_79_2745)"/>
</g>
<mask id="mask1_79_2745" style="mask-type:luminance" maskUnits="userSpaceOnUse" x="0" y="0" width="24" height="24">
<path d="M12 24C18.6274 24 24 18.6274 24 12C24 5.37258 18.6274 0 12 0C5.37258 0 0 5.37258 0 12C0 18.6274 5.37258 24 12 24Z" fill="white"/>
</mask>
<g mask="url(#mask1_79_2745)">
<path d="M7.40584 14.6795L1.97448 5.3645L1.89539 5.50087L7.2872 14.7463L7.40584 14.6795Z" fill="#3E2723" fill-opacity="0.15"/>
</g>
<mask id="mask2_79_2745" style="mask-type:luminance" maskUnits="userSpaceOnUse" x="0" y="0" width="24" height="24">
<path d="M12 24C18.6274 24 24 18.6274 24 12C24 5.37258 18.6274 0 12 0C5.37258 0 0 5.37258 0 12C0 18.6274 5.37258 24 12 24Z" fill="white"/>
</mask>
<g mask="url(#mask2_79_2745)">
<path d="M0 24H11.4232L16.725 18.6982V14.7273H7.27636L0 2.24731V24Z" fill="#0F9D58"/>
<path d="M0 24H11.4232L16.725 18.6982V14.7273H7.27636L0 2.24731V24Z" fill="url(#paint1_linear_79_2745)"/>
</g>
<mask id="mask3_79_2745" style="mask-type:luminance" maskUnits="userSpaceOnUse" x="0" y="0" width="24" height="24">
<path d="M12 24C18.6274 24 24 18.6274 24 12C24 5.37258 18.6274 0 12 0C5.37258 0 0 5.37258 0 12C0 18.6274 5.37258 24 12 24Z" fill="white"/>
</mask>
<g mask="url(#mask3_79_2745)">
<path d="M16.6145 14.9087L16.5014 14.8433L11.2664 24.0001H11.4232L16.6186 14.9128L16.6145 14.9087Z" fill="#263238" fill-opacity="0.15"/>
</g>
<mask id="mask4_79_2745" style="mask-type:luminance" maskUnits="userSpaceOnUse" x="0" y="0" width="24" height="24">
<path d="M12 24C18.6274 24 24 18.6274 24 12C24 5.37258 18.6274 0 12 0C5.37258 0 0 5.37258 0 12C0 18.6274 5.37258 24 12 24Z" fill="white"/>
</mask>
<g mask="url(#mask4_79_2745)">
<mask id="mask5_79_2745" style="mask-type:luminance" maskUnits="userSpaceOnUse" x="0" y="2" width="17" height="22">
<path d="M0 24H11.4232L16.725 18.6982V14.7273H7.27636L0 2.24731V24Z" fill="white"/>
</mask>
<g mask="url(#mask5_79_2745)">
<path d="M12 6.54541L16.725 14.7272L11.4232 24H24V6.54541H12Z" fill="#FFCD40"/>
<path d="M12 6.54541L16.725 14.7272L11.4232 24H24V6.54541H12Z" fill="url(#paint2_linear_79_2745)"/>
</g>
</g>
<mask id="mask6_79_2745" style="mask-type:luminance" maskUnits="userSpaceOnUse" x="0" y="0" width="24" height="24">
<path d="M12 24C18.6274 24 24 18.6274 24 12C24 5.37258 18.6274 0 12 0C5.37258 0 0 5.37258 0 12C0 18.6274 5.37258 24 12 24Z" fill="white"/>
</mask>
<g mask="url(#mask6_79_2745)">
<path d="M12 6.54541L16.725 14.7272L11.4232 24H24V6.54541H12Z" fill="#FFCD40"/>
<path d="M12 6.54541L16.725 14.7272L11.4232 24H24V6.54541H12Z" fill="url(#paint3_linear_79_2745)"/>
</g>
<mask id="mask7_79_2745" style="mask-type:luminance" maskUnits="userSpaceOnUse" x="0" y="0" width="24" height="24">
<path d="M12 24C18.6274 24 24 18.6274 24 12C24 5.37258 18.6274 0 12 0C5.37258 0 0 5.37258 0 12C0 18.6274 5.37258 24 12 24Z" fill="white"/>
</mask>
<g mask="url(#mask7_79_2745)">
<mask id="mask8_79_2745" style="mask-type:luminance" maskUnits="userSpaceOnUse" x="11" y="6" width="13" height="18">
<path d="M12 6.54541L16.725 14.7272L11.4232 24H24V6.54541H12Z" fill="white"/>
</mask>
<g mask="url(#mask8_79_2745)">
<path d="M1.90503 0V14.7273H7.27639L12 6.54545H24V0H1.90503Z" fill="#DB4437"/>
<path d="M1.90503 0V14.7273H7.27639L12 6.54545H24V0H1.90503Z" fill="url(#paint4_linear_79_2745)"/>
</g>
</g>
<mask id="mask9_79_2745" style="mask-type:luminance" maskUnits="userSpaceOnUse" x="0" y="0" width="24" height="24">
<path d="M12 24C18.6274 24 24 18.6274 24 12C24 5.37258 18.6274 0 12 0C5.37258 0 0 5.37258 0 12C0 18.6274 5.37258 24 12 24Z" fill="white"/>
</mask>
<g mask="url(#mask9_79_2745)">
<path d="M12 6.54541V9.40223L22.6909 6.54541H12Z" fill="url(#paint5_radial_79_2745)"/>
</g>
<mask id="mask10_79_2745" style="mask-type:luminance" maskUnits="userSpaceOnUse" x="0" y="0" width="24" height="24">
<path d="M12 24C18.6274 24 24 18.6274 24 12C24 5.37258 18.6274 0 12 0C5.37258 0 0 5.37258 0 12C0 18.6274 5.37258 24 12 24Z" fill="white"/>
</mask>
<g mask="url(#mask10_79_2745)">
<mask id="mask11_79_2745" style="mask-type:luminance" maskUnits="userSpaceOnUse" x="1" y="0" width="23" height="15">
<path d="M1.90497 0V5.50091L7.27633 14.7273L12 6.54545H24V0H1.90497Z" fill="white"/>
</mask>
<g mask="url(#mask11_79_2745)">
<path d="M-6.10352e-05 24H11.4231L16.7249 18.6982V14.7273H7.2763L-6.10352e-05 2.24731V24Z" fill="#0F9D58"/>
<path d="M-6.10352e-05 24H11.4231L16.7249 18.6982V14.7273H7.2763L-6.10352e-05 2.24731V24Z" fill="url(#paint6_linear_79_2745)"/>
</g>
</g>
<mask id="mask12_79_2745" style="mask-type:luminance" maskUnits="userSpaceOnUse" x="0" y="0" width="24" height="24">
<path d="M12 24C18.6274 24 24 18.6274 24 12C24 5.37258 18.6274 0 12 0C5.37258 0 0 5.37258 0 12C0 18.6274 5.37258 24 12 24Z" fill="white"/>
</mask>
<g mask="url(#mask12_79_2745)">
<path d="M1.90497 5.51587L9.71179 13.3213L7.27633 14.7272L1.90497 5.51587Z" fill="url(#paint7_radial_79_2745)"/>
</g>
<mask id="mask13_79_2745" style="mask-type:luminance" maskUnits="userSpaceOnUse" x="0" y="0" width="24" height="24">
<path d="M12 24C18.6274 24 24 18.6274 24 12C24 5.37258 18.6274 0 12 0C5.37258 0 0 5.37258 0 12C0 18.6274 5.37258 24 12 24Z" fill="white"/>
</mask>
<g mask="url(#mask13_79_2745)">
<path d="M11.4313 23.9849L14.2895 13.3213L16.7249 14.7272L11.4313 23.9849Z" fill="url(#paint8_radial_79_2745)"/>
</g>
<mask id="mask14_79_2745" style="mask-type:luminance" maskUnits="userSpaceOnUse" x="0" y="0" width="24" height="24">
<path d="M12 24C18.6274 24 24 18.6274 24 12C24 5.37258 18.6274 0 12 0C5.37258 0 0 5.37258 0 12C0 18.6274 5.37258 24 12 24Z" fill="white"/>
</mask>
<g mask="url(#mask14_79_2745)">
<path d="M12 17.4545C15.0124 17.4545 17.4545 15.0124 17.4545 12C17.4545 8.98749 15.0124 6.54541 12 6.54541C8.98749 6.54541 6.54541 8.98749 6.54541 12C6.54541 15.0124 8.98749 17.4545 12 17.4545Z" fill="#F1F1F1"/>
<path d="M12 16.3637C14.41 16.3637 16.3636 14.4101 16.3636 12.0001C16.3636 9.59014 14.41 7.63647 12 7.63647C9.59002 7.63647 7.63635 9.59014 7.63635 12.0001C7.63635 14.4101 9.59002 16.3637 12 16.3637Z" fill="#4285F4"/>
</g>
<mask id="mask15_79_2745" style="mask-type:luminance" maskUnits="userSpaceOnUse" x="0" y="0" width="24" height="24">
<path d="M12 24C18.6274 24 24 18.6274 24 12C24 5.37258 18.6274 0 12 0C5.37258 0 0 5.37258 0 12C0 18.6274 5.37258 24 12 24Z" fill="white"/>
</mask>
<g mask="url(#mask15_79_2745)">
<path d="M12 6.40918C8.98768 6.40918 6.54541 8.85145 6.54541 11.8637V12.0001C6.54541 8.98782 8.98768 6.54554 12 6.54554H24V6.40918H12Z" fill="#3E2723" fill-opacity="0.2"/>
<path d="M16.7182 14.7273C15.7745 16.3555 14.0168 17.4546 12 17.4546C9.98182 17.4546 8.22409 16.3555 7.28045 14.7273H7.275L0 2.24731V2.38368L7.27636 14.8637H7.28182C8.22546 16.4919 9.98318 17.591 12.0014 17.591C14.0182 17.591 15.7759 16.4932 16.7195 14.8637H16.7264V14.7273H16.7182Z" fill="white" fill-opacity="0.1"/>
<path opacity="0.1" d="M12.1363 6.54541C12.1131 6.54541 12.0913 6.54814 12.0681 6.5495C15.049 6.58632 17.4545 9.01087 17.4545 12C17.4545 14.989 15.049 17.4136 12.0681 17.4504C12.0913 17.4504 12.1131 17.4545 12.1363 17.4545C15.1486 17.4545 17.5908 15.0122 17.5908 12C17.5908 8.98768 15.1486 6.54541 12.1363 6.54541Z" fill="#3E2723"/>
<path d="M16.7727 14.9085C17.2363 14.1067 17.505 13.1794 17.505 12.1867C17.505 11.6113 17.415 11.0576 17.25 10.5381C17.3795 11.0044 17.4545 11.494 17.4545 12.0013C17.4545 12.994 17.1859 13.9213 16.7222 14.7231L16.725 14.7285L11.4232 24.0013H11.5813L16.7754 14.914L16.7727 14.9085Z" fill="white" fill-opacity="0.2"/>
</g>
<mask id="mask16_79_2745" style="mask-type:luminance" maskUnits="userSpaceOnUse" x="0" y="0" width="24" height="24">
<path d="M12 24C18.6274 24 24 18.6274 24 12C24 5.37258 18.6274 0 12 0C5.37258 0 0 5.37258 0 12C0 18.6274 5.37258 24 12 24Z" fill="white"/>
</mask>
<g mask="url(#mask16_79_2745)">
<path d="M12 0.136364C18.6041 0.136364 23.9618 5.47227 23.9986 12.0682C23.9986 12.045 24 12.0232 24 12C24 5.37273 18.6273 0 12 0C5.37273 0 0 5.37273 0 12C0 12.0232 0.00136367 12.045 0.00136367 12.0682C0.0381819 5.47227 5.39591 0.136364 12 0.136364Z" fill="white" fill-opacity="0.2"/>
<path d="M12 23.8637C18.6041 23.8637 23.9618 18.5278 23.9986 11.9319C23.9986 11.9551 24 11.9769 24 12.0001C24 18.6273 18.6273 24.0001 12 24.0001C5.37273 24.0001 0 18.6273 0 12.0001C0 11.9769 0.00136367 11.9551 0.00136367 11.9319C0.0381819 18.5278 5.39591 23.8637 12 23.8637Z" fill="#3E2723" fill-opacity="0.15"/>
</g>
<path d="M12 24C18.6274 24 24 18.6274 24 12C24 5.37258 18.6274 0 12 0C5.37258 0 0 5.37258 0 12C0 18.6274 5.37258 24 12 24Z" fill="url(#paint9_radial_79_2745)"/>
<defs>
<linearGradient id="paint0_linear_79_2745" x1="2.90956" y1="9.13923" x2="10.0687" y2="4.95736" gradientUnits="userSpaceOnUse">
<stop stop-color="#A52714" stop-opacity="0.6"/>
<stop offset="0.66" stop-color="#A52714" stop-opacity="0"/>
</linearGradient>
<linearGradient id="paint1_linear_79_2745" x1="14.0277" y1="21.341" x2="6.07336" y2="16.6814" gradientUnits="userSpaceOnUse">
<stop stop-color="#055524" stop-opacity="0.4"/>
<stop offset="0.33" stop-color="#055524" stop-opacity="0"/>
</linearGradient>
<linearGradient id="paint2_linear_79_2745" x1="15.5263" y1="5.7005" x2="17.5295" y2="14.4722" gradientUnits="userSpaceOnUse">
<stop stop-color="#EA6100" stop-opacity="0.3"/>
<stop offset="0.66" stop-color="#EA6100" stop-opacity="0"/>
</linearGradient>
<linearGradient id="paint3_linear_79_2745" x1="15.5263" y1="5.7005" x2="17.5295" y2="14.4722" gradientUnits="userSpaceOnUse">
<stop stop-color="#EA6100" stop-opacity="0.3"/>
<stop offset="0.66" stop-color="#EA6100" stop-opacity="0"/>
</linearGradient>
<linearGradient id="paint4_linear_79_2745" x1="2.90962" y1="9.13923" x2="10.0687" y2="4.95736" gradientUnits="userSpaceOnUse">
<stop stop-color="#A52714" stop-opacity="0.6"/>
<stop offset="0.66" stop-color="#A52714" stop-opacity="0"/>
</linearGradient>
<radialGradient id="paint5_radial_79_2745" cx="0" cy="0" r="1" gradientUnits="userSpaceOnUse" gradientTransform="translate(11.4791 6.53832) scale(11.4652)">
<stop stop-color="#3E2723" stop-opacity="0.2"/>
<stop offset="1" stop-color="#3E2723" stop-opacity="0"/>
</radialGradient>
<linearGradient id="paint6_linear_79_2745" x1="14.0277" y1="21.341" x2="6.0733" y2="16.6814" gradientUnits="userSpaceOnUse">
<stop stop-color="#055524" stop-opacity="0.4"/>
<stop offset="0.33" stop-color="#055524" stop-opacity="0"/>
</linearGradient>
<radialGradient id="paint7_radial_79_2745" cx="0" cy="0" r="1" gradientUnits="userSpaceOnUse" gradientTransform="translate(1.8927 5.52541) scale(10.6424)">
<stop stop-color="#3E2723" stop-opacity="0.2"/>
<stop offset="1" stop-color="#3E2723" stop-opacity="0"/>
</radialGradient>
<radialGradient id="paint8_radial_79_2745" cx="0" cy="0" r="1" gradientUnits="userSpaceOnUse" gradientTransform="translate(11.9781 12.0187) scale(11.9823 11.9823)">
<stop stop-color="#263238" stop-opacity="0.2"/>
<stop offset="1" stop-color="#263238" stop-opacity="0"/>
</radialGradient>
<radialGradient id="paint9_radial_79_2745" cx="0" cy="0" r="1" gradientUnits="userSpaceOnUse" gradientTransform="translate(3.58445 3.27464) scale(24.1023)">
<stop stop-color="white" stop-opacity="0.1"/>
<stop offset="1" stop-color="white" stop-opacity="0"/>
</radialGradient>
</defs>
</svg>
