<svg width="63" height="26" viewBox="0 0 63 26" fill="none" xmlns="http://www.w3.org/2000/svg">
<path fill-rule="evenodd" clip-rule="evenodd" d="M62.6134 13.4284C62.6134 9.03718 60.4864 5.57227 56.4211 5.57227C52.3387 5.57227 49.8687 9.03718 49.8687 13.3941C49.8687 18.5571 52.7847 21.1644 56.97 21.1644C59.0112 21.1644 60.555 20.7013 61.7214 20.0494V16.6188C60.555 17.202 59.2171 17.5622 57.5189 17.5622C55.8551 17.5622 54.3799 16.979 54.1912 14.955H62.5791C62.5791 14.732 62.6134 13.84 62.6134 13.4284ZM54.1398 11.7988C54.1398 9.86053 55.3233 9.05433 56.404 9.05433C57.4503 9.05433 58.5652 9.86053 58.5652 11.7988H54.1398Z" fill="#1D2026"/>
<path fill-rule="evenodd" clip-rule="evenodd" d="M43.2476 5.57227C41.5666 5.57227 40.4859 6.36131 39.8856 6.9102L39.6626 5.84671H35.8889V25.8472L40.1772 24.9381L40.1943 20.0837C40.8118 20.5297 41.7209 21.1644 43.2304 21.1644C46.3008 21.1644 49.0968 18.6943 49.0968 13.2568C49.0796 8.28245 46.2494 5.57227 43.2476 5.57227ZM42.2184 17.3907C41.2064 17.3907 40.606 17.0305 40.1943 16.5845L40.1772 10.2207C40.6232 9.7233 41.2407 9.38024 42.2184 9.38024C43.7793 9.38024 44.86 11.1299 44.86 13.3769C44.86 15.6754 43.7965 17.3907 42.2184 17.3907Z" fill="#1D2026"/>
<path fill-rule="evenodd" clip-rule="evenodd" d="M34.2934 0.151855L29.988 1.06097V4.56019L34.2934 3.63392V0.151855Z" fill="#1D2026"/>
<path fill-rule="evenodd" clip-rule="evenodd" d="M29.988 5.86377H34.2934V20.8727H29.988V5.86377Z" fill="#1D2026"/>
<path fill-rule="evenodd" clip-rule="evenodd" d="M25.374 7.13315L25.0996 5.86383H21.3945V20.8727H25.6828V10.701C26.6948 9.3802 28.4101 9.62034 28.9419 9.80903V5.86383C28.393 5.65799 26.3861 5.28062 25.374 7.13315Z" fill="#1D2026"/>
<path fill-rule="evenodd" clip-rule="evenodd" d="M16.7975 2.14209L12.6121 3.03405L12.595 16.7736C12.595 19.3123 14.499 21.182 17.0376 21.182C18.4442 21.182 19.4733 20.9247 20.0394 20.6159V17.1339C19.4905 17.3568 16.7803 18.1459 16.7803 15.6072V9.5179H20.0394V5.8643H16.7803L16.7975 2.14209Z" fill="#1D2026"/>
<path fill-rule="evenodd" clip-rule="evenodd" d="M5.20203 10.2207C5.20203 9.55177 5.75092 9.29448 6.66003 9.29448C7.96367 9.29448 9.61036 9.689 10.914 10.3923V6.36131C9.49029 5.79525 8.08374 5.57227 6.66003 5.57227C3.17797 5.57227 0.862305 7.39049 0.862305 10.4266C0.862305 15.1608 7.38046 14.4061 7.38046 16.4473C7.38046 17.2363 6.69434 17.4936 5.73377 17.4936C4.31007 17.4936 2.49184 16.9104 1.05099 16.1214V20.2038C2.64622 20.8899 4.25861 21.1815 5.73377 21.1815C9.3016 21.1815 11.7545 19.4148 11.7545 16.3444C11.7373 11.2328 5.20203 12.1419 5.20203 10.2207Z" fill="#1D2026"/>
</svg>
