<svg width="86" height="22" viewBox="0 0 86 22" fill="none" xmlns="http://www.w3.org/2000/svg">
<path d="M79.9672 13.2255V7.56196H78.072V5.71095H79.9672V2.4049H81.9947V5.71095H84.6391V7.56196H81.9947V13.0711C81.9947 14.2834 82.5017 14.8343 83.4492 14.8343C83.8236 14.8343 84.0882 14.7901 84.3748 14.6578L85.0798 16.3989C84.617 16.5972 84.132 16.6856 83.4492 16.6856C81.1792 16.6856 79.9672 15.4294 79.9672 13.2255ZM66.8991 11.1098C66.8991 8.04653 69.015 5.35825 72.1884 5.35825C75.4058 5.35825 77.4775 7.62789 77.4775 11.1098C77.4775 11.2642 77.4554 11.4846 77.4554 11.4846H68.9269C69.037 13.7766 70.6898 15.0104 72.3646 15.0104C73.5545 15.0104 74.7444 14.5258 75.3177 13.1594L77.1248 13.9086C76.4858 15.4511 74.8988 16.8617 72.4088 16.8617C69.1033 16.8617 66.8991 14.3714 66.8991 11.1098ZM72.1442 7.20926C70.6459 7.20926 69.4557 8.22299 69.0589 9.80974H75.3177C75.2517 8.862 74.4581 7.20926 72.1442 7.20926ZM56.9612 15.0104H56.8731V16.5088H54.934V0.730009H56.9612V5.7106L56.8731 7.20926H56.9612C57.5784 6.21762 58.9229 5.35796 60.6417 5.35796C63.3741 5.35796 65.7763 7.80407 65.7763 11.1098C65.7763 14.4156 63.3741 16.8617 60.6417 16.8617C58.9229 16.8617 57.5784 16.0021 56.9612 15.0104ZM63.7489 11.1098C63.7489 8.68553 62.1182 7.20926 60.3111 7.20926C58.504 7.20926 56.8731 8.64163 56.8731 11.1098C56.8731 13.578 58.504 15.0104 60.3111 15.0104C62.1182 15.0104 63.7489 13.5341 63.7489 11.1098ZM43.2549 13.2472C43.2549 10.8014 45.4586 9.47887 47.993 9.47887C49.4475 9.47887 50.5051 9.89751 50.9241 10.1403V9.8318C50.9241 8.20087 49.6237 7.20923 48.1029 7.20923C46.9793 7.20923 45.8993 7.76014 45.5248 8.77388L43.6738 7.98051C44.0483 6.98886 45.3484 5.35793 48.059 5.35793C50.7037 5.35793 52.8632 6.94496 52.8632 9.98617V16.509H50.9241V15.0107H50.8357C50.2409 15.9139 49.1391 16.8617 47.2878 16.8617C45.0838 16.8617 43.2549 15.4953 43.2549 13.2472ZM50.9241 11.859C50.9241 11.859 50.0647 11.1537 48.3454 11.1537C46.2077 11.1537 45.3705 12.3 45.3705 13.2914C45.3705 14.4377 46.5604 15.0107 47.6183 15.0107C49.2271 15.0107 50.9241 13.6219 50.9241 11.859ZM34.0659 5.71058L33.9778 7.20894H34.0659C34.6389 6.2173 36.0052 5.35793 37.4818 5.35793C40.2364 5.35793 41.6027 7.23104 41.6027 9.8978V16.509H39.5753V10.2063C39.5753 7.95841 38.4513 7.20894 36.9088 7.20894C35.1456 7.20894 34.0659 8.88406 34.0659 10.5368V16.509H32.0384V0.730267H34.0659V5.71058ZM21.7036 15.0104H21.6155L21.7036 16.5087V21.2693H19.6761V5.71058H21.6155V7.20923H21.7036C22.3208 6.21759 23.6651 5.35793 25.3841 5.35793C28.1166 5.35793 30.5188 7.80404 30.5188 11.1098C30.5188 14.4156 28.1166 16.8617 25.3841 16.8617C23.6651 16.8617 22.3208 16.002 21.7036 15.0104ZM28.4913 11.1098C28.4913 8.6855 26.8604 7.20923 25.0536 7.20923C23.2462 7.20923 21.6155 8.6416 21.6155 11.1098C21.6155 13.578 23.2462 15.0104 25.0536 15.0104C26.8604 15.0104 28.4913 13.5341 28.4913 11.1098ZM15.4895 16.509H17.517V0.730267H15.4895V16.509ZM6.08007 0.72998L0.129639 16.509H2.37776L3.92003 12.2337H10.5537L12.0744 16.509H14.322L8.37181 0.72998H6.08007ZM7.18161 3.22028H7.26998L9.84837 10.3382H4.60351L7.18161 3.22028Z" fill="#fff"/>
</svg>
