<svg width="73" height="22" viewBox="0 0 73 22" fill="none" xmlns="http://www.w3.org/2000/svg">
<path fill-rule="evenodd" clip-rule="evenodd" d="M45.1884 17.1783C40.9636 20.2923 34.8401 21.9537 29.5678 21.9537C22.1751 21.9537 15.5199 19.2194 10.4849 14.6719C10.0894 14.3142 10.4439 13.8269 10.9185 14.1054C16.3522 17.2669 23.0708 19.1688 30.0108 19.1688C34.6913 19.1688 39.8402 18.2004 44.5745 16.1909C45.2896 15.8871 45.8877 16.6593 45.1884 17.1783Z" fill="#FF9900"/>
<path fill-rule="evenodd" clip-rule="evenodd" d="M46.9447 15.1688C46.4067 14.4789 43.3749 14.8428 42.0141 15.0042C41.5995 15.0549 41.5363 14.6941 41.9097 14.4346C44.3243 12.7352 48.2865 13.2257 48.7485 13.7954C49.2105 14.3682 48.6282 18.3398 46.3592 20.2354C46.0111 20.5265 45.6787 20.3715 45.8338 19.9854C46.3434 18.7132 47.4858 15.8619 46.9447 15.1688Z" fill="#FF9900"/>
<path fill-rule="evenodd" clip-rule="evenodd" d="M42.1091 2.43737V0.785457C42.1091 0.535437 42.299 0.367715 42.5269 0.367715H49.9226C50.16 0.367715 50.3499 0.538563 50.3499 0.785457V2.2C50.3467 2.43737 50.1474 2.74752 49.7929 3.23803L45.9606 8.70967C47.3846 8.67492 48.8878 8.88692 50.179 9.6148C50.4701 9.77933 50.5492 10.0199 50.5714 10.2572V12.0199C50.5714 12.2604 50.3056 12.542 50.0271 12.3965C47.7517 11.2035 44.7295 11.0737 42.2136 12.4092C41.9573 12.5484 41.6883 12.2699 41.6883 12.0294V10.3553C41.6883 10.0863 41.6914 9.62745 41.9604 9.21924L46.4004 2.85199H42.5363C42.299 2.85199 42.1091 2.68427 42.1091 2.43737ZM15.1307 12.7446H12.8806C12.6654 12.7288 12.4945 12.5674 12.4787 12.3617V0.813956C12.4787 0.582911 12.6717 0.39934 12.9122 0.39934H15.0103C15.2287 0.408792 15.4028 0.576586 15.4186 0.785384V2.29503H15.4598C16.0072 0.83613 17.0357 0.155791 18.4218 0.155791C19.8301 0.155791 20.7099 0.83613 21.3428 2.29503C21.8871 0.83613 23.1245 0.155791 24.4505 0.155791C25.3935 0.155791 26.4252 0.545034 27.055 1.41847C27.767 2.38997 27.6215 3.8014 27.6215 5.03877L27.6183 12.3269C27.6183 12.558 27.4252 12.7447 27.1847 12.7447H24.9378C24.7132 12.7289 24.5327 12.5485 24.5327 12.3269V6.2065C24.5327 5.71911 24.5771 4.50383 24.4695 4.04189C24.3018 3.26653 23.7986 3.04814 23.1466 3.04814C22.6023 3.04814 22.0327 3.41208 21.8017 3.99442C21.5707 4.57675 21.5929 5.55139 21.5929 6.2065V12.3269C21.5929 12.5579 21.3998 12.7446 21.1593 12.7446H18.9124C18.6845 12.7288 18.5073 12.5484 18.5073 12.3269L18.5041 6.2065C18.5041 4.91845 18.7161 3.02291 17.118 3.02291C15.5009 3.02291 15.5642 4.87098 15.5642 6.2065V12.3269C15.5642 12.5579 15.3712 12.7446 15.1307 12.7446ZM56.7171 0.155719C60.0558 0.155719 61.8629 3.02284 61.8629 6.66851C61.8629 10.1907 59.866 12.9852 56.7171 12.9852C53.4385 12.9852 51.6537 10.118 51.6537 6.54507C51.6537 2.95006 53.4607 0.155719 56.7171 0.155719ZM56.7361 2.51335C55.0778 2.51335 54.9734 4.7729 54.9734 6.18113C54.9734 7.59262 54.9513 10.6053 56.7171 10.6053C58.4609 10.6053 58.5431 8.17488 58.5431 6.69381C58.5431 5.71911 58.502 4.55451 58.2077 3.63047C57.9545 2.82662 57.4513 2.51335 56.7361 2.51335ZM66.1921 12.7446H63.9515C63.7269 12.7288 63.5464 12.5484 63.5464 12.3269L63.5433 0.775933C63.5622 0.563936 63.749 0.39934 63.9768 0.39934H66.0623C66.2585 0.408792 66.4199 0.541835 66.4642 0.722134V2.48805H66.5053C67.1352 0.908903 68.018 0.155719 69.5719 0.155719C70.5814 0.155719 71.5657 0.519588 72.1986 1.51647C72.7872 2.4405 72.7872 3.99442 72.7872 5.11154V12.3807C72.7619 12.5832 72.5752 12.7446 72.3537 12.7446H70.0972C69.8915 12.7288 69.7206 12.5769 69.6985 12.3807V6.10835C69.6985 4.84568 69.8441 2.99746 68.2902 2.99746C67.7428 2.99746 67.2396 3.36461 66.9896 3.92157C66.6731 4.62735 66.6319 5.32987 66.6319 6.10842V12.3269C66.6288 12.5579 66.4326 12.7446 66.1921 12.7446ZM36.2134 7.22868C36.2134 8.10524 36.2356 8.83632 35.7925 9.61473C35.435 10.2477 34.8653 10.6369 34.2355 10.6369C33.3716 10.6369 32.8653 9.97875 32.8653 9.00717C32.8653 7.08938 34.5837 6.74129 36.2134 6.74129V7.22868ZM38.4824 12.713C38.3338 12.8459 38.1186 12.8554 37.9508 12.7668C37.204 12.1465 37.0679 11.8585 36.6597 11.2667C35.4254 12.5263 34.5489 12.9029 32.9507 12.9029C31.0551 12.9029 29.5835 11.7351 29.5835 9.39648C29.5835 7.57045 30.5709 6.32675 31.9823 5.71911C33.2039 5.18112 34.9096 5.08617 36.2135 4.93742V4.64633C36.2135 4.11147 36.2546 3.47853 35.9381 3.01651C35.666 2.60197 35.1406 2.43105 34.6754 2.43105C33.8178 2.43105 33.0551 2.87089 32.8685 3.78235C32.8304 3.98489 32.6817 4.18424 32.476 4.19376L30.2956 3.95959C30.1121 3.91844 29.9063 3.7697 29.9601 3.48805C30.4601 0.842455 32.8526 0.0449219 34.992 0.0449219C36.0869 0.0449219 37.5173 0.33609 38.3813 1.16525C39.4762 2.18743 39.3718 3.5513 39.3718 5.03557V8.54195C39.3718 9.59583 39.8086 10.0578 40.2199 10.6275C40.3624 10.83 40.394 11.0737 40.2105 11.2256C39.7516 11.6085 38.9351 12.3205 38.4857 12.7193L38.4826 12.713M6.71585 7.22868C6.71585 8.10524 6.73803 8.83632 6.29491 9.61473C5.93737 10.2477 5.37088 10.6369 4.73794 10.6369C3.87404 10.6369 3.3708 9.97875 3.3708 9.00717C3.3708 7.08938 5.08924 6.74129 6.71585 6.74129V7.22868ZM8.98486 12.713C8.83619 12.8459 8.62099 12.8554 8.45327 12.7668C7.70641 12.1465 7.57344 11.8585 7.16209 11.2667C5.92785 12.5263 5.05449 12.9029 3.4531 12.9029C1.56068 12.9029 0.0859375 11.7351 0.0859375 9.39648C0.0859375 7.57045 1.07649 6.32675 2.48471 5.71911C3.70631 5.18112 5.41203 5.08617 6.71585 4.93742V4.64633C6.71585 4.11147 6.757 3.47853 6.44366 3.01651C6.16834 2.60197 5.64307 2.43105 5.18099 2.43105C4.3234 2.43105 3.55757 2.87089 3.3708 3.78235C3.33285 3.98489 3.1841 4.18424 2.98155 4.19376L0.797973 3.95959C0.614403 3.91844 0.41193 3.7697 0.46253 3.48805C0.965695 0.842455 3.35502 0.0449219 5.49433 0.0449219C6.58921 0.0449219 8.01968 0.33609 8.88366 1.16525C9.97854 2.18743 9.87414 3.5513 9.87414 5.03557V8.54195C9.87414 9.59583 10.3109 10.0578 10.7223 10.6275C10.8679 10.83 10.8995 11.0737 10.7159 11.2256C10.2571 11.6085 9.44062 12.3205 8.99126 12.7193L8.98486 12.713Z" fill="#fff"/>
</svg>
