<svg width="80" height="28" viewBox="0 0 80 28" fill="none" xmlns="http://www.w3.org/2000/svg">
<path d="M33.8306 14.6825C33.8306 18.4265 30.9016 21.1854 27.3072 21.1854C23.7127 21.1854 20.7838 18.4265 20.7838 14.6825C20.7838 10.9122 23.7127 8.17969 27.3072 8.17969C30.9016 8.17969 33.8306 10.9122 33.8306 14.6825ZM30.9749 14.6825C30.9749 12.3429 29.2774 10.7421 27.3072 10.7421C25.337 10.7421 23.6394 12.3429 23.6394 14.6825C23.6394 16.9987 25.337 18.6229 27.3072 18.6229C29.2774 18.6229 30.9749 16.9958 30.9749 14.6825Z" fill="#1D2026"/>
<path d="M47.9037 14.6825C47.9037 18.4265 44.9748 21.1854 41.3803 21.1854C37.7859 21.1854 34.8569 18.4265 34.8569 14.6825C34.8569 10.9151 37.7859 8.17969 41.3803 8.17969C44.9748 8.17969 47.9037 10.9122 47.9037 14.6825ZM45.0481 14.6825C45.0481 12.3429 43.3505 10.7421 41.3803 10.7421C39.4101 10.7421 37.7126 12.3429 37.7126 14.6825C37.7126 16.9987 39.4101 18.6229 41.3803 18.6229C43.3505 18.6229 45.0481 16.9958 45.0481 14.6825Z" fill="#1D2026"/>
<path d="M61.3901 8.57256V20.2472C61.3901 25.0496 58.5579 27.011 55.2097 27.011C52.058 27.011 50.1611 24.903 49.4457 23.179L51.9319 22.1441C52.3746 23.2025 53.4594 24.4515 55.2068 24.4515C57.35 24.4515 58.6781 23.1292 58.6781 20.6401V19.7048H58.5784C57.9393 20.4935 56.7079 21.1825 55.154 21.1825C51.9026 21.1825 48.9238 18.3503 48.9238 14.706C48.9238 11.0353 51.9026 8.17969 55.154 8.17969C56.705 8.17969 57.9363 8.86867 58.5784 9.63389H58.6781V8.57549H61.3901V8.57256ZM58.8804 14.706C58.8804 12.4162 57.3529 10.7421 55.4091 10.7421C53.4389 10.7421 51.7882 12.4162 51.7882 14.706C51.7882 16.9723 53.4389 18.6229 55.4091 18.6229C57.3529 18.6229 58.8804 16.9723 58.8804 14.706Z" fill="#1D2026"/>
<path d="M65.8611 1.729V20.786H63.0758V1.729H65.8611Z" fill="#1D2026"/>
<path d="M76.7149 16.8228L78.9314 18.3004C78.216 19.3588 76.4921 21.1825 73.5133 21.1825C69.8192 21.1825 67.0603 18.3268 67.0603 14.6796C67.0603 10.8125 69.8426 8.17676 73.1937 8.17676C76.5683 8.17676 78.2189 10.8623 78.7584 12.3136L79.0545 13.0524L70.3616 16.6527C71.0271 17.9574 72.062 18.623 73.5133 18.623C74.9675 18.623 75.9761 17.9076 76.7149 16.8228ZM69.8925 14.4832L75.7034 12.0703C75.3838 11.2581 74.4222 10.6923 73.2905 10.6923C71.8392 10.6923 69.8192 11.9735 69.8925 14.4832Z" fill="#1D2026"/>
<path d="M10.241 12.9913V10.2324H19.5379C19.6288 10.7132 19.6757 11.282 19.6757 11.8977C19.6757 13.9676 19.1098 16.5271 17.2862 18.3507C15.5124 20.1978 13.2461 21.1829 10.2439 21.1829C4.67924 21.1829 0 16.6502 0 11.0856C0 5.52093 4.67924 0.988281 10.2439 0.988281C13.3223 0.988281 15.5154 2.1962 17.1631 3.77061L15.2163 5.71736C14.0348 4.60912 12.434 3.74715 10.241 3.74715C6.17742 3.74715 2.99929 7.02203 2.99929 11.0856C2.99929 15.1491 6.17742 18.424 10.241 18.424C12.8767 18.424 14.3778 17.3656 15.3395 16.404C16.1193 15.6241 16.6324 14.51 16.8347 12.9884L10.241 12.9913Z" fill="#1D2026"/>
</svg>
