<svg width="89" height="20" viewBox="0 0 89 20" fill="none" xmlns="http://www.w3.org/2000/svg">
<path d="M31.2345 11.4232L30.7113 12.9054H30.6677C30.5805 12.5712 30.4207 12.0626 30.1591 11.4522L27.3544 4.40426H24.6079V15.6374H26.4244V8.70571C26.4244 8.26975 26.4244 7.77566 26.4099 7.16532C26.3953 6.86015 26.3663 6.62764 26.3517 6.45326H26.3953C26.4825 6.88922 26.5843 7.20892 26.6569 7.41237L30.0283 15.6084H31.3071L34.6495 7.33971C34.7221 7.15079 34.7948 6.77296 34.8674 6.45326H34.911C34.8674 7.28158 34.8384 8.02271 34.8238 8.4732V15.5938H36.7566V4.37519H34.1118L31.2345 11.4232ZM38.5876 7.54315H40.4768V15.5938H38.5876V7.54315ZM39.5467 4.14268C39.227 4.14268 38.9654 4.25894 38.7475 4.46239C38.5295 4.66583 38.4132 4.92741 38.4132 5.24711C38.4132 5.55228 38.5295 5.81385 38.7475 6.0173C38.9654 6.22075 39.227 6.32247 39.5467 6.32247C39.8664 6.32247 40.1425 6.20622 40.346 6.0173C40.564 5.81385 40.6802 5.55228 40.6802 5.24711C40.6802 4.94194 40.564 4.68036 40.346 4.46239C40.1571 4.25894 39.881 4.14268 39.5467 4.14268ZM47.176 7.47049C46.8272 7.39783 46.4639 7.35424 46.1152 7.35424C45.2578 7.35424 44.473 7.54315 43.8191 7.92098C43.1652 8.29881 42.642 8.82196 42.3078 9.4759C41.959 10.1444 41.7846 10.9146 41.7846 11.801C41.7846 12.5712 41.959 13.2542 42.2933 13.8791C42.6275 14.4894 43.0925 14.9835 43.7174 15.3177C44.3132 15.652 45.0107 15.8263 45.7954 15.8263C46.6964 15.8263 47.4666 15.6374 48.077 15.2887L48.0915 15.2741V13.5303L48.0188 13.5884C47.7427 13.7919 47.423 13.9663 47.1033 14.068C46.7691 14.1842 46.4639 14.2424 46.2023 14.2424C45.4467 14.2424 44.8509 14.0244 44.4294 13.5448C43.9935 13.0798 43.7755 12.4404 43.7755 11.6412C43.7755 10.8128 43.9935 10.1589 44.444 9.67934C44.8945 9.19979 45.4903 8.95275 46.2169 8.95275C46.8272 8.95275 47.4521 9.1562 48.0188 9.56309L48.0915 9.62122V7.77566L48.077 7.76113C47.8299 7.65941 47.5538 7.54315 47.176 7.47049ZM53.4102 7.41237C52.9452 7.41237 52.5092 7.55768 52.1314 7.86285C51.8117 8.12443 51.5937 8.50226 51.4048 8.95275H51.3902V7.54315H49.5011V15.5938H51.3902V11.4813C51.3902 10.7838 51.5356 10.2025 51.8553 9.78107C52.175 9.34511 52.5819 9.12713 53.0759 9.12713C53.2503 9.12713 53.4247 9.17073 53.6427 9.19979C53.8461 9.25792 53.9915 9.31605 54.0932 9.38871L54.1658 9.44683V7.55768L54.1222 7.54315C53.9915 7.45596 53.7299 7.41237 53.4102 7.41237ZM58.5545 7.36877C57.2321 7.36877 56.1712 7.76113 55.4301 8.53132C54.6745 9.30152 54.3112 10.3623 54.3112 11.6993C54.3112 12.949 54.689 13.9663 55.4156 14.7074C56.1422 15.434 57.1303 15.8118 58.3656 15.8118C59.6589 15.8118 60.6907 15.4195 61.4318 14.6347C62.1875 13.85 62.5508 12.8037 62.5508 11.5104C62.5508 10.2316 62.202 9.21432 61.4899 8.4732C60.8069 7.73207 59.8042 7.36877 58.5545 7.36877ZM60.0658 13.5594C59.717 14.0099 59.1648 14.2278 58.4818 14.2278C57.7988 14.2278 57.2466 14.0099 56.8542 13.5303C56.4619 13.0798 56.273 12.4259 56.273 11.5976C56.273 10.7402 56.4764 10.0862 56.8542 9.62122C57.2466 9.1562 57.7843 8.92369 58.4673 8.92369C59.1358 8.92369 59.6589 9.14166 60.0367 9.59215C60.4146 10.0426 60.618 10.6966 60.618 11.554C60.5889 12.4259 60.4291 13.1089 60.0658 13.5594ZM66.765 10.8855C66.1692 10.6385 65.7914 10.4495 65.617 10.2897C65.4717 10.1444 65.399 9.94092 65.399 9.67934C65.399 9.46137 65.4862 9.24339 65.7042 9.09807C65.9222 8.95275 66.1692 8.88009 66.5325 8.88009C66.8522 8.88009 67.1864 8.93822 67.5061 9.02541C67.8258 9.1126 68.1165 9.24339 68.349 9.41777L68.4216 9.4759V7.703L68.3781 7.68847C68.1601 7.60128 67.8694 7.51409 67.5207 7.44143C67.1719 7.3833 66.8522 7.35424 66.5906 7.35424C65.6896 7.35424 64.9485 7.57222 64.3672 8.05177C63.786 8.50226 63.5099 9.1126 63.5099 9.82466C63.5099 10.2025 63.568 10.5367 63.6988 10.8128C63.8296 11.0889 64.0185 11.3505 64.2801 11.5685C64.5416 11.7719 64.9195 12.0045 65.4426 12.2224C65.8786 12.4113 66.2128 12.5567 66.4162 12.6729C66.6197 12.7892 66.7505 12.92 66.8522 13.0217C66.9249 13.1379 66.9685 13.2833 66.9685 13.4722C66.9685 14.0099 66.5616 14.2714 65.7332 14.2714C65.4135 14.2714 65.0793 14.2133 64.6869 14.0825C64.2946 13.9517 63.9313 13.7628 63.6261 13.5448L63.5535 13.4867V15.3323L63.5971 15.3468C63.8732 15.4776 64.2074 15.5648 64.6143 15.6665C65.0212 15.7392 65.3845 15.7973 65.7042 15.7973C66.6778 15.7973 67.4771 15.5793 68.0438 15.0998C68.6251 14.6347 68.9303 14.0389 68.9303 13.2687C68.9303 12.731 68.7849 12.2515 68.4652 11.8882C68.0438 11.5394 67.5207 11.1761 66.765 10.8855ZM73.9147 7.36877C72.5923 7.36877 71.5315 7.76113 70.7904 8.53132C70.0492 9.30152 69.6714 10.3623 69.6714 11.6993C69.6714 12.949 70.0492 13.9663 70.7758 14.7074C71.5024 15.434 72.4906 15.8118 73.7258 15.8118C75.0191 15.8118 76.0509 15.4195 76.792 14.6347C77.5477 13.85 77.911 12.8037 77.911 11.5104C77.911 10.2316 77.5622 9.21432 76.8502 8.4732C76.1672 7.73207 75.1645 7.36877 73.9147 7.36877ZM75.4115 13.5594C75.0627 14.0099 74.5105 14.2278 73.8275 14.2278C73.13 14.2278 72.5923 14.0099 72.2 13.5303C71.8076 13.0798 71.6187 12.4259 71.6187 11.5976C71.6187 10.7402 71.8221 10.0862 72.2 9.62122C72.5923 9.1562 73.13 8.92369 73.813 8.92369C74.4669 8.92369 75.0046 9.14166 75.3824 9.59215C75.7603 10.0426 75.9637 10.6966 75.9637 11.554C75.9637 12.4259 75.7748 13.1089 75.4115 13.5594ZM88.0107 9.09807V7.54315H86.107V5.15992L86.0489 5.17445L84.2469 5.71213L84.2033 5.72666V7.54315H81.3551V6.52592C81.3551 6.0609 81.4713 5.6976 81.6748 5.46509C81.8782 5.23258 82.1834 5.11632 82.5612 5.11632C82.8228 5.11632 83.0989 5.17445 83.4041 5.30524L83.4767 5.34883V3.70673L83.4331 3.69219C83.1716 3.605 82.8228 3.54688 82.3723 3.54688C81.8055 3.54688 81.3115 3.67766 80.861 3.89564C80.4105 4.14268 80.0762 4.47692 79.8292 4.92741C79.5822 5.36336 79.4514 5.85745 79.4514 6.4242V7.54315H78.129V9.08354H79.4514V15.5938H81.3551V9.09807H84.2033V13.2397C84.2033 14.9399 85.0026 15.7973 86.6011 15.7973C86.8627 15.7973 87.1388 15.7537 87.4003 15.7101C87.6764 15.652 87.8799 15.5793 87.9961 15.5212L88.0107 15.5066V13.9517L87.938 14.0099C87.8218 14.0825 87.72 14.1406 87.5457 14.1842C87.4003 14.2278 87.2696 14.2424 87.1678 14.2424C86.79 14.2424 86.5284 14.1552 86.3395 13.9372C86.1651 13.7338 86.0779 13.3995 86.0779 12.9054V9.09807H88.0107Z" fill="#1D2026"/>
<path d="M0.252441 0.626465H9.16051V9.53453H0.252441V0.626465Z" fill="#F25022"/>
<path d="M10.0906 0.626465H18.9986V9.53453H10.0906V0.626465Z" fill="#7FBA00"/>
<path d="M0.252197 10.4644H9.16026V19.3724H0.252197V10.4644Z" fill="#00A4EF"/>
<path d="M10.0906 10.4644H18.9986V19.3724H10.0906V10.4644Z" fill="#FFB900"/>
</svg>
