<svg width="88" height="18" viewBox="0 0 88 18" fill="none" xmlns="http://www.w3.org/2000/svg">
<path d="M3.00597 11.7955C3.00597 12.8034 3.2272 13.5773 3.51635 14.0454C3.89547 14.6586 4.46093 14.9184 5.03741 14.9184C5.78096 14.9184 6.46117 14.7339 7.77201 12.9209C8.82216 11.4678 10.0596 9.42811 10.8922 8.14939L12.3021 5.98301C13.2816 4.47847 14.4153 2.80595 15.7151 1.67227C16.7763 0.746967 17.921 0.23291 19.073 0.23291C21.0071 0.23291 22.8495 1.35374 24.2595 3.45587C25.8026 5.75811 26.5516 8.65794 26.5516 11.6505C26.5516 13.4295 26.201 14.7367 25.6043 15.7694C25.0278 16.7681 23.9042 17.7659 22.0142 17.7659V14.9184C23.6325 14.9184 24.0364 13.4313 24.0364 11.7294C24.0364 9.30418 23.471 6.61273 22.2253 4.6896C21.3413 3.32552 20.1957 2.49201 18.9353 2.49201C17.5721 2.49201 16.4752 3.52012 15.2424 5.35329C14.5869 6.32724 13.9141 7.51416 13.1586 8.85347L12.3269 10.3268C10.6562 13.289 10.2331 13.9637 9.39772 15.0772C7.93357 17.027 6.68331 17.7659 5.03741 17.7659C3.08491 17.7659 1.85026 16.9205 1.0856 15.6464C0.461384 14.6082 0.154785 13.2459 0.154785 11.6936L3.00597 11.7955Z" fill="#fff"/>
<path d="M2.40308 3.6569C3.71025 1.64198 5.59666 0.23291 7.76029 0.23291C9.0133 0.23291 10.259 0.603766 11.5597 1.66584C12.9826 2.82706 14.499 4.73917 16.3909 7.89053L17.0693 9.02145C18.7069 11.7496 19.6387 13.1532 20.1839 13.815C20.8853 14.6651 21.3764 14.9184 22.0144 14.9184C23.6327 14.9184 24.0366 13.4313 24.0366 11.7294L26.5518 11.6505C26.5518 13.4295 26.2012 14.7367 25.6045 15.7694C25.028 16.7681 23.9044 17.7659 22.0144 17.7659C20.8394 17.7659 19.7984 17.5107 18.6473 16.4248C17.7624 15.5913 16.7278 14.1106 15.932 12.7796L13.5645 8.82501C12.3767 6.84038 11.2871 5.36063 10.6564 4.69052C9.97807 3.96992 9.10601 3.0997 7.71439 3.0997C6.58805 3.0997 5.63154 3.89006 4.83108 5.09901L2.40308 3.6569Z" fill="#fff"/>
<path d="M7.71418 3.0997C6.58784 3.0997 5.63133 3.89006 4.83087 5.09901C3.69903 6.80733 3.00597 9.35192 3.00597 11.7955C3.00597 12.8034 3.22719 13.5773 3.51635 14.0454L1.0856 15.6464C0.461384 14.6082 0.154785 13.2459 0.154785 11.6936C0.154785 8.87091 0.929543 5.92885 2.40287 3.6569C3.71004 1.64198 5.59645 0.23291 7.76008 0.23291L7.71418 3.0997Z" fill="#fff"/>
<path d="M32.0945 0.787109H35.3927L41.0005 10.9324L46.6093 0.787109H49.8359V17.4572H47.1453V4.68109L42.2269 13.5284H39.7025L34.785 4.68109V17.4572H32.0945V0.787109ZM58.2664 7.00261C56.3369 7.00261 55.1747 8.45482 54.8966 10.2531H61.4453C61.3104 8.40066 60.2419 7.00261 58.2664 7.00261ZM52.229 11.2775C52.229 7.49372 54.6744 4.73984 58.3132 4.73984C61.8924 4.73984 64.0294 7.45884 64.0294 11.4795V12.2185H54.8966C55.2206 14.1746 56.5186 15.4928 58.6116 15.4928C60.2813 15.4928 61.3251 14.9833 62.3146 14.0516L63.7439 15.8022C62.3972 17.0405 60.6843 17.7547 58.5161 17.7547C54.5771 17.7547 52.229 14.8824 52.229 11.2775ZM67.2918 7.24128H64.8151V5.03818H67.2918V1.3948H69.8878V5.03818H73.6505V7.24128H69.8878V12.8252C69.8878 14.7318 70.4973 15.4093 71.9954 15.4093C72.6793 15.4093 73.0713 15.3505 73.6505 15.2541V17.4334C72.929 17.6372 72.2405 17.7308 71.4951 17.7308C68.6926 17.7308 67.2918 16.1996 67.2918 13.1346V7.24128ZM84.5816 9.3838C84.0602 8.06744 82.8971 7.09808 81.1879 7.09808C78.9664 7.09808 77.5445 8.67421 77.5445 11.2417C77.5445 13.745 78.8535 15.3973 81.0814 15.3973C82.8328 15.3973 84.0831 14.3784 84.5816 13.1107V9.3838ZM87.1775 17.4572H84.6293V15.7186C83.917 16.7422 82.6208 17.7547 80.5214 17.7547C77.1452 17.7547 74.8888 14.9283 74.8888 11.2417C74.8888 7.52034 77.1993 4.73984 80.6646 4.73984C82.3775 4.73984 83.7214 5.42464 84.6293 6.63359V5.03818H87.1775V17.4572Z" fill="#fff"/>
</svg>
