<svg width="1920" height="525" viewBox="0 0 1920 525" fill="none" xmlns="http://www.w3.org/2000/svg">
<g clip-path="url(#clip0_413_1146)">
<mask id="mask0_413_1146" style="mask-type:alpha" maskUnits="userSpaceOnUse" x="-9" y="1" width="1938" height="523">
<path d="M1928.56 255.925L27.3125 523.625L-8.5668 268.805L1892.68 1.10473L1928.56 255.925Z" fill="url(#paint0_linear_413_1146)"/>
</mask>
<g mask="url(#mask0_413_1146)">
<g filter="url(#filter0_d_413_1146)">
<path d="M-8.29688 433.174C-8.29688 433.174 357.097 222.671 957.773 247.514C1558.44 272.358 1932.76 125.23 1932.76 125.23" stroke="#1675FF"/>
</g>
<g filter="url(#filter1_d_413_1146)">
<path d="M-12.6094 407.805C-12.6094 407.805 358.17 206.938 957.988 247.497C1557.81 288.056 1935.84 150.777 1935.84 150.777" stroke="#1675FF"/>
</g>
<path d="M476.017 286.937C395.198 298.953 323.363 314.436 261.359 330.738" stroke="url(#paint1_linear_413_1146)"/>
<path d="M1574.85 249.37C1500.88 259.215 1416.75 267.322 1323.49 271.572" stroke="url(#paint2_linear_413_1146)"/>
<g filter="url(#filter2_d_413_1146)">
<path d="M-13.25 414.236C-13.25 414.236 357.53 213.37 957.348 253.929C1557.17 294.487 1935.21 157.209 1935.21 157.209" stroke="#1675FF"/>
</g>
<g filter="url(#filter3_d_413_1146)">
<path d="M-18.6172 387.854C-18.6172 387.854 355.612 193.488 954.63 244.51C1553.65 295.53 1934.03 164.87 1934.03 164.87" stroke="#1675FF"/>
</g>
<path d="M1179.63 234.854C1125.16 234.038 1068.22 231.784 1008.98 227.771" stroke="url(#paint3_linear_413_1146)"/>
<g filter="url(#filter4_d_413_1146)">
<path d="M-20.7734 386.773C-20.7734 386.773 356.79 198.969 954.828 260.437C1552.87 321.904 1935.47 197.903 1935.47 197.903" stroke="#1675FF"/>
</g>
<path d="M753.718 270.136C636.809 272.55 531.325 283.698 438.688 299.156" stroke="url(#paint4_linear_413_1146)" stroke-opacity="0.4" stroke-linecap="round"/>
<path d="M-8.29688 433.174C-8.29688 433.174 357.097 222.671 957.773 247.514C1558.44 272.358 1932.76 125.23 1932.76 125.23" stroke="#1675FF"/>
<path d="M-12.6094 407.805C-12.6094 407.805 358.17 206.938 957.988 247.497C1557.81 288.056 1935.84 150.777 1935.84 150.777" stroke="#1675FF"/>
<path d="M476.017 286.937C395.198 298.953 323.363 314.436 261.359 330.738" stroke="url(#paint5_linear_413_1146)"/>
<path d="M1574.85 249.37C1500.88 259.215 1416.75 267.322 1323.49 271.572" stroke="url(#paint6_linear_413_1146)"/>
<path d="M-13.25 414.236C-13.25 414.236 357.53 213.37 957.348 253.929C1557.17 294.487 1935.21 157.209 1935.21 157.209" stroke="#1675FF"/>
<path d="M-18.625 387.855C-18.625 387.855 355.604 193.49 954.623 244.511C1553.64 295.531 1934.02 164.872 1934.02 164.872" stroke="#1675FF"/>
<path d="M1179.63 234.85C1125.16 234.034 1068.22 231.78 1008.98 227.767" stroke="url(#paint7_linear_413_1146)"/>
<path d="M-20.7734 386.771C-20.7734 386.771 356.79 198.967 954.828 260.435C1552.87 321.902 1935.47 197.901 1935.47 197.901" stroke="#1675FF"/>
<path d="M753.718 270.136C636.809 272.55 531.325 283.698 438.688 299.156" stroke="url(#paint8_linear_413_1146)" stroke-opacity="0.4" stroke-linecap="round"/>
<path d="M364.74 313.123C365.474 313.072 366.111 313.626 366.162 314.36C366.213 315.095 365.659 315.732 364.924 315.783C364.189 315.834 363.552 315.279 363.502 314.545C363.451 313.81 364.005 313.173 364.74 313.123Z" fill="#1675FF" fill-opacity="0.466667"/>
<path d="M202.911 292.263C203.646 292.212 204.283 292.766 204.334 293.501C204.385 294.236 203.83 294.873 203.096 294.923C202.361 294.974 201.724 294.42 201.673 293.685C201.623 292.951 202.177 292.314 202.911 292.263Z" fill="#1675FF"/>
<path d="M202.911 292.263C203.646 292.212 204.283 292.766 204.334 293.501C204.385 294.236 203.83 294.873 203.096 294.923C202.361 294.974 201.724 294.42 201.673 293.685C201.623 292.951 202.177 292.314 202.911 292.263Z" fill="#1675FF"/>
<path d="M631.589 219.78C631.956 219.755 632.274 220.032 632.3 220.399C632.325 220.766 632.048 221.085 631.681 221.11C631.313 221.136 630.995 220.858 630.97 220.491C630.944 220.124 631.221 219.805 631.589 219.78Z" fill="white" fill-opacity="0.6"/>
<g filter="url(#filter5_f_413_1146)">
<path d="M1014.11 233.363C1014.85 233.312 1015.49 233.866 1015.54 234.601C1015.59 235.335 1015.03 235.972 1014.3 236.023C1013.56 236.074 1012.93 235.52 1012.88 234.785C1012.83 234.05 1013.38 233.414 1014.11 233.363Z" fill="#1675FF"/>
</g>
<path d="M1635.82 207.645C1636.19 207.62 1636.51 207.897 1636.53 208.264C1636.56 208.632 1636.28 208.95 1635.92 208.975C1635.55 209.001 1635.23 208.724 1635.2 208.356C1635.18 207.989 1635.46 207.671 1635.82 207.645Z" fill="white" fill-opacity="0.6"/>
<path d="M1819.37 243.039C1820.11 242.988 1820.74 243.542 1820.79 244.276C1820.85 245.011 1820.29 245.648 1819.56 245.699C1818.82 245.75 1818.19 245.195 1818.13 244.461C1818.08 243.726 1818.64 243.089 1819.37 243.039Z" fill="#1675FF"/>
<path d="M1791.32 262.359C1792.05 262.308 1792.69 262.862 1792.74 263.597C1792.79 264.331 1792.24 264.968 1791.5 265.019C1790.77 265.07 1790.13 264.516 1790.08 263.781C1790.03 263.047 1790.58 262.41 1791.32 262.359Z" fill="#1675FF"/>
<g filter="url(#filter6_f_413_1146)">
<path d="M1702.73 150.884C1703.1 150.858 1703.41 151.135 1703.44 151.502C1703.47 151.87 1703.19 152.188 1702.82 152.214C1702.45 152.239 1702.14 151.962 1702.11 151.595C1702.08 151.227 1702.36 150.909 1702.73 150.884Z" fill="white" fill-opacity="0.8"/>
</g>
<g filter="url(#filter7_f_413_1146)">
<path d="M487.378 317.987C487.745 317.962 488.063 318.239 488.089 318.606C488.114 318.973 487.837 319.292 487.47 319.317C487.102 319.343 486.784 319.066 486.759 318.698C486.733 318.331 487.01 318.013 487.378 317.987Z" fill="#1675FF"/>
</g>
<path d="M301.2 264.066C301.935 264.015 302.572 264.569 302.623 265.304C302.674 266.038 302.119 266.675 301.385 266.726C300.65 266.777 300.013 266.223 299.962 265.488C299.912 264.754 300.466 264.117 301.2 264.066Z" fill="#1675FF"/>
<g filter="url(#filter8_f_413_1146)">
<path d="M262.419 360.31C263.154 360.259 263.791 360.813 263.842 361.548C263.892 362.283 263.338 362.919 262.604 362.97C261.869 363.021 261.232 362.467 261.181 361.732C261.13 360.998 261.685 360.361 262.419 360.31Z" fill="#1675FF"/>
</g>
<path d="M52.0885 324.102C52.4558 324.077 52.7742 324.354 52.7997 324.721C52.8251 325.089 52.548 325.407 52.1807 325.432C51.8134 325.458 51.495 325.181 51.4695 324.813C51.4441 324.446 51.7212 324.128 52.0885 324.102Z" fill="white" fill-opacity="0.6"/>
<g filter="url(#filter9_f_413_1146)">
<path d="M124.419 393.931C125.154 393.88 125.791 394.434 125.842 395.169C125.892 395.904 125.338 396.54 124.604 396.591C123.869 396.642 123.232 396.088 123.181 395.353C123.13 394.619 123.685 393.982 124.419 393.931Z" fill="#1675FF"/>
</g>
</g>
</g>
<defs>
<filter id="filter0_d_413_1146" x="-19.2057" y="114.099" width="1962.81" height="330.173" filterUnits="userSpaceOnUse" color-interpolation-filters="sRGB">
<feFlood flood-opacity="0" result="BackgroundImageFix"/>
<feColorMatrix in="SourceAlpha" type="matrix" values="0 0 0 0 0 0 0 0 0 0 0 0 0 0 0 0 0 0 127 0" result="hardAlpha"/>
<feOffset/>
<feGaussianBlur stdDeviation="5.33333"/>
<feComposite in2="hardAlpha" operator="out"/>
<feColorMatrix type="matrix" values="0 0 0 0 0.556863 0 0 0 0 0.603922 0 0 0 0 1 0 0 0 0.8 0"/>
<feBlend mode="normal" in2="BackgroundImageFix" result="effect1_dropShadow_413_1146"/>
<feBlend mode="normal" in="SourceGraphic" in2="effect1_dropShadow_413_1146" result="shape"/>
</filter>
<filter id="filter1_d_413_1146" x="-19.5104" y="143.642" width="1962.18" height="271.267" filterUnits="userSpaceOnUse" color-interpolation-filters="sRGB">
<feFlood flood-opacity="0" result="BackgroundImageFix"/>
<feColorMatrix in="SourceAlpha" type="matrix" values="0 0 0 0 0 0 0 0 0 0 0 0 0 0 0 0 0 0 127 0" result="hardAlpha"/>
<feOffset/>
<feGaussianBlur stdDeviation="3.33333"/>
<feComposite in2="hardAlpha" operator="out"/>
<feColorMatrix type="matrix" values="0 0 0 0 0.32549 0 0 0 0 0.466667 0 0 0 0 1 0 0 0 1 0"/>
<feBlend mode="normal" in2="BackgroundImageFix" result="effect1_dropShadow_413_1146"/>
<feBlend mode="normal" in="SourceGraphic" in2="effect1_dropShadow_413_1146" result="shape"/>
</filter>
<filter id="filter2_d_413_1146" x="-20.151" y="150.074" width="1962.19" height="271.267" filterUnits="userSpaceOnUse" color-interpolation-filters="sRGB">
<feFlood flood-opacity="0" result="BackgroundImageFix"/>
<feColorMatrix in="SourceAlpha" type="matrix" values="0 0 0 0 0 0 0 0 0 0 0 0 0 0 0 0 0 0 127 0" result="hardAlpha"/>
<feOffset/>
<feGaussianBlur stdDeviation="3.33333"/>
<feComposite in2="hardAlpha" operator="out"/>
<feColorMatrix type="matrix" values="0 0 0 0 0.32549 0 0 0 0 0.466667 0 0 0 0 1 0 0 0 1 0"/>
<feBlend mode="normal" in2="BackgroundImageFix" result="effect1_dropShadow_413_1146"/>
<feBlend mode="normal" in="SourceGraphic" in2="effect1_dropShadow_413_1146" result="shape"/>
</filter>
<filter id="filter3_d_413_1146" x="-25.5104" y="157.732" width="1966.36" height="237.23" filterUnits="userSpaceOnUse" color-interpolation-filters="sRGB">
<feFlood flood-opacity="0" result="BackgroundImageFix"/>
<feColorMatrix in="SourceAlpha" type="matrix" values="0 0 0 0 0 0 0 0 0 0 0 0 0 0 0 0 0 0 127 0" result="hardAlpha"/>
<feOffset/>
<feGaussianBlur stdDeviation="3.33333"/>
<feComposite in2="hardAlpha" operator="out"/>
<feColorMatrix type="matrix" values="0 0 0 0 0.32549 0 0 0 0 0.466667 0 0 0 0 1 0 0 0 1 0"/>
<feBlend mode="normal" in2="BackgroundImageFix" result="effect1_dropShadow_413_1146"/>
<feBlend mode="normal" in="SourceGraphic" in2="effect1_dropShadow_413_1146" result="shape"/>
</filter>
<filter id="filter4_d_413_1146" x="-27.6589" y="190.761" width="1969.94" height="203.124" filterUnits="userSpaceOnUse" color-interpolation-filters="sRGB">
<feFlood flood-opacity="0" result="BackgroundImageFix"/>
<feColorMatrix in="SourceAlpha" type="matrix" values="0 0 0 0 0 0 0 0 0 0 0 0 0 0 0 0 0 0 127 0" result="hardAlpha"/>
<feOffset/>
<feGaussianBlur stdDeviation="3.33333"/>
<feComposite in2="hardAlpha" operator="out"/>
<feColorMatrix type="matrix" values="0 0 0 0 0.32549 0 0 0 0 0.466667 0 0 0 0 1 0 0 0 1 0"/>
<feBlend mode="normal" in2="BackgroundImageFix" result="effect1_dropShadow_413_1146"/>
<feBlend mode="normal" in="SourceGraphic" in2="effect1_dropShadow_413_1146" result="shape"/>
</filter>
<filter id="filter5_f_413_1146" x="1010.21" y="230.693" width="7.9974" height="7.99935" filterUnits="userSpaceOnUse" color-interpolation-filters="sRGB">
<feFlood flood-opacity="0" result="BackgroundImageFix"/>
<feBlend mode="normal" in="SourceGraphic" in2="BackgroundImageFix" result="shape"/>
<feGaussianBlur stdDeviation="1.33333" result="effect1_foregroundBlur_413_1146"/>
</filter>
<filter id="filter6_f_413_1146" x="1700.78" y="149.549" width="4.0026" height="3.9987" filterUnits="userSpaceOnUse" color-interpolation-filters="sRGB">
<feFlood flood-opacity="0" result="BackgroundImageFix"/>
<feBlend mode="normal" in="SourceGraphic" in2="BackgroundImageFix" result="shape"/>
<feGaussianBlur stdDeviation="0.666667" result="effect1_foregroundBlur_413_1146"/>
</filter>
<filter id="filter7_f_413_1146" x="484.091" y="315.32" width="6.66927" height="6.66536" filterUnits="userSpaceOnUse" color-interpolation-filters="sRGB">
<feFlood flood-opacity="0" result="BackgroundImageFix"/>
<feBlend mode="normal" in="SourceGraphic" in2="BackgroundImageFix" result="shape"/>
<feGaussianBlur stdDeviation="1.33333" result="effect1_foregroundBlur_413_1146"/>
</filter>
<filter id="filter8_f_413_1146" x="258.513" y="357.64" width="7.9974" height="7.99935" filterUnits="userSpaceOnUse" color-interpolation-filters="sRGB">
<feFlood flood-opacity="0" result="BackgroundImageFix"/>
<feBlend mode="normal" in="SourceGraphic" in2="BackgroundImageFix" result="shape"/>
<feGaussianBlur stdDeviation="1.33333" result="effect1_foregroundBlur_413_1146"/>
</filter>
<filter id="filter9_f_413_1146" x="120.513" y="391.261" width="7.9974" height="7.99935" filterUnits="userSpaceOnUse" color-interpolation-filters="sRGB">
<feFlood flood-opacity="0" result="BackgroundImageFix"/>
<feBlend mode="normal" in="SourceGraphic" in2="BackgroundImageFix" result="shape"/>
<feGaussianBlur stdDeviation="1.33333" result="effect1_foregroundBlur_413_1146"/>
</filter>
<linearGradient id="paint0_linear_413_1146" x1="9.37282" y1="396.215" x2="1910.62" y2="128.515" gradientUnits="userSpaceOnUse">
<stop stop-color="#D9D9D9" stop-opacity="0"/>
<stop offset="0.0520833" stop-color="#D9D9D9" stop-opacity="0.709677"/>
<stop offset="0.308407" stop-color="#D9D9D9"/>
<stop offset="0.377427" stop-color="#D9D9D9"/>
<stop offset="0.483755" stop-color="#D9D9D9"/>
<stop offset="0.563613" stop-color="#D9D9D9"/>
<stop offset="0.654793" stop-color="#D9D9D9"/>
<stop offset="0.932292" stop-color="#D9D9D9" stop-opacity="0.444444"/>
<stop offset="1" stop-color="#D9D9D9" stop-opacity="0"/>
</linearGradient>
<linearGradient id="paint1_linear_413_1146" x1="467.882" y1="286.548" x2="367.685" y2="301.226" gradientUnits="userSpaceOnUse">
<stop stop-color="#1675FF"/>
<stop offset="1" stop-color="#1675FF" stop-opacity="0"/>
</linearGradient>
<linearGradient id="paint2_linear_413_1146" x1="1561.23" y1="257.826" x2="1448.47" y2="255.087" gradientUnits="userSpaceOnUse">
<stop stop-color="#1675FF"/>
<stop offset="1" stop-color="#1675FF" stop-opacity="0"/>
</linearGradient>
<linearGradient id="paint3_linear_413_1146" x1="1180.94" y1="234.623" x2="1092.81" y2="218.199" gradientUnits="userSpaceOnUse">
<stop stop-color="#1675FF"/>
<stop offset="1" stop-color="#1675FF" stop-opacity="0"/>
</linearGradient>
<linearGradient id="paint4_linear_413_1146" x1="740.571" y1="272.388" x2="595.23" y2="277.27" gradientUnits="userSpaceOnUse">
<stop stop-color="#1675FF"/>
<stop offset="1" stop-color="#1675FF" stop-opacity="0"/>
</linearGradient>
<linearGradient id="paint5_linear_413_1146" x1="467.882" y1="286.548" x2="367.685" y2="301.226" gradientUnits="userSpaceOnUse">
<stop stop-color="#1675FF"/>
<stop offset="1" stop-color="#1675FF" stop-opacity="0"/>
</linearGradient>
<linearGradient id="paint6_linear_413_1146" x1="1561.23" y1="257.826" x2="1448.47" y2="255.087" gradientUnits="userSpaceOnUse">
<stop stop-color="#1675FF"/>
<stop offset="1" stop-color="#1675FF" stop-opacity="0"/>
</linearGradient>
<linearGradient id="paint7_linear_413_1146" x1="1180.94" y1="234.619" x2="1092.81" y2="218.195" gradientUnits="userSpaceOnUse">
<stop stop-color="#1675FF"/>
<stop offset="1" stop-color="#1675FF" stop-opacity="0"/>
</linearGradient>
<linearGradient id="paint8_linear_413_1146" x1="740.571" y1="272.388" x2="595.23" y2="277.27" gradientUnits="userSpaceOnUse">
<stop stop-color="#1675FF"/>
<stop offset="1" stop-color="#1675FF" stop-opacity="0"/>
</linearGradient>
<clipPath id="clip0_413_1146">
<rect width="1920" height="524" fill="white" transform="matrix(1 0 0 -1 0 524.5)"/>
</clipPath>
</defs>
</svg>
