<svg width="367" height="180" viewBox="0 0 367 180" fill="none" xmlns="http://www.w3.org/2000/svg">
<rect x="28.9414" y="19.5" width="309.117" height="78.3565" rx="9.94164" fill="white" stroke="#EEEEEE"/>
<rect x="18.5" y="29.9414" width="330" height="78.3565" rx="9.94164" fill="white" stroke="#EEEEEE"/>
<rect x="0.5" y="-0.5" width="366" height="117" rx="9.5" transform="matrix(1 0 0 -1 0 159.899)" fill="white" stroke="#EEEEEE"/>
<path d="M326.283 70.353C326.513 69.886 326.628 69.6526 326.785 69.578C326.921 69.5131 327.079 69.5131 327.215 69.578C327.372 69.6526 327.487 69.886 327.717 70.353L329.904 74.7829C329.972 74.9208 330.006 74.9897 330.056 75.0432C330.1 75.0906 330.153 75.129 330.211 75.1563C330.278 75.1871 330.354 75.1982 330.506 75.2204L335.397 75.9354C335.912 76.0107 336.17 76.0483 336.289 76.1741C336.392 76.2836 336.441 76.434 336.421 76.5834C336.399 76.7552 336.212 76.9369 335.839 77.3001L332.301 80.7461C332.191 80.8535 332.136 80.9073 332.1 80.9712C332.069 81.0277 332.049 81.0899 332.041 81.1542C332.032 81.2268 332.045 81.3027 332.071 81.4544L332.906 86.3218C332.994 86.8352 333.038 87.0919 332.955 87.2442C332.883 87.3767 332.755 87.4697 332.607 87.4972C332.437 87.5288 332.206 87.4075 331.745 87.1651L327.372 84.8655C327.236 84.7939 327.168 84.7581 327.096 84.744C327.033 84.7315 326.967 84.7315 326.904 84.744C326.832 84.7581 326.764 84.7939 326.628 84.8655L322.255 87.1651C321.794 87.4075 321.563 87.5288 321.393 87.4972C321.245 87.4697 321.117 87.3767 321.045 87.2442C320.962 87.0919 321.006 86.8352 321.094 86.3218L321.929 81.4544C321.955 81.3027 321.968 81.2268 321.959 81.1542C321.951 81.0899 321.931 81.0277 321.9 80.9712C321.864 80.9073 321.809 80.8535 321.699 80.7461L318.161 77.3001C317.788 76.9369 317.601 76.7552 317.579 76.5834C317.559 76.434 317.608 76.2836 317.711 76.1741C317.83 76.0483 318.088 76.0107 318.603 75.9354L323.494 75.2204C323.646 75.1982 323.722 75.1871 323.789 75.1563C323.847 75.129 323.9 75.0906 323.944 75.0432C323.994 74.9897 324.028 74.9208 324.096 74.7829L326.283 70.353Z" stroke="#FFB11E" stroke-width="2" stroke-linecap="round" stroke-linejoin="round"/>
<rect x="16" y="60.8994" width="37" height="37" rx="10" fill="#00C153"/>
<path d="M26.167 73.1494V85.8213C26.167 89.7588 42.8337 89.7588 42.8337 85.8213V73.1494" fill="white"/>
<path d="M26.167 73.1494V85.8213C26.167 89.7588 42.8337 89.7588 42.8337 85.8213V73.1494" stroke="#00C153" stroke-width="0.886868" stroke-linecap="round" stroke-linejoin="round"/>
<path d="M34.5003 70.0244C29.8982 70.0244 26.167 71.3682 26.167 73.0244C26.167 77.3577 42.8337 77.3577 42.8337 73.0244C42.8337 71.3682 39.1024 70.0244 34.5003 70.0244ZM42.8337 79.139C42.8337 84.0005 26.167 84.0005 26.167 79.139Z" fill="white"/>
<path d="M42.8337 79.139C42.8337 84.0005 26.167 84.0005 26.167 79.139M34.5003 70.0244C29.8982 70.0244 26.167 71.3682 26.167 73.0244C26.167 77.3577 42.8337 77.3577 42.8337 73.0244C42.8337 71.3682 39.1024 70.0244 34.5003 70.0244Z" stroke="#00C153" stroke-width="0.886868" stroke-linecap="round" stroke-linejoin="round"/>
<rect x="67" y="65.8994" width="95" height="12" rx="2" fill="#EEEEEE"/>
<rect x="166" y="65.8994" width="55" height="12" rx="2" fill="#EEEEEE"/>
<rect x="67" y="82.8994" width="61" height="9" rx="2" fill="#EEEEEE"/>
<rect x="132" y="82.8994" width="26" height="9" rx="2" fill="#EEEEEE"/>
<rect x="162" y="82.8994" width="38" height="9" rx="2" fill="#EEEEEE"/>
<path d="M16 109.899L352 109.899" stroke="#EEEEEE"/>
<rect x="-0.5" y="0.5" width="41" height="27" rx="4.5" transform="matrix(-1 0 0 1 351 119.899)" fill="#00C153" stroke="#00C153"/>
<rect x="16" y="131.899" width="267" height="4" rx="2" fill="#EEEEEE"/>
<rect x="16" y="131.899" width="159" height="4" rx="2" fill="#01C053"/>
<path d="M320.5 133.024C320.017 133.024 319.625 133.416 319.625 133.899C319.625 134.383 320.017 134.774 320.5 134.774V133.024ZM341.119 134.518C341.46 134.176 341.46 133.622 341.119 133.281L335.55 127.712C335.209 127.371 334.655 127.371 334.313 127.712C333.971 128.054 333.971 128.608 334.313 128.95L339.263 133.899L334.313 138.849C333.971 139.191 333.971 139.745 334.313 140.087C334.655 140.428 335.209 140.428 335.55 140.087L341.119 134.518ZM320.5 134.774H340.5V133.024H320.5V134.774Z" fill="white"/>
<rect x="169" y="126.899" width="14" height="14" rx="7" fill="url(#paint0_linear_245_2907)"/>
<rect opacity="0.25" x="166" y="123.899" width="20" height="20" rx="10" fill="url(#paint1_linear_245_2907)"/>
<defs>
<linearGradient id="paint0_linear_245_2907" x1="176" y1="99.9975" x2="176" y2="140.899" gradientUnits="userSpaceOnUse">
<stop stop-color="#00C153"/>
<stop offset="1" stop-color="#00BF52"/>
</linearGradient>
<linearGradient id="paint1_linear_245_2907" x1="176" y1="85.468" x2="176" y2="143.899" gradientUnits="userSpaceOnUse">
<stop stop-color="#00C153"/>
<stop offset="1" stop-color="#00BF52"/>
</linearGradient>
</defs>
</svg>
