<svg width="391" height="175" viewBox="0 0 391 175" fill="none" xmlns="http://www.w3.org/2000/svg">
<mask id="mask0_245_2895" style="mask-type:alpha" maskUnits="userSpaceOnUse" x="0" y="9" width="391" height="166">
<rect y="9" width="391" height="166" fill="#D9D9D9"/>
</mask>
<g mask="url(#mask0_245_2895)">
<path opacity="0.05" d="M213.039 -114.502C214.382 -125.934 200.937 -132.162 194.044 -123.321L16.5284 104.248C10.659 111.748 15.6639 123.157 24.8093 123.157H183.783C190.267 123.157 195.295 129.225 194.476 136.112L179.006 268.612C177.641 280.021 191.063 286.248 197.979 277.407L375.472 49.8388C381.341 42.3388 376.336 30.9297 367.191 30.9297H208.217C201.733 30.9297 196.705 24.8615 197.524 17.9751L213.039 -114.502Z" fill="url(#paint0_linear_245_2895)"/>
<rect x="72.5" y="39.5" width="248" height="154" rx="9.94164" fill="white" stroke="#EEEEEE"/>
<rect x="53.5361" y="52.5254" width="285.822" height="141.071" rx="9.5" fill="white" stroke="#EEEEEE"/>
<circle cx="86.543" cy="82.8516" r="14.7432" fill="#F4F4F4"/>
<rect x="112.009" y="77.0439" width="73.2692" height="11.6158" rx="1.78705" fill="#F4F4F4"/>
<rect x="71.7998" y="110.104" width="170.664" height="11.6158" rx="1.78705" fill="#F4F4F4"/>
<rect x="71.7998" y="129.762" width="78.6303" height="11.6158" rx="1.78705" fill="#F4F4F4"/>
<rect x="251.399" y="110.104" width="45.5699" height="11.6158" rx="1.78705" fill="#F4F4F4"/>
<rect x="154.898" y="129.762" width="41.1022" height="11.6158" rx="1.78705" fill="#F4F4F4"/>
<rect x="201.361" y="129.762" width="29.4864" height="11.6158" rx="1.78705" fill="#F4F4F4"/>
<rect x="236.209" y="129.762" width="49.144" height="11.6158" rx="1.78705" fill="#F4F4F4"/>
<rect x="196" y="77.0439" width="25.0187" height="11.6158" rx="1.78705" fill="#F4F4F4"/>
<circle opacity="0.1" cx="196.894" cy="42.1962" r="34.8475" fill="url(#paint1_radial_245_2895)"/>
<circle cx="196.646" cy="42.6464" r="29.6464" fill="url(#paint2_linear_245_2895)"/>
<path d="M192.784 38.5302L197.448 43.6889C197.55 43.7998 197.675 43.887 197.814 43.9444C197.953 44.0017 198.103 44.0279 198.254 44.0211C198.404 44.0142 198.551 43.9745 198.685 43.9046C198.818 43.8348 198.935 43.7366 199.027 43.6169L208.496 30.9282" stroke="white" stroke-width="3" stroke-linecap="round" stroke-linejoin="round"/>
<path d="M208.496 42.7122C208.496 45.0428 207.805 47.3211 206.51 49.259C205.215 51.1968 203.375 52.7072 201.222 53.5991C199.068 54.491 196.699 54.7244 194.413 54.2697C192.127 53.815 190.028 52.6927 188.38 51.0447C186.732 49.3966 185.609 47.2969 185.155 45.0111C184.7 42.7252 184.933 40.3559 185.825 38.2026C186.717 36.0494 188.228 34.209 190.165 32.9142C192.103 31.6193 194.382 30.9282 196.712 30.9282" stroke="white" stroke-width="3" stroke-linecap="round" stroke-linejoin="round"/>
</g>
<defs>
<linearGradient id="paint0_linear_245_2895" x1="196" y1="6.4995" x2="196" y2="216.5" gradientUnits="userSpaceOnUse">
<stop stop-color="#00C153" stop-opacity="0"/>
<stop offset="0.5" stop-color="#00C153"/>
<stop offset="1" stop-color="#00C153" stop-opacity="0"/>
</linearGradient>
<radialGradient id="paint1_radial_245_2895" cx="0" cy="0" r="1" gradientUnits="userSpaceOnUse" gradientTransform="translate(196.894 42.1962) rotate(90) scale(34.8475)">
<stop stop-color="#00C153"/>
<stop offset="1" stop-color="#00C153" stop-opacity="0.42"/>
</radialGradient>
<linearGradient id="paint2_linear_245_2895" x1="196.646" y1="-100.935" x2="196.646" y2="72.2928" gradientUnits="userSpaceOnUse">
<stop stop-color="#00C153"/>
<stop offset="1" stop-color="#00BF52"/>
</linearGradient>
</defs>
</svg>
