<svg width="367" height="175" viewBox="0 0 367 175" fill="none" xmlns="http://www.w3.org/2000/svg">
<path d="M15 25.5H352C360.008 25.5 366.5 31.9919 366.5 40V174.5H0.5V40C0.5 31.9919 6.99187 25.5 15 25.5Z" fill="white" stroke="#EEEEEE"/>
<rect x="14" y="39" width="37" height="37" rx="10" fill="#00C153"/>
<path d="M24.167 51.25V63.9219C24.167 67.8594 40.8337 67.8594 40.8337 63.9219V51.25" fill="white"/>
<path d="M24.167 51.25V63.9219C24.167 67.8594 40.8337 67.8594 40.8337 63.9219V51.25" stroke="#00C153" stroke-width="0.886868" stroke-linecap="round" stroke-linejoin="round"/>
<path d="M32.5003 48.125C27.8982 48.125 24.167 49.4688 24.167 51.125C24.167 55.4583 40.8337 55.4583 40.8337 51.125C40.8337 49.4688 37.1024 48.125 32.5003 48.125ZM40.8337 57.2396C40.8337 62.101 24.167 62.101 24.167 57.2396Z" fill="white"/>
<path d="M40.8337 57.2396C40.8337 62.101 24.167 62.101 24.167 57.2396M32.5003 48.125C27.8982 48.125 24.167 49.4688 24.167 51.125C24.167 55.4583 40.8337 55.4583 40.8337 51.125C40.8337 49.4688 37.1024 48.125 32.5003 48.125Z" stroke="#00C153" stroke-width="0.886868" stroke-linecap="round" stroke-linejoin="round"/>
<rect x="65" y="44" width="231" height="12" rx="2" fill="#EEEEEE"/>
<rect x="118" y="130" width="230" height="18" rx="2.83983" fill="#00C153"/>
<rect x="119" y="131" width="228" height="16" rx="1.83983" stroke="black" stroke-opacity="0.1" stroke-width="2"/>
<rect width="50" height="18" rx="2.83983" transform="matrix(-1 0 0 1 69 130)" fill="#00C1D1"/>
<rect x="-1" y="1" width="48" height="16" rx="1.83983" transform="matrix(-1 0 0 1 67 130)" stroke="black" stroke-opacity="0.1" stroke-width="2"/>
<rect width="39" height="18" rx="2.83983" transform="matrix(-1 0 0 1 113 130)" fill="#1675FF"/>
<rect x="-1" y="1" width="37" height="16" rx="1.83983" transform="matrix(-1 0 0 1 111 130)" stroke="black" stroke-opacity="0.1" stroke-width="2"/>
<rect x="65" y="61" width="73" height="9" rx="2" fill="#EEEEEE"/>
<rect opacity="0.25" x="229" y="101" width="43" height="17" rx="2" fill="#00C153"/>
<rect opacity="0.25" x="233" y="105" width="35" height="9" rx="1" fill="#00C153"/>
<rect x="143" y="61" width="31" height="9" rx="2" fill="#EEEEEE"/>
<rect x="277" y="105" width="27" height="9" rx="2" fill="#EEEEEE"/>
<rect x="179" y="61" width="45" height="9" rx="2" fill="#EEEEEE"/>
<rect x="309" y="105" width="39" height="9" rx="2" fill="#EEEEEE"/>
<circle cx="23.5" cy="160.5" r="4.5" fill="#1675FF"/>
<rect x="33" y="157" width="59" height="7" rx="2" fill="#EEEEEE"/>
<circle cx="106.5" cy="160.5" r="4.5" fill="#00C1D1"/>
<rect x="116" y="157" width="30" height="7" rx="2" fill="#EEEEEE"/>
<circle cx="160.5" cy="160.5" r="4.5" fill="#00C153"/>
<rect x="170" y="157" width="36" height="7" rx="2" fill="#EEEEEE"/>
<rect x="211" y="157" width="17" height="7" rx="2" fill="#EEEEEE"/>
<path d="M14 88L354 88" stroke="#EEEEEE"/>
<path d="M26.2088 101.455V116H23.5739V104.018H23.4886L20.0866 106.192V103.777L23.7017 101.455H26.2088ZM34.7588 116.199C33.8118 116.199 32.9643 116.021 32.2162 115.666C31.4681 115.306 30.8739 114.814 30.4335 114.189C29.9979 113.564 29.7659 112.849 29.7375 112.044H32.2943C32.3417 112.641 32.5997 113.128 33.0685 113.507C33.5372 113.881 34.1007 114.068 34.7588 114.068C35.2749 114.068 35.7342 113.95 36.1366 113.713C36.5391 113.476 36.8563 113.147 37.0884 112.726C37.3204 112.304 37.434 111.824 37.4293 111.284C37.434 110.735 37.318 110.247 37.0813 109.821C36.8445 109.395 36.5202 109.061 36.1082 108.82C35.6963 108.573 35.2228 108.45 34.6878 108.45C34.2522 108.446 33.8237 108.526 33.4023 108.692C32.9809 108.857 32.6471 109.075 32.4009 109.345L30.0216 108.955L30.7815 101.455H39.219V103.656H32.9619L32.5429 107.513H32.6281C32.898 107.196 33.2792 106.933 33.7716 106.724C34.264 106.511 34.8038 106.405 35.3909 106.405C36.2716 106.405 37.0576 106.613 37.7489 107.03C38.4402 107.442 38.9847 108.01 39.3824 108.734C39.7801 109.459 39.979 110.287 39.979 111.22C39.979 112.181 39.7564 113.038 39.3114 113.791C38.871 114.539 38.2579 115.129 37.4719 115.56C36.6906 115.986 35.7863 116.199 34.7588 116.199ZM44.5304 112.577L44.5233 109.473H44.9352L48.8557 105.091H51.8599L47.0375 110.46H46.5048L44.5304 112.577ZM42.1866 116V101.455H44.7577V116H42.1866ZM49.0332 116L45.4821 111.036L47.2151 109.224L52.1085 116H49.0332ZM57.1163 115.141V105.311H59.3464V115.141H57.1163ZM53.3165 111.341V109.111H63.1461V111.341H53.3165Z" fill="#222222"/>
</svg>
