<svg width="410" height="175" viewBox="0 0 410 175" fill="none" xmlns="http://www.w3.org/2000/svg">
<rect x="85.5" y="27.5" width="69" height="55" rx="9.5" fill="white"/>
<rect x="85.5" y="27.5" width="69" height="55" rx="9.5" stroke="#EEEEEE"/>
<g filter="url(#filter0_d_245_2901)">
<g clip-path="url(#clip0_245_2901)">
<g clip-path="url(#clip1_245_2901)">
<rect width="42.6667" height="32" transform="translate(98.6665 39)" fill="white"/>
<path fill-rule="evenodd" clip-rule="evenodd" d="M98.6665 60.3335H141.333V71.0002H98.6665V60.3335Z" fill="#FFD018"/>
<path fill-rule="evenodd" clip-rule="evenodd" d="M98.6665 49.6665H141.333V60.3332H98.6665V49.6665Z" fill="#E31D1C"/>
<path fill-rule="evenodd" clip-rule="evenodd" d="M98.6665 39H141.333V49.6667H98.6665V39Z" fill="#272727"/>
</g>
<rect x="98.6665" y="39" width="42.6667" height="32" fill="url(#paint0_linear_245_2901)" style="mix-blend-mode:overlay"/>
</g>
<rect x="99.3332" y="39.6667" width="41.3333" height="30.6667" rx="2" stroke="black" stroke-opacity="0.1" stroke-width="1.33333" style="mix-blend-mode:multiply"/>
</g>
<g opacity="0.5">
<rect x="37.5" y="92.5" width="69" height="55" rx="9.5" fill="white"/>
<rect x="37.5" y="92.5" width="69" height="55" rx="9.5" stroke="#EEEEEE"/>
</g>
<g opacity="0.5">
<rect x="0.5" y="27.5" width="69" height="55" rx="9.5" fill="white"/>
<rect x="0.5" y="27.5" width="69" height="55" rx="9.5" stroke="#EEEEEE"/>
</g>
<rect x="170.5" y="27.5" width="69" height="55" rx="9.5" fill="white"/>
<rect x="170.5" y="27.5" width="69" height="55" rx="9.5" stroke="#EEEEEE"/>
<g filter="url(#filter1_d_245_2901)">
<g clip-path="url(#clip2_245_2901)">
<g clip-path="url(#clip3_245_2901)">
<rect width="42" height="31.5" transform="translate(184 39.25)" fill="white"/>
<path fill-rule="evenodd" clip-rule="evenodd" d="M184 39.25H226V70.75H184V39.25Z" fill="#F7FCFF"/>
<path fill-rule="evenodd" clip-rule="evenodd" d="M184 58.5V61.125H226V58.5H184Z" fill="#E31D1C"/>
<path fill-rule="evenodd" clip-rule="evenodd" d="M184 63.3125V65.9375H226V63.3125H184Z" fill="#E31D1C"/>
<path fill-rule="evenodd" clip-rule="evenodd" d="M184 48.875V51.5H226V48.875H184Z" fill="#E31D1C"/>
<path fill-rule="evenodd" clip-rule="evenodd" d="M184 68.125V70.75H226V68.125H184Z" fill="#E31D1C"/>
<path fill-rule="evenodd" clip-rule="evenodd" d="M184 53.6875V56.3125H226V53.6875H184Z" fill="#E31D1C"/>
<path fill-rule="evenodd" clip-rule="evenodd" d="M184 39.25V41.875H226V39.25H184Z" fill="#E31D1C"/>
<path fill-rule="evenodd" clip-rule="evenodd" d="M184 44.0625V46.6875H226V44.0625H184Z" fill="#E31D1C"/>
<rect x="184" y="39.25" width="26.25" height="17.0625" fill="#2E42A5"/>
<path fill-rule="evenodd" clip-rule="evenodd" d="M191.51 43.1073L190.558 43.7752L190.879 42.5866L190.033 41.8333H191.138L191.509 40.8633L191.944 41.8333H192.886L192.146 42.5866L192.432 43.7752L191.51 43.1073ZM186.261 43.1075L185.308 43.7754L185.629 42.5868L184.783 41.8335H185.889L186.259 40.8635L186.694 41.8335H187.636L186.896 42.5868L187.182 43.7754L186.261 43.1075ZM195.808 43.7752L196.76 43.1073L197.682 43.7752L197.396 42.5866L198.136 41.8333H197.194L196.759 40.8633L196.388 41.8333H195.283L196.129 42.5866L195.808 43.7752ZM202.01 43.1073L201.058 43.7752L201.379 42.5866L200.533 41.8333H201.638L202.009 40.8633L202.444 41.8333H203.386L202.646 42.5866L202.932 43.7752L202.01 43.1073ZM185.308 49.0252L186.26 48.3573L187.182 49.0252L186.896 47.8366L187.636 47.0833H186.694L186.259 46.1133L185.888 47.0833H184.783L185.629 47.8366L185.308 49.0252ZM191.51 48.3573L190.558 49.0252L190.879 47.8366L190.033 47.0833H191.138L191.509 46.1133L191.944 47.0833H192.886L192.146 47.8366L192.432 49.0252L191.51 48.3573ZM195.808 49.0252L196.76 48.3573L197.682 49.0252L197.396 47.8366L198.136 47.0833H197.194L196.759 46.1133L196.388 47.0833H195.283L196.129 47.8366L195.808 49.0252ZM202.01 48.3573L201.058 49.0252L201.379 47.8366L200.533 47.0833H201.638L202.009 46.1133L202.444 47.0833H203.386L202.646 47.8366L202.932 49.0252L202.01 48.3573ZM185.308 54.2752L186.26 53.6073L187.182 54.2752L186.896 53.0866L187.636 52.3333H186.694L186.259 51.3633L185.888 52.3333H184.783L185.629 53.0866L185.308 54.2752ZM191.51 53.6073L190.558 54.2752L190.879 53.0866L190.033 52.3333H191.138L191.509 51.3633L191.944 52.3333H192.886L192.146 53.0866L192.432 54.2752L191.51 53.6073ZM195.808 54.2752L196.76 53.6073L197.682 54.2752L197.396 53.0866L198.136 52.3333H197.194L196.759 51.3633L196.388 52.3333H195.283L196.129 53.0866L195.808 54.2752ZM202.01 53.6073L201.058 54.2752L201.379 53.0866L200.533 52.3333H201.638L202.009 51.3633L202.444 52.3333H203.386L202.646 53.0866L202.932 54.2752L202.01 53.6073ZM206.308 43.7752L207.26 43.1073L208.182 43.7752L207.896 42.5866L208.636 41.8333H207.694L207.259 40.8633L206.888 41.8333H205.783L206.629 42.5866L206.308 43.7752ZM207.26 48.3573L206.308 49.0252L206.629 47.8366L205.783 47.0833H206.888L207.259 46.1133L207.694 47.0833H208.636L207.896 47.8366L208.182 49.0252L207.26 48.3573ZM206.308 54.2752L207.26 53.6073L208.182 54.2752L207.896 53.0866L208.636 52.3333H207.694L207.259 51.3633L206.888 52.3333H205.783L206.629 53.0866L206.308 54.2752ZM188.885 45.7323L187.933 46.4002L188.254 45.2116L187.408 44.4583H188.513L188.884 43.4883L189.319 44.4583H190.261L189.521 45.2116L189.807 46.4002L188.885 45.7323ZM193.183 46.4002L194.135 45.7323L195.057 46.4002L194.771 45.2116L195.511 44.4583H194.569L194.134 43.4883L193.763 44.4583H192.658L193.504 45.2116L193.183 46.4002ZM199.385 45.7323L198.433 46.4002L198.754 45.2116L197.908 44.4583H199.013L199.384 43.4883L199.819 44.4583H200.761L200.021 45.2116L200.307 46.4002L199.385 45.7323ZM187.933 51.6502L188.885 50.9823L189.807 51.6502L189.521 50.4616L190.261 49.7083H189.319L188.884 48.7383L188.513 49.7083H187.408L188.254 50.4616L187.933 51.6502ZM194.135 50.9823L193.183 51.6502L193.504 50.4616L192.658 49.7083H193.763L194.134 48.7383L194.569 49.7083H195.511L194.771 50.4616L195.057 51.6502L194.135 50.9823ZM198.433 51.6502L199.385 50.9823L200.307 51.6502L200.021 50.4616L200.761 49.7083H199.819L199.384 48.7383L199.013 49.7083H197.908L198.754 50.4616L198.433 51.6502ZM204.635 45.7323L203.683 46.4002L204.004 45.2116L203.158 44.4583H204.263L204.634 43.4883L205.069 44.4583H206.011L205.271 45.2116L205.557 46.4002L204.635 45.7323ZM203.683 51.6502L204.635 50.9823L205.557 51.6502L205.271 50.4616L206.011 49.7083H205.069L204.634 48.7383L204.263 49.7083H203.158L204.004 50.4616L203.683 51.6502Z" fill="#F7FCFF"/>
</g>
<rect x="184" y="39.25" width="42" height="31.5" fill="url(#paint1_linear_245_2901)" style="mix-blend-mode:overlay"/>
</g>
<rect x="184.656" y="39.9062" width="40.6875" height="30.1875" rx="1.96875" stroke="black" stroke-opacity="0.1" stroke-width="1.3125" style="mix-blend-mode:multiply"/>
</g>
<rect x="255.5" y="27.5" width="69" height="55" rx="9.5" fill="white"/>
<rect x="255.5" y="27.5" width="69" height="55" rx="9.5" stroke="#EEEEEE"/>
<g filter="url(#filter2_d_245_2901)">
<g clip-path="url(#clip4_245_2901)">
<g clip-path="url(#clip5_245_2901)">
<rect width="42" height="31.5" transform="translate(269 39.25)" fill="white"/>
<path fill-rule="evenodd" clip-rule="evenodd" d="M269 39.25V70.75H311V39.25H269Z" fill="#F7FCFF"/>
<mask id="mask0_245_2901" style="mask-type:luminance" maskUnits="userSpaceOnUse" x="269" y="39" width="42" height="32">
<path fill-rule="evenodd" clip-rule="evenodd" d="M269 39.25V70.75H311V39.25H269Z" fill="white"/>
</mask>
<g mask="url(#mask0_245_2901)">
<path fill-rule="evenodd" clip-rule="evenodd" d="M269 39.25V49.75H311V39.25H269Z" fill="#E31D1C"/>
<path fill-rule="evenodd" clip-rule="evenodd" d="M269 60.25V70.75H311V60.25H269Z" fill="#3D58DB"/>
</g>
</g>
<rect x="269" y="39.25" width="42" height="31.5" fill="url(#paint2_linear_245_2901)" style="mix-blend-mode:overlay"/>
</g>
<rect x="269.656" y="39.9062" width="40.6875" height="30.1875" rx="1.96875" stroke="black" stroke-opacity="0.1" stroke-width="1.3125" style="mix-blend-mode:multiply"/>
</g>
<g opacity="0.5">
<rect x="292.5" y="92.5" width="69" height="55" rx="9.5" fill="white"/>
<rect x="292.5" y="92.5" width="69" height="55" rx="9.5" stroke="#EEEEEE"/>
</g>
<g opacity="0.5">
<rect x="340.5" y="27.5" width="69" height="55" rx="9.5" fill="white"/>
<rect x="340.5" y="27.5" width="69" height="55" rx="9.5" stroke="#EEEEEE"/>
</g>
<rect x="122.5" y="92.5" width="69" height="55" rx="9.5" fill="white"/>
<rect x="122.5" y="92.5" width="69" height="55" rx="9.5" stroke="#EEEEEE"/>
<g filter="url(#filter3_d_245_2901)">
<g clip-path="url(#clip6_245_2901)">
<g clip-path="url(#clip7_245_2901)">
<rect width="42" height="31.5" transform="translate(136 104.25)" fill="white"/>
<path fill-rule="evenodd" clip-rule="evenodd" d="M146.5 104.25H167.5V135.75H146.5V104.25Z" fill="#F7FCFF"/>
<path fill-rule="evenodd" clip-rule="evenodd" d="M156.969 113.438L157 129.188H156.213L156.696 125.29C153.165 125.925 151.546 126.083 151.838 125.762C152.129 125.442 152.359 124.987 152.528 124.4L147.812 121.254C148.308 121.248 148.758 121.125 149.161 120.885C149.565 120.645 149.363 119.813 148.556 118.391L150.937 118.737L151.838 117.758L153.634 119.638H154.441L153.634 115.332L155.081 116.14L156.969 113.438ZM156.969 113.438L158.919 116.14L160.367 115.332L159.559 119.638H160.367L162.163 117.758L163.063 118.737L165.444 118.391C164.637 119.813 164.435 120.645 164.839 120.885C165.242 121.125 165.692 121.248 166.188 121.254L161.473 124.4C161.641 124.987 161.871 125.442 162.163 125.762C162.455 126.083 160.835 125.925 157.304 125.29L157.787 129.188H157L156.969 113.438Z" fill="#E31D1C"/>
<path fill-rule="evenodd" clip-rule="evenodd" d="M167.5 104.25H178V135.75H167.5V104.25Z" fill="#E31D1C"/>
<path fill-rule="evenodd" clip-rule="evenodd" d="M136 104.25H146.5V135.75H136V104.25Z" fill="#E31D1C"/>
</g>
<rect x="136" y="104.25" width="42" height="31.5" fill="url(#paint3_linear_245_2901)" style="mix-blend-mode:overlay"/>
</g>
<rect x="136.656" y="104.906" width="40.6875" height="30.1875" rx="1.96875" stroke="black" stroke-opacity="0.1" stroke-width="1.3125" style="mix-blend-mode:multiply"/>
</g>
<rect x="207.5" y="92.5" width="69" height="55" rx="9.5" fill="white"/>
<rect x="207.5" y="92.5" width="69" height="55" rx="9.5" stroke="#EEEEEE"/>
<g filter="url(#filter4_d_245_2901)">
<g clip-path="url(#clip8_245_2901)">
<g clip-path="url(#clip9_245_2901)">
<rect width="42" height="31.5" transform="translate(221 104.25)" fill="white"/>
<path fill-rule="evenodd" clip-rule="evenodd" d="M221 104.25V135.75H263V104.25H221Z" fill="#2E42A5"/>
<mask id="mask1_245_2901" style="mask-type:luminance" maskUnits="userSpaceOnUse" x="221" y="104" width="42" height="32">
<path fill-rule="evenodd" clip-rule="evenodd" d="M221 104.25V135.75H263V104.25H221Z" fill="white"/>
</mask>
<g mask="url(#mask1_245_2901)">
<path d="M216.323 133.499L225.565 137.408L263.21 108.499L268.085 102.691L258.201 101.384L242.847 113.842L230.489 122.235L216.323 133.499Z" fill="white"/>
<path d="M217.588 136.238L222.297 138.506L266.334 102.151H259.723L217.588 136.238Z" fill="#F50100"/>
<path d="M267.676 133.499L258.434 137.408L220.79 108.499L215.915 102.691L225.798 101.384L241.152 113.842L253.511 122.235L267.676 133.499Z" fill="white"/>
<path d="M267.361 135.465L262.652 137.733L243.901 122.168L238.342 120.428L215.446 102.711H222.057L244.94 120.008L251.018 122.093L267.361 135.465Z" fill="#F50100"/>
<mask id="path-51-inside-1_245_2901" fill="white">
<path fill-rule="evenodd" clip-rule="evenodd" d="M246.959 101.625H237.042V114.75H218.411V125.25H237.042V138.375H246.959V125.25H265.661V114.75H246.959V101.625Z"/>
</mask>
<path fill-rule="evenodd" clip-rule="evenodd" d="M246.959 101.625H237.042V114.75H218.411V125.25H237.042V138.375H246.959V125.25H265.661V114.75H246.959V101.625Z" fill="#F50100"/>
<path d="M237.042 101.625V99H234.417V101.625H237.042ZM246.959 101.625H249.584V99H246.959V101.625ZM237.042 114.75V117.375H239.667V114.75H237.042ZM218.411 114.75V112.125H215.786V114.75H218.411ZM218.411 125.25H215.786V127.875H218.411V125.25ZM237.042 125.25H239.667V122.625H237.042V125.25ZM237.042 138.375H234.417V141H237.042V138.375ZM246.959 138.375V141H249.584V138.375H246.959ZM246.959 125.25V122.625H244.334V125.25H246.959ZM265.661 125.25V127.875H268.286V125.25H265.661ZM265.661 114.75H268.286V112.125H265.661V114.75ZM246.959 114.75H244.334V117.375H246.959V114.75ZM237.042 104.25H246.959V99H237.042V104.25ZM239.667 114.75V101.625H234.417V114.75H239.667ZM218.411 117.375H237.042V112.125H218.411V117.375ZM221.036 125.25V114.75H215.786V125.25H221.036ZM237.042 122.625H218.411V127.875H237.042V122.625ZM239.667 138.375V125.25H234.417V138.375H239.667ZM246.959 135.75H237.042V141H246.959V135.75ZM244.334 125.25V138.375H249.584V125.25H244.334ZM265.661 122.625H246.959V127.875H265.661V122.625ZM263.036 114.75V125.25H268.286V114.75H263.036ZM246.959 117.375H265.661V112.125H246.959V117.375ZM244.334 101.625V114.75H249.584V101.625H244.334Z" fill="white" mask="url(#path-51-inside-1_245_2901)"/>
</g>
</g>
<rect x="221" y="104.25" width="42" height="31.5" fill="url(#paint4_linear_245_2901)" style="mix-blend-mode:overlay"/>
</g>
<rect x="221.656" y="104.906" width="40.6875" height="30.1875" rx="1.96875" stroke="black" stroke-opacity="0.1" stroke-width="1.3125" style="mix-blend-mode:multiply"/>
</g>
<defs>
<filter id="filter0_d_245_2901" x="94.6665" y="37.6667" width="50.6665" height="40" filterUnits="userSpaceOnUse" color-interpolation-filters="sRGB">
<feFlood flood-opacity="0" result="BackgroundImageFix"/>
<feColorMatrix in="SourceAlpha" type="matrix" values="0 0 0 0 0 0 0 0 0 0 0 0 0 0 0 0 0 0 127 0" result="hardAlpha"/>
<feOffset dy="2.66667"/>
<feGaussianBlur stdDeviation="2"/>
<feColorMatrix type="matrix" values="0 0 0 0 0 0 0 0 0 0 0 0 0 0 0 0 0 0 0.1 0"/>
<feBlend mode="normal" in2="BackgroundImageFix" result="effect1_dropShadow_245_2901"/>
<feBlend mode="normal" in="SourceGraphic" in2="effect1_dropShadow_245_2901" result="shape"/>
</filter>
<filter id="filter1_d_245_2901" x="180.062" y="37.9375" width="49.875" height="39.375" filterUnits="userSpaceOnUse" color-interpolation-filters="sRGB">
<feFlood flood-opacity="0" result="BackgroundImageFix"/>
<feColorMatrix in="SourceAlpha" type="matrix" values="0 0 0 0 0 0 0 0 0 0 0 0 0 0 0 0 0 0 127 0" result="hardAlpha"/>
<feOffset dy="2.625"/>
<feGaussianBlur stdDeviation="1.96875"/>
<feColorMatrix type="matrix" values="0 0 0 0 0 0 0 0 0 0 0 0 0 0 0 0 0 0 0.1 0"/>
<feBlend mode="normal" in2="BackgroundImageFix" result="effect1_dropShadow_245_2901"/>
<feBlend mode="normal" in="SourceGraphic" in2="effect1_dropShadow_245_2901" result="shape"/>
</filter>
<filter id="filter2_d_245_2901" x="265.062" y="37.9375" width="49.875" height="39.375" filterUnits="userSpaceOnUse" color-interpolation-filters="sRGB">
<feFlood flood-opacity="0" result="BackgroundImageFix"/>
<feColorMatrix in="SourceAlpha" type="matrix" values="0 0 0 0 0 0 0 0 0 0 0 0 0 0 0 0 0 0 127 0" result="hardAlpha"/>
<feOffset dy="2.625"/>
<feGaussianBlur stdDeviation="1.96875"/>
<feColorMatrix type="matrix" values="0 0 0 0 0 0 0 0 0 0 0 0 0 0 0 0 0 0 0.1 0"/>
<feBlend mode="normal" in2="BackgroundImageFix" result="effect1_dropShadow_245_2901"/>
<feBlend mode="normal" in="SourceGraphic" in2="effect1_dropShadow_245_2901" result="shape"/>
</filter>
<filter id="filter3_d_245_2901" x="132.062" y="102.938" width="49.875" height="39.375" filterUnits="userSpaceOnUse" color-interpolation-filters="sRGB">
<feFlood flood-opacity="0" result="BackgroundImageFix"/>
<feColorMatrix in="SourceAlpha" type="matrix" values="0 0 0 0 0 0 0 0 0 0 0 0 0 0 0 0 0 0 127 0" result="hardAlpha"/>
<feOffset dy="2.625"/>
<feGaussianBlur stdDeviation="1.96875"/>
<feColorMatrix type="matrix" values="0 0 0 0 0 0 0 0 0 0 0 0 0 0 0 0 0 0 0.1 0"/>
<feBlend mode="normal" in2="BackgroundImageFix" result="effect1_dropShadow_245_2901"/>
<feBlend mode="normal" in="SourceGraphic" in2="effect1_dropShadow_245_2901" result="shape"/>
</filter>
<filter id="filter4_d_245_2901" x="217.062" y="102.938" width="49.875" height="39.375" filterUnits="userSpaceOnUse" color-interpolation-filters="sRGB">
<feFlood flood-opacity="0" result="BackgroundImageFix"/>
<feColorMatrix in="SourceAlpha" type="matrix" values="0 0 0 0 0 0 0 0 0 0 0 0 0 0 0 0 0 0 127 0" result="hardAlpha"/>
<feOffset dy="2.625"/>
<feGaussianBlur stdDeviation="1.96875"/>
<feColorMatrix type="matrix" values="0 0 0 0 0 0 0 0 0 0 0 0 0 0 0 0 0 0 0.1 0"/>
<feBlend mode="normal" in2="BackgroundImageFix" result="effect1_dropShadow_245_2901"/>
<feBlend mode="normal" in="SourceGraphic" in2="effect1_dropShadow_245_2901" result="shape"/>
</filter>
<linearGradient id="paint0_linear_245_2901" x1="141.333" y1="39" x2="98.6665" y2="71" gradientUnits="userSpaceOnUse">
<stop stop-color="white" stop-opacity="0.3"/>
<stop offset="0.262741" stop-opacity="0.27"/>
<stop offset="0.369956" stop-color="white" stop-opacity="0.26"/>
<stop offset="0.487001" stop-opacity="0.55"/>
<stop offset="0.594445" stop-opacity="0.24"/>
<stop offset="0.736408" stop-color="white" stop-opacity="0.3"/>
<stop offset="0.901459" stop-color="#272727" stop-opacity="0.22"/>
<stop offset="1" stop-opacity="0.2"/>
</linearGradient>
<linearGradient id="paint1_linear_245_2901" x1="226" y1="39.25" x2="184" y2="70.75" gradientUnits="userSpaceOnUse">
<stop stop-color="white" stop-opacity="0.3"/>
<stop offset="0.262741" stop-opacity="0.27"/>
<stop offset="0.369956" stop-color="white" stop-opacity="0.26"/>
<stop offset="0.487001" stop-opacity="0.55"/>
<stop offset="0.594445" stop-opacity="0.24"/>
<stop offset="0.736408" stop-color="white" stop-opacity="0.3"/>
<stop offset="0.901459" stop-color="#272727" stop-opacity="0.22"/>
<stop offset="1" stop-opacity="0.2"/>
</linearGradient>
<linearGradient id="paint2_linear_245_2901" x1="311" y1="39.25" x2="269" y2="70.75" gradientUnits="userSpaceOnUse">
<stop stop-color="white" stop-opacity="0.3"/>
<stop offset="0.262741" stop-opacity="0.27"/>
<stop offset="0.369956" stop-color="white" stop-opacity="0.26"/>
<stop offset="0.487001" stop-opacity="0.55"/>
<stop offset="0.594445" stop-opacity="0.24"/>
<stop offset="0.736408" stop-color="white" stop-opacity="0.3"/>
<stop offset="0.901459" stop-color="#272727" stop-opacity="0.22"/>
<stop offset="1" stop-opacity="0.2"/>
</linearGradient>
<linearGradient id="paint3_linear_245_2901" x1="178" y1="104.25" x2="136" y2="135.75" gradientUnits="userSpaceOnUse">
<stop stop-color="white" stop-opacity="0.3"/>
<stop offset="0.262741" stop-opacity="0.27"/>
<stop offset="0.369956" stop-color="white" stop-opacity="0.26"/>
<stop offset="0.487001" stop-opacity="0.55"/>
<stop offset="0.594445" stop-opacity="0.24"/>
<stop offset="0.736408" stop-color="white" stop-opacity="0.3"/>
<stop offset="0.901459" stop-color="#272727" stop-opacity="0.22"/>
<stop offset="1" stop-opacity="0.2"/>
</linearGradient>
<linearGradient id="paint4_linear_245_2901" x1="263" y1="104.25" x2="221" y2="135.75" gradientUnits="userSpaceOnUse">
<stop stop-color="white" stop-opacity="0.3"/>
<stop offset="0.262741" stop-opacity="0.27"/>
<stop offset="0.369956" stop-color="white" stop-opacity="0.26"/>
<stop offset="0.487001" stop-opacity="0.55"/>
<stop offset="0.594445" stop-opacity="0.24"/>
<stop offset="0.736408" stop-color="white" stop-opacity="0.3"/>
<stop offset="0.901459" stop-color="#272727" stop-opacity="0.22"/>
<stop offset="1" stop-opacity="0.2"/>
</linearGradient>
<clipPath id="clip0_245_2901">
<rect x="98.6665" y="39" width="42.6667" height="32" rx="2.66667" fill="white"/>
</clipPath>
<clipPath id="clip1_245_2901">
<rect width="42.6667" height="32" fill="white" transform="translate(98.6665 39)"/>
</clipPath>
<clipPath id="clip2_245_2901">
<rect x="184" y="39.25" width="42" height="31.5" rx="2.625" fill="white"/>
</clipPath>
<clipPath id="clip3_245_2901">
<rect width="42" height="31.5" fill="white" transform="translate(184 39.25)"/>
</clipPath>
<clipPath id="clip4_245_2901">
<rect x="269" y="39.25" width="42" height="31.5" rx="2.625" fill="white"/>
</clipPath>
<clipPath id="clip5_245_2901">
<rect width="42" height="31.5" fill="white" transform="translate(269 39.25)"/>
</clipPath>
<clipPath id="clip6_245_2901">
<rect x="136" y="104.25" width="42" height="31.5" rx="2.625" fill="white"/>
</clipPath>
<clipPath id="clip7_245_2901">
<rect width="42" height="31.5" fill="white" transform="translate(136 104.25)"/>
</clipPath>
<clipPath id="clip8_245_2901">
<rect x="221" y="104.25" width="42" height="31.5" rx="2.625" fill="white"/>
</clipPath>
<clipPath id="clip9_245_2901">
<rect width="42" height="31.5" fill="white" transform="translate(221 104.25)"/>
</clipPath>
</defs>
</svg>
