<svg width="120" height="21" viewBox="0 0 120 21" fill="none" xmlns="http://www.w3.org/2000/svg">
<g clip-path="url(#clip0_2238_18712)">
<path d="M27.7969 5.5918H31.2387C32.8847 5.5918 34.1317 6.00757 34.9797 6.83813C35.8275 7.66947 36.2516 8.85624 36.2516 10.3984V11.2343C36.2516 12.757 35.8226 13.9392 34.9645 14.7798C34.1064 15.6208 32.8646 16.0413 31.2386 16.0413H27.7969V5.5918ZM29.5926 7.17402V14.4587H31.2387C32.2762 14.4587 33.0567 14.195 33.5804 13.6678C34.1044 13.1402 34.366 12.3291 34.366 11.2343V10.3984C34.366 9.31425 34.1016 8.50537 33.573 7.97263C33.0442 7.44069 32.2659 7.17402 31.2386 7.17402H29.5926Z" fill="#2E2832"/>
<path d="M41.0403 16.1764C39.913 16.1764 39.0327 15.8579 38.3993 15.221C37.7656 14.5841 37.4492 13.6932 37.4492 12.5488V12.0709C37.4492 11.5037 37.5314 10.9964 37.696 10.5483C37.8605 10.1006 38.1001 9.71989 38.4143 9.4065C38.7284 9.09311 39.1051 8.85424 39.544 8.6899C39.9827 8.52585 40.4816 8.44336 41.0403 8.44336C42.1677 8.44336 43.048 8.76232 43.6816 9.39882C44.3151 10.0357 44.632 10.9266 44.632 12.0709V12.5488C44.632 13.1161 44.5498 13.6234 44.3851 14.0715C44.2204 14.5192 43.9812 14.8999 43.6668 15.2133C43.3524 15.5267 42.9732 15.7656 42.5293 15.9298C42.0854 16.0938 41.589 16.1764 41.0403 16.1764ZM41.0403 14.5638C41.609 14.5638 42.0455 14.3997 42.3498 14.0713C42.654 13.7427 42.8063 13.2354 42.8063 12.5487V12.0707C42.8063 11.3942 42.6489 10.8891 42.3349 10.5557C42.0208 10.2224 41.589 10.0558 41.0405 10.0558C40.4719 10.0558 40.0353 10.2199 39.7312 10.5483C39.4268 10.8769 39.2749 11.3841 39.2749 12.0709V12.5488C39.2749 13.2253 39.4317 13.7305 39.7461 14.0638C40.0605 14.3971 40.4919 14.5638 41.0403 14.5638Z" fill="#2E2832"/>
<path d="M46.763 15.407C46.3389 14.9839 46.127 14.3747 46.127 13.5783V5.5918H47.8627V13.3991C47.8627 13.7869 47.9476 14.0709 48.1172 14.2501C48.2868 14.4291 48.546 14.5189 48.8954 14.5189H49.2695V16.0415H48.581C47.793 16.0413 47.187 15.8297 46.763 15.407Z" fill="#2E2832"/>
<path d="M54.3133 16.1766C53.3753 16.1766 52.6471 15.8827 52.1283 15.2955V19.0276H50.3926V8.5779H51.7542L51.9189 9.59324C52.1781 9.20511 52.5099 8.91637 52.9138 8.72703C53.3179 8.53824 53.7842 8.44336 54.3133 8.44336C54.7421 8.44336 55.1386 8.5207 55.5029 8.67476C55.8669 8.82959 56.1785 9.05838 56.4381 9.36149C56.6973 9.66544 56.902 10.0436 57.0515 10.4964C57.2011 10.9492 57.276 11.4739 57.276 12.0709V12.5488C57.276 13.1459 57.2011 13.6683 57.0515 14.1163C56.9018 14.564 56.6947 14.9425 56.4304 15.2508C56.1661 15.5595 55.8544 15.7908 55.4952 15.9446C55.1362 16.099 54.7421 16.1766 54.3133 16.1766ZM53.7893 14.564C54.3178 14.564 54.7271 14.405 55.0165 14.0865C55.3056 13.7679 55.4505 13.2555 55.4505 12.5488V12.0709C55.4505 11.3841 55.3008 10.8769 55.0017 10.5483C54.7024 10.2201 54.2984 10.0558 53.7895 10.0558C53.3108 10.0558 52.9192 10.2199 52.6146 10.5483C52.3104 10.8769 52.1483 11.3546 52.1283 11.9816V12.5488C52.1283 13.2055 52.2857 13.7055 52.5996 14.049C52.9138 14.3924 53.3106 14.564 53.7893 14.564Z" fill="#2E2832"/>
<path d="M58.7715 5.5918H60.5074V9.21936C61.0061 8.70183 61.6992 8.44282 62.5874 8.44282C63.5052 8.44282 64.2207 8.71402 64.7346 9.25663C65.2485 9.79923 65.5053 10.6173 65.5053 11.7122V16.0413H63.7696V11.7122C63.7696 11.1649 63.6373 10.7517 63.3729 10.4731C63.1084 10.1947 62.7468 10.0552 62.288 10.0552C61.7493 10.0552 61.3228 10.1994 61.0086 10.4881C60.6942 10.7769 60.527 11.1599 60.5074 11.6375V16.0413H58.7715V5.5918Z" fill="#2E2832"/>
<path d="M68.3197 7.68179C68.0004 7.68179 67.7337 7.57509 67.5191 7.36069C67.3042 7.14689 67.1973 6.88062 67.1973 6.56209C67.1973 6.24355 67.3042 5.97748 67.5191 5.76348C67.7335 5.54968 68.0004 5.44238 68.3197 5.44238C68.6287 5.44238 68.8935 5.54948 69.1129 5.76348C69.332 5.97728 69.4419 6.24355 69.4419 6.56209C69.4419 6.88062 69.332 7.14669 69.1129 7.36069C68.8935 7.57509 68.6287 7.68179 68.3197 7.68179ZM67.4519 8.57727H69.1877V16.0414H67.4519V8.57727Z" fill="#2E2832"/>
<path d="M71.2077 8.5779H72.5687L72.7039 9.41376C73.2618 8.76704 74.0352 8.44336 75.0235 8.44336C75.9407 8.44336 76.6564 8.71456 77.1706 9.25717C77.6841 9.79977 77.9412 10.6179 77.9412 11.7127V16.0421H76.2055V11.713C76.2055 11.1656 76.0724 10.7524 75.8083 10.4739C75.5441 10.1954 75.1827 10.056 74.7242 10.056C74.1853 10.056 73.7584 10.2002 73.4442 10.4889C73.1301 10.7776 72.9624 11.1607 72.9434 11.6382V16.0421H71.207L71.2077 8.5779Z" fill="#2E2832"/>
<path d="M84.2264 6.5474H83.5382C82.4006 6.5474 81.8321 7.14443 81.8321 8.33892V10.2791C81.8321 10.7272 81.7645 11.1278 81.63 11.4809C81.4954 11.8347 81.1982 12.1106 80.7396 12.3096C80.9692 12.4193 81.1559 12.5436 81.3003 12.683C81.4454 12.8224 81.5574 12.9789 81.637 13.1528C81.7173 13.3271 81.7695 13.5137 81.7948 13.7127C81.8195 13.9118 81.8321 14.121 81.8321 14.3396V16.2802C81.8321 17.4746 82.4006 18.0716 83.5382 18.0716H84.2264V19.0271H83.5382C81.7025 19.0271 80.7847 18.1111 80.7847 16.2802V14.3394C80.7847 13.8122 80.667 13.4315 80.4332 13.1976C80.1986 12.9637 79.9169 12.8221 79.5879 12.7719V11.8467C79.9169 11.797 80.1986 11.655 80.4332 11.4211C80.667 11.1871 80.7847 10.8067 80.7847 10.2789V8.33871C80.7847 6.50776 81.7025 5.5918 83.5382 5.5918H84.2264V6.5474Z" fill="#2E2832"/>
<path d="M87.8938 16.1453C87.1458 16.1453 86.5717 15.954 86.173 15.5708C85.7736 15.1877 85.5742 14.6578 85.5742 13.9809C85.5742 13.6225 85.632 13.2967 85.7461 13.0028C85.8609 12.7093 86.0455 12.4631 86.2998 12.2642C86.5548 12.0652 86.8809 11.9107 87.2803 11.801C87.679 11.6917 88.158 11.6369 88.7166 11.6369H90.4227V10.9651C90.4227 10.4281 90.2903 10.0322 90.0261 9.77835C89.7619 9.52491 89.3252 9.39769 88.7166 9.39769C88.1679 9.39769 87.7565 9.50483 87.4818 9.71883C87.2077 9.93318 87.0507 10.224 87.0112 10.5922H85.9483C85.968 10.2835 86.0384 10.0002 86.1575 9.7413C86.2772 9.48236 86.4519 9.25864 86.6816 9.0695C86.9112 8.88037 87.1951 8.73364 87.5346 8.62911C87.8741 8.52492 88.2679 8.47266 88.7166 8.47266C89.6042 8.47266 90.2755 8.69159 90.7298 9.12931C91.1834 9.56731 91.4103 10.1796 91.4103 10.9654V16.041H90.6467L90.4974 14.6379C90.2374 15.1154 89.8817 15.4862 89.4273 15.7499C88.973 16.0134 88.4623 16.1453 87.8938 16.1453ZM87.9685 15.2199C88.3073 15.2199 88.6271 15.1578 88.9258 15.0333C89.2252 14.9091 89.4872 14.7398 89.7119 14.5257C89.9359 14.3118 90.1106 14.0629 90.2353 13.7793C90.36 13.4957 90.4227 13.1947 90.4227 12.8761V12.533H88.7166C87.9481 12.533 87.4022 12.6673 87.0781 12.9357C86.7541 13.2045 86.5914 13.5531 86.5914 13.9809C86.5914 14.359 86.709 14.6599 86.9436 14.884C87.1775 15.1077 87.5198 15.2199 87.9685 15.2199Z" fill="#2E2832"/>
<path d="M93.8777 8.57684H94.6405L94.7603 9.80104C95.0096 9.37325 95.3463 9.04506 95.7704 8.81585C96.1945 8.58705 96.6854 8.47266 97.244 8.47266C98.102 8.47266 98.7782 8.73167 99.2713 9.24864C99.7658 9.76617 100.012 10.5374 100.012 11.5626V16.041H99.0248V11.5628C99.0248 10.8365 98.855 10.294 98.5162 9.93537C98.1767 9.57703 97.7033 9.3979 97.0947 9.3979C96.4361 9.3979 95.9049 9.58704 95.5006 9.96516C95.097 10.3436 94.885 10.8458 94.8645 11.473V16.041H93.877L93.8777 8.57684Z" fill="#2E2832"/>
<path d="M101.434 8.57781H102.78V6.48828H103.767V8.57781H105.773V9.47361H103.767V13.9521C103.767 14.7481 104.136 15.1461 104.875 15.1461H105.923V16.042H104.755C104.107 16.042 103.615 15.8753 103.281 15.542C102.947 15.2087 102.78 14.7183 102.78 14.0716V9.47383H101.434V8.57781Z" fill="#2E2832"/>
<path d="M110.218 16.0413L107.121 8.57715H108.228L110.757 14.817L113.106 8.57715H114.154L110.113 19.0268H109.066L110.218 16.0413Z" fill="#2E2832"/>
<path d="M115.111 18.0713H115.8C116.936 18.0713 117.506 17.4742 117.506 16.2798V14.3392C117.506 13.8914 117.573 13.4908 117.707 13.1374C117.842 12.7846 118.138 12.508 118.597 12.3091C118.368 12.1998 118.181 12.0751 118.037 11.9356C117.892 11.7966 117.78 11.6398 117.7 11.4654C117.62 11.2915 117.568 11.1049 117.543 10.9059C117.518 10.7069 117.506 10.4982 117.506 10.2787V8.3385C117.506 7.14404 116.937 6.54701 115.8 6.54701H115.111V5.5918H115.8C117.635 5.5918 118.553 6.50776 118.553 8.33871V10.2789C118.553 10.8065 118.67 11.1876 118.905 11.4215C119.138 11.655 119.421 11.797 119.75 11.8467V12.7719C119.421 12.8221 119.138 12.9637 118.905 13.1976C118.67 13.4311 118.553 13.812 118.553 14.3394V16.28C118.553 18.1109 117.635 19.0269 115.8 19.0269H115.111V18.0713Z" fill="#2E2832"/>
<path d="M0 10.8168C0 0.955078 0 0.955078 9.88578 0.955078C19.7716 0.955078 19.7716 0.955078 19.7716 10.8168C19.7716 20.6786 19.7716 20.6786 9.88578 20.6786C0 20.6786 0 20.6786 0 10.8168Z" fill="url(#paint0_linear_2238_18712)"/>
<path d="M13.9481 10.4005V11.2404C13.9481 12.7579 13.5178 13.9398 12.6576 14.7855C11.8033 15.6253 10.5626 16.0423 8.9352 16.0423H6.18555C6.9086 15.7313 7.27025 15.0595 7.27025 14.0269V12.4595C7.27025 12.0303 7.36372 11.7254 7.55096 11.5329C7.74432 11.3461 7.96874 11.2341 8.23663 11.1907V10.4446C7.96874 10.4008 7.74432 10.2891 7.55096 10.1024C7.36372 9.90943 7.27025 9.60491 7.27025 9.17571V7.60793C7.27025 6.5756 6.9086 5.90381 6.18555 5.59277H8.93499C10.5812 5.59277 11.8281 6.00953 12.676 6.84305C13.5244 7.66986 13.9481 8.85803 13.9481 10.4005Z" fill="white"/>
</g>
<defs>
<linearGradient id="paint0_linear_2238_18712" x1="9.88578" y1="0.955078" x2="9.88578" y2="20.6786" gradientUnits="userSpaceOnUse">
<stop offset="0.0056" stop-color="#B645EE"/>
<stop offset="1" stop-color="#9B26B6"/>
</linearGradient>
<clipPath id="clip0_2238_18712">
<rect width="119.75" height="19.7235" fill="white" transform="translate(0 0.956055)"/>
</clipPath>
</defs>
</svg>
