<svg width="368" height="147" viewBox="0 0 368 147" fill="none" xmlns="http://www.w3.org/2000/svg">
<g opacity="0.5">
<circle cx="184" cy="146" r="1" fill="black" fill-opacity="0.22"/>
<circle cx="184" cy="139" r="1" fill="black" fill-opacity="0.16"/>
<circle cx="184" cy="132" r="1" fill="black" fill-opacity="0.22"/>
<circle cx="184" cy="125" r="1" fill="black" fill-opacity="0.11"/>
<circle cx="184" cy="118" r="1" fill="black" fill-opacity="0.18"/>
<circle cx="184" cy="111" r="1" fill="black" fill-opacity="0.13"/>
<circle cx="184" cy="104" r="1" fill="black" fill-opacity="0.11"/>
<circle cx="184" cy="97" r="1" fill="black" fill-opacity="0.07"/>
<circle cx="184" cy="90" r="1" fill="black" fill-opacity="0.12"/>
<circle cx="184" cy="83" r="1" fill="black" fill-opacity="0.08"/>
<circle cx="184" cy="76" r="1" fill="black" fill-opacity="0.1"/>
<circle cx="184" cy="69" r="1" fill="black" fill-opacity="0.12"/>
<circle cx="184" cy="62" r="1" fill="black" fill-opacity="0.11"/>
<circle cx="184" cy="55" r="1" fill="black" fill-opacity="0.23"/>
<circle cx="184" cy="48" r="1" fill="black" fill-opacity="0.08"/>
<circle cx="177" cy="146" r="1" fill="black" fill-opacity="0.18"/>
<circle cx="1" cy="1" r="1" transform="matrix(-1 0 0 1 192 145)" fill="black" fill-opacity="0.23"/>
<circle cx="177" cy="139" r="1" fill="black" fill-opacity="0.24"/>
<circle cx="1" cy="1" r="1" transform="matrix(-1 0 0 1 192 138)" fill="black" fill-opacity="0.25"/>
<circle cx="177" cy="132" r="1" fill="black" fill-opacity="0.19"/>
<circle cx="1" cy="1" r="1" transform="matrix(-1 0 0 1 192 131)" fill="black" fill-opacity="0.21"/>
<circle cx="177" cy="125" r="1" fill="black" fill-opacity="0.03"/>
<circle cx="1" cy="1" r="1" transform="matrix(-1 0 0 1 192 124)" fill="black" fill-opacity="0.16"/>
<circle cx="177" cy="118" r="1" fill="black" fill-opacity="0.15"/>
<circle cx="1" cy="1" r="1" transform="matrix(-1 0 0 1 192 117)" fill="black" fill-opacity="0.02"/>
<circle cx="177" cy="111" r="1" fill="black" fill-opacity="0.01"/>
<circle cx="1" cy="1" r="1" transform="matrix(-1 0 0 1 192 110)" fill="black" fill-opacity="0.08"/>
<circle cx="177" cy="104" r="1" fill="black" fill-opacity="0.24"/>
<circle cx="1" cy="1" r="1" transform="matrix(-1 0 0 1 192 103)" fill="black" fill-opacity="0.03"/>
<circle cx="177" cy="97" r="1" fill="black" fill-opacity="0.08"/>
<circle cx="1" cy="1" r="1" transform="matrix(-1 0 0 1 192 96)" fill="black" fill-opacity="0.06"/>
<circle cx="177" cy="90" r="1" fill="black" fill-opacity="0.24"/>
<circle cx="1" cy="1" r="1" transform="matrix(-1 0 0 1 192 89)" fill="black" fill-opacity="0.04"/>
<circle cx="177" cy="83" r="1" fill="black" fill-opacity="0.1"/>
<circle cx="1" cy="1" r="1" transform="matrix(-1 0 0 1 192 82)" fill="black" fill-opacity="0.06"/>
<circle cx="177" cy="76" r="1" fill="black" fill-opacity="0.09"/>
<circle cx="1" cy="1" r="1" transform="matrix(-1 0 0 1 192 75)" fill="black" fill-opacity="0.17"/>
<circle cx="177" cy="69" r="1" fill="black" fill-opacity="0.06"/>
<circle cx="1" cy="1" r="1" transform="matrix(-1 0 0 1 192 68)" fill="black" fill-opacity="0.14"/>
<circle cx="177" cy="62" r="1" fill="black" fill-opacity="0.25"/>
<circle cx="177" cy="55" r="1" fill="black" fill-opacity="0.17"/>
<circle cx="1" cy="1" r="1" transform="matrix(-1 0 0 1 192 61)" fill="black" fill-opacity="0.17"/>
<circle cx="1" cy="1" r="1" transform="matrix(-1 0 0 1 192 54)" fill="black" fill-opacity="0.12"/>
<circle cx="170" cy="146" r="1" fill="black" fill-opacity="0.03"/>
<circle cx="1" cy="1" r="1" transform="matrix(-1 0 0 1 199 145)" fill="black" fill-opacity="0.17"/>
<circle cx="170" cy="139" r="1" fill="black" fill-opacity="0.07"/>
<circle cx="1" cy="1" r="1" transform="matrix(-1 0 0 1 199 138)" fill="black" fill-opacity="0.17"/>
<circle cx="170" cy="132" r="1" fill="black" fill-opacity="0.11"/>
<circle cx="1" cy="1" r="1" transform="matrix(-1 0 0 1 199 131)" fill="black" fill-opacity="0.22"/>
<circle cx="170" cy="125" r="1" fill="black" fill-opacity="0.25"/>
<circle cx="1" cy="1" r="1" transform="matrix(-1 0 0 1 199 124)" fill="black" fill-opacity="0.07"/>
<circle cx="170" cy="118" r="1" fill="black" fill-opacity="0.01"/>
<circle cx="1" cy="1" r="1" transform="matrix(-1 0 0 1 199 117)" fill="black" fill-opacity="0.01"/>
<circle cx="170" cy="111" r="1" fill="black" fill-opacity="0.06"/>
<circle cx="1" cy="1" r="1" transform="matrix(-1 0 0 1 199 110)" fill="black" fill-opacity="0.05"/>
<circle cx="170" cy="104" r="1" fill="black" fill-opacity="0.06"/>
<circle cx="1" cy="1" r="1" transform="matrix(-1 0 0 1 199 103)" fill="black" fill-opacity="0.16"/>
<circle cx="170" cy="97" r="1" fill="black" fill-opacity="0.11"/>
<circle cx="1" cy="1" r="1" transform="matrix(-1 0 0 1 199 96)" fill="black" fill-opacity="0.25"/>
<circle cx="170" cy="90" r="1" fill="black" fill-opacity="0.11"/>
<circle cx="1" cy="1" r="1" transform="matrix(-1 0 0 1 199 89)" fill="black" fill-opacity="0.2"/>
<circle cx="170" cy="83" r="1" fill="black" fill-opacity="0.1"/>
<circle cx="1" cy="1" r="1" transform="matrix(-1 0 0 1 199 82)" fill="black" fill-opacity="0.04"/>
<circle cx="170" cy="76" r="1" fill="black" fill-opacity="0.16"/>
<circle cx="1" cy="1" r="1" transform="matrix(-1 0 0 1 199 75)" fill="black" fill-opacity="0.22"/>
<circle cx="170" cy="69" r="1" fill="black" fill-opacity="0.15"/>
<circle cx="1" cy="1" r="1" transform="matrix(-1 0 0 1 199 68)" fill="black" fill-opacity="0.06"/>
<circle cx="170" cy="62" r="1" fill="black" fill-opacity="0.02"/>
<circle cx="1" cy="1" r="1" transform="matrix(-1 0 0 1 199 61)" fill="black" fill-opacity="0.21"/>
<circle cx="163" cy="146" r="1" fill="black" fill-opacity="0.06"/>
<circle cx="1" cy="1" r="1" transform="matrix(-1 0 0 1 206 145)" fill="black" fill-opacity="0.2"/>
<circle cx="163" cy="139" r="1" fill="black" fill-opacity="0.25"/>
<circle cx="1" cy="1" r="1" transform="matrix(-1 0 0 1 206 138)" fill="black" fill-opacity="0.17"/>
<circle cx="163" cy="132" r="1" fill="black" fill-opacity="0.08"/>
<circle cx="1" cy="1" r="1" transform="matrix(-1 0 0 1 206 131)" fill="black" fill-opacity="0.05"/>
<circle cx="163" cy="125" r="1" fill="black" fill-opacity="0.01"/>
<circle cx="1" cy="1" r="1" transform="matrix(-1 0 0 1 206 124)" fill="black" fill-opacity="0.19"/>
<circle cx="163" cy="118" r="1" fill="black" fill-opacity="0.08"/>
<circle cx="1" cy="1" r="1" transform="matrix(-1 0 0 1 206 117)" fill="black" fill-opacity="0.2"/>
<circle cx="163" cy="111" r="1" fill="black" fill-opacity="0.15"/>
<circle cx="1" cy="1" r="1" transform="matrix(-1 0 0 1 206 110)" fill="black" fill-opacity="0.04"/>
<circle cx="163" cy="104" r="1" fill="black" fill-opacity="0.19"/>
<circle cx="1" cy="1" r="1" transform="matrix(-1 0 0 1 206 103)" fill="black" fill-opacity="0.24"/>
<circle cx="163" cy="97" r="1" fill="black" fill-opacity="0.12"/>
<circle cx="1" cy="1" r="1" transform="matrix(-1 0 0 1 206 96)" fill="black" fill-opacity="0.06"/>
<circle cx="163" cy="90" r="1" fill="black" fill-opacity="0.1"/>
<circle cx="1" cy="1" r="1" transform="matrix(-1 0 0 1 206 89)" fill="black" fill-opacity="0.1"/>
<circle cx="163" cy="83" r="1" fill="black" fill-opacity="0.25"/>
<circle cx="163" cy="76" r="1" fill="black" fill-opacity="0.19"/>
<circle cx="1" cy="1" r="1" transform="matrix(-1 0 0 1 206 75)" fill="black" fill-opacity="0.07"/>
<circle cx="163" cy="69" r="1" fill="black" fill-opacity="0.13"/>
<circle cx="1" cy="1" r="1" transform="matrix(-1 0 0 1 206 68)" fill="black" fill-opacity="0.14"/>
<circle cx="156" cy="146" r="1" fill="black" fill-opacity="0.09"/>
<circle cx="1" cy="1" r="1" transform="matrix(-1 0 0 1 213 145)" fill="black" fill-opacity="0.11"/>
<circle cx="156" cy="139" r="1" fill="black" fill-opacity="0.1"/>
<circle cx="1" cy="1" r="1" transform="matrix(-1 0 0 1 213 138)" fill="black" fill-opacity="0.24"/>
<circle cx="156" cy="132" r="1" fill="black" fill-opacity="0.12"/>
<circle cx="1" cy="1" r="1" transform="matrix(-1 0 0 1 213 131)" fill="black" fill-opacity="0.13"/>
<circle cx="156" cy="125" r="1" fill="black" fill-opacity="0.12"/>
<circle cx="1" cy="1" r="1" transform="matrix(-1 0 0 1 213 124)" fill="black" fill-opacity="0.18"/>
<circle cx="156" cy="118" r="1" fill="black" fill-opacity="0.13"/>
<circle cx="1" cy="1" r="1" transform="matrix(-1 0 0 1 213 117)" fill="black" fill-opacity="0.23"/>
<circle cx="156" cy="111" r="1" fill="black" fill-opacity="0.12"/>
<circle cx="1" cy="1" r="1" transform="matrix(-1 0 0 1 213 110)" fill="black" fill-opacity="0.05"/>
<circle cx="156" cy="104" r="1" fill="black" fill-opacity="0.01"/>
<circle cx="1" cy="1" r="1" transform="matrix(-1 0 0 1 213 103)" fill="black" fill-opacity="0.24"/>
<circle cx="156" cy="97" r="1" fill="black" fill-opacity="0.09"/>
<circle cx="1" cy="1" r="1" transform="matrix(-1 0 0 1 213 96)" fill="black" fill-opacity="0.02"/>
<circle cx="156" cy="90" r="1" fill="black" fill-opacity="0.2"/>
<circle cx="1" cy="1" r="1" transform="matrix(-1 0 0 1 213 89)" fill="black" fill-opacity="0.05"/>
<circle cx="156" cy="83" r="1" fill="black" fill-opacity="0.12"/>
<circle cx="1" cy="1" r="1" transform="matrix(-1 0 0 1 213 82)" fill="black" fill-opacity="0.16"/>
<circle cx="156" cy="76" r="1" fill="black" fill-opacity="0.11"/>
<circle cx="1" cy="1" r="1" transform="matrix(-1 0 0 1 213 75)" fill="black" fill-opacity="0.24"/>
<circle cx="156" cy="69" r="1" fill="black" fill-opacity="0.24"/>
<circle cx="149" cy="146" r="1" fill="black" fill-opacity="0.14"/>
<circle cx="1" cy="1" r="1" transform="matrix(-1 0 0 1 220 145)" fill="black" fill-opacity="0.04"/>
<circle cx="149" cy="139" r="1" fill="black" fill-opacity="0.03"/>
<circle cx="1" cy="1" r="1" transform="matrix(-1 0 0 1 220 138)" fill="black" fill-opacity="0.03"/>
<circle cx="1" cy="1" r="1" transform="matrix(-1 0 0 1 220 131)" fill="black" fill-opacity="0.04"/>
<circle cx="149" cy="125" r="1" fill="black" fill-opacity="0.04"/>
<circle cx="1" cy="1" r="1" transform="matrix(-1 0 0 1 220 124)" fill="black" fill-opacity="0.02"/>
<circle cx="1" cy="1" r="1" transform="matrix(-1 0 0 1 220 117)" fill="black" fill-opacity="0.06"/>
<circle cx="149" cy="111" r="1" fill="black" fill-opacity="0.04"/>
<circle cx="1" cy="1" r="1" transform="matrix(-1 0 0 1 220 110)" fill="black" fill-opacity="0.17"/>
<circle cx="149" cy="104" r="1" fill="black" fill-opacity="0.22"/>
<circle cx="1" cy="1" r="1" transform="matrix(-1 0 0 1 220 103)" fill="black" fill-opacity="0.17"/>
<circle cx="149" cy="97" r="1" fill="black" fill-opacity="0.03"/>
<circle cx="1" cy="1" r="1" transform="matrix(-1 0 0 1 220 96)" fill="black" fill-opacity="0.2"/>
<circle cx="149" cy="90" r="1" fill="black" fill-opacity="0.22"/>
<circle cx="1" cy="1" r="1" transform="matrix(-1 0 0 1 220 89)" fill="black" fill-opacity="0.12"/>
<circle cx="149" cy="83" r="1" fill="black" fill-opacity="0.01"/>
<circle cx="1" cy="1" r="1" transform="matrix(-1 0 0 1 220 82)" fill="black" fill-opacity="0.02"/>
<circle cx="149" cy="76" r="1" fill="black" fill-opacity="0.03"/>
<circle cx="1" cy="1" r="1" transform="matrix(-1 0 0 1 220 75)" fill="black" fill-opacity="0.01"/>
<circle cx="142" cy="146" r="1" fill="black" fill-opacity="0.15"/>
<circle cx="1" cy="1" r="1" transform="matrix(-1 0 0 1 227 145)" fill="black" fill-opacity="0.23"/>
<circle cx="142" cy="139" r="1" fill="black" fill-opacity="0.02"/>
<circle cx="1" cy="1" r="1" transform="matrix(-1 0 0 1 227 138)" fill="black" fill-opacity="0.12"/>
<circle cx="142" cy="132" r="1" fill="black" fill-opacity="0.19"/>
<circle cx="1" cy="1" r="1" transform="matrix(-1 0 0 1 227 131)" fill="black" fill-opacity="0.13"/>
<circle cx="142" cy="125" r="1" fill="black" fill-opacity="0.24"/>
<circle cx="1" cy="1" r="1" transform="matrix(-1 0 0 1 227 124)" fill="black" fill-opacity="0.11"/>
<circle cx="142" cy="118" r="1" fill="black" fill-opacity="0.17"/>
<circle cx="1" cy="1" r="1" transform="matrix(-1 0 0 1 227 117)" fill="black" fill-opacity="0.04"/>
<circle cx="142" cy="111" r="1" fill="black" fill-opacity="0.04"/>
<circle cx="1" cy="1" r="1" transform="matrix(-1 0 0 1 227 110)" fill="black" fill-opacity="0.11"/>
<circle cx="142" cy="104" r="1" fill="black" fill-opacity="0.1"/>
<circle cx="1" cy="1" r="1" transform="matrix(-1 0 0 1 227 103)" fill="black" fill-opacity="0.25"/>
<circle cx="142" cy="97" r="1" fill="black" fill-opacity="0.05"/>
<circle cx="1" cy="1" r="1" transform="matrix(-1 0 0 1 227 96)" fill="black" fill-opacity="0.21"/>
<circle cx="142" cy="90" r="1" fill="black" fill-opacity="0.15"/>
<circle cx="1" cy="1" r="1" transform="matrix(-1 0 0 1 227 89)" fill="black" fill-opacity="0.12"/>
<circle cx="142" cy="83" r="1" fill="black" fill-opacity="0.18"/>
<circle cx="1" cy="1" r="1" transform="matrix(-1 0 0 1 227 82)" fill="black" fill-opacity="0.09"/>
<circle cx="142" cy="76" r="1" fill="black" fill-opacity="0.25"/>
<circle cx="1" cy="1" r="1" transform="matrix(-1 0 0 1 227 75)" fill="black" fill-opacity="0.03"/>
<circle cx="135" cy="146" r="1" fill="black" fill-opacity="0.09"/>
<circle cx="1" cy="1" r="1" transform="matrix(-1 0 0 1 234 145)" fill="black" fill-opacity="0.24"/>
<circle cx="135" cy="139" r="1" fill="black" fill-opacity="0.25"/>
<circle cx="1" cy="1" r="1" transform="matrix(-1 0 0 1 234 138)" fill="black" fill-opacity="0.2"/>
<circle cx="135" cy="132" r="1" fill="black" fill-opacity="0.23"/>
<circle cx="1" cy="1" r="1" transform="matrix(-1 0 0 1 234 131)" fill="black" fill-opacity="0.05"/>
<circle cx="135" cy="125" r="1" fill="black" fill-opacity="0.09"/>
<circle cx="1" cy="1" r="1" transform="matrix(-1 0 0 1 234 124)" fill="black" fill-opacity="0.13"/>
<circle cx="135" cy="118" r="1" fill="black" fill-opacity="0.17"/>
<circle cx="1" cy="1" r="1" transform="matrix(-1 0 0 1 234 117)" fill="black" fill-opacity="0.01"/>
<circle cx="135" cy="111" r="1" fill="black" fill-opacity="0.08"/>
<circle cx="1" cy="1" r="1" transform="matrix(-1 0 0 1 234 110)" fill="black" fill-opacity="0.08"/>
<circle cx="135" cy="104" r="1" fill="black" fill-opacity="0.03"/>
<circle cx="1" cy="1" r="1" transform="matrix(-1 0 0 1 234 103)" fill="black" fill-opacity="0.09"/>
<circle cx="135" cy="97" r="1" fill="black" fill-opacity="0.1"/>
<circle cx="1" cy="1" r="1" transform="matrix(-1 0 0 1 234 96)" fill="black" fill-opacity="0.03"/>
<circle cx="135" cy="90" r="1" fill="black" fill-opacity="0.07"/>
<circle cx="1" cy="1" r="1" transform="matrix(-1 0 0 1 234 89)" fill="black" fill-opacity="0.15"/>
<circle cx="135" cy="83" r="1" fill="black" fill-opacity="0.04"/>
<circle cx="1" cy="1" r="1" transform="matrix(-1 0 0 1 234 82)" fill="black" fill-opacity="0.14"/>
<circle cx="128" cy="146" r="1" fill="black" fill-opacity="0.06"/>
<circle cx="1" cy="1" r="1" transform="matrix(-1 0 0 1 241 145)" fill="black" fill-opacity="0.23"/>
<circle cx="128" cy="139" r="1" fill="black" fill-opacity="0.07"/>
<circle cx="1" cy="1" r="1" transform="matrix(-1 0 0 1 241 131)" fill="black" fill-opacity="0.09"/>
<circle cx="128" cy="125" r="1" fill="black" fill-opacity="0.14"/>
<circle cx="1" cy="1" r="1" transform="matrix(-1 0 0 1 241 124)" fill="black" fill-opacity="0.17"/>
<circle cx="128" cy="118" r="1" fill="black" fill-opacity="0.25"/>
<circle cx="1" cy="1" r="1" transform="matrix(-1 0 0 1 241 117)" fill="black" fill-opacity="0.21"/>
<circle cx="128" cy="111" r="1" fill="black" fill-opacity="0.23"/>
<circle cx="1" cy="1" r="1" transform="matrix(-1 0 0 1 241 110)" fill="black" fill-opacity="0.12"/>
<circle cx="128" cy="104" r="1" fill="black" fill-opacity="0.22"/>
<circle cx="1" cy="1" r="1" transform="matrix(-1 0 0 1 241 103)" fill="black" fill-opacity="0.15"/>
<circle cx="128" cy="97" r="1" fill="black" fill-opacity="0.05"/>
<circle cx="1" cy="1" r="1" transform="matrix(-1 0 0 1 241 96)" fill="black" fill-opacity="0.18"/>
<circle cx="128" cy="90" r="1" fill="black" fill-opacity="0.02"/>
<circle cx="1" cy="1" r="1" transform="matrix(-1 0 0 1 241 89)" fill="black" fill-opacity="0.08"/>
<circle cx="128" cy="83" r="1" fill="black" fill-opacity="0.12"/>
<circle cx="1" cy="1" r="1" transform="matrix(-1 0 0 1 241 82)" fill="black" fill-opacity="0.13"/>
<circle cx="121" cy="146" r="1" fill="black" fill-opacity="0.02"/>
<circle cx="1" cy="1" r="1" transform="matrix(-1 0 0 1 248 145)" fill="black" fill-opacity="0.13"/>
<circle cx="121" cy="139" r="1" fill="black" fill-opacity="0.13"/>
<circle cx="1" cy="1" r="1" transform="matrix(-1 0 0 1 248 138)" fill="black" fill-opacity="0.21"/>
<circle cx="121" cy="132" r="1" fill="black" fill-opacity="0.06"/>
<circle cx="1" cy="1" r="1" transform="matrix(-1 0 0 1 248 131)" fill="black" fill-opacity="0.07"/>
<circle cx="121" cy="125" r="1" fill="black" fill-opacity="0.1"/>
<circle cx="1" cy="1" r="1" transform="matrix(-1 0 0 1 248 124)" fill="black" fill-opacity="0.24"/>
<circle cx="121" cy="118" r="1" fill="black" fill-opacity="0.25"/>
<circle cx="1" cy="1" r="1" transform="matrix(-1 0 0 1 248 117)" fill="black" fill-opacity="0.04"/>
<circle cx="121" cy="111" r="1" fill="black" fill-opacity="0.23"/>
<circle cx="1" cy="1" r="1" transform="matrix(-1 0 0 1 248 110)" fill="black" fill-opacity="0.25"/>
<circle cx="121" cy="104" r="1" fill="black" fill-opacity="0.11"/>
<circle cx="1" cy="1" r="1" transform="matrix(-1 0 0 1 248 103)" fill="black" fill-opacity="0.07"/>
<circle cx="121" cy="97" r="1" fill="black" fill-opacity="0.01"/>
<circle cx="1" cy="1" r="1" transform="matrix(-1 0 0 1 248 96)" fill="black" fill-opacity="0.25"/>
<circle cx="121" cy="90" r="1" fill="black" fill-opacity="0.1"/>
<circle cx="1" cy="1" r="1" transform="matrix(-1 0 0 1 248 89)" fill="black" fill-opacity="0.15"/>
<circle cx="114" cy="146" r="1" fill="black" fill-opacity="0.02"/>
<circle cx="1" cy="1" r="1" transform="matrix(-1 0 0 1 255 145)" fill="black" fill-opacity="0.03"/>
<circle cx="114" cy="139" r="1" fill="black" fill-opacity="0.04"/>
<circle cx="1" cy="1" r="1" transform="matrix(-1 0 0 1 255 138)" fill="black" fill-opacity="0.09"/>
<circle cx="114" cy="132" r="1" fill="black" fill-opacity="0.05"/>
<circle cx="1" cy="1" r="1" transform="matrix(-1 0 0 1 255 131)" fill="black" fill-opacity="0.16"/>
<circle cx="114" cy="125" r="1" fill="black" fill-opacity="0.02"/>
<circle cx="1" cy="1" r="1" transform="matrix(-1 0 0 1 255 124)" fill="black" fill-opacity="0.22"/>
<circle cx="114" cy="118" r="1" fill="black" fill-opacity="0.04"/>
<circle cx="1" cy="1" r="1" transform="matrix(-1 0 0 1 255 117)" fill="black" fill-opacity="0.21"/>
<circle cx="114" cy="111" r="1" fill="black" fill-opacity="0.01"/>
<circle cx="1" cy="1" r="1" transform="matrix(-1 0 0 1 255 110)" fill="black" fill-opacity="0.1"/>
<circle cx="114" cy="104" r="1" fill="black" fill-opacity="0.08"/>
<circle cx="1" cy="1" r="1" transform="matrix(-1 0 0 1 255 103)" fill="black" fill-opacity="0.18"/>
<circle cx="114" cy="97" r="1" fill="black" fill-opacity="0.24"/>
<circle cx="1" cy="1" r="1" transform="matrix(-1 0 0 1 255 96)" fill="black" fill-opacity="0.15"/>
<circle cx="114" cy="90" r="1" fill="black" fill-opacity="0.18"/>
<circle cx="1" cy="1" r="1" transform="matrix(-1 0 0 1 255 89)" fill="black" fill-opacity="0.09"/>
<circle cx="107" cy="146" r="1" fill="black" fill-opacity="0.1"/>
<circle cx="1" cy="1" r="1" transform="matrix(-1 0 0 1 262 145)" fill="black" fill-opacity="0.13"/>
<circle cx="107" cy="139" r="1" fill="black" fill-opacity="0.22"/>
<circle cx="1" cy="1" r="1" transform="matrix(-1 0 0 1 262 138)" fill="black" fill-opacity="0.16"/>
<circle cx="107" cy="132" r="1" fill="black" fill-opacity="0.12"/>
<circle cx="1" cy="1" r="1" transform="matrix(-1 0 0 1 262 131)" fill="black" fill-opacity="0.09"/>
<circle cx="1" cy="1" r="1" transform="matrix(-1 0 0 1 262 124)" fill="black" fill-opacity="0.1"/>
<circle cx="107" cy="118" r="1" fill="black" fill-opacity="0.04"/>
<circle cx="1" cy="1" r="1" transform="matrix(-1 0 0 1 262 117)" fill="black" fill-opacity="0.06"/>
<circle cx="107" cy="111" r="1" fill="black" fill-opacity="0.17"/>
<circle cx="1" cy="1" r="1" transform="matrix(-1 0 0 1 262 110)" fill="black" fill-opacity="0.16"/>
<circle cx="107" cy="104" r="1" fill="black" fill-opacity="0.13"/>
<circle cx="1" cy="1" r="1" transform="matrix(-1 0 0 1 262 103)" fill="black" fill-opacity="0.1"/>
<circle cx="107" cy="97" r="1" fill="black" fill-opacity="0.06"/>
<circle cx="1" cy="1" r="1" transform="matrix(-1 0 0 1 262 96)" fill="black" fill-opacity="0.16"/>
<circle cx="100" cy="146" r="1" fill="black" fill-opacity="0.03"/>
<circle cx="1" cy="1" r="1" transform="matrix(-1 0 0 1 269 145)" fill="black" fill-opacity="0.23"/>
<circle cx="100" cy="139" r="1" fill="black" fill-opacity="0.19"/>
<circle cx="1" cy="1" r="1" transform="matrix(-1 0 0 1 269 138)" fill="black" fill-opacity="0.23"/>
<circle cx="100" cy="132" r="1" fill="black" fill-opacity="0.06"/>
<circle cx="1" cy="1" r="1" transform="matrix(-1 0 0 1 269 131)" fill="black" fill-opacity="0.17"/>
<circle cx="100" cy="125" r="1" fill="black" fill-opacity="0.01"/>
<circle cx="1" cy="1" r="1" transform="matrix(-1 0 0 1 269 124)" fill="black" fill-opacity="0.04"/>
<circle cx="100" cy="118" r="1" fill="black" fill-opacity="0.19"/>
<circle cx="1" cy="1" r="1" transform="matrix(-1 0 0 1 269 117)" fill="black" fill-opacity="0.2"/>
<circle cx="100" cy="111" r="1" fill="black" fill-opacity="0.13"/>
<circle cx="1" cy="1" r="1" transform="matrix(-1 0 0 1 269 110)" fill="black" fill-opacity="0.06"/>
<circle cx="100" cy="104" r="1" fill="black" fill-opacity="0.04"/>
<circle cx="1" cy="1" r="1" transform="matrix(-1 0 0 1 269 103)" fill="black" fill-opacity="0.09"/>
<circle cx="100" cy="97" r="1" fill="black" fill-opacity="0.21"/>
<circle cx="1" cy="1" r="1" transform="matrix(-1 0 0 1 269 96)" fill="black" fill-opacity="0.05"/>
<circle cx="93" cy="146" r="1" fill="black" fill-opacity="0.02"/>
<circle cx="1" cy="1" r="1" transform="matrix(-1 0 0 1 276 145)" fill="black" fill-opacity="0.03"/>
<circle cx="93" cy="139" r="1" fill="black" fill-opacity="0.11"/>
<circle cx="1" cy="1" r="1" transform="matrix(-1 0 0 1 276 138)" fill="black" fill-opacity="0.08"/>
<circle cx="93" cy="132" r="1" fill="black" fill-opacity="0.01"/>
<circle cx="1" cy="1" r="1" transform="matrix(-1 0 0 1 276 131)" fill="black" fill-opacity="0.05"/>
<circle cx="93" cy="125" r="1" fill="black" fill-opacity="0.1"/>
<circle cx="1" cy="1" r="1" transform="matrix(-1 0 0 1 276 124)" fill="black" fill-opacity="0.1"/>
<circle cx="93" cy="118" r="1" fill="black" fill-opacity="0.06"/>
<circle cx="1" cy="1" r="1" transform="matrix(-1 0 0 1 276 117)" fill="black" fill-opacity="0.2"/>
<circle cx="1" cy="1" r="1" transform="matrix(-1 0 0 1 276 110)" fill="black" fill-opacity="0.09"/>
<circle cx="93" cy="104" r="1" fill="black" fill-opacity="0.08"/>
<circle cx="1" cy="1" r="1" transform="matrix(-1 0 0 1 276 103)" fill="black" fill-opacity="0.09"/>
<circle cx="1" cy="1" r="1" transform="matrix(-1 0 0 1 283 145)" fill="black" fill-opacity="0.01"/>
<circle cx="86" cy="139" r="1" fill="black" fill-opacity="0.06"/>
<circle cx="1" cy="1" r="1" transform="matrix(-1 0 0 1 283 138)" fill="black" fill-opacity="0.19"/>
<circle cx="86" cy="132" r="1" fill="black" fill-opacity="0.25"/>
<circle cx="1" cy="1" r="1" transform="matrix(-1 0 0 1 283 131)" fill="black" fill-opacity="0.22"/>
<circle cx="86" cy="125" r="1" fill="black" fill-opacity="0.19"/>
<circle cx="86" cy="118" r="1" fill="black" fill-opacity="0.08"/>
<circle cx="1" cy="1" r="1" transform="matrix(-1 0 0 1 283 117)" fill="black" fill-opacity="0.07"/>
<circle cx="86" cy="111" r="1" fill="black" fill-opacity="0.12"/>
<circle cx="1" cy="1" r="1" transform="matrix(-1 0 0 1 283 110)" fill="black" fill-opacity="0.16"/>
<circle cx="86" cy="104" r="1" fill="black" fill-opacity="0.07"/>
<circle cx="1" cy="1" r="1" transform="matrix(-1 0 0 1 283 103)" fill="black" fill-opacity="0.23"/>
<circle cx="79" cy="146" r="1" fill="black" fill-opacity="0.07"/>
<circle cx="1" cy="1" r="1" transform="matrix(-1 0 0 1 290 145)" fill="black" fill-opacity="0.19"/>
<circle cx="79" cy="139" r="1" fill="black" fill-opacity="0.08"/>
<circle cx="1" cy="1" r="1" transform="matrix(-1 0 0 1 290 138)" fill="black" fill-opacity="0.15"/>
<circle cx="79" cy="132" r="1" fill="black" fill-opacity="0.11"/>
<circle cx="1" cy="1" r="1" transform="matrix(-1 0 0 1 290 131)" fill="black" fill-opacity="0.09"/>
<circle cx="79" cy="125" r="1" fill="black" fill-opacity="0.17"/>
<circle cx="1" cy="1" r="1" transform="matrix(-1 0 0 1 290 124)" fill="black" fill-opacity="0.19"/>
<circle cx="79" cy="118" r="1" fill="black" fill-opacity="0.16"/>
<circle cx="1" cy="1" r="1" transform="matrix(-1 0 0 1 290 117)" fill="black" fill-opacity="0.01"/>
<circle cx="79" cy="111" r="1" fill="black" fill-opacity="0.19"/>
<circle cx="1" cy="1" r="1" transform="matrix(-1 0 0 1 290 110)" fill="black" fill-opacity="0.16"/>
<circle cx="72" cy="146" r="1" fill="black" fill-opacity="0.13"/>
<circle cx="1" cy="1" r="1" transform="matrix(-1 0 0 1 297 145)" fill="black" fill-opacity="0.22"/>
<circle cx="72" cy="139" r="1" fill="black" fill-opacity="0.01"/>
<circle cx="1" cy="1" r="1" transform="matrix(-1 0 0 1 297 138)" fill="black" fill-opacity="0.11"/>
<circle cx="72" cy="132" r="1" fill="black" fill-opacity="0.18"/>
<circle cx="1" cy="1" r="1" transform="matrix(-1 0 0 1 297 131)" fill="black" fill-opacity="0.08"/>
<circle cx="72" cy="125" r="1" fill="black" fill-opacity="0.07"/>
<circle cx="1" cy="1" r="1" transform="matrix(-1 0 0 1 297 124)" fill="black" fill-opacity="0.07"/>
<circle cx="72" cy="118" r="1" fill="black" fill-opacity="0.18"/>
<circle cx="1" cy="1" r="1" transform="matrix(-1 0 0 1 297 117)" fill="black" fill-opacity="0.09"/>
<circle cx="72" cy="111" r="1" fill="black" fill-opacity="0.21"/>
<circle cx="1" cy="1" r="1" transform="matrix(-1 0 0 1 297 110)" fill="black" fill-opacity="0.2"/>
<circle cx="65" cy="146" r="1" fill="black" fill-opacity="0.18"/>
<circle cx="1" cy="1" r="1" transform="matrix(-1 0 0 1 304 145)" fill="black" fill-opacity="0.01"/>
<circle cx="65" cy="139" r="1" fill="black" fill-opacity="0.02"/>
<circle cx="1" cy="1" r="1" transform="matrix(-1 0 0 1 304 138)" fill="black" fill-opacity="0.24"/>
<circle cx="65" cy="132" r="1" fill="black" fill-opacity="0.16"/>
<circle cx="1" cy="1" r="1" transform="matrix(-1 0 0 1 304 131)" fill="black" fill-opacity="0.06"/>
<circle cx="65" cy="125" r="1" fill="black" fill-opacity="0.05"/>
<circle cx="1" cy="1" r="1" transform="matrix(-1 0 0 1 304 124)" fill="black" fill-opacity="0.22"/>
<circle cx="65" cy="118" r="1" fill="black" fill-opacity="0.01"/>
<circle cx="1" cy="1" r="1" transform="matrix(-1 0 0 1 304 117)" fill="black" fill-opacity="0.18"/>
<circle cx="58" cy="146" r="1" fill="black" fill-opacity="0.02"/>
<circle cx="1" cy="1" r="1" transform="matrix(-1 0 0 1 311 145)" fill="black" fill-opacity="0.02"/>
<circle cx="58" cy="139" r="1" fill="black" fill-opacity="0.04"/>
<circle cx="1" cy="1" r="1" transform="matrix(-1 0 0 1 311 138)" fill="black" fill-opacity="0.16"/>
<circle cx="58" cy="132" r="1" fill="black" fill-opacity="0.19"/>
<circle cx="1" cy="1" r="1" transform="matrix(-1 0 0 1 311 131)" fill="black" fill-opacity="0.24"/>
<circle cx="58" cy="125" r="1" fill="black" fill-opacity="0.04"/>
<circle cx="1" cy="1" r="1" transform="matrix(-1 0 0 1 311 124)" fill="black" fill-opacity="0.12"/>
<circle cx="58" cy="118" r="1" fill="black" fill-opacity="0.05"/>
<circle cx="1" cy="1" r="1" transform="matrix(-1 0 0 1 311 117)" fill="black" fill-opacity="0.12"/>
<circle cx="51" cy="146" r="1" fill="black" fill-opacity="0.02"/>
<circle cx="1" cy="1" r="1" transform="matrix(-1 0 0 1 318 145)" fill="black" fill-opacity="0.17"/>
<circle cx="51" cy="139" r="1" fill="black" fill-opacity="0.19"/>
<circle cx="1" cy="1" r="1" transform="matrix(-1 0 0 1 318 138)" fill="black" fill-opacity="0.25"/>
<circle cx="51" cy="132" r="1" fill="black" fill-opacity="0.11"/>
<circle cx="1" cy="1" r="1" transform="matrix(-1 0 0 1 318 131)" fill="black" fill-opacity="0.14"/>
<circle cx="51" cy="125" r="1" fill="black" fill-opacity="0.03"/>
<circle cx="1" cy="1" r="1" transform="matrix(-1 0 0 1 318 124)" fill="black" fill-opacity="0.15"/>
<circle cx="44" cy="146" r="1" fill="black" fill-opacity="0.13"/>
<circle cx="1" cy="1" r="1" transform="matrix(-1 0 0 1 325 145)" fill="black" fill-opacity="0.14"/>
<circle cx="44" cy="139" r="1" fill="black" fill-opacity="0.13"/>
<circle cx="1" cy="1" r="1" transform="matrix(-1 0 0 1 325 138)" fill="black" fill-opacity="0.02"/>
<circle cx="44" cy="132" r="1" fill="black" fill-opacity="0.08"/>
<circle cx="1" cy="1" r="1" transform="matrix(-1 0 0 1 325 131)" fill="black" fill-opacity="0.03"/>
<circle cx="44" cy="125" r="1" fill="black" fill-opacity="0.1"/>
<circle cx="1" cy="1" r="1" transform="matrix(-1 0 0 1 325 124)" fill="black" fill-opacity="0.24"/>
<circle cx="37" cy="146" r="1" fill="black" fill-opacity="0.08"/>
<circle cx="1" cy="1" r="1" transform="matrix(-1 0 0 1 332 145)" fill="black" fill-opacity="0.18"/>
<circle cx="37" cy="139" r="1" fill="black" fill-opacity="0.09"/>
<circle cx="1" cy="1" r="1" transform="matrix(-1 0 0 1 332 138)" fill="black" fill-opacity="0.19"/>
<circle cx="37" cy="132" r="1" fill="black" fill-opacity="0.04"/>
<circle cx="1" cy="1" r="1" transform="matrix(-1 0 0 1 332 131)" fill="black" fill-opacity="0.1"/>
<circle cx="30" cy="146" r="1" fill="black" fill-opacity="0.2"/>
<circle cx="1" cy="1" r="1" transform="matrix(-1 0 0 1 339 145)" fill="black" fill-opacity="0.05"/>
<circle cx="30" cy="139" r="1" fill="black" fill-opacity="0.09"/>
<circle cx="1" cy="1" r="1" transform="matrix(-1 0 0 1 339 138)" fill="black" fill-opacity="0.1"/>
<circle cx="30" cy="132" r="1" fill="black" fill-opacity="0.23"/>
<circle cx="1" cy="1" r="1" transform="matrix(-1 0 0 1 339 131)" fill="black" fill-opacity="0.13"/>
<circle cx="23" cy="146" r="1" fill="black" fill-opacity="0.1"/>
<circle cx="1" cy="1" r="1" transform="matrix(-1 0 0 1 346 145)" fill="black" fill-opacity="0.2"/>
<circle cx="23" cy="139" r="1" fill="black" fill-opacity="0.01"/>
<circle cx="1" cy="1" r="1" transform="matrix(-1 0 0 1 346 138)" fill="black" fill-opacity="0.07"/>
<circle cx="16" cy="146" r="1" fill="black" fill-opacity="0.03"/>
<circle cx="1" cy="1" r="1" transform="matrix(-1 0 0 1 353 145)" fill="black" fill-opacity="0.04"/>
<circle cx="16" cy="139" r="1" fill="black" fill-opacity="0.22"/>
<circle cx="1" cy="1" r="1" transform="matrix(-1 0 0 1 353 138)" fill="black" fill-opacity="0.05"/>
<circle cx="9" cy="146" r="1" fill="black" fill-opacity="0.04"/>
<circle cx="2" cy="146" r="1" fill="black" fill-opacity="0.03"/>
<circle cx="1" cy="1" r="1" transform="matrix(-1 0 0 1 367 145)" fill="black" fill-opacity="0.05"/>
</g>
<g filter="url(#filter0_i_1_2577)">
<rect x="182.934" y="14" width="82.401" height="103.001" rx="12.8752" transform="rotate(11.1579 182.934 14)" fill="white"/>
</g>
<rect x="183.272" y="14.5041" width="81.5426" height="102.143" rx="12.446" transform="rotate(11.1579 183.272 14.5041)" stroke="#EEEEEE" stroke-width="0.858344"/>
<rect opacity="0.4" x="190.983" y="30.8516" width="29.1837" height="10.9326" rx="5.46629" transform="rotate(11.1579 190.983 30.8516)" fill="#DEDEDE"/>
<rect opacity="0.4" x="187.714" y="47.4282" width="39.9356" height="9.3966" rx="4.6983" transform="rotate(11.1579 187.714 47.4282)" fill="#DEDEDE"/>
<rect opacity="0.4" x="184.746" y="62.4756" width="58.3674" height="9.3966" rx="4.6983" transform="rotate(11.1579 184.746 62.4756)" fill="#DEDEDE"/>
<rect opacity="0.4" x="181.472" y="79.0742" width="58.3674" height="9.3966" rx="4.6983" transform="rotate(11.1579 181.472 79.0742)" fill="#DEDEDE"/>
<rect opacity="0.4" x="178.499" y="94.1438" width="16.8958" height="9.3966" rx="4.6983" transform="rotate(11.1579 178.499 94.1438)" fill="#DEDEDE"/>
<g filter="url(#filter1_i_1_2577)">
<rect x="100" y="29.9487" width="82.401" height="103.001" rx="12.8752" transform="rotate(-11.16 100 29.9487)" fill="white"/>
</g>
<rect x="100.504" y="30.2867" width="81.5426" height="102.143" rx="12.446" transform="rotate(-11.16 100.504 30.2867)" stroke="#EEEEEE" stroke-width="0.858344"/>
<rect opacity="0.4" x="113.931" y="42.5776" width="29.1837" height="10.9326" rx="5.46629" transform="rotate(-11.16 113.931 42.5776)" fill="#DEDEDE"/>
<rect opacity="0.4" x="117.202" y="59.1543" width="39.9356" height="9.3966" rx="4.6983" transform="rotate(-11.16 117.202 59.1543)" fill="#DEDEDE"/>
<rect opacity="0.4" x="120.17" y="74.2014" width="58.3674" height="9.3966" rx="4.6983" transform="rotate(-11.16 120.17 74.2014)" fill="#DEDEDE"/>
<rect opacity="0.4" x="123.445" y="90.7998" width="58.3674" height="9.3966" rx="4.6983" transform="rotate(-11.16 123.445 90.7998)" fill="#DEDEDE"/>
<rect opacity="0.4" x="126.418" y="105.87" width="16.8958" height="9.3966" rx="4.6983" transform="rotate(-11.16 126.418 105.87)" fill="#DEDEDE"/>
<g filter="url(#filter2_i_1_2577)">
<rect x="136" y="12" width="96" height="120" rx="15" fill="white"/>
</g>
<rect x="136.5" y="12.5" width="95" height="119" rx="14.5" stroke="#EEEEEE"/>
<rect x="149" y="29.4473" width="34" height="12.7368" rx="6.36842" fill="#0E64DD"/>
<rect opacity="0.4" x="149" y="49.1318" width="46.5263" height="10.9474" rx="5.47368" fill="#DEDEDE"/>
<rect opacity="0.4" x="149" y="67" width="68" height="10.9474" rx="5.47368" fill="#DEDEDE"/>
<rect opacity="0.4" x="149" y="86.7109" width="68" height="10.9474" rx="5.47368" fill="#DEDEDE"/>
<rect opacity="0.4" x="149" y="104.605" width="19.6842" height="10.9474" rx="5.47368" fill="#DEDEDE"/>
<rect x="-0.326189" y="0.326189" width="61.9759" height="77.6329" rx="9.45947" transform="matrix(-1 0 0 1 68.7729 6.29883)" fill="white" stroke="#EEEEEE" stroke-width="0.652377"/>
<rect width="22.1808" height="8.30923" rx="4.15461" transform="matrix(-1 0 0 1 60.9703 17.623)" fill="#0E64DD"/>
<rect opacity="0.4" width="30.3527" height="7.14182" rx="3.57091" transform="matrix(-1 0 0 1 60.9703 30.4648)" fill="#DEDEDE"/>
<rect opacity="0.4" width="44.3617" height="7.14182" rx="3.57091" transform="matrix(-1 0 0 1 60.9703 42.1216)" fill="#DEDEDE"/>
<rect opacity="0.4" width="44.3617" height="7.14182" rx="3.57091" transform="matrix(-1 0 0 1 60.9703 54.9805)" fill="#DEDEDE"/>
<rect opacity="0.4" width="12.8415" height="7.14182" rx="3.57091" transform="matrix(-1 0 0 1 60.9703 66.6545)" fill="#DEDEDE"/>
<g filter="url(#filter3_i_1_2577)">
<rect width="62.6282" height="78.2853" rx="9.78566" transform="matrix(-0.996195 -0.0871557 -0.0871557 0.996195 80 9.177)" fill="white"/>
</g>
<rect x="-0.353377" y="0.296518" width="61.9759" height="77.6329" rx="9.45947" transform="matrix(-0.996195 -0.0871557 -0.0871557 0.996195 79.3204 9.14733)" stroke="#EEEEEE" stroke-width="0.652377"/>
<rect width="22.1808" height="8.30923" rx="4.15461" transform="matrix(-0.996195 -0.0871557 -0.0871557 0.996195 70.5903 19.7212)" fill="#F2F2F2"/>
<rect opacity="0.4" width="30.3527" height="7.14182" rx="3.57091" transform="matrix(-0.996195 -0.0871557 -0.0871557 0.996195 69.4711 32.5142)" fill="#DEDEDE"/>
<rect opacity="0.4" width="44.3617" height="7.14182" rx="3.57091" transform="matrix(-0.996195 -0.0871557 -0.0871557 0.996195 68.4551 44.1265)" fill="#DEDEDE"/>
<rect opacity="0.4" width="44.3617" height="7.14182" rx="3.57091" transform="matrix(-0.996195 -0.0871557 -0.0871557 0.996195 67.3344 56.9365)" fill="#DEDEDE"/>
<rect opacity="0.4" width="12.8415" height="7.14182" rx="3.57091" transform="matrix(-0.996195 -0.0871557 -0.0871557 0.996195 66.3169 68.5662)" fill="#DEDEDE"/>
<rect x="298.901" y="6.62502" width="61.9759" height="77.6329" rx="9.45947" fill="white" stroke="#EEEEEE" stroke-width="0.652377"/>
<rect x="307.03" y="17.623" width="22.1808" height="8.30923" rx="4.15461" fill="#0E64DD"/>
<rect opacity="0.4" x="307.03" y="30.4648" width="30.3527" height="7.14182" rx="3.57091" fill="#DEDEDE"/>
<rect opacity="0.4" x="307.03" y="42.1216" width="44.3617" height="7.14182" rx="3.57091" fill="#DEDEDE"/>
<rect opacity="0.4" x="307.03" y="54.9805" width="44.3617" height="7.14182" rx="3.57091" fill="#DEDEDE"/>
<rect opacity="0.4" x="307.03" y="66.6545" width="12.8415" height="7.14182" rx="3.57091" fill="#DEDEDE"/>
<g filter="url(#filter4_i_1_2577)">
<rect x="288" y="9.177" width="62.6282" height="78.2853" rx="9.78566" transform="rotate(-5 288 9.177)" fill="white"/>
</g>
<rect x="288.353" y="9.47352" width="61.9759" height="77.6329" rx="9.45947" transform="rotate(-5 288.353 9.47352)" stroke="#EEEEEE" stroke-width="0.652377"/>
<rect x="297.41" y="19.7212" width="22.1808" height="8.30923" rx="4.15461" transform="rotate(-5 297.41 19.7212)" fill="#F2F2F2"/>
<rect opacity="0.4" x="298.529" y="32.5142" width="30.3527" height="7.14182" rx="3.57091" transform="rotate(-5 298.529 32.5142)" fill="#DEDEDE"/>
<rect opacity="0.4" x="299.545" y="44.1265" width="44.3617" height="7.14182" rx="3.57091" transform="rotate(-5 299.545 44.1265)" fill="#DEDEDE"/>
<rect opacity="0.4" x="300.666" y="56.9365" width="44.3617" height="7.14182" rx="3.57091" transform="rotate(-5 300.666 56.9365)" fill="#DEDEDE"/>
<rect opacity="0.4" x="301.683" y="68.5662" width="12.8415" height="7.14182" rx="3.57091" transform="rotate(-5 301.683 68.5662)" fill="#DEDEDE"/>
<g filter="url(#filter5_i_1_2577)">
<circle cx="223.5" cy="122.5" r="12.5" transform="rotate(-8.56403 223.5 122.5)" fill="url(#paint0_linear_1_2577)"/>
</g>
<circle cx="223.5" cy="122.5" r="12" transform="rotate(-8.56403 223.5 122.5)" stroke="#0757C3"/>
<path d="M228.269 117.232L221.339 126.618L217.072 123.468" stroke="white" stroke-width="2" stroke-linecap="round" stroke-linejoin="round"/>
<defs>
<filter id="filter0_i_1_2577" x="165.247" y="16.2456" width="96.2842" height="112.509" filterUnits="userSpaceOnUse" color-interpolation-filters="sRGB">
<feFlood flood-opacity="0" result="BackgroundImageFix"/>
<feBlend mode="normal" in="SourceGraphic" in2="BackgroundImageFix" result="shape"/>
<feColorMatrix in="SourceAlpha" type="matrix" values="0 0 0 0 0 0 0 0 0 0 0 0 0 0 0 0 0 0 127 0" result="hardAlpha"/>
<feOffset dy="-1.71669"/>
<feComposite in2="hardAlpha" operator="arithmetic" k2="-1" k3="1"/>
<feColorMatrix type="matrix" values="0 0 0 0 0 0 0 0 0 0 0 0 0 0 0 0 0 0 0.1 0"/>
<feBlend mode="normal" in2="shape" result="effect1_innerShadow_1_2577"/>
</filter>
<filter id="filter1_i_1_2577" x="102.246" y="16.2461" width="96.2865" height="112.51" filterUnits="userSpaceOnUse" color-interpolation-filters="sRGB">
<feFlood flood-opacity="0" result="BackgroundImageFix"/>
<feBlend mode="normal" in="SourceGraphic" in2="BackgroundImageFix" result="shape"/>
<feColorMatrix in="SourceAlpha" type="matrix" values="0 0 0 0 0 0 0 0 0 0 0 0 0 0 0 0 0 0 127 0" result="hardAlpha"/>
<feOffset dy="-1.71669"/>
<feComposite in2="hardAlpha" operator="arithmetic" k2="-1" k3="1"/>
<feColorMatrix type="matrix" values="0 0 0 0 0 0 0 0 0 0 0 0 0 0 0 0 0 0 0.1 0"/>
<feBlend mode="normal" in2="shape" result="effect1_innerShadow_1_2577"/>
</filter>
<filter id="filter2_i_1_2577" x="136" y="12" width="96" height="120" filterUnits="userSpaceOnUse" color-interpolation-filters="sRGB">
<feFlood flood-opacity="0" result="BackgroundImageFix"/>
<feBlend mode="normal" in="SourceGraphic" in2="BackgroundImageFix" result="shape"/>
<feColorMatrix in="SourceAlpha" type="matrix" values="0 0 0 0 0 0 0 0 0 0 0 0 0 0 0 0 0 0 127 0" result="hardAlpha"/>
<feOffset dy="-2"/>
<feComposite in2="hardAlpha" operator="arithmetic" k2="-1" k3="1"/>
<feColorMatrix type="matrix" values="0 0 0 0 0 0 0 0 0 0 0 0 0 0 0 0 0 0 0.1 0"/>
<feBlend mode="normal" in2="shape" result="effect1_innerShadow_1_2577"/>
</filter>
<filter id="filter3_i_1_2577" x="11.6022" y="4.53369" width="67.5828" height="81.8157" filterUnits="userSpaceOnUse" color-interpolation-filters="sRGB">
<feFlood flood-opacity="0" result="BackgroundImageFix"/>
<feBlend mode="normal" in="SourceGraphic" in2="BackgroundImageFix" result="shape"/>
<feColorMatrix in="SourceAlpha" type="matrix" values="0 0 0 0 0 0 0 0 0 0 0 0 0 0 0 0 0 0 127 0" result="hardAlpha"/>
<feOffset dy="-1.30475"/>
<feComposite in2="hardAlpha" operator="arithmetic" k2="-1" k3="1"/>
<feColorMatrix type="matrix" values="0 0 0 0 0 0 0 0 0 0 0 0 0 0 0 0 0 0 0.1 0"/>
<feBlend mode="normal" in2="shape" result="effect1_innerShadow_1_2577"/>
</filter>
<filter id="filter4_i_1_2577" x="288.815" y="4.53369" width="67.5829" height="81.8157" filterUnits="userSpaceOnUse" color-interpolation-filters="sRGB">
<feFlood flood-opacity="0" result="BackgroundImageFix"/>
<feBlend mode="normal" in="SourceGraphic" in2="BackgroundImageFix" result="shape"/>
<feColorMatrix in="SourceAlpha" type="matrix" values="0 0 0 0 0 0 0 0 0 0 0 0 0 0 0 0 0 0 127 0" result="hardAlpha"/>
<feOffset dy="-1.30475"/>
<feComposite in2="hardAlpha" operator="arithmetic" k2="-1" k3="1"/>
<feColorMatrix type="matrix" values="0 0 0 0 0 0 0 0 0 0 0 0 0 0 0 0 0 0 0.1 0"/>
<feBlend mode="normal" in2="shape" result="effect1_innerShadow_1_2577"/>
</filter>
<filter id="filter5_i_1_2577" x="210.998" y="109.999" width="25.0034" height="25.0034" filterUnits="userSpaceOnUse" color-interpolation-filters="sRGB">
<feFlood flood-opacity="0" result="BackgroundImageFix"/>
<feBlend mode="normal" in="SourceGraphic" in2="BackgroundImageFix" result="shape"/>
<feColorMatrix in="SourceAlpha" type="matrix" values="0 0 0 0 0 0 0 0 0 0 0 0 0 0 0 0 0 0 127 0" result="hardAlpha"/>
<feOffset dy="4"/>
<feComposite in2="hardAlpha" operator="arithmetic" k2="-1" k3="1"/>
<feColorMatrix type="matrix" values="0 0 0 0 1 0 0 0 0 1 0 0 0 0 1 0 0 0 0.1 0"/>
<feBlend mode="normal" in2="shape" result="effect1_innerShadow_1_2577"/>
</filter>
<linearGradient id="paint0_linear_1_2577" x1="223.5" y1="110" x2="223.5" y2="135" gradientUnits="userSpaceOnUse">
<stop stop-color="#1675FF"/>
<stop offset="1" stop-color="#0757C4"/>
</linearGradient>
</defs>
</svg>
