<svg width="368" height="146" viewBox="0 0 368 146" fill="none" xmlns="http://www.w3.org/2000/svg">
<circle cx="85" cy="64" r="1" fill="black" fill-opacity="0.09"/>
<circle cx="85" cy="57" r="1" fill="black" fill-opacity="0.25"/>
<circle cx="85" cy="50" r="1" fill="black" fill-opacity="0.25"/>
<circle cx="85" cy="43" r="1" fill="black" fill-opacity="0.18"/>
<circle cx="85" cy="36" r="1" fill="black" fill-opacity="0.19"/>
<circle cx="85" cy="29" r="1" fill="black" fill-opacity="0.11"/>
<circle cx="85" cy="22" r="1" fill="black" fill-opacity="0.11"/>
<circle cx="85" cy="15" r="1" fill="black" fill-opacity="0.09"/>
<circle cx="85" cy="8" r="1" fill="black" fill-opacity="0.01"/>
<circle cx="85" cy="1" r="1" fill="black" fill-opacity="0.23"/>
<circle cx="78" cy="64" r="1" fill="black" fill-opacity="0.2"/>
<circle cx="78" cy="57" r="1" fill="black" fill-opacity="0.14"/>
<circle cx="78" cy="50" r="1" fill="black" fill-opacity="0.08"/>
<circle cx="78" cy="43" r="1" fill="black" fill-opacity="0.19"/>
<circle cx="78" cy="36" r="1" fill="black" fill-opacity="0.14"/>
<circle cx="78" cy="29" r="1" fill="black" fill-opacity="0.24"/>
<circle cx="78" cy="22" r="1" fill="black" fill-opacity="0.01"/>
<circle cx="78" cy="15" r="1" fill="black" fill-opacity="0.21"/>
<circle cx="78" cy="8" r="1" fill="black" fill-opacity="0.03"/>
<circle cx="78" cy="1" r="1" fill="black" fill-opacity="0.24"/>
<circle cx="71" cy="64" r="1" fill="black" fill-opacity="0.07"/>
<circle cx="71" cy="57" r="1" fill="black" fill-opacity="0.12"/>
<circle cx="71" cy="50" r="1" fill="black" fill-opacity="0.24"/>
<circle cx="71" cy="43" r="1" fill="black" fill-opacity="0.06"/>
<circle cx="71" cy="36" r="1" fill="black" fill-opacity="0.03"/>
<circle cx="71" cy="29" r="1" fill="black" fill-opacity="0.12"/>
<circle cx="71" cy="22" r="1" fill="black" fill-opacity="0.21"/>
<circle cx="71" cy="15" r="1" fill="black" fill-opacity="0.25"/>
<circle cx="71" cy="8" r="1" fill="black" fill-opacity="0.14"/>
<circle cx="71" cy="1" r="1" fill="black" fill-opacity="0.22"/>
<circle cx="64" cy="64" r="1" fill="black" fill-opacity="0.06"/>
<circle cx="64" cy="57" r="1" fill="black" fill-opacity="0.23"/>
<circle cx="64" cy="43" r="1" fill="black" fill-opacity="0.2"/>
<circle cx="64" cy="36" r="1" fill="black" fill-opacity="0.14"/>
<circle cx="64" cy="29" r="1" fill="black" fill-opacity="0.11"/>
<circle cx="64" cy="22" r="1" fill="black" fill-opacity="0.12"/>
<circle cx="64" cy="8" r="1" fill="black" fill-opacity="0.1"/>
<circle cx="64" cy="1" r="1" fill="black" fill-opacity="0.11"/>
<circle cx="57" cy="64" r="1" fill="black" fill-opacity="0.04"/>
<circle cx="57" cy="57" r="1" fill="black" fill-opacity="0.16"/>
<circle cx="57" cy="50" r="1" fill="black" fill-opacity="0.06"/>
<circle cx="57" cy="43" r="1" fill="black" fill-opacity="0.21"/>
<circle cx="57" cy="36" r="1" fill="black" fill-opacity="0.2"/>
<circle cx="57" cy="29" r="1" fill="black" fill-opacity="0.11"/>
<circle cx="57" cy="22" r="1" fill="black" fill-opacity="0.1"/>
<circle cx="57" cy="15" r="1" fill="black" fill-opacity="0.1"/>
<circle cx="57" cy="8" r="1" fill="black" fill-opacity="0.1"/>
<circle cx="57" cy="1" r="1" fill="black" fill-opacity="0.02"/>
<circle cx="50" cy="64" r="1" fill="black" fill-opacity="0.14"/>
<circle cx="50" cy="57" r="1" fill="black" fill-opacity="0.07"/>
<circle cx="50" cy="50" r="1" fill="black" fill-opacity="0.02"/>
<circle cx="50" cy="43" r="1" fill="black" fill-opacity="0.25"/>
<circle cx="50" cy="36" r="1" fill="black" fill-opacity="0.15"/>
<circle cx="50" cy="29" r="1" fill="black" fill-opacity="0.12"/>
<circle cx="50" cy="22" r="1" fill="black" fill-opacity="0.07"/>
<circle cx="50" cy="15" r="1" fill="black" fill-opacity="0.02"/>
<circle cx="50" cy="8" r="1" fill="black" fill-opacity="0.21"/>
<circle cx="50" cy="1" r="1" fill="black" fill-opacity="0.08"/>
<circle cx="43" cy="64" r="1" fill="black" fill-opacity="0.04"/>
<circle cx="43" cy="57" r="1" fill="black" fill-opacity="0.06"/>
<circle cx="43" cy="50" r="1" fill="black" fill-opacity="0.18"/>
<circle cx="43" cy="43" r="1" fill="black" fill-opacity="0.01"/>
<circle cx="43" cy="36" r="1" fill="black" fill-opacity="0.06"/>
<circle cx="43" cy="29" r="1" fill="black" fill-opacity="0.02"/>
<circle cx="43" cy="22" r="1" fill="black" fill-opacity="0.02"/>
<circle cx="43" cy="15" r="1" fill="black" fill-opacity="0.24"/>
<circle cx="43" cy="8" r="1" fill="black" fill-opacity="0.18"/>
<circle cx="43" cy="1" r="1" fill="black" fill-opacity="0.16"/>
<circle cx="36" cy="64" r="1" fill="black" fill-opacity="0.17"/>
<circle cx="36" cy="57" r="1" fill="black" fill-opacity="0.24"/>
<circle cx="36" cy="50" r="1" fill="black" fill-opacity="0.17"/>
<circle cx="36" cy="43" r="1" fill="black" fill-opacity="0.24"/>
<circle cx="36" cy="36" r="1" fill="black" fill-opacity="0.15"/>
<circle cx="36" cy="29" r="1" fill="black" fill-opacity="0.1"/>
<circle cx="36" cy="22" r="1" fill="black" fill-opacity="0.04"/>
<circle cx="36" cy="15" r="1" fill="black" fill-opacity="0.2"/>
<circle cx="36" cy="8" r="1" fill="black" fill-opacity="0.15"/>
<circle cx="36" cy="1" r="1" fill="black" fill-opacity="0.12"/>
<circle cx="29" cy="64" r="1" fill="black" fill-opacity="0.22"/>
<circle cx="29" cy="57" r="1" fill="black" fill-opacity="0.1"/>
<circle cx="29" cy="50" r="1" fill="black" fill-opacity="0.03"/>
<circle cx="29" cy="43" r="1" fill="black" fill-opacity="0.16"/>
<circle cx="29" cy="36" r="1" fill="black" fill-opacity="0.13"/>
<circle cx="29" cy="29" r="1" fill="black" fill-opacity="0.16"/>
<circle cx="29" cy="22" r="1" fill="black" fill-opacity="0.14"/>
<circle cx="29" cy="15" r="1" fill="black" fill-opacity="0.14"/>
<circle cx="29" cy="8" r="1" fill="black" fill-opacity="0.2"/>
<circle cx="29" cy="1" r="1" fill="black" fill-opacity="0.08"/>
<circle cx="22" cy="64" r="1" fill="black" fill-opacity="0.06"/>
<circle cx="22" cy="57" r="1" fill="black" fill-opacity="0.1"/>
<circle cx="22" cy="50" r="1" fill="black" fill-opacity="0.01"/>
<circle cx="22" cy="43" r="1" fill="black" fill-opacity="0.1"/>
<circle cx="22" cy="36" r="1" fill="black" fill-opacity="0.05"/>
<circle cx="22" cy="29" r="1" fill="black" fill-opacity="0.03"/>
<circle cx="22" cy="22" r="1" fill="black" fill-opacity="0.06"/>
<circle cx="22" cy="15" r="1" fill="black" fill-opacity="0.06"/>
<circle cx="22" cy="1" r="1" fill="black" fill-opacity="0.1"/>
<circle cx="15" cy="64" r="1" fill="black" fill-opacity="0.01"/>
<circle cx="15" cy="57" r="1" fill="black" fill-opacity="0.02"/>
<circle cx="15" cy="50" r="1" fill="black" fill-opacity="0.03"/>
<circle cx="15" cy="43" r="1" fill="black" fill-opacity="0.2"/>
<circle cx="15" cy="36" r="1" fill="black" fill-opacity="0.02"/>
<circle cx="15" cy="29" r="1" fill="black" fill-opacity="0.1"/>
<circle cx="15" cy="22" r="1" fill="black" fill-opacity="0.01"/>
<circle cx="15" cy="15" r="1" fill="black" fill-opacity="0.11"/>
<circle cx="15" cy="8" r="1" fill="black" fill-opacity="0.18"/>
<circle cx="15" cy="1" r="1" fill="black" fill-opacity="0.01"/>
<circle cx="8" cy="57" r="1" fill="black" fill-opacity="0.08"/>
<circle cx="8" cy="50" r="1" fill="black" fill-opacity="0.03"/>
<circle cx="8" cy="43" r="1" fill="black" fill-opacity="0.01"/>
<circle cx="8" cy="36" r="1" fill="black" fill-opacity="0.07"/>
<circle cx="8" cy="29" r="1" fill="black" fill-opacity="0.1"/>
<circle cx="8" cy="22" r="1" fill="black" fill-opacity="0.09"/>
<circle cx="8" cy="15" r="1" fill="black" fill-opacity="0.08"/>
<circle cx="8" cy="8" r="1" fill="black" fill-opacity="0.14"/>
<circle cx="8" cy="1" r="1" fill="black" fill-opacity="0.2"/>
<circle cx="1" cy="64" r="1" fill="black" fill-opacity="0.21"/>
<circle cx="1" cy="57" r="1" fill="black" fill-opacity="0.14"/>
<circle cx="1" cy="50" r="1" fill="black" fill-opacity="0.18"/>
<circle cx="1" cy="36" r="1" fill="black" fill-opacity="0.25"/>
<circle cx="1" cy="29" r="1" fill="black" fill-opacity="0.01"/>
<circle cx="1" cy="22" r="1" fill="black" fill-opacity="0.11"/>
<circle cx="1" cy="15" r="1" fill="black" fill-opacity="0.09"/>
<circle cx="1" cy="8" r="1" fill="black" fill-opacity="0.12"/>
<circle cx="1" cy="1" r="1" fill="black" fill-opacity="0.13"/>
<circle cx="1" cy="1" r="1" transform="matrix(1 0 0 -1 366 74)" fill="black" fill-opacity="0.09"/>
<circle cx="1" cy="1" r="1" transform="matrix(1 0 0 -1 366 81)" fill="black" fill-opacity="0.25"/>
<circle cx="1" cy="1" r="1" transform="matrix(1 0 0 -1 366 88)" fill="black" fill-opacity="0.25"/>
<circle cx="1" cy="1" r="1" transform="matrix(1 0 0 -1 366 95)" fill="black" fill-opacity="0.18"/>
<circle cx="1" cy="1" r="1" transform="matrix(1 0 0 -1 366 102)" fill="black" fill-opacity="0.19"/>
<circle cx="1" cy="1" r="1" transform="matrix(1 0 0 -1 366 109)" fill="black" fill-opacity="0.11"/>
<circle cx="1" cy="1" r="1" transform="matrix(1 0 0 -1 366 116)" fill="black" fill-opacity="0.11"/>
<circle cx="1" cy="1" r="1" transform="matrix(1 0 0 -1 366 123)" fill="black" fill-opacity="0.09"/>
<circle cx="1" cy="1" r="1" transform="matrix(1 0 0 -1 366 130)" fill="black" fill-opacity="0.01"/>
<circle cx="1" cy="1" r="1" transform="matrix(1 0 0 -1 366 137)" fill="black" fill-opacity="0.23"/>
<circle cx="1" cy="1" r="1" transform="matrix(1 0 0 -1 359 74)" fill="black" fill-opacity="0.2"/>
<circle cx="1" cy="1" r="1" transform="matrix(1 0 0 -1 359 81)" fill="black" fill-opacity="0.14"/>
<circle cx="1" cy="1" r="1" transform="matrix(1 0 0 -1 359 88)" fill="black" fill-opacity="0.08"/>
<circle cx="1" cy="1" r="1" transform="matrix(1 0 0 -1 359 95)" fill="black" fill-opacity="0.19"/>
<circle cx="1" cy="1" r="1" transform="matrix(1 0 0 -1 359 102)" fill="black" fill-opacity="0.14"/>
<circle cx="1" cy="1" r="1" transform="matrix(1 0 0 -1 359 109)" fill="black" fill-opacity="0.24"/>
<circle cx="1" cy="1" r="1" transform="matrix(1 0 0 -1 359 116)" fill="black" fill-opacity="0.01"/>
<circle cx="1" cy="1" r="1" transform="matrix(1 0 0 -1 359 123)" fill="black" fill-opacity="0.21"/>
<circle cx="1" cy="1" r="1" transform="matrix(1 0 0 -1 359 130)" fill="black" fill-opacity="0.03"/>
<circle cx="1" cy="1" r="1" transform="matrix(1 0 0 -1 359 137)" fill="black" fill-opacity="0.24"/>
<circle cx="1" cy="1" r="1" transform="matrix(1 0 0 -1 352 74)" fill="black" fill-opacity="0.07"/>
<circle cx="1" cy="1" r="1" transform="matrix(1 0 0 -1 352 81)" fill="black" fill-opacity="0.12"/>
<circle cx="1" cy="1" r="1" transform="matrix(1 0 0 -1 352 88)" fill="black" fill-opacity="0.24"/>
<circle cx="1" cy="1" r="1" transform="matrix(1 0 0 -1 352 95)" fill="black" fill-opacity="0.06"/>
<circle cx="1" cy="1" r="1" transform="matrix(1 0 0 -1 352 102)" fill="black" fill-opacity="0.03"/>
<circle cx="1" cy="1" r="1" transform="matrix(1 0 0 -1 352 109)" fill="black" fill-opacity="0.12"/>
<circle cx="1" cy="1" r="1" transform="matrix(1 0 0 -1 352 116)" fill="black" fill-opacity="0.21"/>
<circle cx="1" cy="1" r="1" transform="matrix(1 0 0 -1 352 123)" fill="black" fill-opacity="0.25"/>
<circle cx="1" cy="1" r="1" transform="matrix(1 0 0 -1 352 130)" fill="black" fill-opacity="0.14"/>
<circle cx="1" cy="1" r="1" transform="matrix(1 0 0 -1 352 137)" fill="black" fill-opacity="0.22"/>
<circle cx="1" cy="1" r="1" transform="matrix(1 0 0 -1 345 74)" fill="black" fill-opacity="0.06"/>
<circle cx="1" cy="1" r="1" transform="matrix(1 0 0 -1 345 81)" fill="black" fill-opacity="0.23"/>
<circle cx="1" cy="1" r="1" transform="matrix(1 0 0 -1 345 95)" fill="black" fill-opacity="0.2"/>
<circle cx="1" cy="1" r="1" transform="matrix(1 0 0 -1 345 102)" fill="black" fill-opacity="0.14"/>
<circle cx="1" cy="1" r="1" transform="matrix(1 0 0 -1 345 109)" fill="black" fill-opacity="0.11"/>
<circle cx="1" cy="1" r="1" transform="matrix(1 0 0 -1 345 116)" fill="black" fill-opacity="0.12"/>
<circle cx="1" cy="1" r="1" transform="matrix(1 0 0 -1 345 130)" fill="black" fill-opacity="0.1"/>
<circle cx="1" cy="1" r="1" transform="matrix(1 0 0 -1 345 137)" fill="black" fill-opacity="0.11"/>
<circle cx="1" cy="1" r="1" transform="matrix(1 0 0 -1 338 74)" fill="black" fill-opacity="0.04"/>
<circle cx="1" cy="1" r="1" transform="matrix(1 0 0 -1 338 81)" fill="black" fill-opacity="0.16"/>
<circle cx="1" cy="1" r="1" transform="matrix(1 0 0 -1 338 88)" fill="black" fill-opacity="0.06"/>
<circle cx="1" cy="1" r="1" transform="matrix(1 0 0 -1 338 95)" fill="black" fill-opacity="0.21"/>
<circle cx="1" cy="1" r="1" transform="matrix(1 0 0 -1 338 102)" fill="black" fill-opacity="0.2"/>
<circle cx="1" cy="1" r="1" transform="matrix(1 0 0 -1 338 109)" fill="black" fill-opacity="0.11"/>
<circle cx="1" cy="1" r="1" transform="matrix(1 0 0 -1 338 116)" fill="black" fill-opacity="0.1"/>
<circle cx="1" cy="1" r="1" transform="matrix(1 0 0 -1 338 123)" fill="black" fill-opacity="0.1"/>
<circle cx="1" cy="1" r="1" transform="matrix(1 0 0 -1 338 130)" fill="black" fill-opacity="0.1"/>
<circle cx="1" cy="1" r="1" transform="matrix(1 0 0 -1 338 137)" fill="black" fill-opacity="0.02"/>
<circle cx="1" cy="1" r="1" transform="matrix(1 0 0 -1 331 74)" fill="black" fill-opacity="0.14"/>
<circle cx="1" cy="1" r="1" transform="matrix(1 0 0 -1 331 81)" fill="black" fill-opacity="0.07"/>
<circle cx="1" cy="1" r="1" transform="matrix(1 0 0 -1 331 88)" fill="black" fill-opacity="0.02"/>
<circle cx="1" cy="1" r="1" transform="matrix(1 0 0 -1 331 95)" fill="black" fill-opacity="0.25"/>
<circle cx="1" cy="1" r="1" transform="matrix(1 0 0 -1 331 102)" fill="black" fill-opacity="0.15"/>
<circle cx="1" cy="1" r="1" transform="matrix(1 0 0 -1 331 109)" fill="black" fill-opacity="0.12"/>
<circle cx="1" cy="1" r="1" transform="matrix(1 0 0 -1 331 116)" fill="black" fill-opacity="0.07"/>
<circle cx="1" cy="1" r="1" transform="matrix(1 0 0 -1 331 123)" fill="black" fill-opacity="0.02"/>
<circle cx="1" cy="1" r="1" transform="matrix(1 0 0 -1 331 130)" fill="black" fill-opacity="0.21"/>
<circle cx="1" cy="1" r="1" transform="matrix(1 0 0 -1 331 137)" fill="black" fill-opacity="0.08"/>
<circle cx="1" cy="1" r="1" transform="matrix(1 0 0 -1 324 74)" fill="black" fill-opacity="0.04"/>
<circle cx="1" cy="1" r="1" transform="matrix(1 0 0 -1 324 81)" fill="black" fill-opacity="0.06"/>
<circle cx="1" cy="1" r="1" transform="matrix(1 0 0 -1 324 88)" fill="black" fill-opacity="0.18"/>
<circle cx="1" cy="1" r="1" transform="matrix(1 0 0 -1 324 95)" fill="black" fill-opacity="0.01"/>
<circle cx="1" cy="1" r="1" transform="matrix(1 0 0 -1 324 102)" fill="black" fill-opacity="0.06"/>
<circle cx="1" cy="1" r="1" transform="matrix(1 0 0 -1 324 109)" fill="black" fill-opacity="0.02"/>
<circle cx="1" cy="1" r="1" transform="matrix(1 0 0 -1 324 116)" fill="black" fill-opacity="0.02"/>
<circle cx="1" cy="1" r="1" transform="matrix(1 0 0 -1 324 123)" fill="black" fill-opacity="0.24"/>
<circle cx="1" cy="1" r="1" transform="matrix(1 0 0 -1 324 130)" fill="black" fill-opacity="0.18"/>
<circle cx="1" cy="1" r="1" transform="matrix(1 0 0 -1 324 137)" fill="black" fill-opacity="0.16"/>
<circle cx="1" cy="1" r="1" transform="matrix(1 0 0 -1 317 74)" fill="black" fill-opacity="0.17"/>
<circle cx="1" cy="1" r="1" transform="matrix(1 0 0 -1 317 81)" fill="black" fill-opacity="0.24"/>
<circle cx="1" cy="1" r="1" transform="matrix(1 0 0 -1 317 88)" fill="black" fill-opacity="0.17"/>
<circle cx="1" cy="1" r="1" transform="matrix(1 0 0 -1 317 95)" fill="black" fill-opacity="0.24"/>
<circle cx="1" cy="1" r="1" transform="matrix(1 0 0 -1 317 102)" fill="black" fill-opacity="0.15"/>
<circle cx="1" cy="1" r="1" transform="matrix(1 0 0 -1 317 109)" fill="black" fill-opacity="0.1"/>
<circle cx="1" cy="1" r="1" transform="matrix(1 0 0 -1 317 116)" fill="black" fill-opacity="0.04"/>
<circle cx="1" cy="1" r="1" transform="matrix(1 0 0 -1 317 123)" fill="black" fill-opacity="0.2"/>
<circle cx="1" cy="1" r="1" transform="matrix(1 0 0 -1 317 130)" fill="black" fill-opacity="0.15"/>
<circle cx="1" cy="1" r="1" transform="matrix(1 0 0 -1 317 137)" fill="black" fill-opacity="0.12"/>
<circle cx="1" cy="1" r="1" transform="matrix(1 0 0 -1 310 74)" fill="black" fill-opacity="0.22"/>
<circle cx="1" cy="1" r="1" transform="matrix(1 0 0 -1 310 81)" fill="black" fill-opacity="0.1"/>
<circle cx="1" cy="1" r="1" transform="matrix(1 0 0 -1 310 88)" fill="black" fill-opacity="0.03"/>
<circle cx="1" cy="1" r="1" transform="matrix(1 0 0 -1 310 95)" fill="black" fill-opacity="0.16"/>
<circle cx="1" cy="1" r="1" transform="matrix(1 0 0 -1 310 102)" fill="black" fill-opacity="0.13"/>
<circle cx="1" cy="1" r="1" transform="matrix(1 0 0 -1 310 109)" fill="black" fill-opacity="0.16"/>
<circle cx="1" cy="1" r="1" transform="matrix(1 0 0 -1 310 116)" fill="black" fill-opacity="0.14"/>
<circle cx="1" cy="1" r="1" transform="matrix(1 0 0 -1 310 123)" fill="black" fill-opacity="0.14"/>
<circle cx="1" cy="1" r="1" transform="matrix(1 0 0 -1 310 130)" fill="black" fill-opacity="0.2"/>
<circle cx="1" cy="1" r="1" transform="matrix(1 0 0 -1 310 137)" fill="black" fill-opacity="0.08"/>
<circle cx="1" cy="1" r="1" transform="matrix(1 0 0 -1 303 74)" fill="black" fill-opacity="0.06"/>
<circle cx="1" cy="1" r="1" transform="matrix(1 0 0 -1 303 81)" fill="black" fill-opacity="0.1"/>
<circle cx="1" cy="1" r="1" transform="matrix(1 0 0 -1 303 88)" fill="black" fill-opacity="0.01"/>
<circle cx="1" cy="1" r="1" transform="matrix(1 0 0 -1 303 95)" fill="black" fill-opacity="0.1"/>
<circle cx="1" cy="1" r="1" transform="matrix(1 0 0 -1 303 102)" fill="black" fill-opacity="0.05"/>
<circle cx="1" cy="1" r="1" transform="matrix(1 0 0 -1 303 109)" fill="black" fill-opacity="0.03"/>
<circle cx="1" cy="1" r="1" transform="matrix(1 0 0 -1 303 116)" fill="black" fill-opacity="0.06"/>
<circle cx="1" cy="1" r="1" transform="matrix(1 0 0 -1 303 123)" fill="black" fill-opacity="0.06"/>
<circle cx="1" cy="1" r="1" transform="matrix(1 0 0 -1 303 137)" fill="black" fill-opacity="0.1"/>
<circle cx="1" cy="1" r="1" transform="matrix(1 0 0 -1 296 74)" fill="black" fill-opacity="0.01"/>
<circle cx="1" cy="1" r="1" transform="matrix(1 0 0 -1 296 81)" fill="black" fill-opacity="0.02"/>
<circle cx="1" cy="1" r="1" transform="matrix(1 0 0 -1 296 88)" fill="black" fill-opacity="0.03"/>
<circle cx="1" cy="1" r="1" transform="matrix(1 0 0 -1 296 95)" fill="black" fill-opacity="0.2"/>
<circle cx="1" cy="1" r="1" transform="matrix(1 0 0 -1 296 102)" fill="black" fill-opacity="0.02"/>
<circle cx="1" cy="1" r="1" transform="matrix(1 0 0 -1 296 109)" fill="black" fill-opacity="0.1"/>
<circle cx="1" cy="1" r="1" transform="matrix(1 0 0 -1 296 116)" fill="black" fill-opacity="0.01"/>
<circle cx="1" cy="1" r="1" transform="matrix(1 0 0 -1 296 123)" fill="black" fill-opacity="0.11"/>
<circle cx="1" cy="1" r="1" transform="matrix(1 0 0 -1 296 130)" fill="black" fill-opacity="0.18"/>
<circle cx="1" cy="1" r="1" transform="matrix(1 0 0 -1 296 137)" fill="black" fill-opacity="0.01"/>
<circle cx="1" cy="1" r="1" transform="matrix(1 0 0 -1 289 81)" fill="black" fill-opacity="0.08"/>
<circle cx="1" cy="1" r="1" transform="matrix(1 0 0 -1 289 88)" fill="black" fill-opacity="0.03"/>
<circle cx="1" cy="1" r="1" transform="matrix(1 0 0 -1 289 95)" fill="black" fill-opacity="0.01"/>
<circle cx="1" cy="1" r="1" transform="matrix(1 0 0 -1 289 102)" fill="black" fill-opacity="0.07"/>
<circle cx="1" cy="1" r="1" transform="matrix(1 0 0 -1 289 109)" fill="black" fill-opacity="0.1"/>
<circle cx="1" cy="1" r="1" transform="matrix(1 0 0 -1 289 116)" fill="black" fill-opacity="0.09"/>
<circle cx="1" cy="1" r="1" transform="matrix(1 0 0 -1 289 123)" fill="black" fill-opacity="0.08"/>
<circle cx="1" cy="1" r="1" transform="matrix(1 0 0 -1 289 130)" fill="black" fill-opacity="0.14"/>
<circle cx="1" cy="1" r="1" transform="matrix(1 0 0 -1 289 137)" fill="black" fill-opacity="0.2"/>
<circle cx="1" cy="1" r="1" transform="matrix(1 0 0 -1 282 74)" fill="black" fill-opacity="0.21"/>
<circle cx="1" cy="1" r="1" transform="matrix(1 0 0 -1 282 81)" fill="black" fill-opacity="0.14"/>
<circle cx="1" cy="1" r="1" transform="matrix(1 0 0 -1 282 88)" fill="black" fill-opacity="0.18"/>
<circle cx="1" cy="1" r="1" transform="matrix(1 0 0 -1 282 102)" fill="black" fill-opacity="0.25"/>
<circle cx="1" cy="1" r="1" transform="matrix(1 0 0 -1 282 109)" fill="black" fill-opacity="0.01"/>
<circle cx="1" cy="1" r="1" transform="matrix(1 0 0 -1 282 116)" fill="black" fill-opacity="0.11"/>
<circle cx="1" cy="1" r="1" transform="matrix(1 0 0 -1 282 123)" fill="black" fill-opacity="0.09"/>
<circle cx="1" cy="1" r="1" transform="matrix(1 0 0 -1 282 130)" fill="black" fill-opacity="0.12"/>
<circle cx="1" cy="1" r="1" transform="matrix(1 0 0 -1 282 137)" fill="black" fill-opacity="0.13"/>
<g filter="url(#filter0_i_1_3020)">
<rect x="9" y="7" width="350" height="114" rx="15" fill="white"/>
</g>
<rect x="9.5" y="7.5" width="349" height="113" rx="14.5" stroke="#EEEEEE"/>
<circle opacity="0.05" cx="184.5" cy="120.5" r="25" stroke="#00B140"/>
<path opacity="0.1" d="M204.967 120.5C204.967 131.804 195.803 140.967 184.5 140.967C173.196 140.967 164.033 131.804 164.033 120.5C164.033 109.197 173.196 100.034 184.5 100.034C195.803 100.034 204.967 109.197 204.967 120.5Z" stroke="#00B140"/>
<g filter="url(#filter1_i_1_3020)">
<ellipse cx="184.381" cy="120.381" rx="15.381" ry="15.381" fill="url(#paint0_linear_1_3020)"/>
</g>
<path d="M199.121 120.381C199.121 128.522 192.522 135.121 184.381 135.121C176.24 135.121 169.641 128.522 169.641 120.381C169.641 112.24 176.24 105.641 184.381 105.641C192.522 105.641 199.121 112.24 199.121 120.381Z" stroke="#00B140" stroke-width="1.28125"/>
<path d="M188.875 119.454C188.875 119.151 188.875 119 188.921 118.866C189.053 118.474 189.402 118.322 189.751 118.163C190.144 117.984 190.34 117.894 190.535 117.879C190.756 117.861 190.977 117.908 191.166 118.014C191.416 118.155 191.591 118.422 191.769 118.639C192.595 119.641 193.008 120.143 193.159 120.696C193.28 121.142 193.28 121.608 193.159 122.054C192.938 122.861 192.242 123.537 191.727 124.162C191.464 124.482 191.332 124.642 191.166 124.736C190.977 124.842 190.756 124.889 190.535 124.871C190.34 124.856 190.144 124.766 189.751 124.587C189.402 124.428 189.053 124.276 188.921 123.885C188.875 123.75 188.875 123.599 188.875 123.296V119.454Z" stroke="white" stroke-width="1.25"/>
<path d="M180.125 119.454C180.125 119.073 180.114 118.731 179.806 118.463C179.694 118.366 179.546 118.298 179.249 118.163C178.856 117.984 178.66 117.895 178.465 117.879C177.881 117.832 177.567 118.23 177.231 118.639C176.405 119.642 175.992 120.143 175.841 120.696C175.72 121.142 175.72 121.608 175.841 122.055C176.062 122.861 176.758 123.537 177.273 124.162C177.597 124.557 177.908 124.917 178.465 124.872C178.66 124.856 178.856 124.766 179.249 124.587C179.546 124.452 179.694 124.384 179.806 124.287C180.114 124.019 180.125 123.677 180.125 123.296V119.454Z" stroke="white" stroke-width="1.25"/>
<path d="M178.375 117.875C178.375 114.976 181.117 112.625 184.5 112.625C187.883 112.625 190.625 114.976 190.625 117.875" stroke="white" stroke-width="1.25" stroke-linecap="square" stroke-linejoin="round"/>
<path d="M190.625 124.875V125.575C190.625 127.121 189.058 128.375 187.125 128.375H185.375" stroke="white" stroke-width="1.25" stroke-linecap="round" stroke-linejoin="round"/>
<circle cx="42" cy="35" r="15.5" fill="#1675FF" stroke="white"/>
<path d="M36.7867 30.5053L37.8145 28H45.7157C46.8077 28.1499 48.9918 29.1177 48.9918 31.79C48.9918 34.2239 47.2511 35.3149 46.1478 35.6358C45.9481 35.6939 45.7395 35.7085 45.5315 35.7085H40.127L41.2833 33.0748H45.2841C45.3999 33.0748 45.516 33.0599 45.6212 33.0115C45.9809 32.8458 46.4866 32.4522 46.4866 31.79C46.4866 31.1278 45.9809 30.7342 45.6212 30.5686C45.516 30.5202 45.3999 30.5053 45.2841 30.5053H36.7867Z" fill="white"/>
<path d="M41.0383 31.2532H38.2119L35 38.9617H40.4602L38.0834 45L46.627 36.3922H38.9185L41.0383 31.2532Z" fill="white"/>
<circle cx="59" cy="35" r="15.5" fill="#FF7C33" stroke="white"/>
<path d="M53.7867 30.5053L54.8145 28H62.7157C63.8077 28.1499 65.9918 29.1177 65.9918 31.79C65.9918 34.2239 64.2511 35.3149 63.1478 35.6358C62.9481 35.6939 62.7395 35.7085 62.5315 35.7085H57.127L58.2833 33.0748H62.2841C62.3999 33.0748 62.516 33.0599 62.6212 33.0115C62.9809 32.8458 63.4866 32.4522 63.4866 31.79C63.4866 31.1278 62.9809 30.7342 62.6212 30.5686C62.516 30.5202 62.3999 30.5053 62.2841 30.5053H53.7867Z" fill="white"/>
<path d="M58.0383 31.2532H55.2119L52 38.9617H57.4602L55.0834 45L63.627 36.3922H55.9185L58.0383 31.2532Z" fill="white"/>
<circle cx="76" cy="35" r="15.5" fill="#B516FF" stroke="white"/>
<path d="M70.7867 30.5053L71.8145 28H79.7157C80.8077 28.1499 82.9918 29.1177 82.9918 31.79C82.9918 34.2239 81.2511 35.3149 80.1478 35.6358C79.9481 35.6939 79.7395 35.7085 79.5315 35.7085H74.127L75.2833 33.0748H79.2841C79.3999 33.0748 79.516 33.0599 79.6212 33.0115C79.9809 32.8458 80.4866 32.4522 80.4866 31.79C80.4866 31.1278 79.9809 30.7342 79.6212 30.5686C79.516 30.5202 79.3999 30.5053 79.2841 30.5053H70.7867Z" fill="white"/>
<path d="M75.0383 31.2532H72.2119L69 38.9617H74.4602L72.0834 45L80.627 36.3922H72.9185L75.0383 31.2532Z" fill="white"/>
<circle cx="93" cy="35" r="15.5" fill="#FF6060" stroke="white"/>
<path d="M87.7867 30.5053L88.8145 28H96.7157C97.8077 28.1499 99.9918 29.1177 99.9918 31.79C99.9918 34.2239 98.2511 35.3149 97.1478 35.6358C96.9481 35.6939 96.7395 35.7085 96.5315 35.7085H91.127L92.2833 33.0748H96.2841C96.3999 33.0748 96.516 33.0599 96.6212 33.0115C96.9809 32.8458 97.4866 32.4522 97.4866 31.79C97.4866 31.1278 96.9809 30.7342 96.6212 30.5686C96.516 30.5202 96.3999 30.5053 96.2841 30.5053H87.7867Z" fill="white"/>
<path d="M92.0383 31.2532H89.2119L86 38.9617H91.4602L89.0834 45L97.627 36.3922H89.9185L92.0383 31.2532Z" fill="white"/>
<rect opacity="0.4" x="117" y="29" width="71" height="13" rx="6.5" fill="#DEDEDE"/>
<rect x="214" y="65" width="125" height="35" rx="17.5" fill="#1675FF"/>
<rect opacity="0.2" x="27" y="65" width="71" height="13" rx="6.5" fill="#DEDEDE"/>
<rect opacity="0.2" width="71" height="13" rx="6.5" transform="matrix(-1 0 0 1 195 86)" fill="#DEDEDE"/>
<rect opacity="0.4" x="196" y="29" width="36" height="13" rx="6.5" fill="#DEDEDE"/>
<rect opacity="0.2" x="103" y="65" width="49" height="13" rx="6.5" fill="#DEDEDE"/>
<rect opacity="0.2" width="49" height="13" rx="6.5" transform="matrix(-1 0 0 1 119 86)" fill="#DEDEDE"/>
<rect opacity="0.2" x="157" y="65" width="38" height="13" rx="6.5" fill="#DEDEDE"/>
<rect opacity="0.25" x="247" y="77" width="59" height="11" rx="5.5" fill="white"/>
<rect opacity="0.2" width="38" height="13" rx="6.5" transform="matrix(-1 0 0 1 65 86)" fill="#DEDEDE"/>
<rect x="326" y="29" width="13" height="13" rx="6.5" fill="#12D968"/>
<g filter="url(#filter2_d_1_3020)">
<path d="M284.833 109.763L281.839 94.1914L295.015 101.977L288.427 103.774L284.833 109.763Z" fill="#1675FF"/>
<path d="M282.144 93.6758L281 93L281.251 94.3045L284.245 109.876L284.541 111.414L285.347 110.071L288.817 104.288L295.172 102.555L296.539 102.182L295.319 101.461L282.144 93.6758Z" stroke="white" stroke-width="0.399266" stroke-linecap="square"/>
</g>
<g filter="url(#filter3_d_1_3020)">
<path d="M354.075 112.877H301.593C301.268 112.877 301.004 113.407 301.004 114.061V131.816C301.004 132.47 301.268 133 301.593 133H354.075C354.401 133 354.665 132.47 354.665 131.816V114.061C354.665 113.407 354.401 112.877 354.075 112.877Z" fill="#1675FF"/>
<path d="M308.769 127.908V118.279H310.222V122.464H315.022V118.279H316.479V127.908H315.022V123.709H310.222V127.908H308.769ZM320.451 128.068C319.994 128.068 319.58 127.983 319.21 127.814C318.84 127.641 318.547 127.392 318.331 127.066C318.118 126.74 318.011 126.341 318.011 125.867C318.011 125.46 318.09 125.125 318.246 124.861C318.403 124.598 318.615 124.39 318.881 124.236C319.147 124.082 319.445 123.966 319.774 123.888C320.103 123.81 320.439 123.75 320.78 123.709C321.213 123.659 321.564 123.619 321.833 123.587C322.103 123.553 322.299 123.498 322.421 123.423C322.543 123.347 322.604 123.225 322.604 123.056V123.023C322.604 122.612 322.488 122.294 322.256 122.069C322.028 121.843 321.686 121.73 321.232 121.73C320.758 121.73 320.385 121.835 320.113 122.045C319.843 122.252 319.657 122.482 319.553 122.736L318.232 122.435C318.389 121.997 318.618 121.642 318.919 121.373C319.223 121.1 319.572 120.903 319.967 120.781C320.362 120.655 320.777 120.593 321.213 120.593C321.501 120.593 321.807 120.627 322.13 120.696C322.455 120.762 322.76 120.884 323.042 121.063C323.327 121.241 323.56 121.497 323.742 121.829C323.924 122.158 324.015 122.586 324.015 123.112V127.908H322.642V126.92H322.586C322.495 127.102 322.358 127.281 322.177 127.456C321.995 127.632 321.761 127.778 321.476 127.894C321.191 128.01 320.849 128.068 320.451 128.068ZM320.757 126.939C321.145 126.939 321.478 126.862 321.753 126.709C322.032 126.555 322.244 126.355 322.388 126.107C322.535 125.856 322.609 125.588 322.609 125.303V124.372C322.559 124.422 322.462 124.47 322.318 124.513C322.177 124.554 322.015 124.59 321.833 124.622C321.652 124.65 321.474 124.676 321.302 124.701C321.13 124.723 320.986 124.742 320.87 124.758C320.597 124.792 320.348 124.85 320.122 124.932C319.9 125.013 319.721 125.131 319.586 125.284C319.454 125.435 319.389 125.635 319.389 125.886C319.389 126.234 319.517 126.497 319.774 126.676C320.031 126.851 320.359 126.939 320.757 126.939ZM325.755 127.908V120.687H327.113V121.834H327.189C327.32 121.445 327.552 121.139 327.884 120.917C328.22 120.691 328.599 120.578 329.022 120.578C329.11 120.578 329.213 120.582 329.332 120.588C329.455 120.594 329.55 120.602 329.619 120.611V121.956C329.563 121.94 329.462 121.923 329.318 121.904C329.174 121.882 329.03 121.871 328.886 121.871C328.553 121.871 328.257 121.942 327.997 122.083C327.74 122.221 327.536 122.413 327.386 122.661C327.236 122.906 327.16 123.184 327.16 123.498V127.908H325.755ZM333.148 128.049C332.565 128.049 332.045 127.9 331.587 127.602C331.133 127.301 330.775 126.873 330.515 126.319C330.258 125.761 330.13 125.092 330.13 124.311C330.13 123.531 330.26 122.863 330.52 122.308C330.783 121.754 331.144 121.329 331.601 121.034C332.059 120.74 332.577 120.593 333.157 120.593C333.605 120.593 333.966 120.668 334.239 120.818C334.514 120.965 334.727 121.138 334.878 121.335C335.031 121.533 335.151 121.707 335.235 121.857H335.32V118.279H336.726V127.908H335.353V126.784H335.235C335.151 126.938 335.028 127.113 334.869 127.311C334.712 127.508 334.496 127.68 334.22 127.828C333.944 127.975 333.587 128.049 333.148 128.049ZM333.458 126.85C333.862 126.85 334.204 126.743 334.483 126.53C334.765 126.314 334.978 126.015 335.122 125.632C335.27 125.25 335.343 124.805 335.343 124.297C335.343 123.796 335.271 123.357 335.127 122.981C334.983 122.605 334.771 122.312 334.492 122.102C334.213 121.892 333.869 121.787 333.458 121.787C333.035 121.787 332.682 121.896 332.4 122.116C332.118 122.335 331.905 122.634 331.761 123.014C331.62 123.393 331.549 123.821 331.549 124.297C331.549 124.78 331.621 125.214 331.766 125.599C331.91 125.985 332.123 126.29 332.405 126.516C332.69 126.739 333.041 126.85 333.458 126.85ZM338.599 127.908V120.687H340.005V127.908H338.599ZM339.309 119.572C339.065 119.572 338.855 119.491 338.679 119.328C338.507 119.162 338.421 118.964 338.421 118.735C338.421 118.504 338.507 118.306 338.679 118.143C338.855 117.977 339.065 117.894 339.309 117.894C339.554 117.894 339.762 117.977 339.935 118.143C340.11 118.306 340.198 118.504 340.198 118.735C340.198 118.964 340.11 119.162 339.935 119.328C339.762 119.491 339.554 119.572 339.309 119.572ZM343.169 123.62V127.908H341.764V120.687H343.113V121.862H343.202C343.369 121.479 343.629 121.172 343.983 120.94C344.34 120.708 344.79 120.593 345.332 120.593C345.824 120.593 346.255 120.696 346.625 120.903C346.995 121.107 347.282 121.411 347.485 121.815C347.689 122.219 347.791 122.719 347.791 123.315V127.908H346.385V123.484C346.385 122.96 346.249 122.551 345.976 122.257C345.703 121.959 345.329 121.81 344.853 121.81C344.527 121.81 344.237 121.881 343.983 122.022C343.732 122.163 343.533 122.37 343.386 122.642C343.242 122.912 343.169 123.238 343.169 123.62Z" fill="white"/>
</g>
<defs>
<filter id="filter0_i_1_3020" x="9" y="7" width="350" height="114" filterUnits="userSpaceOnUse" color-interpolation-filters="sRGB">
<feFlood flood-opacity="0" result="BackgroundImageFix"/>
<feBlend mode="normal" in="SourceGraphic" in2="BackgroundImageFix" result="shape"/>
<feColorMatrix in="SourceAlpha" type="matrix" values="0 0 0 0 0 0 0 0 0 0 0 0 0 0 0 0 0 0 127 0" result="hardAlpha"/>
<feOffset dy="-2"/>
<feComposite in2="hardAlpha" operator="arithmetic" k2="-1" k3="1"/>
<feColorMatrix type="matrix" values="0 0 0 0 0 0 0 0 0 0 0 0 0 0 0 0 0 0 0.1 0"/>
<feBlend mode="normal" in2="shape" result="effect1_innerShadow_1_3020"/>
</filter>
<filter id="filter1_i_1_3020" x="169" y="105" width="30.762" height="30.762" filterUnits="userSpaceOnUse" color-interpolation-filters="sRGB">
<feFlood flood-opacity="0" result="BackgroundImageFix"/>
<feBlend mode="normal" in="SourceGraphic" in2="BackgroundImageFix" result="shape"/>
<feColorMatrix in="SourceAlpha" type="matrix" values="0 0 0 0 0 0 0 0 0 0 0 0 0 0 0 0 0 0 127 0" result="hardAlpha"/>
<feOffset dy="5.12501"/>
<feComposite in2="hardAlpha" operator="arithmetic" k2="-1" k3="1"/>
<feColorMatrix type="matrix" values="0 0 0 0 1 0 0 0 0 1 0 0 0 0 1 0 0 0 0.1 0"/>
<feBlend mode="normal" in2="shape" result="effect1_innerShadow_1_3020"/>
</filter>
<filter id="filter2_d_1_3020" x="279.522" y="91.8043" width="18.7225" height="21.7574" filterUnits="userSpaceOnUse" color-interpolation-filters="sRGB">
<feFlood flood-opacity="0" result="BackgroundImageFix"/>
<feColorMatrix in="SourceAlpha" type="matrix" values="0 0 0 0 0 0 0 0 0 0 0 0 0 0 0 0 0 0 127 0" result="hardAlpha"/>
<feOffset dy="0.399266"/>
<feGaussianBlur stdDeviation="0.5989"/>
<feColorMatrix type="matrix" values="0 0 0 0 0 0 0 0 0 0 0 0 0 0 0 0 0 0 0.35 0"/>
<feBlend mode="normal" in2="BackgroundImageFix" result="effect1_dropShadow_1_3020"/>
<feBlend mode="normal" in="SourceGraphic" in2="effect1_dropShadow_1_3020" result="shape"/>
</filter>
<filter id="filter3_d_1_3020" x="299.407" y="111.679" width="56.8555" height="23.3172" filterUnits="userSpaceOnUse" color-interpolation-filters="sRGB">
<feFlood flood-opacity="0" result="BackgroundImageFix"/>
<feColorMatrix in="SourceAlpha" type="matrix" values="0 0 0 0 0 0 0 0 0 0 0 0 0 0 0 0 0 0 127 0" result="hardAlpha"/>
<feOffset dy="0.399266"/>
<feGaussianBlur stdDeviation="0.798533"/>
<feColorMatrix type="matrix" values="0 0 0 0 0 0 0 0 0 0 0 0 0 0 0 0 0 0 0.16 0"/>
<feBlend mode="normal" in2="BackgroundImageFix" result="effect1_dropShadow_1_3020"/>
<feBlend mode="normal" in="SourceGraphic" in2="effect1_dropShadow_1_3020" result="shape"/>
</filter>
<linearGradient id="paint0_linear_1_3020" x1="184.381" y1="105" x2="184.381" y2="135.762" gradientUnits="userSpaceOnUse">
<stop stop-color="#12D968"/>
<stop offset="1" stop-color="#00B140"/>
</linearGradient>
</defs>
</svg>
