<svg width="392" height="458" viewBox="0 0 392 458" fill="none" xmlns="http://www.w3.org/2000/svg">
<g clip-path="url(#clip0_64_1682)">
<path opacity="0.2" d="M-389.53 0.120117V114.49C-389.53 115.676 -389.059 116.813 -388.221 117.651L-337.198 168.673C-336.36 169.512 -335.889 170.649 -335.889 171.834V251.338C-335.889 253.807 -333.888 255.808 -331.419 255.808H96.8133" stroke="white" stroke-width="0.894013" stroke-linecap="round"/>
<path opacity="0.2" d="M786.097 0.120117V114.49C786.097 115.676 785.626 116.813 784.788 117.651L733.766 168.673C732.927 169.512 732.456 170.649 732.456 171.834V251.338C732.456 253.807 730.455 255.808 727.986 255.808H299.754" stroke="white" stroke-width="0.894013" stroke-linecap="round"/>
<path opacity="0.2" d="M151.348 283.075V302.296C151.348 304.765 149.347 306.767 146.878 306.767H47.6426C45.1738 306.767 43.1725 308.768 43.1725 311.237V357.215C43.1725 358.4 42.7015 359.537 41.8632 360.376L-10.0531 412.292C-10.8914 413.13 -11.3623 414.267 -11.3623 415.453V430.14" stroke="white" stroke-width="0.894013" stroke-linecap="round"/>
<path opacity="0.2" d="M245.219 283.075V302.296C245.219 304.765 247.221 306.767 249.689 306.767H348.925C351.394 306.767 353.395 308.768 353.395 311.237V357.215C353.395 358.4 353.866 359.537 354.704 360.376L406.62 412.292C407.459 413.13 407.93 414.267 407.93 415.453V430.14" stroke="white" stroke-width="0.894013" stroke-linecap="round"/>
<path d="M311.376 307.214L321.21 300.062L321.21 314.366L311.376 307.214Z" fill="#0D6CEA"/>
<path d="M320.763 313.488L312.136 307.214L320.763 300.939L320.763 313.488Z" stroke="white" stroke-opacity="0.25" stroke-width="0.894013"/>
<rect x="122.739" y="302.744" width="8.94013" height="8.94013" rx="1.78803" fill="#0D6CEA"/>
<rect x="123.186" y="303.191" width="8.04612" height="8.04612" rx="1.34102" stroke="white" stroke-opacity="0.25" stroke-width="0.894013"/>
<path opacity="0.25" d="M96.8135 307.214V379.629C96.8135 382.098 98.8148 384.099 101.284 384.099H185.768C188.237 384.099 190.238 386.1 190.238 388.569V406.002" stroke="white" stroke-width="0.894013" stroke-linecap="round"/>
<path opacity="0.25" d="M298.413 307.214V379.629C298.413 382.098 296.412 384.099 293.943 384.099H209.459C206.99 384.099 204.989 386.1 204.989 388.569V406.002" stroke="white" stroke-width="0.894013" stroke-linecap="round"/>
<path d="M145.984 384.099L155.818 376.947L155.818 391.251L145.984 384.099Z" fill="#045FDF"/>
<path d="M155.371 390.373L146.744 384.099L155.371 377.825L155.371 390.373Z" stroke="white" stroke-opacity="0.25" stroke-width="0.894013"/>
</g>
<defs>
<clipPath id="clip0_64_1682">
<rect width="392" height="458" fill="white"/>
</clipPath>
</defs>
</svg>
