<svg width="94" height="21" viewBox="0 0 94 21" fill="none" xmlns="http://www.w3.org/2000/svg">
<path fill-rule="evenodd" clip-rule="evenodd" d="M0.953125 10.7157C0.953125 6.10112 4.7008 2.36035 9.32389 2.36035C12.0487 2.36035 14.7091 4.10063 16.1524 5.84962L22.463 13.5156C23.4871 14.7587 25.2868 15.8038 26.7558 15.8038C29.5712 15.8038 31.8533 13.5258 31.8533 10.7157C31.8533 7.90553 29.5712 5.62754 26.7558 5.62754C25.2882 5.62754 23.4776 6.68238 22.4516 7.92948L21.3431 9.27609L19.2473 6.67562L19.9219 5.85611C21.3663 4.10062 24.0278 2.36035 26.7558 2.36035C31.3789 2.36035 35.1266 6.10112 35.1266 10.7157C35.1266 15.3302 31.3789 19.071 26.7558 19.071C24.0317 19.071 21.3808 17.3464 19.9345 15.5905L17.8828 13.0981V19.2718H15.0188V16.7356C13.5205 18.0279 11.445 19.071 9.32389 19.071C4.7008 19.071 0.953125 15.3302 0.953125 10.7157ZM13.6259 7.92681L16.3343 11.217H9.74886V14.0757H13.0903C12.0452 15.058 10.5679 15.8038 9.32389 15.8038C6.50852 15.8038 4.22635 13.5258 4.22635 10.7157C4.22635 7.90553 6.50852 5.62754 9.32389 5.62754C10.7874 5.62754 12.5978 6.68164 13.625 7.92573L13.6259 7.92681Z" fill="#00A987"/>
<path d="M48.7293 9.57069H53.8567V10.3595C53.8567 11.8203 53.3893 13.0036 52.4544 13.9093C51.5194 14.815 50.3119 15.2679 48.8316 15.2679C47.2539 15.2679 45.944 14.7566 44.902 13.734C43.8697 12.7017 43.3535 11.4454 43.3535 9.96511C43.3535 8.47508 43.8648 7.21389 44.8874 6.1816C45.9197 5.1493 47.1954 4.63314 48.7147 4.63314C49.6593 4.63314 50.5261 4.8474 51.3149 5.2759C52.1038 5.70441 52.7222 6.28386 53.1702 7.01427L51.4464 8.00762C51.203 7.58888 50.8329 7.248 50.3362 6.98505C49.8395 6.7221 49.2941 6.59063 48.7001 6.59063C47.7164 6.59063 46.913 6.91201 46.2897 7.55477C45.6665 8.17803 45.3548 8.98148 45.3548 9.96511C45.3548 10.9292 45.6713 11.7278 46.3044 12.3608C46.9374 12.9841 47.7847 13.2958 48.8462 13.2958C49.6155 13.2958 50.2583 13.1254 50.7744 12.7845C51.2906 12.4436 51.6412 11.9664 51.8262 11.3529H48.7293V9.57069ZM60.7909 14.1576C60.0508 14.8978 59.1353 15.2679 58.0446 15.2679C56.9539 15.2679 56.0384 14.8978 55.2982 14.1576C54.5581 13.4175 54.188 12.502 54.188 11.4113C54.188 10.3303 54.5581 9.41972 55.2982 8.6796C56.0481 7.92969 56.9636 7.55477 58.0446 7.55477C59.1256 7.55477 60.041 7.92969 60.7909 8.6796C61.5408 9.4295 61.9157 10.34 61.9157 11.4113C61.9157 12.4923 61.5408 13.4077 60.7909 14.1576ZM56.6276 12.8575C57.0074 13.2373 57.4797 13.4272 58.0446 13.4272C58.6094 13.4272 59.0817 13.2373 59.4616 12.8575C59.8414 12.4777 60.0313 11.9956 60.0313 11.4113C60.0313 10.827 59.8414 10.3449 59.4616 9.96511C59.0817 9.5853 58.6094 9.39539 58.0446 9.39539C57.4797 9.39539 57.0074 9.5853 56.6276 9.96511C56.2575 10.3546 56.0725 10.8367 56.0725 11.4113C56.0725 11.9859 56.2575 12.468 56.6276 12.8575ZM64.4908 15.0633H62.6062V4.39941H64.4908V15.0633ZM71.8031 14.1576C71.0632 14.8978 70.148 15.2679 69.0568 15.2679C67.9663 15.2679 67.051 14.8978 66.3105 14.1576C65.5705 13.4175 65.2003 12.502 65.2003 11.4113C65.2003 10.3303 65.5705 9.41972 66.3105 8.6796C67.0606 7.92969 67.9758 7.55477 69.0568 7.55477C70.1378 7.55477 71.0537 7.92969 71.8031 8.6796C72.5532 9.4295 72.9279 10.34 72.9279 11.4113C72.9279 12.4923 72.5532 13.4077 71.8031 14.1576ZM67.6398 12.8575C68.0196 13.2373 68.4922 13.4272 69.0568 13.4272C69.6221 13.4272 70.094 13.2373 70.4738 12.8575C70.8536 12.4777 71.0435 11.9956 71.0435 11.4113C71.0435 10.827 70.8536 10.3449 70.4738 9.96511C70.094 9.5853 69.6221 9.39539 69.0568 9.39539C68.4922 9.39539 68.0196 9.5853 67.6398 9.96511C67.2702 10.3546 67.0847 10.8367 67.0847 11.4113C67.0847 11.9859 67.2702 12.468 67.6398 12.8575ZM79.2139 8.66499V7.75929H81.0545V14.7127C81.0545 15.8327 80.6791 16.6946 79.9297 17.2984C79.1891 17.8924 78.2936 18.1895 77.2418 18.1895C75.586 18.1895 74.4319 17.5954 73.7797 16.4073L75.3866 15.487C75.7467 16.1687 76.3844 16.5095 77.3002 16.5095C77.8941 16.5095 78.3615 16.3537 78.7026 16.0421C79.043 15.7304 79.2139 15.2874 79.2139 14.7127V13.9239C78.6588 14.664 77.8795 15.0341 76.8766 15.0341C75.8439 15.0341 74.9775 14.6738 74.2763 13.9531C73.5847 13.213 73.2392 12.3267 73.2392 11.2944C73.2392 10.2622 73.5898 9.38079 74.2909 8.65038C74.9921 7.91997 75.854 7.55477 76.8766 7.55477C77.8795 7.55477 78.6588 7.92487 79.2139 8.66499ZM78.6296 12.7407C79.0189 12.3608 79.2139 11.8788 79.2139 11.2944C79.2139 10.7101 79.0189 10.2378 78.6296 9.87746C78.2497 9.49765 77.7626 9.30774 77.1687 9.30774C76.5844 9.30774 76.0922 9.49765 75.6933 9.87746C75.3135 10.2378 75.1236 10.7101 75.1236 11.2944C75.1236 11.8788 75.3135 12.3608 75.6933 12.7407C76.0827 13.1107 76.5743 13.2958 77.1687 13.2958C77.7626 13.2958 78.2497 13.1107 78.6296 12.7407ZM83.0628 6.88279C82.7516 6.88279 82.4785 6.7708 82.2447 6.54681C82.0212 6.31308 81.9088 6.04039 81.9088 5.72875C81.9088 5.41712 82.0212 5.14443 82.2447 4.9107C82.4785 4.67697 82.7516 4.5601 83.0628 4.5601C83.3842 4.5601 83.6573 4.67697 83.8809 4.9107C84.1146 5.14443 84.2314 5.41712 84.2314 5.72875C84.2314 6.04039 84.1146 6.31308 83.8809 6.54681C83.6573 6.7708 83.3842 6.88279 83.0628 6.88279ZM84.0123 15.0633H82.1279V7.75929H84.0123V15.0633ZM89.1633 7.55477C89.9712 7.55477 90.6285 7.82261 91.1354 8.35822C91.6613 8.90361 91.9242 9.64373 91.9242 10.5787V15.0633H90.0398V10.8124C90.0398 10.3352 89.9083 9.96511 89.6453 9.70216C89.3919 9.43922 89.0413 9.30774 88.5936 9.30774C88.0969 9.30774 87.7025 9.46354 87.4103 9.7752C87.1277 10.0771 86.9867 10.5251 86.9867 11.1192V15.0633H85.1022V7.75929H86.9867V8.57734C87.4344 7.89565 88.1598 7.55477 89.1633 7.55477Z" fill="#36363D"/>
</svg>
