<svg width="118" height="22" viewBox="0 0 118 22" fill="none" xmlns="http://www.w3.org/2000/svg">
<g clip-path="url(#clip0_2238_18822)">
<path d="M25.1074 4.2959H27.5772V17.3629H25.1074V4.2959Z" fill="black"/>
<path d="M30.1094 7.69551H32.5312V8.68751C33.0785 8.22229 33.578 7.90075 34.0227 7.72287C34.4673 7.53816 34.9257 7.44922 35.3909 7.44922C36.3487 7.44922 37.1628 7.78445 37.8333 8.4549C38.3943 9.02273 38.6748 9.86422 38.6748 10.9794V17.3692H36.2735V13.1344C36.2735 11.9782 36.2187 11.212 36.1161 10.8357C36.0135 10.4594 35.8356 10.1721 35.5756 9.97368C35.3157 9.77528 35.001 9.67951 34.6247 9.67951C34.1321 9.67951 33.7148 9.8437 33.359 10.1721C33.0101 10.5005 32.7638 10.952 32.627 11.5335C32.5586 11.8345 32.5175 12.4913 32.5175 13.497V17.376H30.0957V7.69551H30.1094Z" fill="black"/>
<path d="M50.4903 9.65215L48.4721 10.7604C48.0958 10.3636 47.7195 10.09 47.3501 9.93264C46.9807 9.78213 46.5428 9.70004 46.0503 9.70004C45.1403 9.70004 44.4083 9.97369 43.8473 10.5142C43.2863 11.0546 43.0058 11.7456 43.0058 12.5939C43.0058 13.4149 43.2727 14.0854 43.8131 14.6053C44.3536 15.1252 45.0583 15.3852 45.9408 15.3852C47.0286 15.3852 47.8701 15.0158 48.4789 14.2769L50.3945 15.5836C49.3615 16.9314 47.8974 17.6087 46.0092 17.6087C44.3125 17.6087 42.9785 17.1024 42.0138 16.0967C41.0492 15.091 40.5703 13.9143 40.5703 12.5597C40.5703 11.6225 40.8029 10.7604 41.275 9.97369C41.7402 9.18693 42.397 8.56437 43.2316 8.11968C44.0663 7.66815 45.0035 7.44238 46.0434 7.44238C47.0012 7.44238 47.8632 7.63394 48.6294 8.01706C49.382 8.40702 50.0046 8.94748 50.4903 9.65215Z" fill="black"/>
<path d="M57.2139 7.44922C58.1238 7.44922 58.9859 7.67498 59.7863 8.13336C60.5867 8.59173 61.2161 9.20745 61.6677 9.98737C62.1192 10.7673 62.345 11.6156 62.345 12.5187C62.345 13.4286 62.1192 14.2838 61.6677 15.0773C61.2161 15.8709 60.6004 16.4935 59.8137 16.9382C59.0337 17.3829 58.1717 17.6087 57.2276 17.6087C55.8388 17.6087 54.6621 17.1161 53.677 16.1309C52.6918 15.1458 52.1992 13.9485 52.1992 12.5392C52.1992 11.0273 52.7534 9.76844 53.8617 8.76276C54.8331 7.88707 55.9483 7.44922 57.2139 7.44922ZM57.255 9.73424C56.5024 9.73424 55.873 9.99421 55.3736 10.521C54.8742 11.0478 54.6211 11.7182 54.6211 12.5324C54.6211 13.3738 54.8674 14.0511 55.3668 14.5779C55.8594 15.0979 56.4888 15.3578 57.2482 15.3578C58.0075 15.3578 58.637 15.091 59.1432 14.5642C59.6495 14.0375 59.9026 13.3602 59.9026 12.5324C59.9026 11.7046 59.6563 11.0273 59.1569 10.5142C58.6575 9.99421 58.0212 9.73424 57.255 9.73424Z" fill="black"/>
<path d="M71.465 7.69551H73.88V15.9736C73.88 17.6087 73.5516 18.8127 72.8948 19.579C72.0123 20.6189 70.6851 21.1456 68.9063 21.1456C67.9554 21.1456 67.1618 21.0293 66.5187 20.7899C65.8756 20.5504 65.3283 20.2015 64.8836 19.7432C64.4389 19.2848 64.1105 18.7238 63.8984 18.067H66.5666C66.806 18.3407 67.107 18.5459 67.4833 18.6828C67.8596 18.8196 68.2974 18.8948 68.8037 18.8948C69.4536 18.8948 69.9804 18.7922 70.3772 18.5938C70.774 18.3954 71.0545 18.1286 71.2187 17.8139C71.3829 17.4924 71.465 16.945 71.465 16.1583C71.0408 16.5825 70.5893 16.8903 70.1241 17.075C69.6589 17.2597 69.1252 17.3555 68.5369 17.3555C67.237 17.3555 66.1424 16.8903 65.253 15.953C64.3568 15.0158 63.9121 13.8322 63.9121 12.4024C63.9121 10.8699 64.3842 9.63846 65.3351 8.70803C66.1971 7.86654 67.2165 7.44922 68.4069 7.44922C68.9611 7.44922 69.4878 7.55184 69.9804 7.75708C70.473 7.96232 70.9724 8.29755 71.465 8.76276V7.69551ZM68.9474 9.71371C68.1811 9.71371 67.5517 9.96684 67.0523 10.4799C66.5529 10.9931 66.3066 11.6361 66.3066 12.4092C66.3066 13.2165 66.5597 13.8733 67.0728 14.3932C67.5791 14.9063 68.2222 15.1663 68.9884 15.1663C69.741 15.1663 70.3635 14.9132 70.8493 14.4137C71.335 13.9075 71.5813 13.2507 71.5813 12.4297C71.5813 11.6225 71.335 10.9725 70.8424 10.4663C70.3567 9.96684 69.7204 9.71371 68.9474 9.71371Z" fill="black"/>
<path d="M76.3301 7.69551H78.7519V8.68751C79.2992 8.22229 79.7987 7.90075 80.2434 7.72287C80.688 7.53816 81.1464 7.44922 81.6116 7.44922C82.5694 7.44922 83.3835 7.78445 84.054 8.4549C84.615 9.02273 84.8955 9.86422 84.8955 10.9794V17.3692H82.4942V13.1344C82.4942 11.9782 82.4394 11.212 82.3368 10.8357C82.2342 10.4594 82.0563 10.1721 81.7963 9.97368C81.5364 9.77528 81.2217 9.67951 80.8454 9.67951C80.3528 9.67951 79.9355 9.8437 79.5797 10.1721C79.2308 10.5005 78.9845 10.952 78.8477 11.5335C78.7793 11.8345 78.7383 12.4913 78.7383 13.497V17.376H76.3164V7.69551H76.3301Z" fill="black"/>
<path d="M88.1917 3.7207C88.6158 3.7207 88.9784 3.87805 89.2863 4.18592C89.5873 4.49378 89.7446 4.87005 89.7446 5.3079C89.7446 5.73891 89.5941 6.10834 89.2931 6.4162C88.9921 6.72407 88.6295 6.87458 88.2122 6.87458C87.7812 6.87458 87.4117 6.71722 87.1107 6.40936C86.8097 6.1015 86.6523 5.71838 86.6523 5.27369C86.6523 4.84953 86.8029 4.4801 87.1039 4.17908C87.4049 3.87121 87.7675 3.7207 88.1917 3.7207ZM86.9807 7.69554H89.4026V17.3624H86.9807V7.69554Z" fill="black"/>
<path d="M91.8994 4.1377H94.3213V7.70205H95.758V9.78867H94.3213V17.3689H91.8994V9.78183H90.6543V7.69521H91.8994V4.1377Z" fill="black"/>
<path d="M101.602 7.44922C102.512 7.44922 103.374 7.67498 104.174 8.13336C104.974 8.59173 105.604 9.20745 106.055 9.98737C106.507 10.7673 106.733 11.6156 106.733 12.5187C106.733 13.4286 106.507 14.2838 106.055 15.0773C105.604 15.8709 104.988 16.4935 104.201 16.9382C103.421 17.3829 102.559 17.6087 101.615 17.6087C100.227 17.6087 99.0498 17.1161 98.0646 16.1309C97.0863 15.1458 96.5938 13.9485 96.5938 12.5392C96.5938 11.0273 97.1479 9.76844 98.2562 8.76276C99.2277 7.88707 100.343 7.44922 101.602 7.44922ZM101.643 9.73424C100.89 9.73424 100.261 9.99421 99.7613 10.521C99.2619 11.0478 99.0087 11.7182 99.0087 12.5324C99.0087 13.3738 99.255 14.0511 99.7545 14.5779C100.247 15.0979 100.876 15.3578 101.636 15.3578C102.395 15.3578 103.025 15.091 103.531 14.5642C104.037 14.0375 104.29 13.3602 104.29 12.5324C104.29 11.7046 104.044 11.0273 103.545 10.5142C103.045 9.99421 102.416 9.73424 101.643 9.73424Z" fill="black"/>
<path d="M108.709 7.69551H111.131V8.68751C111.678 8.22229 112.178 7.90075 112.622 7.72287C113.067 7.53816 113.525 7.44922 113.991 7.44922C114.948 7.44922 115.762 7.78445 116.433 8.4549C116.994 9.02273 117.274 9.86422 117.274 10.9794V17.3692H114.873V13.1344C114.873 11.9782 114.818 11.212 114.716 10.8357C114.613 10.4594 114.435 10.1721 114.175 9.97368C113.915 9.77528 113.601 9.67951 113.224 9.67951C112.732 9.67951 112.314 9.8437 111.959 10.1721C111.61 10.5005 111.363 10.952 111.227 11.5335C111.158 11.8345 111.117 12.4913 111.117 13.497V17.376H108.709V7.69551Z" fill="black"/>
<path fill-rule="evenodd" clip-rule="evenodd" d="M9.51103 3.13837C10.2909 1.94113 11.7208 0.312883 14.0263 0.442869C15.7162 0.538648 16.9476 1.3733 17.3649 3.00838C17.6523 4.15089 17.406 5.74493 17.1049 6.88744C16.113 10.6023 13.5885 11.7038 15.7846 16.3627C16.5234 17.9226 18.5758 18.8872 17.4265 19.7013C16.3182 20.4881 13.4311 19.6398 11.7071 18.0594C5.92615 12.7573 7.2739 6.57274 9.51103 3.13837Z" fill="#AE04BC"/>
<path fill-rule="evenodd" clip-rule="evenodd" d="M16.2408 7.64046C16.9386 7.30523 18.7858 6.94264 20.0925 8.03041C21.0503 8.82401 21.4129 9.85706 20.934 11.0133C20.6056 11.8137 19.7572 12.6483 19.0799 13.1888C16.8633 14.947 14.893 14.4887 14.1473 18.2104C13.901 19.4555 14.6878 20.9264 13.6547 20.9059C12.6559 20.8854 11.3218 19.1134 10.9934 17.4305C9.90566 11.7521 13.5179 8.94032 16.2408 7.64046Z" fill="#1900CE"/>
<path fill-rule="evenodd" clip-rule="evenodd" d="M13.2443 21.1721C8.05854 20.7069 2.90699 17.0809 0.745114 12.2783C-1.14311 8.08454 0.471459 1.17476 6.4645 4.56808C10.713 6.97624 9.24894 12.1552 12.5738 15.8837C14.9683 18.5655 18.3548 17.7788 17.7117 19.5712C17.1849 21.0695 14.51 21.2884 13.2443 21.1721Z" fill="black"/>
</g>
<defs>
<clipPath id="clip0_2238_18822">
<rect width="118" height="20.7636" fill="white" transform="translate(0 0.436523)"/>
</clipPath>
</defs>
</svg>
