<svg width="366" height="180" viewBox="0 0 366 180" fill="none" xmlns="http://www.w3.org/2000/svg">
<mask id="mask0_258_2921" style="mask-type:alpha" maskUnits="userSpaceOnUse" x="0" y="0" width="366" height="179">
<rect width="366" height="179" rx="25" fill="#FAFAFA"/>
</mask>
<g mask="url(#mask0_258_2921)">
<rect x="18.0498" y="35.5107" width="270.746" height="133.603" rx="9.5" fill="white" stroke="#EEEEEE"/>
<circle cx="49.2964" cy="64.2173" r="13.9683" fill="#F4F4F4"/>
<rect x="73.4229" y="58.7148" width="69.418" height="11.0053" rx="1.69312" fill="#F4F4F4"/>
<rect x="35.3281" y="91.7305" width="128.677" height="11.0053" rx="1.69312" fill="#F4F4F4"/>
<rect x="35.3281" y="110.354" width="59.2593" height="11.0053" rx="1.69312" fill="#F4F4F4"/>
<rect x="170.777" y="91.7305" width="34.709" height="11.0053" rx="1.69312" fill="#F4F4F4"/>
<rect x="98.8203" y="110.354" width="30.4762" height="11.0053" rx="1.69312" fill="#F4F4F4"/>
<rect x="132.683" y="110.354" width="22.8571" height="11.0053" rx="1.69312" fill="#F4F4F4"/>
<rect x="159.772" y="110.354" width="37.2487" height="11.0053" rx="1.69312" fill="#F4F4F4"/>
<rect x="147.921" y="58.7148" width="23.7037" height="11.0053" rx="1.69312" fill="#F4F4F4"/>
<path d="M48.0844 115.882L-4 146.282V232H372V80L353.646 95.9475L326.86 80L309.499 107.41L278.744 100.931L244.517 111.895L210.786 84.9836L162.67 130.833L133.404 111.895L86.2797 130.833L48.0844 115.882Z" fill="url(#paint0_linear_258_2921)" fill-opacity="0.25" stroke="url(#paint1_linear_258_2921)"/>
</g>
<rect x="200" y="32.001" width="156.094" height="45" rx="5.46875" fill="#A400DD"/>
<rect x="200.703" y="32.7041" width="154.688" height="43.5938" rx="4.76562" stroke="white" stroke-opacity="0.25" stroke-width="1.40625"/>
<path d="M236.812 48.876C243.979 48.876 243.979 60.126 236.812 60.126C229.648 60.126 226.782 48.876 218.898 48.876C212.451 48.876 212.451 60.126 218.898 60.126C226.782 60.126 229.648 48.876 236.814 48.876H236.812Z" stroke="white" stroke-width="2.8125" stroke-linecap="round" stroke-linejoin="round"/>
<g opacity="0.25">
<rect x="249.219" y="40.2822" width="95.625" height="13.125" rx="2.1875" fill="white"/>
<rect x="249.219" y="58.876" width="61.4013" height="9.84375" rx="2.1875" fill="white"/>
<rect x="314.646" y="58.876" width="26.1711" height="9.84375" rx="2.1875" fill="white"/>
</g>
<defs>
<linearGradient id="paint0_linear_258_2921" x1="184" y1="80" x2="184" y2="156" gradientUnits="userSpaceOnUse">
<stop stop-color="#A400DD"/>
<stop offset="1" stop-color="#FAFAFA"/>
</linearGradient>
<linearGradient id="paint1_linear_258_2921" x1="372" y1="156" x2="-4" y2="156" gradientUnits="userSpaceOnUse">
<stop stop-color="#A400DD" stop-opacity="0"/>
<stop offset="0.5" stop-color="#A400DD"/>
<stop offset="1" stop-color="#A400DD" stop-opacity="0"/>
</linearGradient>
</defs>
</svg>
