<svg width="328" height="180" viewBox="0 0 328 180" fill="none" xmlns="http://www.w3.org/2000/svg">
<rect x="15.5" y="19.5" width="297" height="117" rx="9.5" fill="white" stroke="#EEEEEE"/>
<rect x="0.5" y="31.5" width="327" height="117" rx="9.5" fill="white" stroke="#EEEEEE"/>
<circle cx="38.3425" cy="66.2751" r="16.8708" fill="#F4F4F4"/>
<rect x="67.4824" y="59.6289" width="83.8427" height="13.2921" rx="2.04494" fill="#F4F4F4"/>
<rect x="21.4717" y="97.4609" width="195.292" height="13.2921" rx="2.04494" fill="#F4F4F4"/>
<rect x="21.4717" y="119.955" width="89.9775" height="13.2921" rx="2.04494" fill="#F4F4F4"/>
<rect x="226.988" y="97.4609" width="52.1461" height="13.2921" rx="2.04494" fill="#F4F4F4"/>
<rect x="116.562" y="119.955" width="47.0337" height="13.2921" rx="2.04494" fill="#F4F4F4"/>
<rect x="169.73" y="119.955" width="33.7416" height="13.2921" rx="2.04494" fill="#F4F4F4"/>
<rect x="209.607" y="119.955" width="56.236" height="13.2921" rx="2.04494" fill="#F4F4F4"/>
<rect x="163.596" y="59.6289" width="28.6292" height="13.2921" rx="2.04494" fill="#F4F4F4"/>
<circle opacity="0.1" cx="165.129" cy="145.5" r="24.5" fill="url(#paint0_radial_258_2919)"/>
<circle cx="164.843" cy="145.413" r="20.8433" fill="url(#paint1_radial_258_2919)"/>
<path d="M161.066 146.786H160.531C158.8 146.786 157.934 146.786 157.565 146.215C157.196 145.645 157.548 144.849 158.251 143.259L160.364 138.479C161.004 137.033 161.323 136.31 161.943 135.905C162.563 135.5 163.35 135.5 164.924 135.5H167.362C169.274 135.5 170.23 135.5 170.59 136.125C170.951 136.749 170.476 137.584 169.528 139.252L168.277 141.452C167.806 142.282 167.57 142.697 167.573 143.036C167.577 143.477 167.812 143.884 168.191 144.107C168.483 144.278 168.958 144.278 169.908 144.278C171.11 144.278 171.711 144.278 172.024 144.486C172.43 144.756 172.643 145.24 172.568 145.724C172.511 146.096 172.107 146.543 171.299 147.437L164.841 154.578C163.573 155.98 162.938 156.682 162.513 156.46C162.087 156.238 162.291 155.313 162.7 153.462L163.501 149.838C163.813 148.429 163.969 147.725 163.594 147.255C163.22 146.786 162.502 146.786 161.066 146.786Z" fill="white" fill-opacity="0.25" stroke="white" stroke-width="1.75" stroke-linejoin="round"/>
<defs>
<radialGradient id="paint0_radial_258_2919" cx="0" cy="0" r="1" gradientUnits="userSpaceOnUse" gradientTransform="translate(165.129 145.5) rotate(90) scale(24.5)">
<stop stop-color="#61C454"/>
<stop offset="1" stop-color="#A400DD"/>
</radialGradient>
<radialGradient id="paint1_radial_258_2919" cx="0" cy="0" r="1" gradientUnits="userSpaceOnUse" gradientTransform="translate(164.843 105.361) rotate(90) scale(60.8951 34.5732)">
<stop stop-color="#CC40FD"/>
<stop offset="0.801475" stop-color="#A400DD"/>
</radialGradient>
</defs>
</svg>
