<svg width="429" height="180" viewBox="0 0 429 180" fill="none" xmlns="http://www.w3.org/2000/svg">
<mask id="mask0_258_2923" style="mask-type:alpha" maskUnits="userSpaceOnUse" x="0" y="10" width="429" height="160">
<rect y="10" width="429" height="160" fill="url(#paint0_linear_258_2923)"/>
</mask>
<g mask="url(#mask0_258_2923)">
<rect x="85.6357" y="18.4346" width="103.769" height="36.4175" rx="9.5" fill="white"/>
<rect x="85.6357" y="18.4346" width="103.769" height="36.4175" rx="9.5" stroke="#EEEEEE"/>
<rect x="105.923" y="31.6543" width="63.194" height="9.978" rx="4.1575" fill="#F3F3F3"/>
<rect x="241.126" y="128.192" width="103.769" height="36.4175" rx="9.5" fill="white"/>
<rect x="241.126" y="128.192" width="103.769" height="36.4175" rx="9.5" stroke="#EEEEEE"/>
<rect x="262.245" y="141.412" width="26.608" height="9.978" rx="4.1575" fill="#F3F3F3"/>
<rect x="297.168" y="141.412" width="26.608" height="9.978" rx="4.1575" fill="#F3F3F3"/>
<rect x="356.5" y="128.5" width="103.769" height="36.4175" rx="9.5" fill="white"/>
<rect x="356.5" y="128.5" width="103.769" height="36.4175" rx="9.5" stroke="#EEEEEE"/>
<rect x="377.619" y="141.72" width="26.608" height="9.978" rx="4.1575" fill="#F3F3F3"/>
<rect x="412.542" y="141.72" width="26.608" height="9.978" rx="4.1575" fill="#F3F3F3"/>
<rect x="-29.5" y="128.5" width="103.769" height="36.4175" rx="9.5" fill="white"/>
<rect x="-29.5" y="128.5" width="103.769" height="36.4175" rx="9.5" stroke="#EEEEEE"/>
<rect x="-8.38086" y="141.72" width="26.608" height="9.978" rx="4.1575" fill="#F3F3F3"/>
<rect x="26.542" y="141.72" width="26.608" height="9.978" rx="4.1575" fill="#F3F3F3"/>
<rect x="356.5" y="73.5" width="103.769" height="36.4175" rx="9.5" fill="white"/>
<rect x="356.5" y="73.5" width="103.769" height="36.4175" rx="9.5" stroke="#EEEEEE"/>
<rect x="377.619" y="86.7197" width="26.608" height="9.978" rx="4.1575" fill="#F3F3F3"/>
<rect x="412.542" y="86.7197" width="26.608" height="9.978" rx="4.1575" fill="#F3F3F3"/>
<rect x="-29.5" y="73.5" width="103.769" height="36.4175" rx="9.5" fill="white"/>
<rect x="-29.5" y="73.5" width="103.769" height="36.4175" rx="9.5" stroke="#EEEEEE"/>
<rect x="-8.38086" y="86.7197" width="26.608" height="9.978" rx="4.1575" fill="#F3F3F3"/>
<rect x="26.542" y="86.7197" width="26.608" height="9.978" rx="4.1575" fill="#F3F3F3"/>
<rect x="356.5" y="18.5" width="103.769" height="36.4175" rx="9.5" fill="white"/>
<rect x="356.5" y="18.5" width="103.769" height="36.4175" rx="9.5" stroke="#EEEEEE"/>
<rect x="377.619" y="31.7197" width="26.608" height="9.978" rx="4.1575" fill="#F3F3F3"/>
<rect x="412.542" y="31.7197" width="26.608" height="9.978" rx="4.1575" fill="#F3F3F3"/>
<rect x="-29.5" y="18.5" width="103.769" height="36.4175" rx="9.5" fill="white"/>
<rect x="-29.5" y="18.5" width="103.769" height="36.4175" rx="9.5" stroke="#EEEEEE"/>
<rect x="-8.38086" y="31.7197" width="26.608" height="9.978" rx="4.1575" fill="#F3F3F3"/>
<rect x="26.542" y="31.7197" width="26.608" height="9.978" rx="4.1575" fill="#F3F3F3"/>
<rect x="203.708" y="18.4346" width="141.186" height="36.4175" rx="9.5" fill="white"/>
<rect x="203.708" y="18.4346" width="141.186" height="36.4175" rx="9.5" stroke="#EEEEEE"/>
<rect x="223.164" y="31.6543" width="32.4285" height="9.978" rx="4.1575" fill="#F3F3F3"/>
<rect x="268.065" y="31.6543" width="57.3735" height="9.978" rx="4.1575" fill="#F3F3F3"/>
<rect x="-0.5" y="0.5" width="141.186" height="36.4175" rx="9.5" transform="matrix(-1 0 0 1 226.322 127.692)" fill="white"/>
<rect x="-0.5" y="0.5" width="141.186" height="36.4175" rx="9.5" transform="matrix(-1 0 0 1 226.322 127.692)" stroke="#EEEEEE"/>
<rect width="32.4285" height="9.978" rx="4.1575" transform="matrix(-1 0 0 1 207.366 141.412)" fill="#F3F3F3"/>
<rect width="57.3735" height="9.978" rx="4.1575" transform="matrix(-1 0 0 1 162.465 141.412)" fill="#F3F3F3"/>
<g filter="url(#filter0_d_258_2923)">
<rect x="85.1357" y="70" width="260.44" height="44.3949" rx="7.93723" fill="white"/>
<rect x="85.9672" y="70.8315" width="258.777" height="42.7319" rx="7.10573" stroke="#A400DD" stroke-width="1.663"/>
<path d="M113.66 98.0003C116.864 98.0003 119.462 95.4025 119.462 92.1979C119.462 88.9933 116.864 86.3955 113.66 86.3955C110.455 86.3955 107.857 88.9933 107.857 92.1979C107.857 95.4025 110.455 98.0003 113.66 98.0003Z" fill="url(#paint1_linear_258_2923)" stroke="#A400DD" stroke-width="1.24725" stroke-linecap="round" stroke-linejoin="round"/>
<path d="M116.239 90.9082L113.982 93.1647L112.693 91.8753L111.081 93.4871" fill="url(#paint2_linear_258_2923)"/>
<path d="M116.239 90.9082L113.982 93.1647L112.693 91.8753L111.081 93.4871" stroke="#A400DD" stroke-width="1.24725" stroke-linecap="round" stroke-linejoin="round"/>
<path d="M132.05 90.0634C132 89.6161 131.792 89.2697 131.427 89.024C131.061 88.7752 130.601 88.6508 130.047 88.6508C129.65 88.6508 129.307 88.7138 129.017 88.8397C128.727 88.9626 128.502 89.1327 128.342 89.35C128.184 89.5642 128.105 89.8083 128.105 90.0823C128.105 90.3122 128.159 90.5106 128.266 90.6776C128.376 90.8445 128.52 90.9846 128.696 91.098C128.876 91.2083 129.068 91.3012 129.272 91.3768C129.477 91.4492 129.674 91.5091 129.863 91.5563L130.808 91.802C131.116 91.8776 131.433 91.9799 131.757 92.1091C132.082 92.2382 132.383 92.4083 132.66 92.6193C132.937 92.8303 133.161 93.0917 133.331 93.4035C133.504 93.7154 133.59 94.0886 133.59 94.5232C133.59 95.0713 133.449 95.5579 133.165 95.9831C132.885 96.4083 132.477 96.7437 131.942 96.9894C131.409 97.2351 130.765 97.3579 130.009 97.3579C129.285 97.3579 128.658 97.2429 128.129 97.013C127.6 96.7831 127.186 96.4571 126.887 96.0351C126.587 95.6099 126.422 95.1059 126.39 94.5232H127.855C127.883 94.8728 127.997 95.1642 128.195 95.3973C128.397 95.6272 128.653 95.7988 128.965 95.9122C129.28 96.0225 129.625 96.0776 130 96.0776C130.413 96.0776 130.779 96.013 131.101 95.8839C131.425 95.7516 131.68 95.5689 131.866 95.3358C132.052 95.0996 132.145 94.824 132.145 94.5091C132.145 94.2224 132.063 93.9878 131.899 93.8051C131.739 93.6224 131.52 93.4713 131.242 93.3516C130.968 93.2319 130.658 93.1264 130.312 93.035L129.168 92.7232C128.394 92.5122 127.779 92.202 127.326 91.7925C126.875 91.3831 126.65 90.8413 126.65 90.1673C126.65 89.6098 126.801 89.1232 127.104 88.7075C127.406 88.2917 127.816 87.9689 128.332 87.739C128.849 87.5059 129.431 87.3893 130.08 87.3893C130.735 87.3893 131.313 87.5043 131.814 87.7342C132.318 87.9642 132.715 88.2807 133.005 88.6838C133.294 89.0838 133.446 89.5437 133.458 90.0634H132.05ZM138.476 89.9405V91.0744H134.512V89.9405H138.476ZM135.575 88.2019H136.988V95.0665C136.988 95.3406 137.029 95.5469 137.111 95.6854C137.193 95.8209 137.298 95.9138 137.427 95.9642C137.559 96.0114 137.703 96.0351 137.857 96.0351C137.97 96.0351 138.07 96.0272 138.155 96.0114C138.24 95.9957 138.306 95.9831 138.353 95.9736L138.608 97.1406C138.526 97.1721 138.41 97.2036 138.259 97.2351C138.107 97.2697 137.918 97.2886 137.692 97.2918C137.32 97.2981 136.974 97.2319 136.652 97.0933C136.331 96.9547 136.071 96.7406 135.873 96.4508C135.674 96.161 135.575 95.7973 135.575 95.3595V88.2019ZM139.906 97.1973V89.9405H141.318V97.1973H139.906ZM140.619 88.8209C140.373 88.8209 140.162 88.739 139.986 88.5752C139.813 88.4082 139.726 88.2098 139.726 87.9799C139.726 87.7468 139.813 87.5484 139.986 87.3846C140.162 87.2177 140.373 87.1342 140.619 87.1342C140.865 87.1342 141.074 87.2177 141.247 87.3846C141.424 87.5484 141.512 87.7468 141.512 87.9799C141.512 88.2098 141.424 88.4082 141.247 88.5752C141.074 88.739 140.865 88.8209 140.619 88.8209ZM146.142 97.3437C145.44 97.3437 144.835 97.1847 144.328 96.8666C143.824 96.5453 143.437 96.1028 143.166 95.539C142.895 94.9752 142.76 94.3295 142.76 93.602C142.76 92.865 142.898 92.2146 143.175 91.6508C143.452 91.0839 143.843 90.6413 144.347 90.3232C144.851 90.0051 145.445 89.8461 146.128 89.8461C146.679 89.8461 147.171 89.9484 147.602 90.1531C148.034 90.3547 148.382 90.6382 148.646 91.0035C148.914 91.3689 149.073 91.7957 149.123 92.2839H147.749C147.673 91.9437 147.5 91.6508 147.229 91.4051C146.961 91.1594 146.602 91.0366 146.152 91.0366C145.758 91.0366 145.413 91.1405 145.117 91.3484C144.824 91.5531 144.596 91.8461 144.432 92.2272C144.268 92.6051 144.186 93.0524 144.186 93.5689C144.186 94.098 144.267 94.5547 144.427 94.939C144.588 95.3232 144.815 95.6209 145.108 95.8319C145.404 96.0429 145.752 96.1484 146.152 96.1484C146.419 96.1484 146.662 96.0996 146.879 96.002C147.1 95.9012 147.284 95.7579 147.432 95.5721C147.583 95.3862 147.689 95.1626 147.749 94.9012H149.123C149.073 95.3705 148.92 95.7894 148.665 96.1579C148.41 96.5264 148.068 96.8162 147.64 97.0272C147.215 97.2382 146.715 97.3437 146.142 97.3437ZM151.8 94.7358L151.791 93.0114H152.036L154.928 89.9405H156.619L153.321 93.4366H153.099L151.8 94.7358ZM150.501 97.1973V87.5216H151.914V97.1973H150.501ZM155.084 97.1973L152.485 93.7484L153.458 92.761L156.817 97.1973H155.084ZM158.705 99.9185C158.494 99.9185 158.302 99.9012 158.129 99.8666C157.956 99.8351 157.827 99.8004 157.742 99.7626L158.082 98.6051C158.34 98.6744 158.57 98.7044 158.771 98.6949C158.973 98.6855 159.151 98.6099 159.305 98.4681C159.463 98.3264 159.601 98.0949 159.721 97.7736L159.896 97.2918L157.241 89.9405H158.753L160.59 95.5721H160.666L162.504 89.9405H164.02L161.03 98.1658C160.891 98.5437 160.715 98.8634 160.501 99.1248C160.286 99.3894 160.031 99.5878 159.735 99.7201C159.439 99.8524 159.096 99.9185 158.705 99.9185Z" fill="black"/>
<rect x="-0.813424" y="0.813424" width="35.7906" height="21.149" rx="10.5745" transform="matrix(-1 0 0 1 225.29 80.8096)" fill="#A400DD" stroke="#EBEEF1" stroke-width="1.62685"/>
<g filter="url(#filter1_dd_258_2923)">
<path fill-rule="evenodd" clip-rule="evenodd" d="M215.529 101.959C220.92 101.959 225.29 97.5885 225.29 92.1976C225.29 86.8067 220.92 82.4365 215.529 82.4365C210.138 82.4365 205.768 86.8067 205.768 92.1976C205.768 97.5885 210.138 101.959 215.529 101.959Z" fill="white"/>
<path fill-rule="evenodd" clip-rule="evenodd" d="M215.529 101.959C220.92 101.959 225.29 97.5885 225.29 92.1976C225.29 86.8067 220.92 82.4365 215.529 82.4365C210.138 82.4365 205.768 86.8067 205.768 92.1976C205.768 97.5885 210.138 101.959 215.529 101.959Z" stroke="#979797"/>
</g>
<path d="M265.077 89.6191C264.18 87.5695 261.968 86.3955 259.583 86.3955C256.567 86.3955 254.087 88.6855 253.795 91.6177" fill="url(#paint3_linear_258_2923)"/>
<path d="M265.077 89.6191C264.18 87.5695 261.968 86.3955 259.583 86.3955C256.567 86.3955 254.087 88.6855 253.795 91.6177" stroke="#A400DD" stroke-width="1.24725" stroke-linecap="round" stroke-linejoin="round"/>
<path d="M262.492 89.8768H265.051C265.144 89.8768 265.232 89.8401 265.298 89.7748C265.363 89.7095 265.399 89.621 265.399 89.5286V86.9756M254.118 94.7766C255.015 96.8261 257.227 98.0002 259.612 98.0002C262.629 98.0002 265.108 95.7101 265.4 92.778" fill="url(#paint4_linear_258_2923)"/>
<path d="M262.492 89.8768H265.051C265.144 89.8768 265.232 89.8401 265.298 89.7748C265.363 89.7095 265.399 89.621 265.399 89.5286V86.9756M254.118 94.7766C255.015 96.8261 257.227 98.0002 259.612 98.0002C262.629 98.0002 265.108 95.7101 265.4 92.778" stroke="#A400DD" stroke-width="1.24725" stroke-linecap="round" stroke-linejoin="round"/>
<path d="M256.703 94.5186H254.144C254.098 94.5185 254.053 94.5274 254.01 94.5449C253.968 94.5623 253.93 94.588 253.897 94.6203C253.865 94.6526 253.839 94.691 253.821 94.7333C253.804 94.7756 253.795 94.8209 253.795 94.8667V97.4198" fill="url(#paint5_linear_258_2923)"/>
<path d="M256.703 94.5186H254.144C254.098 94.5185 254.053 94.5274 254.01 94.5449C253.968 94.5623 253.93 94.588 253.897 94.6203C253.865 94.6526 253.839 94.691 253.821 94.7333C253.804 94.7756 253.795 94.8209 253.795 94.8667V97.4198" stroke="#A400DD" stroke-width="1.24725" stroke-linecap="round" stroke-linejoin="round"/>
<path d="M272.795 97.1973V87.5216H276.244C276.994 87.5216 277.616 87.6508 278.11 87.909C278.608 88.1673 278.98 88.5248 279.225 88.9815C279.471 89.435 279.594 89.9594 279.594 90.5547C279.594 91.1468 279.469 91.6681 279.221 92.1185C278.975 92.5657 278.603 92.9138 278.106 93.1626C277.611 93.4114 276.989 93.5358 276.24 93.5358H273.627V92.2791H276.107C276.58 92.2791 276.964 92.2114 277.26 92.076C277.559 91.9405 277.778 91.7437 277.917 91.4854C278.055 91.2272 278.125 90.9169 278.125 90.5547C278.125 90.1894 278.054 89.8728 277.912 89.6051C277.773 89.3374 277.554 89.1327 277.255 88.9909C276.959 88.846 276.57 88.7736 276.088 88.7736H274.255V97.1973H272.795ZM277.572 92.8319L279.962 97.1973H278.299L275.956 92.8319H277.572ZM284.09 97.3437C283.409 97.3437 282.816 97.1878 282.308 96.876C281.801 96.5642 281.408 96.128 281.127 95.5673C280.847 95.0067 280.707 94.3516 280.707 93.602C280.707 92.8492 280.847 92.1909 281.127 91.6272C281.408 91.0634 281.801 90.6256 282.308 90.3138C282.816 90.002 283.409 89.8461 284.09 89.8461C284.77 89.8461 285.364 90.002 285.871 90.3138C286.378 90.6256 286.771 91.0634 287.052 91.6272C287.332 92.1909 287.472 92.8492 287.472 93.602C287.472 94.3516 287.332 95.0067 287.052 95.5673C286.771 96.128 286.378 96.5642 285.871 96.876C285.364 97.1878 284.77 97.3437 284.09 97.3437ZM284.094 96.1579C284.535 96.1579 284.901 96.0414 285.19 95.8083C285.48 95.5752 285.694 95.265 285.833 94.8776C285.975 94.4902 286.046 94.0634 286.046 93.5972C286.046 93.1343 285.975 92.7091 285.833 92.3217C285.694 91.9311 285.48 91.6177 285.19 91.3815C284.901 91.1453 284.535 91.0272 284.094 91.0272C283.65 91.0272 283.282 91.1453 282.989 91.3815C282.699 91.6177 282.483 91.9311 282.342 92.3217C282.203 92.7091 282.134 93.1343 282.134 93.5972C282.134 94.0634 282.203 94.4902 282.342 94.8776C282.483 95.265 282.699 95.5752 282.989 95.8083C283.282 96.0414 283.65 96.1579 284.094 96.1579ZM292.303 89.9405V91.0744H288.34V89.9405H292.303ZM289.403 88.2019H290.815V95.0665C290.815 95.3406 290.856 95.5469 290.938 95.6854C291.02 95.8209 291.125 95.9138 291.255 95.9642C291.387 96.0114 291.53 96.0351 291.685 96.0351C291.798 96.0351 291.897 96.0272 291.982 96.0114C292.067 95.9957 292.133 95.9831 292.181 95.9736L292.436 97.1406C292.354 97.1721 292.237 97.2036 292.086 97.2351C291.935 97.2697 291.746 97.2886 291.519 97.2918C291.148 97.2981 290.801 97.2319 290.48 97.0933C290.159 96.9547 289.899 96.7406 289.7 96.4508C289.502 96.161 289.403 95.7973 289.403 95.3595V88.2019ZM295.845 97.3579C295.385 97.3579 294.969 97.2729 294.598 97.1028C294.226 96.9295 293.931 96.6792 293.714 96.3516C293.5 96.024 293.393 95.6225 293.393 95.1469C293.393 94.7374 293.472 94.4004 293.629 94.1358C293.787 93.8713 293.999 93.6618 294.267 93.5075C294.535 93.3532 294.834 93.2366 295.165 93.1579C295.495 93.0791 295.832 93.0193 296.176 92.9783C296.61 92.928 296.963 92.887 297.234 92.8555C297.505 92.8209 297.702 92.7657 297.824 92.6902C297.947 92.6146 298.009 92.4917 298.009 92.3217V92.2886C298.009 91.876 297.892 91.5563 297.659 91.3295C297.429 91.1028 297.086 90.9894 296.629 90.9894C296.153 90.9894 295.779 91.0949 295.505 91.3059C295.234 91.5138 295.046 91.7453 294.942 92.0004L293.615 91.698C293.772 91.2571 294.002 90.9012 294.305 90.6303C294.61 90.3563 294.961 90.1579 295.358 90.035C295.755 89.909 296.172 89.8461 296.61 89.8461C296.9 89.8461 297.207 89.8807 297.531 89.95C297.859 90.0161 298.165 90.139 298.448 90.3185C298.735 90.498 298.969 90.7547 299.152 91.0886C299.335 91.4193 299.426 91.8492 299.426 92.3783V97.1973H298.046V96.2051H297.99C297.898 96.3878 297.761 96.5673 297.579 96.7437C297.396 96.9201 297.161 97.0666 296.875 97.1831C296.588 97.2996 296.245 97.3579 295.845 97.3579ZM296.152 96.224C296.542 96.224 296.876 96.1469 297.153 95.9925C297.434 95.8382 297.646 95.6366 297.791 95.3878C297.939 95.1358 298.013 94.8665 298.013 94.5799V93.6445C297.963 93.6949 297.865 93.7421 297.72 93.7862C297.579 93.8272 297.416 93.8634 297.234 93.8949C297.051 93.9232 296.873 93.95 296.7 93.9752C296.527 93.9973 296.382 94.0161 296.265 94.0319C295.991 94.0665 295.741 94.1248 295.514 94.2067C295.29 94.2886 295.111 94.4067 294.976 94.561C294.843 94.7122 294.777 94.9138 294.777 95.1658C294.777 95.5154 294.906 95.7799 295.165 95.9595C295.423 96.1358 295.752 96.224 296.152 96.224ZM304.562 89.9405V91.0744H300.598V89.9405H304.562ZM301.661 88.2019H303.074V95.0665C303.074 95.3406 303.115 95.5469 303.196 95.6854C303.278 95.8209 303.384 95.9138 303.513 95.9642C303.645 96.0114 303.789 96.0351 303.943 96.0351C304.056 96.0351 304.156 96.0272 304.241 96.0114C304.326 95.9957 304.392 95.9831 304.439 95.9736L304.694 97.1406C304.612 97.1721 304.496 97.2036 304.344 97.2351C304.193 97.2697 304.004 97.2886 303.778 97.2918C303.406 97.2981 303.059 97.2319 302.738 97.0933C302.417 96.9547 302.157 96.7406 301.959 96.4508C301.76 96.161 301.661 95.7973 301.661 95.3595V88.2019ZM305.991 97.1973V89.9405H307.404V97.1973H305.991ZM306.705 88.8209C306.459 88.8209 306.248 88.739 306.072 88.5752C305.898 88.4082 305.812 88.2098 305.812 87.9799C305.812 87.7468 305.898 87.5484 306.072 87.3846C306.248 87.2177 306.459 87.1342 306.705 87.1342C306.95 87.1342 307.16 87.2177 307.333 87.3846C307.51 87.5484 307.598 87.7468 307.598 87.9799C307.598 88.2098 307.51 88.4082 307.333 88.5752C307.16 88.739 306.95 88.8209 306.705 88.8209ZM310.584 92.8886V97.1973H309.171V89.9405H310.527V91.1216H310.617C310.784 90.7374 311.045 90.4287 311.401 90.1957C311.76 89.9626 312.212 89.8461 312.757 89.8461C313.252 89.8461 313.685 89.95 314.056 90.1579C314.428 90.3626 314.716 90.6681 314.921 91.0744C315.126 91.4807 315.228 91.9831 315.228 92.5815V97.1973H313.815V92.7516C313.815 92.2256 313.678 91.8146 313.404 91.5185C313.13 91.2193 312.754 91.0697 312.275 91.0697C311.948 91.0697 311.656 91.1405 311.401 91.2823C311.149 91.424 310.949 91.6319 310.801 91.9059C310.656 92.1768 310.584 92.5043 310.584 92.8886ZM320.032 100.07C319.456 100.07 318.96 99.9941 318.544 99.8429C318.131 99.6918 317.794 99.4918 317.533 99.2429C317.271 98.9941 317.076 98.7217 316.947 98.4256L318.161 97.9248C318.246 98.0634 318.36 98.2099 318.501 98.3642C318.646 98.5217 318.842 98.6555 319.087 98.7658C319.336 98.876 319.656 98.9311 320.046 98.9311C320.582 98.9311 321.024 98.8004 321.374 98.539C321.723 98.2807 321.898 97.8681 321.898 97.3012V95.8744H321.808C321.723 96.0288 321.601 96.2004 321.44 96.3894C321.282 96.5784 321.065 96.7421 320.788 96.8807C320.511 97.0193 320.15 97.0886 319.706 97.0886C319.133 97.0886 318.616 96.9547 318.156 96.687C317.7 96.4162 317.338 96.0177 317.07 95.4917C316.805 94.9626 316.673 94.3122 316.673 93.5406C316.673 92.7689 316.804 92.1075 317.065 91.5563C317.33 91.0051 317.692 90.5831 318.152 90.2901C318.612 89.9941 319.133 89.8461 319.716 89.8461C320.166 89.8461 320.53 89.9216 320.807 90.0728C321.084 90.2209 321.3 90.3941 321.454 90.5925C321.612 90.7909 321.733 90.9657 321.818 91.1169H321.922V89.9405H323.306V97.3579C323.306 97.9815 323.161 98.4933 322.871 98.8933C322.582 99.2933 322.19 99.5894 321.695 99.7815C321.204 99.9737 320.649 100.07 320.032 100.07ZM320.018 95.9169C320.424 95.9169 320.768 95.8225 321.048 95.6335C321.331 95.4414 321.545 95.1673 321.69 94.8114C321.838 94.4524 321.912 94.0224 321.912 93.5217C321.912 93.0335 321.84 92.6035 321.695 92.2319C321.55 91.8602 321.338 91.5705 321.057 91.3626C320.777 91.1516 320.43 91.0461 320.018 91.0461C319.593 91.0461 319.238 91.1563 318.955 91.3768C318.671 91.5941 318.457 91.8902 318.312 92.265C318.171 92.6398 318.1 93.0587 318.1 93.5217C318.1 93.9973 318.172 94.4146 318.317 94.7736C318.462 95.1327 318.676 95.413 318.96 95.6146C319.246 95.8162 319.599 95.9169 320.018 95.9169Z" fill="black"/>
</g>
</g>
<defs>
<filter id="filter0_d_258_2923" x="76.8207" y="61.685" width="277.07" height="61.0245" filterUnits="userSpaceOnUse" color-interpolation-filters="sRGB">
<feFlood flood-opacity="0" result="BackgroundImageFix"/>
<feColorMatrix in="SourceAlpha" type="matrix" values="0 0 0 0 0 0 0 0 0 0 0 0 0 0 0 0 0 0 127 0" result="hardAlpha"/>
<feOffset/>
<feGaussianBlur stdDeviation="4.1575"/>
<feComposite in2="hardAlpha" operator="out"/>
<feColorMatrix type="matrix" values="0 0 0 0 0.254902 0 0 0 0 0.254902 0 0 0 0 0.254902 0 0 0 0.05 0"/>
<feBlend mode="normal" in2="BackgroundImageFix" result="effect1_dropShadow_258_2923"/>
<feBlend mode="normal" in="SourceGraphic" in2="effect1_dropShadow_258_2923" result="shape"/>
</filter>
<filter id="filter1_dd_258_2923" x="199.26" y="79.1828" width="32.5368" height="32.5372" filterUnits="userSpaceOnUse" color-interpolation-filters="sRGB">
<feFlood flood-opacity="0" result="BackgroundImageFix"/>
<feColorMatrix in="SourceAlpha" type="matrix" values="0 0 0 0 0 0 0 0 0 0 0 0 0 0 0 0 0 0 127 0" result="hardAlpha"/>
<feOffset dy="0.813424"/>
<feGaussianBlur stdDeviation="0.813424"/>
<feColorMatrix type="matrix" values="0 0 0 0 0 0 0 0 0 0 0 0 0 0 0 0 0 0 0.255831 0"/>
<feBlend mode="normal" in2="BackgroundImageFix" result="effect1_dropShadow_258_2923"/>
<feColorMatrix in="SourceAlpha" type="matrix" values="0 0 0 0 0 0 0 0 0 0 0 0 0 0 0 0 0 0 127 0" result="hardAlpha"/>
<feOffset dy="3.25369"/>
<feGaussianBlur stdDeviation="3.25369"/>
<feColorMatrix type="matrix" values="0 0 0 0 0 0 0 0 0 0 0 0 0 0 0 0 0 0 0.254246 0"/>
<feBlend mode="normal" in2="effect1_dropShadow_258_2923" result="effect2_dropShadow_258_2923"/>
<feBlend mode="normal" in="SourceGraphic" in2="effect2_dropShadow_258_2923" result="shape"/>
</filter>
<linearGradient id="paint0_linear_258_2923" x1="429" y1="90" x2="0" y2="90" gradientUnits="userSpaceOnUse">
<stop stop-color="white" stop-opacity="0"/>
<stop offset="0.5" stop-color="white"/>
<stop offset="1" stop-color="white" stop-opacity="0"/>
</linearGradient>
<linearGradient id="paint1_linear_258_2923" x1="113.66" y1="86.3955" x2="113.66" y2="98.0003" gradientUnits="userSpaceOnUse">
<stop stop-color="#A400DD" stop-opacity="0.25"/>
<stop offset="1" stop-color="#A400DD" stop-opacity="0"/>
</linearGradient>
<linearGradient id="paint2_linear_258_2923" x1="113.66" y1="90.9082" x2="113.66" y2="93.4871" gradientUnits="userSpaceOnUse">
<stop stop-color="#A400DD" stop-opacity="0.25"/>
<stop offset="1" stop-color="#A400DD" stop-opacity="0"/>
</linearGradient>
<linearGradient id="paint3_linear_258_2923" x1="259.436" y1="86.3955" x2="259.436" y2="91.6177" gradientUnits="userSpaceOnUse">
<stop stop-color="#A400DD" stop-opacity="0.25"/>
<stop offset="1" stop-color="#A400DD" stop-opacity="0"/>
</linearGradient>
<linearGradient id="paint4_linear_258_2923" x1="259.759" y1="86.9756" x2="259.759" y2="98.0002" gradientUnits="userSpaceOnUse">
<stop stop-color="#A400DD" stop-opacity="0.25"/>
<stop offset="1" stop-color="#A400DD" stop-opacity="0"/>
</linearGradient>
<linearGradient id="paint5_linear_258_2923" x1="255.249" y1="94.5186" x2="255.249" y2="97.4198" gradientUnits="userSpaceOnUse">
<stop stop-color="#A400DD" stop-opacity="0.25"/>
<stop offset="1" stop-color="#A400DD" stop-opacity="0"/>
</linearGradient>
</defs>
</svg>
