<svg width="381" height="170" viewBox="0 0 381 170" fill="none" xmlns="http://www.w3.org/2000/svg">
<path d="M52 17.5H315C323.008 17.5 329.5 23.9919 329.5 32V145.5H37.5V32C37.5 23.9919 43.9919 17.5 52 17.5Z" fill="white" stroke="#EEEEEE"/>
<path d="M34 29.5H333C341.008 29.5 347.5 35.9919 347.5 44V157.5H19.5V44C19.5 35.9919 25.9919 29.5 34 29.5Z" fill="white" stroke="#EEEEEE"/>
<path d="M15 41.5H352C360.008 41.5 366.5 47.9919 366.5 56V169.5H0.5V56C0.5 47.9919 6.99187 41.5 15 41.5Z" fill="white" stroke="#EEEEEE"/>
<rect x="65" y="58" width="231" height="12" rx="2" fill="#EEEEEE"/>
<rect x="65" y="75" width="73" height="9" rx="2" fill="#EEEEEE"/>
<rect x="143" y="75" width="31" height="9" rx="2" fill="#EEEEEE"/>
<rect x="179" y="75" width="45" height="9" rx="2" fill="#EEEEEE"/>
<path d="M17 97L351 97" stroke="#EEEEEE"/>
<rect x="17" y="53" width="37" height="37" rx="10" fill="#A400DD"/>
<path d="M16 169L93.0242 139.121C95.3272 138.227 97.8794 138.218 100.189 139.094L116.17 145.159C118.49 146.039 121.054 146.026 123.364 145.121L169.67 126.985C171.305 126.345 173.079 126.146 174.815 126.409L218.222 132.987C219.738 133.216 221.286 133.095 222.747 132.631L276.644 115.516C277.181 115.345 277.732 115.22 278.289 115.143L351 105" stroke="#A400DD"/>
<path opacity="0.25" d="M93.0242 139.121L16 169H351V105L278.289 115.143C277.732 115.22 277.181 115.345 276.644 115.516L222.747 132.631C221.286 133.095 219.738 133.216 218.222 132.987L174.815 126.409C173.079 126.146 171.305 126.345 169.67 126.985L123.364 145.121C121.054 146.026 118.49 146.039 116.17 145.159L100.189 139.094C97.8794 138.218 95.3272 138.227 93.0242 139.121Z" fill="url(#paint0_linear_258_2912)"/>
<circle opacity="0.25" cx="220.5" cy="132.5" r="9.5" fill="#A400DD"/>
<circle cx="220.5" cy="132.5" r="5.5" fill="#A400DD"/>
<rect x="235" y="110" width="146" height="32" rx="3.88889" fill="#A400DD"/>
<rect x="235.5" y="110.5" width="145" height="31" rx="3.38889" stroke="white" stroke-opacity="0.25"/>
<path d="M248.767 120.364V132H246.659V122.415H246.591L243.869 124.153V122.222L246.761 120.364H248.767ZM255.863 132.222C254.927 132.222 254.124 131.985 253.454 131.511C252.787 131.034 252.274 130.347 251.914 129.449C251.558 128.547 251.38 127.462 251.38 126.193C251.384 124.924 251.563 123.845 251.92 122.955C252.279 122.061 252.793 121.379 253.459 120.909C254.13 120.439 254.931 120.205 255.863 120.205C256.795 120.205 257.596 120.439 258.266 120.909C258.937 121.379 259.45 122.061 259.806 122.955C260.166 123.848 260.346 124.928 260.346 126.193C260.346 127.466 260.166 128.553 259.806 129.455C259.45 130.352 258.937 131.038 258.266 131.511C257.599 131.985 256.798 132.222 255.863 132.222ZM255.863 130.443C256.59 130.443 257.164 130.085 257.584 129.369C258.009 128.65 258.221 127.591 258.221 126.193C258.221 125.269 258.124 124.492 257.931 123.864C257.738 123.235 257.465 122.761 257.113 122.443C256.76 122.121 256.344 121.96 255.863 121.96C255.139 121.96 254.567 122.32 254.147 123.04C253.726 123.756 253.514 124.807 253.51 126.193C253.507 127.121 253.599 127.902 253.789 128.534C253.982 129.167 254.255 129.644 254.607 129.966C254.959 130.284 255.378 130.443 255.863 130.443ZM269.983 124.08C269.888 123.773 269.757 123.498 269.591 123.256C269.428 123.009 269.231 122.799 269 122.625C268.772 122.451 268.511 122.32 268.216 122.233C267.92 122.142 267.598 122.097 267.25 122.097C266.625 122.097 266.068 122.254 265.579 122.568C265.091 122.883 264.706 123.345 264.426 123.955C264.149 124.561 264.011 125.299 264.011 126.17C264.011 127.049 264.149 127.794 264.426 128.403C264.702 129.013 265.087 129.477 265.579 129.795C266.072 130.11 266.644 130.267 267.295 130.267C267.886 130.267 268.397 130.153 268.829 129.926C269.265 129.699 269.6 129.377 269.835 128.96C270.07 128.54 270.187 128.047 270.187 127.483L270.664 127.557H267.505V125.909H272.227V127.307C272.227 128.303 272.015 129.165 271.591 129.892C271.166 130.619 270.583 131.18 269.841 131.574C269.098 131.964 268.246 132.159 267.284 132.159C266.212 132.159 265.27 131.919 264.46 131.438C263.653 130.953 263.022 130.265 262.568 129.375C262.117 128.481 261.892 127.42 261.892 126.193C261.892 125.254 262.024 124.415 262.289 123.676C262.558 122.938 262.933 122.311 263.414 121.795C263.895 121.277 264.46 120.883 265.108 120.614C265.755 120.341 266.46 120.205 267.221 120.205C267.865 120.205 268.466 120.299 269.022 120.489C269.579 120.674 270.073 120.939 270.505 121.284C270.941 121.629 271.299 122.038 271.579 122.511C271.859 122.985 272.043 123.508 272.13 124.08H269.983ZM274.105 132V120.364H278.56C279.401 120.364 280.1 120.496 280.656 120.761C281.217 121.023 281.636 121.381 281.912 121.835C282.192 122.29 282.333 122.805 282.333 123.381C282.333 123.854 282.242 124.259 282.06 124.597C281.878 124.93 281.634 125.201 281.327 125.409C281.02 125.617 280.677 125.767 280.298 125.858V125.972C280.711 125.994 281.107 126.121 281.486 126.352C281.868 126.58 282.181 126.902 282.423 127.318C282.666 127.735 282.787 128.239 282.787 128.83C282.787 129.432 282.641 129.973 282.35 130.455C282.058 130.932 281.618 131.309 281.031 131.585C280.444 131.862 279.706 132 278.815 132H274.105ZM276.213 130.239H278.48C279.245 130.239 279.797 130.093 280.134 129.801C280.475 129.506 280.645 129.127 280.645 128.665C280.645 128.32 280.56 128.009 280.389 127.733C280.219 127.453 279.976 127.233 279.662 127.074C279.348 126.911 278.973 126.83 278.537 126.83H276.213V130.239ZM276.213 125.312H278.298C278.662 125.312 278.99 125.246 279.281 125.114C279.573 124.977 279.802 124.786 279.969 124.54C280.139 124.29 280.225 123.994 280.225 123.653C280.225 123.203 280.065 122.831 279.747 122.54C279.433 122.248 278.965 122.102 278.344 122.102H276.213V125.312ZM284.37 135.273V123.273H286.393V124.716H286.512C286.618 124.504 286.768 124.278 286.961 124.04C287.154 123.797 287.415 123.591 287.745 123.42C288.074 123.246 288.495 123.159 289.006 123.159C289.681 123.159 290.289 123.331 290.83 123.676C291.376 124.017 291.807 124.523 292.126 125.193C292.448 125.86 292.609 126.678 292.609 127.648C292.609 128.606 292.451 129.42 292.137 130.091C291.823 130.761 291.395 131.273 290.853 131.625C290.311 131.977 289.698 132.153 289.012 132.153C288.512 132.153 288.097 132.07 287.768 131.903C287.438 131.737 287.173 131.536 286.972 131.301C286.775 131.062 286.622 130.837 286.512 130.625H286.427V135.273H284.37ZM286.387 127.636C286.387 128.201 286.467 128.695 286.626 129.119C286.789 129.544 287.021 129.875 287.324 130.114C287.631 130.348 288.003 130.466 288.438 130.466C288.893 130.466 289.273 130.345 289.58 130.102C289.887 129.856 290.118 129.521 290.273 129.097C290.432 128.669 290.512 128.182 290.512 127.636C290.512 127.095 290.434 126.614 290.279 126.193C290.124 125.773 289.893 125.443 289.586 125.205C289.279 124.966 288.896 124.847 288.438 124.847C287.999 124.847 287.626 124.962 287.319 125.193C287.012 125.424 286.779 125.748 286.62 126.165C286.465 126.581 286.387 127.072 286.387 127.636ZM301.108 125.58L299.233 125.784C299.18 125.595 299.087 125.417 298.954 125.25C298.825 125.083 298.651 124.949 298.432 124.847C298.212 124.744 297.943 124.693 297.625 124.693C297.197 124.693 296.837 124.786 296.545 124.972C296.257 125.157 296.115 125.398 296.119 125.693C296.115 125.947 296.208 126.153 296.397 126.312C296.591 126.472 296.909 126.602 297.352 126.705L298.841 127.023C299.666 127.201 300.28 127.483 300.682 127.869C301.087 128.256 301.291 128.761 301.295 129.386C301.291 129.936 301.13 130.42 300.812 130.841C300.498 131.258 300.06 131.583 299.5 131.818C298.939 132.053 298.295 132.17 297.568 132.17C296.5 132.17 295.64 131.947 294.988 131.5C294.337 131.049 293.949 130.422 293.824 129.619L295.829 129.426C295.92 129.82 296.113 130.117 296.409 130.318C296.704 130.519 297.089 130.619 297.562 130.619C298.051 130.619 298.443 130.519 298.738 130.318C299.038 130.117 299.187 129.869 299.187 129.574C299.187 129.324 299.091 129.117 298.897 128.955C298.708 128.792 298.413 128.667 298.011 128.58L296.522 128.267C295.685 128.093 295.066 127.799 294.664 127.386C294.263 126.97 294.064 126.443 294.068 125.807C294.064 125.269 294.21 124.803 294.505 124.409C294.805 124.011 295.219 123.705 295.75 123.489C296.284 123.269 296.899 123.159 297.596 123.159C298.619 123.159 299.424 123.377 300.011 123.812C300.602 124.248 300.968 124.837 301.108 125.58Z" fill="white"/>
<g opacity="0.25">
<rect x="305" y="115.889" width="68" height="9.33333" rx="1.55556" fill="white"/>
<rect x="305" y="129.111" width="43.6632" height="7" rx="1.55556" fill="white"/>
<rect x="351.526" y="129.111" width="18.6105" height="7" rx="1.55556" fill="white"/>
</g>
<g clip-path="url(#clip0_258_2912)">
<path d="M26.6875 79.7614V78.8131M43.7575 79.7614V62.6914M35.2225 79.7614V71.2264M39.49 79.7614V67.4331M30.955 79.7614V75.0197" stroke="white" stroke-width="1.4225" stroke-linecap="round" stroke-linejoin="round"/>
</g>
<defs>
<linearGradient id="paint0_linear_258_2912" x1="183.5" y1="105" x2="183.5" y2="169" gradientUnits="userSpaceOnUse">
<stop stop-color="#A400DD"/>
<stop offset="1" stop-color="#A400DD" stop-opacity="0"/>
</linearGradient>
<clipPath id="clip0_258_2912">
<rect width="20.4542" height="20.4542" fill="white" transform="translate(25 61)"/>
</clipPath>
</defs>
</svg>
