<svg width="366" height="170" viewBox="0 0 366 170" fill="none" xmlns="http://www.w3.org/2000/svg">
<rect x="34.5" y="88.5" width="297" height="63" rx="9.5" fill="white" stroke="#EEEEEE"/>
<rect x="17.5" y="75.5" width="331" height="63" rx="9.5" fill="white" stroke="#EEEEEE"/>
<rect x="0.5" y="53.5" width="365" height="71" rx="9.5" fill="white" stroke="#EEEEEE"/>
<circle cx="61" cy="65" r="26.5" fill="white" stroke="#EEEEEE"/>
<circle cx="122" cy="55" r="26.5" fill="white" stroke="#EEEEEE"/>
<g filter="url(#filter0_i_227_3057)">
<circle cx="183" cy="45" r="27" fill="url(#paint0_linear_227_3057)"/>
</g>
<circle cx="183" cy="45" r="26.5" stroke="#EEEEEE"/>
<circle cx="244" cy="55" r="26.5" fill="white" stroke="#EEEEEE"/>
<circle cx="305" cy="65" r="26.5" fill="white" stroke="#EEEEEE"/>
<path d="M298.72 65.1529H295L300.656 77.2803H303.662L315 53H311.306L302.159 72.5669L298.72 65.1529Z" fill="#D52B1E"/>
<path d="M113.415 65.6468C115.788 67.4547 118.768 68.541 122 68.541C125.537 68.541 128.762 67.2487 131.223 65.1275C131.253 65.1016 131.238 65.0844 131.208 65.1016C130.104 65.8273 126.957 67.4116 122 67.4116C117.693 67.4116 114.97 66.4658 113.433 65.6215C113.404 65.6072 113.393 65.6289 113.415 65.6468ZM122.95 66.3507C126.395 66.3507 130.181 65.4265 132.445 63.5972C133.065 63.0988 133.655 62.4354 134.184 61.5439C134.488 61.031 134.786 60.4215 135.028 59.8225C135.039 59.7933 135.021 59.7791 134.998 59.8119C132.893 62.861 126.795 64.7628 120.5 64.7628C116.049 64.7628 111.261 63.3625 109.387 60.6887C109.368 60.6639 109.35 60.6745 109.361 60.7029C111.107 64.3554 116.405 66.3507 122.95 66.3507ZM119.186 60.2914C112.021 60.2914 108.642 57.0076 108.029 54.7666C108.022 54.7342 108 54.7413 108 54.7705C108 55.5249 108.077 56.4985 108.209 57.1447C108.272 57.4593 108.532 57.9529 108.913 58.3464C110.648 60.126 114.974 62.6196 122.466 62.6196C132.672 62.6196 135.006 59.274 135.483 58.1738C135.823 57.387 136 55.965 136 54.7705C136 54.4815 135.993 54.2506 135.982 54.0239C135.982 53.9872 135.96 53.9841 135.952 54.02C135.442 56.7121 126.722 60.2914 119.186 60.2914ZM109.35 48.8629C108.939 49.6647 108.484 51.0174 108.349 51.7175C108.289 52.0174 108.315 52.1615 108.422 52.3853C109.28 54.1783 113.624 57.0471 123.757 57.0471C129.939 57.0471 134.741 55.5527 135.519 52.8256C135.663 52.3235 135.67 51.7935 135.486 51.0793C135.281 50.2812 134.895 49.3505 134.57 48.6969C134.559 48.6756 134.54 48.6788 134.544 48.704C134.665 52.2809 124.528 54.5861 119.413 54.5861C113.873 54.5861 109.251 52.4141 109.251 49.6715C109.251 49.408 109.306 49.1444 109.376 48.8701C109.383 48.8451 109.361 48.8409 109.35 48.8629ZM131.245 44.4712C131.304 44.5619 131.334 44.6588 131.334 44.7891C131.334 46.3191 126.575 49.0258 118.999 49.0258C113.433 49.0258 112.391 46.9939 112.391 45.7018C112.391 45.2399 112.571 44.7672 112.968 44.2872C112.989 44.2587 112.971 44.2477 112.946 44.2689C112.222 44.8729 111.561 45.5477 110.976 46.2829C110.697 46.6293 110.524 46.9362 110.524 47.12C110.524 49.7978 117.348 51.7394 123.728 51.7394C130.526 51.7394 133.56 49.5555 133.56 47.6364C133.56 46.9505 133.289 46.5501 132.595 45.7738C132.144 45.2689 131.718 44.8577 131.267 44.4529C131.245 44.4352 131.23 44.4496 131.245 44.4712ZM129.161 42.9415C127.063 41.704 124.627 41 122 41C119.355 41 116.845 41.7286 114.74 42.9989C114.108 43.3814 113.752 43.6879 113.752 44.082C113.752 45.2435 116.511 46.4924 121.405 46.4924C126.249 46.4924 130.005 45.1244 130.005 43.8077C130.005 43.4934 129.726 43.2735 129.161 42.9415Z" fill="#00A8E0"/>
<path d="M244.024 46.3976C244.521 45.5846 245.348 44.7339 246.237 44.3741C247.768 43.6774 249.821 43.977 251.07 45.0794C252.279 46.1746 252.892 47.6757 252.603 49.3539C252.899 49.2992 253.199 49.1093 253.512 49.0013C255.389 48.4717 257.374 49.0459 258.577 50.655C259.481 51.8035 259.717 53.5879 259.174 54.9753C258.905 55.6733 258.446 56.3009 257.849 56.8363L257.909 56.8968C259.655 56.9816 261.371 58.3374 261.9 59.9996C262.474 61.6763 261.969 63.4681 260.743 64.6944C259.741 65.6846 258.453 66.0272 257.021 65.9983H231.025C228.89 66.0442 227.241 65.0987 226.353 63.2006C225.656 61.5713 226 59.4874 227.301 58.2454C228.122 57.3876 229.149 57.0363 230.258 56.8594C229.003 55.6951 228.398 54.1019 228.751 52.3935C229.003 51.0091 230.183 49.6073 231.538 49.1235C232.733 48.6487 234.351 48.732 235.445 49.3768L235.483 49.3293C235.154 47.4453 235.989 45.7457 237.551 44.7037C238.945 43.7611 241.173 43.7854 242.537 44.7874C243.15 45.1627 243.655 45.8076 244.024 46.3976Z" fill="white"/>
<path d="M251.383 47.1016C251.941 48.2286 251.613 49.7052 251.03 50.717L246.52 60.8648L246.481 60.9124L244.85 50.6178C244.72 49.6292 245.776 49.2074 246.398 48.7325C246.366 48.5872 246.206 48.5943 246.105 48.5267L244.581 48.5108L244.535 48.4647C244.544 47.1867 245.232 46.0066 246.398 45.3863C247.615 44.6826 249.331 44.874 250.387 45.7764C250.816 46.159 251.177 46.6036 251.383 47.1016Z" fill="#645FAA"/>
<path d="M243.073 46.7489C243.442 47.4311 243.655 48.2055 243.525 49.063L241.686 60.8503C241.696 60.8646 241.679 60.8805 241.664 60.8876L241.188 59.9392L236.578 49.6446C236.149 48.3191 236.546 46.9332 237.512 45.9831C238.485 44.9959 240.085 44.7282 241.358 45.2635C242.031 45.5544 242.675 46.0898 243.073 46.7489Z" fill="#C9234A"/>
<path d="M258.055 51.7111C258.676 52.7688 258.536 54.3693 257.847 55.3509C257.419 56.0402 256.714 56.3842 256.117 56.836L246.565 63.3929H246.543L246.65 63.0793L251.713 51.6506C252.471 50.3036 253.919 49.6214 255.45 49.8271C256.5 50.0187 257.549 50.7007 258.055 51.7111Z" fill="#0089CF"/>
<path d="M236.357 51.6508L241.626 63.3918H241.541L230.919 56.0705C229.838 55.1596 229.395 53.7952 229.762 52.4164C230.036 51.3831 230.894 50.4175 231.915 50.0344C233.585 49.4228 235.468 50.0733 236.357 51.6508Z" fill="#F36F21"/>
<path d="M260.828 59.9996C261.358 61.1179 261.149 62.6492 260.392 63.6004C259.641 64.5116 258.636 65.0095 257.457 64.9778L246.131 64.9851L255.619 58.3836C256.546 57.7863 257.955 57.6781 258.967 58.1617C259.749 58.4682 260.484 59.234 260.828 59.9996Z" fill="#0DB14B"/>
<path d="M227.286 59.9996C226.758 61.1179 226.965 62.6492 227.723 63.6004C228.475 64.5116 229.476 65.0095 230.656 64.9778L241.983 64.9851L232.494 58.3836C231.568 57.7863 230.159 57.6781 229.148 58.1617C228.367 58.4682 227.631 59.234 227.286 59.9996Z" fill="#FDB913"/>
<path d="M71.1289 55.646C71.1289 54.595 70.4889 54 69.2539 54H51.8779C50.6439 54 50.0039 54.6 50.0039 55.646V57.24L69.3039 57.201C70.4929 57.201 71.1329 56.652 71.1329 55.646" fill="#0C9ED9"/>
<path d="M50 63.0303V73.5153C50 74.6153 50.64 75.1153 51.875 75.1153H69.433C70.622 75.1153 71.262 74.6153 71.262 73.5153C71.262 72.4633 70.622 71.9153 69.433 71.9153H54.3C53.706 71.9153 53.477 71.6403 53.477 71.0923V66.2733H64.908C66.143 66.2733 66.783 65.7243 66.783 64.6733C66.783 63.6733 66.143 63.0733 64.908 63.0733L50 63.0303Z" fill="black"/>
<path d="M175.682 36.8316L177.224 33H189.083C190.722 33.2292 194 34.7095 194 38.7965C194 42.5189 191.387 44.1876 189.731 44.6783C189.432 44.7672 189.119 44.7895 188.806 44.7895H180.695L182.43 40.7614H188.435C188.609 40.7614 188.783 40.7386 188.941 40.6646C189.481 40.4112 190.24 39.8093 190.24 38.7965C190.24 37.7837 189.481 37.1818 188.941 36.9284C188.783 36.8544 188.609 36.8316 188.435 36.8316H175.682Z" fill="white"/>
<path d="M182.063 37.9754H177.821L173 49.7649H181.195L177.628 59L190.451 45.8351H178.881L182.063 37.9754Z" fill="white"/>
<g opacity="0.5">
<rect width="204.75" height="11.25" rx="2.25" transform="matrix(1 0 0 -1 80.625 114)" fill="#EEEEEE"/>
<rect width="60.75" height="10.125" rx="2.25" transform="matrix(1 0 0 -1 136.875 97.125)" fill="#EEEEEE"/>
<rect width="25.875" height="10.125" rx="2.25" transform="matrix(1 0 0 -1 203.25 97.125)" fill="#EEEEEE"/>
</g>
<defs>
<filter id="filter0_i_227_3057" x="156" y="18" width="54" height="56" filterUnits="userSpaceOnUse" color-interpolation-filters="sRGB">
<feFlood flood-opacity="0" result="BackgroundImageFix"/>
<feBlend mode="normal" in="SourceGraphic" in2="BackgroundImageFix" result="shape"/>
<feColorMatrix in="SourceAlpha" type="matrix" values="0 0 0 0 0 0 0 0 0 0 0 0 0 0 0 0 0 0 127 0" result="hardAlpha"/>
<feOffset dy="8"/>
<feGaussianBlur stdDeviation="1"/>
<feComposite in2="hardAlpha" operator="arithmetic" k2="-1" k3="1"/>
<feColorMatrix type="matrix" values="0 0 0 0 1 0 0 0 0 1 0 0 0 0 1 0 0 0 0.25 0"/>
<feBlend mode="normal" in2="shape" result="effect1_innerShadow_227_3057"/>
</filter>
<linearGradient id="paint0_linear_227_3057" x1="183" y1="18" x2="183" y2="72" gradientUnits="userSpaceOnUse">
<stop stop-color="#FF792E"/>
<stop offset="1" stop-color="#FF782D"/>
</linearGradient>
</defs>
</svg>
