<svg width="369" height="170" viewBox="0 0 369 170" fill="none" xmlns="http://www.w3.org/2000/svg">
<rect x="0.5" y="-0.5" width="297" height="63" rx="9.5" transform="matrix(1 0 0 -1 34 83.0002)" fill="white" stroke="#EEEEEE"/>
<rect x="0.5" y="-0.5" width="331" height="63" rx="9.5" transform="matrix(1 0 0 -1 17 96.0002)" fill="white" stroke="#EEEEEE"/>
<rect x="0.5" y="-0.5" width="365" height="111" rx="9.5" transform="matrix(1 0 0 -1 0 158)" fill="white" stroke="#EEEEEE"/>
<rect width="25" height="80" rx="5" transform="matrix(-1 0 0 1 38 67.0002)" fill="url(#paint0_linear_227_3059)"/>
<rect x="-0.5" y="0.5" width="24" height="79" rx="4.5" transform="matrix(-1 0 0 1 37 67.0002)" stroke="#EEEEEE" stroke-opacity="0.1"/>
<rect width="25" height="63" rx="5" transform="matrix(-1 0 0 1 73 84.0002)" fill="url(#paint1_linear_227_3059)"/>
<rect x="-0.5" y="0.5" width="24" height="62" rx="4.5" transform="matrix(-1 0 0 1 72 84.0002)" stroke="#EEEEEE" stroke-opacity="0.1"/>
<rect x="83" y="106" width="25" height="41" rx="5" fill="url(#paint2_linear_227_3059)"/>
<rect x="83.5" y="106.5" width="24" height="40" rx="4.5" stroke="#EEEEEE" stroke-opacity="0.1"/>
<rect x="118" y="58.0002" width="25" height="89" rx="5" fill="url(#paint3_linear_227_3059)"/>
<rect x="118.5" y="58.5002" width="24" height="88" rx="4.5" stroke="#EEEEEE" stroke-opacity="0.1"/>
<rect x="153" y="84.0002" width="25" height="63" rx="5" fill="url(#paint4_linear_227_3059)"/>
<rect x="153.5" y="84.5002" width="24" height="62" rx="4.5" stroke="#EEEEEE" stroke-opacity="0.1"/>
<rect width="25" height="41" rx="5" transform="matrix(-1 0 0 1 213 106)" fill="url(#paint5_linear_227_3059)"/>
<rect x="-0.5" y="0.5" width="24" height="40" rx="4.5" transform="matrix(-1 0 0 1 212 106)" stroke="#EEEEEE" stroke-opacity="0.1"/>
<rect x="223" y="67.0002" width="25" height="80" rx="5" fill="url(#paint6_linear_227_3059)"/>
<rect x="223.5" y="67.5002" width="24" height="79" rx="4.5" stroke="#EEEEEE" stroke-opacity="0.1"/>
<rect x="258" y="106" width="25" height="41" rx="5" fill="url(#paint7_linear_227_3059)"/>
<rect x="258.5" y="106.5" width="24" height="40" rx="4.5" stroke="#EEEEEE" stroke-opacity="0.1"/>
<rect x="293" y="84.0002" width="25" height="63" rx="5" fill="url(#paint8_linear_227_3059)"/>
<rect x="293.5" y="84.5002" width="24" height="62" rx="4.5" stroke="#EEEEEE" stroke-opacity="0.1"/>
<rect x="328" y="67.0002" width="25" height="80" rx="5" fill="url(#paint9_linear_227_3059)"/>
<rect x="328.5" y="67.5002" width="24" height="79" rx="4.5" stroke="#EEEEEE" stroke-opacity="0.1"/>
<rect x="258.5" y="10.5" width="110" height="31" rx="3.38889" fill="white"/>
<rect x="258.5" y="10.5" width="110" height="31" rx="3.38889" stroke="#EEEEEE"/>
<path d="M284.178 22C289.274 22 289.274 30 284.178 30C279.083 30 277.045 22 271.439 22C266.854 22 266.854 30 271.439 30C277.045 30 279.083 22 284.179 22H284.178Z" stroke="#222222" stroke-width="2" stroke-linecap="round" stroke-linejoin="round"/>
<g opacity="0.1">
<rect x="293" y="15.8889" width="68" height="9.33333" rx="1.55556" fill="#282828"/>
<rect x="293" y="29.1111" width="43.6632" height="7" rx="1.55556" fill="#282828"/>
<rect x="339.526" y="29.1111" width="18.6105" height="7" rx="1.55556" fill="#282828"/>
</g>
<defs>
<linearGradient id="paint0_linear_227_3059" x1="12.5" y1="80" x2="12.5" y2="0" gradientUnits="userSpaceOnUse">
<stop stop-color="#FF792E" stop-opacity="0"/>
<stop offset="1" stop-color="#FF792E"/>
</linearGradient>
<linearGradient id="paint1_linear_227_3059" x1="12.5" y1="63" x2="12.5" y2="0" gradientUnits="userSpaceOnUse">
<stop stop-color="#FF792E" stop-opacity="0"/>
<stop offset="1" stop-color="#FF792E"/>
</linearGradient>
<linearGradient id="paint2_linear_227_3059" x1="95.5" y1="147" x2="95.5" y2="106" gradientUnits="userSpaceOnUse">
<stop stop-color="#FF792E" stop-opacity="0"/>
<stop offset="1" stop-color="#FF792E"/>
</linearGradient>
<linearGradient id="paint3_linear_227_3059" x1="130.5" y1="147" x2="130.5" y2="58.0002" gradientUnits="userSpaceOnUse">
<stop stop-color="#FF792E" stop-opacity="0"/>
<stop offset="1" stop-color="#FF792E"/>
</linearGradient>
<linearGradient id="paint4_linear_227_3059" x1="165.5" y1="147" x2="165.5" y2="84.0002" gradientUnits="userSpaceOnUse">
<stop stop-color="#FF792E" stop-opacity="0"/>
<stop offset="1" stop-color="#FF792E"/>
</linearGradient>
<linearGradient id="paint5_linear_227_3059" x1="12.5" y1="41" x2="12.5" y2="0" gradientUnits="userSpaceOnUse">
<stop stop-color="#FF792E" stop-opacity="0"/>
<stop offset="1" stop-color="#FF792E"/>
</linearGradient>
<linearGradient id="paint6_linear_227_3059" x1="235.5" y1="147" x2="235.5" y2="67.0002" gradientUnits="userSpaceOnUse">
<stop stop-color="#FF792E" stop-opacity="0"/>
<stop offset="1" stop-color="#FF792E"/>
</linearGradient>
<linearGradient id="paint7_linear_227_3059" x1="270.5" y1="147" x2="270.5" y2="106" gradientUnits="userSpaceOnUse">
<stop stop-color="#FF792E" stop-opacity="0"/>
<stop offset="1" stop-color="#FF792E"/>
</linearGradient>
<linearGradient id="paint8_linear_227_3059" x1="305.5" y1="147" x2="305.5" y2="84.0002" gradientUnits="userSpaceOnUse">
<stop stop-color="#FF792E" stop-opacity="0"/>
<stop offset="1" stop-color="#FF792E"/>
</linearGradient>
<linearGradient id="paint9_linear_227_3059" x1="340.5" y1="147" x2="340.5" y2="67.0002" gradientUnits="userSpaceOnUse">
<stop stop-color="#FF792E" stop-opacity="0"/>
<stop offset="1" stop-color="#FF792E"/>
</linearGradient>
</defs>
</svg>
