<svg width="345" height="284" viewBox="0 0 345 284" fill="none" xmlns="http://www.w3.org/2000/svg">
<g clip-path="url(#clip0_12_4550)">
<path opacity="0.75" d="M14.9854 76.6826L296.101 51.9136C304.377 51.1844 311.564 57.5453 311.846 65.8492L319.246 283.673L18.4125 283.673L1.79626 92.4008C1.10319 84.4227 7.00816 77.3854 14.9854 76.6826Z" fill="white" stroke="#EEEEEE"/>
<path opacity="0.75" d="M47.3539 51.8871L329.773 76.7709C337.75 77.4738 343.655 84.5111 342.962 92.4892L326.346 283.762L33.4985 283.762L31.6011 66.4418C31.5264 57.8873 38.8331 51.1363 47.3539 51.8871Z" fill="white" stroke="#EEEEEE"/>
<path d="M41 30.5H302C310.008 30.5 316.5 36.9919 316.5 45V283.5H26.5V45C26.5 36.9919 32.9919 30.5 41 30.5Z" fill="white" stroke="#EEEEEE"/>
<rect x="44" y="172" width="256" height="97" rx="14.8035" fill="#FC721A"/>
<rect x="44" y="172" width="256" height="97" rx="14.8035" fill="url(#paint0_linear_12_4550)" fill-opacity="0.2"/>
<rect x="44" y="172" width="256" height="97" rx="14.8035" stroke="#EEEEEE" stroke-width="1.23362"/>
<g opacity="0.5">
<rect x="44" y="115" width="231" height="12" rx="2" fill="#EEEEEE"/>
<rect x="44" y="132" width="73" height="9" rx="2" fill="#EEEEEE"/>
<rect width="88" height="9" rx="2" transform="matrix(-1 0 0 1 235 147)" fill="#EEEEEE"/>
<rect x="122" y="132" width="31" height="9" rx="2" fill="#EEEEEE"/>
<rect width="37" height="9" rx="2" transform="matrix(-1 0 0 1 141 147)" fill="#EEEEEE"/>
<rect x="158" y="132" width="45" height="9" rx="2" fill="#EEEEEE"/>
<rect width="54" height="9" rx="2" transform="matrix(-1 0 0 1 98 147)" fill="#EEEEEE"/>
</g>
<rect width="46" height="46" rx="18.6486" transform="matrix(-1 5.18986e-09 5.18986e-09 1 195 2)" fill="#FC721A"/>
<rect width="46" height="46" rx="18.6486" transform="matrix(-1 5.18986e-09 5.18986e-09 1 195 2)" fill="url(#paint1_linear_12_4550)" fill-opacity="0.2"/>
<rect width="46" height="46" rx="18.6486" transform="matrix(-1 5.18986e-09 5.18986e-09 1 195 2)" stroke="#FAFAFA" stroke-width="3.72973"/>
<path d="M166.584 28.25C164.789 28.25 163.334 29.705 163.334 31.5C163.334 33.2949 164.789 34.75 166.584 34.75C168.379 34.75 169.834 33.2949 169.834 31.5C169.834 29.705 168.379 28.25 166.584 28.25Z" stroke="white" stroke-width="1.5" stroke-linecap="round" stroke-linejoin="round"/>
<path d="M177.416 28.25C175.621 28.25 174.166 29.705 174.166 31.5C174.166 33.2949 175.621 34.75 177.416 34.75C179.211 34.75 180.666 33.2949 180.666 31.5C180.666 29.705 179.211 28.25 177.416 28.25Z" stroke="white" stroke-width="1.5" stroke-linecap="round" stroke-linejoin="round"/>
<path d="M174.167 30.4165H169.834" stroke="white" stroke-width="1.5" stroke-linecap="round" stroke-linejoin="round"/>
<path d="M182.833 26.0832C180.171 24.7534 176.304 23.9165 171.999 23.9165C167.695 23.9165 163.827 24.7534 161.166 26.0832" stroke="white" stroke-width="1.5" stroke-linecap="round" stroke-linejoin="round"/>
<path d="M179.583 24.4584L178.437 17.1052C178.203 15.6055 176.574 14.793 175.259 15.52L174.593 15.8882C172.976 16.782 171.022 16.782 169.406 15.8882L168.739 15.52C167.424 14.793 165.795 15.6056 165.562 17.1052L164.416 24.4584" stroke="white" stroke-width="1.5" stroke-linecap="round" stroke-linejoin="round"/>
<rect x="44.5" y="66.5" width="255" height="34" rx="17" fill="white" stroke="#EEEEEE"/>
<path d="M69.75 90.75L65.2501 86.25M66.75 82.5C66.75 85.3995 64.3995 87.75 61.5 87.75C58.6005 87.75 56.25 85.3995 56.25 82.5C56.25 79.6005 58.6005 77.25 61.5 77.25C64.3995 77.25 66.75 79.6005 66.75 82.5Z" stroke="#FC7723" stroke-width="1.5" stroke-linecap="round" stroke-linejoin="round"/>
<rect opacity="0.5" x="81" y="79" width="129" height="10" rx="2" fill="#EEEEEE"/>
<rect opacity="0.5" x="56" y="185" width="59" height="73" rx="8" fill="white"/>
<rect opacity="0.25" x="124" y="187" width="158" height="12" rx="2" fill="white"/>
<rect opacity="0.25" x="124" y="231" width="46" height="12" rx="2" fill="white"/>
<rect opacity="0.25" x="124" y="204" width="59" height="9" rx="2" fill="white"/>
<rect opacity="0.25" x="124" y="248" width="59" height="9" rx="2" fill="white"/>
<rect opacity="0.25" x="187" y="204" width="25" height="9" rx="2" fill="white"/>
<rect opacity="0.25" x="187" y="248" width="25" height="9" rx="2" fill="white"/>
<rect opacity="0.25" x="215" y="204" width="38" height="9" rx="2" fill="white"/>
<path opacity="0.5" d="M231.98 238.948C234.076 235.99 237.28 232.71 240.463 230.917C241.602 230.275 243.372 230.363 244.52 230.917C246.268 231.759 247.01 233.455 247.553 235.219C248.896 239.585 249.345 244.458 248.516 248.968C247.699 253.407 243.952 256.089 241.447 251.078C240.481 249.147 240.277 246.81 241.426 244.911C242.759 242.709 245.009 242.637 247.348 242.637C251.39 242.637 257.801 244.691 259.559 239.604C260.112 238.006 260.142 236.115 259.559 234.523C259.497 234.351 257.975 231.692 257.818 232.556C257.156 236.195 257.32 240.216 258.719 243.661C259.802 246.326 261.994 243.673 262.961 242.35C263.975 240.962 264.521 245.256 264.887 245.874C265.927 247.635 266.932 246.864 267.755 245.423C268.185 244.67 270.565 247.825 271.894 244.604C272.644 242.787 272.779 241.039 273.001 239.112C273.049 238.687 273.39 237.478 273.431 237.903C273.721 240.925 273.437 244.078 273.369 247.103C273.349 248.005 274.289 255.359 271.628 253.516C269.633 252.136 270.299 252.219 272.263 250.894C274.327 249.501 276.509 248.291 278.574 246.898C279.814 246.062 280.657 245.096 282.139 244.849" stroke="white" stroke-width="2.5" stroke-linecap="round"/>
</g>
<defs>
<linearGradient id="paint0_linear_12_4550" x1="172" y1="172" x2="172" y2="269" gradientUnits="userSpaceOnUse">
<stop stop-color="white" stop-opacity="0"/>
<stop offset="1" stop-color="white"/>
</linearGradient>
<linearGradient id="paint1_linear_12_4550" x1="23" y1="0" x2="23" y2="46" gradientUnits="userSpaceOnUse">
<stop stop-color="white" stop-opacity="0"/>
<stop offset="1" stop-color="white"/>
</linearGradient>
<clipPath id="clip0_12_4550">
<rect width="345" height="284" fill="white"/>
</clipPath>
</defs>
</svg>
