<svg width="344" height="284" viewBox="0 0 344 284" fill="none" xmlns="http://www.w3.org/2000/svg">
<g clip-path="url(#clip0_12_4546)">
<path opacity="0.75" d="M14.9854 76.6826L296.101 51.9136C304.377 51.1844 311.564 57.5453 311.846 65.8492L319.246 283.673L18.4125 283.673L1.79626 92.4008C1.10319 84.4227 7.00816 77.3854 14.9854 76.6826Z" fill="white" stroke="#EEEEEE"/>
<path opacity="0.75" d="M47.3539 51.8871L329.773 76.7709C337.75 77.4738 343.655 84.5111 342.962 92.4892L326.346 283.762L33.4985 283.762L31.6011 66.4418C31.5264 57.8873 38.8331 51.1363 47.3539 51.8871Z" fill="white" stroke="#EEEEEE"/>
<path d="M41.3809 30.5H302.381C310.389 30.5 316.881 36.9919 316.881 45V283.5H26.8809V45C26.8809 36.9919 33.3727 30.5 41.3809 30.5Z" fill="white" stroke="#EEEEEE"/>
<rect width="46" height="46" rx="18.6486" transform="matrix(-1 5.18986e-09 5.18986e-09 1 195.381 2)" fill="#FC721A"/>
<rect width="46" height="46" rx="18.6486" transform="matrix(-1 5.18986e-09 5.18986e-09 1 195.381 2)" fill="url(#paint0_linear_12_4546)" fill-opacity="0.2"/>
<rect width="46" height="46" rx="18.6486" transform="matrix(-1 5.18986e-09 5.18986e-09 1 195.381 2)" stroke="#FAFAFA" stroke-width="3.72973"/>
<path d="M168.406 28.975H175.624C180.084 28.975 180.762 26.1733 181.585 22.0869C181.822 20.9083 181.941 20.3189 181.655 19.9263C181.37 19.5337 180.823 19.5337 179.729 19.5337H166.418" stroke="white" stroke-width="1.49074" stroke-linecap="round"/>
<path d="M168.406 28.9751L165.8 16.5671C165.579 15.6823 164.784 15.0615 163.872 15.0615H162.939" stroke="white" stroke-width="1.49074" stroke-linecap="round"/>
<path d="M169.28 28.9756H168.871C167.516 28.9756 166.418 30.1198 166.418 31.5311C166.418 31.7664 166.601 31.9571 166.827 31.9571H177.847" stroke="white" stroke-width="1.49074" stroke-linecap="round" stroke-linejoin="round"/>
<path d="M170.89 34.9385C171.713 34.9385 172.381 34.2711 172.381 33.4478C172.381 32.6245 171.713 31.957 170.89 31.957C170.067 31.957 169.399 32.6245 169.399 33.4478C169.399 34.2711 170.067 34.9385 170.89 34.9385Z" stroke="white" stroke-width="1.49074"/>
<path d="M177.847 34.9385C178.67 34.9385 179.338 34.2711 179.338 33.4478C179.338 32.6245 178.67 31.957 177.847 31.957C177.024 31.957 176.356 32.6245 176.356 33.4478C176.356 34.2711 177.024 34.9385 177.847 34.9385Z" stroke="white" stroke-width="1.49074"/>
<rect x="16.3809" y="58.2725" width="312" height="74.0909" rx="14.1818" fill="#FC721A"/>
<rect x="16.3809" y="58.2725" width="312" height="74.0909" rx="14.1818" fill="url(#paint1_linear_12_4546)" fill-opacity="0.2"/>
<rect x="16.3809" y="58.2725" width="312" height="74.0909" rx="14.1818" stroke="#EEEEEE" stroke-width="1.18182"/>
<rect opacity="0.5" x="31.7441" y="75.6362" width="40.1818" height="40.1818" rx="14.1818" fill="white"/>
<rect opacity="0.25" x="81.3809" y="92.7725" width="140.784" height="10.6364" rx="1.77273" fill="white"/>
<rect opacity="0.25" x="81.3809" y="107.841" width="44.4902" height="7.97727" rx="1.77273" fill="white"/>
<rect opacity="0.5" x="81.3809" y="76.8179" width="60.9455" height="7.97727" rx="1.77273" fill="white"/>
<rect opacity="0.25" x="128.918" y="107.841" width="18.8931" height="7.97727" rx="1.77273" fill="white"/>
<rect opacity="0.25" x="150.858" y="107.841" width="27.4255" height="7.97727" rx="1.77273" fill="white"/>
<rect x="253.926" y="74.8179" width="59.0909" height="41" rx="11.8182" fill="white" fill-opacity="0.25"/>
<path d="M269.892 89.1717H266.353V84.6213H269.892V89.1717ZM269.892 107.605H266.353V102.809H269.892V107.605ZM267.842 105.187C267.031 105.187 266.271 105.132 265.56 105.023C264.859 104.923 264.216 104.791 263.633 104.627C263.059 104.453 262.554 104.276 262.117 104.094L261.748 100.158C262.467 100.495 263.319 100.81 264.303 101.101C265.287 101.383 266.33 101.525 267.432 101.525C268.498 101.525 269.254 101.393 269.7 101.128C270.156 100.855 270.384 100.431 270.384 99.8576V99.7619C270.384 99.3793 270.279 99.0696 270.069 98.8327C269.869 98.5867 269.527 98.3635 269.045 98.1631C268.571 97.9536 267.929 97.7304 267.118 97.4936C265.897 97.1292 264.877 96.7238 264.057 96.2774C263.246 95.831 262.64 95.2753 262.239 94.6103C261.839 93.9362 261.638 93.0844 261.638 92.055V91.8773C261.638 90.2922 262.176 89.0806 263.251 88.2425C264.335 87.4044 265.924 86.9853 268.02 86.9853C269.277 86.9853 270.361 87.0947 271.272 87.3133C272.192 87.5319 272.971 87.7916 273.609 88.0922L273.978 91.7543C273.276 91.4173 272.479 91.1349 271.586 90.9071C270.703 90.6703 269.755 90.5518 268.744 90.5518C268.033 90.5518 267.473 90.6111 267.063 90.7295C266.662 90.8479 266.38 91.021 266.216 91.2488C266.052 91.4674 265.97 91.7361 265.97 92.055V92.1096C265.97 92.4376 266.061 92.7245 266.243 92.9705C266.435 93.2165 266.772 93.4533 267.254 93.6811C267.746 93.9088 268.443 94.1548 269.345 94.419C270.557 94.7743 271.559 95.1569 272.351 95.5668C273.153 95.9677 273.75 96.4915 274.142 97.1383C274.542 97.776 274.743 98.6277 274.743 99.6936V99.9122C274.743 101.67 274.173 102.991 273.035 103.875C271.896 104.75 270.165 105.187 267.842 105.187ZM284.54 104.818V94.8153L284.704 90.2786H284.376L280.221 98.2041V99.8986L278.595 98.4364H290.552V101.907H276.095V97.9582L281.861 87.3543H288.598V104.818H284.54ZM297.991 86.999C300.323 86.999 302.086 87.623 303.279 88.8711C304.482 90.1191 305.083 91.9639 305.083 94.4053V97.6575C305.083 100.072 304.409 101.935 303.06 103.246C301.721 104.549 299.713 105.2 297.034 105.2C295.996 105.2 295.094 105.114 294.329 104.941C293.573 104.777 292.949 104.586 292.457 104.367L292.033 100.65C292.589 100.914 293.208 101.142 293.891 101.333C294.584 101.525 295.376 101.62 296.269 101.62C297.845 101.62 299.002 101.283 299.74 100.609C300.478 99.935 300.847 98.8919 300.847 97.4799V93.9954C300.847 92.8202 300.61 91.9502 300.136 91.3854C299.672 90.8115 298.938 90.5245 297.936 90.5245C297.062 90.5245 296.415 90.7432 295.996 91.1804C295.577 91.6086 295.367 92.1871 295.367 92.9159V93.2438C295.367 93.9908 295.568 94.5693 295.968 94.9792C296.378 95.3801 297.03 95.5805 297.922 95.5805C298.387 95.5805 298.811 95.5076 299.193 95.3618C299.585 95.207 299.927 94.9838 300.218 94.6923C300.519 94.4008 300.756 94.0546 300.929 93.6538L301.762 95.8128H300.71C300.555 96.4049 300.291 96.9242 299.918 97.3706C299.553 97.817 299.07 98.1631 298.469 98.4091C297.868 98.6551 297.125 98.778 296.242 98.778C294.593 98.778 293.34 98.318 292.484 97.3979C291.637 96.4687 291.213 95.1842 291.213 93.5444V92.8339C291.213 90.9846 291.787 89.5498 292.935 88.5295C294.092 87.5092 295.777 86.999 297.991 86.999Z" fill="white"/>
<rect x="40.3809" y="139.363" width="264" height="63" rx="12" fill="white"/>
<rect x="40.8809" y="139.863" width="263" height="62" rx="11.5" stroke="#EEEEEE" stroke-opacity="0.5"/>
<rect opacity="0.5" x="53.3809" y="154.363" width="34" height="34" rx="12" fill="#EEEEEE"/>
<rect opacity="0.25" x="95.3809" y="168.863" width="119.125" height="9" rx="1.5" fill="#EEEEEE"/>
<rect opacity="0.25" x="95.3809" y="181.613" width="37.6456" height="6.75" rx="1.5" fill="#EEEEEE"/>
<rect opacity="0.5" x="95.3809" y="155.363" width="51.5693" height="6.75" rx="1.5" fill="#EEEEEE"/>
<rect opacity="0.25" x="135.605" y="181.613" width="15.9865" height="6.75" rx="1.5" fill="#EEEEEE"/>
<rect opacity="0.25" x="154.17" y="181.613" width="23.2062" height="6.75" rx="1.5" fill="#EEEEEE"/>
<path d="M263.047 165.124H260.052V161.274H263.047V165.124ZM263.047 180.722H260.052V176.664H263.047V180.722ZM261.312 178.675C260.626 178.675 259.983 178.629 259.381 178.537C258.788 178.452 258.245 178.34 257.751 178.201C257.266 178.055 256.838 177.905 256.468 177.75L256.156 174.42C256.765 174.706 257.485 174.972 258.318 175.218C259.15 175.457 260.033 175.577 260.966 175.577C261.867 175.577 262.507 175.465 262.885 175.241C263.27 175.01 263.463 174.652 263.463 174.166V174.085C263.463 173.761 263.374 173.499 263.197 173.299C263.028 173.091 262.738 172.902 262.33 172.732C261.929 172.555 261.386 172.366 260.7 172.166C259.667 171.857 258.803 171.514 258.11 171.137C257.424 170.759 256.911 170.289 256.572 169.726C256.233 169.156 256.063 168.435 256.063 167.564V167.414C256.063 166.072 256.518 165.047 257.427 164.338C258.345 163.629 259.69 163.274 261.463 163.274C262.526 163.274 263.444 163.367 264.215 163.552C264.993 163.737 265.652 163.956 266.192 164.211L266.504 167.31C265.91 167.024 265.236 166.785 264.481 166.593C263.733 166.392 262.931 166.292 262.076 166.292C261.474 166.292 261 166.342 260.653 166.442C260.314 166.543 260.075 166.689 259.936 166.882C259.798 167.067 259.728 167.294 259.728 167.564V167.61C259.728 167.888 259.805 168.13 259.96 168.339C260.121 168.547 260.407 168.747 260.815 168.94C261.231 169.133 261.821 169.341 262.584 169.564C263.61 169.865 264.457 170.189 265.128 170.535C265.806 170.875 266.311 171.318 266.643 171.865C266.982 172.405 267.151 173.125 267.151 174.027V174.212C267.151 175.7 266.67 176.818 265.706 177.565C264.743 178.305 263.278 178.675 261.312 178.675ZM269.106 178.363L274.17 166.616H267.73V163.586H277.951V166.697L273.002 178.363H269.106ZM284.188 178.675C283.194 178.675 282.307 178.583 281.529 178.398C280.758 178.213 280.153 178.02 279.713 177.82L279.401 174.594C279.756 174.756 280.164 174.914 280.627 175.068C281.097 175.222 281.606 175.349 282.153 175.45C282.7 175.542 283.267 175.588 283.853 175.588C284.585 175.588 285.159 175.507 285.576 175.345C285.992 175.184 286.285 174.952 286.454 174.652C286.624 174.343 286.709 173.973 286.709 173.542V173.218C286.709 172.64 286.566 172.2 286.281 171.9C285.996 171.592 285.533 171.437 284.893 171.437C284.323 171.437 283.849 171.565 283.471 171.819C283.094 172.066 282.789 172.378 282.558 172.755L279.471 172.281V163.586H289.692V166.57H282.812V168.894L282.777 170.79H282.893C283.14 170.15 283.537 169.637 284.084 169.252C284.631 168.867 285.402 168.674 286.397 168.674C287.707 168.674 288.671 169.067 289.287 169.853C289.904 170.632 290.212 171.723 290.212 173.125V173.611C290.212 174.644 290.019 175.542 289.634 176.305C289.249 177.061 288.617 177.646 287.738 178.063C286.859 178.471 285.676 178.675 284.188 178.675Z" fill="#DFDFDF"/>
<rect x="40.3809" y="209.363" width="264" height="63" rx="12" fill="white"/>
<rect x="40.8809" y="209.863" width="263" height="62" rx="11.5" stroke="#EEEEEE" stroke-opacity="0.5"/>
<rect opacity="0.5" x="53.3809" y="224.363" width="34" height="34" rx="12" fill="#EEEEEE"/>
<rect opacity="0.25" x="95.3809" y="238.863" width="119.125" height="9" rx="1.5" fill="#EEEEEE"/>
<rect opacity="0.25" x="95.3809" y="251.613" width="37.6456" height="6.75" rx="1.5" fill="#EEEEEE"/>
<rect opacity="0.5" x="95.3809" y="225.363" width="51.5693" height="6.75" rx="1.5" fill="#EEEEEE"/>
<rect opacity="0.25" x="135.605" y="251.613" width="15.9865" height="6.75" rx="1.5" fill="#EEEEEE"/>
<rect opacity="0.25" x="154.17" y="251.613" width="23.2062" height="6.75" rx="1.5" fill="#EEEEEE"/>
<path d="M260.047 235.124H257.052V231.274H260.047V235.124ZM260.047 250.722H257.052V246.664H260.047V250.722ZM258.312 248.675C257.626 248.675 256.983 248.629 256.381 248.537C255.788 248.452 255.245 248.34 254.751 248.201C254.266 248.055 253.838 247.905 253.468 247.75L253.156 244.42C253.765 244.706 254.485 244.972 255.318 245.218C256.15 245.457 257.033 245.577 257.966 245.577C258.867 245.577 259.507 245.465 259.885 245.241C260.27 245.01 260.463 244.652 260.463 244.166V244.085C260.463 243.761 260.374 243.499 260.197 243.299C260.028 243.091 259.738 242.902 259.33 242.732C258.929 242.555 258.386 242.366 257.7 242.166C256.667 241.857 255.803 241.514 255.11 241.137C254.424 240.759 253.911 240.289 253.572 239.726C253.233 239.156 253.063 238.435 253.063 237.564V237.414C253.063 236.072 253.518 235.047 254.427 234.338C255.345 233.629 256.69 233.274 258.463 233.274C259.526 233.274 260.444 233.367 261.215 233.552C261.993 233.737 262.652 233.956 263.192 234.211L263.504 237.31C262.91 237.024 262.236 236.785 261.481 236.593C260.733 236.392 259.931 236.292 259.076 236.292C258.474 236.292 258 236.342 257.653 236.442C257.314 236.543 257.075 236.689 256.936 236.882C256.798 237.067 256.728 237.294 256.728 237.564V237.61C256.728 237.888 256.805 238.13 256.96 238.339C257.121 238.547 257.407 238.747 257.815 238.94C258.231 239.133 258.821 239.341 259.584 239.564C260.61 239.865 261.457 240.189 262.128 240.535C262.806 240.875 263.311 241.318 263.643 241.865C263.982 242.405 264.151 243.125 264.151 244.027V244.212C264.151 245.7 263.67 246.818 262.706 247.565C261.743 248.305 260.278 248.675 258.312 248.675ZM271.413 248.745C270.303 248.745 269.366 248.645 268.603 248.444C267.84 248.244 267.223 247.959 266.753 247.589C266.29 247.211 265.951 246.764 265.735 246.247C265.527 245.723 265.423 245.145 265.423 244.513V244.235C265.423 243.565 265.535 242.991 265.758 242.513C265.982 242.027 266.313 241.634 266.753 241.333C267.192 241.033 267.732 240.817 268.372 240.686V240.559C267.763 240.451 267.25 240.266 266.834 240.004C266.425 239.734 266.113 239.387 265.897 238.963C265.689 238.531 265.585 238.019 265.585 237.425V237.148C265.585 235.945 266.048 234.997 266.973 234.303C267.905 233.602 269.385 233.251 271.413 233.251C273.463 233.251 274.951 233.602 275.876 234.303C276.808 234.997 277.275 235.945 277.275 237.148V237.425C277.275 238.026 277.167 238.543 276.951 238.975C276.735 239.398 276.419 239.742 276.003 240.004C275.587 240.266 275.07 240.451 274.453 240.559V240.686C275.109 240.825 275.656 241.044 276.095 241.345C276.535 241.645 276.866 242.035 277.09 242.513C277.313 242.983 277.425 243.557 277.425 244.235V244.513C277.425 245.122 277.329 245.685 277.136 246.201C276.943 246.71 276.62 247.157 276.165 247.542C275.71 247.92 275.093 248.213 274.315 248.421C273.536 248.637 272.569 248.745 271.413 248.745ZM271.459 245.9C272.353 245.9 272.973 245.742 273.32 245.426C273.675 245.103 273.852 244.679 273.852 244.155V244.039C273.852 243.492 273.656 243.064 273.263 242.755C272.869 242.447 272.226 242.224 271.332 242.085C270.499 242.224 269.902 242.459 269.539 242.79C269.185 243.114 269.008 243.53 269.008 244.039V244.155C269.008 244.686 269.189 245.11 269.551 245.426C269.921 245.742 270.557 245.9 271.459 245.9ZM271.517 239.564C272.241 239.479 272.8 239.279 273.193 238.963C273.586 238.647 273.783 238.227 273.783 237.703V237.61C273.783 237.109 273.598 236.712 273.228 236.419C272.866 236.126 272.26 235.98 271.413 235.98C270.588 235.98 269.99 236.126 269.62 236.419C269.258 236.704 269.077 237.094 269.077 237.587V237.691C269.077 238.038 269.162 238.342 269.331 238.605C269.509 238.859 269.775 239.067 270.129 239.229C270.491 239.391 270.954 239.503 271.517 239.564ZM283.808 248.675C282.813 248.675 281.927 248.583 281.148 248.398C280.378 248.213 279.772 248.02 279.333 247.82L279.021 244.594C279.375 244.756 279.784 244.914 280.246 245.068C280.717 245.222 281.225 245.349 281.773 245.45C282.32 245.542 282.887 245.588 283.472 245.588C284.205 245.588 284.779 245.507 285.195 245.345C285.611 245.184 285.904 244.952 286.074 244.652C286.244 244.343 286.328 243.973 286.328 243.542V243.218C286.328 242.64 286.186 242.2 285.901 241.9C285.615 241.592 285.153 241.437 284.513 241.437C283.943 241.437 283.469 241.565 283.091 241.819C282.713 242.066 282.409 242.378 282.177 242.755L279.09 242.281V233.586H289.311V236.57H282.432V238.894L282.397 240.79H282.513C282.759 240.15 283.156 239.637 283.704 239.252C284.251 238.867 285.022 238.674 286.016 238.674C287.327 238.674 288.29 239.067 288.907 239.853C289.523 240.632 289.832 241.723 289.832 243.125V243.611C289.832 244.644 289.639 245.542 289.254 246.305C288.868 247.061 288.236 247.646 287.357 248.063C286.479 248.471 285.295 248.675 283.808 248.675Z" fill="#DFDFDF"/>
</g>
<defs>
<linearGradient id="paint0_linear_12_4546" x1="23" y1="0" x2="23" y2="46" gradientUnits="userSpaceOnUse">
<stop stop-color="white" stop-opacity="0"/>
<stop offset="1" stop-color="white"/>
</linearGradient>
<linearGradient id="paint1_linear_12_4546" x1="172.381" y1="58.2725" x2="172.381" y2="132.363" gradientUnits="userSpaceOnUse">
<stop stop-color="white" stop-opacity="0"/>
<stop offset="1" stop-color="white"/>
</linearGradient>
<clipPath id="clip0_12_4546">
<rect width="344" height="284" fill="white"/>
</clipPath>
</defs>
</svg>
