<svg width="429" height="290" viewBox="0 0 429 290" fill="none" xmlns="http://www.w3.org/2000/svg">
<mask id="mask0_12_4548" style="mask-type:alpha" maskUnits="userSpaceOnUse" x="0" y="8" width="429" height="282">
<rect y="8.68359" width="429" height="281" fill="#D9D9D9"/>
</mask>
<g mask="url(#mask0_12_4548)">
<rect x="32.5" y="27.1836" width="364" height="85" rx="14.5" fill="white" stroke="#EEEEEE"/>
<rect x="24" y="117.799" width="381" height="89.7699" rx="14.8035" fill="#FC721A"/>
<rect x="24" y="117.799" width="381" height="89.7699" rx="14.8035" fill="url(#paint0_linear_12_4548)" fill-opacity="0.2"/>
<rect x="24" y="117.799" width="381" height="89.7699" rx="14.8035" stroke="#EEEEEE" stroke-width="1.23362"/>
<rect x="313.143" y="133.456" width="73.0685" height="58.4548" rx="10.4384" fill="white" fill-opacity="0.1"/>
<rect x="313.664" y="133.978" width="72.0247" height="57.411" rx="9.91644" stroke="#EEEEEE" stroke-opacity="0.1" stroke-width="1.04384"/>
<g filter="url(#filter0_d_12_4548)">
<g clip-path="url(#clip0_12_4548)">
<g clip-path="url(#clip1_12_4548)">
<rect width="43.8411" height="32.8808" transform="translate(327.756 146.243)" fill="white"/>
<path fill-rule="evenodd" clip-rule="evenodd" d="M327.756 146.243H371.597V179.124H327.756V146.243Z" fill="#F7FCFF"/>
<path fill-rule="evenodd" clip-rule="evenodd" d="M327.756 166.337V169.077H371.597V166.337H327.756Z" fill="#E31D1C"/>
<path fill-rule="evenodd" clip-rule="evenodd" d="M327.756 171.361V174.101H371.597V171.361H327.756Z" fill="#E31D1C"/>
<path fill-rule="evenodd" clip-rule="evenodd" d="M327.756 156.291V159.031H371.597V156.291H327.756Z" fill="#E31D1C"/>
<path fill-rule="evenodd" clip-rule="evenodd" d="M327.756 176.384V179.124H371.597V176.384H327.756Z" fill="#E31D1C"/>
<path fill-rule="evenodd" clip-rule="evenodd" d="M327.756 161.313V164.054H371.597V161.313H327.756Z" fill="#E31D1C"/>
<path fill-rule="evenodd" clip-rule="evenodd" d="M327.756 146.243V148.983H371.597V146.243H327.756Z" fill="#E31D1C"/>
<path fill-rule="evenodd" clip-rule="evenodd" d="M327.756 151.267V154.007H371.597V151.267H327.756Z" fill="#E31D1C"/>
<rect x="327.756" y="146.243" width="27.4007" height="17.8104" fill="#2E42A5"/>
<path fill-rule="evenodd" clip-rule="evenodd" d="M330.115 150.269L329.121 150.966L329.457 149.726L328.573 148.939H329.727L330.114 147.927L330.568 148.939H331.551L330.778 149.726L331.077 150.966L330.115 150.269ZM335.595 150.269L334.601 150.966L334.937 149.726L334.053 148.939H335.207L335.594 147.927L336.048 148.939H337.031L336.259 149.726L336.558 150.966L335.595 150.269ZM340.081 150.966L341.076 150.269L342.038 150.966L341.739 149.726L342.511 148.939H341.528L341.074 147.927L340.687 148.939H339.534L340.417 149.726L340.081 150.966ZM346.556 150.269L345.561 150.966L345.897 149.726L345.014 148.939H346.167L346.554 147.927L347.008 148.939H347.992L347.219 149.726L347.518 150.966L346.556 150.269ZM329.121 156.447L330.115 155.749L331.078 156.447L330.778 155.206L331.551 154.42H330.568L330.114 153.407L329.727 154.42H328.573L329.457 155.206L329.121 156.447ZM335.595 155.749L334.601 156.447L334.937 155.206L334.053 154.42H335.207L335.594 153.407L336.048 154.42H337.031L336.259 155.206L336.558 156.447L335.595 155.749ZM340.081 156.447L341.076 155.749L342.038 156.447L341.739 155.206L342.511 154.42H341.528L341.074 153.407L340.687 154.42H339.534L340.417 155.206L340.081 156.447ZM346.556 155.749L345.561 156.447L345.897 155.206L345.014 154.42H346.167L346.554 153.407L347.008 154.42H347.992L347.219 155.206L347.518 156.447L346.556 155.749ZM329.121 161.927L330.115 161.23L331.078 161.927L330.778 160.686L331.551 159.9H330.568L330.114 158.887L329.727 159.9H328.573L329.457 160.686L329.121 161.927ZM335.595 161.23L334.601 161.927L334.937 160.686L334.053 159.9H335.207L335.594 158.887L336.048 159.9H337.031L336.259 160.686L336.558 161.927L335.595 161.23ZM340.081 161.927L341.076 161.23L342.038 161.927L341.739 160.686L342.511 159.9H341.528L341.074 158.887L340.687 159.9H339.534L340.417 160.686L340.081 161.927ZM346.556 161.23L345.561 161.927L345.897 160.686L345.014 159.9H346.167L346.554 158.887L347.008 159.9H347.992L347.219 160.686L347.518 161.927L346.556 161.23ZM351.041 150.966L352.036 150.269L352.998 150.966L352.699 149.726L353.472 148.939H352.488L352.035 147.927L351.648 148.939H350.494L351.377 149.726L351.041 150.966ZM352.036 155.749L351.041 156.447L351.377 155.206L350.494 154.42H351.648L352.035 153.407L352.488 154.42H353.472L352.699 155.206L352.998 156.447L352.036 155.749ZM351.041 161.927L352.036 161.23L352.998 161.927L352.699 160.686L353.472 159.9H352.488L352.035 158.887L351.648 159.9H350.494L351.377 160.686L351.041 161.927ZM332.855 153.009L331.861 153.707L332.197 152.466L331.313 151.68H332.467L332.854 150.667L333.308 151.68H334.291L333.518 152.466L333.818 153.707L332.855 153.009ZM337.341 153.707L338.336 153.009L339.298 153.707L338.999 152.466L339.771 151.68H338.788L338.334 150.667L337.947 151.68H336.794L337.677 152.466L337.341 153.707ZM343.816 153.009L342.821 153.707L343.157 152.466L342.274 151.68H343.427L343.814 150.667L344.268 151.68H345.252L344.479 152.466L344.778 153.707L343.816 153.009ZM331.861 159.187L332.855 158.489L333.818 159.187L333.518 157.946L334.291 157.16H333.308L332.854 156.147L332.467 157.16H331.313L332.197 157.946L331.861 159.187ZM338.336 158.489L337.341 159.187L337.677 157.946L336.794 157.16H337.947L338.334 156.147L338.788 157.16H339.771L338.999 157.946L339.298 159.187L338.336 158.489ZM342.821 159.187L343.816 158.489L344.778 159.187L344.479 157.946L345.252 157.16H344.268L343.814 156.147L343.427 157.16H342.274L343.157 157.946L342.821 159.187ZM349.296 153.009L348.301 153.707L348.637 152.466L347.754 151.68H348.907L349.294 150.667L349.748 151.68H350.732L349.959 152.466L350.258 153.707L349.296 153.009ZM348.301 159.187L349.296 158.489L350.258 159.187L349.959 157.946L350.732 157.16H349.748L349.294 156.147L348.907 157.16H347.754L348.637 157.946L348.301 159.187Z" fill="#F7FCFF"/>
</g>
<rect x="327.756" y="146.243" width="43.8411" height="32.8808" fill="url(#paint1_linear_12_4548)" style="mix-blend-mode:overlay"/>
</g>
<rect x="328.441" y="146.928" width="42.4711" height="31.5108" rx="2.05505" stroke="black" stroke-opacity="0.1" stroke-width="1.37003" style="mix-blend-mode:multiply"/>
</g>
<rect x="32.5" y="213.184" width="364" height="85" rx="14.5" fill="white" stroke="#EEEEEE"/>
<rect opacity="0.5" x="46" y="44.6836" width="50.4329" height="50.4329" rx="12" fill="#EEEEEE"/>
<rect opacity="0.5" x="108.299" y="66.1924" width="176.701" height="13.3499" rx="2.22498" fill="#EEEEEE"/>
<rect opacity="0.5" x="108.299" y="85.104" width="55.8404" height="10.0124" rx="2.22498" fill="#EEEEEE"/>
<rect opacity="0.5" x="108.299" y="46.167" width="76.4938" height="10.0124" rx="2.22498" fill="#EEEEEE"/>
<rect opacity="0.5" x="167.964" y="85.104" width="23.7131" height="10.0124" rx="2.22498" fill="#EEEEEE"/>
<rect opacity="0.5" x="195.501" y="85.104" width="34.4222" height="10.0124" rx="2.22498" fill="#EEEEEE"/>
<rect opacity="0.5" x="38.6133" y="136.588" width="52.6437" height="52.6437" rx="12.526" fill="#EEEEEE"/>
<rect opacity="0.5" x="103.644" y="159.04" width="184.446" height="13.9351" rx="2.32251" fill="#EEEEEE"/>
<rect opacity="0.5" x="103.644" y="178.78" width="58.2882" height="10.4513" rx="2.32251" fill="#EEEEEE"/>
<rect opacity="0.5" x="103.644" y="138.137" width="79.8469" height="10.4513" rx="2.32251" fill="#EEEEEE"/>
<rect opacity="0.5" x="165.924" y="178.78" width="24.7525" height="10.4513" rx="2.32251" fill="#EEEEEE"/>
<rect opacity="0.5" x="194.669" y="178.78" width="35.9311" height="10.4513" rx="2.32251" fill="#EEEEEE"/>
<rect opacity="0.5" x="46" y="230.684" width="50.4329" height="50.4329" rx="12" fill="#EEEEEE"/>
<rect opacity="0.5" x="108.299" y="252.192" width="176.701" height="13.3499" rx="2.22498" fill="#EEEEEE"/>
<rect opacity="0.5" x="108.299" y="271.104" width="55.8404" height="10.0124" rx="2.22498" fill="#EEEEEE"/>
<rect opacity="0.5" x="108.299" y="232.167" width="76.4938" height="10.0124" rx="2.22498" fill="#EEEEEE"/>
<rect opacity="0.5" x="167.964" y="271.104" width="23.7131" height="10.0124" rx="2.22498" fill="#EEEEEE"/>
<rect opacity="0.5" x="195.501" y="271.104" width="34.4222" height="10.0124" rx="2.22498" fill="#EEEEEE"/>
</g>
<rect x="309.5" y="228.184" width="69" height="55" rx="9.5" fill="white"/>
<rect x="309.5" y="228.184" width="69" height="55" rx="9.5" stroke="#EEEEEE"/>
<g filter="url(#filter1_d_12_4548)">
<g clip-path="url(#clip2_12_4548)">
<g clip-path="url(#clip3_12_4548)">
<rect width="42.6667" height="32" transform="translate(322.667 239.684)" fill="white"/>
<path fill-rule="evenodd" clip-rule="evenodd" d="M322.667 261.017H365.334V271.684H322.667V261.017Z" fill="#FFD018"/>
<path fill-rule="evenodd" clip-rule="evenodd" d="M322.667 250.35H365.334V261.017H322.667V250.35Z" fill="#E31D1C"/>
<path fill-rule="evenodd" clip-rule="evenodd" d="M322.667 239.684H365.334V250.35H322.667V239.684Z" fill="#272727"/>
</g>
<rect x="322.667" y="239.684" width="42.6667" height="32" fill="url(#paint2_linear_12_4548)" style="mix-blend-mode:overlay"/>
</g>
<rect x="323.334" y="240.35" width="41.3333" height="30.6667" rx="2" stroke="black" stroke-opacity="0.1" stroke-width="1.33333" style="mix-blend-mode:multiply"/>
</g>
<rect x="309.5" y="42.1836" width="69" height="55" rx="9.5" fill="white"/>
<rect x="309.5" y="42.1836" width="69" height="55" rx="9.5" stroke="#EEEEEE"/>
<g filter="url(#filter2_d_12_4548)">
<g clip-path="url(#clip4_12_4548)">
<g clip-path="url(#clip5_12_4548)">
<rect width="42" height="31.5" transform="translate(323 53.9336)" fill="white"/>
<path fill-rule="evenodd" clip-rule="evenodd" d="M323 53.9336V85.4336H365V53.9336H323Z" fill="#F7FCFF"/>
<mask id="mask1_12_4548" style="mask-type:luminance" maskUnits="userSpaceOnUse" x="323" y="53" width="42" height="33">
<path fill-rule="evenodd" clip-rule="evenodd" d="M323 53.9336V85.4336H365V53.9336H323Z" fill="white"/>
</mask>
<g mask="url(#mask1_12_4548)">
<path fill-rule="evenodd" clip-rule="evenodd" d="M323 53.9336V64.4336H365V53.9336H323Z" fill="#E31D1C"/>
<path fill-rule="evenodd" clip-rule="evenodd" d="M323 74.9336V85.4336H365V74.9336H323Z" fill="#3D58DB"/>
</g>
</g>
<rect x="323" y="53.9336" width="42" height="31.5" fill="url(#paint3_linear_12_4548)" style="mix-blend-mode:overlay"/>
</g>
<rect x="323.656" y="54.5898" width="40.6875" height="30.1875" rx="1.96875" stroke="black" stroke-opacity="0.1" stroke-width="1.3125" style="mix-blend-mode:multiply"/>
</g>
<rect x="192" y="5" width="46" height="46" rx="18.9262" fill="#FC721A"/>
<rect x="192" y="5" width="46" height="46" rx="18.9262" fill="url(#paint4_linear_12_4548)" fill-opacity="0.2"/>
<rect x="192" y="5" width="46" height="46" rx="18.9262" stroke="#FAFAFA" stroke-width="3.78524"/>
<path d="M215.763 32.9112H222.387M215.763 32.9112L213.997 36.6046M215.763 32.9112L218.409 27.3795C218.622 26.9338 218.728 26.7109 218.874 26.6404C219.001 26.5792 219.149 26.5792 219.276 26.6404C219.422 26.7109 219.528 26.9338 219.741 27.3795L222.387 32.9112M222.387 32.9112L224.153 36.6046M205.687 21.8311H211.227M211.227 21.8311H214.458M211.227 21.8311V19.9844M214.458 21.8311H216.767M214.458 21.8311C214 24.5617 212.937 27.0352 211.379 29.1111M211.379 29.1111C211.931 29.5337 212.508 29.8871 213.073 30.1412M211.379 29.1111C210.131 28.154 209.013 26.8417 208.457 25.5245M211.379 29.1111C209.898 31.0857 207.969 32.7005 205.687 33.8346" stroke="white" stroke-width="1.84669" stroke-linecap="round" stroke-linejoin="round"/>
<defs>
<filter id="filter0_d_12_4548" x="323.646" y="144.873" width="52.061" height="41.1011" filterUnits="userSpaceOnUse" color-interpolation-filters="sRGB">
<feFlood flood-opacity="0" result="BackgroundImageFix"/>
<feColorMatrix in="SourceAlpha" type="matrix" values="0 0 0 0 0 0 0 0 0 0 0 0 0 0 0 0 0 0 127 0" result="hardAlpha"/>
<feOffset dy="2.74007"/>
<feGaussianBlur stdDeviation="2.05505"/>
<feColorMatrix type="matrix" values="0 0 0 0 0 0 0 0 0 0 0 0 0 0 0 0 0 0 0.1 0"/>
<feBlend mode="normal" in2="BackgroundImageFix" result="effect1_dropShadow_12_4548"/>
<feBlend mode="normal" in="SourceGraphic" in2="effect1_dropShadow_12_4548" result="shape"/>
</filter>
<filter id="filter1_d_12_4548" x="318.667" y="238.35" width="50.667" height="40" filterUnits="userSpaceOnUse" color-interpolation-filters="sRGB">
<feFlood flood-opacity="0" result="BackgroundImageFix"/>
<feColorMatrix in="SourceAlpha" type="matrix" values="0 0 0 0 0 0 0 0 0 0 0 0 0 0 0 0 0 0 127 0" result="hardAlpha"/>
<feOffset dy="2.66667"/>
<feGaussianBlur stdDeviation="2"/>
<feColorMatrix type="matrix" values="0 0 0 0 0 0 0 0 0 0 0 0 0 0 0 0 0 0 0.1 0"/>
<feBlend mode="normal" in2="BackgroundImageFix" result="effect1_dropShadow_12_4548"/>
<feBlend mode="normal" in="SourceGraphic" in2="effect1_dropShadow_12_4548" result="shape"/>
</filter>
<filter id="filter2_d_12_4548" x="319.062" y="52.6211" width="49.875" height="39.375" filterUnits="userSpaceOnUse" color-interpolation-filters="sRGB">
<feFlood flood-opacity="0" result="BackgroundImageFix"/>
<feColorMatrix in="SourceAlpha" type="matrix" values="0 0 0 0 0 0 0 0 0 0 0 0 0 0 0 0 0 0 127 0" result="hardAlpha"/>
<feOffset dy="2.625"/>
<feGaussianBlur stdDeviation="1.96875"/>
<feColorMatrix type="matrix" values="0 0 0 0 0 0 0 0 0 0 0 0 0 0 0 0 0 0 0.1 0"/>
<feBlend mode="normal" in2="BackgroundImageFix" result="effect1_dropShadow_12_4548"/>
<feBlend mode="normal" in="SourceGraphic" in2="effect1_dropShadow_12_4548" result="shape"/>
</filter>
<linearGradient id="paint0_linear_12_4548" x1="214.5" y1="117.799" x2="214.5" y2="207.569" gradientUnits="userSpaceOnUse">
<stop stop-color="white" stop-opacity="0"/>
<stop offset="1" stop-color="white"/>
</linearGradient>
<linearGradient id="paint1_linear_12_4548" x1="371.597" y1="146.243" x2="327.756" y2="179.124" gradientUnits="userSpaceOnUse">
<stop stop-color="white" stop-opacity="0.3"/>
<stop offset="0.262741" stop-opacity="0.27"/>
<stop offset="0.369956" stop-color="white" stop-opacity="0.26"/>
<stop offset="0.487001" stop-opacity="0.55"/>
<stop offset="0.594445" stop-opacity="0.24"/>
<stop offset="0.736408" stop-color="white" stop-opacity="0.3"/>
<stop offset="0.901459" stop-color="#272727" stop-opacity="0.22"/>
<stop offset="1" stop-opacity="0.2"/>
</linearGradient>
<linearGradient id="paint2_linear_12_4548" x1="365.334" y1="239.684" x2="322.667" y2="271.684" gradientUnits="userSpaceOnUse">
<stop stop-color="white" stop-opacity="0.3"/>
<stop offset="0.262741" stop-opacity="0.27"/>
<stop offset="0.369956" stop-color="white" stop-opacity="0.26"/>
<stop offset="0.487001" stop-opacity="0.55"/>
<stop offset="0.594445" stop-opacity="0.24"/>
<stop offset="0.736408" stop-color="white" stop-opacity="0.3"/>
<stop offset="0.901459" stop-color="#272727" stop-opacity="0.22"/>
<stop offset="1" stop-opacity="0.2"/>
</linearGradient>
<linearGradient id="paint3_linear_12_4548" x1="365" y1="53.9336" x2="323" y2="85.4336" gradientUnits="userSpaceOnUse">
<stop stop-color="white" stop-opacity="0.3"/>
<stop offset="0.262741" stop-opacity="0.27"/>
<stop offset="0.369956" stop-color="white" stop-opacity="0.26"/>
<stop offset="0.487001" stop-opacity="0.55"/>
<stop offset="0.594445" stop-opacity="0.24"/>
<stop offset="0.736408" stop-color="white" stop-opacity="0.3"/>
<stop offset="0.901459" stop-color="#272727" stop-opacity="0.22"/>
<stop offset="1" stop-opacity="0.2"/>
</linearGradient>
<linearGradient id="paint4_linear_12_4548" x1="215" y1="5" x2="215" y2="51" gradientUnits="userSpaceOnUse">
<stop stop-color="white" stop-opacity="0"/>
<stop offset="1" stop-color="white"/>
</linearGradient>
<clipPath id="clip0_12_4548">
<rect x="327.756" y="146.243" width="43.8411" height="32.8808" rx="2.74007" fill="white"/>
</clipPath>
<clipPath id="clip1_12_4548">
<rect width="43.8411" height="32.8808" fill="white" transform="translate(327.756 146.243)"/>
</clipPath>
<clipPath id="clip2_12_4548">
<rect x="322.667" y="239.684" width="42.6667" height="32" rx="2.66667" fill="white"/>
</clipPath>
<clipPath id="clip3_12_4548">
<rect width="42.6667" height="32" fill="white" transform="translate(322.667 239.684)"/>
</clipPath>
<clipPath id="clip4_12_4548">
<rect x="323" y="53.9336" width="42" height="31.5" rx="2.625" fill="white"/>
</clipPath>
<clipPath id="clip5_12_4548">
<rect width="42" height="31.5" fill="white" transform="translate(323 53.9336)"/>
</clipPath>
</defs>
</svg>
