<svg width="589" height="500" viewBox="0 0 589 500" fill="none" xmlns="http://www.w3.org/2000/svg">
<rect width="589" height="500" fill="#FC721A"/>
<mask id="mask0_360_73580" style="mask-type:alpha" maskUnits="userSpaceOnUse" x="0" y="0" width="589" height="500">
<rect x="0.5" y="0.5" width="588" height="499" rx="9.5" fill="#00C655" stroke="#EEEEEE"/>
</mask>
<g mask="url(#mask0_360_73580)">
<circle opacity="0.25" cx="295" cy="17.9648" r="185.5" fill="white" fill-opacity="0.25" stroke="white"/>
<circle opacity="0.25" cx="295" cy="17.9648" r="276.5" fill="white" fill-opacity="0.25" stroke="white"/>
<circle opacity="0.25" cx="295" cy="17.9648" r="369.5" fill="white" fill-opacity="0.25" stroke="white"/>
<circle opacity="0.25" cx="295" cy="7.96484" r="461.5" fill="white" fill-opacity="0.25" stroke="white"/>
</g>
<circle cx="120" cy="75" r="30.25" fill="white" stroke="#EEEEEE" stroke-width="1.5"/>
<circle cx="547" cy="129" r="30.25" fill="white" stroke="#EEEEEE" stroke-width="1.5"/>
<circle cx="492" cy="427" r="30.25" fill="white" stroke="#EEEEEE" stroke-width="1.5"/>
<circle cx="58" cy="404" r="30.25" fill="white" stroke="#EEEEEE" stroke-width="1.5"/>
<path d="M126.254 63.1945L123.127 62.5C122.502 63.75 121.251 64.375 120 64.375C118.749 64.375 117.498 63.75 116.873 62.5L113.746 63.1945M126.254 63.1945L126.793 63.3142C128.052 63.5939 129.185 64.3414 129.641 65.5473C130.469 67.735 131.148 71.2299 131.245 76.2489C131.257 76.8331 131.262 77.1252 131.078 77.3126C130.894 77.5 130.598 77.5 130.006 77.5H127.457M126.254 63.1945C126.254 66.082 126.523 71.0883 127.457 77.5M113.746 63.1945L113.207 63.3142C111.947 63.5939 110.815 64.3414 110.359 65.5473C109.531 67.735 108.852 71.2299 108.755 76.2489C108.743 76.8331 108.738 77.1252 108.922 77.3126C109.105 77.5 109.402 77.5 109.994 77.5H112.543M113.746 63.1945C113.746 66.082 113.477 71.0883 112.543 77.5M127.457 77.5C127.637 78.7349 127.992 80.7721 128.285 82.4119C128.507 83.6495 128.617 84.2682 128.198 85.0389C127.778 85.8095 127.355 85.9874 126.508 86.343C125.096 86.9355 122.972 87.5 120 87.5C117.028 87.5 114.904 86.9355 113.492 86.343C112.645 85.9874 112.222 85.8095 111.802 85.0389C111.383 84.2682 111.493 83.6495 111.715 82.4119C112.008 80.7721 112.363 78.7349 112.543 77.5" stroke="#FC721A" stroke-width="1.875" stroke-linecap="round" stroke-linejoin="round"/>
<path d="M122.539 63.75C122.355 68.0978 122.649 77.1847 127.5 78.75M117.461 63.75C117.645 68.0978 117.351 77.1847 112.5 78.75" stroke="#FC721A" stroke-width="1.875" stroke-linecap="round" stroke-linejoin="round"/>
<path d="M54.2598 410.25C54.2598 411.631 53.1405 412.75 51.7598 412.75C50.3791 412.75 49.2598 411.631 49.2598 410.25C49.2598 408.869 50.3791 407.75 51.7598 407.75C53.1405 407.75 54.2598 408.869 54.2598 410.25Z" stroke="#FC721A" stroke-width="1.875"/>
<path d="M66.7598 410.25C66.7598 411.631 65.6405 412.75 64.2598 412.75C62.879 412.75 61.7598 411.631 61.7598 410.25C61.7598 408.869 62.879 407.75 64.2598 407.75C65.6405 407.75 66.7598 408.869 66.7598 410.25Z" stroke="#FC721A" stroke-width="1.875"/>
<path d="M45.5098 401.5H65.5097M45.5098 401.5C45.5098 402.475 45.4848 405.3 45.5148 408.075C45.5597 408.975 45.7096 409.725 49.2619 410.25M45.5098 401.5C45.7796 399.325 46.9537 396.75 47.5532 395.775M54.2598 401.5V395.25M61.7474 410.25H54.2531M45.5297 395.25H58.3C58.3 395.25 58.9745 395.25 59.574 395.31C60.6982 395.415 61.6425 395.925 62.5867 397.2C63.5866 398.55 64.3554 400.26 65.3746 401.175C67.0684 402.695 70.2909 402.225 70.4707 405.45C70.5157 407.1 70.5157 408.9 70.4407 409.2C70.3204 410.083 69.6392 410.228 68.792 410.25C68.0567 410.269 67.1704 410.215 66.7386 410.25" stroke="#FC721A" stroke-width="1.875" stroke-linecap="round"/>
<path d="M547.072 141.5C553.216 141.5 558.33 137.117 559.427 131.323C559.75 129.621 558.991 129.711 557.388 129.43C556.25 129.23 555.187 128.458 554.792 127.235C554.522 126.402 554.422 126.368 553.544 126.332C551.733 126.257 550.281 124.336 551.004 122.783C551.274 122.203 551.265 122.136 550.76 121.743C549.876 121.055 549.463 119.771 549.622 118.533C549.793 117.199 549.893 116.718 548.482 116.568C541.321 115.806 534.5 121.524 534.5 128.993C534.5 135.901 540.129 141.5 547.072 141.5Z" stroke="#FC721A" stroke-width="1.875"/>
<path d="M545.76 129H545.748" stroke="#FC721A" stroke-width="2.5" stroke-linecap="round" stroke-linejoin="round"/>
<path d="M539.51 126.5H539.498" stroke="#FC721A" stroke-width="2.5" stroke-linecap="round" stroke-linejoin="round"/>
<path d="M547.01 136.5H546.998" stroke="#FC721A" stroke-width="2.5" stroke-linecap="round" stroke-linejoin="round"/>
<path d="M544.5 121.5L543.25 122.75" stroke="#FC721A" stroke-width="1.875" stroke-linecap="round" stroke-linejoin="round"/>
<path d="M553.25 131.5L552 132.75" stroke="#FC721A" stroke-width="1.875" stroke-linecap="round" stroke-linejoin="round"/>
<path d="M540.75 132.75L542 134" stroke="#FC721A" stroke-width="1.875" stroke-linecap="round" stroke-linejoin="round"/>
<path d="M496.833 416.726C497.991 415.79 499.288 415.733 500.706 415.753C501.439 415.763 501.805 415.768 502.099 415.882C502.566 416.063 502.937 416.435 503.118 416.901C503.232 417.195 503.237 417.562 503.247 418.294C503.267 419.712 503.21 421.009 502.275 422.167C501.487 423.142 500.132 423.651 499.481 424.728C498.983 425.549 499.215 426.4 499.429 427.276L501.029 433.833C501.347 435.139 501.105 435.977 500.191 436.891C499.705 437.377 499.301 437.352 498.906 436.724L494.078 429.031L491.773 430.864C490.937 431.529 490.519 431.861 490.299 432.328C489.785 433.424 490.111 435.068 490.128 436.256C490.137 436.912 489.57 438.206 488.767 438.249C488.272 438.276 488.104 437.684 487.944 437.32L486.403 433.818C486.035 432.981 486.019 432.966 485.182 432.597L481.68 431.057C481.316 430.897 480.724 430.728 480.751 430.233C480.795 429.43 482.088 428.863 482.744 428.872C483.932 428.889 485.577 429.216 486.672 428.701C487.139 428.481 487.472 428.063 488.136 427.227L489.969 424.922L482.276 420.094C481.648 419.699 481.623 419.295 482.109 418.809C483.023 417.895 483.861 417.653 485.167 417.971L491.724 419.571C492.6 419.785 493.451 420.017 494.272 419.519C495.349 418.868 495.858 417.513 496.833 416.726Z" stroke="#FC721A" stroke-width="1.875" stroke-linecap="round" stroke-linejoin="round"/>
<rect opacity="0.5" x="101.695" y="176.72" width="386.61" height="208.748" rx="15.4431" fill="#EBEBEB" stroke="#EEEEEE" stroke-width="1.06504"/>
<rect x="76.1341" y="124.533" width="437.732" height="243.894" rx="15.4431" fill="white" stroke="#EEEEEE" stroke-width="1.06504"/>
<rect opacity="0.5" x="100.098" y="145.301" width="223.659" height="14.9106" rx="7.45528" fill="#EEEEEE"/>
<rect opacity="0.5" x="100.098" y="165.535" width="55.3821" height="12.7805" rx="6.39024" fill="#EEEEEE"/>
<rect opacity="0.5" x="161.869" y="165.535" width="33.0163" height="12.7805" rx="6.39024" fill="#EEEEEE"/>
<rect opacity="0.1" x="100.63" y="194.825" width="389.805" height="76.6829" rx="10.1179" fill="url(#paint0_linear_360_73580)" stroke="url(#paint1_linear_360_73580)" stroke-width="1.06504"/>
<rect opacity="0.5" x="136.309" y="208.139" width="55.3821" height="12.7805" rx="6.39024" fill="#FC721A"/>
<rect x="111.812" y="204.943" width="19.1707" height="19.1707" rx="9.58537" fill="#FC721A"/>
<rect opacity="0.5" x="198.082" y="208.139" width="33.0163" height="12.7805" rx="6.39024" fill="#FC721A"/>
<rect opacity="0.5" x="436.65" y="208.139" width="33.0163" height="12.7805" rx="6.39024" fill="#FC721A"/>
<path opacity="0.1" d="M111.812 231.57C114.429 231.57 358.572 231.57 480.317 231.57" stroke="#EA7635" stroke-width="1.06504"/>
<path d="M124.334 218.078H124.552C125.062 218.078 125.468 217.846 125.832 217.521C126.758 216.695 124.582 215.86 123.839 215.86M122.951 211.452C123.052 211.432 123.157 211.422 123.264 211.422C124.072 211.422 124.726 212.018 124.726 212.753C124.726 213.488 124.072 214.084 123.264 214.084C123.157 214.084 123.052 214.074 122.951 214.054" stroke="white" stroke-width="0.66565" stroke-linecap="round"/>
<path d="M118.061 216.352C117.538 216.633 116.166 217.205 117.002 217.922C117.41 218.272 117.865 218.522 118.436 218.522H121.697C122.269 218.522 122.723 218.272 123.131 217.922C123.967 217.205 122.595 216.633 122.072 216.352C120.845 215.695 119.288 215.695 118.061 216.352Z" stroke="white" stroke-width="0.66565"/>
<path d="M121.841 212.531C121.841 213.511 121.046 214.306 120.066 214.306C119.086 214.306 118.291 213.511 118.291 212.531C118.291 211.551 119.086 210.756 120.066 210.756C121.046 210.756 121.841 211.551 121.841 212.531Z" stroke="white" stroke-width="0.66565"/>
<rect opacity="0.2" x="111.812" y="245.414" width="118.22" height="97.9837" rx="5.3252" fill="#FF792E" fill-opacity="0.3"/>
<rect opacity="0.2" x="237.488" y="245.414" width="117.154" height="97.9837" rx="5.3252" fill="#FF792E" fill-opacity="0.3"/>
<rect opacity="0.2" x="362.098" y="245.414" width="118.22" height="97.9837" rx="5.3252" fill="#FF792E" fill-opacity="0.3"/>
<path d="M124.906 329.512V327.485L130.284 322.212C130.799 321.693 131.227 321.231 131.57 320.828C131.913 320.425 132.17 320.034 132.342 319.656C132.513 319.277 132.599 318.874 132.599 318.445C132.599 317.956 132.488 317.538 132.266 317.19C132.044 316.837 131.739 316.564 131.351 316.373C130.962 316.181 130.521 316.085 130.027 316.085C129.518 316.085 129.071 316.191 128.688 316.403C128.305 316.61 128.007 316.905 127.796 317.288C127.589 317.671 127.485 318.128 127.485 318.657H124.815C124.815 317.674 125.04 316.819 125.488 316.093C125.937 315.367 126.555 314.804 127.342 314.406C128.133 314.008 129.041 313.808 130.065 313.808C131.104 313.808 132.016 314.003 132.803 314.391C133.59 314.779 134.2 315.311 134.634 315.987C135.072 316.663 135.292 317.434 135.292 318.302C135.292 318.881 135.181 319.451 134.959 320.011C134.737 320.571 134.346 321.191 133.786 321.872C133.232 322.553 132.453 323.377 131.449 324.345L128.779 327.061V327.167H135.526V329.512H124.906ZM143.482 329.724C142.393 329.724 141.425 329.537 140.578 329.164C139.736 328.791 139.07 328.271 138.581 327.606C138.092 326.94 137.832 326.171 137.802 325.298H140.646C140.671 325.717 140.81 326.083 141.062 326.395C141.314 326.703 141.649 326.942 142.068 327.114C142.487 327.285 142.955 327.371 143.475 327.371C144.03 327.371 144.521 327.275 144.95 327.084C145.379 326.887 145.714 326.615 145.956 326.267C146.198 325.919 146.317 325.518 146.311 325.064C146.317 324.595 146.195 324.181 145.948 323.823C145.701 323.465 145.343 323.186 144.874 322.984C144.41 322.782 143.851 322.681 143.195 322.681H141.826V320.518H143.195C143.735 320.518 144.206 320.425 144.61 320.238C145.018 320.051 145.338 319.789 145.57 319.451C145.802 319.108 145.916 318.713 145.911 318.264C145.916 317.825 145.817 317.444 145.616 317.122C145.419 316.794 145.139 316.539 144.776 316.358C144.418 316.176 143.997 316.085 143.513 316.085C143.039 316.085 142.6 316.171 142.197 316.342C141.793 316.514 141.468 316.758 141.221 317.076C140.974 317.389 140.843 317.762 140.827 318.196H138.127C138.147 317.328 138.397 316.567 138.876 315.911C139.36 315.251 140.005 314.736 140.812 314.368C141.619 313.995 142.524 313.808 143.528 313.808C144.562 313.808 145.459 314.003 146.221 314.391C146.987 314.774 147.58 315.291 147.998 315.942C148.417 316.592 148.626 317.311 148.626 318.097C148.631 318.97 148.374 319.701 147.855 320.291C147.34 320.881 146.664 321.267 145.827 321.448V321.569C146.917 321.721 147.751 322.124 148.331 322.78C148.916 323.43 149.206 324.239 149.201 325.208C149.201 326.075 148.954 326.852 148.46 327.537C147.971 328.218 147.295 328.753 146.433 329.141C145.575 329.529 144.592 329.724 143.482 329.724ZM159.867 326.607V325.79C159.867 325.19 159.993 324.638 160.245 324.134C160.503 323.629 160.876 323.223 161.365 322.916C161.854 322.608 162.447 322.454 163.143 322.454C163.859 322.454 164.459 322.608 164.943 322.916C165.427 323.218 165.793 323.622 166.04 324.126C166.292 324.63 166.418 325.185 166.418 325.79V326.607C166.418 327.207 166.292 327.759 166.04 328.264C165.787 328.768 165.417 329.174 164.928 329.481C164.444 329.789 163.849 329.943 163.143 329.943C162.437 329.943 161.839 329.789 161.35 329.481C160.861 329.174 160.49 328.768 160.238 328.264C159.991 327.759 159.867 327.207 159.867 326.607ZM161.841 325.79V326.607C161.841 327.005 161.937 327.371 162.129 327.704C162.321 328.037 162.658 328.203 163.143 328.203C163.632 328.203 163.967 328.039 164.149 327.711C164.335 327.379 164.428 327.01 164.428 326.607V325.79C164.428 325.387 164.34 325.019 164.164 324.686C163.987 324.348 163.647 324.179 163.143 324.179C162.669 324.179 162.333 324.348 162.136 324.686C161.94 325.019 161.841 325.387 161.841 325.79ZM151.993 317.742V316.925C151.993 316.32 152.121 315.765 152.379 315.261C152.636 314.756 153.009 314.353 153.498 314.05C153.987 313.743 154.58 313.589 155.276 313.589C155.987 313.589 156.584 313.743 157.068 314.05C157.558 314.353 157.926 314.756 158.173 315.261C158.42 315.765 158.543 316.32 158.543 316.925V317.742C158.543 318.347 158.417 318.902 158.165 319.406C157.918 319.905 157.55 320.306 157.061 320.609C156.572 320.911 155.977 321.062 155.276 321.062C154.565 321.062 153.965 320.911 153.475 320.609C152.991 320.306 152.623 319.903 152.371 319.398C152.119 318.894 151.993 318.342 151.993 317.742ZM153.982 316.925V317.742C153.982 318.145 154.076 318.513 154.262 318.846C154.454 319.174 154.792 319.338 155.276 319.338C155.76 319.338 156.093 319.174 156.274 318.846C156.461 318.513 156.554 318.145 156.554 317.742V316.925C156.554 316.521 156.466 316.153 156.289 315.821C156.113 315.483 155.775 315.314 155.276 315.314C154.797 315.314 154.461 315.483 154.27 315.821C154.078 316.158 153.982 316.526 153.982 316.925ZM152.855 329.512L163.506 314.02H165.397L154.746 329.512H152.855Z" fill="#FF9552"/>
<path d="M254.894 313.808C255.635 313.813 256.356 313.945 257.057 314.202C257.763 314.454 258.398 314.867 258.963 315.442C259.528 316.012 259.977 316.776 260.309 317.734C260.642 318.692 260.809 319.877 260.809 321.289C260.814 322.621 260.673 323.811 260.385 324.86C260.103 325.904 259.697 326.786 259.167 327.507C258.638 328.228 258 328.778 257.254 329.156C256.507 329.534 255.668 329.724 254.735 329.724C253.756 329.724 252.889 329.532 252.133 329.149C251.381 328.765 250.774 328.241 250.31 327.575C249.846 326.91 249.561 326.148 249.455 325.291H252.216C252.357 325.906 252.644 326.395 253.078 326.758C253.517 327.116 254.069 327.295 254.735 327.295C255.809 327.295 256.636 326.829 257.216 325.896C257.796 324.963 258.086 323.667 258.086 322.008H257.98C257.733 322.452 257.412 322.835 257.019 323.158C256.626 323.475 256.179 323.72 255.68 323.892C255.186 324.063 254.662 324.149 254.107 324.149C253.199 324.149 252.382 323.932 251.656 323.498C250.935 323.064 250.363 322.469 249.939 321.713C249.52 320.957 249.309 320.092 249.304 319.118C249.304 318.11 249.536 317.205 249.999 316.403C250.468 315.596 251.121 314.961 251.959 314.497C252.796 314.028 253.774 313.798 254.894 313.808ZM254.901 316.078C254.356 316.078 253.865 316.211 253.426 316.479C252.992 316.741 252.649 317.099 252.397 317.553C252.15 318.002 252.027 318.503 252.027 319.058C252.032 319.608 252.155 320.107 252.397 320.556C252.644 321.005 252.98 321.36 253.403 321.622C253.832 321.884 254.321 322.016 254.871 322.016C255.279 322.016 255.66 321.937 256.013 321.781C256.366 321.625 256.674 321.408 256.936 321.131C257.203 320.848 257.41 320.528 257.556 320.17C257.707 319.812 257.781 319.434 257.775 319.035C257.775 318.506 257.649 318.017 257.397 317.568C257.15 317.119 256.81 316.758 256.376 316.486C255.947 316.214 255.456 316.078 254.901 316.078ZM263.266 329.512L269.854 316.471V316.365H262.207V314.02H272.759V316.418L266.178 329.512H263.266ZM283.27 326.607V325.79C283.27 325.19 283.396 324.638 283.648 324.134C283.906 323.629 284.279 323.223 284.768 322.916C285.257 322.608 285.85 322.454 286.545 322.454C287.261 322.454 287.862 322.608 288.346 322.916C288.83 323.218 289.195 323.622 289.443 324.126C289.695 324.63 289.821 325.185 289.821 325.79V326.607C289.821 327.207 289.695 327.759 289.443 328.264C289.19 328.768 288.82 329.174 288.331 329.481C287.846 329.789 287.251 329.943 286.545 329.943C285.839 329.943 285.242 329.789 284.753 329.481C284.264 329.174 283.893 328.768 283.641 328.264C283.394 327.759 283.27 327.207 283.27 326.607ZM285.244 325.79V326.607C285.244 327.005 285.34 327.371 285.532 327.704C285.723 328.037 286.061 328.203 286.545 328.203C287.035 328.203 287.37 328.039 287.551 327.711C287.738 327.379 287.831 327.01 287.831 326.607V325.79C287.831 325.387 287.743 325.019 287.567 324.686C287.39 324.348 287.05 324.179 286.545 324.179C286.071 324.179 285.736 324.348 285.539 324.686C285.343 325.019 285.244 325.387 285.244 325.79ZM275.396 317.742V316.925C275.396 316.32 275.524 315.765 275.782 315.261C276.039 314.756 276.412 314.353 276.901 314.05C277.39 313.743 277.983 313.589 278.679 313.589C279.39 313.589 279.987 313.743 280.471 314.05C280.961 314.353 281.329 314.756 281.576 315.261C281.823 315.765 281.946 316.32 281.946 316.925V317.742C281.946 318.347 281.82 318.902 281.568 319.406C281.321 319.905 280.953 320.306 280.464 320.609C279.975 320.911 279.38 321.062 278.679 321.062C277.968 321.062 277.368 320.911 276.878 320.609C276.394 320.306 276.026 319.903 275.774 319.398C275.522 318.894 275.396 318.342 275.396 317.742ZM277.385 316.925V317.742C277.385 318.145 277.478 318.513 277.665 318.846C277.857 319.174 278.195 319.338 278.679 319.338C279.163 319.338 279.496 319.174 279.677 318.846C279.864 318.513 279.957 318.145 279.957 317.742V316.925C279.957 316.521 279.869 316.153 279.692 315.821C279.516 315.483 279.178 315.314 278.679 315.314C278.2 315.314 277.864 315.483 277.673 315.821C277.481 316.158 277.385 316.526 277.385 316.925ZM276.258 329.512L286.908 314.02H288.8L278.149 329.512H276.258Z" fill="#FF9552"/>
<path d="M373.845 326.637V324.406L380.418 314.02H382.279V317.197H381.144L376.719 324.209V324.33H385.895V326.637H373.845ZM381.235 329.512V325.957L381.265 324.958V314.02H383.913V329.512H381.235ZM393.658 329.724C392.569 329.724 391.601 329.537 390.753 329.164C389.911 328.791 389.246 328.271 388.756 327.606C388.267 326.94 388.008 326.171 387.977 325.298H390.822C390.847 325.717 390.985 326.083 391.238 326.395C391.49 326.703 391.825 326.942 392.244 327.114C392.662 327.285 393.131 327.371 393.651 327.371C394.205 327.371 394.697 327.275 395.126 327.084C395.554 326.887 395.89 326.615 396.132 326.267C396.374 325.919 396.492 325.518 396.487 325.064C396.492 324.595 396.371 324.181 396.124 323.823C395.877 323.465 395.519 323.186 395.05 322.984C394.586 322.782 394.026 322.681 393.371 322.681H392.002V320.518H393.371C393.91 320.518 394.382 320.425 394.785 320.238C395.194 320.051 395.514 319.789 395.746 319.451C395.978 319.108 396.091 318.713 396.086 318.264C396.091 317.825 395.993 317.444 395.791 317.122C395.595 316.794 395.315 316.539 394.952 316.358C394.594 316.176 394.172 316.085 393.688 316.085C393.214 316.085 392.776 316.171 392.372 316.342C391.969 316.514 391.643 316.758 391.396 317.076C391.149 317.389 391.018 317.762 391.003 318.196H388.303C388.323 317.328 388.572 316.567 389.051 315.911C389.536 315.251 390.181 314.736 390.988 314.368C391.795 313.995 392.7 313.808 393.703 313.808C394.737 313.808 395.635 314.003 396.396 314.391C397.163 314.774 397.755 315.291 398.174 315.942C398.592 316.592 398.802 317.311 398.802 318.097C398.807 318.97 398.55 319.701 398.03 320.291C397.516 320.881 396.84 321.267 396.003 321.448V321.569C397.092 321.721 397.927 322.124 398.507 322.78C399.092 323.43 399.382 324.239 399.377 325.208C399.377 326.075 399.13 326.852 398.635 327.537C398.146 328.218 397.47 328.753 396.608 329.141C395.751 329.529 394.768 329.724 393.658 329.724ZM410.043 326.607V325.79C410.043 325.19 410.169 324.638 410.421 324.134C410.678 323.629 411.051 323.223 411.541 322.916C412.03 322.608 412.622 322.454 413.318 322.454C414.034 322.454 414.634 322.608 415.118 322.916C415.603 323.218 415.968 323.622 416.215 324.126C416.467 324.63 416.593 325.185 416.593 325.79V326.607C416.593 327.207 416.467 327.759 416.215 328.264C415.963 328.768 415.592 329.174 415.103 329.481C414.619 329.789 414.024 329.943 413.318 329.943C412.612 329.943 412.015 329.789 411.525 329.481C411.036 329.174 410.666 328.768 410.413 328.264C410.166 327.759 410.043 327.207 410.043 326.607ZM412.017 325.79V326.607C412.017 327.005 412.113 327.371 412.305 327.704C412.496 328.037 412.834 328.203 413.318 328.203C413.807 328.203 414.143 328.039 414.324 327.711C414.511 327.379 414.604 327.01 414.604 326.607V325.79C414.604 325.387 414.516 325.019 414.339 324.686C414.163 324.348 413.822 324.179 413.318 324.179C412.844 324.179 412.509 324.348 412.312 324.686C412.115 325.019 412.017 325.387 412.017 325.79ZM402.169 317.742V316.925C402.169 316.32 402.297 315.765 402.554 315.261C402.811 314.756 403.185 314.353 403.674 314.05C404.163 313.743 404.755 313.589 405.451 313.589C406.162 313.589 406.76 313.743 407.244 314.05C407.733 314.353 408.101 314.756 408.348 315.261C408.596 315.765 408.719 316.32 408.719 316.925V317.742C408.719 318.347 408.593 318.902 408.341 319.406C408.094 319.905 407.726 320.306 407.237 320.609C406.747 320.911 406.152 321.062 405.451 321.062C404.74 321.062 404.14 320.911 403.651 320.609C403.167 320.306 402.799 319.903 402.547 319.398C402.295 318.894 402.169 318.342 402.169 317.742ZM404.158 316.925V317.742C404.158 318.145 404.251 318.513 404.438 318.846C404.629 319.174 404.967 319.338 405.451 319.338C405.935 319.338 406.268 319.174 406.45 318.846C406.636 318.513 406.73 318.145 406.73 317.742V316.925C406.73 316.521 406.641 316.153 406.465 315.821C406.288 315.483 405.951 315.314 405.451 315.314C404.972 315.314 404.637 315.483 404.445 315.821C404.254 316.158 404.158 316.526 404.158 316.925ZM403.031 329.512L413.681 314.02H415.572L404.922 329.512H403.031Z" fill="#FF9552"/>
<rect opacity="0.5" x="123.529" y="258.195" width="93.7236" height="10.6504" rx="5.3252" fill="#FFDAC6"/>
<rect opacity="0.5" x="248.139" y="258.195" width="93.7236" height="10.6504" rx="5.3252" fill="#FFDAC6"/>
<rect opacity="0.5" x="372.748" y="258.195" width="93.7236" height="10.6504" rx="5.3252" fill="#FFDAC6"/>
<rect opacity="0.5" x="123.529" y="273.105" width="23.4309" height="9.58537" rx="4.79268" fill="#FFDAC6"/>
<rect opacity="0.5" x="248.139" y="273.105" width="23.4309" height="9.58537" rx="4.79268" fill="#FFDAC6"/>
<rect opacity="0.5" x="372.748" y="273.105" width="23.4309" height="9.58537" rx="4.79268" fill="#FFDAC6"/>
<rect opacity="0.5" x="149.09" y="273.105" width="13.8455" height="9.58537" rx="4.79268" fill="#FFDAC6"/>
<rect opacity="0.5" x="273.699" y="273.105" width="13.8455" height="9.58537" rx="4.79268" fill="#FFDAC6"/>
<rect opacity="0.5" x="398.309" y="273.105" width="13.8455" height="9.58537" rx="4.79268" fill="#FFDAC6"/>
<defs>
<linearGradient id="paint0_linear_360_73580" x1="295.533" y1="194.293" x2="295.533" y2="272.041" gradientUnits="userSpaceOnUse">
<stop stop-color="#FC721A"/>
<stop offset="1" stop-color="white"/>
</linearGradient>
<linearGradient id="paint1_linear_360_73580" x1="295.533" y1="194.293" x2="295.533" y2="272.041" gradientUnits="userSpaceOnUse">
<stop stop-color="#FC721A"/>
<stop offset="1" stop-color="white"/>
</linearGradient>
</defs>
</svg>
