<svg width="52" height="52" viewBox="0 0 52 52" fill="none" xmlns="http://www.w3.org/2000/svg">
<rect width="48" height="48" rx="10.9091" transform="matrix(1 0 0 -1 2.00045 50)" fill="url(#paint0_radial_148_1620)"/>
<rect x="-0.888889" y="0.888889" width="49.7778" height="49.7778" rx="11.798" transform="matrix(1 0 0 -1 2.00045 51.7778)" stroke="black" stroke-opacity="0.1" stroke-width="1.77778"/>
<mask id="mask0_148_1620" style="mask-type:alpha" maskUnits="userSpaceOnUse" x="2" y="2" width="48" height="48">
<rect width="48" height="48" rx="10.9091" transform="matrix(1 0 0 -1 2.00002 50)" fill="url(#paint1_radial_148_1620)"/>
</mask>
<g mask="url(#mask0_148_1620)">
<line x1="0.211609" y1="0.0255965" x2="51.9444" y2="51.7584" stroke="#FF792E" stroke-width="0.261475"/>
<line y1="-0.130738" x2="73.1613" y2="-0.130738" transform="matrix(-0.707107 0.707107 0.707107 0.707107 51.8523 0.11792)" stroke="#FF792E" stroke-width="0.261475"/>
<line y1="-0.130738" x2="48.0716" y2="-0.130738" transform="matrix(-4.37114e-08 1 1 4.37114e-08 14.1992 1.9281)" stroke="#FF792E" stroke-width="0.261475"/>
<line y1="-0.130738" x2="48.0716" y2="-0.130738" transform="matrix(-1 -8.74228e-08 -8.74228e-08 1 50.0023 14.1981)" stroke="#FF792E" stroke-width="0.261475"/>
<line y1="-0.130738" x2="48.0716" y2="-0.130738" transform="matrix(-4.37114e-08 1 1 4.37114e-08 37.7324 1.9281)" stroke="#FF792E" stroke-width="0.261475"/>
<line y1="-0.130738" x2="48.0716" y2="-0.130738" transform="matrix(-1 -8.74228e-08 -8.74228e-08 1 50.0023 37.731)" stroke="#FF792E" stroke-width="0.261475"/>
<circle cx="25.9849" cy="25.9845" r="16.9959" stroke="#FF792E" stroke-width="0.261475"/>
<g filter="url(#filter0_f_148_1620)">
<circle cx="14.0005" cy="13.9997" r="1.09091" fill="#FF792E"/>
</g>
<g filter="url(#filter1_f_148_1620)">
<circle cx="14.0005" cy="37.9997" r="1.09091" fill="#FF792E"/>
</g>
<g filter="url(#filter2_f_148_1620)">
<circle cx="38.0005" cy="13.9997" r="1.09091" fill="#FF792E"/>
</g>
<g filter="url(#filter3_f_148_1620)">
<circle cx="38.0005" cy="37.9997" r="1.09091" fill="#FF792E"/>
</g>
</g>
<g clip-path="url(#clip0_148_1620)">
<path d="M15.998 23.4824C21.601 18.1724 30.395 18.1724 35.998 23.4824" stroke="white" stroke-width="1.5" stroke-linecap="round" stroke-linejoin="round"/>
<path d="M32.998 26.9001C29.132 23.0331 22.864 23.0331 18.998 26.9001M29.998 30.1571C28.9371 29.0963 27.4983 28.5003 25.998 28.5003C24.4977 28.5003 23.0589 29.0963 21.998 30.1571M25.998 33.2501V32.7501" stroke="white" stroke-width="1.5" stroke-linecap="round" stroke-linejoin="round"/>
</g>
<defs>
<filter id="filter0_f_148_1620" x="11.8186" y="11.8178" width="4.36364" height="4.36364" filterUnits="userSpaceOnUse" color-interpolation-filters="sRGB">
<feFlood flood-opacity="0" result="BackgroundImageFix"/>
<feBlend mode="normal" in="SourceGraphic" in2="BackgroundImageFix" result="shape"/>
<feGaussianBlur stdDeviation="0.545455" result="effect1_foregroundBlur_148_1620"/>
</filter>
<filter id="filter1_f_148_1620" x="11.8186" y="35.8178" width="4.36364" height="4.36364" filterUnits="userSpaceOnUse" color-interpolation-filters="sRGB">
<feFlood flood-opacity="0" result="BackgroundImageFix"/>
<feBlend mode="normal" in="SourceGraphic" in2="BackgroundImageFix" result="shape"/>
<feGaussianBlur stdDeviation="0.545455" result="effect1_foregroundBlur_148_1620"/>
</filter>
<filter id="filter2_f_148_1620" x="35.8186" y="11.8178" width="4.36364" height="4.36364" filterUnits="userSpaceOnUse" color-interpolation-filters="sRGB">
<feFlood flood-opacity="0" result="BackgroundImageFix"/>
<feBlend mode="normal" in="SourceGraphic" in2="BackgroundImageFix" result="shape"/>
<feGaussianBlur stdDeviation="0.545455" result="effect1_foregroundBlur_148_1620"/>
</filter>
<filter id="filter3_f_148_1620" x="35.8186" y="35.8178" width="4.36364" height="4.36364" filterUnits="userSpaceOnUse" color-interpolation-filters="sRGB">
<feFlood flood-opacity="0" result="BackgroundImageFix"/>
<feBlend mode="normal" in="SourceGraphic" in2="BackgroundImageFix" result="shape"/>
<feGaussianBlur stdDeviation="0.545455" result="effect1_foregroundBlur_148_1620"/>
</filter>
<radialGradient id="paint0_radial_148_1620" cx="0" cy="0" r="1" gradientUnits="userSpaceOnUse" gradientTransform="translate(24 -22.1176) rotate(90) scale(70.1176 39.8093)">
<stop stop-color="#FF792E"/>
<stop offset="0.801475" stop-color="#0E1015"/>
</radialGradient>
<radialGradient id="paint1_radial_148_1620" cx="0" cy="0" r="1" gradientUnits="userSpaceOnUse" gradientTransform="translate(24) rotate(90) scale(48)">
<stop stop-color="#1888FA"/>
<stop offset="1" stop-color="#0E1015"/>
</radialGradient>
<clipPath id="clip0_148_1620">
<rect width="23.5294" height="23.5294" fill="white" transform="translate(14.2324 14.2352)"/>
</clipPath>
</defs>
</svg>
