<svg width="55" height="42" viewBox="0 0 55 42" fill="none" xmlns="http://www.w3.org/2000/svg">
<rect width="54.5373" height="42" fill="white"/>
<mask id="mask0_166_85" style="mask-type:alpha" maskUnits="userSpaceOnUse" x="4" y="3" width="46" height="35">
<rect x="4.75012" y="3.74902" width="45" height="33.75" rx="3.30882" fill="#FAFAFA"/>
</mask>
<g mask="url(#mask0_166_85)">
<mask id="mask1_166_85" style="mask-type:luminance" maskUnits="userSpaceOnUse" x="4" y="3" width="46" height="35">
<path d="M4.7511 3.74756L49.7379 3.74756V37.4876H4.7511L4.7511 3.74756Z" fill="white"/>
</mask>
<g mask="url(#mask1_166_85)">
<path fill-rule="evenodd" clip-rule="evenodd" d="M15.9978 3.74756L38.4912 3.74756V37.4876H15.9978L15.9978 3.74756Z" fill="#F7FCFF"/>
<path fill-rule="evenodd" clip-rule="evenodd" d="M27.2114 13.5874L27.2445 30.4574H26.4017L26.9188 26.2825C23.137 26.9631 21.4023 27.1317 21.715 26.7885C22.0276 26.4452 22.2741 25.9588 22.4542 25.3291L17.4037 21.9596C17.9348 21.953 18.4164 21.8211 18.8485 21.5641C19.2805 21.3071 19.0645 20.4167 18.2003 18.8926L20.7503 19.2636L21.715 18.2151L23.6389 20.2287H24.5036L23.6389 15.6166L25.1889 16.4825L27.2114 13.5874ZM27.2114 13.5874L29.3002 16.4825L30.8502 15.6166L29.9855 20.2287H30.8502L32.7741 18.2151L33.7388 19.2636L36.2887 18.8926C35.4245 20.4167 35.2086 21.3071 35.6406 21.5641C36.0726 21.8211 36.5543 21.953 37.0854 21.9596L32.0349 25.3291C32.215 25.9588 32.4615 26.4452 32.7741 26.7885C33.0868 27.1317 31.3521 26.9631 27.5703 26.2825L28.0873 30.4574H27.2445L27.2114 13.5874Z" fill="#E31D1C"/>
<path fill-rule="evenodd" clip-rule="evenodd" d="M38.4907 3.74707L49.7374 3.74707V37.4871H38.4907V3.74707Z" fill="#E31D1C"/>
<path fill-rule="evenodd" clip-rule="evenodd" d="M4.7511 3.74707L15.9978 3.74707L15.9978 37.4871H4.7511L4.7511 3.74707Z" fill="#E31D1C"/>
</g>
</g>
</svg>
