<svg width="55" height="42" viewBox="0 0 55 42" fill="none" xmlns="http://www.w3.org/2000/svg">
<rect width="54.5373" height="42" fill="white"/>
<mask id="mask0_165_2" style="mask-type:alpha" maskUnits="userSpaceOnUse" x="4" y="3" width="46" height="35">
<rect x="4.59668" y="3.76355" width="45.1343" height="33.8507" rx="2.90386" fill="#FAFAFA"/>
</mask>
<g mask="url(#mask0_165_2)">
<mask id="mask1_165_2" style="mask-type:luminance" maskUnits="userSpaceOnUse" x="4" y="3" width="46" height="35">
<path d="M4.59644 3.76538L49.7175 3.76538V37.6062H4.59644L4.59644 3.76538Z" fill="white"/>
</mask>
<g mask="url(#mask1_165_2)">
<path fill-rule="evenodd" clip-rule="evenodd" d="M4.59644 3.7666L49.7175 3.7666V37.6074H4.59644L4.59644 3.7666Z" fill="#F7FCFF"/>
<path fill-rule="evenodd" clip-rule="evenodd" d="M4.59644 24.4476V27.2677H49.7175V24.4476H4.59644Z" fill="#E31D1C"/>
<path fill-rule="evenodd" clip-rule="evenodd" d="M4.59644 29.6176V32.4376H49.7175V29.6176H4.59644Z" fill="#E31D1C"/>
<path fill-rule="evenodd" clip-rule="evenodd" d="M4.59644 14.1066V16.9266H49.7175V14.1066H4.59644Z" fill="#E31D1C"/>
<path fill-rule="evenodd" clip-rule="evenodd" d="M4.59644 34.7876V37.6077H49.7175V34.7876H4.59644Z" fill="#E31D1C"/>
<path fill-rule="evenodd" clip-rule="evenodd" d="M4.59644 19.2756V22.0957H49.7175V19.2756H4.59644Z" fill="#E31D1C"/>
<path fill-rule="evenodd" clip-rule="evenodd" d="M4.59644 3.7666V6.58667H49.7175V3.7666L4.59644 3.7666Z" fill="#E31D1C"/>
<path fill-rule="evenodd" clip-rule="evenodd" d="M4.59644 8.93762V11.7577H49.7175V8.93762H4.59644Z" fill="#E31D1C"/>
<path d="M4.59644 3.76538L32.7971 3.76538V22.0958H4.59644V3.76538Z" fill="#2E42A5"/>
<path fill-rule="evenodd" clip-rule="evenodd" d="M7.02527 7.90953L6.00175 8.62706L6.3473 7.35012L5.43823 6.54089H6.6256L7.02383 5.49878L7.49079 6.54089H8.503L7.70768 7.35012L8.01558 8.62706L7.02527 7.90953ZM12.6654 7.90953L11.6419 8.62706L11.9874 7.35012L11.0784 6.54089H12.2657L12.664 5.49878L13.1309 6.54089H14.1431L13.3478 7.35012L13.6557 8.62706L12.6654 7.90953ZM17.282 8.62706L18.3055 7.90953L19.2958 8.62706L18.9879 7.35012L19.7833 6.54089H18.771L18.3041 5.49878L17.9059 6.54089H16.7185L17.6276 7.35012L17.282 8.62706ZM23.9457 7.90953L22.9222 8.62706L23.2678 7.35012L22.3586 6.54089H23.546L23.9443 5.49878L24.4112 6.54089H25.4234L24.628 7.35012L24.936 8.62706L23.9457 7.90953ZM6.00175 14.2672L7.02527 13.5497L8.01558 14.2672L7.70768 12.9903L8.503 12.181H7.49079L7.02383 11.1389L6.6256 12.181H5.43823L6.3473 12.9903L6.00175 14.2672ZM12.6654 13.5497L11.6419 14.2672L11.9874 12.9903L11.0784 12.181H12.2657L12.664 11.1389L13.1309 12.181H14.1431L13.3478 12.9903L13.6557 14.2672L12.6654 13.5497ZM17.282 14.2672L18.3055 13.5497L19.2958 14.2672L18.9879 12.9903L19.7833 12.181H18.771L18.3041 11.1389L17.9059 12.181H16.7185L17.6276 12.9903L17.282 14.2672ZM23.9457 13.5497L22.9222 14.2672L23.2678 12.9903L22.3586 12.181H23.546L23.9443 11.1389L24.4112 12.181H25.4234L24.628 12.9903L24.936 14.2672L23.9457 13.5497ZM6.00175 19.9073L7.02527 19.1898L8.01558 19.9073L7.70768 18.6304L8.503 17.8211H7.49079L7.02383 16.779L6.6256 17.8211H5.43823L6.3473 18.6304L6.00175 19.9073ZM12.6654 19.1898L11.6419 19.9073L11.9874 18.6304L11.0784 17.8211H12.2657L12.664 16.779L13.1309 17.8211H14.1431L13.3478 18.6304L13.6557 19.9073L12.6654 19.1898ZM17.282 19.9073L18.3055 19.1898L19.2958 19.9073L18.9879 18.6304L19.7833 17.8211H18.771L18.3041 16.779L17.9059 17.8211H16.7185L17.6276 18.6304L17.282 19.9073ZM23.9457 19.1898L22.9222 19.9073L23.2678 18.6304L22.3586 17.8211H23.546L23.9443 16.779L24.4112 17.8211H25.4234L24.628 18.6304L24.936 19.9073L23.9457 19.1898ZM28.5623 8.62706L29.5858 7.90953L30.5761 8.62706L30.2681 7.35012L31.0635 6.54089H30.0513L29.5844 5.49878L29.1861 6.54089H27.9987L28.9079 7.35012L28.5623 8.62706ZM29.5858 13.5497L28.5623 14.2672L28.9079 12.9903L27.9987 12.181H29.1861L29.5844 11.1389L30.0513 12.181H31.0635L30.2681 12.9903L30.5761 14.2672L29.5858 13.5497ZM28.5623 19.9073L29.5858 19.1898L30.5761 19.9073L30.2681 18.6304L31.0635 17.8211H30.0513L29.5844 16.779L29.1861 17.8211H27.9987L28.9079 18.6304L28.5623 19.9073ZM9.84534 10.7296L8.82182 11.4471L9.16736 10.1702L8.2583 9.36096H9.44566L9.8439 8.31884L10.3109 9.36096H11.3231L10.5277 10.1702L10.8356 11.4471L9.84534 10.7296ZM14.462 11.4471L15.4855 10.7296L16.4758 11.4471L16.1679 10.1702L16.9632 9.36096H15.951L15.484 8.31884L15.0858 9.36096H13.8984L14.8075 10.1702L14.462 11.4471ZM21.1256 10.7296L20.1021 11.4471L20.4477 10.1702L19.5385 9.36096H20.7259L21.1242 8.31884L21.5911 9.36096H22.6034L21.808 10.1702L22.1159 11.4471L21.1256 10.7296ZM8.82182 17.0873L9.84534 16.3697L10.8356 17.0873L10.5277 15.8103L11.3231 15.0011H10.3109L9.8439 13.959L9.44566 15.0011H8.2583L9.16736 15.8103L8.82182 17.0873ZM15.4855 16.3697L14.462 17.0873L14.8075 15.8103L13.8984 15.0011H15.0858L15.484 13.959L15.951 15.0011H16.9632L16.1679 15.8103L16.4758 17.0873L15.4855 16.3697ZM20.1021 17.0873L21.1256 16.3697L22.1159 17.0873L21.808 15.8103L22.6034 15.0011H21.5911L21.1242 13.959L20.7259 15.0011H19.5385L20.4477 15.8103L20.1021 17.0873ZM26.7658 10.7296L25.7422 11.4471L26.0878 10.1702L25.1786 9.36096H26.366L26.7644 8.31884L27.2312 9.36096H28.2435L27.4481 10.1702L27.756 11.4471L26.7658 10.7296ZM25.7422 17.0873L26.7658 16.3697L27.756 17.0873L27.4481 15.8103L28.2435 15.0011H27.2312L26.7644 13.959L26.366 15.0011H25.1786L26.0878 15.8103L25.7422 17.0873Z" fill="#F7FCFF"/>
</g>
</g>
</svg>
