<svg width="55" height="42" viewBox="0 0 55 42" fill="none" xmlns="http://www.w3.org/2000/svg">
<rect width="54.75" height="42" fill="white"/>
<mask id="mask0_165_33" style="mask-type:alpha" maskUnits="userSpaceOnUse" x="4" y="4" width="46" height="35">
<rect x="4.74951" y="4.49927" width="45" height="33.75" rx="3.30882" fill="#FAFAFA"/>
</mask>
<g mask="url(#mask0_165_33)">
<mask id="mask1_165_33" style="mask-type:luminance" maskUnits="userSpaceOnUse" x="4" y="4" width="46" height="35">
<path d="M4.74854 4.49841L49.7485 4.49841V38.2484H4.74854L4.74854 4.49841Z" fill="white"/>
</mask>
<g mask="url(#mask1_165_33)">
<path fill-rule="evenodd" clip-rule="evenodd" d="M4.74902 4.49829L4.74902 38.2483H49.749V4.49829L4.74902 4.49829Z" fill="#2E42A5"/>
<mask id="mask2_165_33" style="mask-type:luminance" maskUnits="userSpaceOnUse" x="4" y="4" width="46" height="35">
<path fill-rule="evenodd" clip-rule="evenodd" d="M4.74854 4.49744L4.74854 38.2474H49.7485V4.49744L4.74854 4.49744Z" fill="white"/>
</mask>
<g mask="url(#mask2_165_33)">
<mask id="mask3_165_33" style="mask-type:luminance" maskUnits="userSpaceOnUse" x="4" y="4" width="46" height="35">
<path d="M4.74854 4.49658L49.7485 4.49658V38.2466H4.74854L4.74854 4.49658Z" fill="white"/>
</mask>
<g mask="url(#mask3_165_33)">
<path d="M-0.263184 35.8362L9.63919 40.024L49.9722 9.05055L55.1954 2.82722L44.6064 1.42749L28.1555 14.7749L14.9142 23.7679L-0.263184 35.8362Z" fill="white"/>
<path d="M1.09253 38.7709L6.13733 41.2011L53.3199 2.24951L46.2364 2.24951L1.09253 38.7709Z" fill="#F50100"/>
<path d="M54.7594 35.8362L44.857 40.024L4.52406 9.05055L-0.699219 2.82722L9.88996 1.42749L26.3408 14.7749L39.582 23.7679L54.7594 35.8362Z" fill="white"/>
<path d="M54.421 37.942L49.3762 40.3723L29.2854 23.6951L23.3288 21.8317L-1.20239 2.84851L5.8811 2.84851L30.3986 21.3811L36.9109 23.6155L54.421 37.942Z" fill="#F50100"/>
<path fill-rule="evenodd" clip-rule="evenodd" d="M32.5606 1.68555L21.9357 1.68555V15.748L1.97437 15.748L1.97437 26.998H21.9357L21.9357 41.0605H32.5606V26.998L52.5994 26.998V15.748L32.5606 15.748V1.68555Z" fill="#F50100"/>
<mask id="mask4_165_33" style="mask-type:luminance" maskUnits="userSpaceOnUse" x="1" y="1" width="52" height="41">
<path fill-rule="evenodd" clip-rule="evenodd" d="M32.5606 1.68372L21.9357 1.68372V15.7462L1.97437 15.7462L1.97437 26.9962H21.9357L21.9357 41.0587H32.5606V26.9962L52.5994 26.9962V15.7462L32.5606 15.7462V1.68372Z" fill="white"/>
</mask>
<g mask="url(#mask4_165_33)">
<path d="M21.9362 1.68457V-1.12793L19.1237 -1.12793V1.68457L21.9362 1.68457ZM32.5611 1.68457L35.3736 1.68457V-1.12793L32.5611 -1.12793V1.68457ZM21.9362 15.7471V18.5596H24.7487V15.7471H21.9362ZM1.97485 15.7471L1.97485 12.9346H-0.837646L-0.837646 15.7471H1.97485ZM1.97485 26.9971H-0.837646L-0.837646 29.8096H1.97485L1.97485 26.9971ZM21.9362 26.9971H24.7487L24.7487 24.1846H21.9362L21.9362 26.9971ZM21.9362 41.0596H19.1237V43.8721H21.9362V41.0596ZM32.5611 41.0596V43.8721H35.3736V41.0596H32.5611ZM32.5611 26.9971V24.1846H29.7486L29.7486 26.9971H32.5611ZM52.5999 26.9971V29.8096H55.4124V26.9971H52.5999ZM52.5999 15.7471H55.4124V12.9346H52.5999V15.7471ZM32.5611 15.7471H29.7486V18.5596H32.5611V15.7471ZM21.9362 4.49707L32.5611 4.49707V-1.12793L21.9362 -1.12793V4.49707ZM24.7487 15.7471V1.68457L19.1237 1.68457V15.7471H24.7487ZM1.97485 18.5596H21.9362V12.9346L1.97485 12.9346L1.97485 18.5596ZM4.78735 26.9971L4.78735 15.7471H-0.837646L-0.837646 26.9971H4.78735ZM21.9362 24.1846H1.97485L1.97485 29.8096H21.9362L21.9362 24.1846ZM24.7487 41.0596V26.9971H19.1237V41.0596H24.7487ZM32.5611 38.2471H21.9362V43.8721H32.5611V38.2471ZM29.7486 26.9971V41.0596H35.3736V26.9971H29.7486ZM52.5999 24.1846H32.5611V29.8096H52.5999V24.1846ZM49.7874 15.7471V26.9971H55.4124V15.7471H49.7874ZM32.5611 18.5596H52.5999V12.9346L32.5611 12.9346V18.5596ZM29.7486 1.68457V15.7471H35.3736V1.68457L29.7486 1.68457Z" fill="white"/>
</g>
</g>
</g>
</g>
</g>
</svg>
