<svg width="44" height="42" viewBox="0 0 44 42" fill="none" xmlns="http://www.w3.org/2000/svg">
<rect opacity="0.1" width="44" height="42" fill="#1675FF"/>
<path d="M34.4998 21C34.4998 14.0964 28.9033 8.5 21.9998 8.5C15.0962 8.5 9.49976 14.0964 9.49976 21C9.49976 27.9035 15.0962 33.5 21.9998 33.5C28.9033 33.5 34.4998 27.9035 34.4998 21Z" stroke="#1675FF" stroke-width="2"/>
<path d="M31.9998 13.1237C30.8314 13.2079 29.3349 13.6603 28.2971 15.0035C26.4229 17.4295 24.5485 17.632 23.299 16.8233C21.4246 15.6103 22.9998 13.6454 20.7999 12.5777C19.3662 11.8818 19.1663 9.98806 19.9643 8.5" stroke="#1675FF" stroke-width="2" stroke-linejoin="round"/>
<path d="M9.49976 19.75C10.4529 20.5776 11.7878 21.3352 13.3607 21.3352C16.6103 21.3352 17.2602 21.9561 17.2602 24.4397C17.2602 26.9234 17.2602 26.9234 17.9101 28.786C18.3329 29.9976 18.4807 31.2093 17.638 32.25" stroke="#1675FF" stroke-width="2" stroke-linejoin="round"/>
<path d="M34.4998 22.8154C33.3909 22.1764 31.9998 21.9135 30.5915 22.9256C27.8969 24.8622 26.039 23.2575 25.2021 24.8611C23.9704 27.2219 28.3694 27.9639 24.4998 33.5" stroke="#1675FF" stroke-width="2" stroke-linejoin="round"/>
</svg>
