<svg width="48" height="48" viewBox="0 0 48 48" fill="none" xmlns="http://www.w3.org/2000/svg">
<g filter="url(#filter0_i_148_1530)">
<rect width="48" height="48" rx="10" fill="#2D81FE"/>
<g filter="url(#filter1_ddi_148_1530)">
<path d="M14.9025 13.1773L16.9168 8.26758H32.4015C34.5416 8.56133 38.8219 10.4581 38.8219 15.6952C38.8219 20.4651 35.4105 22.6033 33.2483 23.2322C32.8568 23.346 32.4481 23.3746 32.0404 23.3746H21.4489L23.7149 18.213H31.5556C31.7825 18.213 32.0101 18.1838 32.2162 18.0889C32.9212 17.7643 33.9122 16.993 33.9122 15.6952C33.9122 14.3974 32.9212 13.6261 32.2162 13.3014C32.0101 13.2065 31.7825 13.1773 31.5556 13.1773H14.9025Z" fill="white"/>
<path d="M23.2335 14.643H17.6942L11.3997 29.75H22.1004L17.4425 41.5838L34.186 24.7144H19.079L23.2335 14.643Z" fill="white"/>
</g>
</g>
<defs>
<filter id="filter0_i_148_1530" x="0" y="-1" width="48" height="49" filterUnits="userSpaceOnUse" color-interpolation-filters="sRGB">
<feFlood flood-opacity="0" result="BackgroundImageFix"/>
<feBlend mode="normal" in="SourceGraphic" in2="BackgroundImageFix" result="shape"/>
<feColorMatrix in="SourceAlpha" type="matrix" values="0 0 0 0 0 0 0 0 0 0 0 0 0 0 0 0 0 0 127 0" result="hardAlpha"/>
<feMorphology radius="1" operator="erode" in="SourceAlpha" result="effect1_innerShadow_148_1530"/>
<feOffset dy="-4"/>
<feComposite in2="hardAlpha" operator="arithmetic" k2="-1" k3="1"/>
<feColorMatrix type="matrix" values="0 0 0 0 0 0 0 0 0 0 0 0 0 0 0 0 0 0 0.1 0"/>
<feBlend mode="normal" in2="shape" result="effect1_innerShadow_148_1530"/>
</filter>
<filter id="filter1_ddi_148_1530" x="10.0775" y="8.26758" width="30.0666" height="35.9606" filterUnits="userSpaceOnUse" color-interpolation-filters="sRGB">
<feFlood flood-opacity="0" result="BackgroundImageFix"/>
<feColorMatrix in="SourceAlpha" type="matrix" values="0 0 0 0 0 0 0 0 0 0 0 0 0 0 0 0 0 0 127 0" result="hardAlpha"/>
<feOffset dy="1.32218"/>
<feGaussianBlur stdDeviation="0.661092"/>
<feComposite in2="hardAlpha" operator="out"/>
<feColorMatrix type="matrix" values="0 0 0 0 0 0 0 0 0 0 0 0 0 0 0 0 0 0 0.1 0"/>
<feBlend mode="normal" in2="BackgroundImageFix" result="effect1_dropShadow_148_1530"/>
<feColorMatrix in="SourceAlpha" type="matrix" values="0 0 0 0 0 0 0 0 0 0 0 0 0 0 0 0 0 0 127 0" result="hardAlpha"/>
<feOffset dy="1"/>
<feGaussianBlur stdDeviation="0.5"/>
<feComposite in2="hardAlpha" operator="out"/>
<feColorMatrix type="matrix" values="0 0 0 0 0 0 0 0 0 0 0 0 0 0 0 0 0 0 0.25 0"/>
<feBlend mode="normal" in2="effect1_dropShadow_148_1530" result="effect2_dropShadow_148_1530"/>
<feBlend mode="normal" in="SourceGraphic" in2="effect2_dropShadow_148_1530" result="shape"/>
<feColorMatrix in="SourceAlpha" type="matrix" values="0 0 0 0 0 0 0 0 0 0 0 0 0 0 0 0 0 0 127 0" result="hardAlpha"/>
<feOffset/>
<feGaussianBlur stdDeviation="0.661092"/>
<feComposite in2="hardAlpha" operator="arithmetic" k2="-1" k3="1"/>
<feColorMatrix type="matrix" values="0 0 0 0 0.117647 0 0 0 0 0.117647 0 0 0 0 0.117647 0 0 0 0.25 0"/>
<feBlend mode="normal" in2="shape" result="effect3_innerShadow_148_1530"/>
</filter>
</defs>
</svg>
