<svg width="52" height="52" viewBox="0 0 52 52" fill="none" xmlns="http://www.w3.org/2000/svg">
<rect width="48" height="48" rx="10.9091" transform="matrix(1 0 0 -1 2.00006 50)" fill="url(#paint0_radial_148_1539)"/>
<rect x="-0.89" y="0.89" width="49.78" height="49.78" rx="11.7991" transform="matrix(1 0 0 -1 2.00006 51.78)" stroke="black" stroke-opacity="0.1" stroke-width="1.78"/>
<mask id="mask0_148_1539" style="mask-type:alpha" maskUnits="userSpaceOnUse" x="2" y="2" width="48" height="48">
<rect width="48" height="48" rx="10.9091" transform="matrix(1 0 0 -1 2.00006 50)" fill="url(#paint1_radial_148_1539)"/>
</mask>
<g mask="url(#mask0_148_1539)">
<line x1="0.209999" y1="0.0256576" x2="51.9428" y2="51.7585" stroke="#219653" stroke-width="0.261475"/>
<line y1="-0.130738" x2="73.1613" y2="-0.130738" transform="matrix(-0.707107 0.707107 0.707107 0.707107 51.8512 0.118103)" stroke="#219653" stroke-width="0.261475"/>
<line y1="-0.130738" x2="48.0716" y2="-0.130738" transform="matrix(-4.37114e-08 1 1 4.37114e-08 14.1965 1.92755)" stroke="#219653" stroke-width="0.261475"/>
<line y1="-0.130738" x2="48.0716" y2="-0.130738" transform="matrix(-1 -8.74228e-08 -8.74228e-08 1 49.9986 14.197)" stroke="#219653" stroke-width="0.261475"/>
<line y1="-0.130738" x2="48.0716" y2="-0.130738" transform="matrix(-4.37114e-08 1 1 4.37114e-08 37.7293 1.92755)" stroke="#219653" stroke-width="0.261475"/>
<line y1="-0.130738" x2="48.0716" y2="-0.130738" transform="matrix(-1 -8.74228e-08 -8.74228e-08 1 49.9986 37.7307)" stroke="#219653" stroke-width="0.261475"/>
<circle cx="25.984" cy="25.9843" r="16.9959" stroke="#219653" stroke-width="0.261475"/>
<g filter="url(#filter0_f_148_1539)">
<circle cx="14.0001" cy="14" r="1.09091" fill="#219653"/>
</g>
<g filter="url(#filter1_f_148_1539)">
<circle cx="14.0001" cy="38" r="1.09091" fill="#219653"/>
</g>
<g filter="url(#filter2_f_148_1539)">
<circle cx="38.0001" cy="14" r="1.09091" fill="#219653"/>
</g>
<g filter="url(#filter3_f_148_1539)">
<circle cx="38.0001" cy="38" r="1.09091" fill="#219653"/>
</g>
</g>
<path d="M26.3809 36.0009C27.6941 36.0009 28.9944 35.7422 30.2077 35.2397C31.421 34.7371 32.5233 34.0005 33.4519 33.0719C34.3805 32.1433 35.1171 31.0409 35.6197 29.8277C36.1222 28.6144 36.3809 27.3141 36.3809 26.0009C36.3809 24.6876 36.1222 23.3873 35.6197 22.174C35.1171 20.9608 34.3805 19.8584 33.4519 18.9298C32.5233 18.0012 31.421 17.2646 30.2077 16.7621C28.9944 16.2595 27.6941 16.0009 26.3809 16.0009M26.3809 36.0009C25.0676 36.0009 23.7673 35.7422 22.554 35.2397C21.3408 34.7371 20.2384 34.0005 19.3098 33.0719C18.3812 32.1433 17.6446 31.0409 17.1421 29.8277C16.6395 28.6144 16.3809 27.3141 16.3809 26.0009C16.3809 24.6876 16.6395 23.3873 17.1421 22.174C17.6446 20.9608 18.3812 19.8584 19.3098 18.9298C20.2384 18.0012 21.3408 17.2646 22.554 16.7621C23.7673 16.2595 25.0676 16.0009 26.3809 16.0009M26.3809 36.0009C29.4486 36.0009 30.7597 30.2642 30.7597 26.0009C30.7597 21.7375 29.4486 16.0009 26.3809 16.0009M26.3809 36.0009C23.3131 36.0009 22.002 30.2642 22.002 26.0009C22.002 21.7375 23.3131 16.0009 26.3809 16.0009M16.9364 22.6675H35.8253ZM16.9364 29.3342H35.8253Z" fill="white"/>
<path d="M26.3809 36.0009C27.6941 36.0009 28.9944 35.7422 30.2077 35.2397C31.421 34.7371 32.5233 34.0005 33.4519 33.0719C34.3805 32.1433 35.1171 31.0409 35.6197 29.8277C36.1222 28.6144 36.3809 27.3141 36.3809 26.0009C36.3809 24.6876 36.1222 23.3873 35.6197 22.174C35.1171 20.9608 34.3805 19.8584 33.4519 18.9298C32.5233 18.0012 31.421 17.2646 30.2077 16.7621C28.9944 16.2595 27.6941 16.0009 26.3809 16.0009M26.3809 36.0009C25.0676 36.0009 23.7673 35.7422 22.554 35.2397C21.3408 34.7371 20.2384 34.0005 19.3098 33.0719C18.3812 32.1433 17.6446 31.0409 17.1421 29.8277C16.6395 28.6144 16.3809 27.3141 16.3809 26.0009C16.3809 24.6876 16.6395 23.3873 17.1421 22.174C17.6446 20.9608 18.3812 19.8584 19.3098 18.9298C20.2384 18.0012 21.3408 17.2646 22.554 16.7621C23.7673 16.2595 25.0676 16.0009 26.3809 16.0009M26.3809 36.0009C29.4486 36.0009 30.7597 30.2642 30.7597 26.0009C30.7597 21.7375 29.4486 16.0009 26.3809 16.0009M26.3809 36.0009C23.3131 36.0009 22.002 30.2642 22.002 26.0009C22.002 21.7375 23.3131 16.0009 26.3809 16.0009M16.9364 22.6675H35.8253M16.9364 29.3342H35.8253" stroke="url(#paint2_linear_148_1539)" stroke-width="1.66667" stroke-linecap="round" stroke-linejoin="round"/>
<defs>
<filter id="filter0_f_148_1539" x="11.8183" y="11.8181" width="4.36364" height="4.36364" filterUnits="userSpaceOnUse" color-interpolation-filters="sRGB">
<feFlood flood-opacity="0" result="BackgroundImageFix"/>
<feBlend mode="normal" in="SourceGraphic" in2="BackgroundImageFix" result="shape"/>
<feGaussianBlur stdDeviation="0.545455" result="effect1_foregroundBlur_148_1539"/>
</filter>
<filter id="filter1_f_148_1539" x="11.8183" y="35.8181" width="4.36364" height="4.36364" filterUnits="userSpaceOnUse" color-interpolation-filters="sRGB">
<feFlood flood-opacity="0" result="BackgroundImageFix"/>
<feBlend mode="normal" in="SourceGraphic" in2="BackgroundImageFix" result="shape"/>
<feGaussianBlur stdDeviation="0.545455" result="effect1_foregroundBlur_148_1539"/>
</filter>
<filter id="filter2_f_148_1539" x="35.8183" y="11.8181" width="4.36364" height="4.36364" filterUnits="userSpaceOnUse" color-interpolation-filters="sRGB">
<feFlood flood-opacity="0" result="BackgroundImageFix"/>
<feBlend mode="normal" in="SourceGraphic" in2="BackgroundImageFix" result="shape"/>
<feGaussianBlur stdDeviation="0.545455" result="effect1_foregroundBlur_148_1539"/>
</filter>
<filter id="filter3_f_148_1539" x="35.8183" y="35.8181" width="4.36364" height="4.36364" filterUnits="userSpaceOnUse" color-interpolation-filters="sRGB">
<feFlood flood-opacity="0" result="BackgroundImageFix"/>
<feBlend mode="normal" in="SourceGraphic" in2="BackgroundImageFix" result="shape"/>
<feGaussianBlur stdDeviation="0.545455" result="effect1_foregroundBlur_148_1539"/>
</filter>
<radialGradient id="paint0_radial_148_1539" cx="0" cy="0" r="1" gradientUnits="userSpaceOnUse" gradientTransform="translate(24 -22.1176) rotate(90) scale(70.1176 39.8093)">
<stop stop-color="#219653"/>
<stop offset="0.801475" stop-color="#0E1015"/>
</radialGradient>
<radialGradient id="paint1_radial_148_1539" cx="0" cy="0" r="1" gradientUnits="userSpaceOnUse" gradientTransform="translate(24) rotate(90) scale(48)">
<stop stop-color="#1888FA"/>
<stop offset="1" stop-color="#0E1015"/>
</radialGradient>
<linearGradient id="paint2_linear_148_1539" x1="26.3809" y1="16.0009" x2="26.3809" y2="36.0009" gradientUnits="userSpaceOnUse">
<stop stop-color="#0F1116"/>
<stop offset="1" stop-color="#153E2A"/>
</linearGradient>
</defs>
</svg>
