<svg width="367" height="170" viewBox="0 0 367 170" fill="none" xmlns="http://www.w3.org/2000/svg">
<path d="M15 41.5H352C360.008 41.5 366.5 47.9919 366.5 56V169.5H0.5V56C0.5 47.9919 6.99187 41.5 15 41.5Z" fill="white" stroke="#EEEEEE"/>
<rect x="65" y="58" width="231" height="12" rx="2" fill="#EEEEEE"/>
<rect x="65" y="75" width="73" height="9" rx="2" fill="#EEEEEE"/>
<rect x="143" y="75" width="31" height="9" rx="2" fill="#EEEEEE"/>
<rect x="179" y="75" width="45" height="9" rx="2" fill="#EEEEEE"/>
<path d="M17 97L351 97" stroke="#EEEEEE"/>
<rect x="17" y="53" width="37" height="37" rx="10" fill="#00C1D1"/>
<path d="M16 169L93.0242 139.121C95.3272 138.227 97.8794 138.218 100.189 139.094L116.17 145.159C118.49 146.039 121.054 146.026 123.364 145.121L169.67 126.985C171.305 126.345 173.079 126.146 174.815 126.409L218.222 132.987C219.738 133.216 221.286 133.095 222.747 132.631L276.644 115.516C277.181 115.345 277.732 115.22 278.289 115.143L351 105" stroke="#00C1D1"/>
<path opacity="0.25" d="M93.0242 139.121L16 169H351V105L278.289 115.143C277.732 115.22 277.181 115.345 276.644 115.516L222.747 132.631C221.286 133.095 219.738 133.216 218.222 132.987L174.815 126.409C173.079 126.146 171.305 126.345 169.67 126.985L123.364 145.121C121.054 146.026 118.49 146.039 116.17 145.159L100.189 139.094C97.8794 138.218 95.3272 138.227 93.0242 139.121Z" fill="url(#paint0_linear_222_995)"/>
<circle opacity="0.25" cx="220.5" cy="132.5" r="9.5" fill="#01C1D1"/>
<circle cx="220.5" cy="132.5" r="5.5" fill="#01C1D1"/>
<rect x="235" y="110" width="121" height="32" rx="3.88889" fill="#01C1D1"/>
<rect x="235.5" y="110.5" width="120" height="31" rx="3.38889" stroke="white" stroke-opacity="0.25"/>
<path d="M244.034 132V130.477L248.074 126.517C248.46 126.127 248.782 125.78 249.04 125.477C249.297 125.174 249.491 124.881 249.619 124.597C249.748 124.312 249.812 124.009 249.812 123.688C249.812 123.32 249.729 123.006 249.562 122.744C249.396 122.479 249.167 122.275 248.875 122.131C248.583 121.987 248.252 121.915 247.881 121.915C247.498 121.915 247.163 121.994 246.875 122.153C246.587 122.309 246.364 122.53 246.205 122.818C246.049 123.106 245.972 123.449 245.972 123.847H243.966C243.966 123.108 244.134 122.466 244.472 121.92C244.809 121.375 245.273 120.953 245.864 120.653C246.458 120.354 247.14 120.205 247.909 120.205C248.689 120.205 249.375 120.35 249.966 120.642C250.557 120.934 251.015 121.333 251.341 121.841C251.67 122.348 251.835 122.928 251.835 123.58C251.835 124.015 251.752 124.443 251.585 124.864C251.419 125.284 251.125 125.75 250.705 126.261C250.288 126.773 249.703 127.392 248.949 128.119L246.943 130.159V130.239H252.011V132H244.034ZM257.988 132.159C257.17 132.159 256.442 132.019 255.806 131.739C255.173 131.458 254.673 131.068 254.306 130.568C253.938 130.068 253.743 129.491 253.721 128.835H255.857C255.876 129.15 255.98 129.424 256.17 129.659C256.359 129.89 256.611 130.07 256.925 130.199C257.24 130.328 257.592 130.392 257.982 130.392C258.399 130.392 258.768 130.32 259.09 130.176C259.412 130.028 259.664 129.824 259.846 129.562C260.028 129.301 260.117 129 260.113 128.659C260.117 128.307 260.026 127.996 259.84 127.727C259.654 127.458 259.385 127.248 259.033 127.097C258.685 126.945 258.264 126.869 257.772 126.869H256.743V125.244H257.772C258.177 125.244 258.531 125.174 258.834 125.034C259.141 124.894 259.382 124.697 259.556 124.443C259.73 124.186 259.815 123.888 259.812 123.551C259.815 123.222 259.742 122.936 259.59 122.693C259.442 122.447 259.232 122.256 258.959 122.119C258.69 121.983 258.374 121.915 258.01 121.915C257.654 121.915 257.325 121.979 257.022 122.108C256.719 122.237 256.474 122.42 256.289 122.659C256.103 122.894 256.005 123.174 255.993 123.5H253.965C253.98 122.848 254.168 122.277 254.528 121.784C254.891 121.288 255.376 120.902 255.982 120.625C256.588 120.345 257.268 120.205 258.022 120.205C258.798 120.205 259.473 120.35 260.045 120.642C260.62 120.93 261.065 121.318 261.38 121.807C261.694 122.295 261.851 122.835 261.851 123.426C261.855 124.081 261.662 124.631 261.272 125.074C260.885 125.517 260.378 125.807 259.749 125.943V126.034C260.567 126.148 261.194 126.451 261.63 126.943C262.069 127.432 262.287 128.04 262.283 128.767C262.283 129.419 262.098 130.002 261.726 130.517C261.359 131.028 260.851 131.43 260.204 131.722C259.56 132.013 258.821 132.159 257.988 132.159ZM270.295 129.818V129.205C270.295 128.754 270.39 128.339 270.579 127.96C270.772 127.581 271.053 127.277 271.42 127.045C271.787 126.814 272.233 126.699 272.755 126.699C273.293 126.699 273.744 126.814 274.108 127.045C274.471 127.273 274.746 127.576 274.931 127.955C275.121 128.333 275.216 128.75 275.216 129.205V129.818C275.216 130.269 275.121 130.684 274.931 131.062C274.742 131.441 274.464 131.746 274.096 131.977C273.733 132.208 273.286 132.324 272.755 132.324C272.225 132.324 271.776 132.208 271.409 131.977C271.041 131.746 270.763 131.441 270.573 131.062C270.388 130.684 270.295 130.269 270.295 129.818ZM271.778 129.205V129.818C271.778 130.117 271.85 130.392 271.994 130.642C272.138 130.892 272.392 131.017 272.755 131.017C273.123 131.017 273.375 130.894 273.511 130.648C273.651 130.398 273.721 130.121 273.721 129.818V129.205C273.721 128.902 273.655 128.625 273.522 128.375C273.39 128.121 273.134 127.994 272.755 127.994C272.399 127.994 272.147 128.121 272 128.375C271.852 128.625 271.778 128.902 271.778 129.205ZM264.38 123.159V122.545C264.38 122.091 264.477 121.674 264.67 121.295C264.863 120.917 265.144 120.614 265.511 120.386C265.878 120.155 266.323 120.04 266.846 120.04C267.38 120.04 267.829 120.155 268.193 120.386C268.56 120.614 268.837 120.917 269.022 121.295C269.208 121.674 269.301 122.091 269.301 122.545V123.159C269.301 123.614 269.206 124.03 269.017 124.409C268.831 124.784 268.555 125.085 268.187 125.312C267.82 125.54 267.373 125.653 266.846 125.653C266.312 125.653 265.861 125.54 265.494 125.312C265.13 125.085 264.854 124.782 264.664 124.403C264.475 124.025 264.38 123.61 264.38 123.159ZM265.875 122.545V123.159C265.875 123.462 265.945 123.739 266.085 123.989C266.229 124.235 266.483 124.358 266.846 124.358C267.21 124.358 267.46 124.235 267.596 123.989C267.736 123.739 267.806 123.462 267.806 123.159V122.545C267.806 122.242 267.74 121.966 267.608 121.716C267.475 121.462 267.221 121.335 266.846 121.335C266.486 121.335 266.234 121.462 266.091 121.716C265.947 121.97 265.875 122.246 265.875 122.545ZM265.028 132L273.028 120.364H274.448L266.448 132H265.028Z" fill="white"/>
<g opacity="0.25">
<rect x="280" y="115.889" width="68" height="9.33333" rx="1.55556" fill="white"/>
<rect x="280" y="129.111" width="43.6632" height="7" rx="1.55556" fill="white"/>
<rect x="326.526" y="129.111" width="18.6105" height="7" rx="1.55556" fill="white"/>
</g>
<path d="M33.9373 65.2502H35.4998H37.0623M39.9643 62.1252H31.0352C30.0498 62.1252 29.2498 62.9647 29.2498 64.0002V79.0002C29.2498 80.0356 30.0498 80.8752 31.0352 80.8752H39.9643C40.9508 80.8752 41.7498 80.0356 41.7498 79.0002V64.0002C41.7498 62.9647 40.9508 62.1252 39.9643 62.1252Z" stroke="white" stroke-width="1.25" stroke-linecap="round" stroke-linejoin="round"/>
<defs>
<linearGradient id="paint0_linear_222_995" x1="183.5" y1="105" x2="183.5" y2="169" gradientUnits="userSpaceOnUse">
<stop stop-color="#00C1D1"/>
<stop offset="1" stop-color="#00C1D1" stop-opacity="0"/>
</linearGradient>
</defs>
</svg>
