<svg width="337" height="170" viewBox="0 0 337 170" fill="none" xmlns="http://www.w3.org/2000/svg">
<rect x="0.5" y="-0.5" width="296" height="75" rx="9.5" transform="matrix(1 0 0 -1 20 145)" fill="white" stroke="#EEEEEE"/>
<rect x="0.5" y="-0.5" width="316" height="75" rx="9.5" transform="matrix(1 0 0 -1 10 135)" fill="white" stroke="#EEEEEE"/>
<rect x="0.5" y="-0.5" width="336" height="101" rx="9.5" transform="matrix(1 0 0 -1 0 125)" fill="white" stroke="#EEEEEE"/>
<path opacity="0.8" d="M41.3352 81.2216C40.3996 81.2216 39.5966 80.9848 38.9261 80.5114C38.2595 80.0341 37.7462 79.3466 37.3864 78.4489C37.0303 77.5473 36.8523 76.4621 36.8523 75.1932C36.8561 73.9242 37.036 72.8447 37.392 71.9545C37.7519 71.0606 38.2652 70.3788 38.9318 69.9091C39.6023 69.4394 40.4034 69.2045 41.3352 69.2045C42.267 69.2045 43.0682 69.4394 43.7386 69.9091C44.4091 70.3788 44.9223 71.0606 45.2784 71.9545C45.6383 72.8485 45.8182 73.928 45.8182 75.1932C45.8182 76.4659 45.6383 77.553 45.2784 78.4545C44.9223 79.3523 44.4091 80.0379 43.7386 80.5114C43.072 80.9848 42.2708 81.2216 41.3352 81.2216ZM41.3352 79.4432C42.0625 79.4432 42.6364 79.0852 43.0568 78.3693C43.4811 77.6496 43.6932 76.5909 43.6932 75.1932C43.6932 74.2689 43.5966 73.4924 43.4034 72.8636C43.2102 72.2348 42.9375 71.7614 42.5852 71.4432C42.233 71.1212 41.8163 70.9602 41.3352 70.9602C40.6117 70.9602 40.0398 71.3201 39.6193 72.0398C39.1989 72.7557 38.9867 73.8068 38.983 75.1932C38.9792 76.1212 39.072 76.9015 39.2614 77.5341C39.4545 78.1667 39.7273 78.6439 40.0795 78.9659C40.4318 79.2841 40.8504 79.4432 41.3352 79.4432ZM48.3826 81.125C48.0379 81.125 47.7425 81.0038 47.4963 80.7614C47.25 80.5189 47.1288 80.2235 47.1326 79.875C47.1288 79.5341 47.25 79.2424 47.4963 79C47.7425 78.7576 48.0379 78.6364 48.3826 78.6364C48.7159 78.6364 49.0057 78.7576 49.2519 79C49.5019 79.2424 49.6288 79.5341 49.6326 79.875C49.6288 80.1061 49.5682 80.3163 49.4508 80.5057C49.3372 80.6951 49.1856 80.8466 48.9963 80.9602C48.8106 81.0701 48.6061 81.125 48.3826 81.125ZM55.4783 81.1591C54.7207 81.1591 54.0427 81.017 53.4442 80.733C52.8457 80.4451 52.3703 80.0511 52.0181 79.5511C51.6696 79.0511 51.484 78.4792 51.4613 77.8352H53.5067C53.5446 78.3125 53.751 78.7027 54.126 79.0057C54.501 79.3049 54.9518 79.4545 55.4783 79.4545C55.8912 79.4545 56.2586 79.3598 56.5806 79.1705C56.9025 78.9811 57.1563 78.7178 57.3419 78.3807C57.5275 78.0436 57.6184 77.6591 57.6147 77.2273C57.6184 76.7879 57.5256 76.3977 57.3363 76.0568C57.1469 75.7159 56.8874 75.4489 56.5578 75.2557C56.2283 75.0587 55.8495 74.9602 55.4215 74.9602C55.073 74.9564 54.7302 75.0208 54.3931 75.1534C54.0559 75.286 53.7889 75.4602 53.5919 75.6761L51.6885 75.3636L52.2965 69.3636H59.0465V71.125H54.0408L53.7056 74.2102H53.7738C53.9897 73.9564 54.2946 73.7462 54.6885 73.5795C55.0825 73.4091 55.5143 73.3239 55.984 73.3239C56.6885 73.3239 57.3173 73.4905 57.8703 73.8239C58.4234 74.1534 58.859 74.608 59.1772 75.1875C59.4953 75.767 59.6544 76.4299 59.6544 77.1761C59.6544 77.9451 59.4764 78.6307 59.1203 79.233C58.7681 79.8314 58.2775 80.303 57.6488 80.6477C57.0238 80.9886 56.3003 81.1591 55.4783 81.1591ZM68.3183 74.5795L66.4433 74.7841C66.3903 74.5947 66.2975 74.4167 66.1649 74.25C66.0361 74.0833 65.8619 73.9489 65.6422 73.8466C65.4225 73.7443 65.1535 73.6932 64.8353 73.6932C64.4073 73.6932 64.0475 73.786 63.7558 73.9716C63.4679 74.1572 63.3259 74.3977 63.3297 74.6932C63.3259 74.947 63.4187 75.1534 63.6081 75.3125C63.8013 75.4716 64.1194 75.6023 64.5626 75.7045L66.0513 76.0227C66.877 76.2008 67.4906 76.483 67.8922 76.8693C68.2975 77.2557 68.502 77.7614 68.5058 78.3864C68.502 78.9356 68.341 79.4205 68.0228 79.8409C67.7084 80.2576 67.2709 80.5833 66.7103 80.8182C66.1497 81.053 65.5058 81.1705 64.7785 81.1705C63.7103 81.1705 62.8505 80.947 62.199 80.5C61.5475 80.0492 61.1592 79.4223 61.0342 78.6193L63.0399 78.4261C63.1308 78.8201 63.324 79.1174 63.6194 79.3182C63.9149 79.5189 64.2994 79.6193 64.7728 79.6193C65.2615 79.6193 65.6535 79.5189 65.949 79.3182C66.2482 79.1174 66.3978 78.8693 66.3978 78.5739C66.3978 78.3239 66.3013 78.1174 66.1081 77.9545C65.9187 77.7917 65.6232 77.6667 65.2217 77.5795L63.7331 77.267C62.8959 77.0928 62.2766 76.7992 61.8751 76.3864C61.4736 75.9697 61.2747 75.4432 61.2785 74.8068C61.2747 74.2689 61.4206 73.803 61.716 73.4091C62.0153 73.0114 62.43 72.7045 62.9603 72.4886C63.4944 72.2689 64.11 72.1591 64.8069 72.1591C65.8297 72.1591 66.6346 72.3769 67.2217 72.8125C67.8126 73.2481 68.1781 73.8371 68.3183 74.5795Z" fill="#222222"/>
<rect x="107" y="46" width="101" height="20" rx="2" fill="#EEEEEE"/>
<rect x="212" y="46" width="26" height="20" rx="2" fill="#EEEEEE"/>
<rect x="107" y="74" width="182" height="12" rx="2" fill="#EEEEEE"/>
<rect x="107" y="91" width="73" height="9" rx="2" fill="#EEEEEE"/>
<rect x="185" y="91" width="31" height="9" rx="2" fill="#EEEEEE"/>
<path opacity="0.25" d="M53 45C56.9397 45 60.8407 45.776 64.4805 47.2836C68.1203 48.7913 71.4274 51.001 74.2132 53.7868C76.999 56.5726 79.2087 59.8797 80.7164 63.5195C82.224 67.1593 83 71.0603 83 75C83 78.9397 82.224 82.8407 80.7164 86.4805C79.2087 90.1203 76.999 93.4274 74.2132 96.2132C71.4274 98.999 68.1203 101.209 64.4805 102.716C60.8407 104.224 56.9397 105 53 105C49.0603 105 45.1593 104.224 41.5195 102.716C37.8797 101.209 34.5726 98.999 31.7868 96.2132C29.001 93.4274 26.7913 90.1203 25.2836 86.4805C23.776 82.8407 23 78.9397 23 75C23 71.0603 23.776 67.1593 25.2836 63.5195C26.7913 59.8797 29.001 56.5726 31.7868 53.7868C34.5726 51.001 37.8797 48.7913 41.5195 47.2836C45.1593 45.776 49.0603 45 53 45L53 45Z" stroke="#00C153" stroke-width="6"/>
<path d="M53 45C59.9407 45 66.6666 47.4066 72.0318 51.8097C77.397 56.2128 81.0695 62.34 82.4236 69.1473C83.7776 75.9546 82.7294 83.0208 79.4576 89.1419C76.1858 95.263 70.8928 100.06 64.4805 102.716C58.0682 105.372 50.9333 105.723 44.2915 103.708C37.6497 101.693 31.9119 97.4381 28.0559 91.6671C24.1999 85.8962 22.4642 78.9667 23.1445 72.0595C23.8248 65.1523 26.879 58.6946 31.7868 53.7868" stroke="#00C153" stroke-width="6"/>
<g filter="url(#filter0_i_222_996)">
<circle cx="53.5" cy="105.5" r="9.22862" transform="rotate(-8.56403 53.5 105.5)" fill="url(#paint0_linear_222_996)"/>
</g>
<circle cx="53.5" cy="105.5" r="8.72862" transform="rotate(-8.56403 53.5 105.5)" stroke="#058A3E"/>
<path d="M57.0207 101.61L51.9047 108.54L48.7547 106.215" stroke="white" stroke-width="1.47658" stroke-linecap="round" stroke-linejoin="round"/>
<defs>
<filter id="filter0_i_222_996" x="44.2701" y="96.27" width="18.4597" height="18.4598" filterUnits="userSpaceOnUse" color-interpolation-filters="sRGB">
<feFlood flood-opacity="0" result="BackgroundImageFix"/>
<feBlend mode="normal" in="SourceGraphic" in2="BackgroundImageFix" result="shape"/>
<feColorMatrix in="SourceAlpha" type="matrix" values="0 0 0 0 0 0 0 0 0 0 0 0 0 0 0 0 0 0 127 0" result="hardAlpha"/>
<feOffset dy="2.95316"/>
<feComposite in2="hardAlpha" operator="arithmetic" k2="-1" k3="1"/>
<feColorMatrix type="matrix" values="0 0 0 0 1 0 0 0 0 1 0 0 0 0 1 0 0 0 0.1 0"/>
<feBlend mode="normal" in2="shape" result="effect1_innerShadow_222_996"/>
</filter>
<linearGradient id="paint0_linear_222_996" x1="53.5" y1="96.2713" x2="53.5" y2="114.729" gradientUnits="userSpaceOnUse">
<stop stop-color="#00C153"/>
<stop offset="1" stop-color="#009741"/>
</linearGradient>
</defs>
</svg>
