<svg width="98" height="22" viewBox="0 0 98 22" fill="none" xmlns="http://www.w3.org/2000/svg">
<g clip-path="url(#clip0_2238_18838)">
<path fill-rule="evenodd" clip-rule="evenodd" d="M11.4554 17.6284C12.919 18.7102 13.8099 19.9193 13.8099 21.1284V21.192H17.3735V21.1284C17.3735 19.9829 18.0735 18.9011 19.6645 17.8829L19.7281 17.8193H19.7917V13.3647C19.6645 13.4284 19.6008 13.492 19.5372 13.5556L19.4099 13.6193C18.7735 14.0011 18.2008 14.3193 17.7554 14.7011L17.6917 14.7647C16.9281 15.3375 16.1645 15.9738 15.5917 16.6738C15.019 15.9738 14.319 15.3375 13.4917 14.7647C12.9826 14.3829 12.4099 14.0647 11.7735 13.6829L11.6463 13.6193C11.5826 13.5556 11.519 13.5556 11.3917 13.492L10.3099 12.8556C10.119 12.7284 9.99172 12.6647 9.86445 12.6011L9.73718 12.5375C9.03718 12.1556 8.40082 11.7738 7.82809 11.392C6.74627 10.6284 6.04627 9.86474 5.66445 9.03747C5.40991 8.46474 5.34627 7.95565 5.34627 7.44656C5.34627 5.6011 6.80991 4.13747 8.65536 4.13747C10.5008 4.13747 11.9645 5.6011 11.9645 7.44656C11.9645 7.95565 11.9008 8.46474 11.6463 9.03747C11.3281 9.73747 10.7554 10.4375 9.92809 11.0738C10.0554 11.1375 10.2463 11.2647 10.4372 11.3284L10.5645 11.392L10.6281 11.4556L11.4554 11.9647C11.9008 12.2193 12.1554 12.3466 12.2826 12.4738L12.4735 12.6011C12.7281 12.7284 12.919 12.8556 13.1099 12.9829L13.1735 13.0466C13.9372 12.2829 14.5099 11.4556 14.8917 10.6284C15.4008 9.54656 15.5281 8.52838 15.5281 7.57383C15.5281 3.81929 12.4735 0.76474 8.719 0.701104H8.59173H8.46445C4.83718 0.573831 1.84627 3.62838 1.84627 7.38292C1.84627 8.4011 2.03718 9.41929 2.48264 10.4375C3.119 11.8375 4.26445 13.1738 5.85536 14.2556C6.55536 14.7011 7.25536 15.1466 8.019 15.592C8.08263 15.6556 8.14627 15.6556 8.27354 15.7193L9.48263 16.4193C9.60991 16.4829 9.73718 16.5466 9.80082 16.6102L9.92809 16.6738C10.6281 17.0556 11.0735 17.3102 11.4554 17.6284ZM5.15536 15.3375C4.77354 15.0829 4.39173 14.8284 4.07354 14.5102C4.00991 14.6375 3.94627 14.6375 3.88263 14.7011C2.86445 15.4647 1.97354 16.292 1.33718 17.2466C0.509908 18.4556 0.0644531 19.7284 0.0644531 21.1284H3.62809C3.62809 19.9193 4.519 18.6466 5.98263 17.5647C6.36445 17.3102 6.74627 17.0556 7.25536 16.7375L7.38263 16.6738L7.319 16.6102C6.49173 16.2284 5.79173 15.7829 5.15536 15.3375Z" fill="#0540F7"/>
<path d="M28.4451 15.4019C28.3815 15.4019 28.3179 15.3383 28.2542 15.3383C28.1906 15.2747 28.127 15.211 28.127 15.0838V6.9383C28.127 6.87466 28.1906 6.74739 28.2542 6.68375C28.3179 6.62012 28.3815 6.62012 28.4451 6.62012H29.5906C29.7179 6.62012 29.7815 6.68375 29.8451 6.74739C29.9088 6.81103 29.9724 6.87466 29.9724 6.87466L32.2633 11.1383L34.6179 6.87466C34.6179 6.81103 34.6815 6.81103 34.7451 6.74739C34.8088 6.68375 34.8724 6.62012 34.9997 6.62012H36.2724C36.336 6.62012 36.4633 6.68375 36.527 6.68375C36.5906 6.68375 36.5906 6.81103 36.5906 6.9383V15.0838C36.5906 15.1474 36.527 15.2747 36.527 15.3383C36.4633 15.4019 36.3997 15.4019 36.2724 15.4019H34.9997C34.936 15.4019 34.8724 15.3383 34.8088 15.3383C34.7451 15.2747 34.7451 15.211 34.7451 15.0838V9.99284L33.0906 12.9838C33.027 13.0474 32.9633 13.111 32.8997 13.1747C32.836 13.2383 32.7724 13.2383 32.6451 13.2383H32.0724C31.9451 13.2383 31.8815 13.1747 31.8179 13.1747C31.7542 13.111 31.6906 13.0474 31.627 12.9838L30.036 9.99284V15.0838C30.036 15.1474 29.9724 15.2747 29.9724 15.3383C29.9088 15.4019 29.8451 15.4019 29.7815 15.4019H28.4451Z" fill="black"/>
<path d="M41.555 15.5292C40.7914 15.5292 40.155 15.4019 39.6459 15.1474C39.0732 14.8928 38.6914 14.511 38.3732 14.0019C38.055 13.4928 37.9277 12.8565 37.9277 12.0292V6.9383C37.9277 6.87466 37.9914 6.74739 37.9914 6.68375C38.055 6.62012 38.1186 6.62012 38.2459 6.62012H39.6459C39.7096 6.62012 39.8368 6.68375 39.9005 6.68375C39.9641 6.68375 39.9641 6.81103 39.9641 6.9383V12.0292C39.9641 12.6656 40.0914 13.111 40.4096 13.4292C40.7277 13.7474 41.1096 13.8747 41.6186 13.8747C42.1277 13.8747 42.5732 13.7474 42.8277 13.4292C43.1459 13.111 43.2732 12.6656 43.2732 12.0292V6.9383C43.2732 6.87466 43.3368 6.74739 43.4005 6.68375C43.4641 6.62012 43.5277 6.62012 43.5914 6.62012H44.9914C45.055 6.62012 45.1186 6.68375 45.1823 6.68375C45.2459 6.68375 45.2459 6.81103 45.2459 6.9383V12.0292C45.2459 12.8565 45.1186 13.4928 44.8005 14.0019C44.4823 14.511 44.1005 14.8928 43.5277 15.1474C42.955 15.4019 42.3186 15.5292 41.555 15.5292Z" fill="black"/>
<path d="M46.8983 15.4019C46.8346 15.4019 46.7074 15.3383 46.6437 15.3383C46.5801 15.2747 46.5801 15.211 46.5801 15.0838V6.9383C46.5801 6.87466 46.6437 6.74739 46.6437 6.68375C46.6437 6.62012 46.771 6.62012 46.8983 6.62012H48.2983C48.3619 6.62012 48.4892 6.68375 48.5528 6.68375C48.6164 6.68375 48.6164 6.81103 48.6164 6.9383V13.7474H52.4983C52.5619 13.7474 52.6892 13.811 52.7528 13.811C52.8164 13.8747 52.8164 13.9383 52.8164 14.0019V15.0838C52.8164 15.1474 52.7528 15.2747 52.7528 15.3383C52.6892 15.4019 52.6255 15.4019 52.4983 15.4019H46.8983Z" fill="black"/>
<path d="M54.4086 15.4019C54.3449 15.4019 54.2176 15.3383 54.154 15.3383C54.0904 15.211 54.0904 15.1474 54.0904 15.0838V8.3383H51.7995C51.7358 8.3383 51.6722 8.27466 51.6086 8.27466C51.5449 8.21103 51.5449 8.14739 51.5449 8.08375V6.9383C51.5449 6.87466 51.6086 6.74739 51.6086 6.68375C51.6086 6.62012 51.7358 6.62012 51.7995 6.62012H58.354C58.4176 6.62012 58.5449 6.68375 58.6086 6.68375C58.6722 6.68375 58.6722 6.81103 58.6722 6.9383V8.08375C58.6722 8.14739 58.6086 8.21103 58.6086 8.27466C58.6086 8.3383 58.4813 8.3383 58.354 8.3383H56.0631V15.0838C56.0631 15.1474 55.9995 15.2747 55.9995 15.3383C55.9358 15.4019 55.8722 15.4019 55.7449 15.4019H54.4086Z" fill="black"/>
<path d="M60.2635 15.4019C60.1999 15.4019 60.0726 15.3383 60.009 15.3383C59.9453 15.2747 59.9453 15.211 59.9453 15.0838V6.9383C59.9453 6.87466 60.009 6.74739 60.009 6.68375C60.009 6.62012 60.1362 6.62012 60.2635 6.62012H61.6635C61.7271 6.62012 61.8544 6.68375 61.918 6.68375C61.9817 6.68375 61.9817 6.81103 61.9817 6.9383V15.0838C61.9817 15.1474 61.918 15.2747 61.918 15.3383C61.8544 15.4019 61.7908 15.4019 61.6635 15.4019H60.2635Z" fill="black"/>
<path d="M63.701 15.4019C63.6374 15.4019 63.5101 15.3383 63.4464 15.3383C63.3828 15.2747 63.3828 15.211 63.3828 15.0838V6.9383C63.3828 6.87466 63.4464 6.74739 63.4464 6.68375C63.4464 6.62012 63.5737 6.62012 63.701 6.62012H65.101C65.1646 6.62012 65.2919 6.68375 65.3555 6.68375C65.4192 6.68375 65.4192 6.81103 65.4192 6.9383V13.7474H69.301C69.3646 13.7474 69.4919 13.811 69.5555 13.811C69.6192 13.8747 69.6192 13.9383 69.6192 14.0656V15.1474C69.6192 15.211 69.5555 15.3383 69.5555 15.4019C69.4919 15.4656 69.4283 15.4656 69.301 15.4656L63.701 15.4019Z" fill="black"/>
<path d="M74.1374 15.5286C73.3737 15.5286 72.7374 15.4013 72.1646 15.1467C71.5919 14.8922 71.2101 14.5104 70.8919 14.0013C70.5737 13.4922 70.4464 12.8558 70.3828 12.0922C70.3828 11.7104 70.3828 11.3922 70.3828 11.0104C70.3828 10.6286 70.3828 10.3104 70.3828 9.92855C70.3828 9.16492 70.5737 8.52855 70.8919 8.01946C71.2101 7.51037 71.6555 7.12855 72.1646 6.87401C72.7374 6.61946 73.3737 6.49219 74.1374 6.49219C74.901 6.49219 75.5374 6.61946 76.0464 6.87401C76.6192 7.12855 77.0646 7.51037 77.3828 8.01946C77.701 8.52855 77.8919 9.16492 77.8919 9.92855C77.8919 10.3104 77.8919 10.6286 77.8919 11.0104C77.8919 11.3922 77.8919 11.7104 77.8919 12.0922C77.8919 12.8558 77.701 13.4922 77.3828 14.0013C77.0646 14.5104 76.6192 14.8922 76.1101 15.1467C75.5374 15.4013 74.8374 15.5286 74.1374 15.5286ZM74.1374 13.874C74.6464 13.874 75.0283 13.7467 75.3465 13.4286C75.6646 13.1104 75.7919 12.6649 75.8555 12.0286C75.8555 11.6467 75.8555 11.3286 75.8555 11.0104C75.8555 10.6922 75.8555 10.374 75.8555 9.99219C75.8555 9.54673 75.7919 9.22855 75.601 8.91037C75.4737 8.65582 75.2828 8.46491 75.0283 8.27401C74.7737 8.14673 74.5192 8.0831 74.1374 8.0831C73.8192 8.0831 73.501 8.14673 73.2464 8.27401C72.9919 8.40128 72.801 8.59219 72.6737 8.91037C72.5464 9.16491 72.4192 9.54673 72.4192 9.99219C72.4192 10.374 72.4192 10.6922 72.4192 11.0104C72.4192 11.3286 72.4192 11.7104 72.4192 12.0286C72.4192 12.6649 72.6101 13.174 72.9283 13.4286C73.2464 13.7467 73.6283 13.874 74.1374 13.874Z" fill="black"/>
<path d="M82.5369 15.5284C81.7733 15.5284 81.0733 15.4011 80.5006 15.1466C79.9278 14.892 79.546 14.5102 79.2278 14.0011C78.9097 13.492 78.7824 12.8557 78.7188 12.1557C78.7188 11.7738 78.7188 11.392 78.7188 11.0102C78.7188 10.6284 78.7188 10.1829 78.7188 9.86475C78.7188 9.16475 78.9097 8.59203 79.2278 8.08294C79.546 7.57385 79.9915 7.19203 80.5006 6.93748C81.0733 6.68294 81.7097 6.55566 82.4733 6.55566C83.1097 6.55566 83.6188 6.6193 84.1278 6.81021C84.6369 7.00112 85.0188 7.19203 85.2733 7.44657C85.5915 7.70112 85.846 7.95566 85.9733 8.27385C86.1642 8.59203 86.2278 8.84657 86.2278 9.16475C86.2278 9.22839 86.2278 9.29203 86.1642 9.35566C86.1006 9.4193 86.0369 9.4193 85.9733 9.4193H84.446C84.3824 9.4193 84.3187 9.4193 84.2551 9.35566C84.1915 9.29203 84.1915 9.29203 84.1278 9.22839C84.0642 9.10112 84.0006 8.91021 83.8733 8.78294C83.746 8.65566 83.5551 8.46475 83.3642 8.40112C83.1733 8.27385 82.8551 8.21021 82.5369 8.21021C82.0278 8.21021 81.5824 8.33748 81.2642 8.59203C80.946 8.84657 80.8188 9.29203 80.7551 9.92839C80.7551 10.6284 80.7551 11.392 80.7551 12.092C80.7551 12.7284 80.946 13.2375 81.2642 13.492C81.5824 13.7466 82.0278 13.9375 82.5369 13.9375C82.8551 13.9375 83.1733 13.8738 83.4278 13.7466C83.6824 13.6193 83.9369 13.4284 84.0642 13.1738C84.2551 12.9193 84.3188 12.6011 84.3188 12.1557V11.8375H82.9188C82.8551 11.8375 82.7915 11.7738 82.7278 11.7102C82.6642 11.6466 82.6642 11.5829 82.6642 11.5193V10.692C82.6642 10.6284 82.7278 10.5011 82.7278 10.4375C82.7278 10.3738 82.8551 10.3738 82.9188 10.3738H85.9733C86.0369 10.3738 86.1642 10.4375 86.2278 10.4375C86.2915 10.4375 86.2915 10.5648 86.2915 10.692V12.092C86.2915 12.792 86.1642 13.4284 85.846 13.9375C85.5278 14.4466 85.0824 14.8284 84.5097 15.0829C84.0006 15.3375 83.3006 15.5284 82.5369 15.5284Z" fill="black"/>
<path d="M87.7557 15.4019C87.692 15.4019 87.5648 15.3383 87.5011 15.3383C87.4375 15.2747 87.4375 15.211 87.4375 15.0838V6.9383C87.4375 6.87466 87.5011 6.74739 87.5011 6.68375C87.5011 6.62012 87.6284 6.62012 87.7557 6.62012H89.1557C89.2193 6.62012 89.3466 6.68375 89.4102 6.68375C89.4739 6.68375 89.4739 6.81103 89.4739 6.9383V15.0838C89.4739 15.1474 89.4102 15.2747 89.4102 15.3383C89.3466 15.4019 89.283 15.4019 89.1557 15.4019H87.7557Z" fill="black"/>
<path d="M91.2537 15.4011C91.1901 15.4011 91.0628 15.3375 90.9992 15.3375C90.9356 15.2738 90.9355 15.2102 90.9355 15.0829V6.93748C90.9355 6.87385 90.9992 6.74657 90.9992 6.68294C90.9992 6.6193 91.1265 6.6193 91.2537 6.6193H92.3992C92.5265 6.6193 92.5901 6.68294 92.6537 6.68294C92.7174 6.68294 92.781 6.81021 92.781 6.81021L96.1537 12.0284V6.87385C96.1537 6.81021 96.2174 6.68294 96.2174 6.6193C96.2174 6.55566 96.3446 6.55566 96.4083 6.55566H97.681C97.7446 6.55566 97.8719 6.6193 97.9355 6.6193C97.9992 6.6193 97.9992 6.74657 97.9992 6.87385V15.0193C97.9992 15.0829 97.9355 15.1466 97.9355 15.2102C97.8719 15.2738 97.8083 15.3375 97.681 15.3375H96.5355C96.4083 15.3375 96.3446 15.2738 96.281 15.2102C96.2174 15.1466 96.1537 15.0829 96.1537 15.0829L92.8446 9.99203V14.9557C92.8446 15.0193 92.781 15.1466 92.781 15.2102C92.781 15.2738 92.6537 15.2738 92.5265 15.2738L91.2537 15.4011Z" fill="black"/>
</g>
<defs>
<clipPath id="clip0_2238_18838">
<rect width="98" height="21.6364" fill="white"/>
</clipPath>
</defs>
</svg>
