<?xml version="1.0" encoding="UTF-8"?>
<svg id="Layer_1" xmlns="http://www.w3.org/2000/svg" xmlns:xlink="http://www.w3.org/1999/xlink" version="1.1" viewBox="0 0 592 253">
  <!-- Generator: Adobe Illustrator 29.0.1, SVG Export Plug-In . SVG Version: 2.1.0 Build 192)  -->
  <defs>
    <style>
      .st0 {
        fill: url(#linear-gradient2);
      }

      .st1 {
        fill: url(#linear-gradient1);
      }

      .st2 {
        fill: url(#linear-gradient3);
      }

      .st3 {
        fill: url(#linear-gradient4);
      }

      .st4 {
        stroke-width: 1.7px;
      }

      .st4, .st5, .st6, .st7 {
        fill: none;
      }

      .st4, .st5, .st7 {
        stroke: #3972ff;
      }

      .st5 {
        stroke-width: 1.7px;
      }

      .st8 {
        fill: #fafafa;
        fill-opacity: .2;
      }

      .st9 {
        fill: #fff;
      }

      .st10 {
        fill: #ff3939;
      }

      .st11 {
        fill: #232b41;
      }

      .st6 {
        stroke: #ff3939;
      }

      .st6, .st7 {
        stroke-width: 2.3px;
      }

      .st12 {
        fill: url(#linear-gradient);
        isolation: isolate;
        opacity: .1;
      }

      .st13 {
        fill: #e5eaf7;
      }

      .st14 {
        fill: #eee;
      }

      .st15 {
        fill: #3972ff;
      }
    </style>
    <linearGradient id="linear-gradient" x1="302" y1="1" x2="302" y2="33.9" gradientTransform="translate(0 254) scale(1 -1)" gradientUnits="userSpaceOnUse">
      <stop offset="0" stop-color="#fff"/>
      <stop offset="0" stop-color="#f6f7fa"/>
      <stop offset=".4" stop-color="#e1e5ef"/>
      <stop offset=".7" stop-color="#d4dae8"/>
      <stop offset="1" stop-color="#d0d7e6"/>
    </linearGradient>
    <linearGradient id="linear-gradient1" x1="298.5" y1="236.1" x2="298.5" y2="50.8" gradientTransform="translate(0 254) scale(1 -1)" gradientUnits="userSpaceOnUse">
      <stop offset="0" stop-color="#fff" stop-opacity=".2"/>
      <stop offset="1" stop-color="#fff" stop-opacity="0"/>
    </linearGradient>
    <linearGradient id="linear-gradient2" x1="200.5" y1="239.5" x2="200.5" y2="159.7" gradientTransform="translate(0 254) scale(1 -1)" gradientUnits="userSpaceOnUse">
      <stop offset="0" stop-color="#fff" stop-opacity=".2"/>
      <stop offset="1" stop-color="#fff" stop-opacity="0"/>
    </linearGradient>
    <linearGradient id="linear-gradient3" x1="99" y1="215.4" x2="115.8" y2="42.3" gradientTransform="translate(0 254) scale(1 -1)" gradientUnits="userSpaceOnUse">
      <stop offset="0" stop-color="#fff" stop-opacity=".2"/>
      <stop offset="1" stop-color="#fff" stop-opacity="0"/>
    </linearGradient>
    <linearGradient id="linear-gradient4" x1="488.5" y1="214.8" x2="479.1" y2="41.7" gradientTransform="translate(0 254) scale(1 -1)" gradientUnits="userSpaceOnUse">
      <stop offset="0" stop-color="#fff" stop-opacity=".2"/>
      <stop offset="1" stop-color="#fff" stop-opacity="0"/>
    </linearGradient>
  </defs>
  <path class="st12" d="M228.7,225.6c-35.7,12.6-12.8,29.2,42.6,26.3,55.4-2.8,93,8.5,115.6-8.5,22.5-16.9-27.5-23.4-78.8-23.3-51.3,0-64.8.3-79.4,5.5h0Z"/>
  <g>
    <path class="st15" d="M297.6,17.9s0,0,0,0c-40.2,0-60.5,25.8-65,57.7-4.5,32-7.6,40.6-21.3,24.7-13.8-15.8-19.3,4.5-4.5,19.9,14.8,15.5,20.6,14.1,18.9,37.1-1.7,23-5.2,46.1,12,45.4,17.2-.7,17.9-18.2,27.5-18.2s10.7,21.3,28.2,18.2,11.5-17.2,25.8-19.3c4.8-.7,4.5,16.2,25.1,15.1,20.6-1,15.8-13.1,22.3-17.5,6.5-4.5,15.1,8.2,26.1-.3,11-8.6.3-15.5,4.5-25.4,4.1-10,0-20.6-5.5-20.6s-10.7,10.7-17.5,9.3-10.3-11.3-10.3-25.4,7.9-100.7-66.3-100.7c0,0,0,0,0,0Z"/>
    <path class="st1" d="M297.6,17.9s0,0,0,0c-40.2,0-60.5,25.8-65,57.7-4.5,32-7.6,40.6-21.3,24.7-13.8-15.8-19.3,4.5-4.5,19.9,14.8,15.5,20.6,14.1,18.9,37.1-1.7,23-5.2,46.1,12,45.4,17.2-.7,17.9-18.2,27.5-18.2s10.7,21.3,28.2,18.2,11.5-17.2,25.8-19.3c4.8-.7,4.5,16.2,25.1,15.1,20.6-1,15.8-13.1,22.3-17.5,6.5-4.5,15.1,8.2,26.1-.3,11-8.6.3-15.5,4.5-25.4,4.1-10,0-20.6-5.5-20.6s-10.7,10.7-17.5,9.3-10.3-11.3-10.3-25.4,7.9-100.7-66.3-100.7c0,0,0,0,0,0Z"/>
    <path class="st7" d="M226.9,157.6h0c.9-11.6-.1-17.3-3.5-22.1-1.6-2.4-3.8-4.4-6.4-6.8-.4-.3-.7-.7-1.1-1-2.4-2.2-5.1-4.7-8.3-8-3.6-3.8-5.9-7.8-7.2-11.5-1.3-3.7-1.5-7-1-9.2.3-1.1.7-1.9,1.3-2.4.5-.5,1.1-.7,2-.7,1.7,0,4.4,1.4,7.8,5.3,3.4,4,6.4,6.6,8.9,7.6,1.3.5,2.6.7,3.9.3,1.2-.4,2.2-1.2,3.1-2.4,1.7-2.3,2.9-6.1,4.1-11.1,1.1-5.1,2.2-11.7,3.3-19.7,2.2-15.8,8.3-30,18.8-40.2,10.4-10.2,25.2-16.5,45-16.6,0,0,0,0,.1,0,18.3,0,31.5,5.3,40.9,13.5,9.5,8.2,15.4,19.2,19,30.8,6.2,20,5.6,41.3,5.4,51.4,0,1.6,0,2.9,0,3.9,0,7.1.9,13.3,2.7,17.9,1.8,4.6,4.6,7.9,8.6,8.6,2,.4,3.9,0,5.6-1,1.7-.9,3.2-2.2,4.6-3.4.3-.3.6-.6.9-.8,1.1-1,2.1-1.9,3.1-2.6,1.3-.9,2.4-1.4,3.4-1.4s2,.5,2.9,1.5c.9,1,1.8,2.5,2.3,4.3,1.1,3.7,1.1,8.5-.8,13.3-1.9,4.5-.9,8.5-.2,11.9.2.7.3,1.4.4,2,.4,2,.5,3.7,0,5.5-.5,1.7-1.8,3.6-4.4,5.6h0c-2.6,2-4.9,2.7-7.1,2.8-2.2,0-4.4-.5-6.5-1.3-.6-.2-1.2-.4-1.8-.7-1.5-.6-3-1.1-4.4-1.5-2.1-.5-4.2-.5-6.2.9-1.9,1.3-2.9,3.1-3.7,5-.3.6-.5,1.2-.7,1.8-.5,1.3-1,2.5-1.7,3.7-1,1.7-2.4,3.3-4.7,4.5-2.4,1.2-5.8,2.2-10.8,2.4-5,.2-8.6-.6-11.4-1.9-2.7-1.3-4.7-3.2-6.1-5.1-1-1.3-1.8-2.5-2.5-3.7-.4-.6-.7-1.2-1.1-1.7-.5-.8-1-1.5-1.7-2-.7-.5-1.5-.9-2.5-.7l.2,1.1-.2-1.1c-3.8.5-6.3,1.9-8.2,3.7-1.7,1.6-2.8,3.6-3.9,5.5-.1.2-.2.4-.3.6-1.2,2.1-2.5,4-4.4,5.7-1.9,1.6-4.7,3-8.9,3.8-4.1.7-7.2,0-9.7-1.4-2.5-1.4-4.5-3.7-6.3-6.1-.6-.9-1.2-1.7-1.8-2.6-.2-.4-.5-.7-.8-1.1-.8-1.2-1.7-2.4-2.6-3.4-1.8-2-4-3.7-6.8-3.7s-4.9,1.3-6.7,3.1c-1.3,1.3-2.5,2.9-3.7,4.5-.4.6-.9,1.2-1.3,1.7-3.4,4.4-7.6,8.6-15.7,8.9-4,.2-6.7-1.1-8.5-3.2-1.9-2.2-2.9-5.4-3.5-9.6-.9-7-.1-16,.6-25.5.2-1.9.3-3.9.5-5.8ZM296.5,18"/>
  </g>
  <path class="st9" d="M268.5,81.2c3.9,0,7-3.2,7-7s-3.2-7-7-7-7,3.2-7,7,3.2,7,7,7Z"/>
  <path class="st9" d="M309,81.2c3.9,0,7-3.2,7-7s-3.2-7-7-7-7,3.2-7,7,3.2,7,7,7Z"/>
  <path class="st9" d="M288.3,125.9c3,0,5.5-6.8,5.5-15.3s-2.5-15.3-5.5-15.3-5.5,6.8-5.5,15.3,2.5,15.3,5.5,15.3Z"/>
  <path class="st11" d="M203.2,92.1l6.6-1.1,4.6,28.8c.3,1.8-.9,3.5-2.8,3.8-1.8.3-3.5-.9-3.8-2.8l-4.6-28.8Z"/>
  <path class="st8" d="M183.9,97.8l-29.4-36,16.6-43.4,46-7.4,29.4,36-16.6,43.4-45.9,7.4Z"/>
  <g>
    <path class="st10" d="M191.7,93.3c-4,.6-8-.9-10.6-4l-18.7-23c-2.6-3.1-3.2-7.4-1.8-11.2l10.6-27.7c1.4-3.8,4.8-6.5,8.8-7.1l29.3-4.7c4-.6,8,.9,10.6,4l18.7,23c2.6,3.1,3.2,7.4,1.8,11.2l-10.6,27.7c-1.4,3.8-4.8,6.5-8.8,7.1l-29.3,4.7Z"/>
    <path class="st0" d="M191.7,93.3c-4,.6-8-.9-10.6-4l-18.7-23c-2.6-3.1-3.2-7.4-1.8-11.2l10.6-27.7c1.4-3.8,4.8-6.5,8.8-7.1l29.3-4.7c4-.6,8,.9,10.6,4l18.7,23c2.6,3.1,3.2,7.4,1.8,11.2l-10.6,27.7c-1.4,3.8-4.8,6.5-8.8,7.1l-29.3,4.7Z"/>
    <path class="st6" d="M191.5,92.1c-3.6.6-7.2-.8-9.5-3.6l-18.7-23c-2.3-2.8-2.9-6.7-1.6-10.1l10.6-27.7c1.3-3.4,4.3-5.8,7.9-6.4l29.3-4.7c3.6-.6,7.2.8,9.5,3.6l18.7,23c2.3,2.8,2.9,6.7,1.6,10.1l-10.6,27.7c-1.3,3.4-4.3,5.8-7.9,6.4l-29.3,4.7Z"/>
  </g>
  <path class="st13" d="M184.9,59.5c.2,1.2,0,2.2-.4,3.2-.5,1-1.2,1.7-2.2,2.4-1,.6-2.1,1-3.4,1.2-1.5.2-2.8.3-4,0-1.2-.2-2.2-.6-3.2-1.4l2.4-3.3c.5.4,1.2.6,1.9.7.8,0,1.5,0,2.3,0,1.7-.3,2.5-1,2.3-2,0-.5-.3-.8-.5-1-.3-.2-.7-.3-1.3-.3h-2.2c-1.6,0-2.9-.3-3.9-1-1-.7-1.6-1.9-1.8-3.4-.2-1.1,0-2.1.3-3.1.4-1,1-1.7,2-2.4.9-.6,2-1.1,3.4-1.3,1.3-.2,2.5-.2,3.6,0s2,.6,2.9,1.2l-2.3,3.2c-.5-.4-1.1-.6-1.6-.6-.6,0-1.2,0-2,.1-.7.1-1.2.4-1.5.8-.3.4-.4.8-.4,1.2,0,.3.2.6.5.8.3.2.8.3,1.3.3h2.2c1.6,0,2.9.2,3.8.9.5.4,1,.9,1.3,1.5.3.6.5,1.4.7,2.3h0Z"/>
  <path class="st13" d="M198.7,48.5l-4.4.7,2.3,14.1-4.4.7-2.3-14.1-4.4.7-.6-3.9,13.3-2.1.6,3.9h0Z"/>
  <path class="st13" d="M215.2,51v.6c.3,1,.4,1.9.4,2.6,0,.7,0,1.5-.2,2.2-.2.7-.5,1.4-.9,2-.6.8-1.2,1.4-2,1.9-.7.5-1.7.8-2.8,1-.7.1-1.4.1-2,0-.6,0-1.2-.2-1.7-.4-.5-.2-1.1-.5-1.6-.9-.9-.7-1.6-1.5-1.9-2.5-.4-1-.7-2.2-.9-3.8v-.6c0,0-.2-.6-.2-.6-.2-1.5-.3-2.8-.3-3.9,0-1,.4-2,1.1-2.9.6-.8,1.2-1.4,2-1.9.7-.5,1.7-.8,2.7-1,1.1-.2,2.1-.2,2.9,0,.9.2,1.7.6,2.5,1.2.6.5,1.1,1,1.5,1.6.4.6.7,1.3.8,2,.2.7.4,1.6.5,2.6v.6ZM210.8,51.7c-.2-1.5-.5-2.6-.7-3.1-.2-.5-.4-1-.7-1.2-.2-.2-.5-.4-.8-.5-.3,0-.7-.1-1.1,0-.4,0-.7.2-1,.4-.3.2-.5.4-.7.7-.1.2-.2.5-.3.8,0,.3,0,.7,0,1.3,0,.6.1,1.4.3,2.5.2,1.1.3,1.9.5,2.4.1.6.3,1,.4,1.2.1.3.3.5.5.6.5.5,1.1.7,1.9.5.8-.1,1.3-.5,1.6-1.1.2-.4.3-.8.3-1.4,0-.6,0-1.6-.3-3.1h0Z"/>
  <path class="st13" d="M231.1,45.2c.2,1,0,2-.3,3-.3,1-.9,1.8-1.8,2.5-.8.7-1.9,1.1-3.2,1.4l-2.7.4,1,6.4-4.4.7-2.9-18,7.1-1.1c1.3-.2,2.4-.1,3.5.3,1,.4,1.8,1,2.4,1.8.6.8,1,1.7,1.2,2.7h0ZM226.7,45.9c0-.3-.2-.6-.4-.9-.2-.3-.5-.4-.8-.6-.3-.1-.7-.1-1.1,0l-2.5.4.6,3.6,2.5-.4c.4,0,.7-.2,1-.4.3-.2.5-.5.6-.8.1-.3.1-.6,0-.9h0Z"/>
  <path class="st14" d="M286.7,130.7s7.5,1.7,10.9-4.8c0,0-.5,7.2-5.5,8.6-4.9,1.4-5.5-3.8-5.5-3.8Z"/>
  <g>
    <path class="st15" d="M124,177.2l-81.9,8c-.8,0-1.5-.4-1.8-1.2l-10.4-30.8c-.2-.5,0-1.1.2-1.5L108,38.4c.3-.4.7-.7,1.2-.7l45.6-4.4c.9,0,1.8.6,1.9,1.5l9.8,100.7c0,.9.9,1.6,1.9,1.5l18.4-1.8c.9,0,1.8.6,1.9,1.5l3.1,32.2c0,.9-.6,1.8-1.5,1.9l-18.4,1.8c-.9,0-1.6.9-1.5,1.9l2.9,30c0,.9-.6,1.8-1.5,1.9l-42.8,4.2c-.9,0-1.8-.6-1.9-1.5l-3.1-31.7s0,0,0,0ZM118.9,142c.9,0,1.6-.9,1.5-1.9l-4.2-42.9c-.2-1.6-2.2-2.1-3.1-.8l-31.5,46.4c-.8,1.2.1,2.8,1.6,2.7l35.7-3.5Z"/>
    <path class="st2" d="M124,177.2l-81.9,8c-.8,0-1.5-.4-1.8-1.2l-10.4-30.8c-.2-.5,0-1.1.2-1.5L108,38.4c.3-.4.7-.7,1.2-.7l45.6-4.4c.9,0,1.8.6,1.9,1.5l9.8,100.7c0,.9.9,1.6,1.9,1.5l18.4-1.8c.9,0,1.8.6,1.9,1.5l3.1,32.2c0,.9-.6,1.8-1.5,1.9l-18.4,1.8c-.9,0-1.6.9-1.5,1.9l2.9,30c0,.9-.6,1.8-1.5,1.9l-42.8,4.2c-.9,0-1.8-.6-1.9-1.5l-3.1-31.7s0,0,0,0ZM118.9,142c.9,0,1.6-.9,1.5-1.9l-4.2-42.9c-.2-1.6-2.2-2.1-3.1-.8l-31.5,46.4c-.8,1.2.1,2.8,1.6,2.7l35.7-3.5Z"/>
    <path class="st4" d="M124,177.2h0s0-.9,0-.9l-81.9,8c-.4,0-.8-.2-.9-.6l-10.4-30.8c0-.3,0-.5.1-.8L108.7,38.8c.1-.2.4-.3.6-.4l45.6-4.4c.5,0,.9.3.9.8l9.8,100.7c.1,1.4,1.4,2.4,2.8,2.3l18.4-1.8c.5,0,.9.3.9.8l3.1,32.2c0,.5-.3.9-.8.9l-18.4,1.8c-1.4.1-2.4,1.4-2.3,2.8l2.9,30c0,.5-.3.9-.8.9l-42.8,4.2c-.5,0-.9-.3-.9-.8l-3.1-31.7c0,.5-.3.9-.8.9v-.8ZM119,142.9c1.4-.1,2.4-1.4,2.3-2.8l-4.2-42.9c-.2-2.4-3.3-3.2-4.7-1.2l-31.5,46.4c-1.2,1.8.2,4.2,2.4,4l35.7-3.5Z"/>
  </g>
  <g>
    <path class="st15" d="M492.3,181.2c0-.9-.7-1.7-1.6-1.8l-80.2-4.4c-.8,0-1.4-.6-1.6-1.4l-5.6-31.9c0-.5,0-1.1.4-1.5l93.8-100c.3-.4.8-.6,1.3-.5l45.6,2.5c.9,0,1.7.9,1.6,1.8l-5.5,100.7c0,.9.7,1.7,1.6,1.8l18.5,1c.9,0,1.7.9,1.6,1.8l-1.8,32.2c0,.9-.9,1.7-1.8,1.6l-18.5-1c-.9,0-1.7.7-1.8,1.6l-1.6,30c0,.9-.9,1.7-1.8,1.6l-42.8-2.3c-.9,0-1.7-.9-1.6-1.8l1.6-30ZM492.6,144.1c.9,0,1.7-.7,1.8-1.6l2.3-43c0-1.6-1.9-2.4-2.9-1.2l-38,41c-1,1.1-.3,2.8,1.2,2.9l35.7,2Z"/>
    <path class="st3" d="M492.3,181.2c0-.9-.7-1.7-1.6-1.8l-80.2-4.4c-.8,0-1.4-.6-1.6-1.4l-5.6-31.9c0-.5,0-1.1.4-1.5l93.8-100c.3-.4.8-.6,1.3-.5l45.6,2.5c.9,0,1.7.9,1.6,1.8l-5.5,100.7c0,.9.7,1.7,1.6,1.8l18.5,1c.9,0,1.7.9,1.6,1.8l-1.8,32.2c0,.9-.9,1.7-1.8,1.6l-18.5-1c-.9,0-1.7.7-1.8,1.6l-1.6,30c0,.9-.9,1.7-1.8,1.6l-42.8-2.3c-.9,0-1.7-.9-1.6-1.8l1.6-30ZM492.6,144.1c.9,0,1.7-.7,1.8-1.6l2.3-43c0-1.6-1.9-2.4-2.9-1.2l-38,41c-1,1.1-.3,2.8,1.2,2.9l35.7,2Z"/>
    <path class="st5" d="M493.1,181.3c0-1.4-1-2.6-2.4-2.7l-80.2-4.4c-.4,0-.7-.3-.8-.7l-5.6-31.9c0-.3,0-.5.2-.7l93.8-100c.2-.2.4-.3.7-.3l45.6,2.5c.5,0,.8.4.8.9l-5.5,100.7c0,1.4,1,2.6,2.4,2.7l18.5,1c.5,0,.8.4.8.9l-1.8,32.2c0,.5-.4.8-.9.8l-18.5-1c-1.4,0-2.6,1-2.7,2.4l-1.6,30c0,.5-.4.8-.9.8l-42.8-2.3c-.5,0-.8-.4-.8-.9l1.6-30ZM492.5,144.9c1.4,0,2.6-1,2.7-2.4l2.3-43c.1-2.4-2.8-3.6-4.4-1.9l-38,41c-1.5,1.6-.4,4.2,1.7,4.3l35.7,2Z"/>
  </g>
</svg>