<svg width="118" height="21" viewBox="0 0 118 21" fill="none" xmlns="http://www.w3.org/2000/svg">
<g clip-path="url(#clip0_2238_18730)">
<path d="M31.6569 15.5578C34.0065 15.5578 35.7953 13.8539 35.7953 11.4849C35.7953 9.11596 34.0065 7.41211 31.6569 7.41211C29.3072 7.41211 27.5312 9.14245 27.5312 11.4849C27.5312 13.8274 29.3072 15.5578 31.6569 15.5578ZM31.6569 14.0001C30.2548 14.0001 29.2 12.9486 29.2 11.4841C29.2 10.0196 30.2548 8.95522 31.6569 8.95522C33.0589 8.95522 34.1137 9.99308 34.1137 11.4841C34.1137 12.9751 33.0726 14.0001 31.6569 14.0001Z" fill="#002766"/>
<path d="M40.9312 15.5577C42.8537 15.5577 44.3622 14.4129 44.8295 12.7227L43.2808 12.2568C43.0141 13.2947 42.106 13.9735 40.9843 13.9735C39.5694 13.9735 38.5146 12.9082 38.5146 11.4711C38.5146 10.034 39.5831 8.95511 40.9843 8.95511C42.0528 8.95511 42.9472 9.56725 43.2936 10.5393L44.7755 9.98016C44.2018 8.43618 42.7457 7.41113 40.9303 7.41113C38.6072 7.41113 36.8047 9.14148 36.8047 11.484C36.8047 13.8264 38.6072 15.5568 40.9303 15.5568L40.9312 15.5577Z" fill="#002766"/>
<path d="M49.2308 13.9324C48.4564 13.9324 48.1229 13.8392 48.1229 13.0672L48.1366 9.54752H49.2711V8.08302H48.1366V6.0791H46.4807V8.08302H45.666V9.54752H46.4807V13.0937C46.4807 14.9309 47.5088 15.396 48.9769 15.396H49.3371V13.9316H49.2299L49.2308 13.9324Z" fill="#002766"/>
<path d="M54.3542 15.5578C56.7035 15.5578 58.4924 13.8539 58.4924 11.4849C58.4924 9.11596 56.7035 7.41211 54.3542 7.41211C52.0044 7.41211 50.2285 9.14245 50.2285 11.4849C50.2285 13.8274 52.0044 15.5578 54.3542 15.5578ZM54.3542 14.0001C52.9518 14.0001 51.8971 12.9486 51.8971 11.4841C51.8971 10.0196 52.9518 8.95522 54.3542 8.95522C55.7562 8.95522 56.8108 9.99308 56.8108 11.4841C56.8108 12.9751 55.7699 14.0001 54.3542 14.0001Z" fill="#002766"/>
<path d="M67.1803 7.41022C66.1394 7.41022 65.245 7.82312 64.6704 8.48825V6.0791H63.002V15.396H64.591V14.371C65.1382 15.1028 66.0596 15.5559 67.1803 15.5559C69.4239 15.5559 71.1594 13.8392 71.1594 11.483C71.1594 9.12688 69.4239 7.41022 67.1803 7.41022ZM67.0074 13.9854C65.6055 13.9854 64.5504 12.9202 64.5504 11.4566C64.5504 9.99292 65.6055 8.94052 67.0074 8.94052C68.4094 8.94052 69.4503 10.0057 69.4503 11.4566C69.4503 12.9074 68.3957 13.9854 67.0074 13.9854Z" fill="#002766"/>
<path d="M76.5192 7.49121C75.4111 7.49121 74.5563 7.93066 74.089 8.72917V7.57074H72.5137V15.3975H74.1694V11.7906C74.1694 9.55417 75.3313 9.1284 76.4927 9.1284H76.5858V7.49121H76.5192Z" fill="#002766"/>
<path d="M81.1802 15.5578C83.5305 15.5578 85.3194 13.8539 85.3194 11.4849C85.3194 9.11596 83.5305 7.41211 81.1802 7.41211C78.8294 7.41211 77.0547 9.14245 77.0547 11.4849C77.0547 13.8274 78.8304 15.5578 81.1802 15.5578ZM81.1802 14.0001C79.7777 14.0001 78.7231 12.9486 78.7231 11.4841C78.7231 10.0196 79.7777 8.95522 81.1802 8.95522C82.5821 8.95522 83.6368 9.99308 83.6368 11.4841C83.6368 12.9751 82.5949 14.0001 81.1802 14.0001Z" fill="#002766"/>
<path d="M93.8682 13.7191L92.573 8.48781C92.453 7.94239 92.0793 7.48926 91.4248 7.48926C90.7709 7.48926 90.4236 7.94152 90.2903 8.47413L88.9545 13.6917L87.4727 7.56879H85.7773L87.5393 14.1038C87.7666 14.9553 88.1134 15.4879 88.8757 15.4879C89.6379 15.4879 89.9969 14.9553 90.1968 14.0773L91.3857 9.57871L92.573 14.0773C92.7876 14.9562 93.1476 15.4879 93.9094 15.4879C94.6706 15.4879 95.0174 14.9553 95.2442 14.1038L97.0067 7.56879H95.3779L93.8687 13.7182L93.8682 13.7191Z" fill="#002766"/>
<path d="M100.59 15.5578C102.219 15.5578 103.299 14.6396 103.299 13.1623C103.299 11.8449 102.326 11.0994 101.098 10.7531C99.8685 10.4069 99.4821 10.2077 99.4821 9.6084C99.4821 9.14245 99.8823 8.7569 100.497 8.7569C101.07 8.7569 101.525 9.14245 101.565 9.79476H103.206C103.086 8.31745 102.071 7.41211 100.497 7.41211C98.9212 7.41211 97.8386 8.39698 97.8386 9.71442C97.8386 11.0319 98.76 11.7773 99.9621 12.1099C101.164 12.4296 101.671 12.616 101.671 13.2948C101.671 13.8137 101.243 14.2002 100.603 14.2002C99.9621 14.2002 99.4683 13.7744 99.4012 13.0554H97.7598C97.8533 14.6259 98.9751 15.5578 100.59 15.5578Z" fill="#002766"/>
<path d="M112.557 11.4711C112.557 9.12866 110.807 7.41113 108.444 7.41113C106.081 7.41113 104.332 9.20814 104.332 11.484C104.332 13.7598 106.121 15.5568 108.498 15.5568C109.819 15.5568 111.075 15.0114 111.929 13.9333L110.62 13.0014C110.113 13.6538 109.392 14.0128 108.537 14.0128C107.229 14.0128 106.228 13.1741 106.015 11.9764H112.516C112.544 11.7764 112.557 11.6438 112.557 11.4703V11.4711ZM106.108 10.5393C106.442 9.5407 107.351 8.9158 108.471 8.9158C109.592 8.9158 110.528 9.5014 110.86 10.5393H106.108Z" fill="#002766"/>
<path d="M117.933 7.49121C116.825 7.49121 115.969 7.93066 115.503 8.72917V7.57074H113.928V15.3975H115.583V11.7906C115.583 9.55417 116.745 9.1284 117.907 9.1284H118V7.49121H117.933H117.933Z" fill="#002766"/>
<path d="M18.6081 12.1524C19.5788 11.8216 19.349 10.4674 19.0848 8.91916C18.759 7.00586 18.3825 4.79503 20.1594 3.84863C20.1594 3.84863 19.0102 5.43707 20.7382 7.76587C22.491 10.1272 22.7885 15.0634 19.2324 16.1013C17.5542 16.5912 16.0072 15.3798 14.8409 13.964C11.6046 12.485 13.6018 11.7429 8.61607 13.964C8.18135 15.4097 5.96803 16.7109 4.57197 16.7348C0.879437 16.7981 0.293742 11.9806 1.32278 9.19615C2.33724 6.45103 0.798828 5.27036 0.798828 5.27036C2.76172 5.64823 3.01041 7.87871 3.22479 9.80915C3.39887 11.3711 3.55065 12.7372 4.57197 12.7655C7.63852 12.7655 6.60605 7.74965 6.60605 7.74965L11.1098 6.333L15.5441 7.70088C15.5441 7.70088 16.4368 12.8937 18.6072 12.1533L18.6081 12.1524Z" fill="url(#paint0_linear_2238_18730)"/>
<path d="M19.2377 14.8133C18.9659 14.7748 17.5021 14.8672 16.1163 14.4072C15.8445 14.9219 17.7431 16.3299 18.3142 16.3034C18.8844 16.276 20.4057 15.7349 20.3791 15.599C20.3517 15.4639 20.3791 14.9757 19.2377 14.8133Z" fill="url(#paint1_linear_2238_18730)"/>
<path d="M7.23307 12.7014C6.8729 12.2286 6.4184 12.4038 6.11914 12.0781C6.60792 11.4549 6.68938 10.5889 6.68938 10.5889L7.69439 10.6162L8.83578 11.7268L7.69439 15.3559C7.72185 14.1915 7.74844 13.3784 7.23221 12.7014H7.23307Z" fill="url(#paint2_linear_2238_18730)"/>
<path d="M5.19531 16.4649C5.41227 16.5188 6.30927 16.411 6.8795 15.8964C5.71157 14.3259 6.52619 13.2154 5.71157 12.457C5.58035 12.5776 5.38569 12.5921 5.38569 12.5921L5.19531 16.4649Z" fill="url(#paint3_linear_2238_18730)"/>
<path d="M15.1398 11.6978C15.2212 11.0207 15.9818 10.9121 16.3892 10.506C16.0899 9.85633 15.9818 9.36816 15.9818 9.36816L14.9219 9.63915L14.3242 10.7224C14.3242 10.7224 13.754 13.8103 16.1714 14.4874C15.0574 13.2683 15.0574 12.3749 15.1389 11.6978H15.1398Z" fill="url(#paint4_linear_2238_18730)"/>
<path d="M1.89646 11.1112C1.90246 10.7878 1.75916 10.5229 1.57637 10.5196C1.3936 10.5162 1.24056 10.7756 1.23456 11.099C1.22856 11.4223 1.37186 11.6872 1.55464 11.6906C1.73742 11.694 1.89046 11.4346 1.89646 11.1112Z" fill="#1890FF"/>
<path d="M1.93785 9.87521C1.96765 9.62198 1.87359 9.40286 1.72777 9.38583C1.58196 9.36874 1.4396 9.56019 1.4098 9.81343C1.38001 10.0667 1.47406 10.2858 1.61988 10.3028C1.7657 10.3199 1.90806 10.1284 1.93785 9.87521Z" fill="#1890FF"/>
<path d="M2.06241 8.78766C2.07702 8.54022 1.98079 8.33325 1.84746 8.32542C1.71414 8.31759 1.59421 8.51184 1.57959 8.75933C1.56498 9.00677 1.66121 9.21373 1.79454 9.22151C1.92786 9.22934 2.04779 9.03509 2.06241 8.78766Z" fill="#1890FF"/>
<path d="M1.89656 8.16135C2.02753 8.14391 2.10681 7.92906 2.07364 7.68147C2.04046 7.43393 1.90738 7.24736 1.77641 7.2648C1.64544 7.28224 1.56617 7.49709 1.59935 7.74468C1.63252 7.99222 1.76559 8.17879 1.89656 8.16135Z" fill="#1890FF"/>
<path d="M1.71178 7.07091C1.80804 7.05006 1.85073 6.87086 1.80712 6.67061C1.7635 6.47036 1.65011 6.32493 1.55385 6.34573C1.45758 6.36658 1.41489 6.54583 1.45851 6.74608C1.50212 6.94633 1.61551 7.09176 1.71178 7.07091Z" fill="#1890FF"/>
<path d="M1.99999 13.0102C2.20841 12.9594 2.31136 12.6487 2.22991 12.3162C2.14848 11.9836 1.9135 11.7552 1.70509 11.8059C1.49666 11.8566 1.39372 12.1673 1.47516 12.4999C1.5566 12.8324 1.79157 13.0609 1.99999 13.0102Z" fill="#1890FF"/>
<path d="M2.86233 14.5486C3.11024 14.4397 3.17326 14.0393 3.00311 13.6544C2.83295 13.2694 2.49405 13.0456 2.24615 13.1545C1.99825 13.2634 1.93523 13.6638 2.10538 14.0488C2.27553 14.4337 2.61443 14.6575 2.86233 14.5486Z" fill="url(#paint5_linear_2238_18730)"/>
<path d="M6.10095 16.0855C6.52515 15.9927 6.82359 15.7111 6.7675 15.4565C6.71147 15.2019 6.32215 15.0708 5.89796 15.1636C5.47377 15.2564 5.17533 15.5381 5.23137 15.7926C5.28742 16.0472 5.67676 16.1783 6.10095 16.0855Z" fill="url(#paint6_linear_2238_18730)"/>
<path d="M7.76136 15.175C8.06438 14.9352 8.20808 14.6127 8.08238 14.4548C7.95662 14.297 7.60901 14.3634 7.30599 14.6033C7.00297 14.8431 6.85922 15.1656 6.98497 15.3235C7.11073 15.4814 7.45834 15.4149 7.76136 15.175Z" fill="url(#paint7_linear_2238_18730)"/>
<path d="M1.19044 11.8397C1.19761 11.488 1.05679 11.1999 0.875916 11.1963C0.695037 11.1927 0.542591 11.4748 0.535419 11.8265C0.528246 12.1782 0.669063 12.4663 0.849943 12.4699C1.03082 12.4735 1.18327 12.1914 1.19044 11.8397Z" fill="#1890FF"/>
<path d="M1.20943 10.451C1.24874 10.1766 1.18788 9.94099 1.07348 9.92472C0.959078 9.90844 0.834469 10.1176 0.795154 10.392C0.755839 10.6664 0.816705 10.902 0.931102 10.9183C1.0455 10.9346 1.17011 10.7254 1.20943 10.451Z" fill="#1890FF"/>
<path d="M1.34972 9.40799C1.39837 9.20545 1.37433 9.02615 1.29604 9.00744C1.21774 8.98878 1.11483 9.13777 1.06618 9.34026C1.01753 9.54274 1.04156 9.72204 1.11986 9.74075C1.19816 9.75947 1.30107 9.61048 1.34972 9.40799Z" fill="#1890FF"/>
<path d="M1.48208 8.46111C1.53289 8.25913 1.53387 8.08537 1.48426 8.07297C1.43464 8.06056 1.35323 8.21423 1.30242 8.41616C1.25161 8.61814 1.25064 8.79194 1.30025 8.80435C1.34987 8.81676 1.43127 8.66309 1.48208 8.46111Z" fill="#1890FF"/>
<path d="M1.41552 14.0455C1.62871 13.985 1.71399 13.629 1.60597 13.2503C1.49796 12.8715 1.23757 12.6134 1.02437 12.6738C0.811176 12.7343 0.725906 13.0903 0.833916 13.4691C0.941927 13.8478 1.20232 14.1059 1.41552 14.0455Z" fill="#1890FF"/>
<path d="M2.29412 15.7375C2.53121 15.6179 2.55671 15.1925 2.35107 14.7871C2.14544 14.3818 1.78654 14.1502 1.54945 14.2697C1.31236 14.3893 1.28686 14.8148 1.4925 15.2201C1.69813 15.6254 2.05703 15.8571 2.29412 15.7375Z" fill="url(#paint8_linear_2238_18730)"/>
<path d="M5.90081 16.5075C5.9543 16.2024 5.63689 15.8922 5.19186 15.8146C4.74679 15.737 4.34261 15.9214 4.28909 16.2265C4.23557 16.5316 4.55297 16.8419 4.99803 16.9195C5.44309 16.9971 5.84726 16.8127 5.90081 16.5075Z" fill="#1890FF"/>
<path d="M21.2 10.225C21.3758 10.1733 21.4443 9.88105 21.3529 9.57218C21.2616 9.26332 21.045 9.05483 20.8692 9.10649C20.6934 9.15816 20.6249 9.45045 20.7163 9.75931C20.8076 10.0682 21.0242 10.2767 21.2 10.225Z" fill="#1890FF"/>
<path d="M20.7567 8.91399C20.8931 8.85862 20.926 8.62338 20.8302 8.38855C20.7343 8.15367 20.546 8.00814 20.4096 8.06352C20.2732 8.11884 20.2403 8.35408 20.3361 8.58895C20.432 8.82378 20.6203 8.96932 20.7567 8.91399Z" fill="#1890FF"/>
<path d="M20.4181 7.79719C20.545 7.75402 20.583 7.52992 20.5031 7.29667C20.4232 7.06347 20.2556 6.90939 20.1288 6.95256C20.0019 6.99579 19.9639 7.21988 20.0438 7.45308C20.1237 7.68634 20.2913 7.84041 20.4181 7.79719Z" fill="#1890FF"/>
<path d="M20.0562 6.6863C20.1844 6.65437 20.2391 6.43241 20.1784 6.19056C20.1177 5.94871 19.9646 5.77852 19.8364 5.8105C19.7083 5.84244 19.6535 6.0644 19.7142 6.3063C19.7749 6.54814 19.928 6.71829 20.0562 6.6863Z" fill="#1890FF"/>
<path d="M19.8183 5.63524C19.9167 5.62952 19.9867 5.45866 19.9747 5.25362C19.9627 5.04858 19.8732 4.887 19.7749 4.89273C19.6765 4.89845 19.6065 5.0693 19.6185 5.27434C19.6305 5.47938 19.72 5.64097 19.8183 5.63524Z" fill="#1890FF"/>
<path d="M21.1328 11.6187C21.3463 11.6134 21.5125 11.331 21.504 10.9879C21.4956 10.6447 21.3156 10.3708 21.102 10.3761C20.8885 10.3813 20.7223 10.6637 20.7308 11.0069C20.7392 11.35 20.9192 11.6239 21.1328 11.6187Z" fill="#1890FF"/>
<path d="M21.3261 12.661C21.389 12.2422 21.2239 11.8704 20.9574 11.8306C20.6909 11.7909 20.4239 12.0982 20.361 12.517C20.2981 12.9359 20.4632 13.3077 20.7297 13.3475C20.9963 13.3872 21.2633 13.0799 21.3261 12.661Z" fill="#1890FF"/>
<path d="M20.3578 14.4771C20.6269 14.1065 20.6497 13.6651 20.4088 13.4912C20.1679 13.3174 19.7544 13.4769 19.4853 13.8475C19.2162 14.2181 19.1934 14.6595 19.4343 14.8333C19.6753 15.0072 20.0887 14.8477 20.3578 14.4771Z" fill="#1890FF"/>
<path d="M18.834 15.8519C19.1974 15.6963 19.4062 15.3712 19.3004 15.1256C19.1947 14.88 18.8143 14.8071 18.451 14.9626C18.0876 15.1182 17.8787 15.4434 17.9845 15.6889C18.0903 15.9345 18.4706 16.0075 18.834 15.8519Z" fill="url(#paint9_linear_2238_18730)"/>
<path d="M22.088 10.7623C22.2617 10.7104 22.3207 10.3958 22.2196 10.0598C22.1185 9.72378 21.8958 9.49347 21.722 9.54539C21.5483 9.59731 21.4894 9.91182 21.5904 10.2479C21.6915 10.5839 21.9143 10.8142 22.088 10.7623Z" fill="#1890FF"/>
<path d="M21.5878 9.29593C21.6938 9.24895 21.689 9.00695 21.5768 8.75539C21.4648 8.50384 21.288 8.33796 21.1819 8.3849C21.0759 8.43188 21.0807 8.67388 21.1929 8.92544C21.3049 9.177 21.4818 9.34287 21.5878 9.29593Z" fill="#1890FF"/>
<path d="M21.1041 8.19292C21.175 8.153 21.15 7.97497 21.0483 7.79526C20.9466 7.61561 20.8066 7.50226 20.7357 7.54218C20.6648 7.5821 20.6897 7.76013 20.7914 7.93983C20.8931 8.11954 21.0331 8.23283 21.1041 8.19292Z" fill="#1890FF"/>
<path d="M22.3826 11.741C22.3876 11.3283 22.2212 10.9918 22.0109 10.9893C21.8007 10.9867 21.6262 11.3192 21.6212 11.7318C21.6162 12.1444 21.7826 12.481 21.9929 12.4836C22.2031 12.4861 22.3777 12.1536 22.3826 11.741Z" fill="#1890FF"/>
<path d="M22.0714 13.6055C22.1755 13.1706 22.0904 12.7777 21.8813 12.7279C21.6721 12.6781 21.4182 12.9903 21.314 13.4252C21.2098 13.8601 21.2949 14.253 21.5041 14.3028C21.7132 14.3526 21.9672 14.0404 22.0714 13.6055Z" fill="#1890FF"/>
<path d="M20.8815 15.5145C21.2375 15.1609 21.3982 14.7463 21.2405 14.5885C21.0827 14.4306 20.6662 14.5892 20.3102 14.9427C19.9542 15.2963 19.7935 15.7109 19.9512 15.8688C20.109 16.0267 20.5255 15.868 20.8815 15.5145Z" fill="#1890FF"/>
<path d="M5.29752 8.32733C5.04197 4.68622 10.6648 0.648438 10.6648 0.648438V0.650147C10.7291 0.674085 16.996 3.02084 17.2489 6.64311C17.2489 12.2403 5.68084 13.7791 5.29838 8.32733H5.29752Z" fill="url(#paint10_linear_2238_18730)"/>
<path d="M13.8874 2.30017L10.8449 4.06045C10.4642 4.06045 8.91633 3.54579 7.66602 3.356C7.82894 3.19356 8.04678 2.92255 8.37264 2.62504C9.83988 3.46457 11.3337 3.77747 12.638 1.56836C13.1268 1.81201 13.643 2.13688 13.8874 2.29932V2.30017Z" fill="url(#paint11_linear_2238_18730)"/>
<path d="M14.9477 9.69474C14.8362 9.93496 14.7573 10.1282 15.0832 10.2906C15.0832 10.2906 14.458 10.6967 13.9967 10.9138C13.5345 11.1302 14.404 9.45107 14.404 9.45107C15.1647 8.80135 16.1157 7.04024 16.9038 6.47168C16.0342 9.09888 15.1107 9.3425 14.9477 9.69474Z" fill="url(#paint12_linear_2238_18730)"/>
<path d="M7.31236 10.0733C7.39036 10.1819 7.50269 10.9128 7.2309 11.1026C7.2309 11.1026 7.42123 11.2377 8.37224 11.536C8.83447 11.7523 7.72054 9.74842 7.72054 9.74842C6.95991 9.09865 6.38962 8.63785 5.60156 8.06934C6.28075 9.31497 7.00278 9.63986 7.31322 10.0733H7.31236Z" fill="url(#paint13_linear_2238_18730)"/>
<path d="M10.8963 3.96994C10.8963 3.96994 5.85146 2.02757 4.91072 4.42391C4.51025 5.44468 4.97418 8.87973 7.67628 9.7988C7.82461 10.4066 7.93867 11.2487 7.98327 12.1284C11.0361 16.7903 14.7046 12.4704 14.7046 12.4704C14.7046 12.4704 14.1609 10.5605 14.5177 9.49955C17.3346 8.15561 17.6468 3.61088 16.803 2.61746C15.4507 1.02731 11.9202 2.89104 10.8954 3.96909L10.8963 3.96994Z" fill="url(#paint14_linear_2238_18730)"/>
<path d="M11.0492 9.09787C12.2986 9.03889 15.7905 9.17913 16.6729 7.07346C14.445 7.64197 12.7599 6.18947 11.0492 6.25614C7.21861 7.37094 6.34906 6.8905 4.92383 6.37325C5.27713 9.61172 9.79973 9.15686 11.0492 9.09706V9.09787Z" fill="url(#paint15_linear_2238_18730)"/>
<path d="M6.03007 19.8773C2.58277 19.361 2.60764 15.6472 3.60924 13.6826C3.65726 13.5877 3.70785 13.4971 3.76102 13.4107C4.26782 12.5806 4.41532 11.7906 4.41188 11.1477C4.41188 11.1374 4.41188 11.1272 4.41188 11.117C4.41188 11.0973 4.41188 11.0776 4.41103 11.058C4.41103 11.0452 4.41103 11.0315 4.41017 11.0187C4.41017 11.0093 4.41017 10.999 4.40931 10.9896C4.3733 10.1543 4.0946 9.60547 4.0946 9.60547C5.20853 10.1996 5.51896 11.1015 5.55927 12.0591C5.55927 12.0667 5.55927 12.0745 5.56012 12.0813C5.56012 12.0967 5.56098 12.1121 5.56184 12.1275C5.56184 12.148 5.56269 12.1685 5.56355 12.189C5.56355 12.207 5.56355 12.2249 5.56355 12.2429C5.56355 12.2719 5.56355 12.3001 5.56355 12.3292C5.55927 13.1739 5.3869 14.0434 5.40234 14.7683C5.40234 14.7922 5.40319 14.8153 5.40491 14.8393C5.40662 14.8718 5.40834 14.9043 5.41005 14.9367C5.45293 15.5762 5.67589 16.0849 6.34732 16.3371C7.91835 16.9261 8.06841 13.8647 7.85057 10.7228C10.2414 10.9126 10.8665 11.806 11.5723 13.9459C11.797 16.8176 9.09915 20.3372 6.03007 19.8773Z" fill="url(#paint16_linear_2238_18730)"/>
<path d="M16.8617 14.8141C19.6444 15.8015 19.6264 14.7012 20.411 17.8046C21.1957 20.9079 12.9839 20.9883 12.9839 20.9883L14.9219 18.6595C14.9219 18.6595 14.2402 18.0097 12.9839 17.8054C11.7825 17.6105 11.6205 14.072 11.5527 13.9822C11.9343 11.6748 12.37 10.6156 14.3928 10.4258C14.3611 11.9373 14.9863 14.149 16.8608 14.8149L16.8617 14.8141Z" fill="url(#paint17_linear_2238_18730)"/>
<path d="M20.3557 18.7134C19.541 20.9345 12.9844 20.9884 12.9844 20.9884C13.0744 20.8798 13.5641 20.2574 13.8085 20.0129C13.7141 20.1454 13.6026 20.3395 13.5246 20.4814C13.4886 20.5464 13.5529 20.6191 13.6232 20.5943C17.5027 19.2264 19.9218 17.5807 19.975 16.3291C20.1105 16.7087 20.6816 18.0355 20.3557 18.7126V18.7134Z" fill="url(#paint18_linear_2238_18730)"/>
<path d="M10.9992 5.58262C12.7992 3.75224 17.6322 1.34394 17.1332 5.604C16.6358 9.85293 12.4433 7.08727 11.0644 6.41106C9.77468 6.96503 5.96205 9.66916 4.94588 6.53331C3.92971 3.39831 8.98914 4.55587 10.9983 5.58262H10.9992Z" fill="url(#paint19_linear_2238_18730)"/>
<path d="M16.4705 4.95451C15.4106 4.0064 14.379 4.25006 11.9607 5.79405C11.6623 6.01631 11.4857 5.71282 11.6889 5.52303C14.1071 3.27117 16.7423 2.86851 16.4705 4.95451Z" fill="url(#paint20_linear_2238_18730)"/>
<path d="M5.98208 7.28435C5.65623 4.98207 7.66631 4.98207 10.0031 5.82159C10.1386 5.87035 10.2235 5.69336 10.0031 5.57795C7.20494 4.11518 4.4677 4.84699 5.14 6.33625C5.43842 6.99796 5.97868 7.25959 5.98208 7.28435Z" fill="url(#paint21_linear_2238_18730)"/>
<path d="M7.15071 7.82475C6.11824 7.82475 5.76493 6.33544 6.93378 5.57715C6.68935 6.85015 7.50402 7.58107 10.2481 6.17302C10.4394 6.07473 10.6014 6.29359 10.4925 6.38934C9.16165 7.28273 7.7836 7.82475 7.15071 7.82475Z" fill="url(#paint22_linear_2238_18730)"/>
<path d="M15.3818 7.69033C16.5498 7.58603 17.4193 5.57781 15.3818 4.73828C16.115 6.93199 14.3219 8.06993 11.8771 6.11981C11.709 5.98561 11.6867 6.14716 11.9045 6.33612C12.1215 6.5259 13.5621 7.85274 15.3818 7.69033Z" fill="url(#paint23_linear_2238_18730)"/>
<path d="M10.1554 6.04312C10.1554 6.04312 7.05794 4.78638 7.42239 6.13115C7.78597 7.47508 10.1554 6.04312 10.1554 6.04312Z" fill="white"/>
<path d="M6.06487 19.9051C8.7001 20.2386 10.4777 19.093 11.2813 17.5216C11.933 18.7134 13.4645 19.0741 14.8126 18.7946L16.3184 17.0984C13.9705 17.6302 12.0144 16.4385 11.5797 13.8925C11.2813 16.2486 9.65111 18.2799 6.63516 17.9277C5.42861 17.7867 4.64825 17.1155 4.21691 16.1939C3.72211 15.1372 3.40226 14.4063 3.5103 13.8916C3.21188 14.5149 2.9632 15.5767 3.04809 16.6539C3.21703 18.7938 4.64568 19.7247 6.06406 19.9043L6.06487 19.9051Z" fill="url(#paint24_linear_2238_18730)"/>
<path d="M11.2777 17.5217C11.0179 18.0295 10.6569 18.4929 10.1973 18.8759C10.5171 17.9278 10.5703 17.4131 10.5703 16.4385C11.1217 15.7306 11.4561 14.8381 11.5762 13.8926C11.7142 14.7013 12.0058 15.3733 12.4149 15.8965C12.0658 17.2233 12.011 17.5217 12.7176 18.6861C12.0384 18.4963 11.5144 17.9534 11.2777 17.5217Z" fill="url(#paint25_linear_2238_18730)"/>
<path d="M14.8103 17.1965C14.9193 17.305 14.638 18.3702 14.457 18.8755L14.566 19.0653C14.566 19.0653 15.2966 18.2549 15.8428 17.6299C16.0246 17.4221 16.2304 17.2229 16.3316 17.0879C15.9243 17.1691 15.4346 17.2503 14.8103 17.1965Z" fill="url(#paint26_linear_2238_18730)"/>
<path d="M11.9668 5.96543C11.9668 5.96543 15.4501 3.5674 15.1011 5.84577C14.7512 8.125 11.9668 5.96543 11.9668 5.96543Z" fill="white"/>
<path d="M4.02614 14.6193C4.09868 14.3323 4.00634 14.0616 3.81988 14.0148C3.63342 13.9679 3.42346 14.1627 3.35092 14.4497C3.27838 14.7368 3.37072 15.0075 3.55718 15.0544C3.74364 15.1012 3.9536 14.9064 4.02614 14.6193Z" fill="#69C0FF"/>
<path d="M4.28395 13.5285C4.37131 13.31 4.32694 13.0872 4.18485 13.0307C4.04275 12.9742 3.85674 13.1055 3.76939 13.3239C3.68203 13.5423 3.7264 13.7651 3.86849 13.8216C4.01058 13.8781 4.19659 13.7469 4.28395 13.5285Z" fill="#69C0FF"/>
<path d="M4.52263 12.4859C4.58169 12.2857 4.52939 12.094 4.40581 12.0577C4.28222 12.0215 4.13415 12.1544 4.07508 12.3546C4.01602 12.5549 4.06832 12.7465 4.1919 12.7828C4.31549 12.819 4.46356 12.6861 4.52263 12.4859Z" fill="#69C0FF"/>
<path d="M4.709 11.504C4.71552 11.2949 4.61681 11.1222 4.48852 11.1182C4.36024 11.1143 4.25096 11.2805 4.24445 11.4896C4.23793 11.6986 4.33664 11.8713 4.46492 11.8753C4.59321 11.8793 4.70249 11.713 4.709 11.504Z" fill="#69C0FF"/>
<path d="M4.4695 10.8955C4.56444 10.8885 4.63127 10.744 4.61876 10.5726C4.60625 10.4012 4.51915 10.2678 4.42421 10.2747C4.32927 10.2816 4.26244 10.4261 4.27494 10.5975C4.28745 10.7689 4.37455 10.9023 4.4695 10.8955Z" fill="#69C0FF"/>
<path d="M3.81379 16.3842C4.0268 16.3586 4.16732 16.0715 4.12767 15.7429C4.08801 15.4143 3.88319 15.1686 3.67019 15.1942C3.45718 15.2197 3.31665 15.5068 3.35631 15.8354C3.39596 16.1641 3.60078 16.4097 3.81379 16.3842Z" fill="#69C0FF"/>
<path d="M4.35719 17.781C4.57458 17.7027 4.64977 17.3603 4.52514 17.0161C4.4005 16.6719 4.12324 16.4563 3.90586 16.5346C3.68847 16.6128 3.61328 16.9553 3.73791 17.2994C3.86255 17.6437 4.1398 17.8592 4.35719 17.781Z" fill="#69C0FF"/>
<path d="M5.91242 18.7113C6.04784 18.5074 5.88033 18.1591 5.53833 17.9334C5.19632 17.7078 4.8093 17.6902 4.6739 17.8941C4.53849 18.098 4.70598 18.4463 5.04799 18.672C5.39 18.8977 5.77701 18.9153 5.91242 18.7113Z" fill="#69C0FF"/>
<path d="M7.65883 19.0652C7.69997 18.8294 7.38683 18.5782 6.95939 18.5041C6.53199 18.43 6.15218 18.5612 6.11104 18.797C6.06996 19.0329 6.3831 19.2841 6.81049 19.3582C7.23789 19.4322 7.61775 19.3011 7.65883 19.0652Z" fill="#69C0FF"/>
<path d="M8.78902 19.1766C9.17467 19.0417 9.42638 18.7593 9.35127 18.5459C9.27611 18.3325 8.90257 18.2689 8.51692 18.4038C8.13126 18.5388 7.87955 18.8212 7.95466 19.0346C8.02982 19.248 8.40337 19.3116 8.78902 19.1766Z" fill="#69C0FF"/>
<path d="M10.2797 18.1941C10.5629 17.951 10.6998 17.6467 10.5855 17.5143C10.4712 17.3819 10.1489 17.4716 9.86569 17.7146C9.58246 17.9576 9.44557 18.2619 9.55988 18.3944C9.67419 18.5268 9.99643 18.4371 10.2797 18.1941Z" fill="url(#paint27_linear_2238_18730)"/>
<path d="M3.3229 15.3109C3.39539 15.0077 3.29805 14.7249 3.10548 14.6791C2.91292 14.6334 2.69804 14.842 2.62555 15.1451C2.55306 15.4483 2.6504 15.7311 2.84297 15.7769C3.03553 15.8226 3.25041 15.614 3.3229 15.3109Z" fill="#69C0FF"/>
<path d="M3.33411 14.0227C3.42007 13.7956 3.43768 13.5919 3.37343 13.5678C3.30918 13.5436 3.18741 13.708 3.10144 13.9351C3.01548 14.1622 2.99787 14.3658 3.06212 14.39C3.12637 14.4142 3.24814 14.2497 3.33411 14.0227Z" fill="#69C0FF"/>
<path d="M3.75387 13.069C3.84733 12.8781 3.87031 12.6976 3.80518 12.6659C3.74006 12.6342 3.6115 12.7633 3.51804 12.9543C3.42459 13.1452 3.40161 13.3258 3.46674 13.3574C3.53186 13.3891 3.66042 13.2599 3.75387 13.069Z" fill="#69C0FF"/>
<path d="M3.09956 17.1754C3.31886 17.1507 3.46481 16.85 3.42555 16.5037C3.38628 16.1575 3.17667 15.8968 2.95737 15.9215C2.73807 15.9463 2.59212 16.247 2.63138 16.5932C2.67065 16.9395 2.88026 17.2001 3.09956 17.1754Z" fill="#69C0FF"/>
<path d="M3.68486 18.6384C3.91528 18.5531 3.9933 18.1918 3.85911 17.8316C3.72492 17.4712 3.42934 17.2483 3.19891 17.3336C2.96848 17.4189 2.89046 17.7801 3.02465 18.1404C3.15884 18.5007 3.45443 18.7237 3.68486 18.6384Z" fill="#69C0FF"/>
<path d="M5.11284 19.7752C5.30954 19.574 5.22102 19.17 4.91513 18.8727C4.60924 18.5754 4.20181 18.4975 4.0051 18.6986C3.8084 18.8998 3.89692 19.3039 4.20281 19.6012C4.5087 19.8985 4.91613 19.9764 5.11284 19.7752Z" fill="#69C0FF"/>
<path d="M7.02154 20.1266C7.08668 19.8587 6.78687 19.5562 6.35189 19.4511C5.91691 19.3461 5.51152 19.4781 5.44639 19.7461C5.38126 20.0141 5.68107 20.3166 6.11604 20.4216C6.55102 20.5267 6.9564 20.3946 7.02154 20.1266Z" fill="#69C0FF"/>
<path d="M8.22759 20.2868C8.63938 20.2064 8.93772 19.9605 8.89394 19.7376C8.85016 19.5148 8.48083 19.3993 8.06904 19.4797C7.65725 19.5601 7.35896 19.8059 7.40269 20.0288C7.44648 20.2516 7.8158 20.3672 8.22759 20.2868Z" fill="#69C0FF"/>
<path d="M10.0538 19.3998C10.4008 19.1555 10.5997 18.8411 10.498 18.6977C10.3964 18.5542 10.0328 18.6359 9.6857 18.8803C9.33869 19.1246 9.13976 19.4389 9.24142 19.5824C9.34307 19.7259 9.70675 19.6441 10.0538 19.3998Z" fill="url(#paint28_linear_2238_18730)"/>
<path d="M13.6925 17.4102C13.3049 17.3221 12.961 17.4205 12.9233 17.6299C12.8856 17.8394 13.1694 18.0796 13.557 18.1677C13.9446 18.2557 14.2885 18.1574 14.3262 17.948C14.3639 17.7385 14.0801 17.4983 13.6925 17.4102Z" fill="url(#paint29_linear_2238_18730)"/>
<path d="M12.3068 16.7731C12.0213 16.5235 11.686 16.4423 11.5565 16.591C11.427 16.7398 11.5548 17.0638 11.8395 17.3126C12.125 17.5622 12.4603 17.6434 12.5889 17.4947C12.7176 17.3459 12.5907 17.0219 12.3059 16.7731H12.3068Z" fill="url(#paint30_linear_2238_18730)"/>
<path d="M12.589 18.0523C12.2452 17.8676 11.8945 17.8608 11.8044 18.0369C11.7144 18.213 11.9193 18.5045 12.2632 18.6892C12.6062 18.8739 12.9578 18.8807 13.0478 18.7046C13.1379 18.5285 12.9329 18.237 12.589 18.0523Z" fill="url(#paint31_linear_2238_18730)"/>
<path d="M15.8444 17.6305L15.1378 18.4426C14.944 18.4187 14.7802 18.3178 14.7287 18.1742C14.6456 17.9434 14.8617 17.6698 15.2098 17.5621C15.4534 17.4868 15.6909 17.5279 15.8444 17.6296V17.6305Z" fill="url(#paint32_linear_2238_18730)"/>
<path d="M14.2995 19.4012C14.242 19.4012 14.1829 19.3978 14.1229 19.3892C13.7173 19.332 13.4094 19.0892 13.4351 18.8464C13.4608 18.6036 13.8107 18.4539 14.2163 18.5112C14.4736 18.5471 14.6905 18.6583 14.8097 18.7959L14.3004 19.4012H14.2995Z" fill="url(#paint33_linear_2238_18730)"/>
</g>
<defs>
<linearGradient id="paint0_linear_2238_18730" x1="0.798828" y1="10.2913" x2="22.0022" y2="10.2913" gradientUnits="userSpaceOnUse">
<stop stop-color="#0050B3"/>
<stop offset="0.28" stop-color="#003A8C"/>
<stop offset="0.77" stop-color="#003A8C"/>
<stop offset="1" stop-color="#0050B3"/>
</linearGradient>
<linearGradient id="paint1_linear_2238_18730" x1="17.8502" y1="16.1033" x2="18.5223" y2="14.2332" gradientUnits="userSpaceOnUse">
<stop offset="0.13" stop-color="#002766"/>
<stop offset="1" stop-color="#0147A3"/>
</linearGradient>
<linearGradient id="paint2_linear_2238_18730" x1="8.14035" y1="12.5612" x2="6.89212" y2="13.1051" gradientUnits="userSpaceOnUse">
<stop stop-color="#002766"/>
<stop offset="1" stop-color="#003A8C"/>
</linearGradient>
<linearGradient id="paint3_linear_2238_18730" x1="4.48528" y1="14.567" x2="6.22338" y2="14.4035" gradientUnits="userSpaceOnUse">
<stop stop-color="#002766"/>
<stop offset="1" stop-color="#013C90"/>
</linearGradient>
<linearGradient id="paint4_linear_2238_18730" x1="14.5763" y1="11.7329" x2="15.8256" y2="11.8971" gradientUnits="userSpaceOnUse">
<stop stop-color="#002766"/>
<stop offset="1" stop-color="#003A8C"/>
</linearGradient>
<linearGradient id="paint5_linear_2238_18730" x1="-2.6514" y1="17.6659" x2="-1.76831" y2="18.7317" gradientUnits="userSpaceOnUse">
<stop stop-color="#1890FF"/>
<stop offset="1" stop-color="#0050B3"/>
</linearGradient>
<linearGradient id="paint6_linear_2238_18730" x1="8.41374" y1="21.7121" x2="9.80364" y2="21.2676" gradientUnits="userSpaceOnUse">
<stop stop-color="#0050B3"/>
<stop offset="1" stop-color="#188FFF"/>
</linearGradient>
<linearGradient id="paint7_linear_2238_18730" x1="4.07763" y1="10.3876" x2="4.90894" y2="9.9269" gradientUnits="userSpaceOnUse">
<stop stop-color="#1890FF"/>
<stop offset="1" stop-color="#0050B3"/>
</linearGradient>
<linearGradient id="paint8_linear_2238_18730" x1="-3.45837" y1="18.9682" x2="-2.45687" y2="20.2568" gradientUnits="userSpaceOnUse">
<stop stop-color="#1890FF"/>
<stop offset="1" stop-color="#096DD9"/>
</linearGradient>
<linearGradient id="paint9_linear_2238_18730" x1="18.8784" y1="15.2795" x2="18.2266" y2="15.885" gradientUnits="userSpaceOnUse">
<stop stop-color="#1890FF"/>
<stop offset="1" stop-color="#0050B3"/>
</linearGradient>
<linearGradient id="paint10_linear_2238_18730" x1="11.2685" y1="0.67494" x2="11.2685" y2="11.7256" gradientUnits="userSpaceOnUse">
<stop stop-color="#003A8C"/>
<stop offset="1" stop-color="#1890FF"/>
</linearGradient>
<linearGradient id="paint11_linear_2238_18730" x1="11.1467" y1="3.78175" x2="9.71458" y2="0.0684552" gradientUnits="userSpaceOnUse">
<stop stop-color="#003A8C"/>
<stop offset="1" stop-color="#0050B3"/>
</linearGradient>
<linearGradient id="paint12_linear_2238_18730" x1="16.3515" y1="9.68447" x2="15.6471" y2="8.95136" gradientUnits="userSpaceOnUse">
<stop stop-color="#1890FF"/>
<stop offset="1" stop-color="#096DD9"/>
</linearGradient>
<linearGradient id="paint13_linear_2238_18730" x1="5.85712" y1="10.4093" x2="7.59311" y2="9.51156" gradientUnits="userSpaceOnUse">
<stop stop-color="#1890FF"/>
<stop offset="1" stop-color="#096DD9"/>
</linearGradient>
<linearGradient id="paint14_linear_2238_18730" x1="11.0001" y1="1.97542" x2="11.0001" y2="8.82761" gradientUnits="userSpaceOnUse">
<stop stop-color="#1890FF"/>
<stop offset="1" stop-color="#003A8C"/>
</linearGradient>
<linearGradient id="paint15_linear_2238_18730" x1="10.7988" y1="4.9541" x2="10.7988" y2="9.09787" gradientUnits="userSpaceOnUse">
<stop offset="0.16" stop-color="#002966"/>
<stop offset="1" stop-color="#013B8D"/>
</linearGradient>
<linearGradient id="paint16_linear_2238_18730" x1="8.66951" y1="11.8642" x2="5.6111" y2="15.746" gradientUnits="userSpaceOnUse">
<stop stop-color="#003A8C"/>
<stop offset="1" stop-color="#1890FF"/>
</linearGradient>
<linearGradient id="paint17_linear_2238_18730" x1="11.6831" y1="13.4505" x2="15.7107" y2="17.7407" gradientUnits="userSpaceOnUse">
<stop stop-color="#003A8C"/>
<stop offset="1" stop-color="#1890FF"/>
</linearGradient>
<linearGradient id="paint18_linear_2238_18730" x1="16.5131" y1="18.7348" x2="17.8341" y2="22.6383" gradientUnits="userSpaceOnUse">
<stop stop-color="#1890FF"/>
<stop offset="1" stop-color="#0050B3"/>
</linearGradient>
<linearGradient id="paint19_linear_2238_18730" x1="10.9915" y1="4.35838" x2="10.9915" y2="8.04225" gradientUnits="userSpaceOnUse">
<stop stop-color="#003A8C"/>
<stop offset="1" stop-color="#0050B3"/>
</linearGradient>
<linearGradient id="paint20_linear_2238_18730" x1="12.9863" y1="6.17105" x2="18.4329" y2="1.46966" gradientUnits="userSpaceOnUse">
<stop stop-color="#01439B"/>
<stop offset="1" stop-color="#0050B3"/>
</linearGradient>
<linearGradient id="paint21_linear_2238_18730" x1="10.1163" y1="5.89257" x2="1.54788" y2="6.22371" gradientUnits="userSpaceOnUse">
<stop stop-color="#014199"/>
<stop offset="0.73" stop-color="#0050B3"/>
</linearGradient>
<linearGradient id="paint22_linear_2238_18730" x1="6.21171" y1="6.82787" x2="10.3411" y2="6.22845" gradientUnits="userSpaceOnUse">
<stop stop-color="#096DD9"/>
<stop offset="1" stop-color="#0147A4"/>
</linearGradient>
<linearGradient id="paint23_linear_2238_18730" x1="16.783" y1="6.33785" x2="11.8927" y2="5.98347" gradientUnits="userSpaceOnUse">
<stop stop-color="#096DD9"/>
<stop offset="1" stop-color="#01459F"/>
</linearGradient>
<linearGradient id="paint24_linear_2238_18730" x1="17.4049" y1="17.8302" x2="3.93146" y2="16.3595" gradientUnits="userSpaceOnUse">
<stop stop-color="#1890FF"/>
<stop offset="0.46" stop-color="#003A8C"/>
<stop offset="1" stop-color="#1890FF"/>
</linearGradient>
<linearGradient id="paint25_linear_2238_18730" x1="10.5274" y1="16.3633" x2="12.4019" y2="16.4717" gradientUnits="userSpaceOnUse">
<stop offset="0.09" stop-color="#034399"/>
<stop offset="0.47" stop-color="#002766"/>
<stop offset="1" stop-color="#054BA2"/>
</linearGradient>
<linearGradient id="paint26_linear_2238_18730" x1="15.595" y1="18.1582" x2="14.5906" y2="17.5871" gradientUnits="userSpaceOnUse">
<stop stop-color="#0050B3"/>
<stop offset="1" stop-color="#0E6ACC"/>
</linearGradient>
<linearGradient id="paint27_linear_2238_18730" x1="8.69867" y1="16.767" x2="10.5468" y2="15.0126" gradientUnits="userSpaceOnUse">
<stop stop-color="#69C0FF"/>
<stop offset="1" stop-color="#096DD9"/>
</linearGradient>
<linearGradient id="paint28_linear_2238_18730" x1="8.37635" y1="15.9174" x2="9.8563" y2="14.8656" gradientUnits="userSpaceOnUse">
<stop stop-color="#69C0FF"/>
<stop offset="1" stop-color="#096DD9"/>
</linearGradient>
<linearGradient id="paint29_linear_2238_18730" x1="11.6447" y1="16.2766" x2="15.0063" y2="18.8589" gradientUnits="userSpaceOnUse">
<stop stop-color="#096DD9"/>
<stop offset="0.41" stop-color="#69C0FF"/>
<stop offset="0.72" stop-color="#69C0FF"/>
<stop offset="1" stop-color="#096DD9"/>
</linearGradient>
<linearGradient id="paint30_linear_2238_18730" x1="11.4321" y1="16.5525" x2="14.7929" y2="19.1358" gradientUnits="userSpaceOnUse">
<stop stop-color="#096DD9"/>
<stop offset="0.41" stop-color="#69C0FF"/>
<stop offset="0.72" stop-color="#69C0FF"/>
<stop offset="1" stop-color="#096DD9"/>
</linearGradient>
<linearGradient id="paint31_linear_2238_18730" x1="10.9211" y1="17.2205" x2="14.2819" y2="19.8037" gradientUnits="userSpaceOnUse">
<stop stop-color="#096DD9"/>
<stop offset="0.41" stop-color="#69C0FF"/>
<stop offset="0.72" stop-color="#69C0FF"/>
<stop offset="1" stop-color="#096DD9"/>
</linearGradient>
<linearGradient id="paint32_linear_2238_18730" x1="12.1888" y1="15.5684" x2="15.5504" y2="18.1516" gradientUnits="userSpaceOnUse">
<stop stop-color="#096DD9"/>
<stop offset="0.41" stop-color="#69C0FF"/>
<stop offset="0.72" stop-color="#69C0FF"/>
<stop offset="1" stop-color="#096DD9"/>
</linearGradient>
<linearGradient id="paint33_linear_2238_18730" x1="11.2827" y1="16.745" x2="14.6435" y2="19.3282" gradientUnits="userSpaceOnUse">
<stop stop-color="#096DD9"/>
<stop offset="0.41" stop-color="#69C0FF"/>
<stop offset="0.72" stop-color="#69C0FF"/>
<stop offset="1" stop-color="#096DD9"/>
</linearGradient>
<clipPath id="clip0_2238_18730">
<rect width="117.465" height="20.3402" fill="white" transform="translate(0.535156 0.648438)"/>
</clipPath>
</defs>
</svg>
