<svg width="318" height="32" viewBox="0 0 318 32" fill="none" xmlns="http://www.w3.org/2000/svg">
<rect x="0.5" y="0.499512" width="45.5672" height="30.9318" rx="3.49147" fill="#020203" stroke="#282828"/>
<rect x="17.3326" y="9.29844" width="11.3348" height="13.3348" rx="3.65885" fill="white" stroke="white" stroke-width="0.665245"/>
<path fill-rule="evenodd" clip-rule="evenodd" d="M34.0973 16.0516C34.0973 21.9776 29.2936 26.7815 23.368 26.7815C17.4424 26.7815 12.6387 21.9776 12.6387 16.0516C12.6387 10.1257 17.4424 5.32178 23.368 5.32178C29.2936 5.32178 34.0973 10.1257 34.0973 16.0516ZM25.9443 12.0654C27.4368 12.5779 28.5285 13.3454 28.3143 14.7737C28.1588 15.8195 27.5769 16.3254 26.8037 16.5025C27.8644 17.0526 28.226 18.0966 27.89 19.359C27.2522 21.1758 25.7362 21.3287 23.7197 20.949L23.23 22.9019L22.048 22.6081L22.5309 20.6813C22.2245 20.6055 21.9113 20.5243 21.5887 20.4378L21.1038 22.3739L19.9231 22.0801L20.4121 20.1232L18.0312 19.5248L18.6185 18.1763C18.6185 18.1763 19.4901 18.4064 19.4779 18.3896C19.8127 18.4722 19.9615 18.2548 20.0201 18.1106L21.3469 12.81C21.3617 12.5598 21.2749 12.2445 20.796 12.1251C20.8142 12.1123 19.9373 11.9124 19.9373 11.9124L20.2518 10.6545L22.636 11.2429L23.1209 9.30811L24.3023 9.60195L23.8274 11.4985C24.1453 11.5703 24.4646 11.6434 24.7751 11.7205L25.2465 9.83608L26.4285 10.1299L25.9443 12.0654ZM23.1158 15.2926C23.921 15.5061 25.673 15.9706 25.9784 14.7526C26.29 13.5065 24.5878 13.1302 23.7543 12.9459L23.7543 12.9459C23.6599 12.925 23.5766 12.9066 23.5087 12.8896L22.92 15.2417C22.9761 15.2556 23.042 15.273 23.1158 15.2926ZM22.2025 19.0794C23.1668 19.3334 25.276 19.889 25.6116 18.5469C25.9551 17.1747 23.9102 16.7176 22.9124 16.4946L22.9123 16.4946C22.8009 16.4697 22.7025 16.4477 22.6219 16.4277L21.9727 19.0199C22.0386 19.0362 22.1157 19.0566 22.2021 19.0793L22.2023 19.0793L22.2025 19.0794Z" fill="#F7931A"/>
<rect x="54.7866" y="0.5" width="45.5672" height="30.9318" rx="3.49147" fill="#020203" stroke="#282828"/>
<path fill-rule="evenodd" clip-rule="evenodd" d="M74.3025 24.5449L74.6048 22.6169L73.9314 22.6011H70.7156L72.9504 8.37336C72.9574 8.33028 72.9799 8.29028 73.0128 8.26183C73.0458 8.23338 73.0879 8.21777 73.132 8.21777H78.5543C80.3545 8.21777 81.5968 8.59382 82.2453 9.33615C82.5494 9.6844 82.743 10.0484 82.8368 10.4488C82.9351 10.8691 82.9367 11.3712 82.8408 11.9836L82.8339 12.0281V12.4206L83.138 12.5936C83.394 12.73 83.5975 12.8861 83.7536 13.0647C84.0136 13.3626 84.1819 13.7411 84.253 14.1896C84.3265 14.651 84.3022 15.2002 84.1819 15.8219C84.0431 16.5369 83.8189 17.1598 83.5159 17.6693C83.2374 18.1388 82.8825 18.5284 82.461 18.8301C82.0586 19.1169 81.5806 19.3346 81.0401 19.4739C80.5163 19.6108 79.9191 19.6799 79.2641 19.6799H78.8422C78.5405 19.6799 78.2474 19.789 78.0173 19.9846C77.7866 20.1842 77.6341 20.457 77.5873 20.7554L77.5554 20.929L77.0212 24.3274L76.997 24.4521C76.9906 24.4916 76.9796 24.5113 76.9634 24.5246C76.949 24.5368 76.9282 24.5449 76.908 24.5449H74.3025Z" fill="#28356A"/>
<path fill-rule="evenodd" clip-rule="evenodd" d="M83.4261 12.0737C83.41 12.1776 83.3914 12.2838 83.3707 12.3929C82.6556 16.0792 80.2091 17.3527 77.0847 17.3527H75.4938C75.1116 17.3527 74.7896 17.6312 74.7301 18.0096L73.6849 24.6664C73.6462 24.915 73.837 25.1389 74.0867 25.1389H76.9083C77.2424 25.1389 77.5262 24.8952 77.5789 24.5643L77.6065 24.4205L78.1378 21.0354L78.172 20.8497C78.224 20.5177 78.5085 20.2739 78.8425 20.2739H79.2645C81.9982 20.2739 84.1383 19.1596 84.7639 15.9347C85.025 14.5875 84.8898 13.4626 84.1984 12.6715C83.9892 12.433 83.7297 12.235 83.4261 12.0737Z" fill="#298FC2"/>
<path fill-rule="evenodd" clip-rule="evenodd" d="M82.6777 11.7743C82.5684 11.7423 82.4557 11.7133 82.3401 11.6871C82.2238 11.6616 82.1048 11.639 81.9823 11.6192C81.5533 11.5496 81.0833 11.5166 80.5798 11.5166H76.3299C76.2251 11.5166 76.1257 11.5403 76.0368 11.5833C75.8407 11.6779 75.6951 11.8642 75.6598 12.0923L74.7556 17.8421L74.7297 18.0097C74.7892 17.6312 75.1112 17.3527 75.4934 17.3527H77.0843C80.2087 17.3527 82.6552 16.0786 83.3703 12.3929C83.3916 12.2838 83.4096 12.1776 83.4256 12.0738C83.2448 11.9773 83.0488 11.8949 82.8379 11.8247C82.7857 11.8073 82.732 11.7905 82.6777 11.7743Z" fill="#22284F"/>
<path fill-rule="evenodd" clip-rule="evenodd" d="M75.6602 12.0922C75.6955 11.8641 75.841 11.6778 76.0371 11.5838C76.1267 11.5407 76.2254 11.517 76.3302 11.517H80.5802C81.0836 11.517 81.5537 11.5501 81.9826 11.6197C82.1052 11.6394 82.2242 11.6622 82.3405 11.6877C82.4561 11.7137 82.5688 11.7428 82.6781 11.7747C82.7323 11.7909 82.7861 11.8078 82.8387 11.8246C83.0497 11.8948 83.2458 11.9779 83.4266 12.0736C83.6394 10.7114 83.4249 9.78388 82.6913 8.944C81.8825 8.01925 80.423 7.62354 78.5552 7.62354H73.1327C72.7512 7.62354 72.4258 7.90203 72.3668 8.28117L70.1083 22.6552C70.0638 22.9396 70.2822 23.1961 70.5679 23.1961H73.9154L75.6602 12.0922Z" fill="#28356A"/>
<rect width="46.5672" height="31.9318" transform="translate(108.573)" fill="#050507"/>
<rect x="109.073" y="0.5" width="45.5672" height="30.9318" rx="3.49147" stroke="#282828"/>
<path fill-rule="evenodd" clip-rule="evenodd" d="M116.922 11.3091L112.565 20.9508H117.781L118.427 19.4135H119.905L120.552 20.9508H126.293V19.7775L126.805 20.9508H129.774L130.286 19.7527V20.9508H142.226L143.678 19.4534L145.037 20.9508L151.17 20.9632L146.799 16.1569L151.17 11.3091H145.132L143.719 12.7788L142.402 11.3091H129.413L128.298 13.7977L127.156 11.3091H121.951V12.4425L121.372 11.3091H116.922ZM117.931 12.6782H120.473L123.363 19.2163V12.6782H126.148L128.381 17.366L130.438 12.6782H133.209V19.5968H131.523L131.509 14.1754L129.051 19.5968H127.542L125.07 14.1754V19.5968H121.601L120.943 18.0457H117.39L116.734 19.5954H114.876L117.931 12.6782ZM141.608 12.6782H134.752V19.5927H141.502L143.678 17.3011L145.775 19.5927H147.967L144.781 16.1555L147.967 12.6782H145.87L143.705 14.9435L141.608 12.6782ZM119.168 13.8488L117.997 16.6119H120.337L119.168 13.8488ZM136.445 15.3737V14.1107V14.1095H140.723L142.59 16.1293L140.64 18.1602H136.445V16.7813H140.185V15.3737H136.445Z" fill="#1F72CD"/>
<rect x="163.36" y="0.5" width="45.5672" height="30.9318" rx="3.49147" fill="#020203" stroke="#282828"/>
<path fill-rule="evenodd" clip-rule="evenodd" d="M186.388 23.1254C184.805 24.4935 182.751 25.3194 180.506 25.3194C175.498 25.3194 171.438 21.2074 171.438 16.135C171.438 11.0627 175.498 6.95068 180.506 6.95068C182.751 6.95068 184.805 7.77658 186.388 9.1447C187.972 7.77661 190.026 6.95073 192.27 6.95073C197.279 6.95073 201.339 11.0627 201.339 16.1351C201.339 21.2075 197.279 25.3194 192.27 25.3194C190.026 25.3194 187.972 24.4935 186.388 23.1254Z" fill="#ED0006"/>
<path fill-rule="evenodd" clip-rule="evenodd" d="M186.388 23.1254C188.338 21.4408 189.574 18.9342 189.574 16.135C189.574 13.3359 188.338 10.8293 186.388 9.1447C187.972 7.77659 190.026 6.95068 192.27 6.95068C197.279 6.95068 201.339 11.0627 201.339 16.135C201.339 21.2074 197.279 25.3194 192.27 25.3194C190.026 25.3194 187.972 24.4935 186.388 23.1254Z" fill="#F9A000"/>
<path fill-rule="evenodd" clip-rule="evenodd" d="M186.388 23.1251C188.338 21.4406 189.574 18.9339 189.574 16.1348C189.574 13.3357 188.338 10.8291 186.388 9.14453C184.438 10.8291 183.202 13.3357 183.202 16.1348C183.202 18.9339 184.438 21.4406 186.388 23.1251Z" fill="#FF5E00"/>
<rect x="217.646" y="0.5" width="45.5672" height="30.9318" rx="3.49147" fill="#020203" stroke="#282828"/>
<path fill-rule="evenodd" clip-rule="evenodd" d="M231.283 21.6313H228.462L226.347 13.5607C226.246 13.1895 226.033 12.8613 225.719 12.7066C224.937 12.3179 224.074 12.0085 223.134 11.8525V11.5417H227.678C228.305 11.5417 228.776 12.0085 228.854 12.5506L229.952 18.3721L232.771 11.5417H235.514L231.283 21.6313ZM237.082 21.6313H234.418L236.612 11.5417H239.276L237.082 21.6313ZM242.723 14.3369C242.801 13.7935 243.272 13.4828 243.82 13.4828C244.683 13.4047 245.622 13.5608 246.406 13.9482L246.877 11.7758C246.093 11.4651 245.23 11.3091 244.448 11.3091C241.862 11.3091 239.98 12.7066 239.98 14.6463C239.98 16.1218 241.313 16.8966 242.254 17.3634C243.272 17.8288 243.664 18.1395 243.585 18.6049C243.585 19.303 242.801 19.6137 242.019 19.6137C241.078 19.6137 240.137 19.381 239.276 18.9923L238.806 21.166C239.746 21.5533 240.764 21.7094 241.705 21.7094C244.604 21.786 246.406 20.3898 246.406 18.2942C246.406 15.6551 242.723 15.5004 242.723 14.3369ZM255.731 21.6313L253.615 11.5417H251.343C250.872 11.5417 250.402 11.8525 250.245 12.3179L246.328 21.6313H249.071L249.618 20.1571H252.988L253.301 21.6313H255.731ZM251.735 14.2589L252.518 18.0615H250.324L251.735 14.2589Z" fill="white"/>
<rect x="271.933" y="0.5" width="45.5672" height="30.9318" rx="3.49147" fill="#020203" stroke="#282828"/>
<path d="M291.058 31.2665L317.335 23.6162V27.9403C317.335 29.7773 315.846 31.2665 314.009 31.2665H291.058Z" fill="#FD6020"/>
<path fill-rule="evenodd" clip-rule="evenodd" d="M312.347 12.7871C313.793 12.7871 314.588 13.4305 314.588 14.6457C314.66 15.575 314.01 16.3613 313.142 16.5042L315.094 19.1491H313.576L311.913 16.5757H311.769V19.1491H310.54V12.7871H312.347ZM311.769 15.718H312.13C312.925 15.718 313.287 15.3606 313.287 14.7172C313.287 14.1453 312.925 13.7879 312.13 13.7879H311.769V15.718ZM306.275 19.1491H309.745V18.0769H307.504V16.3613H309.673V15.289H307.504V13.8594H309.745V12.7871H306.275V19.1491ZM302.661 17.0761L300.999 12.7871H299.698L302.372 19.2921H303.023L305.697 12.7871H304.396L302.661 17.0761ZM287.988 16.0039C287.988 17.791 289.434 19.2921 291.241 19.2921C291.819 19.2921 292.325 19.1491 292.831 18.9347V17.505C292.469 17.9339 291.964 18.2199 291.385 18.2199C290.229 18.2199 289.289 17.3621 289.289 16.2183V16.0754C289.217 14.9316 290.156 13.9309 291.313 13.8594C291.891 13.8594 292.469 14.1453 292.831 14.5742V13.1445C292.397 12.8586 291.819 12.7871 291.313 12.7871C289.434 12.6442 287.988 14.1453 287.988 16.0039ZM285.747 15.2176C285.024 14.9316 284.808 14.7887 284.808 14.4312C284.88 14.0023 285.241 13.6449 285.675 13.7164C286.036 13.7164 286.398 13.9309 286.687 14.2168L287.337 13.359C286.831 12.9301 286.181 12.6442 285.53 12.6442C284.518 12.5727 283.651 13.359 283.579 14.3598V14.4312C283.579 15.289 283.94 15.7894 285.097 16.1468C285.386 16.2183 285.675 16.3613 285.964 16.5043C286.181 16.6472 286.325 16.8617 286.325 17.1476C286.325 17.648 285.892 18.0769 285.458 18.0769H285.386C284.808 18.0769 284.302 17.7195 284.085 17.2191L283.29 18.0054C283.723 18.7917 284.591 19.2206 285.458 19.2206C286.615 19.2921 287.554 18.4343 287.627 17.2906V17.0761C287.554 16.2183 287.193 15.7894 285.747 15.2176ZM281.555 19.1491H282.784V12.7871H281.555V19.1491ZM275.844 12.7871H277.652H278.013C279.748 12.8586 281.121 14.2883 281.049 16.0039C281.049 16.9331 280.615 17.7909 279.892 18.4343C279.242 18.9347 278.447 19.2206 277.652 19.1491H275.844V12.7871ZM277.435 18.0769C278.013 18.1484 278.664 17.9339 279.097 17.5765C279.531 17.1476 279.748 16.5757 279.748 15.9324C279.748 15.3605 279.531 14.7886 279.097 14.3598C278.664 14.0023 278.013 13.7879 277.435 13.8594H277.073V18.0769H277.435Z" fill="white"/>
<path fill-rule="evenodd" clip-rule="evenodd" d="M296.517 12.6396C294.71 12.6396 293.192 14.0693 293.192 15.9279C293.192 17.715 294.638 19.2161 296.517 19.2876C298.397 19.3591 299.842 17.8579 299.915 15.9994C299.842 14.1408 298.397 12.6396 296.517 12.6396V12.6396Z" fill="#FD6020"/>
</svg>
