<svg width="61" height="60" viewBox="0 0 61 60" fill="none" xmlns="http://www.w3.org/2000/svg">
<rect width="50" height="50" rx="11.3636" transform="matrix(1 0 0 -1 5.5 55)" fill="url(#paint0_radial_198_1462)"/>
<rect x="-2.5" y="2.5" width="55" height="55" rx="13.8636" transform="matrix(1 0 0 -1 5.5 60)" stroke="white" stroke-opacity="0.1" stroke-width="5"/>
<mask id="mask0_198_1462" style="mask-type:alpha" maskUnits="userSpaceOnUse" x="5" y="5" width="51" height="50">
<rect width="50" height="50" rx="11.3636" transform="matrix(1 0 0 -1 5.5 55)" fill="url(#paint1_radial_198_1462)"/>
</mask>
<g mask="url(#mask0_198_1462)">
<line x1="3.63487" y1="2.94301" x2="57.5232" y2="56.8314" stroke="#00C1D1" stroke-width="0.27237"/>
<line y1="-0.136185" x2="76.2096" y2="-0.136185" transform="matrix(-0.707107 0.707107 0.707107 0.707107 57.4272 3.03931)" stroke="#00C1D1" stroke-width="0.27237"/>
<line y1="-0.136185" x2="50.0746" y2="-0.136185" transform="matrix(-4.37114e-08 1 1 4.37114e-08 18.2065 4.92505)" stroke="#00C1D1" stroke-width="0.27237"/>
<line y1="-0.136185" x2="50.0746" y2="-0.136185" transform="matrix(-1 -8.74228e-08 -8.74228e-08 1 55.5024 17.7058)" stroke="#00C1D1" stroke-width="0.27237"/>
<line y1="-0.136185" x2="50.0746" y2="-0.136185" transform="matrix(-4.37114e-08 1 1 4.37114e-08 42.7207 4.92505)" stroke="#00C1D1" stroke-width="0.27237"/>
<line y1="-0.136185" x2="50.0746" y2="-0.136185" transform="matrix(-1 -8.74228e-08 -8.74228e-08 1 55.5024 42.2192)" stroke="#00C1D1" stroke-width="0.27237"/>
<circle cx="30.4829" cy="29.9836" r="17.7041" stroke="#00C1D1" stroke-width="0.27237"/>
<g filter="url(#filter0_f_198_1462)">
<circle cx="17.9992" cy="17.5001" r="1.13636" fill="#00C1D1"/>
</g>
<g filter="url(#filter1_f_198_1462)">
<circle cx="17.9992" cy="42.5001" r="1.13636" fill="#00C1D1"/>
</g>
<g filter="url(#filter2_f_198_1462)">
<circle cx="42.9992" cy="17.5001" r="1.13636" fill="#00C1D1"/>
</g>
<g filter="url(#filter3_f_198_1462)">
<circle cx="42.9992" cy="42.5001" r="1.13636" fill="#00C1D1"/>
</g>
</g>
<path d="M34.8024 19.7727H25.0615C23.9865 19.7727 23.1138 20.6886 23.1138 21.8182V38.1818C23.1138 39.3113 23.9865 40.2273 25.0615 40.2273H34.8024C35.8785 40.2273 36.7501 39.3113 36.7501 38.1818V21.8182C36.7501 20.6886 35.8785 19.7727 34.8024 19.7727ZM28.2274 23.1818H29.932H31.6365" fill="white"/>
<path d="M28.2274 23.1818H29.932H31.6365M34.8024 19.7727H25.0615C23.9865 19.7727 23.1138 20.6886 23.1138 21.8182V38.1818C23.1138 39.3113 23.9865 40.2273 25.0615 40.2273H34.8024C35.8785 40.2273 36.7501 39.3113 36.7501 38.1818V21.8182C36.7501 20.6886 35.8785 19.7727 34.8024 19.7727Z" stroke="black" stroke-width="0.967492" stroke-linecap="round" stroke-linejoin="round"/>
<path d="M28.2271 23.1814H31.6361" stroke="#0F1116" stroke-width="1.13636" stroke-linecap="round"/>
<defs>
<filter id="filter0_f_198_1462" x="15.7264" y="15.2274" width="4.54568" height="4.54543" filterUnits="userSpaceOnUse" color-interpolation-filters="sRGB">
<feFlood flood-opacity="0" result="BackgroundImageFix"/>
<feBlend mode="normal" in="SourceGraphic" in2="BackgroundImageFix" result="shape"/>
<feGaussianBlur stdDeviation="0.568182" result="effect1_foregroundBlur_198_1462"/>
</filter>
<filter id="filter1_f_198_1462" x="15.7264" y="40.2274" width="4.54568" height="4.54543" filterUnits="userSpaceOnUse" color-interpolation-filters="sRGB">
<feFlood flood-opacity="0" result="BackgroundImageFix"/>
<feBlend mode="normal" in="SourceGraphic" in2="BackgroundImageFix" result="shape"/>
<feGaussianBlur stdDeviation="0.568182" result="effect1_foregroundBlur_198_1462"/>
</filter>
<filter id="filter2_f_198_1462" x="40.7264" y="15.2274" width="4.54568" height="4.54543" filterUnits="userSpaceOnUse" color-interpolation-filters="sRGB">
<feFlood flood-opacity="0" result="BackgroundImageFix"/>
<feBlend mode="normal" in="SourceGraphic" in2="BackgroundImageFix" result="shape"/>
<feGaussianBlur stdDeviation="0.568182" result="effect1_foregroundBlur_198_1462"/>
</filter>
<filter id="filter3_f_198_1462" x="40.7264" y="40.2274" width="4.54568" height="4.54543" filterUnits="userSpaceOnUse" color-interpolation-filters="sRGB">
<feFlood flood-opacity="0" result="BackgroundImageFix"/>
<feBlend mode="normal" in="SourceGraphic" in2="BackgroundImageFix" result="shape"/>
<feGaussianBlur stdDeviation="0.568182" result="effect1_foregroundBlur_198_1462"/>
</filter>
<radialGradient id="paint0_radial_198_1462" cx="0" cy="0" r="1" gradientUnits="userSpaceOnUse" gradientTransform="translate(25 -23.0392) rotate(90) scale(73.0392 41.468)">
<stop stop-color="#00C1D1"/>
<stop offset="0.801475" stop-color="#0E1015"/>
</radialGradient>
<radialGradient id="paint1_radial_198_1462" cx="0" cy="0" r="1" gradientUnits="userSpaceOnUse" gradientTransform="translate(25) rotate(90) scale(50)">
<stop stop-color="#1888FA"/>
<stop offset="1" stop-color="#0E1015"/>
</radialGradient>
</defs>
</svg>
