<svg width="318" height="32" viewBox="0 0 318 32" fill="none" xmlns="http://www.w3.org/2000/svg">
<rect x="0.5" y="0.499756" width="45.5672" height="30.9318" rx="3.49147" stroke="#EEEEEE" stroke-opacity="0.2"/>
<rect x="17.3326" y="9.29844" width="11.3348" height="13.3348" rx="3.65885" fill="white" stroke="white" stroke-width="0.665245"/>
<path fill-rule="evenodd" clip-rule="evenodd" d="M34.0973 16.0516C34.0973 21.9776 29.2936 26.7815 23.368 26.7815C17.4424 26.7815 12.6387 21.9776 12.6387 16.0516C12.6387 10.1257 17.4424 5.32178 23.368 5.32178C29.2936 5.32178 34.0973 10.1257 34.0973 16.0516ZM25.9443 12.0654C27.4368 12.5779 28.5285 13.3454 28.3143 14.7737C28.1588 15.8195 27.5769 16.3254 26.8037 16.5025C27.8644 17.0526 28.226 18.0966 27.89 19.359C27.2522 21.1758 25.7362 21.3287 23.7197 20.949L23.23 22.9019L22.048 22.6081L22.5309 20.6813C22.2245 20.6055 21.9113 20.5243 21.5887 20.4378L21.1038 22.3739L19.9231 22.0801L20.4121 20.1232L18.0312 19.5248L18.6185 18.1763C18.6185 18.1763 19.4901 18.4064 19.4779 18.3896C19.8127 18.4722 19.9615 18.2548 20.0201 18.1106L21.3469 12.81C21.3617 12.5598 21.2749 12.2445 20.796 12.1251C20.8142 12.1123 19.9373 11.9124 19.9373 11.9124L20.2518 10.6545L22.636 11.2429L23.1209 9.30811L24.3023 9.60195L23.8274 11.4985C24.1453 11.5703 24.4646 11.6434 24.7751 11.7205L25.2465 9.83608L26.4285 10.1299L25.9443 12.0654ZM23.1158 15.2926C23.921 15.5061 25.673 15.9706 25.9784 14.7526C26.29 13.5065 24.5878 13.1302 23.7543 12.9459L23.7543 12.9459C23.6599 12.925 23.5766 12.9066 23.5087 12.8896L22.92 15.2417C22.9761 15.2556 23.042 15.273 23.1158 15.2926ZM22.2025 19.0794C23.1668 19.3334 25.276 19.889 25.6116 18.5469C25.9551 17.1747 23.9102 16.7176 22.9124 16.4946L22.9123 16.4946C22.8009 16.4697 22.7025 16.4477 22.6219 16.4277L21.9727 19.0199C22.0386 19.0362 22.1157 19.0566 22.2021 19.0793L22.2023 19.0793L22.2025 19.0794Z" fill="#F7931A"/>
<rect x="54.7866" y="0.5" width="45.5672" height="30.9318" rx="3.49147" stroke="#EEEEEE" stroke-opacity="0.2"/>
<path fill-rule="evenodd" clip-rule="evenodd" d="M74.3026 24.5452L74.6049 22.6171L73.9314 22.6014H70.7156L72.9505 8.37361C72.9575 8.33052 72.98 8.29053 73.0128 8.26208C73.0459 8.23363 73.088 8.21802 73.132 8.21802H78.5543C80.3546 8.21802 81.5968 8.59406 82.2454 9.3364C82.5494 9.68464 82.7431 10.0487 82.8369 10.4491C82.9351 10.8694 82.9368 11.3714 82.8409 11.9838L82.8339 12.0284V12.4208L83.138 12.5938C83.394 12.7302 83.5976 12.8863 83.7537 13.065C84.0137 13.3628 84.1819 13.7413 84.253 14.1899C84.3265 14.6513 84.3023 15.2005 84.1819 15.8222C84.0432 16.5372 83.8189 17.16 83.516 17.6695C83.2375 18.1391 82.8825 18.5286 82.461 18.8304C82.0587 19.1171 81.5807 19.3348 81.0402 19.4742C80.5163 19.6111 79.9192 19.6802 79.2642 19.6802H78.8422C78.5406 19.6802 78.2475 19.7892 78.0174 19.9848C77.7866 20.1845 77.6341 20.4573 77.5873 20.7556L77.5554 20.9292L77.0212 24.3276L76.9971 24.4523C76.9906 24.4918 76.9796 24.5115 76.9634 24.5248C76.949 24.537 76.9283 24.5452 76.9081 24.5452H74.3026" fill="#28356A"/>
<path fill-rule="evenodd" clip-rule="evenodd" d="M83.4262 12.0737C83.4101 12.1776 83.3915 12.2838 83.3708 12.3929C82.6557 16.0792 80.2093 17.3527 77.0848 17.3527H75.4939C75.1118 17.3527 74.7897 17.6312 74.7303 18.0096L73.6851 24.6664C73.6464 24.915 73.8371 25.1389 74.0868 25.1389H76.9085C77.2425 25.1389 77.5264 24.8952 77.579 24.5643L77.6067 24.4205L78.1379 21.0354L78.1721 20.8497C78.2241 20.5177 78.5086 20.2739 78.8426 20.2739H79.2646C81.9983 20.2739 84.1385 19.1596 84.764 15.9347C85.0252 14.5875 84.89 13.4626 84.1985 12.6715C83.9893 12.433 83.7298 12.235 83.4262 12.0737" fill="#298FC2"/>
<path fill-rule="evenodd" clip-rule="evenodd" d="M82.6778 11.7743C82.5685 11.7423 82.4558 11.7133 82.3402 11.6871C82.224 11.6616 82.105 11.639 81.9824 11.6192C81.5534 11.5496 81.0834 11.5166 80.58 11.5166H76.33C76.2252 11.5166 76.1258 11.5403 76.0369 11.5833C75.8408 11.6779 75.6952 11.8642 75.6599 12.0923L74.7558 17.8421L74.7299 18.0097C74.7893 17.6312 75.1113 17.3527 75.4935 17.3527H77.0844C80.2088 17.3527 82.6553 16.0786 83.3704 12.3929C83.3918 12.2838 83.4097 12.1776 83.4258 12.0738C83.2449 11.9773 83.049 11.8949 82.838 11.8247C82.7858 11.8073 82.7321 11.7905 82.6778 11.7743" fill="#22284F"/>
<path fill-rule="evenodd" clip-rule="evenodd" d="M75.6602 12.0924C75.6955 11.8643 75.841 11.678 76.0371 11.584C76.1267 11.541 76.2254 11.5172 76.3302 11.5172H80.5802C81.0836 11.5172 81.5537 11.5504 81.9826 11.62C82.1052 11.6396 82.2242 11.6624 82.3405 11.6879C82.4561 11.7139 82.5688 11.743 82.6781 11.7749C82.7323 11.7912 82.7861 11.8081 82.8387 11.8248C83.0497 11.8951 83.2458 11.9781 83.4266 12.0739C83.6394 10.7116 83.4249 9.78413 82.6913 8.94424C81.8825 8.0195 80.423 7.62378 78.5552 7.62378H73.1327C72.7512 7.62378 72.4258 7.90228 72.3668 8.28141L70.1083 22.6555C70.0638 22.9398 70.2822 23.1964 70.5679 23.1964H73.9154L75.6602 12.0924" fill="#28356A"/>
<rect x="109.073" y="0.5" width="45.5672" height="30.9318" rx="3.49147" stroke="#EEEEEE" stroke-opacity="0.2"/>
<path fill-rule="evenodd" clip-rule="evenodd" d="M116.921 11.3091L112.565 20.9508H117.78L118.427 19.4135H119.905L120.552 20.9508H126.293V19.7775L126.804 20.9508H129.774L130.286 19.7527V20.9508H142.226L143.678 19.4534L145.037 20.9508L151.17 20.9632L146.799 16.1569L151.17 11.3091H145.132L143.719 12.7788L142.402 11.3091H129.413L128.298 13.7977L127.156 11.3091H121.951V12.4425L121.372 11.3091H116.921ZM117.931 12.6783H120.473L123.363 19.2164V12.6783H126.148L128.38 17.3661L130.438 12.6783H133.209V19.5969H131.523L131.509 14.1755L129.05 19.5969H127.542L125.07 14.1755V19.5969H121.601L120.943 18.0458H117.39L116.734 19.5955H114.875L117.931 12.6783ZM141.608 12.6783H134.752V19.5928H141.502L143.678 17.3012L145.775 19.5928H147.967L144.781 16.1556L147.967 12.6783H145.87L143.705 14.9436L141.608 12.6783ZM119.168 13.8488L117.997 16.6119H120.337L119.168 13.8488ZM136.445 15.3739V14.1109V14.1097H140.723L142.59 16.1295L140.64 18.1604H136.445V16.7816H140.185V15.3739H136.445Z" fill="#1F72CD"/>
<rect x="163.36" y="0.5" width="45.5672" height="30.9318" rx="3.49147" stroke="#EEEEEE" stroke-opacity="0.2"/>
<path fill-rule="evenodd" clip-rule="evenodd" d="M186.388 23.1252C184.805 24.4933 182.751 25.3192 180.506 25.3192C175.498 25.3192 171.438 21.2072 171.438 16.1348C171.438 11.0624 175.498 6.95044 180.506 6.95044C182.751 6.95044 184.805 7.77635 186.388 9.14448C187.972 7.77638 190.026 6.95048 192.271 6.95048C197.279 6.95048 201.339 11.0625 201.339 16.1348C201.339 21.2072 197.279 25.3192 192.271 25.3192C190.026 25.3192 187.972 24.4933 186.388 23.1252Z" fill="#ED0006"/>
<path fill-rule="evenodd" clip-rule="evenodd" d="M186.388 23.1251C188.338 21.4406 189.575 18.9339 189.575 16.1348C189.575 13.3357 188.338 10.829 186.388 9.14446C187.972 7.77634 190.026 6.95044 192.271 6.95044C197.279 6.95044 201.339 11.0624 201.339 16.1348C201.339 21.2072 197.279 25.3192 192.271 25.3192C190.026 25.3192 187.972 24.4932 186.388 23.1251Z" fill="#F9A000"/>
<path fill-rule="evenodd" clip-rule="evenodd" d="M186.388 23.1251C188.338 21.4406 189.575 18.9339 189.575 16.1348C189.575 13.3357 188.338 10.8291 186.388 9.14453C184.439 10.8291 183.202 13.3357 183.202 16.1348C183.202 18.9339 184.439 21.4406 186.388 23.1251Z" fill="#FF5E00"/>
<rect x="217.646" y="0.5" width="45.5672" height="30.9318" rx="3.49147" stroke="#EEEEEE" stroke-opacity="0.2"/>
<path fill-rule="evenodd" clip-rule="evenodd" d="M231.283 21.6314H228.462L226.346 13.5608C226.246 13.1896 226.033 12.8614 225.719 12.7067C224.937 12.3179 224.074 12.0086 223.133 11.8525V11.5418H227.678C228.305 11.5418 228.776 12.0086 228.854 12.5506L229.952 18.3722L232.771 11.5418H235.514L231.283 21.6314ZM237.082 21.6314H234.418L236.612 11.5418H239.276L237.082 21.6314ZM242.723 14.3369C242.801 13.7935 243.272 13.4828 243.82 13.4828C244.683 13.4047 245.622 13.5608 246.406 13.9482L246.877 11.7758C246.093 11.4651 245.23 11.3091 244.448 11.3091C241.862 11.3091 239.98 12.7066 239.98 14.6463C239.98 16.1218 241.313 16.8966 242.254 17.3634C243.272 17.8288 243.664 18.1395 243.585 18.6049C243.585 19.303 242.801 19.6137 242.018 19.6137C241.078 19.6137 240.137 19.381 239.276 18.9923L238.805 21.166C239.746 21.5533 240.764 21.7094 241.705 21.7094C244.604 21.7861 246.406 20.3898 246.406 18.2942C246.406 15.6551 242.723 15.5004 242.723 14.3369V14.3369ZM255.73 21.6314L253.615 11.5418H251.343C250.872 11.5418 250.402 11.8525 250.245 12.3179L246.328 21.6314H249.07L249.618 20.1572H252.988L253.301 21.6314H255.73ZM251.735 14.2588L252.517 18.0614H250.323L251.735 14.2588Z" fill="white"/>
<rect x="271.933" y="0.5" width="45.5672" height="30.9318" rx="3.49147" stroke="#EEEEEE" stroke-opacity="0.2"/>
<path d="M291.058 31.2665L317.335 23.6162V27.9403C317.335 29.7773 315.846 31.2665 314.009 31.2665H291.058Z" fill="#FD6020"/>
<path fill-rule="evenodd" clip-rule="evenodd" d="M312.347 12.7871C313.793 12.7871 314.588 13.4305 314.588 14.6457C314.66 15.575 314.01 16.3613 313.142 16.5042L315.094 19.1491H313.576L311.913 16.5757H311.769V19.1491H310.54V12.7871H312.347ZM311.769 15.718H312.13C312.925 15.718 313.287 15.3606 313.287 14.7172C313.287 14.1453 312.925 13.7879 312.13 13.7879H311.769V15.718ZM306.275 19.1491H309.745V18.0769H307.504V16.3613H309.673V15.289H307.504V13.8594H309.745V12.7871H306.275V19.1491V19.1491ZM302.661 17.0761L300.999 12.7871H299.698L302.372 19.2921H303.023L305.697 12.7871H304.396L302.661 17.0761V17.0761ZM287.988 16.0039C287.988 17.791 289.434 19.2921 291.241 19.2921C291.819 19.2921 292.325 19.1491 292.831 18.9347V17.505C292.469 17.9339 291.964 18.2199 291.385 18.2199C290.229 18.2199 289.289 17.3621 289.289 16.2183V16.0754C289.217 14.9316 290.156 13.9309 291.313 13.8594C291.891 13.8594 292.469 14.1453 292.831 14.5742V13.1445C292.397 12.8586 291.819 12.7871 291.313 12.7871C289.434 12.6442 287.988 14.1453 287.988 16.0039V16.0039ZM285.747 15.2176C285.024 14.9316 284.808 14.7887 284.808 14.4312C284.88 14.0023 285.241 13.6449 285.675 13.7164C286.036 13.7164 286.398 13.9309 286.687 14.2168L287.337 13.359C286.831 12.9301 286.181 12.6442 285.53 12.6442C284.518 12.5727 283.651 13.359 283.579 14.3598V14.4312C283.579 15.289 283.94 15.7894 285.097 16.1468C285.386 16.2183 285.675 16.3613 285.964 16.5043C286.181 16.6472 286.325 16.8617 286.325 17.1476C286.325 17.648 285.892 18.0769 285.458 18.0769H285.386C284.808 18.0769 284.302 17.7195 284.085 17.2191L283.29 18.0054C283.723 18.7917 284.591 19.2206 285.458 19.2206C286.615 19.2921 287.554 18.4343 287.627 17.2906V17.0761C287.554 16.2183 287.193 15.7894 285.747 15.2176V15.2176ZM281.555 19.1491H282.784V12.7871H281.555V19.1491V19.1491ZM275.844 12.7871H277.652H278.013C279.748 12.8586 281.121 14.2883 281.049 16.0039C281.049 16.9331 280.615 17.7909 279.892 18.4343C279.242 18.9347 278.447 19.2206 277.652 19.1491H275.844V12.7871ZM277.435 18.077C278.013 18.1484 278.664 17.934 279.097 17.5766C279.531 17.1477 279.748 16.5758 279.748 15.9325C279.748 15.3606 279.531 14.7887 279.097 14.3598C278.664 14.0024 278.013 13.788 277.435 13.8594H277.073V18.077H277.435Z" fill="white"/>
<path fill-rule="evenodd" clip-rule="evenodd" d="M296.517 12.6396C294.71 12.6396 293.192 14.0693 293.192 15.9279C293.192 17.715 294.638 19.2161 296.517 19.2876C298.397 19.3591 299.842 17.8579 299.915 15.9994C299.842 14.1408 298.397 12.6396 296.517 12.6396V12.6396Z" fill="#FD6020"/>
</svg>
