<svg width="61" height="60" viewBox="0 0 61 60" fill="none" xmlns="http://www.w3.org/2000/svg">
<rect width="50" height="50" rx="11.3636" transform="matrix(1 0 0 -1 5.5 55)" fill="url(#paint0_radial_190_537)"/>
<rect x="-2.5" y="2.5" width="55" height="55" rx="13.8636" transform="matrix(1 0 0 -1 5.5 60)" stroke="white" stroke-opacity="0.1" stroke-width="5"/>
<mask id="mask0_190_537" style="mask-type:alpha" maskUnits="userSpaceOnUse" x="5" y="5" width="51" height="50">
<rect width="50" height="50" rx="11.3636" transform="matrix(1 0 0 -1 5.5 55)" fill="url(#paint1_radial_190_537)"/>
</mask>
<g mask="url(#mask0_190_537)">
<line x1="3.6349" y1="2.94301" x2="57.5233" y2="56.8314" stroke="#135AA0" stroke-width="0.27237"/>
<line y1="-0.136185" x2="76.2096" y2="-0.136185" transform="matrix(-0.707107 0.707107 0.707107 0.707107 57.4271 3.03931)" stroke="#135AA0" stroke-width="0.27237"/>
<line y1="-0.136185" x2="50.0746" y2="-0.136185" transform="matrix(-4.37114e-08 1 1 4.37114e-08 18.2066 4.92505)" stroke="#135AA0" stroke-width="0.27237"/>
<line y1="-0.136185" x2="50.0746" y2="-0.136185" transform="matrix(-1 -8.74228e-08 -8.74228e-08 1 55.5024 17.7058)" stroke="#135AA0" stroke-width="0.27237"/>
<line y1="-0.136185" x2="50.0746" y2="-0.136185" transform="matrix(-4.37114e-08 1 1 4.37114e-08 42.7205 4.92505)" stroke="#135AA0" stroke-width="0.27237"/>
<line y1="-0.136185" x2="50.0746" y2="-0.136185" transform="matrix(-1 -8.74228e-08 -8.74228e-08 1 55.5024 42.2192)" stroke="#135AA0" stroke-width="0.27237"/>
<circle cx="30.4831" cy="29.9836" r="17.7041" stroke="#135AA0" stroke-width="0.27237"/>
<g filter="url(#filter0_f_190_537)">
<circle cx="17.9992" cy="17.5001" r="1.13636" fill="#1675FF"/>
</g>
<g filter="url(#filter1_f_190_537)">
<circle cx="17.9992" cy="42.5001" r="1.13636" fill="#1675FF"/>
</g>
<g filter="url(#filter2_f_190_537)">
<circle cx="42.9992" cy="17.5001" r="1.13636" fill="#1675FF"/>
</g>
<g filter="url(#filter3_f_190_537)">
<circle cx="42.9992" cy="42.5001" r="1.13636" fill="#1675FF"/>
</g>
</g>
<path d="M24.5085 39.1915C23.3055 39.1915 22.3302 38.1907 22.3302 36.955V27.966C22.3302 27.2869 22.6314 26.6435 23.1472 26.2197L29.1388 21.2993C29.5216 20.9823 30.0031 20.8088 30.5001 20.8088C30.9971 20.8088 31.4786 20.9823 31.8614 21.2993L37.852 26.2197C38.3688 26.6435 38.67 27.2869 38.67 27.966V36.955C38.67 38.1907 37.6948 39.1915 36.4917 39.1915H24.5085Z" fill="white" stroke="white" stroke-width="0.967492" stroke-linecap="round" stroke-linejoin="round"/>
<path d="M27.9453 39.1918V33.575C27.9453 33.0333 28.1605 32.5137 28.5435 32.1307C28.9266 31.7477 29.4461 31.5325 29.9878 31.5325H31.009C31.5507 31.5325 32.0703 31.7477 32.4533 32.1307C32.8363 32.5137 33.0515 33.0333 33.0515 33.575V39.1918" fill="#101E34"/>
<path d="M27.9453 39.1918V33.575C27.9453 33.0333 28.1605 32.5137 28.5435 32.1307C28.9266 31.7477 29.4461 31.5325 29.9878 31.5325H31.009C31.5507 31.5325 32.0703 31.7477 32.4533 32.1307C32.8363 32.5137 33.0515 33.0333 33.0515 33.575V39.1918" stroke="white" stroke-width="0.967492" stroke-linecap="round" stroke-linejoin="round"/>
<defs>
<filter id="filter0_f_190_537" x="15.7265" y="15.2274" width="4.54546" height="4.54543" filterUnits="userSpaceOnUse" color-interpolation-filters="sRGB">
<feFlood flood-opacity="0" result="BackgroundImageFix"/>
<feBlend mode="normal" in="SourceGraphic" in2="BackgroundImageFix" result="shape"/>
<feGaussianBlur stdDeviation="0.568182" result="effect1_foregroundBlur_190_537"/>
</filter>
<filter id="filter1_f_190_537" x="15.7265" y="40.2274" width="4.54546" height="4.54543" filterUnits="userSpaceOnUse" color-interpolation-filters="sRGB">
<feFlood flood-opacity="0" result="BackgroundImageFix"/>
<feBlend mode="normal" in="SourceGraphic" in2="BackgroundImageFix" result="shape"/>
<feGaussianBlur stdDeviation="0.568182" result="effect1_foregroundBlur_190_537"/>
</filter>
<filter id="filter2_f_190_537" x="40.7265" y="15.2274" width="4.54546" height="4.54543" filterUnits="userSpaceOnUse" color-interpolation-filters="sRGB">
<feFlood flood-opacity="0" result="BackgroundImageFix"/>
<feBlend mode="normal" in="SourceGraphic" in2="BackgroundImageFix" result="shape"/>
<feGaussianBlur stdDeviation="0.568182" result="effect1_foregroundBlur_190_537"/>
</filter>
<filter id="filter3_f_190_537" x="40.7265" y="40.2274" width="4.54546" height="4.54543" filterUnits="userSpaceOnUse" color-interpolation-filters="sRGB">
<feFlood flood-opacity="0" result="BackgroundImageFix"/>
<feBlend mode="normal" in="SourceGraphic" in2="BackgroundImageFix" result="shape"/>
<feGaussianBlur stdDeviation="0.568182" result="effect1_foregroundBlur_190_537"/>
</filter>
<radialGradient id="paint0_radial_190_537" cx="0" cy="0" r="1" gradientUnits="userSpaceOnUse" gradientTransform="translate(25 -23.0392) rotate(90) scale(73.0392 41.468)">
<stop stop-color="#1675FF"/>
<stop offset="0.801475" stop-color="#0E1015"/>
</radialGradient>
<radialGradient id="paint1_radial_190_537" cx="0" cy="0" r="1" gradientUnits="userSpaceOnUse" gradientTransform="translate(25) rotate(90) scale(50)">
<stop stop-color="#1888FA"/>
<stop offset="1" stop-color="#0E1015"/>
</radialGradient>
</defs>
</svg>
