<svg width="53" height="52" viewBox="0 0 53 52" fill="none" xmlns="http://www.w3.org/2000/svg">
<rect x="-2" y="2" width="48" height="48" rx="12" transform="matrix(1 0 0 -1 4.5 52)" fill="url(#paint0_radial_1_4009)" stroke="#D4DDE7" stroke-width="4"/>
<mask id="mask0_1_4009" style="mask-type:alpha" maskUnits="userSpaceOnUse" x="4" y="4" width="45" height="44">
<rect width="44" height="44" rx="10" transform="matrix(1 0 0 -1 4.5 48)" fill="url(#paint1_radial_1_4009)"/>
</mask>
<g mask="url(#mask0_1_4009)">
<line x1="2.85867" y1="2.18967" x2="50.2804" y2="49.6114" stroke="#00C1D1" stroke-width="0.239686"/>
<line y1="-0.119843" x2="67.0645" y2="-0.119843" transform="matrix(-0.707107 0.707107 0.707107 0.707107 50.1958 2.27441)" stroke="#00C1D1" stroke-width="0.239686"/>
<line y1="-0.119843" x2="44.0657" y2="-0.119843" transform="matrix(-4.37114e-08 1 1 4.37114e-08 15.6819 3.93359)" stroke="#00C1D1" stroke-width="0.239686"/>
<line y1="-0.119843" x2="44.0657" y2="-0.119843" transform="matrix(-1 -8.74228e-08 -8.74228e-08 1 48.5022 15.1807)" stroke="#00C1D1" stroke-width="0.239686"/>
<line y1="-0.119843" x2="44.0657" y2="-0.119843" transform="matrix(-4.37114e-08 1 1 4.37114e-08 37.2542 3.93359)" stroke="#00C1D1" stroke-width="0.239686"/>
<line y1="-0.119843" x2="44.0657" y2="-0.119843" transform="matrix(-1 -8.74228e-08 -8.74228e-08 1 48.5022 36.7524)" stroke="#00C1D1" stroke-width="0.239686"/>
<circle cx="26.4851" cy="25.9853" r="15.5796" stroke="#00C1D1" stroke-width="0.239686"/>
<g filter="url(#filter0_f_1_4009)">
<circle cx="15.4993" cy="15" r="1" fill="#00C1D1"/>
</g>
<g filter="url(#filter1_f_1_4009)">
<circle cx="15.4993" cy="37" r="1" fill="#00C1D1"/>
</g>
<g filter="url(#filter2_f_1_4009)">
<circle cx="37.4993" cy="15" r="1" fill="#00C1D1"/>
</g>
<g filter="url(#filter3_f_1_4009)">
<circle cx="37.4993" cy="37" r="1" fill="#00C1D1"/>
</g>
</g>
<path d="M30.286 17H21.714C20.768 17 20 17.806 20 18.8V33.2C20 34.194 20.768 35 21.714 35H30.286C31.233 35 32 34.194 32 33.2V18.8C32 17.806 31.233 17 30.286 17ZM24.5 20H26H27.5" fill="white"/>
<path d="M24.5 20H26H27.5M30.286 17H21.714C20.768 17 20 17.806 20 18.8V33.2C20 34.194 20.768 35 21.714 35H30.286C31.233 35 32 34.194 32 33.2V18.8C32 17.806 31.233 17 30.286 17Z" stroke="black" stroke-width="0.851393" stroke-linecap="round" stroke-linejoin="round"/>
<path d="M24.4998 19.9995H27.4998" stroke="#0F1116" stroke-linecap="round"/>
<defs>
<filter id="filter0_f_1_4009" x="13.4993" y="13" width="4" height="4" filterUnits="userSpaceOnUse" color-interpolation-filters="sRGB">
<feFlood flood-opacity="0" result="BackgroundImageFix"/>
<feBlend mode="normal" in="SourceGraphic" in2="BackgroundImageFix" result="shape"/>
<feGaussianBlur stdDeviation="0.5" result="effect1_foregroundBlur_1_4009"/>
</filter>
<filter id="filter1_f_1_4009" x="13.4993" y="35" width="4" height="4" filterUnits="userSpaceOnUse" color-interpolation-filters="sRGB">
<feFlood flood-opacity="0" result="BackgroundImageFix"/>
<feBlend mode="normal" in="SourceGraphic" in2="BackgroundImageFix" result="shape"/>
<feGaussianBlur stdDeviation="0.5" result="effect1_foregroundBlur_1_4009"/>
</filter>
<filter id="filter2_f_1_4009" x="35.4993" y="13" width="4" height="4" filterUnits="userSpaceOnUse" color-interpolation-filters="sRGB">
<feFlood flood-opacity="0" result="BackgroundImageFix"/>
<feBlend mode="normal" in="SourceGraphic" in2="BackgroundImageFix" result="shape"/>
<feGaussianBlur stdDeviation="0.5" result="effect1_foregroundBlur_1_4009"/>
</filter>
<filter id="filter3_f_1_4009" x="35.4993" y="35" width="4" height="4" filterUnits="userSpaceOnUse" color-interpolation-filters="sRGB">
<feFlood flood-opacity="0" result="BackgroundImageFix"/>
<feBlend mode="normal" in="SourceGraphic" in2="BackgroundImageFix" result="shape"/>
<feGaussianBlur stdDeviation="0.5" result="effect1_foregroundBlur_1_4009"/>
</filter>
<radialGradient id="paint0_radial_1_4009" cx="0" cy="0" r="1" gradientUnits="userSpaceOnUse" gradientTransform="translate(22 -20.2745) rotate(90) scale(64.2745 36.4918)">
<stop stop-color="#00C1D1"/>
<stop offset="0.801475" stop-color="#0E1015"/>
</radialGradient>
<radialGradient id="paint1_radial_1_4009" cx="0" cy="0" r="1" gradientUnits="userSpaceOnUse" gradientTransform="translate(22) rotate(90) scale(44)">
<stop stop-color="#1888FA"/>
<stop offset="1" stop-color="#0E1015"/>
</radialGradient>
</defs>
</svg>
