<svg width="53" height="52" viewBox="0 0 53 52" fill="none" xmlns="http://www.w3.org/2000/svg">
<rect x="-2" y="2" width="48" height="48" rx="12" transform="matrix(1 0 0 -1 4.5 52)" fill="url(#paint0_radial_1_3984)" stroke="#DAD4E7" stroke-width="4"/>
<mask id="mask0_1_3984" style="mask-type:alpha" maskUnits="userSpaceOnUse" x="4" y="4" width="45" height="44">
<rect width="44" height="44" rx="10" transform="matrix(1 0 0 -1 4.5 48)" fill="url(#paint1_radial_1_3984)"/>
</mask>
<g mask="url(#mask0_1_3984)">
<line x1="2.8594" y1="2.18967" x2="50.2812" y2="49.6114" stroke="#A400DD" stroke-width="0.239686"/>
<line y1="-0.119843" x2="67.0645" y2="-0.119843" transform="matrix(-0.707107 0.707107 0.707107 0.707107 50.196 2.27441)" stroke="#A400DD" stroke-width="0.239686"/>
<line y1="-0.119843" x2="44.0657" y2="-0.119843" transform="matrix(-4.37114e-08 1 1 4.37114e-08 15.6809 3.93408)" stroke="#A400DD" stroke-width="0.239686"/>
<line y1="-0.119843" x2="44.0657" y2="-0.119843" transform="matrix(-1 -8.74228e-08 -8.74228e-08 1 48.4998 15.1812)" stroke="#A400DD" stroke-width="0.239686"/>
<line y1="-0.119843" x2="44.0657" y2="-0.119843" transform="matrix(-4.37114e-08 1 1 4.37114e-08 37.2527 3.93408)" stroke="#A400DD" stroke-width="0.239686"/>
<line y1="-0.119843" x2="44.0657" y2="-0.119843" transform="matrix(-1 -8.74228e-08 -8.74228e-08 1 48.4998 36.7529)" stroke="#A400DD" stroke-width="0.239686"/>
<circle cx="26.4851" cy="25.9853" r="15.5796" stroke="#A400DD" stroke-width="0.239686"/>
<g filter="url(#filter0_f_1_3984)">
<circle cx="15.5" cy="15" r="1" fill="#A400DD"/>
</g>
<g filter="url(#filter1_f_1_3984)">
<circle cx="15.5" cy="37" r="1" fill="#A400DD"/>
</g>
<g filter="url(#filter2_f_1_3984)">
<circle cx="37.5" cy="15" r="1" fill="#A400DD"/>
</g>
<g filter="url(#filter3_f_1_3984)">
<circle cx="37.5" cy="37" r="1" fill="#A400DD"/>
</g>
</g>
<g clip-path="url(#clip0_1_3984)">
<path d="M18.9885 33.5109V32.6763M34.0101 33.5109V18.4893M26.4993 33.5109V26.0001M30.2547 33.5109V22.6619M22.7439 33.5109V29.3382" stroke="white" stroke-width="1.2518" stroke-linecap="round" stroke-linejoin="round"/>
</g>
<defs>
<filter id="filter0_f_1_3984" x="13.5" y="13" width="4" height="4" filterUnits="userSpaceOnUse" color-interpolation-filters="sRGB">
<feFlood flood-opacity="0" result="BackgroundImageFix"/>
<feBlend mode="normal" in="SourceGraphic" in2="BackgroundImageFix" result="shape"/>
<feGaussianBlur stdDeviation="0.5" result="effect1_foregroundBlur_1_3984"/>
</filter>
<filter id="filter1_f_1_3984" x="13.5" y="35" width="4" height="4" filterUnits="userSpaceOnUse" color-interpolation-filters="sRGB">
<feFlood flood-opacity="0" result="BackgroundImageFix"/>
<feBlend mode="normal" in="SourceGraphic" in2="BackgroundImageFix" result="shape"/>
<feGaussianBlur stdDeviation="0.5" result="effect1_foregroundBlur_1_3984"/>
</filter>
<filter id="filter2_f_1_3984" x="35.5" y="13" width="4" height="4" filterUnits="userSpaceOnUse" color-interpolation-filters="sRGB">
<feFlood flood-opacity="0" result="BackgroundImageFix"/>
<feBlend mode="normal" in="SourceGraphic" in2="BackgroundImageFix" result="shape"/>
<feGaussianBlur stdDeviation="0.5" result="effect1_foregroundBlur_1_3984"/>
</filter>
<filter id="filter3_f_1_3984" x="35.5" y="35" width="4" height="4" filterUnits="userSpaceOnUse" color-interpolation-filters="sRGB">
<feFlood flood-opacity="0" result="BackgroundImageFix"/>
<feBlend mode="normal" in="SourceGraphic" in2="BackgroundImageFix" result="shape"/>
<feGaussianBlur stdDeviation="0.5" result="effect1_foregroundBlur_1_3984"/>
</filter>
<radialGradient id="paint0_radial_1_3984" cx="0" cy="0" r="1" gradientUnits="userSpaceOnUse" gradientTransform="translate(22 -20.2745) rotate(90) scale(64.2745 36.4918)">
<stop stop-color="#A400DD" stop-opacity="0.93"/>
<stop offset="0.801475" stop-color="#0E1015"/>
</radialGradient>
<radialGradient id="paint1_radial_1_3984" cx="0" cy="0" r="1" gradientUnits="userSpaceOnUse" gradientTransform="translate(22) rotate(90) scale(44)">
<stop stop-color="#1888FA"/>
<stop offset="1" stop-color="#0E1015"/>
</radialGradient>
<clipPath id="clip0_1_3984">
<rect width="17.9997" height="17.9997" fill="white" transform="translate(17.5002 17.0005)"/>
</clipPath>
</defs>
</svg>
