<svg width="53" height="52" viewBox="0 0 53 52" fill="none" xmlns="http://www.w3.org/2000/svg">
<rect x="-2" y="2" width="48" height="48" rx="12" transform="matrix(1 0 0 -1 4.5 52)" fill="url(#paint0_radial_1_3957)" stroke="#E7E2D4" stroke-width="4"/>
<mask id="mask0_1_3957" style="mask-type:alpha" maskUnits="userSpaceOnUse" x="4" y="4" width="45" height="44">
<rect width="44" height="44" rx="10" transform="matrix(1 0 0 -1 4.5 48)" fill="url(#paint1_radial_1_3957)"/>
</mask>
<g mask="url(#mask0_1_3957)">
<line x1="2.8594" y1="2.18967" x2="50.2812" y2="49.6114" stroke="#EA7635" stroke-width="0.239686"/>
<line y1="-0.119843" x2="67.0645" y2="-0.119843" transform="matrix(-0.707107 0.707107 0.707107 0.707107 50.196 2.27441)" stroke="#EA7635" stroke-width="0.239686"/>
<line y1="-0.119843" x2="44.0657" y2="-0.119843" transform="matrix(-4.37114e-08 1 1 4.37114e-08 15.6809 3.93408)" stroke="#EA7635" stroke-width="0.239686"/>
<line y1="-0.119843" x2="44.0657" y2="-0.119843" transform="matrix(-1 -8.74228e-08 -8.74228e-08 1 48.4998 15.1812)" stroke="#EA7635" stroke-width="0.239686"/>
<line y1="-0.119843" x2="44.0657" y2="-0.119843" transform="matrix(-4.37114e-08 1 1 4.37114e-08 37.2527 3.93408)" stroke="#EA7635" stroke-width="0.239686"/>
<line y1="-0.119843" x2="44.0657" y2="-0.119843" transform="matrix(-1 -8.74228e-08 -8.74228e-08 1 48.4998 36.7529)" stroke="#EA7635" stroke-width="0.239686"/>
<circle cx="26.4851" cy="25.9853" r="15.5796" stroke="#EA7635" stroke-width="0.239686"/>
<g filter="url(#filter0_f_1_3957)">
<circle cx="15.5" cy="15" r="1" fill="#EA7635"/>
</g>
<g filter="url(#filter1_f_1_3957)">
<circle cx="15.5" cy="37" r="1" fill="#EA7635"/>
</g>
<g filter="url(#filter2_f_1_3957)">
<circle cx="37.5" cy="15" r="1" fill="#EA7635"/>
</g>
<g filter="url(#filter3_f_1_3957)">
<circle cx="37.5" cy="37" r="1" fill="#EA7635"/>
</g>
</g>
<g clip-path="url(#clip0_1_3957)">
<path d="M17.3328 23.6926C22.4688 18.8251 30.53 18.8251 35.6661 23.6926" stroke="white" stroke-width="1.375" stroke-linecap="round" stroke-linejoin="round"/>
<path d="M32.9161 26.8251C29.3723 23.2803 23.6266 23.2803 20.0828 26.8251M30.1661 29.8106C29.1936 28.8382 27.8747 28.2919 26.4994 28.2919C25.1242 28.2919 23.8052 28.8382 22.8328 29.8106M26.4994 32.6459V32.1876" stroke="white" stroke-width="1.375" stroke-linecap="round" stroke-linejoin="round"/>
</g>
<defs>
<filter id="filter0_f_1_3957" x="13.5" y="13" width="4" height="4" filterUnits="userSpaceOnUse" color-interpolation-filters="sRGB">
<feFlood flood-opacity="0" result="BackgroundImageFix"/>
<feBlend mode="normal" in="SourceGraphic" in2="BackgroundImageFix" result="shape"/>
<feGaussianBlur stdDeviation="0.5" result="effect1_foregroundBlur_1_3957"/>
</filter>
<filter id="filter1_f_1_3957" x="13.5" y="35" width="4" height="4" filterUnits="userSpaceOnUse" color-interpolation-filters="sRGB">
<feFlood flood-opacity="0" result="BackgroundImageFix"/>
<feBlend mode="normal" in="SourceGraphic" in2="BackgroundImageFix" result="shape"/>
<feGaussianBlur stdDeviation="0.5" result="effect1_foregroundBlur_1_3957"/>
</filter>
<filter id="filter2_f_1_3957" x="35.5" y="13" width="4" height="4" filterUnits="userSpaceOnUse" color-interpolation-filters="sRGB">
<feFlood flood-opacity="0" result="BackgroundImageFix"/>
<feBlend mode="normal" in="SourceGraphic" in2="BackgroundImageFix" result="shape"/>
<feGaussianBlur stdDeviation="0.5" result="effect1_foregroundBlur_1_3957"/>
</filter>
<filter id="filter3_f_1_3957" x="35.5" y="35" width="4" height="4" filterUnits="userSpaceOnUse" color-interpolation-filters="sRGB">
<feFlood flood-opacity="0" result="BackgroundImageFix"/>
<feBlend mode="normal" in="SourceGraphic" in2="BackgroundImageFix" result="shape"/>
<feGaussianBlur stdDeviation="0.5" result="effect1_foregroundBlur_1_3957"/>
</filter>
<radialGradient id="paint0_radial_1_3957" cx="0" cy="0" r="1" gradientUnits="userSpaceOnUse" gradientTransform="translate(22 -20.2745) rotate(90) scale(64.2745 36.4918)">
<stop stop-color="#EA7635"/>
<stop offset="0.801475" stop-color="#0E1015"/>
</radialGradient>
<radialGradient id="paint1_radial_1_3957" cx="0" cy="0" r="1" gradientUnits="userSpaceOnUse" gradientTransform="translate(22) rotate(90) scale(44)">
<stop stop-color="#1888FA"/>
<stop offset="1" stop-color="#0E1015"/>
</radialGradient>
<clipPath id="clip0_1_3957">
<rect width="21.5686" height="21.5686" fill="white" transform="translate(15.7156 15.2158)"/>
</clipPath>
</defs>
</svg>
