<svg width="588" height="468" viewBox="0 0 588 468" fill="none" xmlns="http://www.w3.org/2000/svg">
<g clip-path="url(#clip0_461_1326)">
<rect opacity="0.1" y="52" width="588" height="416" rx="25" fill="white"/>
<path d="M194.492 430V419.818H200.637V420.912H195.725V424.352H200.319V425.446H195.725V428.906H200.717V430H194.492ZM203.435 422.364L205.265 425.486L207.094 422.364H208.447L205.981 426.182L208.447 430H207.094L205.265 427.037L203.435 430H202.083L204.509 426.182L202.083 422.364H203.435ZM213.302 422.364V423.358H209.344V422.364H213.302ZM210.498 420.534H211.671V427.812C211.671 428.144 211.719 428.393 211.815 428.558C211.915 428.721 212.041 428.83 212.193 428.886C212.349 428.939 212.513 428.966 212.685 428.966C212.815 428.966 212.921 428.959 213.004 428.946C213.086 428.929 213.153 428.916 213.202 428.906L213.441 429.96C213.361 429.99 213.25 430.02 213.108 430.05C212.965 430.083 212.785 430.099 212.566 430.099C212.235 430.099 211.91 430.028 211.592 429.886C211.277 429.743 211.015 429.526 210.806 429.234C210.601 428.943 210.498 428.575 210.498 428.131V420.534ZM218.046 430.159C217.311 430.159 216.676 429.997 216.142 429.672C215.612 429.344 215.203 428.886 214.914 428.3C214.629 427.71 214.487 427.024 214.487 426.241C214.487 425.459 214.629 424.77 214.914 424.173C215.203 423.573 215.604 423.106 216.117 422.771C216.634 422.433 217.238 422.264 217.927 422.264C218.325 422.264 218.718 422.33 219.105 422.463C219.493 422.596 219.846 422.811 220.164 423.109C220.483 423.404 220.736 423.795 220.925 424.283C221.114 424.77 221.208 425.37 221.208 426.082V426.58H215.322V425.565H220.015C220.015 425.134 219.929 424.75 219.757 424.412C219.588 424.074 219.346 423.807 219.031 423.612C218.719 423.416 218.351 423.318 217.927 423.318C217.46 423.318 217.055 423.434 216.714 423.666C216.376 423.895 216.116 424.193 215.933 424.561C215.751 424.929 215.66 425.323 215.66 425.744V426.42C215.66 426.997 215.759 427.486 215.958 427.887C216.161 428.285 216.441 428.588 216.799 428.797C217.157 429.002 217.572 429.105 218.046 429.105C218.355 429.105 218.633 429.062 218.882 428.976C219.134 428.886 219.351 428.754 219.533 428.578C219.715 428.399 219.856 428.177 219.956 427.912L221.089 428.23C220.97 428.615 220.769 428.953 220.487 429.244C220.206 429.533 219.858 429.758 219.443 429.92C219.029 430.08 218.563 430.159 218.046 430.159ZM224.026 425.406V430H222.853V422.364H223.987V423.557H224.086C224.265 423.169 224.537 422.857 224.901 422.622C225.266 422.384 225.737 422.264 226.313 422.264C226.83 422.264 227.283 422.37 227.671 422.582C228.058 422.791 228.36 423.109 228.575 423.537C228.791 423.961 228.899 424.498 228.899 425.148V430H227.725V425.227C227.725 424.627 227.57 424.16 227.258 423.825C226.946 423.487 226.519 423.318 225.975 423.318C225.601 423.318 225.266 423.399 224.971 423.562C224.679 423.724 224.449 423.961 224.28 424.273C224.111 424.584 224.026 424.962 224.026 425.406ZM233.786 430.159C233.15 430.159 232.588 429.998 232.101 429.677C231.614 429.352 231.232 428.895 230.957 428.305C230.682 427.711 230.545 427.01 230.545 426.202C230.545 425.4 230.682 424.704 230.957 424.114C231.232 423.524 231.615 423.068 232.106 422.746C232.596 422.425 233.163 422.264 233.806 422.264C234.303 422.264 234.696 422.347 234.984 422.513C235.276 422.675 235.498 422.861 235.65 423.07C235.806 423.275 235.927 423.444 236.013 423.577H236.113V419.818H237.286V430H236.153V428.827H236.013C235.927 428.966 235.805 429.142 235.646 429.354C235.486 429.562 235.259 429.75 234.964 429.915C234.669 430.078 234.277 430.159 233.786 430.159ZM233.945 429.105C234.416 429.105 234.814 428.982 235.138 428.737C235.463 428.489 235.71 428.146 235.879 427.708C236.048 427.267 236.133 426.759 236.133 426.182C236.133 425.612 236.05 425.113 235.884 424.685C235.718 424.254 235.473 423.92 235.148 423.681C234.824 423.439 234.422 423.318 233.945 423.318C233.448 423.318 233.034 423.446 232.702 423.701C232.374 423.953 232.127 424.296 231.962 424.73C231.799 425.161 231.718 425.645 231.718 426.182C231.718 426.725 231.801 427.219 231.967 427.663C232.136 428.104 232.384 428.455 232.712 428.717C233.044 428.976 233.455 429.105 233.945 429.105ZM244.429 419.818V430H243.255V419.818H244.429ZM246.438 430V422.364H247.611V430H246.438ZM247.034 421.091C246.806 421.091 246.608 421.013 246.443 420.857C246.28 420.701 246.199 420.514 246.199 420.295C246.199 420.077 246.28 419.889 246.443 419.734C246.608 419.578 246.806 419.5 247.034 419.5C247.263 419.5 247.459 419.578 247.621 419.734C247.787 419.889 247.87 420.077 247.87 420.295C247.87 420.514 247.787 420.701 247.621 420.857C247.459 421.013 247.263 421.091 247.034 421.091ZM250.793 425.406V430H249.62V422.364H250.753V423.557H250.853C251.032 423.169 251.304 422.857 251.668 422.622C252.033 422.384 252.503 422.264 253.08 422.264C253.597 422.264 254.05 422.37 254.437 422.582C254.825 422.791 255.127 423.109 255.342 423.537C255.558 423.961 255.665 424.498 255.665 425.148V430H254.492V425.227C254.492 424.627 254.336 424.16 254.025 423.825C253.713 423.487 253.286 423.318 252.742 423.318C252.368 423.318 252.033 423.399 251.738 423.562C251.446 423.724 251.216 423.961 251.047 424.273C250.878 424.584 250.793 424.962 250.793 425.406ZM260.871 430.159C260.135 430.159 259.501 429.997 258.967 429.672C258.437 429.344 258.027 428.886 257.739 428.3C257.454 427.71 257.311 427.024 257.311 426.241C257.311 425.459 257.454 424.77 257.739 424.173C258.027 423.573 258.428 423.106 258.942 422.771C259.459 422.433 260.062 422.264 260.752 422.264C261.15 422.264 261.542 422.33 261.93 422.463C262.318 422.596 262.671 422.811 262.989 423.109C263.307 423.404 263.561 423.795 263.75 424.283C263.939 424.77 264.033 425.37 264.033 426.082V426.58H258.147V425.565H262.84C262.84 425.134 262.754 424.75 262.581 424.412C262.412 424.074 262.17 423.807 261.855 423.612C261.544 423.416 261.176 423.318 260.752 423.318C260.284 423.318 259.88 423.434 259.539 423.666C259.201 423.895 258.94 424.193 258.758 424.561C258.576 424.929 258.485 425.323 258.485 425.744V426.42C258.485 426.997 258.584 427.486 258.783 427.887C258.985 428.285 259.265 428.588 259.623 428.797C259.981 429.002 260.397 429.105 260.871 429.105C261.179 429.105 261.458 429.062 261.706 428.976C261.958 428.886 262.175 428.754 262.358 428.578C262.54 428.399 262.681 428.177 262.78 427.912L263.914 428.23C263.794 428.615 263.594 428.953 263.312 429.244C263.03 429.533 262.682 429.758 262.268 429.92C261.854 430.08 261.388 430.159 260.871 430.159ZM271.087 424.074L270.033 424.372C269.967 424.196 269.869 424.026 269.74 423.86C269.614 423.691 269.441 423.552 269.223 423.442C269.004 423.333 268.724 423.278 268.382 423.278C267.915 423.278 267.526 423.386 267.214 423.602C266.906 423.814 266.752 424.084 266.752 424.412C266.752 424.704 266.858 424.934 267.07 425.103C267.282 425.272 267.613 425.413 268.064 425.526L269.198 425.804C269.88 425.97 270.389 426.223 270.724 426.565C271.059 426.903 271.226 427.339 271.226 427.872C271.226 428.31 271.1 428.701 270.848 429.045C270.6 429.39 270.252 429.662 269.804 429.861C269.357 430.06 268.836 430.159 268.243 430.159C267.464 430.159 266.82 429.99 266.309 429.652C265.799 429.314 265.476 428.82 265.34 428.17L266.453 427.892C266.559 428.303 266.76 428.611 267.055 428.817C267.353 429.022 267.743 429.125 268.223 429.125C268.77 429.125 269.204 429.009 269.526 428.777C269.851 428.542 270.013 428.26 270.013 427.932C270.013 427.667 269.92 427.445 269.735 427.266C269.549 427.083 269.264 426.947 268.88 426.858L267.607 426.56C266.907 426.394 266.394 426.137 266.066 425.789C265.741 425.438 265.578 424.999 265.578 424.472C265.578 424.041 265.699 423.66 265.941 423.328C266.187 422.997 266.52 422.737 266.941 422.548C267.365 422.359 267.845 422.264 268.382 422.264C269.138 422.264 269.731 422.43 270.162 422.761C270.596 423.093 270.905 423.53 271.087 424.074ZM276.65 430V422.364H277.823V430H276.65ZM277.246 421.091C277.018 421.091 276.82 421.013 276.655 420.857C276.492 420.701 276.411 420.514 276.411 420.295C276.411 420.077 276.492 419.889 276.655 419.734C276.82 419.578 277.018 419.5 277.246 419.5C277.475 419.5 277.671 419.578 277.833 419.734C277.999 419.889 278.082 420.077 278.082 420.295C278.082 420.514 277.999 420.701 277.833 420.857C277.671 421.013 277.475 421.091 277.246 421.091ZM281.005 425.406V430H279.832V422.364H280.966V423.557H281.065C281.244 423.169 281.516 422.857 281.88 422.622C282.245 422.384 282.716 422.264 283.292 422.264C283.809 422.264 284.262 422.37 284.65 422.582C285.037 422.791 285.339 423.109 285.554 423.537C285.77 423.961 285.878 424.498 285.878 425.148V430H284.704V425.227C284.704 424.627 284.548 424.16 284.237 423.825C283.925 423.487 283.498 423.318 282.954 423.318C282.58 423.318 282.245 423.399 281.95 423.562C281.658 423.724 281.428 423.961 281.259 424.273C281.09 424.584 281.005 424.962 281.005 425.406ZM291.203 422.364V423.358H287.245V422.364H291.203ZM288.399 420.534H289.572V427.812C289.572 428.144 289.62 428.393 289.716 428.558C289.815 428.721 289.941 428.83 290.094 428.886C290.25 428.939 290.414 428.966 290.586 428.966C290.715 428.966 290.821 428.959 290.904 428.946C290.987 428.929 291.053 428.916 291.103 428.906L291.342 429.96C291.262 429.99 291.151 430.02 291.009 430.05C290.866 430.083 290.685 430.099 290.467 430.099C290.135 430.099 289.81 430.028 289.492 429.886C289.177 429.743 288.916 429.526 288.707 429.234C288.501 428.943 288.399 428.575 288.399 428.131V420.534ZM295.848 430.159C295.158 430.159 294.553 429.995 294.033 429.667C293.516 429.339 293.112 428.88 292.82 428.29C292.532 427.7 292.387 427.01 292.387 426.222C292.387 425.426 292.532 424.732 292.82 424.138C293.112 423.545 293.516 423.085 294.033 422.756C294.553 422.428 295.158 422.264 295.848 422.264C296.537 422.264 297.14 422.428 297.657 422.756C298.178 423.085 298.582 423.545 298.87 424.138C299.162 424.732 299.308 425.426 299.308 426.222C299.308 427.01 299.162 427.7 298.87 428.29C298.582 428.88 298.178 429.339 297.657 429.667C297.14 429.995 296.537 430.159 295.848 430.159ZM295.848 429.105C296.371 429.105 296.802 428.971 297.14 428.702C297.478 428.434 297.729 428.081 297.891 427.643C298.053 427.206 298.135 426.732 298.135 426.222C298.135 425.711 298.053 425.236 297.891 424.795C297.729 424.354 297.478 423.998 297.14 423.726C296.802 423.454 296.371 423.318 295.848 423.318C295.324 423.318 294.893 423.454 294.555 423.726C294.217 423.998 293.967 424.354 293.804 424.795C293.642 425.236 293.561 425.711 293.561 426.222C293.561 426.732 293.642 427.206 293.804 427.643C293.967 428.081 294.217 428.434 294.555 428.702C294.893 428.971 295.324 429.105 295.848 429.105ZM308.077 422.364V423.358H304.12V422.364H308.077ZM305.273 420.534H306.447V427.812C306.447 428.144 306.495 428.393 306.591 428.558C306.69 428.721 306.816 428.83 306.969 428.886C307.125 428.939 307.289 428.966 307.461 428.966C307.59 428.966 307.696 428.959 307.779 428.946C307.862 428.929 307.928 428.916 307.978 428.906L308.217 429.96C308.137 429.99 308.026 430.02 307.884 430.05C307.741 430.083 307.56 430.099 307.342 430.099C307.01 430.099 306.685 430.028 306.367 429.886C306.052 429.743 305.791 429.526 305.582 429.234C305.376 428.943 305.273 428.575 305.273 428.131V420.534ZM311.04 425.406V430H309.866V419.818H311.04V423.557H311.139C311.318 423.162 311.587 422.849 311.945 422.617C312.306 422.382 312.786 422.264 313.386 422.264C313.907 422.264 314.362 422.369 314.754 422.577C315.145 422.783 315.448 423.099 315.663 423.527C315.882 423.951 315.991 424.491 315.991 425.148V430H314.818V425.227C314.818 424.621 314.661 424.152 314.346 423.82C314.034 423.486 313.602 423.318 313.048 423.318C312.664 423.318 312.319 423.399 312.014 423.562C311.713 423.724 311.474 423.961 311.298 424.273C311.126 424.584 311.04 424.962 311.04 425.406ZM321.2 430.159C320.464 430.159 319.829 429.997 319.296 429.672C318.765 429.344 318.356 428.886 318.068 428.3C317.782 427.71 317.64 427.024 317.64 426.241C317.64 425.459 317.782 424.77 318.068 424.173C318.356 423.573 318.757 423.106 319.271 422.771C319.788 422.433 320.391 422.264 321.08 422.264C321.478 422.264 321.871 422.33 322.259 422.463C322.646 422.596 322.999 422.811 323.318 423.109C323.636 423.404 323.889 423.795 324.078 424.283C324.267 424.77 324.362 425.37 324.362 426.082V426.58H318.475V425.565H323.168C323.168 425.134 323.082 424.75 322.91 424.412C322.741 424.074 322.499 423.807 322.184 423.612C321.872 423.416 321.505 423.318 321.08 423.318C320.613 423.318 320.209 423.434 319.867 423.666C319.529 423.895 319.269 424.193 319.087 424.561C318.904 424.929 318.813 425.323 318.813 425.744V426.42C318.813 426.997 318.913 427.486 319.112 427.887C319.314 428.285 319.594 428.588 319.952 428.797C320.31 429.002 320.726 429.105 321.2 429.105C321.508 429.105 321.786 429.062 322.035 428.976C322.287 428.886 322.504 428.754 322.686 428.578C322.868 428.399 323.009 428.177 323.109 427.912L324.242 428.23C324.123 428.615 323.922 428.953 323.641 429.244C323.359 429.533 323.011 429.758 322.597 429.92C322.182 430.08 321.717 430.159 321.2 430.159ZM329.804 430V422.364H330.977V430H329.804ZM330.4 421.091C330.172 421.091 329.975 421.013 329.809 420.857C329.646 420.701 329.565 420.514 329.565 420.295C329.565 420.077 329.646 419.889 329.809 419.734C329.975 419.578 330.172 419.5 330.4 419.5C330.629 419.5 330.825 419.578 330.987 419.734C331.153 419.889 331.236 420.077 331.236 420.295C331.236 420.514 331.153 420.701 330.987 420.857C330.825 421.013 330.629 421.091 330.4 421.091ZM334.159 419.818V430H332.986V419.818H334.159ZM337.342 419.818V430H336.168V419.818H337.342ZM344.163 426.878V422.364H345.336V430H344.163V428.707H344.084C343.905 429.095 343.626 429.425 343.248 429.697C342.871 429.965 342.393 430.099 341.817 430.099C341.339 430.099 340.915 429.995 340.544 429.786C340.173 429.574 339.881 429.256 339.669 428.832C339.457 428.404 339.351 427.866 339.351 427.216V422.364H340.524V427.136C340.524 427.693 340.68 428.137 340.991 428.469C341.306 428.8 341.707 428.966 342.194 428.966C342.486 428.966 342.783 428.891 343.084 428.742C343.389 428.593 343.644 428.364 343.85 428.056C344.059 427.748 344.163 427.355 344.163 426.878ZM352.755 424.074L351.701 424.372C351.634 424.196 351.536 424.026 351.407 423.86C351.281 423.691 351.109 423.552 350.89 423.442C350.671 423.333 350.391 423.278 350.05 423.278C349.583 423.278 349.193 423.386 348.882 423.602C348.573 423.814 348.419 424.084 348.419 424.412C348.419 424.704 348.525 424.934 348.737 425.103C348.95 425.272 349.281 425.413 349.732 425.526L350.865 425.804C351.548 425.97 352.057 426.223 352.392 426.565C352.726 426.903 352.894 427.339 352.894 427.872C352.894 428.31 352.768 428.701 352.516 429.045C352.267 429.39 351.919 429.662 351.472 429.861C351.024 430.06 350.504 430.159 349.911 430.159C349.132 430.159 348.487 429.99 347.977 429.652C347.466 429.314 347.143 428.82 347.007 428.17L348.121 427.892C348.227 428.303 348.428 428.611 348.723 428.817C349.021 429.022 349.41 429.125 349.891 429.125C350.438 429.125 350.872 429.009 351.193 428.777C351.518 428.542 351.681 428.26 351.681 427.932C351.681 427.667 351.588 427.445 351.402 427.266C351.217 427.083 350.932 426.947 350.547 426.858L349.274 426.56C348.575 426.394 348.061 426.137 347.733 425.789C347.408 425.438 347.246 424.999 347.246 424.472C347.246 424.041 347.367 423.66 347.609 423.328C347.854 422.997 348.187 422.737 348.608 422.548C349.032 422.359 349.513 422.264 350.05 422.264C350.806 422.264 351.399 422.43 351.83 422.761C352.264 423.093 352.572 423.53 352.755 424.074ZM357.841 422.364V423.358H353.884V422.364H357.841ZM355.037 420.534H356.21V427.812C356.21 428.144 356.258 428.393 356.354 428.558C356.454 428.721 356.58 428.83 356.732 428.886C356.888 428.939 357.052 428.966 357.224 428.966C357.354 428.966 357.46 428.959 357.543 428.946C357.625 428.929 357.692 428.916 357.741 428.906L357.98 429.96C357.901 429.99 357.79 430.02 357.647 430.05C357.504 430.083 357.324 430.099 357.105 430.099C356.774 430.099 356.449 430.028 356.131 429.886C355.816 429.743 355.554 429.526 355.345 429.234C355.14 428.943 355.037 428.575 355.037 428.131V420.534ZM359.466 430V422.364H360.599V423.517H360.679C360.818 423.139 361.07 422.833 361.435 422.597C361.799 422.362 362.21 422.244 362.668 422.244C362.754 422.244 362.861 422.246 362.991 422.249C363.12 422.253 363.218 422.258 363.284 422.264V423.457C363.244 423.447 363.153 423.433 363.011 423.413C362.871 423.389 362.724 423.378 362.568 423.378C362.197 423.378 361.865 423.456 361.574 423.612C361.285 423.764 361.057 423.976 360.888 424.248C360.722 424.516 360.639 424.823 360.639 425.168V430H359.466ZM366.782 430.179C366.298 430.179 365.859 430.088 365.464 429.906C365.07 429.72 364.757 429.453 364.525 429.105C364.293 428.754 364.177 428.33 364.177 427.832C364.177 427.395 364.263 427.04 364.435 426.768C364.608 426.493 364.838 426.278 365.126 426.122C365.415 425.966 365.733 425.85 366.081 425.774C366.432 425.695 366.785 425.632 367.14 425.585C367.604 425.526 367.98 425.481 368.268 425.451C368.56 425.418 368.772 425.363 368.905 425.287C369.041 425.211 369.109 425.078 369.109 424.889V424.849C369.109 424.359 368.974 423.978 368.706 423.706C368.441 423.434 368.038 423.298 367.498 423.298C366.938 423.298 366.499 423.421 366.18 423.666C365.862 423.911 365.638 424.173 365.509 424.452L364.396 424.054C364.594 423.59 364.86 423.229 365.191 422.97C365.526 422.708 365.89 422.526 366.285 422.423C366.683 422.317 367.074 422.264 367.458 422.264C367.703 422.264 367.985 422.294 368.303 422.354C368.625 422.41 368.935 422.528 369.233 422.707C369.535 422.886 369.785 423.156 369.984 423.517C370.183 423.878 370.282 424.362 370.282 424.969V430H369.109V428.966H369.049C368.969 429.132 368.837 429.309 368.651 429.498C368.466 429.687 368.219 429.848 367.911 429.98C367.602 430.113 367.226 430.179 366.782 430.179ZM366.961 429.125C367.425 429.125 367.816 429.034 368.134 428.852C368.456 428.669 368.698 428.434 368.86 428.146C369.026 427.857 369.109 427.554 369.109 427.236V426.162C369.059 426.222 368.95 426.276 368.781 426.326C368.615 426.372 368.423 426.414 368.204 426.45C367.988 426.483 367.778 426.513 367.572 426.54C367.37 426.563 367.206 426.583 367.08 426.599C366.775 426.639 366.49 426.704 366.225 426.793C365.963 426.879 365.751 427.01 365.589 427.186C365.43 427.358 365.35 427.594 365.35 427.892C365.35 428.3 365.501 428.608 365.803 428.817C366.107 429.022 366.494 429.125 366.961 429.125ZM375.604 422.364V423.358H371.647V422.364H375.604ZM372.801 420.534H373.974V427.812C373.974 428.144 374.022 428.393 374.118 428.558C374.217 428.721 374.343 428.83 374.496 428.886C374.652 428.939 374.816 428.966 374.988 428.966C375.117 428.966 375.223 428.959 375.306 428.946C375.389 428.929 375.455 428.916 375.505 428.906L375.744 429.96C375.664 429.99 375.553 430.02 375.411 430.05C375.268 430.083 375.087 430.099 374.869 430.099C374.537 430.099 374.212 430.028 373.894 429.886C373.579 429.743 373.318 429.526 373.109 429.234C372.903 428.943 372.801 428.575 372.801 428.131V420.534ZM377.229 430V422.364H378.403V430H377.229ZM377.826 421.091C377.597 421.091 377.4 421.013 377.234 420.857C377.072 420.701 376.991 420.514 376.991 420.295C376.991 420.077 377.072 419.889 377.234 419.734C377.4 419.578 377.597 419.5 377.826 419.5C378.055 419.5 378.25 419.578 378.413 419.734C378.578 419.889 378.661 420.077 378.661 420.295C378.661 420.514 378.578 420.701 378.413 420.857C378.25 421.013 378.055 421.091 377.826 421.091ZM383.514 430.159C382.825 430.159 382.22 429.995 381.699 429.667C381.182 429.339 380.778 428.88 380.486 428.29C380.198 427.7 380.054 427.01 380.054 426.222C380.054 425.426 380.198 424.732 380.486 424.138C380.778 423.545 381.182 423.085 381.699 422.756C382.22 422.428 382.825 422.264 383.514 422.264C384.203 422.264 384.807 422.428 385.324 422.756C385.844 423.085 386.248 423.545 386.537 424.138C386.828 424.732 386.974 425.426 386.974 426.222C386.974 427.01 386.828 427.7 386.537 428.29C386.248 428.88 385.844 429.339 385.324 429.667C384.807 429.995 384.203 430.159 383.514 430.159ZM383.514 429.105C384.038 429.105 384.468 428.971 384.807 428.702C385.145 428.434 385.395 428.081 385.557 427.643C385.72 427.206 385.801 426.732 385.801 426.222C385.801 425.711 385.72 425.236 385.557 424.795C385.395 424.354 385.145 423.998 384.807 423.726C384.468 423.454 384.038 423.318 383.514 423.318C382.99 423.318 382.559 423.454 382.221 423.726C381.883 423.998 381.633 424.354 381.471 424.795C381.308 425.236 381.227 425.711 381.227 426.222C381.227 426.732 381.308 427.206 381.471 427.643C381.633 428.081 381.883 428.434 382.221 428.702C382.559 428.971 382.99 429.105 383.514 429.105ZM389.798 425.406V430H388.625V422.364H389.759V423.557H389.858C390.037 423.169 390.309 422.857 390.673 422.622C391.038 422.384 391.509 422.264 392.085 422.264C392.602 422.264 393.055 422.37 393.443 422.582C393.83 422.791 394.132 423.109 394.347 423.537C394.563 423.961 394.671 424.498 394.671 425.148V430H393.497V425.227C393.497 424.627 393.342 424.16 393.03 423.825C392.718 423.487 392.291 423.318 391.747 423.318C391.373 423.318 391.038 423.399 390.743 423.562C390.451 423.724 390.221 423.961 390.052 424.273C389.883 424.584 389.798 424.962 389.798 425.406Z" fill="white"/>
<path opacity="0.15" d="M-363 791V577.43C-363 574.799 -361.963 572.275 -360.115 570.403L-47.5345 253.921C-45.6859 252.05 -44.6493 249.525 -44.6493 246.894V119C-44.6493 113.477 -40.1721 109 -34.6493 109H268C273.523 109 278 104.523 278 99V84M951 791V577.43C951 574.799 949.963 572.275 948.115 570.403L635.535 253.921C633.686 252.05 632.649 249.525 632.649 246.894V119C632.649 113.477 628.172 109 622.649 109H320C314.477 109 310 104.523 310 99V84M-137 -138V-64.6274C-137 -60.8673 -134.891 -57.4251 -131.541 -55.7177L-21.4089 0.409668C-20.0026 1.12637 -18.4466 1.5 -16.8682 1.5H268C273.523 1.5 278 5.97716 278 11.5V20M725 -138V-64.6341C725 -60.8705 722.887 -57.4257 719.532 -55.72L609.122 0.414078C607.718 1.12793 606.165 1.5 604.59 1.5H319C313.477 1.5 309 5.97716 309 11.5V20M262 36H-306.858C-309.51 36 -312.054 34.9464 -313.929 33.0711L-360.071 -13.0711C-361.946 -14.9464 -363 -17.49 -363 -20.1421V-138M326 36H894.858C897.51 36 900.054 34.9464 901.929 33.0711L948.071 -13.0711C949.946 -14.9464 951 -17.49 951 -20.1421V-138M262 68H-239.123C-241.617 68 -244.021 68.932 -245.864 70.6132L-359.741 174.526C-361.817 176.42 -363 179.102 -363 181.913V575M326 68H827.123C829.617 68 832.021 68.932 833.864 70.6132L947.74 174.526C949.817 176.42 951 179.102 951 181.913V575" stroke="url(#paint0_radial_461_1326)" stroke-width="2"/>
<rect width="54" height="54" rx="10.8" transform="matrix(1 0 0 -1 267 79)" fill="url(#paint1_radial_461_1326)"/>
<rect x="-2.7" y="2.7" width="59.4" height="59.4" rx="13.5" transform="matrix(1 0 0 -1 267 84.4)" stroke="white" stroke-opacity="0.1" stroke-width="5.4"/>
<mask id="mask0_461_1326" style="mask-type:alpha" maskUnits="userSpaceOnUse" x="267" y="25" width="54" height="54">
<rect width="54" height="54" rx="10.8" transform="matrix(1 0 0 -1 267 79)" fill="url(#paint2_radial_461_1326)"/>
</mask>
<g mask="url(#mask0_461_1326)">
<line x1="264.974" y1="22.7913" x2="323.174" y2="80.9907" stroke="#00C153" stroke-width="0.25886"/>
<line y1="-0.12943" x2="82.3064" y2="-0.12943" transform="matrix(-0.707107 0.707107 0.707107 0.707107 323.086 22.8828)" stroke="#00C153" stroke-width="0.25886"/>
<line y1="-0.12943" x2="54.0806" y2="-0.12943" transform="matrix(-4.37114e-08 1 1 4.37114e-08 280.727 24.9199)" stroke="#00C153" stroke-width="0.25886"/>
<line y1="-0.12943" x2="54.0806" y2="-0.12943" transform="matrix(-1 -8.74228e-08 -8.74228e-08 1 321 38.7227)" stroke="#00C153" stroke-width="0.25886"/>
<line y1="-0.12943" x2="54.0806" y2="-0.12943" transform="matrix(-4.37114e-08 1 1 4.37114e-08 307.195 24.9199)" stroke="#00C153" stroke-width="0.25886"/>
<line y1="-0.12943" x2="54.0806" y2="-0.12943" transform="matrix(-1 -8.74228e-08 -8.74228e-08 1 321 65.1973)" stroke="#00C153" stroke-width="0.25886"/>
<circle cx="293.98" cy="51.9817" r="19.1204" stroke="#00C153" stroke-width="0.25886"/>
<g filter="url(#filter0_f_461_1326)">
<circle cx="280.501" cy="38.5007" r="1.22727" fill="#00C153"/>
</g>
<g filter="url(#filter1_f_461_1326)">
<circle cx="280.501" cy="65.5007" r="1.22727" fill="#00C153"/>
</g>
<g filter="url(#filter2_f_461_1326)">
<circle cx="307.501" cy="38.5007" r="1.22727" fill="#00C153"/>
</g>
<g filter="url(#filter3_f_461_1326)">
<circle cx="307.501" cy="65.5007" r="1.22727" fill="#00C153"/>
</g>
</g>
<g clip-path="url(#clip1_461_1326)">
<path d="M284.852 45.0137V58.1519C284.852 62.2343 302.132 62.2343 302.132 58.1519V45.0137" fill="white"/>
<path d="M284.852 45.0137V58.1519C284.852 62.2343 302.132 62.2343 302.132 58.1519V45.0137" stroke="black" stroke-width="0.919505" stroke-linecap="round" stroke-linejoin="round"/>
<path d="M293.492 41.7734C288.72 41.7734 284.852 43.1666 284.852 44.8838C284.852 49.3766 302.132 49.3766 302.132 44.8838C302.132 43.1666 298.263 41.7734 293.492 41.7734ZM302.132 51.2234C302.132 56.2638 284.852 56.2638 284.852 51.2234Z" fill="white"/>
<path d="M302.132 51.2234C302.132 56.2638 284.852 56.2638 284.852 51.2234M293.492 41.7734C288.72 41.7734 284.852 43.1666 284.852 44.8838C284.852 49.3766 302.132 49.3766 302.132 44.8838C302.132 43.1666 298.263 41.7734 293.492 41.7734Z" stroke="black" stroke-width="0.919505" stroke-linecap="round" stroke-linejoin="round"/>
</g>
</g>
<defs>
<filter id="filter0_f_461_1326" x="278.193" y="36.1934" width="4.61312" height="4.61508" filterUnits="userSpaceOnUse" color-interpolation-filters="sRGB">
<feFlood flood-opacity="0" result="BackgroundImageFix"/>
<feBlend mode="normal" in="SourceGraphic" in2="BackgroundImageFix" result="shape"/>
<feGaussianBlur stdDeviation="0.54" result="effect1_foregroundBlur_461_1326"/>
</filter>
<filter id="filter1_f_461_1326" x="278.193" y="63.1934" width="4.61312" height="4.61508" filterUnits="userSpaceOnUse" color-interpolation-filters="sRGB">
<feFlood flood-opacity="0" result="BackgroundImageFix"/>
<feBlend mode="normal" in="SourceGraphic" in2="BackgroundImageFix" result="shape"/>
<feGaussianBlur stdDeviation="0.54" result="effect1_foregroundBlur_461_1326"/>
</filter>
<filter id="filter2_f_461_1326" x="305.193" y="36.1934" width="4.61312" height="4.61508" filterUnits="userSpaceOnUse" color-interpolation-filters="sRGB">
<feFlood flood-opacity="0" result="BackgroundImageFix"/>
<feBlend mode="normal" in="SourceGraphic" in2="BackgroundImageFix" result="shape"/>
<feGaussianBlur stdDeviation="0.54" result="effect1_foregroundBlur_461_1326"/>
</filter>
<filter id="filter3_f_461_1326" x="305.193" y="63.1934" width="4.61312" height="4.61508" filterUnits="userSpaceOnUse" color-interpolation-filters="sRGB">
<feFlood flood-opacity="0" result="BackgroundImageFix"/>
<feBlend mode="normal" in="SourceGraphic" in2="BackgroundImageFix" result="shape"/>
<feGaussianBlur stdDeviation="0.54" result="effect1_foregroundBlur_461_1326"/>
</filter>
<radialGradient id="paint0_radial_461_1326" cx="0" cy="0" r="1" gradientUnits="userSpaceOnUse" gradientTransform="translate(294 51) rotate(90) scale(374.5 529.702)">
<stop stop-color="#16D857"/>
<stop offset="0.48" stop-color="#16D857" stop-opacity="0"/>
</radialGradient>
<radialGradient id="paint1_radial_461_1326" cx="0" cy="0" r="1" gradientUnits="userSpaceOnUse" gradientTransform="translate(27 -24.8824) rotate(90) scale(78.8824 44.7854)">
<stop stop-color="#00C153"/>
<stop offset="0.801475" stop-color="#0E1015"/>
</radialGradient>
<radialGradient id="paint2_radial_461_1326" cx="0" cy="0" r="1" gradientUnits="userSpaceOnUse" gradientTransform="translate(27) rotate(90) scale(54)">
<stop stop-color="#1888FA"/>
<stop offset="1" stop-color="#0E1015"/>
</radialGradient>
<clipPath id="clip0_461_1326">
<rect width="588" height="468" fill="white"/>
</clipPath>
<clipPath id="clip1_461_1326">
<rect width="26.4706" height="26.4706" fill="white" transform="translate(280.766 38.7656)"/>
</clipPath>
</defs>
</svg>
