<svg width="427" height="350" viewBox="0 0 427 350" fill="none" xmlns="http://www.w3.org/2000/svg">
<rect width="427" height="350" fill="#FAFAFA"/>
<rect x="35.5" y="22.5" width="357" height="307" rx="9.5" fill="white" stroke="#EEEEEE"/>
<rect opacity="0.05" width="35.5388" height="13.0309" rx="6.51545" transform="matrix(-1 0 0 1 282.734 81.9844)" fill="#1D2026" fill-opacity="0.75"/>
<rect opacity="0.05" width="35.5388" height="13.0309" rx="6.51545" transform="matrix(-1 0 0 1 234.008 81.9844)" fill="#1D2026" fill-opacity="0.75"/>
<rect opacity="0.05" width="40.2773" height="13.0309" rx="6.51545" transform="matrix(-1 0 0 1 185.281 81.9844)" fill="#1D2026" fill-opacity="0.75"/>
<rect opacity="0.05" width="40" height="21" rx="10.5" transform="matrix(-1 0 0 1 361 79)" fill="#1D2026" fill-opacity="0.75"/>
<rect x="66" y="74" width="32" height="32" rx="8" fill="url(#paint0_linear_413_7916)"/>
<g clip-path="url(#clip0_413_7916)">
<path d="M90.8231 93.8919C87.9157 90.7 85.703 86.9375 84.3239 82.8512C84.2313 82.5788 83.974 82.3938 83.6858 82.3938C82.5641 82.219 81.4474 82.219 80.3256 82.3938C80.0375 82.3938 79.7802 82.5788 79.6876 82.8512C78.3033 86.9375 76.0906 90.7 73.1781 93.8919C73.0135 94.0718 72.9569 94.3288 73.034 94.555C73.384 95.6036 73.914 96.5699 74.5881 97.418C74.7476 97.6184 75.01 97.7161 75.2622 97.6596C79.6979 96.6778 84.3033 96.6778 88.739 97.6596C88.9912 97.7161 89.2536 97.6184 89.4131 97.418C90.0872 96.5699 90.6172 95.6036 90.9671 94.555C91.0443 94.3288 90.9877 94.0718 90.8231 93.8919ZM88.5898 95.4082L85.8677 93.8046C83.48 92.3962 80.516 92.3962 78.1335 93.8046L75.4114 95.4082L75.1078 94.8942L77.9689 93.2083C80.2845 91.8411 81.7047 89.3533 81.7047 86.6702V83.9255H82.3068V86.6702C82.3068 89.3585 83.727 91.8411 86.0426 93.2083L88.8985 94.8942L88.5898 95.4082Z" fill="white"/>
</g>
<path d="M35 59L393 59" stroke="#EEEEEE"/>
<rect opacity="0.05" width="131" height="10" rx="5" transform="matrix(-1 0 0 1 310 37)" fill="#1D2026" fill-opacity="0.75"/>
<rect opacity="0.05" width="51" height="10" rx="5" transform="matrix(-1 0 0 1 169 37)" fill="#1D2026" fill-opacity="0.75"/>
<rect width="10" height="10" rx="5" transform="matrix(-1 0 0 1 63 37)" fill="#E53A2F"/>
<rect width="10" height="10" rx="5" transform="matrix(-1 0 0 1 77 37)" fill="#FFC125"/>
<rect width="10" height="10" rx="5" transform="matrix(-1 0 0 1 91 37)" fill="#12A250"/>
<rect x="80" y="206" width="19" height="19" rx="9.5" fill="#D766FF"/>
<rect opacity="0.05" x="107" y="203" width="55" height="10" rx="5" fill="#1D2026" fill-opacity="0.75"/>
<rect opacity="0.05" x="169" y="203" width="28" height="10" rx="5" fill="#1D2026" fill-opacity="0.75"/>
<rect opacity="0.05" x="204" y="203" width="56" height="10" rx="5" fill="#1D2026" fill-opacity="0.75"/>
<rect opacity="0.05" x="107" y="218" width="36" height="10" rx="5" fill="#1D2026" fill-opacity="0.75"/>
<rect opacity="0.05" x="150" y="218" width="25" height="10" rx="5" fill="#1D2026" fill-opacity="0.75"/>
<rect opacity="0.05" x="182" y="218" width="25" height="10" rx="5" fill="#1D2026" fill-opacity="0.75"/>
<rect x="80" y="264" width="19" height="19" rx="9.5" fill="#00C1D1"/>
<rect opacity="0.05" x="107" y="261" width="55" height="10" rx="5" fill="#1D2026" fill-opacity="0.75"/>
<rect opacity="0.05" x="169" y="261" width="28" height="10" rx="5" fill="#1D2026" fill-opacity="0.75"/>
<rect opacity="0.05" x="204" y="261" width="56" height="10" rx="5" fill="#1D2026" fill-opacity="0.75"/>
<rect opacity="0.05" x="107" y="276" width="36" height="10" rx="5" fill="#1D2026" fill-opacity="0.75"/>
<rect opacity="0.05" x="150" y="276" width="25" height="10" rx="5" fill="#1D2026" fill-opacity="0.75"/>
<rect opacity="0.05" x="182" y="276" width="25" height="10" rx="5" fill="#1D2026" fill-opacity="0.75"/>
<rect opacity="0.05" x="107.672" y="130" width="213" height="16.2595" rx="8.12977" fill="#1D2026" fill-opacity="0.75"/>
<rect opacity="0.05" width="82.9237" height="16.2595" rx="8.12977" transform="matrix(-1 0 0 1 360.672 154.39)" fill="#1D2026" fill-opacity="0.75"/>
<rect opacity="0.05" width="82.9237" height="16.2595" rx="8.12977" transform="matrix(-1 0 0 1 261.492 154.39)" fill="#1D2026" fill-opacity="0.75"/>
<rect opacity="0.05" width="94.3054" height="16.2595" rx="8.12977" transform="matrix(-1 0 0 1 162.305 154.39)" fill="#1D2026" fill-opacity="0.75"/>
<rect x="68.5" y="191.5" width="292" height="48" rx="7.5" stroke="#EEEEEE"/>
<rect x="68.5" y="249.5" width="292" height="48" rx="7.5" stroke="#00C1D1"/>
<path d="M299.485 222.364V208.727H300.359V222.364H299.485ZM302.005 213.09C301.955 212.625 301.745 212.262 301.376 212.003C301.01 211.744 300.534 211.614 299.949 211.614C299.537 211.614 299.183 211.676 298.888 211.801C298.594 211.925 298.368 212.094 298.212 212.307C298.056 212.52 297.976 212.763 297.972 213.037C297.972 213.264 298.024 213.461 298.127 213.628C298.233 213.795 298.377 213.937 298.558 214.054C298.739 214.168 298.94 214.263 299.16 214.342C299.38 214.42 299.602 214.485 299.826 214.539L300.849 214.794C301.261 214.89 301.657 215.02 302.037 215.183C302.42 215.347 302.763 215.553 303.065 215.801C303.37 216.05 303.612 216.35 303.789 216.701C303.967 217.053 304.055 217.465 304.055 217.937C304.055 218.576 303.892 219.139 303.565 219.626C303.239 220.109 302.766 220.487 302.148 220.76C301.534 221.03 300.79 221.165 299.917 221.165C299.068 221.165 298.331 221.034 297.706 220.771C297.085 220.508 296.598 220.125 296.246 219.62C295.898 219.116 295.71 218.502 295.682 217.777H297.626C297.654 218.157 297.772 218.473 297.978 218.725C298.184 218.978 298.452 219.166 298.782 219.29C299.116 219.414 299.489 219.477 299.901 219.477C300.33 219.477 300.707 219.413 301.03 219.285C301.357 219.153 301.612 218.972 301.797 218.741C301.982 218.507 302.076 218.234 302.079 217.921C302.076 217.637 301.992 217.403 301.829 217.218C301.665 217.03 301.436 216.874 301.142 216.749C300.85 216.621 300.51 216.508 300.119 216.408L298.878 216.089C297.979 215.858 297.269 215.508 296.747 215.039C296.229 214.567 295.969 213.94 295.969 213.159C295.969 212.516 296.143 211.953 296.491 211.471C296.843 210.988 297.321 210.613 297.924 210.347C298.528 210.077 299.212 209.942 299.975 209.942C300.749 209.942 301.428 210.077 302.01 210.347C302.596 210.613 303.056 210.984 303.39 211.46C303.723 211.932 303.896 212.475 303.906 213.09H302.005ZM305.561 221V219.572L309.348 215.86C309.71 215.494 310.012 215.169 310.253 214.885C310.495 214.601 310.676 214.326 310.797 214.059C310.918 213.793 310.978 213.509 310.978 213.207C310.978 212.863 310.9 212.568 310.744 212.323C310.587 212.074 310.372 211.882 310.099 211.748C309.826 211.613 309.515 211.545 309.167 211.545C308.808 211.545 308.494 211.62 308.224 211.769C307.954 211.914 307.745 212.122 307.595 212.392C307.45 212.662 307.377 212.983 307.377 213.356H305.497C305.497 212.664 305.655 212.062 305.971 211.55C306.287 211.039 306.722 210.643 307.276 210.363C307.833 210.082 308.473 209.942 309.193 209.942C309.925 209.942 310.568 210.078 311.122 210.352C311.676 210.625 312.105 211 312.411 211.476C312.72 211.952 312.874 212.495 312.874 213.106C312.874 213.514 312.796 213.915 312.64 214.31C312.484 214.704 312.208 215.141 311.814 215.62C311.424 216.099 310.875 216.68 310.168 217.362L308.288 219.274V219.349H313.039V221H305.561ZM318.514 209.942C319.036 209.945 319.544 210.038 320.038 210.219C320.535 210.396 320.982 210.688 321.38 211.092C321.778 211.494 322.094 212.032 322.328 212.706C322.563 213.381 322.68 214.216 322.68 215.21C322.683 216.147 322.584 216.985 322.382 217.724C322.183 218.459 321.897 219.081 321.524 219.588C321.151 220.096 320.702 220.483 320.176 220.75C319.651 221.016 319.059 221.149 318.403 221.149C317.714 221.149 317.103 221.014 316.57 220.744C316.041 220.474 315.613 220.105 315.286 219.636C314.96 219.168 314.759 218.631 314.684 218.028H316.629C316.728 218.461 316.931 218.805 317.236 219.061C317.545 219.313 317.934 219.439 318.403 219.439C319.159 219.439 319.741 219.111 320.15 218.454C320.558 217.797 320.762 216.884 320.762 215.716H320.688C320.514 216.028 320.288 216.298 320.011 216.526C319.734 216.749 319.42 216.922 319.068 217.042C318.72 217.163 318.351 217.223 317.96 217.223C317.321 217.223 316.746 217.071 316.235 216.765C315.727 216.46 315.324 216.041 315.025 215.508C314.731 214.975 314.581 214.366 314.578 213.681C314.578 212.971 314.741 212.333 315.068 211.769C315.398 211.201 315.858 210.753 316.448 210.426C317.037 210.096 317.726 209.935 318.514 209.942ZM318.52 211.54C318.136 211.54 317.79 211.634 317.481 211.822C317.176 212.007 316.934 212.259 316.757 212.578C316.583 212.895 316.496 213.248 316.496 213.638C316.499 214.026 316.586 214.377 316.757 214.693C316.931 215.009 317.167 215.26 317.465 215.444C317.767 215.629 318.111 215.721 318.498 215.721C318.786 215.721 319.054 215.666 319.303 215.556C319.551 215.446 319.768 215.293 319.953 215.098C320.141 214.899 320.286 214.674 320.389 214.422C320.496 214.169 320.547 213.903 320.544 213.623C320.544 213.25 320.455 212.905 320.278 212.589C320.103 212.273 319.864 212.019 319.558 211.827C319.257 211.636 318.91 211.54 318.52 211.54ZM325.088 221.117C324.765 221.117 324.488 221.004 324.257 220.776C324.026 220.549 323.913 220.272 323.916 219.945C323.913 219.626 324.026 219.352 324.257 219.125C324.488 218.898 324.765 218.784 325.088 218.784C325.4 218.784 325.672 218.898 325.903 219.125C326.137 219.352 326.256 219.626 326.26 219.945C326.256 220.162 326.2 220.359 326.089 220.537C325.983 220.714 325.841 220.856 325.663 220.963C325.489 221.066 325.298 221.117 325.088 221.117ZM331.687 221.208C330.81 221.208 330.057 220.986 329.428 220.542C328.803 220.094 328.322 219.45 327.985 218.608C327.651 217.763 327.484 216.746 327.484 215.556C327.488 214.366 327.656 213.354 327.99 212.52C328.328 211.682 328.809 211.043 329.434 210.602C330.062 210.162 330.813 209.942 331.687 209.942C332.561 209.942 333.312 210.162 333.94 210.602C334.569 211.043 335.05 211.682 335.384 212.52C335.721 213.358 335.89 214.37 335.89 215.556C335.89 216.749 335.721 217.768 335.384 218.614C335.05 219.455 334.569 220.098 333.94 220.542C333.315 220.986 332.564 221.208 331.687 221.208ZM331.687 219.54C332.369 219.54 332.907 219.205 333.301 218.534C333.699 217.859 333.898 216.866 333.898 215.556C333.898 214.69 333.807 213.962 333.626 213.372C333.445 212.783 333.189 212.339 332.859 212.04C332.529 211.739 332.138 211.588 331.687 211.588C331.009 211.588 330.472 211.925 330.078 212.6C329.684 213.271 329.485 214.256 329.482 215.556C329.478 216.426 329.565 217.158 329.743 217.751C329.924 218.344 330.179 218.791 330.51 219.093C330.84 219.391 331.232 219.54 331.687 219.54ZM341.542 221.208C340.665 221.208 339.912 220.986 339.283 220.542C338.658 220.094 338.177 219.45 337.84 218.608C337.506 217.763 337.339 216.746 337.339 215.556C337.343 214.366 337.511 213.354 337.845 212.52C338.182 211.682 338.664 211.043 339.289 210.602C339.917 210.162 340.668 209.942 341.542 209.942C342.415 209.942 343.166 210.162 343.795 210.602C344.424 211.043 344.905 211.682 345.239 212.52C345.576 213.358 345.745 214.37 345.745 215.556C345.745 216.749 345.576 217.768 345.239 218.614C344.905 219.455 344.424 220.098 343.795 220.542C343.17 220.986 342.419 221.208 341.542 221.208ZM341.542 219.54C342.224 219.54 342.762 219.205 343.156 218.534C343.554 217.859 343.752 216.866 343.752 215.556C343.752 214.69 343.662 213.962 343.481 213.372C343.3 212.783 343.044 212.339 342.714 212.04C342.383 211.739 341.993 211.588 341.542 211.588C340.864 211.588 340.327 211.925 339.933 212.6C339.539 213.271 339.34 214.256 339.337 215.556C339.333 216.426 339.42 217.158 339.598 217.751C339.779 218.344 340.034 218.791 340.365 219.093C340.695 219.391 341.087 219.54 341.542 219.54Z" fill="#EEEEEE"/>
<path d="M299.485 280.364V266.727H300.359V280.364H299.485ZM302.005 271.09C301.955 270.625 301.745 270.262 301.376 270.003C301.01 269.744 300.534 269.614 299.949 269.614C299.537 269.614 299.183 269.676 298.888 269.801C298.594 269.925 298.368 270.094 298.212 270.307C298.056 270.52 297.976 270.763 297.972 271.037C297.972 271.264 298.024 271.461 298.127 271.628C298.233 271.795 298.377 271.937 298.558 272.054C298.739 272.168 298.94 272.263 299.16 272.342C299.38 272.42 299.602 272.485 299.826 272.539L300.849 272.794C301.261 272.89 301.657 273.02 302.037 273.183C302.42 273.347 302.763 273.553 303.065 273.801C303.37 274.05 303.612 274.35 303.789 274.701C303.967 275.053 304.055 275.465 304.055 275.937C304.055 276.576 303.892 277.139 303.565 277.626C303.239 278.109 302.766 278.487 302.148 278.76C301.534 279.03 300.79 279.165 299.917 279.165C299.068 279.165 298.331 279.034 297.706 278.771C297.085 278.508 296.598 278.125 296.246 277.62C295.898 277.116 295.71 276.502 295.682 275.777H297.626C297.654 276.157 297.772 276.473 297.978 276.725C298.184 276.978 298.452 277.166 298.782 277.29C299.116 277.414 299.489 277.477 299.901 277.477C300.33 277.477 300.707 277.413 301.03 277.285C301.357 277.153 301.612 276.972 301.797 276.741C301.982 276.507 302.076 276.234 302.079 275.921C302.076 275.637 301.992 275.403 301.829 275.218C301.665 275.03 301.436 274.874 301.142 274.749C300.85 274.621 300.51 274.508 300.119 274.408L298.878 274.089C297.979 273.858 297.269 273.508 296.747 273.039C296.229 272.567 295.969 271.94 295.969 271.159C295.969 270.516 296.143 269.953 296.491 269.471C296.843 268.988 297.321 268.613 297.924 268.347C298.528 268.077 299.212 267.942 299.975 267.942C300.749 267.942 301.428 268.077 302.01 268.347C302.596 268.613 303.056 268.984 303.39 269.46C303.723 269.932 303.896 270.475 303.906 271.09H302.005ZM305.561 279V277.572L309.348 273.86C309.71 273.494 310.012 273.169 310.253 272.885C310.495 272.601 310.676 272.326 310.797 272.059C310.918 271.793 310.978 271.509 310.978 271.207C310.978 270.863 310.9 270.568 310.744 270.323C310.587 270.074 310.372 269.882 310.099 269.748C309.826 269.613 309.515 269.545 309.167 269.545C308.808 269.545 308.494 269.62 308.224 269.769C307.954 269.914 307.745 270.122 307.595 270.392C307.45 270.662 307.377 270.983 307.377 271.356H305.497C305.497 270.664 305.655 270.062 305.971 269.55C306.287 269.039 306.722 268.643 307.276 268.363C307.833 268.082 308.473 267.942 309.193 267.942C309.925 267.942 310.568 268.078 311.122 268.352C311.676 268.625 312.105 269 312.411 269.476C312.72 269.952 312.874 270.495 312.874 271.106C312.874 271.514 312.796 271.915 312.64 272.31C312.484 272.704 312.208 273.141 311.814 273.62C311.424 274.099 310.875 274.68 310.168 275.362L308.288 277.274V277.349H313.039V279H305.561ZM318.514 267.942C319.036 267.945 319.544 268.038 320.038 268.219C320.535 268.396 320.982 268.688 321.38 269.092C321.778 269.494 322.094 270.032 322.328 270.706C322.563 271.381 322.68 272.216 322.68 273.21C322.683 274.147 322.584 274.985 322.382 275.724C322.183 276.459 321.897 277.081 321.524 277.588C321.151 278.096 320.702 278.483 320.176 278.75C319.651 279.016 319.059 279.149 318.403 279.149C317.714 279.149 317.103 279.014 316.57 278.744C316.041 278.474 315.613 278.105 315.286 277.636C314.96 277.168 314.759 276.631 314.684 276.028H316.629C316.728 276.461 316.931 276.805 317.236 277.061C317.545 277.313 317.934 277.439 318.403 277.439C319.159 277.439 319.741 277.111 320.15 276.454C320.558 275.797 320.762 274.884 320.762 273.716H320.688C320.514 274.028 320.288 274.298 320.011 274.526C319.734 274.749 319.42 274.922 319.068 275.042C318.72 275.163 318.351 275.223 317.96 275.223C317.321 275.223 316.746 275.071 316.235 274.765C315.727 274.46 315.324 274.041 315.025 273.508C314.731 272.975 314.581 272.366 314.578 271.681C314.578 270.971 314.741 270.333 315.068 269.769C315.398 269.201 315.858 268.753 316.448 268.426C317.037 268.096 317.726 267.935 318.514 267.942ZM318.52 269.54C318.136 269.54 317.79 269.634 317.481 269.822C317.176 270.007 316.934 270.259 316.757 270.578C316.583 270.895 316.496 271.248 316.496 271.638C316.499 272.026 316.586 272.377 316.757 272.693C316.931 273.009 317.167 273.26 317.465 273.444C317.767 273.629 318.111 273.721 318.498 273.721C318.786 273.721 319.054 273.666 319.303 273.556C319.551 273.446 319.768 273.293 319.953 273.098C320.141 272.899 320.286 272.674 320.389 272.422C320.496 272.169 320.547 271.903 320.544 271.623C320.544 271.25 320.455 270.905 320.278 270.589C320.103 270.273 319.864 270.019 319.558 269.827C319.257 269.636 318.91 269.54 318.52 269.54ZM325.088 279.117C324.765 279.117 324.488 279.004 324.257 278.776C324.026 278.549 323.913 278.272 323.916 277.945C323.913 277.626 324.026 277.352 324.257 277.125C324.488 276.898 324.765 276.784 325.088 276.784C325.4 276.784 325.672 276.898 325.903 277.125C326.137 277.352 326.256 277.626 326.26 277.945C326.256 278.162 326.2 278.359 326.089 278.537C325.983 278.714 325.841 278.856 325.663 278.963C325.489 279.066 325.298 279.117 325.088 279.117ZM331.687 279.208C330.81 279.208 330.057 278.986 329.428 278.542C328.803 278.094 328.322 277.45 327.985 276.608C327.651 275.763 327.484 274.746 327.484 273.556C327.488 272.366 327.656 271.354 327.99 270.52C328.328 269.682 328.809 269.043 329.434 268.602C330.062 268.162 330.813 267.942 331.687 267.942C332.561 267.942 333.312 268.162 333.94 268.602C334.569 269.043 335.05 269.682 335.384 270.52C335.721 271.358 335.89 272.37 335.89 273.556C335.89 274.749 335.721 275.768 335.384 276.614C335.05 277.455 334.569 278.098 333.94 278.542C333.315 278.986 332.564 279.208 331.687 279.208ZM331.687 277.54C332.369 277.54 332.907 277.205 333.301 276.534C333.699 275.859 333.898 274.866 333.898 273.556C333.898 272.69 333.807 271.962 333.626 271.372C333.445 270.783 333.189 270.339 332.859 270.04C332.529 269.739 332.138 269.588 331.687 269.588C331.009 269.588 330.472 269.925 330.078 270.6C329.684 271.271 329.485 272.256 329.482 273.556C329.478 274.426 329.565 275.158 329.743 275.751C329.924 276.344 330.179 276.791 330.51 277.093C330.84 277.391 331.232 277.54 331.687 277.54ZM341.542 279.208C340.665 279.208 339.912 278.986 339.283 278.542C338.658 278.094 338.177 277.45 337.84 276.608C337.506 275.763 337.339 274.746 337.339 273.556C337.343 272.366 337.511 271.354 337.845 270.52C338.182 269.682 338.664 269.043 339.289 268.602C339.917 268.162 340.668 267.942 341.542 267.942C342.415 267.942 343.166 268.162 343.795 268.602C344.424 269.043 344.905 269.682 345.239 270.52C345.576 271.358 345.745 272.37 345.745 273.556C345.745 274.749 345.576 275.768 345.239 276.614C344.905 277.455 344.424 278.098 343.795 278.542C343.17 278.986 342.419 279.208 341.542 279.208ZM341.542 277.54C342.224 277.54 342.762 277.205 343.156 276.534C343.554 275.859 343.752 274.866 343.752 273.556C343.752 272.69 343.662 271.962 343.481 271.372C343.3 270.783 343.044 270.339 342.714 270.04C342.383 269.739 341.993 269.588 341.542 269.588C340.864 269.588 340.327 269.925 339.933 270.6C339.539 271.271 339.34 272.256 339.337 273.556C339.333 274.426 339.42 275.158 339.598 275.751C339.779 276.344 340.034 276.791 340.365 277.093C340.695 277.391 341.087 277.54 341.542 277.54Z" fill="#EEEEEE"/>
<g filter="url(#filter0_i_413_7916)">
<rect x="295" y="303" width="82" height="31" rx="5" fill="#0E6EF0"/>
<path d="M309.539 323.5V314.045H313.001C313.672 314.045 314.228 314.156 314.668 314.378C315.108 314.596 315.437 314.893 315.656 315.269C315.874 315.641 315.983 316.061 315.983 316.529C315.983 316.923 315.911 317.255 315.766 317.526C315.622 317.794 315.428 318.009 315.185 318.173C314.945 318.333 314.68 318.45 314.391 318.523V318.616C314.705 318.631 315.011 318.733 315.309 318.92C315.611 319.105 315.86 319.368 316.057 319.71C316.254 320.051 316.353 320.467 316.353 320.956C316.353 321.44 316.239 321.873 316.011 322.258C315.786 322.64 315.439 322.943 314.968 323.168C314.497 323.389 313.895 323.5 313.163 323.5H309.539ZM310.965 322.277H313.024C313.707 322.277 314.197 322.144 314.492 321.88C314.788 321.615 314.935 321.284 314.935 320.887C314.935 320.589 314.86 320.315 314.709 320.065C314.558 319.816 314.343 319.618 314.063 319.47C313.786 319.322 313.457 319.248 313.075 319.248H310.965V322.277ZM310.965 318.136H312.876C313.196 318.136 313.484 318.074 313.74 317.951C313.998 317.828 314.203 317.656 314.354 317.434C314.508 317.209 314.585 316.945 314.585 316.64C314.585 316.249 314.448 315.921 314.174 315.657C313.9 315.392 313.48 315.26 312.913 315.26H310.965V318.136ZM322.296 320.559V316.409H323.681V323.5H322.323V322.272H322.249C322.086 322.651 321.825 322.966 321.465 323.218C321.108 323.468 320.663 323.592 320.13 323.592C319.675 323.592 319.272 323.492 318.921 323.292C318.573 323.089 318.299 322.789 318.099 322.392C317.902 321.995 317.804 321.504 317.804 320.919V316.409H319.184V320.753C319.184 321.236 319.318 321.621 319.586 321.907C319.853 322.194 320.201 322.337 320.629 322.337C320.888 322.337 321.145 322.272 321.4 322.143C321.659 322.013 321.872 321.818 322.042 321.556C322.214 321.295 322.299 320.962 322.296 320.559ZM326.278 326.159C326.072 326.159 325.884 326.142 325.715 326.108C325.545 326.078 325.419 326.044 325.336 326.007L325.668 324.876C325.921 324.943 326.145 324.973 326.342 324.963C326.539 324.954 326.713 324.88 326.864 324.742C327.018 324.603 327.153 324.377 327.27 324.063L327.441 323.592L324.847 316.409H326.324L328.12 321.912H328.194L329.989 316.409H331.471L328.549 324.446C328.414 324.816 328.241 325.128 328.032 325.384C327.823 325.642 327.573 325.836 327.284 325.965C326.995 326.094 326.659 326.159 326.278 326.159ZM343.691 314.045V323.5H342.38L337.574 316.566H337.486V323.5H336.06V314.045H337.38L342.19 320.989H342.278V314.045H343.691ZM348.518 323.643C347.853 323.643 347.273 323.491 346.777 323.186C346.282 322.881 345.897 322.455 345.623 321.907C345.349 321.359 345.212 320.719 345.212 319.987C345.212 319.251 345.349 318.608 345.623 318.057C345.897 317.506 346.282 317.078 346.777 316.774C347.273 316.469 347.853 316.317 348.518 316.317C349.182 316.317 349.763 316.469 350.258 316.774C350.754 317.078 351.138 317.506 351.412 318.057C351.686 318.608 351.823 319.251 351.823 319.987C351.823 320.719 351.686 321.359 351.412 321.907C351.138 322.455 350.754 322.881 350.258 323.186C349.763 323.491 349.182 323.643 348.518 323.643ZM348.522 322.484C348.953 322.484 349.31 322.371 349.593 322.143C349.876 321.915 350.086 321.612 350.221 321.233C350.36 320.855 350.429 320.438 350.429 319.982C350.429 319.53 350.36 319.114 350.221 318.736C350.086 318.354 349.876 318.048 349.593 317.817C349.31 317.586 348.953 317.471 348.522 317.471C348.088 317.471 347.728 317.586 347.442 317.817C347.159 318.048 346.948 318.354 346.81 318.736C346.674 319.114 346.606 319.53 346.606 319.982C346.606 320.438 346.674 320.855 346.81 321.233C346.948 321.612 347.159 321.915 347.442 322.143C347.728 322.371 348.088 322.484 348.522 322.484ZM354.555 323.5L352.469 316.409H353.895L355.285 321.616H355.354L356.748 316.409H358.175L359.56 321.593H359.629L361.009 316.409H362.436L360.354 323.5H358.946L357.505 318.38H357.399L355.959 323.5H354.555Z" fill="white"/>
</g>
<g filter="url(#filter1_d_413_7916)">
<path d="M286.83 304.763L283.836 289.191L297.012 296.977L290.424 298.774L286.83 304.763Z" fill="#1675FF"/>
<path d="M284.144 288.676L283 288L283.251 289.305L286.245 304.876L286.541 306.414L287.347 305.071L290.817 299.288L297.172 297.555L298.539 297.182L297.319 296.461L284.144 288.676Z" stroke="white" stroke-width="0.399266" stroke-linecap="square"/>
</g>
<defs>
<filter id="filter0_i_413_7916" x="295" y="303" width="82" height="31" filterUnits="userSpaceOnUse" color-interpolation-filters="sRGB">
<feFlood flood-opacity="0" result="BackgroundImageFix"/>
<feBlend mode="normal" in="SourceGraphic" in2="BackgroundImageFix" result="shape"/>
<feColorMatrix in="SourceAlpha" type="matrix" values="0 0 0 0 0 0 0 0 0 0 0 0 0 0 0 0 0 0 127 0" result="hardAlpha"/>
<feOffset dy="-3"/>
<feComposite in2="hardAlpha" operator="arithmetic" k2="-1" k3="1"/>
<feColorMatrix type="matrix" values="0 0 0 0 1 0 0 0 0 1 0 0 0 0 1 0 0 0 0.2 0"/>
<feBlend mode="normal" in2="shape" result="effect1_innerShadow_413_7916"/>
</filter>
<filter id="filter1_d_413_7916" x="281.521" y="286.804" width="18.7237" height="21.7579" filterUnits="userSpaceOnUse" color-interpolation-filters="sRGB">
<feFlood flood-opacity="0" result="BackgroundImageFix"/>
<feColorMatrix in="SourceAlpha" type="matrix" values="0 0 0 0 0 0 0 0 0 0 0 0 0 0 0 0 0 0 127 0" result="hardAlpha"/>
<feOffset dy="0.399266"/>
<feGaussianBlur stdDeviation="0.5989"/>
<feColorMatrix type="matrix" values="0 0 0 0 0 0 0 0 0 0 0 0 0 0 0 0 0 0 0.35 0"/>
<feBlend mode="normal" in2="BackgroundImageFix" result="effect1_dropShadow_413_7916"/>
<feBlend mode="normal" in="SourceGraphic" in2="effect1_dropShadow_413_7916" result="shape"/>
</filter>
<linearGradient id="paint0_linear_413_7916" x1="82" y1="74" x2="82" y2="106" gradientUnits="userSpaceOnUse">
<stop stop-color="#FD965C"/>
<stop offset="1" stop-color="#EA7635"/>
</linearGradient>
<clipPath id="clip0_413_7916">
<rect width="18" height="18" fill="white" transform="translate(73 81)"/>
</clipPath>
</defs>
</svg>
