<svg width="427" height="350" viewBox="0 0 427 350" fill="none" xmlns="http://www.w3.org/2000/svg">
<rect width="426.5" height="350" fill="#FAFAFA"/>
<rect x="34.5" y="64.5" width="357" height="239" rx="9.5" fill="white" stroke="#EEEEEE"/>
<rect x="34.5" y="22.5" width="89" height="30" rx="15" fill="white"/>
<rect x="34.5" y="22.5" width="89" height="30" rx="15" stroke="#E4E4E4"/>
<path d="M54.9533 40.4533C57.5202 40.1096 59.5 37.911 59.5 35.25C59.5 32.3505 57.1495 30 54.25 30C51.589 30 49.3904 31.9798 49.0467 34.5467M55 39.75C55 42.6495 52.6495 45 49.75 45C46.8505 45 44.5 42.6495 44.5 39.75C44.5 36.8505 46.8505 34.5 49.75 34.5C52.6495 34.5 55 36.8505 55 39.75Z" stroke="#E4E4E4" stroke-width="1.5" stroke-linecap="round" stroke-linejoin="round"/>
<path d="M71.1214 44.2727V31.5455H71.9368V44.2727H71.1214ZM73.6719 35.4929C73.6188 35.0223 73.4001 34.6577 73.0156 34.3991C72.6312 34.1373 72.1473 34.0064 71.5639 34.0064C71.1463 34.0064 70.785 34.0727 70.4801 34.2053C70.1752 34.3345 69.9382 34.5135 69.7692 34.7422C69.6035 34.9676 69.5206 35.2244 69.5206 35.5128C69.5206 35.7547 69.5769 35.9635 69.6896 36.1392C69.8056 36.3149 69.9564 36.4624 70.142 36.5817C70.331 36.6977 70.5331 36.7955 70.7486 36.875C70.964 36.9512 71.1712 37.0142 71.37 37.0639L72.3643 37.3224C72.6892 37.402 73.0223 37.5097 73.3636 37.6456C73.705 37.7815 74.0215 37.9605 74.3132 38.1825C74.6049 38.4046 74.8402 38.6797 75.0192 39.0078C75.2015 39.3359 75.2926 39.7287 75.2926 40.1861C75.2926 40.7628 75.1435 41.2749 74.8452 41.7223C74.5502 42.1697 74.121 42.5227 73.5575 42.7812C72.9974 43.0398 72.3196 43.169 71.5241 43.169C70.7618 43.169 70.1023 43.0481 69.5455 42.8061C68.9886 42.5642 68.5528 42.2211 68.2379 41.777C67.9231 41.3295 67.7491 40.7992 67.7159 40.1861H69.2571C69.2869 40.554 69.4063 40.8606 69.6151 41.1058C69.8272 41.3478 70.0973 41.5284 70.4254 41.6477C70.7569 41.7637 71.1198 41.8217 71.5142 41.8217C71.9484 41.8217 72.3345 41.7538 72.6726 41.6179C73.014 41.4787 73.2824 41.2865 73.478 41.0412C73.6735 40.7926 73.7713 40.5026 73.7713 40.1712C73.7713 39.8696 73.6851 39.6226 73.5128 39.4304C73.3438 39.2382 73.1134 39.0791 72.8217 38.9531C72.5334 38.8272 72.2069 38.7161 71.8423 38.62L70.6392 38.2919C69.8239 38.0698 69.1776 37.7434 68.7003 37.3125C68.2263 36.8816 67.9893 36.3116 67.9893 35.6023C67.9893 35.0156 68.1484 34.5036 68.4666 34.0661C68.7848 33.6286 69.2157 33.2888 69.7592 33.0469C70.3028 32.8016 70.916 32.679 71.5987 32.679C72.2881 32.679 72.8963 32.8 73.4233 33.0419C73.9536 33.2839 74.3712 33.617 74.6761 34.0412C74.9811 34.4621 75.1402 34.946 75.1534 35.4929H73.6719ZM76.8492 43V41.8864L80.2945 38.3168C80.6624 37.929 80.9656 37.5893 81.2043 37.2976C81.4462 37.0026 81.6269 36.7225 81.7462 36.4574C81.8655 36.1922 81.9252 35.9105 81.9252 35.6122C81.9252 35.2741 81.8456 34.9825 81.6865 34.7372C81.5274 34.4886 81.3103 34.2981 81.0352 34.1655C80.7602 34.0296 80.4503 33.9616 80.1056 33.9616C79.741 33.9616 79.4228 34.0362 79.151 34.1854C78.8792 34.3345 78.6704 34.545 78.5246 34.8168C78.3788 35.0885 78.3058 35.4067 78.3058 35.7713H76.8392C76.8392 35.1515 76.9817 34.6096 77.2668 34.1456C77.5518 33.6816 77.9429 33.322 78.4401 33.0668C78.9372 32.8082 79.5023 32.679 80.1354 32.679C80.7751 32.679 81.3385 32.8066 81.8257 33.0618C82.3163 33.3137 82.6991 33.6584 82.9742 34.0959C83.2493 34.5301 83.3868 35.0206 83.3868 35.5675C83.3868 35.9453 83.3156 36.3149 83.173 36.6761C83.0338 37.0374 82.7902 37.4401 82.4422 37.8842C82.0942 38.325 81.6103 38.8603 80.9905 39.4901L78.9671 41.608V41.6825H83.5509V43H76.8492ZM88.6808 32.679C89.1348 32.6823 89.5823 32.7652 90.0231 32.9276C90.4639 33.09 90.8616 33.3551 91.2163 33.723C91.5742 34.0909 91.8593 34.5881 92.0714 35.2145C92.2868 35.8376 92.3962 36.6132 92.3995 37.5412C92.3995 38.4328 92.31 39.2266 92.131 39.9226C91.9521 40.6153 91.6952 41.2003 91.3604 41.6776C91.029 42.1548 90.6263 42.5178 90.1524 42.7663C89.6784 43.0149 89.1448 43.1392 88.5515 43.1392C87.945 43.1392 87.4064 43.0199 86.9357 42.7812C86.4651 42.5426 86.0823 42.2128 85.7873 41.7919C85.4923 41.3677 85.3084 40.8804 85.2354 40.3303H86.7518C86.8512 40.7678 87.0534 41.1224 87.3583 41.3942C87.6666 41.6626 88.0643 41.7969 88.5515 41.7969C89.2972 41.7969 89.8789 41.4721 90.2965 40.8224C90.7141 40.1695 90.9246 39.258 90.9279 38.0881H90.8484C90.676 38.3731 90.4606 38.6184 90.2021 38.8239C89.9469 39.0294 89.6602 39.1884 89.342 39.3011C89.0238 39.4138 88.6841 39.4702 88.3228 39.4702C87.7362 39.4702 87.2025 39.326 86.722 39.0376C86.2414 38.7493 85.8586 38.3532 85.5735 37.8494C85.2885 37.3456 85.146 36.7706 85.146 36.1243C85.146 35.4813 85.2918 34.898 85.5835 34.3743C85.8784 33.8506 86.2894 33.4363 86.8164 33.1314C87.3467 32.8232 87.9682 32.6723 88.6808 32.679ZM88.6857 33.9716C88.2979 33.9716 87.9483 34.0677 87.6367 34.2599C87.3285 34.4489 87.0849 34.7057 86.9059 35.0305C86.7269 35.352 86.6374 35.71 86.6374 36.1044C86.6374 36.4988 86.7236 36.8568 86.896 37.1783C87.0716 37.4964 87.3103 37.75 87.6119 37.9389C87.9168 38.1245 88.2648 38.2173 88.6559 38.2173C88.9476 38.2173 89.2193 38.161 89.4712 38.0483C89.7231 37.9356 89.9435 37.7798 90.1325 37.581C90.3214 37.3788 90.4689 37.1501 90.5749 36.8949C90.681 36.6397 90.734 36.3712 90.734 36.0895C90.734 35.715 90.6445 35.367 90.4656 35.0455C90.2899 34.724 90.0479 34.4654 89.7397 34.2699C89.4315 34.071 89.0801 33.9716 88.6857 33.9716ZM94.6856 43.0945C94.4139 43.0945 94.1802 42.9983 93.9847 42.8061C93.7891 42.6106 93.6913 42.3752 93.6913 42.1001C93.6913 41.8284 93.7891 41.5964 93.9847 41.4041C94.1802 41.2086 94.4139 41.1108 94.6856 41.1108C94.9574 41.1108 95.1911 41.2086 95.3866 41.4041C95.5822 41.5964 95.68 41.8284 95.68 42.1001C95.68 42.2824 95.6336 42.4498 95.5408 42.6023C95.4513 42.7514 95.332 42.8707 95.1828 42.9602C95.0337 43.0497 94.8679 43.0945 94.6856 43.0945ZM100.687 43.169C99.9013 43.1657 99.2301 42.9586 98.6733 42.5476C98.1165 42.1366 97.6906 41.5384 97.3956 40.7528C97.1006 39.9673 96.9531 39.0211 96.9531 37.9141C96.9531 36.8104 97.1006 35.8674 97.3956 35.0852C97.6939 34.303 98.1215 33.7064 98.6783 33.2955C99.2384 32.8845 99.9079 32.679 100.687 32.679C101.466 32.679 102.134 32.8861 102.69 33.3004C103.247 33.7114 103.673 34.308 103.968 35.0902C104.266 35.8691 104.415 36.8104 104.415 37.9141C104.415 39.0244 104.268 39.9723 103.973 40.7578C103.678 41.54 103.252 42.1383 102.695 42.5526C102.139 42.9635 101.469 43.169 100.687 43.169ZM100.687 41.8416C101.376 41.8416 101.915 41.5052 102.303 40.8324C102.694 40.1596 102.889 39.1868 102.889 37.9141C102.889 37.0689 102.8 36.3546 102.621 35.7713C102.445 35.1847 102.192 34.7405 101.86 34.4389C101.532 34.134 101.141 33.9815 100.687 33.9815C100.001 33.9815 99.4621 34.3196 99.071 34.9957C98.6799 35.6719 98.4827 36.6446 98.4794 37.9141C98.4794 38.7625 98.5672 39.4801 98.7429 40.0668C98.9219 40.6501 99.1754 41.0926 99.5036 41.3942C99.8317 41.6925 100.226 41.8416 100.687 41.8416ZM109.584 43.169C108.798 43.1657 108.127 42.9586 107.57 42.5476C107.014 42.1366 106.588 41.5384 106.293 40.7528C105.998 39.9673 105.85 39.0211 105.85 37.9141C105.85 36.8104 105.998 35.8674 106.293 35.0852C106.591 34.303 107.019 33.7064 107.575 33.2955C108.136 32.8845 108.805 32.679 109.584 32.679C110.363 32.679 111.031 32.8861 111.587 33.3004C112.144 33.7114 112.57 34.308 112.865 35.0902C113.163 35.8691 113.313 36.8104 113.313 37.9141C113.313 39.0244 113.165 39.9723 112.87 40.7578C112.575 41.54 112.149 42.1383 111.592 42.5526C111.036 42.9635 110.366 43.169 109.584 43.169ZM109.584 41.8416C110.273 41.8416 110.812 41.5052 111.2 40.8324C111.591 40.1596 111.786 39.1868 111.786 37.9141C111.786 37.0689 111.697 36.3546 111.518 35.7713C111.342 35.1847 111.089 34.7405 110.757 34.4389C110.429 34.134 110.038 33.9815 109.584 33.9815C108.898 33.9815 108.359 34.3196 107.968 34.9957C107.577 35.6719 107.38 36.6446 107.377 37.9141C107.377 38.7625 107.464 39.4801 107.64 40.0668C107.819 40.6501 108.073 41.0926 108.401 41.3942C108.729 41.6925 109.123 41.8416 109.584 41.8416Z" fill="#E4E4E4"/>
<rect x="359" y="21" width="33" height="33" rx="8" fill="url(#paint0_linear_413_7823)"/>
<g clip-path="url(#clip0_413_7823)">
<path d="M384.823 41.8919C381.916 38.7 379.703 34.9375 378.324 30.8512C378.231 30.5788 377.974 30.3938 377.686 30.3938C376.564 30.219 375.447 30.219 374.326 30.3938C374.037 30.3938 373.78 30.5788 373.688 30.8512C372.303 34.9375 370.091 38.7 367.178 41.8919C367.013 42.0718 366.957 42.3288 367.034 42.555C367.384 43.6036 367.914 44.5699 368.588 45.418C368.748 45.6184 369.01 45.7161 369.262 45.6596C373.698 44.6778 378.303 44.6778 382.739 45.6596C382.991 45.7161 383.254 45.6184 383.413 45.418C384.087 44.5699 384.617 43.6036 384.967 42.555C385.044 42.3288 384.988 42.0718 384.823 41.8919ZM382.59 43.4082L379.868 41.8046C377.48 40.3962 374.516 40.3962 372.134 41.8046L369.411 43.4082L369.108 42.8942L371.969 41.2083C374.284 39.8411 375.705 37.3533 375.705 34.6702V31.9255H376.307V34.6702C376.307 37.3585 377.727 39.8411 380.043 41.2083L382.899 42.8942L382.59 43.4082Z" fill="white"/>
</g>
<path d="M113.532 328.411C113.68 328.497 113.753 328.54 113.858 328.562C113.938 328.579 114.056 328.579 114.137 328.562C114.241 328.54 114.315 328.497 114.463 328.411C115.761 327.653 119.331 325.273 119.331 322.001V319.467C119.331 318.751 119.331 318.393 119.22 318.139C119.108 317.881 118.996 317.744 118.766 317.581C118.54 317.422 118.096 317.329 117.209 317.145C116.231 316.941 115.48 316.574 114.794 316.043C114.464 315.788 114.3 315.661 114.171 315.626C114.035 315.589 113.96 315.589 113.824 315.626C113.695 315.661 113.53 315.788 113.201 316.043C112.515 316.574 111.764 316.941 110.786 317.145C109.898 317.329 109.455 317.422 109.228 317.581C108.998 317.744 108.887 317.881 108.774 318.139C108.664 318.393 108.664 318.751 108.664 319.467V322.001C108.664 325.273 112.233 327.653 113.532 328.411Z" stroke="#EEEEEE" stroke-width="1.33333" stroke-linecap="round" stroke-linejoin="round"/>
<rect opacity="0.5" x="129" y="318" width="51" height="8" rx="4" fill="#EEEEEE"/>
<rect opacity="0.5" x="190" y="318" width="131" height="8" rx="4" fill="#EEEEEE"/>
<path d="M34 101L392 101" stroke="#EEEEEE"/>
<rect opacity="0.05" x="52" y="79" width="131" height="10" rx="5" fill="#1D2026" fill-opacity="0.75"/>
<rect opacity="0.05" x="193" y="79" width="51" height="10" rx="5" fill="#1D2026" fill-opacity="0.75"/>
<path d="M68.1214 139.273V126.545H68.9368V139.273H68.1214ZM70.6719 130.493C70.6188 130.022 70.4001 129.658 70.0156 129.399C69.6312 129.137 69.1473 129.006 68.5639 129.006C68.1463 129.006 67.785 129.073 67.4801 129.205C67.1752 129.335 66.9382 129.513 66.7692 129.742C66.6035 129.968 66.5206 130.224 66.5206 130.513C66.5206 130.755 66.5769 130.964 66.6896 131.139C66.8056 131.315 66.9564 131.462 67.142 131.582C67.331 131.698 67.5331 131.795 67.7486 131.875C67.964 131.951 68.1712 132.014 68.37 132.064L69.3643 132.322C69.6892 132.402 70.0223 132.51 70.3636 132.646C70.705 132.781 71.0215 132.96 71.3132 133.183C71.6049 133.405 71.8402 133.68 72.0192 134.008C72.2015 134.336 72.2926 134.729 72.2926 135.186C72.2926 135.763 72.1435 136.275 71.8452 136.722C71.5502 137.17 71.121 137.523 70.5575 137.781C69.9974 138.04 69.3196 138.169 68.5241 138.169C67.7618 138.169 67.1023 138.048 66.5455 137.806C65.9886 137.564 65.5528 137.221 65.2379 136.777C64.9231 136.33 64.7491 135.799 64.7159 135.186H66.2571C66.2869 135.554 66.4063 135.861 66.6151 136.106C66.8272 136.348 67.0973 136.528 67.4254 136.648C67.7569 136.764 68.1198 136.822 68.5142 136.822C68.9484 136.822 69.3345 136.754 69.6726 136.618C70.014 136.479 70.2824 136.286 70.478 136.041C70.6735 135.793 70.7713 135.503 70.7713 135.171C70.7713 134.87 70.6851 134.623 70.5128 134.43C70.3438 134.238 70.1134 134.079 69.8217 133.953C69.5334 133.827 69.2069 133.716 68.8423 133.62L67.6392 133.292C66.8239 133.07 66.1776 132.743 65.7003 132.312C65.2263 131.882 64.9893 131.312 64.9893 130.602C64.9893 130.016 65.1484 129.504 65.4666 129.066C65.7848 128.629 66.2157 128.289 66.7592 128.047C67.3028 127.802 67.916 127.679 68.5987 127.679C69.2881 127.679 69.8963 127.8 70.4233 128.042C70.9536 128.284 71.3712 128.617 71.6761 129.041C71.9811 129.462 72.1402 129.946 72.1534 130.493H70.6719Z" fill="#EEEEEE"/>
<rect x="355" y="79" width="16" height="10" rx="5" fill="#12A250"/>
<rect x="52.5" y="116.5" width="318" height="32" rx="7.5" stroke="#EEEEEE"/>
<rect x="52.5" y="181.5" width="154" height="29" rx="7.5" stroke="#EEEEEE"/>
<rect x="52.5" y="218.5" width="154" height="29" rx="7.5" stroke="#EEEEEE"/>
<rect x="216.5" y="181.5" width="154" height="29" rx="7.5" stroke="#EEEEEE"/>
<rect x="216.5" y="218.5" width="154" height="29" rx="7.5" stroke="#EEEEEE"/>
<path d="M83 117V148.5" stroke="#EEEEEE"/>
<rect opacity="0.05" x="92" y="128" width="20" height="10" rx="5" fill="#1D2026" fill-opacity="0.75"/>
<rect opacity="0.05" x="86" y="191" width="84" height="10" rx="5" fill="#1D2026" fill-opacity="0.75"/>
<rect opacity="0.05" x="247" y="228" width="84" height="10" rx="5" fill="#1D2026" fill-opacity="0.75"/>
<rect opacity="0.05" x="244" y="191" width="55" height="10" rx="5" fill="#1D2026" fill-opacity="0.75"/>
<rect opacity="0.05" x="303" y="191" width="28" height="10" rx="5" fill="#1D2026" fill-opacity="0.75"/>
<rect opacity="0.05" x="86" y="228" width="55" height="10" rx="5" fill="#1D2026" fill-opacity="0.75"/>
<rect opacity="0.05" x="145" y="228" width="28" height="10" rx="5" fill="#1D2026" fill-opacity="0.75"/>
<rect opacity="0.05" x="52" y="161" width="131" height="10" rx="5" fill="#1D2026" fill-opacity="0.75"/>
<rect opacity="0.05" x="193" y="161" width="51" height="10" rx="5" fill="#1D2026" fill-opacity="0.75"/>
<rect x="62" y="187" width="17" height="17" rx="8.5" fill="#EA7635"/>
<rect x="223" y="187" width="17" height="17" rx="8.5" fill="#D766FF"/>
<rect x="62" y="224" width="17" height="17" rx="8.5" fill="#FFC125"/>
<rect x="223" y="224" width="17" height="17" rx="8.5" fill="#00C1D1"/>
<g filter="url(#filter0_di_413_7823)">
<rect x="52" y="259" width="319" height="34" rx="8" fill="#12A250" shape-rendering="crispEdges"/>
<rect x="52" y="259" width="319" height="34" rx="8" fill="url(#paint1_linear_413_7823)" fill-opacity="0.2" shape-rendering="crispEdges"/>
<rect x="52.5" y="259.5" width="318" height="33" rx="7.5" stroke="white" shape-rendering="crispEdges"/>
<path d="M177.696 280H176.298L179.439 271.273H180.96L184.101 280H182.703L180.236 272.858H180.168L177.696 280ZM177.93 276.582H182.464V277.69H177.93V276.582ZM187.484 280.128C186.955 280.128 186.484 279.993 186.069 279.723C185.657 279.45 185.333 279.062 185.097 278.56C184.864 278.054 184.748 277.447 184.748 276.74C184.748 276.033 184.866 275.428 185.102 274.925C185.34 274.422 185.667 274.037 186.082 273.77C186.496 273.503 186.967 273.369 187.492 273.369C187.898 273.369 188.225 273.438 188.472 273.574C188.722 273.707 188.916 273.864 189.052 274.043C189.191 274.222 189.299 274.379 189.376 274.516H189.452V271.273H190.727V280H189.482V278.982H189.376C189.299 279.121 189.188 279.28 189.043 279.459C188.901 279.638 188.705 279.794 188.455 279.928C188.205 280.061 187.881 280.128 187.484 280.128ZM187.765 279.041C188.131 279.041 188.441 278.945 188.694 278.751C188.95 278.555 189.143 278.284 189.273 277.938C189.407 277.591 189.474 277.187 189.474 276.727C189.474 276.273 189.408 275.875 189.278 275.534C189.147 275.193 188.955 274.928 188.702 274.737C188.45 274.547 188.137 274.452 187.765 274.452C187.381 274.452 187.062 274.551 186.806 274.75C186.55 274.949 186.357 275.22 186.227 275.564C186.099 275.908 186.035 276.295 186.035 276.727C186.035 277.165 186.1 277.558 186.231 277.908C186.362 278.257 186.555 278.534 186.81 278.739C187.069 278.94 187.387 279.041 187.765 279.041ZM194.875 280.128C194.347 280.128 193.875 279.993 193.461 279.723C193.049 279.45 192.725 279.062 192.489 278.56C192.256 278.054 192.14 277.447 192.14 276.74C192.14 276.033 192.258 275.428 192.493 274.925C192.732 274.422 193.059 274.037 193.473 273.77C193.888 273.503 194.358 273.369 194.884 273.369C195.29 273.369 195.617 273.438 195.864 273.574C196.114 273.707 196.307 273.864 196.444 274.043C196.583 274.222 196.691 274.379 196.767 274.516H196.844V271.273H198.118V280H196.874V278.982H196.767C196.691 279.121 196.58 279.28 196.435 279.459C196.293 279.638 196.097 279.794 195.847 279.928C195.597 280.061 195.273 280.128 194.875 280.128ZM195.157 279.041C195.523 279.041 195.833 278.945 196.086 278.751C196.341 278.555 196.535 278.284 196.665 277.938C196.799 277.591 196.865 277.187 196.865 276.727C196.865 276.273 196.8 275.875 196.669 275.534C196.539 275.193 196.347 274.928 196.094 274.737C195.841 274.547 195.529 274.452 195.157 274.452C194.773 274.452 194.454 274.551 194.198 274.75C193.942 274.949 193.749 275.22 193.618 275.564C193.49 275.908 193.427 276.295 193.427 276.727C193.427 277.165 193.492 277.558 193.623 277.908C193.753 278.257 193.946 278.534 194.202 278.739C194.461 278.94 194.779 279.041 195.157 279.041ZM202.975 280V271.273H206.171C206.79 271.273 207.303 271.375 207.709 271.58C208.116 271.781 208.42 272.055 208.621 272.402C208.823 272.746 208.924 273.134 208.924 273.565C208.924 273.929 208.857 274.236 208.723 274.486C208.59 274.733 208.411 274.932 208.187 275.082C207.965 275.23 207.721 275.338 207.454 275.406V275.491C207.743 275.506 208.026 275.599 208.302 275.773C208.58 275.943 208.81 276.186 208.992 276.501C209.174 276.817 209.265 277.2 209.265 277.652C209.265 278.098 209.16 278.499 208.949 278.854C208.742 279.206 208.421 279.486 207.986 279.693C207.552 279.898 206.996 280 206.32 280H202.975ZM204.292 278.871H206.192C206.823 278.871 207.275 278.749 207.547 278.504C207.82 278.26 207.956 277.955 207.956 277.588C207.956 277.312 207.887 277.06 207.748 276.83C207.608 276.599 207.41 276.416 207.151 276.28C206.895 276.143 206.591 276.075 206.239 276.075H204.292V278.871ZM204.292 275.048H206.056C206.351 275.048 206.617 274.991 206.853 274.878C207.091 274.764 207.28 274.605 207.42 274.401C207.562 274.193 207.633 273.949 207.633 273.668C207.633 273.307 207.506 273.004 207.253 272.76C207 272.516 206.613 272.393 206.09 272.393H204.292V275.048ZM212.509 280.145C212.094 280.145 211.719 280.068 211.384 279.915C211.049 279.759 210.783 279.533 210.587 279.237C210.394 278.942 210.297 278.58 210.297 278.151C210.297 277.781 210.368 277.477 210.51 277.239C210.652 277 210.844 276.811 211.086 276.672C211.327 276.533 211.597 276.428 211.895 276.357C212.194 276.286 212.498 276.232 212.807 276.195C213.199 276.149 213.518 276.112 213.762 276.084C214.006 276.053 214.184 276.003 214.295 275.935C214.405 275.866 214.461 275.756 214.461 275.602V275.572C214.461 275.2 214.356 274.912 214.145 274.707C213.938 274.503 213.628 274.401 213.216 274.401C212.787 274.401 212.449 274.496 212.202 274.686C211.958 274.874 211.789 275.082 211.695 275.312L210.498 275.04C210.64 274.642 210.847 274.321 211.12 274.077C211.395 273.83 211.712 273.651 212.07 273.54C212.428 273.426 212.804 273.369 213.199 273.369C213.461 273.369 213.738 273.401 214.03 273.463C214.326 273.523 214.601 273.634 214.857 273.795C215.116 273.957 215.327 274.189 215.492 274.49C215.657 274.788 215.739 275.176 215.739 275.653V280H214.495V279.105H214.444C214.361 279.27 214.238 279.432 214.073 279.591C213.908 279.75 213.697 279.882 213.438 279.987C213.179 280.092 212.87 280.145 212.509 280.145ZM212.786 279.122C213.138 279.122 213.439 279.053 213.689 278.913C213.942 278.774 214.134 278.592 214.265 278.368C214.398 278.141 214.465 277.898 214.465 277.639V276.795C214.42 276.841 214.331 276.884 214.201 276.923C214.073 276.96 213.927 276.993 213.762 277.021C213.597 277.047 213.437 277.071 213.28 277.094C213.124 277.114 212.993 277.131 212.888 277.145C212.641 277.176 212.415 277.229 212.211 277.303C212.009 277.376 211.847 277.483 211.725 277.622C211.606 277.759 211.546 277.94 211.546 278.168C211.546 278.483 211.662 278.722 211.895 278.884C212.128 279.043 212.425 279.122 212.786 279.122ZM218.59 271.273V280H217.316V271.273H218.59ZM222.089 280.145C221.675 280.145 221.3 280.068 220.964 279.915C220.629 279.759 220.363 279.533 220.167 279.237C219.974 278.942 219.878 278.58 219.878 278.151C219.878 277.781 219.949 277.477 220.091 277.239C220.233 277 220.425 276.811 220.666 276.672C220.908 276.533 221.177 276.428 221.476 276.357C221.774 276.286 222.078 276.232 222.388 276.195C222.78 276.149 223.098 276.112 223.342 276.084C223.586 276.053 223.764 276.003 223.875 275.935C223.986 275.866 224.041 275.756 224.041 275.602V275.572C224.041 275.2 223.936 274.912 223.726 274.707C223.518 274.503 223.209 274.401 222.797 274.401C222.368 274.401 222.03 274.496 221.783 274.686C221.538 274.874 221.369 275.082 221.275 275.312L220.078 275.04C220.22 274.642 220.427 274.321 220.7 274.077C220.976 273.83 221.292 273.651 221.65 273.54C222.008 273.426 222.385 273.369 222.78 273.369C223.041 273.369 223.318 273.401 223.611 273.463C223.906 273.523 224.182 273.634 224.437 273.795C224.696 273.957 224.908 274.189 225.072 274.49C225.237 274.788 225.319 275.176 225.319 275.653V280H224.075V279.105H224.024C223.942 279.27 223.818 279.432 223.653 279.591C223.488 279.75 223.277 279.882 223.018 279.987C222.76 280.092 222.45 280.145 222.089 280.145ZM222.366 279.122C222.719 279.122 223.02 279.053 223.27 278.913C223.523 278.774 223.714 278.592 223.845 278.368C223.979 278.141 224.045 277.898 224.045 277.639V276.795C224 276.841 223.912 276.884 223.781 276.923C223.653 276.96 223.507 276.993 223.342 277.021C223.177 277.047 223.017 277.071 222.861 277.094C222.704 277.114 222.574 277.131 222.469 277.145C222.221 277.176 221.996 277.229 221.791 277.303C221.589 277.376 221.427 277.483 221.305 277.622C221.186 277.759 221.126 277.94 221.126 278.168C221.126 278.483 221.243 278.722 221.476 278.884C221.709 279.043 222.006 279.122 222.366 279.122ZM228.171 276.114V280H226.897V273.455H228.12V274.52H228.201C228.351 274.173 228.587 273.895 228.908 273.685C229.232 273.474 229.639 273.369 230.131 273.369C230.577 273.369 230.968 273.463 231.303 273.651C231.638 273.835 231.898 274.111 232.083 274.477C232.267 274.844 232.36 275.297 232.36 275.837V280H231.085V275.99C231.085 275.516 230.962 275.145 230.715 274.878C230.468 274.608 230.128 274.473 229.696 274.473C229.401 274.473 229.138 274.537 228.908 274.665C228.681 274.793 228.5 274.98 228.367 275.227C228.236 275.472 228.171 275.767 228.171 276.114ZM236.706 280.132C236.072 280.132 235.527 279.989 235.069 279.702C234.615 279.412 234.265 279.013 234.021 278.504C233.777 277.996 233.654 277.413 233.654 276.757C233.654 276.092 233.779 275.506 234.029 274.997C234.279 274.486 234.632 274.087 235.086 273.8C235.541 273.513 236.076 273.369 236.693 273.369C237.19 273.369 237.633 273.462 238.022 273.646C238.411 273.828 238.725 274.084 238.964 274.413C239.206 274.743 239.349 275.128 239.394 275.568H238.154C238.086 275.261 237.93 274.997 237.686 274.776C237.444 274.554 237.12 274.443 236.714 274.443C236.359 274.443 236.048 274.537 235.781 274.724C235.517 274.909 235.311 275.173 235.163 275.517C235.015 275.858 234.941 276.261 234.941 276.727C234.941 277.205 235.014 277.616 235.159 277.963C235.304 278.31 235.508 278.578 235.772 278.768C236.039 278.959 236.353 279.054 236.714 279.054C236.956 279.054 237.174 279.01 237.37 278.922C237.569 278.831 237.735 278.702 237.869 278.534C238.005 278.366 238.1 278.165 238.154 277.929H239.394C239.349 278.352 239.211 278.73 238.981 279.062C238.751 279.395 238.443 279.656 238.056 279.847C237.673 280.037 237.223 280.132 236.706 280.132ZM243.458 280.132C242.813 280.132 242.258 279.994 241.792 279.719C241.329 279.44 240.971 279.05 240.718 278.547C240.468 278.041 240.343 277.449 240.343 276.77C240.343 276.099 240.468 275.509 240.718 274.997C240.971 274.486 241.323 274.087 241.775 273.8C242.229 273.513 242.761 273.369 243.369 273.369C243.738 273.369 244.096 273.43 244.442 273.553C244.789 273.675 245.1 273.866 245.376 274.128C245.651 274.389 245.869 274.729 246.028 275.146C246.187 275.561 246.266 276.065 246.266 276.659V277.111H241.063V276.156H245.018C245.018 275.821 244.95 275.524 244.813 275.266C244.677 275.004 244.485 274.798 244.238 274.648C243.994 274.497 243.707 274.422 243.377 274.422C243.019 274.422 242.707 274.51 242.44 274.686C242.175 274.859 241.971 275.087 241.826 275.368C241.684 275.646 241.613 275.949 241.613 276.276V277.021C241.613 277.459 241.69 277.831 241.843 278.138C241.999 278.445 242.217 278.679 242.495 278.841C242.773 279 243.099 279.08 243.471 279.08C243.712 279.08 243.932 279.045 244.131 278.977C244.33 278.906 244.502 278.801 244.647 278.662C244.792 278.523 244.903 278.351 244.979 278.146L246.185 278.364C246.089 278.719 245.915 279.03 245.665 279.297C245.418 279.561 245.107 279.767 244.732 279.915C244.36 280.06 243.935 280.132 243.458 280.132Z" fill="white"/>
</g>
<defs>
<filter id="filter0_di_413_7823" x="44" y="251" width="335" height="50" filterUnits="userSpaceOnUse" color-interpolation-filters="sRGB">
<feFlood flood-opacity="0" result="BackgroundImageFix"/>
<feColorMatrix in="SourceAlpha" type="matrix" values="0 0 0 0 0 0 0 0 0 0 0 0 0 0 0 0 0 0 127 0" result="hardAlpha"/>
<feOffset/>
<feGaussianBlur stdDeviation="4"/>
<feComposite in2="hardAlpha" operator="out"/>
<feColorMatrix type="matrix" values="0 0 0 0 0 0 0 0 0 0 0 0 0 0 0 0 0 0 0.02 0"/>
<feBlend mode="normal" in2="BackgroundImageFix" result="effect1_dropShadow_413_7823"/>
<feBlend mode="normal" in="SourceGraphic" in2="effect1_dropShadow_413_7823" result="shape"/>
<feColorMatrix in="SourceAlpha" type="matrix" values="0 0 0 0 0 0 0 0 0 0 0 0 0 0 0 0 0 0 127 0" result="hardAlpha"/>
<feOffset dy="-4"/>
<feGaussianBlur stdDeviation="2"/>
<feComposite in2="hardAlpha" operator="arithmetic" k2="-1" k3="1"/>
<feColorMatrix type="matrix" values="0 0 0 0 1 0 0 0 0 1 0 0 0 0 1 0 0 0 0.25 0"/>
<feBlend mode="normal" in2="shape" result="effect2_innerShadow_413_7823"/>
</filter>
<linearGradient id="paint0_linear_413_7823" x1="375.5" y1="21" x2="375.5" y2="54" gradientUnits="userSpaceOnUse">
<stop stop-color="#FD965C"/>
<stop offset="1" stop-color="#EA7635"/>
</linearGradient>
<linearGradient id="paint1_linear_413_7823" x1="211.5" y1="259" x2="211.5" y2="293" gradientUnits="userSpaceOnUse">
<stop stop-color="white" stop-opacity="0"/>
<stop offset="1" stop-color="white"/>
</linearGradient>
<clipPath id="clip0_413_7823">
<rect width="18" height="18" fill="white" transform="translate(367 29)"/>
</clipPath>
</defs>
</svg>
