<svg width="427" height="350" viewBox="0 0 427 350" fill="none" xmlns="http://www.w3.org/2000/svg">
<rect width="426.5" height="350" fill="#FAFAFA"/>
<g filter="url(#filter0_d_413_7870)">
<rect x="79" y="168" width="8" height="8" rx="4" fill="#12A250"/>
</g>
<rect x="27" y="95" width="44" height="44" rx="8" fill="url(#paint0_linear_413_7870)"/>
<path d="M40.5118 107.39L42.1859 103.31H55.0556C56.8344 103.554 60.3919 105.13 60.3919 109.483C60.3919 113.447 57.5565 115.224 55.7595 115.747C55.4341 115.842 55.0944 115.865 54.7556 115.865H45.9526L47.836 111.576H54.3526C54.5412 111.576 54.7304 111.551 54.9016 111.472C55.4876 111.203 56.3112 110.561 56.3112 109.483C56.3112 108.404 55.4876 107.763 54.9016 107.493C54.7304 107.414 54.5412 107.39 54.3526 107.39H40.5118Z" fill="white"/>
<path d="M47.437 108.608H42.8332L37.6016 121.164H46.4953L42.6239 131L56.54 116.979H43.9841L47.437 108.608Z" fill="white"/>
<rect x="79.5" y="95.5" width="283" height="65" rx="9.5" fill="white"/>
<rect x="79.5" y="95.5" width="283" height="65" rx="9.5" stroke="#EEEEEE"/>
<rect opacity="0.4" x="91" y="107" width="62" height="7" rx="3.5" fill="#DEDEDE"/>
<rect opacity="0.05" x="91" y="124" width="131" height="10" rx="5" fill="#1D2026" fill-opacity="0.75"/>
<rect opacity="0.05" x="232" y="124" width="51" height="10" rx="5" fill="#1D2026" fill-opacity="0.75"/>
<rect opacity="0.05" x="293" y="124" width="58" height="10" rx="5" fill="#1D2026" fill-opacity="0.75"/>
<rect opacity="0.05" width="131" height="10" rx="5" transform="matrix(-1 0 0 1 351 139)" fill="#1D2026" fill-opacity="0.75"/>
<rect opacity="0.05" width="51" height="10" rx="5" transform="matrix(-1 0 0 1 210 139)" fill="#1D2026" fill-opacity="0.75"/>
<rect opacity="0.05" width="58" height="10" rx="5" transform="matrix(-1 0 0 1 149 139)" fill="#1D2026" fill-opacity="0.75"/>
<rect opacity="0.4" x="92" y="168" width="50" height="7" rx="3.5" fill="#DEDEDE"/>
<rect opacity="0.4" x="338" y="168" width="25" height="7" rx="3.5" fill="#DEDEDE"/>
<rect opacity="0.4" x="302" y="168" width="25" height="7" rx="3.5" fill="#DEDEDE"/>
<rect x="331" y="170" width="3" height="3" rx="1.5" fill="#DEDEDE"/>
<rect width="44" height="44" rx="8" transform="matrix(-1 0 0 1 401 204)" fill="url(#paint1_linear_413_7870)"/>
<g clip-path="url(#clip0_413_7870)">
<path d="M389.776 230.756C386.222 226.855 383.518 222.257 381.833 217.262C381.719 216.929 381.405 216.703 381.053 216.703C379.682 216.49 378.317 216.49 376.946 216.703C376.594 216.703 376.279 216.929 376.166 217.262C374.474 222.257 371.77 226.855 368.21 230.756C368.009 230.976 367.939 231.29 368.034 231.567C368.461 232.848 369.109 234.03 369.933 235.066C370.128 235.311 370.449 235.43 370.757 235.361C376.178 234.161 381.807 234.161 387.229 235.361C387.537 235.43 387.858 235.311 388.053 235.066C388.877 234.03 389.524 232.848 389.952 231.567C390.046 231.29 389.977 230.976 389.776 230.756ZM387.046 232.61L383.719 230.65C380.801 228.928 377.178 228.928 374.267 230.65L370.939 232.61L370.568 231.982L374.065 229.921C376.895 228.25 378.631 225.209 378.631 221.93V218.575H379.367V221.93C379.367 225.216 381.103 228.25 383.933 229.921L387.424 231.982L387.046 232.61Z" fill="white"/>
</g>
<rect x="-0.5" y="0.5" width="283" height="50" rx="9.5" transform="matrix(-1 0 0 1 348 204)" fill="white"/>
<rect x="-0.5" y="0.5" width="283" height="50" rx="9.5" transform="matrix(-1 0 0 1 348 204)" stroke="#EEEEEE"/>
<rect opacity="0.4" width="62" height="7" rx="3.5" transform="matrix(-1 0 0 1 337 216)" fill="#DEDEDE"/>
<rect opacity="0.05" width="131" height="10" rx="5" transform="matrix(-1 0 0 1 337 233)" fill="#1D2026" fill-opacity="0.75"/>
<rect opacity="0.05" width="51" height="10" rx="5" transform="matrix(-1 0 0 1 196 233)" fill="#1D2026" fill-opacity="0.75"/>
<rect opacity="0.05" width="58" height="10" rx="5" transform="matrix(-1 0 0 1 135 233)" fill="#1D2026" fill-opacity="0.75"/>
<rect opacity="0.05" x="27" y="23" width="131" height="10" rx="5" fill="#1D2026" fill-opacity="0.75"/>
<rect opacity="0.05" x="168" y="23" width="51" height="10" rx="5" fill="#1D2026" fill-opacity="0.75"/>
<rect x="385" y="23" width="16" height="10" rx="5" fill="#EA3535"/>
<rect opacity="0.05" x="118" y="65" width="131" height="10" rx="5" fill="#1D2026" fill-opacity="0.75"/>
<rect opacity="0.05" x="259" y="65" width="51" height="10" rx="5" fill="#1D2026" fill-opacity="0.75"/>
<path d="M27 48L401 48" stroke="#EEEEEE"/>
<g filter="url(#filter1_d_413_7870)">
<rect x="38" y="286" width="350" height="40" rx="8" fill="white" shape-rendering="crispEdges"/>
<rect x="38.5" y="286.5" width="349" height="39" rx="7.5" stroke="#EEEEEE" shape-rendering="crispEdges"/>
<path d="M146.576 300.818H148.107V308.037C148.107 308.69 147.978 309.248 147.719 309.712C147.464 310.176 147.105 310.531 146.641 310.776C146.177 311.018 145.633 311.139 145.01 311.139C144.437 311.139 143.921 311.035 143.464 310.826C143.01 310.617 142.65 310.314 142.385 309.916C142.123 309.515 141.992 309.028 141.992 308.455H143.518C143.518 308.736 143.583 308.98 143.712 309.185C143.845 309.391 144.026 309.552 144.254 309.668C144.486 309.78 144.751 309.837 145.05 309.837C145.375 309.837 145.65 309.769 145.875 309.633C146.104 309.494 146.278 309.29 146.397 309.021C146.516 308.753 146.576 308.425 146.576 308.037V300.818ZM153.301 311.154C152.585 311.154 151.96 310.99 151.426 310.662C150.893 310.334 150.478 309.875 150.183 309.285C149.888 308.695 149.741 308.005 149.741 307.217C149.741 306.424 149.888 305.732 150.183 305.138C150.478 304.545 150.893 304.085 151.426 303.756C151.96 303.428 152.585 303.264 153.301 303.264C154.016 303.264 154.641 303.428 155.175 303.756C155.708 304.085 156.123 304.545 156.418 305.138C156.713 305.732 156.86 306.424 156.86 307.217C156.86 308.005 156.713 308.695 156.418 309.285C156.123 309.875 155.708 310.334 155.175 310.662C154.641 310.99 154.016 311.154 153.301 311.154ZM153.305 309.906C153.77 309.906 154.154 309.784 154.459 309.538C154.764 309.293 154.989 308.967 155.135 308.559C155.284 308.151 155.359 307.702 155.359 307.212C155.359 306.724 155.284 306.277 155.135 305.869C154.989 305.458 154.764 305.129 154.459 304.88C154.154 304.631 153.77 304.507 153.305 304.507C152.838 304.507 152.45 304.631 152.142 304.88C151.837 305.129 151.61 305.458 151.461 305.869C151.315 306.277 151.242 306.724 151.242 307.212C151.242 307.702 151.315 308.151 151.461 308.559C151.61 308.967 151.837 309.293 152.142 309.538C152.45 309.784 152.838 309.906 153.305 309.906ZM158.379 311V303.364H159.866V311H158.379ZM159.13 302.185C158.872 302.185 158.65 302.099 158.464 301.927C158.282 301.751 158.191 301.542 158.191 301.3C158.191 301.055 158.282 300.846 158.464 300.674C158.65 300.498 158.872 300.411 159.13 300.411C159.389 300.411 159.609 300.498 159.791 300.674C159.977 300.846 160.07 301.055 160.07 301.3C160.07 301.542 159.977 301.751 159.791 301.927C159.609 302.099 159.389 302.185 159.13 302.185ZM163.212 306.466V311H161.726V303.364H163.153V304.607H163.247C163.423 304.202 163.698 303.877 164.072 303.632C164.45 303.387 164.926 303.264 165.499 303.264C166.02 303.264 166.475 303.374 166.866 303.592C167.257 303.808 167.561 304.129 167.776 304.557C167.992 304.984 168.099 305.513 168.099 306.143V311H166.613V306.322C166.613 305.768 166.469 305.336 166.18 305.024C165.892 304.709 165.496 304.552 164.992 304.552C164.647 304.552 164.341 304.626 164.072 304.776C163.807 304.925 163.597 305.143 163.441 305.432C163.289 305.717 163.212 306.062 163.212 306.466ZM173.637 311V300.818H177.267C178.055 300.818 178.71 300.954 179.23 301.226C179.754 301.498 180.145 301.874 180.404 302.354C180.662 302.832 180.791 303.384 180.791 304.01C180.791 304.633 180.661 305.182 180.399 305.656C180.14 306.126 179.749 306.492 179.225 306.754C178.705 307.016 178.05 307.147 177.262 307.147H174.512V305.825H177.122C177.62 305.825 178.024 305.753 178.336 305.611C178.65 305.468 178.881 305.261 179.027 304.989C179.172 304.718 179.245 304.391 179.245 304.01C179.245 303.625 179.171 303.292 179.022 303.011C178.876 302.729 178.645 302.513 178.331 302.364C178.019 302.212 177.61 302.136 177.103 302.136H175.174V311H173.637ZM178.664 306.406L181.179 311H179.429L176.963 306.406H178.664ZM185.597 311.154C184.845 311.154 184.197 310.993 183.653 310.672C183.113 310.347 182.695 309.891 182.4 309.305C182.109 308.715 181.963 308.024 181.963 307.232C181.963 306.449 182.109 305.76 182.4 305.163C182.695 304.567 183.106 304.101 183.633 303.766C184.163 303.432 184.783 303.264 185.493 303.264C185.923 303.264 186.341 303.335 186.745 303.478C187.15 303.621 187.513 303.844 187.834 304.149C188.156 304.454 188.409 304.85 188.595 305.337C188.78 305.821 188.873 306.41 188.873 307.102V307.629H182.803V306.516H187.417C187.417 306.125 187.337 305.778 187.178 305.477C187.019 305.172 186.795 304.931 186.507 304.756C186.222 304.58 185.887 304.492 185.503 304.492C185.085 304.492 184.72 304.595 184.409 304.8C184.101 305.003 183.862 305.268 183.693 305.596C183.527 305.921 183.444 306.274 183.444 306.655V307.525C183.444 308.035 183.534 308.469 183.713 308.827C183.895 309.185 184.149 309.459 184.473 309.648C184.798 309.833 185.178 309.926 185.612 309.926C185.894 309.926 186.15 309.886 186.382 309.807C186.614 309.724 186.815 309.601 186.984 309.439C187.153 309.277 187.282 309.076 187.372 308.837L188.779 309.091C188.666 309.505 188.464 309.868 188.172 310.18C187.884 310.488 187.521 310.728 187.083 310.901C186.649 311.07 186.154 311.154 185.597 311.154ZM196.105 305.228L194.758 305.467C194.701 305.294 194.612 305.13 194.489 304.974C194.37 304.819 194.207 304.691 194.002 304.592C193.796 304.492 193.54 304.442 193.231 304.442C192.81 304.442 192.459 304.537 192.177 304.726C191.896 304.911 191.755 305.152 191.755 305.447C191.755 305.702 191.849 305.907 192.038 306.063C192.227 306.219 192.532 306.347 192.953 306.446L194.166 306.724C194.869 306.887 195.392 307.137 195.737 307.475C196.082 307.813 196.254 308.252 196.254 308.793C196.254 309.25 196.121 309.658 195.856 310.016C195.594 310.37 195.228 310.649 194.758 310.851C194.29 311.053 193.748 311.154 193.132 311.154C192.277 311.154 191.579 310.972 191.039 310.607C190.499 310.239 190.167 309.717 190.045 309.041L191.481 308.822C191.571 309.197 191.755 309.48 192.033 309.673C192.312 309.862 192.674 309.956 193.122 309.956C193.609 309.956 193.999 309.855 194.29 309.653C194.582 309.447 194.728 309.197 194.728 308.902C194.728 308.663 194.638 308.463 194.459 308.3C194.284 308.138 194.013 308.015 193.649 307.933L192.356 307.649C191.644 307.487 191.117 307.228 190.775 306.874C190.437 306.519 190.268 306.07 190.268 305.526C190.268 305.076 190.394 304.681 190.646 304.343C190.898 304.005 191.246 303.741 191.69 303.553C192.134 303.36 192.643 303.264 193.216 303.264C194.042 303.264 194.691 303.443 195.165 303.801C195.639 304.156 195.952 304.631 196.105 305.228ZM201.04 311.154C200.287 311.154 199.639 310.993 199.096 310.672C198.555 310.347 198.138 309.891 197.843 309.305C197.551 308.715 197.405 308.024 197.405 307.232C197.405 306.449 197.551 305.76 197.843 305.163C198.138 304.567 198.549 304.101 199.076 303.766C199.606 303.432 200.226 303.264 200.935 303.264C201.366 303.264 201.784 303.335 202.188 303.478C202.592 303.621 202.955 303.844 203.277 304.149C203.598 304.454 203.852 304.85 204.037 305.337C204.223 305.821 204.316 306.41 204.316 307.102V307.629H198.246V306.516H202.859C202.859 306.125 202.78 305.778 202.621 305.477C202.461 305.172 202.238 304.931 201.949 304.756C201.664 304.58 201.33 304.492 200.945 304.492C200.528 304.492 200.163 304.595 199.851 304.8C199.543 305.003 199.305 305.268 199.136 305.596C198.97 305.921 198.887 306.274 198.887 306.655V307.525C198.887 308.035 198.976 308.469 199.155 308.827C199.338 309.185 199.591 309.459 199.916 309.648C200.241 309.833 200.62 309.926 201.055 309.926C201.336 309.926 201.593 309.886 201.825 309.807C202.057 309.724 202.258 309.601 202.427 309.439C202.596 309.277 202.725 309.076 202.814 308.837L204.221 309.091C204.109 309.505 203.907 309.868 203.615 310.18C203.327 310.488 202.964 310.728 202.526 310.901C202.092 311.07 201.596 311.154 201.04 311.154ZM207.312 300.818V311H205.825V300.818H207.312ZM210.658 300.818V311H209.172V300.818H210.658ZM215.809 311.154C215.057 311.154 214.409 310.993 213.865 310.672C213.325 310.347 212.907 309.891 212.612 309.305C212.321 308.715 212.175 308.024 212.175 307.232C212.175 306.449 212.321 305.76 212.612 305.163C212.907 304.567 213.318 304.101 213.845 303.766C214.376 303.432 214.995 303.264 215.705 303.264C216.136 303.264 216.553 303.335 216.958 303.478C217.362 303.621 217.725 303.844 218.046 304.149C218.368 304.454 218.621 304.85 218.807 305.337C218.993 305.821 219.085 306.41 219.085 307.102V307.629H213.015V306.516H217.629C217.629 306.125 217.549 305.778 217.39 305.477C217.231 305.172 217.007 304.931 216.719 304.756C216.434 304.58 216.099 304.492 215.715 304.492C215.297 304.492 214.932 304.595 214.621 304.8C214.313 305.003 214.074 305.268 213.905 305.596C213.739 305.921 213.656 306.274 213.656 306.655V307.525C213.656 308.035 213.746 308.469 213.925 308.827C214.107 309.185 214.361 309.459 214.685 309.648C215.01 309.833 215.39 309.926 215.824 309.926C216.106 309.926 216.363 309.886 216.595 309.807C216.827 309.724 217.027 309.601 217.196 309.439C217.365 309.277 217.494 309.076 217.584 308.837L218.991 309.091C218.878 309.505 218.676 309.868 218.384 310.18C218.096 310.488 217.733 310.728 217.296 310.901C216.861 311.07 216.366 311.154 215.809 311.154ZM220.595 311V303.364H222.031V304.577H222.111C222.25 304.166 222.495 303.843 222.847 303.607C223.201 303.369 223.602 303.249 224.05 303.249C224.143 303.249 224.252 303.253 224.378 303.259C224.507 303.266 224.608 303.274 224.681 303.284V304.706C224.622 304.689 224.516 304.671 224.363 304.651C224.211 304.628 224.058 304.616 223.906 304.616C223.554 304.616 223.241 304.691 222.966 304.84C222.694 304.986 222.479 305.19 222.32 305.452C222.161 305.71 222.081 306.005 222.081 306.337V311H220.595ZM229.512 311V300.818H233.141C233.934 300.818 234.59 300.962 235.11 301.251C235.63 301.539 236.02 301.933 236.278 302.434C236.537 302.931 236.666 303.491 236.666 304.114C236.666 304.741 236.535 305.304 236.273 305.805C236.015 306.302 235.624 306.696 235.1 306.988C234.58 307.276 233.925 307.42 233.136 307.42H230.641V306.118H232.997C233.498 306.118 233.904 306.032 234.215 305.859C234.527 305.684 234.755 305.445 234.901 305.143C235.047 304.842 235.12 304.499 235.12 304.114C235.12 303.73 235.047 303.388 234.901 303.09C234.755 302.792 234.525 302.558 234.21 302.389C233.899 302.22 233.488 302.136 232.977 302.136H231.048V311H229.512ZM238.208 311V303.364H239.645V304.577H239.724C239.863 304.166 240.109 303.843 240.46 303.607C240.815 303.369 241.216 303.249 241.663 303.249C241.756 303.249 241.865 303.253 241.991 303.259C242.121 303.266 242.222 303.274 242.295 303.284V304.706C242.235 304.689 242.129 304.671 241.976 304.651C241.824 304.628 241.671 304.616 241.519 304.616C241.168 304.616 240.854 304.691 240.579 304.84C240.308 304.986 240.092 305.19 239.933 305.452C239.774 305.71 239.694 306.005 239.694 306.337V311H238.208ZM246.384 311.154C245.668 311.154 245.043 310.99 244.51 310.662C243.976 310.334 243.562 309.875 243.267 309.285C242.972 308.695 242.824 308.005 242.824 307.217C242.824 306.424 242.972 305.732 243.267 305.138C243.562 304.545 243.976 304.085 244.51 303.756C245.043 303.428 245.668 303.264 246.384 303.264C247.1 303.264 247.725 303.428 248.258 303.756C248.792 304.085 249.206 304.545 249.501 305.138C249.796 305.732 249.944 306.424 249.944 307.217C249.944 308.005 249.796 308.695 249.501 309.285C249.206 309.875 248.792 310.334 248.258 310.662C247.725 310.99 247.1 311.154 246.384 311.154ZM246.389 309.906C246.853 309.906 247.238 309.784 247.542 309.538C247.847 309.293 248.073 308.967 248.219 308.559C248.368 308.151 248.442 307.702 248.442 307.212C248.442 306.724 248.368 306.277 248.219 305.869C248.073 305.458 247.847 305.129 247.542 304.88C247.238 304.631 246.853 304.507 246.389 304.507C245.922 304.507 245.534 304.631 245.226 304.88C244.921 305.129 244.694 305.458 244.545 305.869C244.399 306.277 244.326 306.724 244.326 307.212C244.326 307.702 244.399 308.151 244.545 308.559C244.694 308.967 244.921 309.293 245.226 309.538C245.534 309.784 245.922 309.906 246.389 309.906ZM254.665 314.023C254.058 314.023 253.536 313.943 253.099 313.784C252.665 313.625 252.31 313.415 252.035 313.153C251.76 312.891 251.554 312.604 251.418 312.293L252.696 311.766C252.785 311.911 252.905 312.066 253.054 312.228C253.206 312.394 253.412 312.535 253.67 312.651C253.932 312.767 254.269 312.825 254.68 312.825C255.243 312.825 255.709 312.687 256.077 312.412C256.445 312.14 256.629 311.706 256.629 311.109V309.608H256.534C256.445 309.77 256.315 309.951 256.146 310.15C255.981 310.349 255.752 310.521 255.46 310.667C255.169 310.813 254.789 310.886 254.322 310.886C253.718 310.886 253.175 310.745 252.691 310.463C252.21 310.178 251.829 309.759 251.548 309.205C251.269 308.648 251.13 307.964 251.13 307.152C251.13 306.34 251.267 305.644 251.543 305.064C251.821 304.484 252.202 304.04 252.686 303.732C253.17 303.42 253.718 303.264 254.332 303.264C254.806 303.264 255.188 303.344 255.48 303.503C255.772 303.659 255.999 303.841 256.161 304.05C256.327 304.259 256.455 304.442 256.544 304.602H256.653V303.364H258.11V311.169C258.11 311.825 257.958 312.364 257.653 312.785C257.348 313.206 256.935 313.517 256.415 313.719C255.898 313.922 255.314 314.023 254.665 314.023ZM254.65 309.653C255.077 309.653 255.439 309.553 255.734 309.354C256.032 309.152 256.257 308.864 256.41 308.489C256.566 308.112 256.643 307.659 256.643 307.132C256.643 306.618 256.567 306.166 256.415 305.775C256.262 305.384 256.039 305.079 255.744 304.86C255.449 304.638 255.084 304.527 254.65 304.527C254.202 304.527 253.83 304.643 253.531 304.875C253.233 305.104 253.008 305.415 252.855 305.81C252.706 306.204 252.631 306.645 252.631 307.132C252.631 307.633 252.708 308.072 252.86 308.45C253.013 308.827 253.238 309.122 253.536 309.335C253.838 309.547 254.209 309.653 254.65 309.653ZM259.964 311V303.364H261.4V304.577H261.48C261.619 304.166 261.864 303.843 262.216 303.607C262.57 303.369 262.971 303.249 263.419 303.249C263.512 303.249 263.621 303.253 263.747 303.259C263.876 303.266 263.977 303.274 264.05 303.284V304.706C263.991 304.689 263.885 304.671 263.732 304.651C263.58 304.628 263.427 304.616 263.275 304.616C262.923 304.616 262.61 304.691 262.335 304.84C262.063 304.986 261.848 305.19 261.689 305.452C261.53 305.71 261.45 306.005 261.45 306.337V311H259.964ZM267.351 311.169C266.867 311.169 266.429 311.08 266.038 310.901C265.647 310.718 265.337 310.455 265.108 310.11C264.883 309.765 264.77 309.343 264.77 308.842C264.77 308.411 264.853 308.057 265.019 307.778C265.185 307.5 265.408 307.28 265.69 307.117C265.972 306.955 266.287 306.832 266.635 306.749C266.983 306.666 267.337 306.603 267.699 306.56C268.156 306.507 268.527 306.464 268.812 306.431C269.097 306.395 269.304 306.337 269.434 306.257C269.563 306.178 269.628 306.048 269.628 305.869V305.835C269.628 305.4 269.505 305.064 269.26 304.825C269.018 304.587 268.657 304.467 268.176 304.467C267.675 304.467 267.281 304.578 266.993 304.8C266.708 305.019 266.51 305.263 266.401 305.531L265.004 305.213C265.17 304.749 265.412 304.375 265.73 304.089C266.051 303.801 266.421 303.592 266.839 303.463C267.256 303.33 267.695 303.264 268.156 303.264C268.461 303.264 268.784 303.301 269.126 303.374C269.47 303.443 269.792 303.572 270.09 303.761C270.392 303.95 270.639 304.22 270.831 304.572C271.023 304.92 271.119 305.372 271.119 305.929V311H269.667V309.956H269.608C269.512 310.148 269.367 310.337 269.175 310.523C268.983 310.708 268.736 310.862 268.434 310.985C268.133 311.108 267.772 311.169 267.351 311.169ZM267.674 309.976C268.085 309.976 268.436 309.895 268.728 309.732C269.023 309.57 269.246 309.358 269.399 309.096C269.555 308.831 269.633 308.547 269.633 308.246V307.261C269.58 307.314 269.477 307.364 269.324 307.411C269.175 307.454 269.005 307.492 268.812 307.525C268.62 307.555 268.433 307.583 268.251 307.609C268.068 307.633 267.916 307.652 267.793 307.669C267.505 307.705 267.241 307.767 267.003 307.853C266.767 307.939 266.578 308.063 266.436 308.226C266.297 308.385 266.227 308.597 266.227 308.862C266.227 309.23 266.363 309.509 266.635 309.697C266.907 309.883 267.253 309.976 267.674 309.976ZM272.959 311V303.364H274.386V304.607H274.48C274.639 304.186 274.9 303.857 275.261 303.622C275.622 303.384 276.055 303.264 276.558 303.264C277.069 303.264 277.496 303.384 277.841 303.622C278.189 303.861 278.446 304.189 278.612 304.607H278.691C278.874 304.199 279.164 303.874 279.561 303.632C279.959 303.387 280.433 303.264 280.983 303.264C281.676 303.264 282.241 303.481 282.679 303.915C283.119 304.35 283.34 305.004 283.34 305.879V311H281.853V306.018C281.853 305.501 281.712 305.127 281.431 304.895C281.149 304.663 280.813 304.547 280.421 304.547C279.938 304.547 279.561 304.696 279.293 304.994C279.024 305.289 278.89 305.669 278.89 306.133V311H277.409V305.924C277.409 305.51 277.279 305.177 277.021 304.925C276.762 304.673 276.426 304.547 276.012 304.547C275.73 304.547 275.47 304.621 275.231 304.771C274.996 304.916 274.805 305.12 274.659 305.382C274.517 305.644 274.446 305.947 274.446 306.292V311H272.959Z" fill="#1D2026"/>
</g>
<defs>
<filter id="filter0_d_413_7870" x="77.4" y="166.4" width="11.2" height="11.2" filterUnits="userSpaceOnUse" color-interpolation-filters="sRGB">
<feFlood flood-opacity="0" result="BackgroundImageFix"/>
<feColorMatrix in="SourceAlpha" type="matrix" values="0 0 0 0 0 0 0 0 0 0 0 0 0 0 0 0 0 0 127 0" result="hardAlpha"/>
<feMorphology radius="1.6" operator="dilate" in="SourceAlpha" result="effect1_dropShadow_413_7870"/>
<feOffset/>
<feComposite in2="hardAlpha" operator="out"/>
<feColorMatrix type="matrix" values="0 0 0 0 0.0705882 0 0 0 0 0.635294 0 0 0 0 0.313726 0 0 0 0.25 0"/>
<feBlend mode="normal" in2="BackgroundImageFix" result="effect1_dropShadow_413_7870"/>
<feBlend mode="normal" in="SourceGraphic" in2="effect1_dropShadow_413_7870" result="shape"/>
</filter>
<filter id="filter1_d_413_7870" x="30" y="278" width="366" height="56" filterUnits="userSpaceOnUse" color-interpolation-filters="sRGB">
<feFlood flood-opacity="0" result="BackgroundImageFix"/>
<feColorMatrix in="SourceAlpha" type="matrix" values="0 0 0 0 0 0 0 0 0 0 0 0 0 0 0 0 0 0 127 0" result="hardAlpha"/>
<feOffset/>
<feGaussianBlur stdDeviation="4"/>
<feComposite in2="hardAlpha" operator="out"/>
<feColorMatrix type="matrix" values="0 0 0 0 0 0 0 0 0 0 0 0 0 0 0 0 0 0 0.02 0"/>
<feBlend mode="normal" in2="BackgroundImageFix" result="effect1_dropShadow_413_7870"/>
<feBlend mode="normal" in="SourceGraphic" in2="effect1_dropShadow_413_7870" result="shape"/>
</filter>
<linearGradient id="paint0_linear_413_7870" x1="49" y1="95" x2="49" y2="139" gradientUnits="userSpaceOnUse">
<stop stop-color="#1675FF"/>
<stop offset="1" stop-color="#0057E1"/>
</linearGradient>
<linearGradient id="paint1_linear_413_7870" x1="22" y1="0" x2="22" y2="44" gradientUnits="userSpaceOnUse">
<stop stop-color="#FD965C"/>
<stop offset="1" stop-color="#EA7635"/>
</linearGradient>
<clipPath id="clip0_413_7870">
<rect width="22" height="22" fill="white" transform="translate(368 215)"/>
</clipPath>
</defs>
</svg>
