<svg width="367" height="170" viewBox="0 0 367 170" fill="none" xmlns="http://www.w3.org/2000/svg">
<path d="M0.5 35C0.5 26.9919 6.99187 20.5 15 20.5H352C360.008 20.5 366.5 26.9919 366.5 35V169.5H0.5V35Z" fill="white" stroke="#EEEEEE"/>
<path d="M41 34H24C18.4772 34 14 38.4772 14 44V61C14 66.5228 18.4772 71 24 71H41C46.5228 71 51 66.5228 51 61V44C51 38.4772 46.5228 34 41 34Z" fill="#1675FF"/>
<path d="M294 39H67C65.8954 39 65 39.8954 65 41V49C65 50.1046 65.8954 51 67 51H294C295.105 51 296 50.1046 296 49V41C296 39.8954 295.105 39 294 39Z" fill="#EEEEEE"/>
<path d="M246.16 125H21.8398C20.2714 125 19 126.271 19 127.84V140.16C19 141.729 20.2714 143 21.8398 143H246.16C247.729 143 249 141.729 249 140.16V127.84C249 126.271 247.729 125 246.16 125Z" fill="#1675FF"/>
<path d="M246.16 126H21.8398C20.8237 126 20 126.824 20 127.84V140.16C20 141.176 20.8237 142 21.8398 142H246.16C247.176 142 248 141.176 248 140.16V127.84C248 126.824 247.176 126 246.16 126Z" stroke="black" stroke-opacity="0.1" stroke-width="2"/>
<path d="M256.84 125H301.16C302.729 125 304 126.271 304 127.84V140.16C304 141.729 302.729 143 301.16 143H256.84C255.271 143 254 141.729 254 140.16V127.84C254 126.271 255.271 125 256.84 125Z" fill="#00C1D1"/>
<path d="M256.84 126H301.16C302.176 126 303 126.824 303 127.84V140.16C303 141.176 302.176 142 301.16 142H256.84C255.824 142 255 141.176 255 140.16V127.84C255 126.824 255.824 126 256.84 126Z" stroke="black" stroke-opacity="0.1" stroke-width="2"/>
<path d="M311.84 125H345.16C346.729 125 348 126.271 348 127.84V140.16C348 141.729 346.729 143 345.16 143H311.84C310.271 143 309 141.729 309 140.16V127.84C309 126.271 310.271 125 311.84 125Z" fill="#00C153"/>
<path d="M311.84 126H345.16C346.176 126 347 126.824 347 127.84V140.16C347 141.176 346.176 142 345.16 142H311.84C310.824 142 310 141.176 310 140.16V127.84C310 126.824 310.824 126 311.84 126Z" stroke="black" stroke-opacity="0.1" stroke-width="2"/>
<path d="M136 56H67C65.8954 56 65 56.8954 65 58V63C65 64.1046 65.8954 65 67 65H136C137.105 65 138 64.1046 138 63V58C138 56.8954 137.105 56 136 56Z" fill="#EEEEEE"/>
<path opacity="0.25" d="M270 96H231C229.895 96 229 96.8954 229 98V111C229 112.105 229.895 113 231 113H270C271.105 113 272 112.105 272 111V98C272 96.8954 271.105 96 270 96Z" fill="#00C153"/>
<path opacity="0.25" d="M267 100H234C233.448 100 233 100.448 233 101V108C233 108.552 233.448 109 234 109H267C267.552 109 268 108.552 268 108V101C268 100.448 267.552 100 267 100Z" fill="#00C153"/>
<path d="M172 56H145C143.895 56 143 56.8954 143 58V63C143 64.1046 143.895 65 145 65H172C173.105 65 174 64.1046 174 63V58C174 56.8954 173.105 56 172 56Z" fill="#EEEEEE"/>
<path d="M302 100H279C277.895 100 277 100.895 277 102V107C277 108.105 277.895 109 279 109H302C303.105 109 304 108.105 304 107V102C304 100.895 303.105 100 302 100Z" fill="#EEEEEE"/>
<path d="M222 56H181C179.895 56 179 56.8954 179 58V63C179 64.1046 179.895 65 181 65H222C223.105 65 224 64.1046 224 63V58C224 56.8954 223.105 56 222 56Z" fill="#EEEEEE"/>
<path d="M346 100H311C309.895 100 309 100.895 309 102V107C309 108.105 309.895 109 311 109H346C347.105 109 348 108.105 348 107V102C348 100.895 347.105 100 346 100Z" fill="#EEEEEE"/>
<path d="M26.2436 61.3775C25.0445 61.3775 24.0723 60.3799 24.0723 59.1481V50.1879C24.0723 49.511 24.3726 48.8697 24.8867 48.4472L30.8591 43.5426C31.2407 43.2266 31.7206 43.0537 32.2161 43.0537C32.7115 43.0537 33.1915 43.2266 33.573 43.5426L39.5445 48.4472C40.0596 48.8697 40.3599 49.511 40.3599 50.1879V59.1481C40.3599 60.3799 39.3877 61.3775 38.1885 61.3775H26.2436Z" fill="white" stroke="white" stroke-width="0.964396" stroke-linecap="round" stroke-linejoin="round"/>
<path d="M29.6699 61.3775V55.7786C29.6699 55.2387 29.8844 54.7208 30.2662 54.339C30.648 53.9572 31.1658 53.7427 31.7058 53.7427H32.7238C33.2638 53.7427 33.7816 53.9572 34.1634 54.339C34.5452 54.7208 34.7597 55.2387 34.7597 55.7786V61.3775" fill="#1675FF"/>
<path d="M29.6699 61.3775V55.7786C29.6699 55.2387 29.8844 54.7208 30.2662 54.339C30.648 53.9572 31.1658 53.7427 31.7058 53.7427H32.7238C33.2638 53.7427 33.7816 53.9572 34.1634 54.339C34.5452 54.7208 34.7597 55.2387 34.7597 55.7786V61.3775" stroke="white" stroke-width="0.964396" stroke-linecap="round" stroke-linejoin="round"/>
<path d="M23.5 160C25.9853 160 28 157.985 28 155.5C28 153.015 25.9853 151 23.5 151C21.0147 151 19 153.015 19 155.5C19 157.985 21.0147 160 23.5 160Z" fill="#1675FF"/>
<path d="M90 152H35C33.8954 152 33 152.895 33 154V157C33 158.105 33.8954 159 35 159H90C91.1046 159 92 158.105 92 157V154C92 152.895 91.1046 152 90 152Z" fill="#EEEEEE"/>
<path d="M106.5 160C108.985 160 111 157.985 111 155.5C111 153.015 108.985 151 106.5 151C104.015 151 102 153.015 102 155.5C102 157.985 104.015 160 106.5 160Z" fill="#00C1D1"/>
<path d="M144 152H118C116.895 152 116 152.895 116 154V157C116 158.105 116.895 159 118 159H144C145.105 159 146 158.105 146 157V154C146 152.895 145.105 152 144 152Z" fill="#EEEEEE"/>
<path d="M160.5 160C162.985 160 165 157.985 165 155.5C165 153.015 162.985 151 160.5 151C158.015 151 156 153.015 156 155.5C156 157.985 158.015 160 160.5 160Z" fill="#00C153"/>
<path d="M204 152H172C170.895 152 170 152.895 170 154V157C170 158.105 170.895 159 172 159H204C205.105 159 206 158.105 206 157V154C206 152.895 205.105 152 204 152Z" fill="#EEEEEE"/>
<path d="M226 152H213C211.895 152 211 152.895 211 154V157C211 158.105 211.895 159 213 159H226C227.105 159 228 158.105 228 157V154C228 152.895 227.105 152 226 152Z" fill="#EEEEEE"/>
<path d="M14 83H354" stroke="#EEEEEE"/>
<path d="M26.2088 96.4545V111H23.5739V99.0185H23.4886L20.0866 101.192V98.777L23.7017 96.4545H26.2088ZM35.0784 111.277C33.9089 111.277 32.9051 110.981 32.067 110.389C31.2337 109.793 30.5921 108.933 30.1423 107.811C29.6973 106.684 29.4747 105.328 29.4747 103.741C29.4795 102.155 29.7044 100.806 30.1494 99.6932C30.5992 98.5758 31.2408 97.7235 32.0741 97.1364C32.9122 96.5492 33.9136 96.2557 35.0784 96.2557C36.2432 96.2557 37.2446 96.5492 38.0827 97.1364C38.9207 97.7235 39.5623 98.5758 40.0074 99.6932C40.4572 100.811 40.6821 102.16 40.6821 103.741C40.6821 105.332 40.4572 106.691 40.0074 107.818C39.5623 108.94 38.9207 109.797 38.0827 110.389C37.2493 110.981 36.2479 111.277 35.0784 111.277ZM35.0784 109.054C35.9875 109.054 36.7048 108.607 37.2304 107.712C37.7607 106.812 38.0259 105.489 38.0259 103.741C38.0259 102.586 37.9051 101.616 37.6636 100.83C37.4222 100.044 37.0813 99.4517 36.6409 99.054C36.2006 98.6515 35.6797 98.4503 35.0784 98.4503C34.1741 98.4503 33.4591 98.9001 32.9335 99.7997C32.408 100.695 32.1428 102.009 32.1381 103.741C32.1333 104.902 32.2493 105.877 32.4861 106.668C32.7276 107.458 33.0685 108.055 33.5088 108.457C33.9491 108.855 34.4723 109.054 35.0784 109.054ZM42.9839 96.4545H46.2083L50.5265 106.994H50.6969L55.0151 96.4545H58.2396V111H55.7112V101.007H55.5762L51.5563 110.957H49.6671L45.6472 100.986H45.5123V111H42.9839V96.4545ZM65.085 108.67V98.8409H67.3151V108.67H65.085ZM61.2853 104.871V102.641H71.1148V104.871H61.2853Z" fill="#222222"/>
</svg>
