<svg width="369" height="137" viewBox="0 0 369 137" fill="none" xmlns="http://www.w3.org/2000/svg">
<mask id="path-1-outside-1_201_4549" maskUnits="userSpaceOnUse" x="0" y="0" width="369" height="137" fill="black">
<rect fill="white" width="369" height="137"/>
<path d="M2 17C2 8.71573 8.71573 2 17 2H352C360.284 2 367 8.71573 367 17V137H2V17Z"/>
</mask>
<path d="M2 17C2 8.71573 8.71573 2 17 2H352C360.284 2 367 8.71573 367 17V137H2V17Z" fill="white"/>
<path d="M0 17C0 7.61116 7.61116 0 17 0H352C361.389 0 369 7.61116 369 17H365C365 9.8203 359.18 4 352 4H17C9.8203 4 4 9.8203 4 17H0ZM367 137H2H367ZM0 137V17C0 7.61116 7.61116 0 17 0V4C9.8203 4 4 9.8203 4 17V137H0ZM352 0C361.389 0 369 7.61116 369 17V137H365V17C365 9.8203 359.18 4 352 4V0Z" fill="#EEEEEE" mask="url(#path-1-outside-1_201_4549)"/>
<mask id="mask0_201_4549" style="mask-type:alpha" maskUnits="userSpaceOnUse" x="2" y="2" width="365" height="135">
<path d="M2.5 17C2.5 8.99187 8.99187 2.5 17 2.5H352C360.008 2.5 366.5 8.99187 366.5 17V136.5H2.5V17Z" fill="white" stroke="#EEEEEE"/>
</mask>
<g mask="url(#mask0_201_4549)">
<path d="M8.49309 97.7018C3.47699 97.8961 -1.22828 98.0794 -5.13819 98.2324L-5.1382 73.895L9.81055 76.8748L8.49309 97.7018Z" fill="#F5F5F5"/>
<path d="M2.23625 196.614L-5.13916 196.402L-5.13917 100.662C-0.997332 100.501 3.59864 100.321 8.33789 100.138L2.23625 196.614Z" fill="#F5F5F5"/>
<path d="M9.88772 75.6508L-5.13873 72.6565L-5.13874 27.7872L12.8809 28.3287L9.88772 75.6508Z" fill="#F5F5F5"/>
<path d="M219.946 95.2722L269.136 86.787L270.781 109.009L219.946 109.009L219.946 95.2722Z" fill="#F5F5F5"/>
<path d="M94.6761 34.6977L81.5463 35.6315L78.7208 61.834L68.3316 59.8062L70.5743 30.0605L85.472 30.5073L95.3379 28.1347L94.6761 34.6977Z" fill="#F5F5F5"/>
<path d="M66.6658 81.9239L68.2407 61.0253L91.5605 65.5775L89.7197 83.8169L66.6658 81.9239Z" fill="#F5F5F5"/>
<path d="M64.2443 81.7245L44.7992 80.1278L18.1292 77.2937L12.291 76.1305L15.3109 28.4016L68.1445 29.9874L64.2443 81.7245Z" fill="#F5F5F5"/>
<path d="M156.046 163.873L152.899 162.037L131.428 198.847L80.5013 198.847L83.2503 159.998L90.8067 85.1245L124.19 87.8651L133.534 159.395L137.146 158.922L127.903 88.1699L184.403 92.8096L177.67 162.838L180.087 163.07L186.824 93.0075L216.303 95.4275L216.303 162.79L205.537 221.946L138.028 222.231L135.072 199.833L156.046 163.873ZM85.362 195.078C85.362 195.078 127.357 194.8 128.925 195.078L144.903 165.042L87.5088 161.148L85.362 195.078Z" fill="#F5F5F5"/>
<path d="M94.4277 37.1508L91.6811 64.3647L81.1122 62.3017L83.7422 37.9097L94.4277 37.1508Z" fill="#F5F5F5"/>
<path d="M17.49 97.3556C15.2861 97.4394 13.0883 97.5244 10.933 97.607L12.214 77.3519L17.439 78.3938L17.49 97.3556Z" fill="#F5F5F5"/>
<path d="M219.946 140.986L236.122 137.413L236.122 110.223L270.872 110.223L277.17 195.251L244.542 195.251L238.535 221.808L209.242 221.932L219.946 163.12L219.946 140.986Z" fill="#F5F5F5"/>
<path d="M316.636 84.2491L319.613 84.974L332.462 52.5048L374.857 73.6243C374.8 74.0056 374.762 74.393 374.763 74.79L374.93 110.671L315.596 109.695L316.636 84.2491Z" fill="#F5F5F5"/>
<path d="M339.372 35.041L397.262 35.0787L397.371 58.7082C397.39 63.122 393.666 66.7174 389.052 66.7356L383.082 66.7623C380.234 66.7733 377.728 68.149 376.23 70.2363L333.807 49.1034L339.372 35.041Z" fill="#F5F5F5"/>
<path d="M336.709 155.862L336.189 155.856C331.433 155.798 322.873 155.7 313.717 155.629L315.545 110.91L374.934 111.888L375.059 138.951C375.079 143.365 378.837 146.928 383.451 146.908L389.421 146.883C394.036 146.863 397.794 150.427 397.813 154.841L397.83 158.626L336.71 155.881L336.709 155.862Z" fill="#F5F5F5"/>
<path d="M45.1405 153.912L19.1809 99.7226C36.1453 99.0778 52.0083 98.4998 53.0186 98.5545L53.0818 97.3803L54.2256 96.8059C53.8406 96.0361 53.8406 96.0361 42.276 96.4392C35.8235 96.6639 27.2387 96.9856 18.649 97.3123L18.649 78.5714L44.6839 81.3375L89.5957 85.0252L82.451 155.826L45.1405 153.912Z" fill="#F5F5F5"/>
<path d="M124.654 21.0836L130.971 21.6956L124.215 86.6499L90.9293 83.9166L96.589 27.8337L124.654 21.0836Z" fill="#F5F5F5"/>
<path d="M232.48 110.223L232.48 134.487L219.947 137.254L219.947 110.223L232.48 110.223Z" fill="#F5F5F5"/>
<path d="M228.249 31.1142L232.453 91.8818L218.096 94.3589L186.939 91.8005L193.101 27.7119L228.249 31.1142ZM218.124 89.6476L227.183 86.3861L223.845 33.6047L197.926 30.5496L191.129 87.8602L218.124 89.6476Z" fill="#F5F5F5"/>
<path d="M163.127 24.8089L190.686 27.4778L184.52 91.6016L155.193 89.1937L163.127 24.8089Z" fill="#F5F5F5"/>
<path d="M353.059 0.461947L352.134 0.0952397L371.212 0.0151226C385.512 -0.0443759 397.155 11.4947 397.22 25.795L397.258 33.8662L339.854 33.8286L353.059 0.461947Z" fill="#F5F5F5"/>
<path d="M17.8571 99.7723L44.3558 155.087L82.3281 157.036L82.0938 159.352L32.9236 159.745L31.135 197.445L30.0385 197.413L30.0167 197.405L30.013 197.412L4.66294 196.682L10.7755 100.043C13.1275 99.9532 15.499 99.8634 17.8571 99.7723ZM28.0095 195.078L31.713 142.31L15.7855 107.979L11.0718 195.078L28.0095 195.078Z" fill="#F5F5F5"/>
<path d="M289.303 16.1829L302.725 13.9207C309.803 33.7556 330.488 35.129 336.75 35.0707L331.626 48.0195L292.491 28.5246L289.303 16.1829Z" fill="#F5F5F5"/>
<path d="M127.845 86.9469L130.651 59.9794L154.469 65.2942L151.561 88.8945L127.845 86.9469Z" fill="#F5F5F5"/>
<path d="M268.727 31.0182L268.735 81.3893L269.045 85.57L236.061 91.2588L231.925 31.4699L246.265 32.859L267.449 26.9735L268.727 31.0182Z" fill="#F5F5F5"/>
<path d="M274.799 32.252L290.541 31.6219L330.279 51.4179L318.132 82.1132L274.797 71.56L274.797 32.252L274.799 32.252ZM325.447 52.6127L290.936 34.4729L280.181 37.0933L281.35 68.1322L313.992 75.8913L325.447 52.6127Z" fill="#F5F5F5"/>
<path d="M84.8409 24.4155L53.9186 23.4866L55.1462 1.66397L53.9344 1.59475L52.7055 23.4502L15.6937 22.3391L16.9991 1.70525L14.5754 1.55224L13.2652 22.2663L-5.13808 21.7138L-5.13808 1.60568L98.0605 1.16975L95.9841 21.7344L84.8409 24.4155Z" fill="#F5F5F5"/>
<path d="M274.799 81.053L274.799 74.0601L315.432 83.9551L314.381 109.674L276.873 109.057L274.799 81.053Z" fill="#F5F5F5"/>
<path d="M280.327 155.675L276.963 110.273L314.332 110.887L312.505 155.617C299.868 155.525 286.388 155.486 280.327 155.675Z" fill="#F5F5F5"/>
<path d="M159.5 24.4578L154.616 64.0839L130.777 58.763L134.597 22.0462L159.5 24.4578Z" fill="#F5F5F5"/>
<path d="M303.941 13.7151L319.004 11.1761L318.153 0.238073L350.588 0.100853L337.236 33.8403C314.412 34.5287 306.385 20.192 303.941 13.7151Z" fill="#F5F5F5"/>
<path d="M245.728 26.7066L231.501 25.3296L229.791 0.612201L259.086 0.488322L265.621 21.1805L245.728 26.7066Z" fill="#F5F5F5"/>
<path d="M124.224 14.9432L97.2333 21.4346L99.2793 1.16496L127.582 1.04597C129.221 7.26662 130.555 12.6943 131.117 15.611L124.224 14.9432Z" fill="#F5F5F5"/>
<path d="M274.338 28.6239L265.444 0.461577L281.461 0.39358L288.608 28.0532L274.338 28.6239Z" fill="#F5F5F5"/>
<path d="M134.823 15.9692C134.481 13.6997 133.566 9.39764 131.367 1.02897L193.252 0.767904L191.264 21.4346L134.823 15.9692Z" fill="#F5F5F5"/>
<path d="M193.683 21.6676L195.694 0.756889L226.14 0.628191L227.824 24.9741L193.683 21.6676Z" fill="#F5F5F5"/>
<path d="M303.175 11.3813C301.969 7.41801 301.038 3.73032 300.353 0.313394L315.719 0.249027L316.412 9.15075L303.175 11.3813Z" fill="#F5F5F5"/>
<path d="M288.692 13.8223L285.218 0.37797L299.104 0.319717C299.801 3.79735 300.747 7.55061 301.969 11.5856L288.692 13.8223Z" fill="#F5F5F5"/>
<path d="M14.5748 1.55213L16.9984 1.70513L15.6931 22.3378L52.7037 23.4488L53.9337 1.5934L55.1456 1.66263L53.918 23.4853L84.8403 24.4142L95.9835 21.7343L98.0586 1.16963L99.279 1.16478L97.233 21.4344L124.224 14.943L131.117 15.6108C130.555 12.6942 129.22 7.26521 127.582 1.04579L131.367 1.03C133.567 9.39866 134.48 13.7008 134.823 15.9702L191.264 21.4356L193.252 0.76893L195.692 0.758004L193.682 21.6687L227.823 24.9739L226.139 0.628075L229.79 0.612297L231.5 25.3297L245.727 26.7067L265.62 21.1806L259.085 0.488409L265.443 0.461691L274.336 28.624L288.605 28.0533L281.458 0.393697L285.215 0.377904L288.689 13.8222L301.965 11.5855C300.743 7.55054 299.797 3.79729 299.101 0.319661L300.349 0.314763C301.034 3.73047 301.967 7.4182 303.171 11.3828L316.408 9.15216L315.714 0.250431L318.149 0.240726L319 11.1788L303.937 13.7178C306.382 20.1946 314.408 34.5314 337.232 33.8441L350.584 0.104723L352.129 0.0986501L353.054 0.465365L339.85 33.832L397.254 33.8696L397.259 35.0838L339.369 35.0462L333.805 49.1098L376.227 70.2427C375.516 71.2336 375.038 72.3859 374.854 73.6293L332.459 52.5097L319.61 84.979L316.632 84.254L315.593 109.7L374.927 110.676L374.933 111.891L315.543 110.913L313.716 155.632C322.871 155.703 331.432 155.801 336.188 155.859L336.708 155.865L336.71 155.882L397.83 158.627L397.836 159.843L336.886 157.105L343.481 203.04L397.985 192.1L398 195.228C398.001 195.427 397.977 195.62 397.973 195.818L344.001 206.651L346.096 221.245L345.305 221.36L344.886 221.361L342.808 206.891L284.979 218.498L285.21 221.612L279.124 221.638L277.44 198.895L247.453 198.895L242.274 221.793L238.535 221.809L244.542 195.252L277.17 195.252L270.872 110.225L236.123 110.225L236.124 137.414L219.946 140.987L219.946 163.121L209.243 221.934L205.539 221.95L216.304 162.794L216.304 95.4313L186.826 93.0113L180.089 163.074L177.672 162.842L184.405 92.8134L127.905 88.1737L137.148 158.926L133.536 159.398L124.192 87.8689L90.8083 85.1283L83.252 160.002L80.5029 198.851L131.43 198.851L152.901 162.041L156.048 163.877L135.074 199.838L138.03 222.236L134.357 222.252L131.428 200.065L99.0204 200.065L96.6537 222.411L92.9903 222.427L95.3594 200.065L79.2025 200.065L79.2036 200.047L33.3897 198.728L33.4127 198.737L24.018 222.717L20.0996 222.734L29.5478 198.618L4.59112 197.9L3.01501 222.807L2.20755 222.811L0.587708 222.709L2.16138 197.831L-5.13629 197.621L-5.13629 196.405L2.23913 196.618L8.34197 100.143C3.60153 100.326 -0.994451 100.504 -5.13508 100.667L-5.13508 98.2375C-1.22394 98.0845 3.48007 97.9011 8.49618 97.7068L9.81362 76.8787L-5.13508 73.8989L-5.13508 72.6615L9.89138 75.6559L12.8845 28.3326L-5.13508 27.7923L-5.13508 21.7173M10.932 97.6073C13.0885 97.5247 15.2851 97.4397 17.489 97.3559L17.4368 78.3941L12.2118 77.3522L10.932 97.6073ZM12.2907 76.1307L18.1289 77.2939L44.7976 80.128L64.244 81.7248L68.143 29.9864L15.3094 28.4006L12.2907 76.1307ZM91.6814 64.3645L94.428 37.1505L83.7425 37.9107L81.1125 62.3015L91.6814 64.3645ZM91.56 65.5775L68.2401 61.0265L66.6652 81.9251L89.7191 83.8181L91.56 65.5775ZM70.5739 30.0605L68.3324 59.8062L78.7204 61.834L81.5472 35.6315L94.6769 34.6977L95.3399 28.1347L85.4729 30.5073L70.5739 30.0605ZM154.468 65.2946L130.651 59.9798L127.846 86.9485L151.56 88.8962L154.468 65.2946ZM130.777 58.7631L154.618 64.0828L159.5 24.4567L134.597 22.0452L130.777 58.7631ZM231.926 31.4702L236.063 91.2591L269.046 85.5691L268.736 81.3884L268.728 31.0173L267.45 26.9738L246.266 32.8593L231.926 31.4702ZM336.75 35.0693C330.488 35.1276 309.803 33.7555 302.726 13.9193L289.303 16.1815L292.492 28.522L331.626 48.017L336.75 35.0693ZM330.28 51.4181L290.542 31.622L274.799 32.2522L274.799 71.5614L318.133 82.1145L330.28 51.4181ZM315.432 83.9554L274.798 74.0604L274.798 81.0521L276.872 109.057L314.379 109.673L315.432 83.9554ZM314.331 110.889L276.963 110.274L280.326 155.677C286.388 155.487 299.866 155.525 312.504 155.62L314.331 110.889ZM342.29 203.277L335.656 157.063C316.472 156.83 289.279 156.628 280.414 156.859L284.708 214.834L342.29 203.277ZM269.136 86.787L219.946 95.2722L219.946 109.009L270.782 109.009L269.136 86.787ZM232.48 134.487L232.48 110.223L219.945 110.223L219.945 137.254L232.48 134.487ZM218.097 94.3591L232.454 91.882L228.25 31.1145L193.104 27.7109L186.941 91.7995L218.097 94.3591ZM190.685 27.4778L163.126 24.8088L155.192 89.1937L184.519 91.6015L190.685 27.4778ZM124.214 86.6498L130.97 21.6954L124.653 21.0835L96.5882 27.8335L90.9285 83.9165L124.214 86.6498ZM44.6847 81.3374L18.6498 78.5713L18.6498 97.3122C27.2395 96.9856 35.8255 96.665 42.2768 96.4391C53.8402 96.0348 53.8402 96.0348 54.2264 96.8059L53.0825 97.3802L53.0194 98.5544C52.0091 98.4997 36.1461 99.0777 19.1816 99.7225L45.1413 153.912L82.453 155.827L89.5977 85.0263L44.6847 81.3374ZM81.994 160.568L34.083 160.949L32.3503 197.479L79.2874 198.829L81.994 160.568ZM30.0153 197.413L30.0189 197.406L30.0408 197.414L31.1372 197.446L32.9258 159.746L82.096 159.354L82.3304 157.037L44.3581 155.088L17.8593 99.7735C15.5012 99.8634 13.1298 99.9544 10.779 100.044L4.66641 196.683L30.0153 197.413Z" fill="white"/>
<path d="M31.7129 142.31L28.0094 195.078L11.0717 195.078L15.7855 107.978L31.7129 142.31Z" fill="#EBEBEB"/>
<path d="M223.847 33.6051L227.184 86.3865L218.124 89.6479L191.131 87.8606L197.927 30.55L223.847 33.6051Z" fill="#EBEBEB"/>
<path d="M280.182 37.0934L290.936 34.473L325.447 52.6128L313.992 75.8926L281.35 68.1322L280.182 37.0934Z" fill="#EBEBEB"/>
<path d="M94.8199 81.9158L120.846 83.7104L128.326 25.5183L123.838 25.5183L99.9064 32.555L94.8199 81.9158Z" fill="#EBEBEB"/>
<path d="M28.5193 27.6647L45.4923 28.3956L43.0055 79.5499C42.9435 80.8941 43.2252 82.2261 43.8275 83.4173L80.4726 155.97C81.319 157.649 83.0141 158.754 84.8937 158.85L276.426 168.726C277.343 168.774 278.238 168.425 278.88 167.768C279.525 167.111 279.847 166.202 279.787 165.291L277.482 134.196L311.477 134.196L311.477 130.554L277.013 130.554C276.124 130.554 275.269 130.926 274.664 131.577C274.059 132.227 273.752 133.105 273.817 133.995L276.118 165.063L85.0819 155.212C84.5052 155.182 83.9855 154.844 83.7256 154.329L47.0805 81.7732C46.7612 81.1418 46.6057 80.4339 46.6458 79.726L49.1533 28.1479C49.197 27.2688 48.8958 26.4577 48.3142 25.819C47.7325 25.1827 46.9372 24.8111 46.0751 24.7735L28.6772 24.0243L28.5193 27.6647Z" fill="white"/>
<path d="M185.588 81.1752C179.284 81.1752 174.175 86.2841 174.175 92.5875C174.175 98.891 179.284 104 185.588 104C191.891 104 197 98.891 197 92.5875C196.998 86.286 191.889 81.1752 185.588 81.1752Z" fill="#1675FF"/>
<g opacity="0.6">
<path d="M185.993 81.0106C179.646 80.7387 174.283 85.6623 174.011 92.0063C173.739 98.3524 178.663 103.715 185.007 103.989C191.352 104.261 196.717 99.3375 196.989 92.9934C197.261 86.6474 192.337 81.2825 185.993 81.0106Z" fill="white"/>
</g>
<path d="M185.5 84.9999C181.358 84.9999 178 88.3577 178 92.4999C178 96.6421 181.358 99.9999 185.5 99.9999C189.642 99.9999 193 96.6421 193 92.4999C193 88.3577 189.642 84.9999 185.5 84.9999Z" fill="#1675FF"/>
</g>
<rect x="178" y="28" width="162" height="48" rx="5" fill="#1675FF"/>
<rect x="185" y="37" width="30" height="30" rx="3.75" fill="white" fill-opacity="0.25"/>
<path d="M203.319 51.1562C203.319 52.9885 201.833 54.4739 200.001 54.4739C198.168 54.4739 196.683 52.9885 196.683 51.1562C196.683 49.3239 198.168 47.8385 200.001 47.8385C201.833 47.8385 203.319 49.3239 203.319 51.1562Z" stroke="white" stroke-width="1.5625"/>
<path d="M200 42.625C204.617 42.625 208.532 46.4479 208.532 51.0859C208.532 55.7977 204.554 59.1042 200.879 61.3527C200.611 61.5039 200.309 61.5833 200 61.5833C199.692 61.5833 199.39 61.5039 199.122 61.3527C195.454 59.0824 191.469 55.814 191.469 51.0859C191.469 46.4479 195.384 42.625 200 42.625Z" stroke="white" stroke-width="1.5625"/>
<g opacity="0.25">
<rect x="223" y="39" width="95" height="12" rx="2" fill="white"/>
<rect x="223" y="56" width="61" height="9" rx="2" fill="white"/>
<rect x="288" y="56" width="26" height="9" rx="2" fill="white"/>
</g>
</svg>
