<svg width="367" height="135" viewBox="0 0 367 135" fill="none" xmlns="http://www.w3.org/2000/svg">
<rect x="0.5" y="-0.5" width="366" height="117" rx="9.5" transform="matrix(1 0 0 -1 0 125)" fill="white" stroke="#EEEEEE"/>
<path d="M326.283 35.4533C326.513 34.9864 326.628 34.7529 326.785 34.6783C326.921 34.6134 327.079 34.6134 327.215 34.6783C327.372 34.7529 327.487 34.9864 327.717 35.4533L329.904 39.8833C329.972 40.0211 330.006 40.0901 330.056 40.1436C330.1 40.191 330.153 40.2294 330.211 40.2566C330.278 40.2874 330.354 40.2985 330.506 40.3208L335.397 41.0357C335.912 41.111 336.17 41.1486 336.289 41.2744C336.392 41.3839 336.441 41.5343 336.421 41.6838C336.399 41.8556 336.212 42.0372 335.839 42.4004L332.301 45.8464C332.191 45.9538 332.136 46.0076 332.1 46.0715C332.069 46.128 332.049 46.1902 332.041 46.2545C332.032 46.3271 332.045 46.403 332.071 46.5547L332.906 51.4221C332.994 51.9355 333.038 52.1922 332.955 52.3445C332.883 52.477 332.755 52.57 332.607 52.5975C332.437 52.6291 332.206 52.5078 331.745 52.2654L327.372 49.9658C327.236 49.8942 327.168 49.8584 327.096 49.8443C327.033 49.8318 326.967 49.8318 326.904 49.8443C326.832 49.8584 326.764 49.8942 326.628 49.9658L322.255 52.2654C321.794 52.5078 321.563 52.6291 321.393 52.5975C321.245 52.57 321.117 52.477 321.045 52.3445C320.962 52.1922 321.006 51.9355 321.094 51.4221L321.929 46.5547C321.955 46.403 321.968 46.3271 321.959 46.2545C321.951 46.1902 321.931 46.128 321.9 46.0715C321.864 46.0076 321.809 45.9538 321.699 45.8464L318.161 42.4004C317.788 42.0372 317.601 41.8556 317.579 41.6838C317.559 41.5343 317.608 41.3839 317.711 41.2744C317.83 41.1486 318.088 41.111 318.603 41.0357L323.494 40.3208C323.646 40.2985 323.722 40.2874 323.789 40.2566C323.847 40.2294 323.9 40.191 323.944 40.1436C323.994 40.0901 324.028 40.0211 324.096 39.8833L326.283 35.4533Z" stroke="#FFB11E" stroke-width="2" stroke-linecap="round" stroke-linejoin="round"/>
<rect x="16" y="26" width="37" height="37" rx="10" fill="#1675FF"/>
<rect x="67" y="31" width="95" height="12" rx="2" fill="#EEEEEE"/>
<rect x="166" y="31" width="55" height="12" rx="2" fill="#EEEEEE"/>
<rect x="67" y="48" width="61" height="9" rx="2" fill="#EEEEEE"/>
<rect x="132" y="48" width="26" height="9" rx="2" fill="#EEEEEE"/>
<rect x="162" y="48" width="38" height="9" rx="2" fill="#EEEEEE"/>
<path d="M28.2443 53.3775C27.0452 53.3775 26.073 52.3798 26.073 51.1481V42.1879C26.073 41.5109 26.3733 40.8696 26.8874 40.4472L32.8598 35.5426C33.2414 35.2266 33.7213 35.0536 34.2168 35.0536C34.7122 35.0536 35.1922 35.2266 35.5737 35.5426L41.5452 40.4472C42.0603 40.8696 42.3606 41.5109 42.3606 42.1879V51.1481C42.3606 52.3798 41.3884 53.3775 40.1892 53.3775H28.2443Z" fill="white" stroke="white" stroke-width="0.964396" stroke-linecap="round" stroke-linejoin="round"/>
<path d="M31.6702 53.3774V47.7786C31.6702 47.2386 31.8847 46.7207 32.2665 46.3389C32.6483 45.9571 33.1661 45.7426 33.7061 45.7426H34.7241C35.2641 45.7426 35.7819 45.9571 36.1637 46.3389C36.5455 46.7207 36.76 47.2386 36.76 47.7786V53.3774" fill="#1675FF"/>
<path d="M31.6702 53.3774V47.7786C31.6702 47.2386 31.8847 46.7207 32.2665 46.3389C32.6483 45.9571 33.1661 45.7426 33.7061 45.7426H34.7241C35.2641 45.7426 35.7819 45.9571 36.1637 46.3389C36.5455 46.7207 36.76 47.2386 36.76 47.7786V53.3774" stroke="white" stroke-width="0.964396" stroke-linecap="round" stroke-linejoin="round"/>
<path d="M16 75L352 75" stroke="#EEEEEE"/>
<rect x="16.5" y="85.5" width="252" height="27" rx="4.5" fill="white" stroke="#EEEEEE"/>
<rect x="-0.5" y="0.5" width="74" height="27" rx="4.5" transform="matrix(-1 0 0 1 351 85)" fill="#1675FF" stroke="#1675FF"/>
<path d="M321.178 95C326.274 95 326.274 103 321.178 103C316.083 103 314.045 95 308.439 95C303.854 95 303.854 103 308.439 103C314.045 103 316.083 95 321.179 95H321.178Z" stroke="white" stroke-width="2" stroke-linecap="round" stroke-linejoin="round"/>
<path d="M256.201 104V96H257.793V104H256.201ZM253 100.793V99.2012H261V100.793H253Z" fill="#1675FF"/>
<path d="M32 99V101H24V99H32Z" fill="#1675FF"/>
<rect x="127" y="91" width="31" height="15" rx="2" fill="#EEEEEE"/>
</svg>
