<svg width="337" height="135" viewBox="0 0 337 135" fill="none" xmlns="http://www.w3.org/2000/svg">
<rect x="0.5" y="-0.5" width="296" height="75" rx="9.5" transform="matrix(1 0 0 -1 20 124.109)" fill="white" stroke="#EEEEEE"/>
<rect x="0.5" y="-0.5" width="316" height="75" rx="9.5" transform="matrix(1 0 0 -1 10 114.109)" fill="white" stroke="#EEEEEE"/>
<rect x="0.5" y="-0.5" width="336" height="75" rx="9.5" transform="matrix(1 0 0 -1 0 104.109)" fill="white" stroke="#EEEEEE"/>
<path d="M95 30.1094L11 30.1094" stroke="url(#paint0_linear_201_4548)"/>
<path d="M249 30.1094L333 30.1094" stroke="url(#paint1_linear_201_4548)"/>
<g opacity="0.25">
<path d="M307 71.1094V67.1094M307 63.1094H307.01M317 67.1094C317 72.6322 312.523 77.1094 307 77.1094C301.477 77.1094 297 72.6322 297 67.1094C297 61.5865 301.477 57.1094 307 57.1094C312.523 57.1094 317 61.5865 317 67.1094Z" stroke="black" stroke-width="2" stroke-linecap="round" stroke-linejoin="round"/>
</g>
<rect x="21" y="57.1094" width="36" height="20" rx="10" fill="#00C153"/>
<g filter="url(#filter0_d_201_4548)">
<rect x="39" y="59.1094" width="16" height="16" rx="8" fill="white"/>
</g>
<rect x="71" y="54.1094" width="182" height="12" rx="2" fill="#EEEEEE"/>
<rect x="71" y="71.1094" width="73" height="9" rx="2" fill="#EEEEEE"/>
<rect x="149" y="71.1094" width="31" height="9" rx="2" fill="#EEEEEE"/>
<path d="M88 17.4567C88 13.3385 91.3385 10 95.4567 10H242.185C246.303 10 249.642 13.3385 249.642 17.4567V35.4567C249.642 39.575 246.303 42.9134 242.185 42.9134H95.4567C91.3385 42.9134 88 39.575 88 35.4567V17.4567Z" fill="#00C153"/>
<path d="M113.683 26.456C113.683 22.8167 110.733 19.8665 107.094 19.8665C103.454 19.8665 100.504 22.8167 100.504 26.456C100.504 30.0953 103.454 33.0456 107.094 33.0456C110.733 33.0456 113.683 30.0953 113.683 26.456Z" stroke="white" stroke-width="1.18612"/>
<path d="M104.458 26.7861L106.105 28.4335L109.729 24.4798" stroke="white" stroke-width="1.18612" stroke-linecap="round" stroke-linejoin="round"/>
<path d="M129.129 23.9496C129.076 23.479 128.857 23.1144 128.472 22.8559C128.088 22.594 127.604 22.4631 127.021 22.4631C126.603 22.4631 126.242 22.5294 125.937 22.662C125.632 22.7912 125.395 22.9702 125.226 23.1989C125.06 23.4243 124.977 23.6812 124.977 23.9695C124.977 24.2115 125.034 24.4203 125.146 24.5959C125.262 24.7716 125.413 24.9191 125.599 25.0384C125.788 25.1544 125.99 25.2522 126.205 25.3317C126.421 25.408 126.628 25.4709 126.827 25.5206L127.821 25.7792C128.146 25.8587 128.479 25.9664 128.82 26.1023C129.162 26.2382 129.478 26.4172 129.77 26.6393C130.062 26.8613 130.297 27.1364 130.476 27.4645C130.658 27.7927 130.749 28.1854 130.749 28.6428C130.749 29.2195 130.6 29.7316 130.302 30.179C130.007 30.6265 129.578 30.9795 129.014 31.238C128.454 31.4965 127.776 31.6258 126.981 31.6258C126.219 31.6258 125.559 31.5048 125.002 31.2628C124.445 31.0209 124.01 30.6778 123.695 30.2337C123.38 29.7863 123.206 29.256 123.173 28.6428H124.714C124.744 29.0107 124.863 29.3173 125.072 29.5626C125.284 29.8045 125.554 29.9851 125.882 30.1045C126.214 30.2205 126.577 30.2785 126.971 30.2785C127.405 30.2785 127.791 30.2105 128.129 30.0746C128.471 29.9354 128.739 29.7432 128.935 29.4979C129.13 29.2493 129.228 28.9593 129.228 28.6279C129.228 28.3263 129.142 28.0794 128.97 27.8871C128.801 27.6949 128.57 27.5358 128.279 27.4099C127.99 27.2839 127.664 27.1729 127.299 27.0768L126.096 26.7486C125.281 26.5266 124.634 26.2001 124.157 25.7692C123.683 25.3384 123.446 24.7683 123.446 24.059C123.446 23.4724 123.605 22.9603 123.923 22.5228C124.242 22.0853 124.672 21.7456 125.216 21.5036C125.76 21.2583 126.373 21.1357 127.056 21.1357C127.745 21.1357 128.353 21.2567 128.88 21.4986C129.41 21.7406 129.828 22.0737 130.133 22.4979C130.438 22.9188 130.597 23.4027 130.61 23.9496H129.129ZM135.617 31.6108C134.865 31.6108 134.217 31.4501 133.673 31.1286C133.133 30.8038 132.715 30.3481 132.42 29.7614C132.129 29.1715 131.983 28.4804 131.983 27.6883C131.983 26.9061 132.129 26.2167 132.42 25.6201C132.715 25.0235 133.126 24.5578 133.653 24.2231C134.184 23.8883 134.803 23.7209 135.513 23.7209C135.944 23.7209 136.361 23.7922 136.765 23.9347C137.17 24.0772 137.533 24.3009 137.854 24.6059C138.176 24.9108 138.429 25.3069 138.615 25.7941C138.801 26.278 138.893 26.8663 138.893 27.559V28.086H132.823V26.9724H137.437C137.437 26.5813 137.357 26.2349 137.198 25.9333C137.039 25.6284 136.815 25.3881 136.527 25.2124C136.242 25.0367 135.907 24.9489 135.523 24.9489C135.105 24.9489 134.74 25.0517 134.429 25.2572C134.121 25.4593 133.882 25.7245 133.713 26.0526C133.547 26.3774 133.464 26.7304 133.464 27.1116V27.9816C133.464 28.492 133.554 28.9262 133.733 29.2841C133.915 29.6421 134.169 29.9155 134.493 30.1045C134.818 30.2901 135.198 30.3829 135.632 30.3829C135.914 30.3829 136.171 30.3431 136.403 30.2635C136.635 30.1807 136.835 30.0581 137.004 29.8956C137.173 29.7332 137.302 29.5327 137.392 29.2941L138.799 29.5476C138.686 29.9619 138.484 30.3249 138.192 30.6364C137.904 30.9447 137.541 31.1849 137.104 31.3573C136.669 31.5263 136.174 31.6108 135.617 31.6108ZM143.967 23.8204V25.0135H139.796V23.8204H143.967ZM140.915 21.9908H142.401V29.2145C142.401 29.5029 142.444 29.72 142.53 29.8658C142.617 30.0083 142.728 30.1061 142.864 30.1591C143.003 30.2089 143.154 30.2337 143.316 30.2337C143.435 30.2337 143.54 30.2254 143.629 30.2089C143.719 30.1923 143.788 30.179 143.838 30.1691L144.106 31.3971C144.02 31.4302 143.898 31.4634 143.739 31.4965C143.579 31.533 143.381 31.5528 143.142 31.5562C142.751 31.5628 142.386 31.4932 142.048 31.3474C141.71 31.2015 141.437 30.9761 141.228 30.6712C141.019 30.3663 140.915 29.9835 140.915 29.5228V21.9908ZM149.036 23.8204V25.0135H144.865V23.8204H149.036ZM145.984 21.9908H147.47V29.2145C147.47 29.5029 147.513 29.72 147.599 29.8658C147.686 30.0083 147.797 30.1061 147.933 30.1591C148.072 30.2089 148.223 30.2337 148.385 30.2337C148.504 30.2337 148.609 30.2254 148.698 30.2089C148.788 30.1923 148.857 30.179 148.907 30.1691L149.175 31.3971C149.089 31.4302 148.967 31.4634 148.808 31.4965C148.648 31.533 148.45 31.5528 148.211 31.5562C147.82 31.5628 147.455 31.4932 147.117 31.3474C146.779 31.2015 146.506 30.9761 146.297 30.6712C146.088 30.3663 145.984 29.9835 145.984 29.5228V21.9908ZM150.541 31.4567V23.8204H152.027V31.4567H150.541ZM151.291 22.6421C151.033 22.6421 150.811 22.5559 150.625 22.3836C150.443 22.2079 150.352 21.9991 150.352 21.7572C150.352 21.5119 150.443 21.3031 150.625 21.1307C150.811 20.9551 151.033 20.8672 151.291 20.8672C151.55 20.8672 151.77 20.9551 151.953 21.1307C152.138 21.3031 152.231 21.5119 152.231 21.7572C152.231 21.9991 152.138 22.2079 151.953 22.3836C151.77 22.5559 151.55 22.6421 151.291 22.6421ZM155.373 26.9226V31.4567H153.887V23.8204H155.314V25.0633H155.408C155.584 24.6589 155.859 24.3341 156.234 24.0888C156.611 23.8436 157.087 23.7209 157.66 23.7209C158.181 23.7209 158.636 23.8303 159.028 24.0491C159.419 24.2645 159.722 24.586 159.937 25.0135C160.153 25.4411 160.261 25.9697 160.261 26.5995V31.4567H158.774V26.7785C158.774 26.225 158.63 25.7924 158.341 25.4809C158.053 25.166 157.657 25.0086 157.153 25.0086C156.809 25.0086 156.502 25.0831 156.234 25.2323C155.968 25.3814 155.758 25.6002 155.602 25.8885C155.45 26.1736 155.373 26.5183 155.373 26.9226ZM165.316 34.4795C164.709 34.4795 164.187 34.3999 163.75 34.2408C163.316 34.0817 162.961 33.8713 162.686 33.6094C162.411 33.3476 162.205 33.0609 162.069 32.7493L163.347 32.2224C163.437 32.3682 163.556 32.5223 163.705 32.6847C163.857 32.8504 164.063 32.9913 164.322 33.1073C164.583 33.2233 164.92 33.2813 165.331 33.2813C165.894 33.2813 166.36 33.1438 166.728 32.8687C167.096 32.5969 167.28 32.1627 167.28 31.5661V30.0647H167.185C167.096 30.2271 166.966 30.4077 166.797 30.6066C166.632 30.8054 166.403 30.9778 166.111 31.1236C165.82 31.2695 165.44 31.3424 164.973 31.3424C164.37 31.3424 163.826 31.2015 163.342 30.9198C162.862 30.6348 162.48 30.2155 162.199 29.662C161.92 29.1052 161.781 28.4207 161.781 27.6087C161.781 26.7967 161.919 26.1007 162.194 25.5206C162.472 24.9406 162.853 24.4965 163.337 24.1883C163.821 23.8767 164.37 23.7209 164.983 23.7209C165.457 23.7209 165.839 23.8005 166.131 23.9596C166.423 24.1153 166.65 24.2976 166.812 24.5064C166.978 24.7152 167.106 24.8992 167.195 25.0583H167.304V23.8204H168.761V31.6258C168.761 32.282 168.609 32.8206 168.304 33.2415C167.999 33.6625 167.586 33.974 167.066 34.1762C166.549 34.3784 165.965 34.4795 165.316 34.4795ZM165.301 30.1094C165.728 30.1094 166.09 30.01 166.385 29.8111C166.683 29.609 166.908 29.3206 167.061 28.9461C167.217 28.5682 167.295 28.1158 167.295 27.5888C167.295 27.0751 167.218 26.6227 167.066 26.2316C166.913 25.8405 166.69 25.5356 166.395 25.3168C166.1 25.0947 165.735 24.9837 165.301 24.9837C164.853 24.9837 164.481 25.0997 164.182 25.3317C163.884 25.5604 163.659 25.872 163.506 26.2664C163.357 26.6608 163.282 27.1016 163.282 27.5888C163.282 28.0893 163.359 28.5285 163.511 28.9063C163.664 29.2841 163.889 29.5791 164.187 29.7912C164.489 30.0034 164.86 30.1094 165.301 30.1094ZM176.337 25.6847L174.99 25.9233C174.933 25.751 174.844 25.5869 174.721 25.4312C174.602 25.2754 174.44 25.1478 174.234 25.0483C174.029 24.9489 173.772 24.8992 173.463 24.8992C173.043 24.8992 172.691 24.9937 172.409 25.1826C172.128 25.3682 171.987 25.6085 171.987 25.9035C171.987 26.1587 172.081 26.3642 172.27 26.5199C172.459 26.6757 172.764 26.8033 173.185 26.9027L174.398 27.1812C175.101 27.3436 175.624 27.5938 175.969 27.9319C176.314 28.2699 176.486 28.7091 176.486 29.2493C176.486 29.7067 176.354 30.1144 176.088 30.4724C175.827 30.827 175.46 31.1054 174.99 31.3076C174.522 31.5098 173.981 31.6108 173.364 31.6108C172.509 31.6108 171.811 31.4286 171.271 31.064C170.731 30.6961 170.399 30.1741 170.277 29.4979L171.713 29.2792C171.803 29.6537 171.987 29.9371 172.265 30.1293C172.544 30.3182 172.907 30.4127 173.354 30.4127C173.841 30.4127 174.231 30.3116 174.522 30.1094C174.814 29.9039 174.96 29.6537 174.96 29.3587C174.96 29.1201 174.87 28.9196 174.691 28.7572C174.516 28.5947 174.246 28.4721 173.881 28.3893L172.588 28.1059C171.876 27.9435 171.349 27.6849 171.008 27.3303C170.669 26.9757 170.5 26.5266 170.5 25.983C170.5 25.5322 170.626 25.1378 170.878 24.7998C171.13 24.4617 171.478 24.1982 171.922 24.0093C172.366 23.817 172.875 23.7209 173.449 23.7209C174.274 23.7209 174.923 23.8999 175.397 24.2579C175.871 24.6125 176.185 25.0881 176.337 25.6847ZM188.213 21.2749H189.754V27.9716C189.754 28.6842 189.586 29.3156 189.252 29.8658C188.917 30.4127 188.446 30.8436 187.84 31.1584C187.233 31.47 186.522 31.6258 185.707 31.6258C184.895 31.6258 184.186 31.47 183.579 31.1584C182.973 30.8436 182.502 30.4127 182.167 29.8658C181.832 29.3156 181.665 28.6842 181.665 27.9716V21.2749H183.201V27.8474C183.201 28.3081 183.302 28.7174 183.504 29.0753C183.71 29.4333 184 29.715 184.375 29.9205C184.749 30.1227 185.193 30.2238 185.707 30.2238C186.224 30.2238 186.67 30.1227 187.044 29.9205C187.422 29.715 187.71 29.4333 187.909 29.0753C188.111 28.7174 188.213 28.3081 188.213 27.8474V21.2749ZM191.728 34.3204V23.8204H193.18V25.0583H193.304C193.39 24.8992 193.514 24.7152 193.677 24.5064C193.839 24.2976 194.065 24.1153 194.353 23.9596C194.641 23.8005 195.022 23.7209 195.496 23.7209C196.113 23.7209 196.663 23.8767 197.147 24.1883C197.631 24.4998 198.01 24.9489 198.285 25.5356C198.564 26.1222 198.703 26.8282 198.703 27.6535C198.703 28.4787 198.566 29.1864 198.29 29.7763C198.015 30.363 197.638 30.8154 197.157 31.1336C196.676 31.4484 196.128 31.6059 195.511 31.6059C195.047 31.6059 194.668 31.528 194.373 31.3722C194.081 31.2164 193.852 31.0341 193.687 30.8253C193.521 30.6165 193.393 30.4309 193.304 30.2685H193.214V34.3204H191.728ZM193.185 27.6385C193.185 28.1755 193.263 28.6461 193.418 29.0505C193.574 29.4548 193.799 29.7714 194.094 30.0001C194.389 30.2254 194.751 30.3381 195.178 30.3381C195.622 30.3381 195.994 30.2205 196.292 29.9851C196.59 29.7465 196.816 29.4233 196.968 29.0157C197.124 28.608 197.202 28.149 197.202 27.6385C197.202 27.1348 197.125 26.6823 196.973 26.2813C196.824 25.8803 196.598 25.5637 196.297 25.3317C195.999 25.0997 195.626 24.9837 195.178 24.9837C194.747 24.9837 194.383 25.0947 194.084 25.3168C193.789 25.5389 193.566 25.8488 193.413 26.2465C193.261 26.6442 193.185 27.1082 193.185 27.6385ZM203.087 31.6059C202.471 31.6059 201.921 31.4484 201.437 31.1336C200.956 30.8154 200.578 30.363 200.303 29.7763C200.031 29.1864 199.895 28.4787 199.895 27.6535C199.895 26.8282 200.033 26.1222 200.308 25.5356C200.587 24.9489 200.968 24.4998 201.452 24.1883C201.935 23.8767 202.484 23.7209 203.097 23.7209C203.571 23.7209 203.952 23.8005 204.241 23.9596C204.532 24.1153 204.758 24.2976 204.917 24.5064C205.079 24.7152 205.205 24.8992 205.295 25.0583H205.384V21.2749H206.871V31.4567H205.419V30.2685H205.295C205.205 30.4309 205.076 30.6165 204.907 30.8253C204.741 31.0341 204.512 31.2164 204.221 31.3722C203.929 31.528 203.551 31.6059 203.087 31.6059ZM203.415 30.3381C203.843 30.3381 204.204 30.2254 204.499 30.0001C204.797 29.7714 205.023 29.4548 205.175 29.0505C205.331 28.6461 205.409 28.1755 205.409 27.6385C205.409 27.1082 205.333 26.6442 205.18 26.2465C205.028 25.8488 204.804 25.5389 204.509 25.3168C204.214 25.0947 203.85 24.9837 203.415 24.9837C202.968 24.9837 202.595 25.0997 202.297 25.3317C201.998 25.5637 201.773 25.8803 201.621 26.2813C201.471 26.6823 201.397 27.1348 201.397 27.6385C201.397 28.149 201.473 28.608 201.626 29.0157C201.778 29.4233 202.003 29.7465 202.302 29.9851C202.603 30.2205 202.975 30.3381 203.415 30.3381ZM211.711 31.6059C211.094 31.6059 210.544 31.4484 210.06 31.1336C209.58 30.8154 209.202 30.363 208.927 29.7763C208.655 29.1864 208.519 28.4787 208.519 27.6535C208.519 26.8282 208.657 26.1222 208.932 25.5356C209.21 24.9489 209.591 24.4998 210.075 24.1883C210.559 23.8767 211.108 23.7209 211.721 23.7209C212.195 23.7209 212.576 23.8005 212.864 23.9596C213.156 24.1153 213.381 24.2976 213.54 24.5064C213.703 24.7152 213.829 24.8992 213.918 25.0583H214.008V23.8204H215.494V31.4567H214.043V30.2685H213.918C213.829 30.4309 213.7 30.6165 213.531 30.8253C213.365 31.0341 213.136 31.2164 212.844 31.3722C212.553 31.528 212.175 31.6059 211.711 31.6059ZM212.039 30.3381C212.467 30.3381 212.828 30.2254 213.123 30.0001C213.421 29.7714 213.647 29.4548 213.799 29.0505C213.955 28.6461 214.033 28.1755 214.033 27.6385C214.033 27.1082 213.956 26.6442 213.804 26.2465C213.651 25.8488 213.428 25.5389 213.133 25.3168C212.838 25.0947 212.473 24.9837 212.039 24.9837C211.592 24.9837 211.219 25.0997 210.92 25.3317C210.622 25.5637 210.397 25.8803 210.244 26.2813C210.095 26.6823 210.021 27.1348 210.021 27.6385C210.021 28.149 210.097 28.608 210.249 29.0157C210.402 29.4233 210.627 29.7465 210.925 29.9851C211.227 30.2205 211.598 30.3381 212.039 30.3381ZM221.041 23.8204V25.0135H216.869V23.8204H221.041ZM217.988 21.9908H219.474V29.2145C219.474 29.5029 219.518 29.72 219.604 29.8658C219.69 30.0083 219.801 30.1061 219.937 30.1591C220.076 30.2089 220.227 30.2337 220.389 30.2337C220.509 30.2337 220.613 30.2254 220.702 30.2089C220.792 30.1923 220.862 30.179 220.911 30.1691L221.18 31.3971C221.094 31.4302 220.971 31.4634 220.812 31.4965C220.653 31.533 220.454 31.5528 220.215 31.5562C219.824 31.5628 219.46 31.4932 219.122 31.3474C218.783 31.2015 218.51 30.9761 218.301 30.6712C218.092 30.3663 217.988 29.9835 217.988 29.5228V21.9908ZM225.754 31.6108C225.002 31.6108 224.354 31.4501 223.81 31.1286C223.27 30.8038 222.852 30.3481 222.557 29.7614C222.266 29.1715 222.12 28.4804 222.12 27.6883C222.12 26.9061 222.266 26.2167 222.557 25.6201C222.852 25.0235 223.263 24.5578 223.79 24.2231C224.321 23.8883 224.94 23.7209 225.65 23.7209C226.081 23.7209 226.498 23.7922 226.902 23.9347C227.307 24.0772 227.67 24.3009 227.991 24.6059C228.313 24.9108 228.566 25.3069 228.752 25.7941C228.938 26.278 229.03 26.8663 229.03 27.559V28.086H222.96V26.9724H227.574C227.574 26.5813 227.494 26.2349 227.335 25.9333C227.176 25.6284 226.952 25.3881 226.664 25.2124C226.379 25.0367 226.044 24.9489 225.66 24.9489C225.242 24.9489 224.877 25.0517 224.566 25.2572C224.258 25.4593 224.019 25.7245 223.85 26.0526C223.684 26.3774 223.601 26.7304 223.601 27.1116V27.9816C223.601 28.492 223.691 28.9262 223.87 29.2841C224.052 29.6421 224.306 29.9155 224.63 30.1045C224.955 30.2901 225.335 30.3829 225.769 30.3829C226.051 30.3829 226.308 30.3431 226.54 30.2635C226.772 30.1807 226.972 30.0581 227.141 29.8956C227.31 29.7332 227.439 29.5327 227.529 29.2941L228.936 29.5476C228.823 29.9619 228.621 30.3249 228.329 30.6364C228.041 30.9447 227.678 31.1849 227.241 31.3573C226.806 31.5263 226.311 31.6108 225.754 31.6108ZM233.398 31.6059C232.782 31.6059 232.232 31.4484 231.748 31.1336C231.267 30.8154 230.889 30.363 230.614 29.7763C230.342 29.1864 230.207 28.4787 230.207 27.6535C230.207 26.8282 230.344 26.1222 230.619 25.5356C230.898 24.9489 231.279 24.4998 231.763 24.1883C232.247 23.8767 232.795 23.7209 233.408 23.7209C233.882 23.7209 234.263 23.8005 234.552 23.9596C234.843 24.1153 235.069 24.2976 235.228 24.5064C235.39 24.7152 235.516 24.8992 235.606 25.0583H235.695V21.2749H237.182V31.4567H235.73V30.2685H235.606C235.516 30.4309 235.387 30.6165 235.218 30.8253C235.052 31.0341 234.824 31.2164 234.532 31.3722C234.24 31.528 233.862 31.6059 233.398 31.6059ZM233.726 30.3381C234.154 30.3381 234.515 30.2254 234.81 30.0001C235.109 29.7714 235.334 29.4548 235.486 29.0505C235.642 28.6461 235.72 28.1755 235.72 27.6385C235.72 27.1082 235.644 26.6442 235.491 26.2465C235.339 25.8488 235.115 25.5389 234.82 25.3168C234.525 25.0947 234.161 24.9837 233.726 24.9837C233.279 24.9837 232.906 25.0997 232.608 25.3317C232.31 25.5637 232.084 25.8803 231.932 26.2813C231.783 26.6823 231.708 27.1348 231.708 27.6385C231.708 28.149 231.784 28.608 231.937 29.0157C232.089 29.4233 232.315 29.7465 232.613 29.9851C232.914 30.2205 233.286 30.3381 233.726 30.3381Z" fill="white"/>
<defs>
<filter id="filter0_d_201_4548" x="35" y="57.1094" width="24" height="24" filterUnits="userSpaceOnUse" color-interpolation-filters="sRGB">
<feFlood flood-opacity="0" result="BackgroundImageFix"/>
<feColorMatrix in="SourceAlpha" type="matrix" values="0 0 0 0 0 0 0 0 0 0 0 0 0 0 0 0 0 0 127 0" result="hardAlpha"/>
<feOffset dy="2"/>
<feGaussianBlur stdDeviation="2"/>
<feComposite in2="hardAlpha" operator="out"/>
<feColorMatrix type="matrix" values="0 0 0 0 0.152941 0 0 0 0 0.152941 0 0 0 0 0.152941 0 0 0 0.1 0"/>
<feBlend mode="normal" in2="BackgroundImageFix" result="effect1_dropShadow_201_4548"/>
<feBlend mode="normal" in="SourceGraphic" in2="effect1_dropShadow_201_4548" result="shape"/>
</filter>
<linearGradient id="paint0_linear_201_4548" x1="11" y1="30.6094" x2="95" y2="30.6094" gradientUnits="userSpaceOnUse">
<stop stop-color="#00C153" stop-opacity="0"/>
<stop offset="1" stop-color="#00C153"/>
</linearGradient>
<linearGradient id="paint1_linear_201_4548" x1="333" y1="29.6094" x2="249" y2="29.6094" gradientUnits="userSpaceOnUse">
<stop stop-color="#00C153" stop-opacity="0"/>
<stop offset="1" stop-color="#00C153"/>
</linearGradient>
</defs>
</svg>
