<svg width="367" height="170" viewBox="0 0 367 170" fill="none" xmlns="http://www.w3.org/2000/svg">
<path d="M0.5 35C0.5 26.9919 6.99187 20.5 15 20.5H352C360.008 20.5 366.5 26.9919 366.5 35V169.5H0.5V35Z" fill="white" stroke="#EEEEEE"/>
<rect x="14" y="34" width="37" height="37" rx="10" fill="#1675FF"/>
<rect x="65" y="39" width="231" height="12" rx="2" fill="#EEEEEE"/>
<rect x="19" y="125" width="230" height="18" rx="2.83983" fill="#1675FF"/>
<rect x="20" y="126" width="228" height="16" rx="1.83983" stroke="black" stroke-opacity="0.1" stroke-width="2"/>
<rect width="50" height="18" rx="2.83983" transform="matrix(-1 0 0 1 304 125)" fill="#00C1D1"/>
<rect x="-1" y="1" width="48" height="16" rx="1.83983" transform="matrix(-1 0 0 1 302 125)" stroke="black" stroke-opacity="0.1" stroke-width="2"/>
<rect width="39" height="18" rx="2.83983" transform="matrix(-1 0 0 1 348 125)" fill="#00C153"/>
<rect x="-1" y="1" width="37" height="16" rx="1.83983" transform="matrix(-1 0 0 1 346 125)" stroke="black" stroke-opacity="0.1" stroke-width="2"/>
<rect x="65" y="56" width="73" height="9" rx="2" fill="#EEEEEE"/>
<rect opacity="0.25" x="229" y="96" width="43" height="17" rx="2" fill="#00C153"/>
<rect opacity="0.25" x="233" y="100" width="35" height="9" rx="1" fill="#00C153"/>
<rect x="143" y="56" width="31" height="9" rx="2" fill="#EEEEEE"/>
<rect x="277" y="100" width="27" height="9" rx="2" fill="#EEEEEE"/>
<rect x="179" y="56" width="45" height="9" rx="2" fill="#EEEEEE"/>
<rect x="309" y="100" width="39" height="9" rx="2" fill="#EEEEEE"/>
<path d="M26.2443 61.3774C25.0452 61.3774 24.073 60.3798 24.073 59.148V50.1878C24.073 49.5109 24.3733 48.8696 24.8874 48.4471L30.8598 43.5425C31.2414 43.2265 31.7213 43.0536 32.2168 43.0536C32.7122 43.0536 33.1922 43.2265 33.5737 43.5425L39.5452 48.4471C40.0603 48.8696 40.3606 49.5109 40.3606 50.1878V59.148C40.3606 60.3798 39.3884 61.3774 38.1892 61.3774H26.2443Z" fill="white" stroke="white" stroke-width="0.964396" stroke-linecap="round" stroke-linejoin="round"/>
<path d="M29.6702 61.3775V55.7786C29.6702 55.2387 29.8847 54.7208 30.2665 54.339C30.6483 53.9572 31.1661 53.7427 31.7061 53.7427H32.7241C33.2641 53.7427 33.7819 53.9572 34.1637 54.339C34.5455 54.7208 34.76 55.2387 34.76 55.7786V61.3775" fill="#1675FF"/>
<path d="M29.6702 61.3775V55.7786C29.6702 55.2387 29.8847 54.7208 30.2665 54.339C30.6483 53.9572 31.1661 53.7427 31.7061 53.7427H32.7241C33.2641 53.7427 33.7819 53.9572 34.1637 54.339C34.5455 54.7208 34.76 55.2387 34.76 55.7786V61.3775" stroke="white" stroke-width="0.964396" stroke-linecap="round" stroke-linejoin="round"/>
<circle cx="23.5" cy="155.5" r="4.5" fill="#1675FF"/>
<rect x="33" y="152" width="59" height="7" rx="2" fill="#EEEEEE"/>
<circle cx="106.5" cy="155.5" r="4.5" fill="#00C1D1"/>
<rect x="116" y="152" width="30" height="7" rx="2" fill="#EEEEEE"/>
<circle cx="160.5" cy="155.5" r="4.5" fill="#00C153"/>
<rect x="170" y="152" width="36" height="7" rx="2" fill="#EEEEEE"/>
<rect x="211" y="152" width="17" height="7" rx="2" fill="#EEEEEE"/>
<path d="M14 83L354 83" stroke="#EEEEEE"/>
<path d="M26.2088 96.4545V111H23.5739V99.0185H23.4886L20.0866 101.192V98.777L23.7017 96.4545H26.2088ZM35.0784 111.277C33.9089 111.277 32.9051 110.981 32.067 110.389C31.2337 109.793 30.5921 108.933 30.1423 107.811C29.6973 106.684 29.4747 105.328 29.4747 103.741C29.4795 102.155 29.7044 100.806 30.1494 99.6932C30.5992 98.5758 31.2408 97.7235 32.0741 97.1364C32.9122 96.5492 33.9136 96.2557 35.0784 96.2557C36.2432 96.2557 37.2446 96.5492 38.0827 97.1364C38.9207 97.7235 39.5623 98.5758 40.0074 99.6932C40.4572 100.811 40.6821 102.16 40.6821 103.741C40.6821 105.332 40.4572 106.691 40.0074 107.818C39.5623 108.94 38.9207 109.797 38.0827 110.389C37.2493 110.981 36.2479 111.277 35.0784 111.277ZM35.0784 109.054C35.9875 109.054 36.7048 108.607 37.2304 107.712C37.7607 106.812 38.0259 105.489 38.0259 103.741C38.0259 102.586 37.9051 101.616 37.6636 100.83C37.4222 100.044 37.0813 99.4517 36.6409 99.054C36.2006 98.6515 35.6797 98.4503 35.0784 98.4503C34.1741 98.4503 33.4591 98.9001 32.9335 99.7997C32.408 100.695 32.1428 102.009 32.1381 103.741C32.1333 104.902 32.2493 105.877 32.4861 106.668C32.7276 107.458 33.0685 108.055 33.5088 108.457C33.9491 108.855 34.4723 109.054 35.0784 109.054ZM48.2183 111.277C47.0487 111.277 46.045 110.981 45.2069 110.389C44.3736 109.793 43.732 108.933 43.2822 107.811C42.8371 106.684 42.6146 105.328 42.6146 103.741C42.6193 102.155 42.8442 100.806 43.2893 99.6932C43.7391 98.5758 44.3807 97.7235 45.214 97.1364C46.0521 96.5492 47.0535 96.2557 48.2183 96.2557C49.383 96.2557 50.3844 96.5492 51.2225 97.1364C52.0606 97.7235 52.7022 98.5758 53.1472 99.6932C53.597 100.811 53.8219 102.16 53.8219 103.741C53.8219 105.332 53.597 106.691 53.1472 107.818C52.7022 108.94 52.0606 109.797 51.2225 110.389C50.3892 110.981 49.3878 111.277 48.2183 111.277ZM48.2183 109.054C49.1273 109.054 49.8447 108.607 50.3702 107.712C50.9005 106.812 51.1657 105.489 51.1657 103.741C51.1657 102.586 51.045 101.616 50.8035 100.83C50.562 100.044 50.2211 99.4517 49.7808 99.054C49.3404 98.6515 48.8196 98.4503 48.2183 98.4503C47.3139 98.4503 46.5989 98.9001 46.0734 99.7997C45.5478 100.695 45.2826 102.009 45.2779 103.741C45.2732 104.902 45.3892 105.877 45.6259 106.668C45.8674 107.458 46.2083 108.055 46.6487 108.457C47.089 108.855 47.6122 109.054 48.2183 109.054ZM56.1237 96.4545H59.3482L63.6663 106.994H63.8368L68.155 96.4545H71.3794V111H68.851V101.007H68.7161L64.6962 110.957H62.807L58.7871 100.986H58.6521V111H56.1237V96.4545ZM78.2249 108.67V98.8409H80.455V108.67H78.2249ZM74.4251 104.871V102.641H84.2547V104.871H74.4251Z" fill="#222222"/>
</svg>
