<svg width="427" height="189" viewBox="0 0 427 189" fill="none" xmlns="http://www.w3.org/2000/svg">
<mask id="mask0_79_3004" style="mask-type:alpha" maskUnits="userSpaceOnUse" x="0" y="0" width="427" height="189">
<rect opacity="0.75" width="427" height="189" rx="10" fill="url(#paint0_linear_79_3004)"/>
</mask>
<g mask="url(#mask0_79_3004)">
<g opacity="0.25">
<rect x="-5.47769" y="-21.5597" width="48.0525" height="48.0525" stroke="#16D857" stroke-width="1.04462"/>
<rect x="42.5749" y="-21.5597" width="49.0972" height="48.0525" stroke="#16D857" stroke-width="1.04462"/>
<rect x="91.672" y="-21.5597" width="48.0525" height="48.0525" stroke="#16D857" stroke-width="1.04462"/>
<rect x="139.725" y="-21.5597" width="49.0972" height="48.0525" stroke="#16D857" stroke-width="1.04462"/>
<rect x="188.822" y="-21.5597" width="48.0525" height="48.0525" stroke="#16D857" stroke-width="1.04462"/>
<rect x="236.874" y="-21.5597" width="49.0972" height="48.0525" stroke="#16D857" stroke-width="1.04462"/>
<rect x="285.971" y="-21.5597" width="48.0525" height="48.0525" stroke="#16D857" stroke-width="1.04462"/>
<rect x="334.024" y="-21.5597" width="49.0972" height="48.0525" stroke="#16D857" stroke-width="1.04462"/>
<rect x="383.121" y="-21.5597" width="48.0525" height="48.0525" stroke="#16D857" stroke-width="1.04462"/>
<rect x="-5.47769" y="26.5124" width="48.0525" height="48.0525" stroke="#16D857" stroke-width="1.04462"/>
<rect x="42.5749" y="26.5124" width="49.0972" height="48.0525" stroke="#16D857" stroke-width="1.04462"/>
<rect x="91.672" y="26.5124" width="48.0525" height="48.0525" stroke="#16D857" stroke-width="1.04462"/>
<rect x="139.725" y="26.5124" width="49.0972" height="48.0525" stroke="#16D857" stroke-width="1.04462"/>
<rect x="188.822" y="26.5124" width="48.0525" height="48.0525" fill="url(#paint1_linear_79_3004)" stroke="#16D857" stroke-width="1.04462"/>
<rect x="236.874" y="26.5124" width="49.0972" height="48.0525" stroke="#16D857" stroke-width="1.04462"/>
<rect x="285.971" y="26.5124" width="48.0525" height="48.0525" stroke="#16D857" stroke-width="1.04462"/>
<rect x="334.024" y="26.5124" width="49.0972" height="48.0525" stroke="#16D857" stroke-width="1.04462"/>
<rect x="383.121" y="26.5124" width="48.0525" height="48.0525" stroke="#16D857" stroke-width="1.04462"/>
<rect x="-5.47769" y="74.5844" width="48.0525" height="48.0525" stroke="#16D857" stroke-width="1.04462"/>
<rect x="42.5749" y="74.5844" width="49.0972" height="48.0525" fill="url(#paint2_linear_79_3004)" stroke="#16D857" stroke-width="1.04462"/>
<rect x="91.672" y="74.5844" width="48.0525" height="48.0525" stroke="#16D857" stroke-width="1.04462"/>
<rect x="139.725" y="74.5844" width="49.0972" height="48.0525" stroke="#16D857" stroke-width="1.04462"/>
<rect x="188.822" y="74.5844" width="48.0525" height="48.0525" stroke="#16D857" stroke-width="1.04462"/>
<rect x="236.874" y="74.5844" width="49.0972" height="48.0525" stroke="#16D857" stroke-width="1.04462"/>
<rect x="285.971" y="74.5844" width="48.0525" height="48.0525" stroke="#16D857" stroke-width="1.04462"/>
<rect x="334.024" y="74.5844" width="49.0972" height="48.0525" fill="url(#paint3_linear_79_3004)" stroke="#16D857" stroke-width="1.04462"/>
<rect x="383.121" y="74.5844" width="48.0525" height="48.0525" stroke="#16D857" stroke-width="1.04462"/>
<rect x="-5.47769" y="122.657" width="48.0525" height="48.0525" stroke="#16D857" stroke-width="1.04462"/>
<rect x="42.5749" y="122.657" width="49.0972" height="48.0525" stroke="#16D857" stroke-width="1.04462"/>
<rect x="91.672" y="122.657" width="48.0525" height="48.0525" stroke="#16D857" stroke-width="1.04462"/>
<rect x="139.725" y="122.657" width="49.0972" height="48.0525" stroke="#16D857" stroke-width="1.04462"/>
<rect x="188.822" y="122.657" width="48.0525" height="48.0525" stroke="#16D857" stroke-width="1.04462"/>
<rect x="236.874" y="122.657" width="49.0972" height="48.0525" stroke="#16D857" stroke-width="1.04462"/>
<rect x="285.971" y="122.657" width="48.0525" height="48.0525" stroke="#16D857" stroke-width="1.04462"/>
<rect x="334.024" y="122.657" width="49.0972" height="48.0525" stroke="#16D857" stroke-width="1.04462"/>
<rect x="383.121" y="122.657" width="48.0525" height="48.0525" stroke="#16D857" stroke-width="1.04462"/>
</g>
</g>
<defs>
<linearGradient id="paint0_linear_79_3004" x1="213.5" y1="0" x2="213.5" y2="151" gradientUnits="userSpaceOnUse">
<stop stop-color="#FAFAFA"/>
<stop offset="1" stop-color="#949494" stop-opacity="0"/>
</linearGradient>
<linearGradient id="paint1_linear_79_3004" x1="212.848" y1="25.9901" x2="212.848" y2="75.0872" gradientUnits="userSpaceOnUse">
<stop stop-color="#16D857"/>
<stop offset="1" stop-color="#16D857" stop-opacity="0"/>
</linearGradient>
<linearGradient id="paint2_linear_79_3004" x1="67.1234" y1="74.0621" x2="67.1234" y2="123.159" gradientUnits="userSpaceOnUse">
<stop stop-color="#16D857"/>
<stop offset="1" stop-color="#16D857" stop-opacity="0"/>
</linearGradient>
<linearGradient id="paint3_linear_79_3004" x1="358.572" y1="74.0621" x2="358.572" y2="123.159" gradientUnits="userSpaceOnUse">
<stop stop-color="#16D857"/>
<stop offset="1" stop-color="#16D857" stop-opacity="0"/>
</linearGradient>
</defs>
</svg>
