<svg width="589" height="501" viewBox="0 0 589 501" fill="none" xmlns="http://www.w3.org/2000/svg">
<rect y="0.0351562" width="589" height="500" fill="#00C655"/>
<mask id="mask0_323_5136" style="mask-type:alpha" maskUnits="userSpaceOnUse" x="0" y="0" width="589" height="500">
<rect x="0.5" y="0.5" width="588" height="499" rx="9.5" fill="#00C655" stroke="#EEEEEE"/>
</mask>
<g mask="url(#mask0_323_5136)">
<circle opacity="0.25" cx="295" cy="17.9648" r="185.5" fill="white" fill-opacity="0.25" stroke="white"/>
<circle opacity="0.25" cx="295" cy="17.9648" r="276.5" fill="white" fill-opacity="0.25" stroke="white"/>
<circle opacity="0.25" cx="295" cy="17.9648" r="369.5" fill="white" fill-opacity="0.25" stroke="white"/>
<circle opacity="0.25" cx="295" cy="7.96484" r="461.5" fill="white" fill-opacity="0.25" stroke="white"/>
</g>
<rect x="74.5" y="80.5" width="441" height="339" rx="14.5" fill="white" stroke="#EEEEEE"/>
<path d="M98 168H493" stroke="#EEEEEE"/>
<rect x="98" y="106" width="44" height="44" rx="8" fill="url(#paint0_linear_323_5136)"/>
<path d="M111.512 118.389L113.186 114.309H126.056C127.834 114.553 131.392 116.129 131.392 120.482C131.392 124.446 128.557 126.223 126.759 126.746C126.434 126.841 126.094 126.864 125.756 126.864H116.953L118.836 122.575H125.353C125.541 122.575 125.73 122.55 125.902 122.471C126.488 122.202 127.311 121.561 127.311 120.482C127.311 119.403 126.488 118.762 125.902 118.492C125.73 118.414 125.541 118.389 125.353 118.389H111.512Z" fill="white"/>
<path d="M118.437 119.607H113.833L108.602 132.163H117.495L113.624 141.999L127.54 127.978H114.984L118.437 119.607Z" fill="white"/>
<rect x="154" y="112" width="210" height="14" rx="7" fill="#EEEEEE"/>
<rect x="137" y="280" width="205" height="14" rx="7" fill="#EEEEEE"/>
<rect x="137" y="344" width="205" height="14" rx="7" fill="#EEEEEE"/>
<rect x="154" y="131" width="52" height="12" rx="6" fill="#EEEEEE"/>
<rect opacity="0.5" x="137" y="299" width="51" height="12" rx="6" fill="#EEEEEE"/>
<rect opacity="0.5" x="137" y="363" width="51" height="12" rx="6" fill="#EEEEEE"/>
<rect opacity="0.5" width="51" height="12" rx="6" transform="matrix(-1 0 0 1 468 316)" fill="#EEEEEE"/>
<rect opacity="0.5" width="51" height="12" rx="6" transform="matrix(-1 0 0 1 468 380)" fill="#EEEEEE"/>
<rect x="133" y="187" width="73" height="12" rx="6" fill="#EEEEEE"/>
<rect x="257" y="187" width="36" height="12" rx="6" fill="#EEEEEE"/>
<rect x="296" y="187" width="51" height="12" rx="6" fill="#EEEEEE"/>
<rect x="212" y="131" width="31" height="12" rx="6" fill="#EEEEEE"/>
<rect opacity="0.5" x="194" y="299" width="30" height="12" rx="6" fill="#EEEEEE"/>
<rect opacity="0.5" x="194" y="363" width="30" height="12" rx="6" fill="#EEEEEE"/>
<rect opacity="0.5" width="30" height="12" rx="6" transform="matrix(-1 0 0 1 411 316)" fill="#EEEEEE"/>
<rect opacity="0.5" width="30" height="12" rx="6" transform="matrix(-1 0 0 1 411 380)" fill="#EEEEEE"/>
<rect opacity="0.5" x="230" y="299" width="154" height="12" rx="6" fill="#EEEEEE"/>
<rect opacity="0.5" x="230" y="363" width="154" height="12" rx="6" fill="#EEEEEE"/>
<rect opacity="0.5" width="154" height="12" rx="6" transform="matrix(-1 0 0 1 375 316)" fill="#EEEEEE"/>
<rect opacity="0.5" width="154" height="12" rx="6" transform="matrix(-1 0 0 1 375 380)" fill="#EEEEEE"/>
<rect opacity="0.5" x="390" y="299" width="78" height="12" rx="6" fill="#EEEEEE"/>
<rect opacity="0.5" x="390" y="363" width="78" height="12" rx="6" fill="#EEEEEE"/>
<rect opacity="0.5" width="78" height="12" rx="6" transform="matrix(-1 0 0 1 215 316)" fill="#EEEEEE"/>
<rect opacity="0.5" width="78" height="12" rx="6" transform="matrix(-1 0 0 1 215 380)" fill="#EEEEEE"/>
<rect x="102" y="181" width="24" height="24" rx="5" fill="#00C153"/>
<rect x="226" y="181" width="24" height="24" rx="5" fill="#00C153"/>
<path d="M111.959 193C112.442 193 112.834 192.608 112.834 192.125C112.834 191.642 112.442 191.25 111.959 191.25C111.476 191.25 111.084 191.642 111.084 192.125C111.084 192.608 111.476 193 111.959 193Z" stroke="white" stroke-width="0.875"/>
<path d="M115.459 195.916C115.942 195.916 116.334 195.524 116.334 195.041C116.334 194.558 115.942 194.166 115.459 194.166C114.976 194.166 114.584 194.558 114.584 195.041C114.584 195.524 114.976 195.916 115.459 195.916Z" stroke="white" stroke-width="0.875"/>
<path d="M117.791 191.25C118.274 191.25 118.666 190.858 118.666 190.375C118.666 189.892 118.274 189.5 117.791 189.5C117.308 189.5 116.916 189.892 116.916 190.375C116.916 190.858 117.308 191.25 117.791 191.25Z" stroke="white" stroke-width="0.875"/>
<path d="M116.003 194.34L117.5 191.25M112.59 192.748L114.702 194.34M108.75 197.083L111.427 192.93" stroke="white" stroke-width="0.875" stroke-linecap="round" stroke-linejoin="round"/>
<path d="M118.666 198.25H112.249C110.324 198.25 109.362 198.25 108.764 197.652C108.166 197.054 108.166 196.092 108.166 194.167V187.75" stroke="white" stroke-width="0.875" stroke-linecap="round"/>
<rect x="102" y="229" width="391" height="32" rx="16" fill="#EEEEEE" fill-opacity="0.25"/>
<rect x="102.5" y="229.5" width="390" height="31" rx="15.5" stroke="#1A1A1A" stroke-opacity="0.05"/>
<g clip-path="url(#clip0_323_5136)">
<path d="M483.04 245.166C483.04 244.646 482.993 244.146 482.907 243.666H476V246.506H479.947C479.773 247.419 479.253 248.193 478.473 248.713V250.559H480.853C482.24 249.279 483.04 247.399 483.04 245.166Z" fill="#4285F4"/>
<path d="M476 252.334C477.98 252.334 479.64 251.68 480.853 250.56L478.473 248.714C477.82 249.154 476.986 249.42 476 249.42C474.093 249.42 472.473 248.134 471.893 246.4H469.453V248.294C470.66 250.687 473.133 252.334 476 252.334Z" fill="#34A853"/>
<path d="M471.893 246.393C471.746 245.953 471.659 245.486 471.659 245C471.659 244.513 471.746 244.046 471.893 243.606V241.713H469.453C468.953 242.7 468.666 243.813 468.666 245C468.666 246.186 468.953 247.3 469.453 248.286L471.353 246.806L471.893 246.393Z" fill="#FBBC05"/>
<path d="M476 240.586C477.08 240.586 478.04 240.959 478.806 241.679L480.906 239.579C479.633 238.393 477.98 237.666 476 237.666C473.133 237.666 470.66 239.313 469.453 241.713L471.893 243.606C472.473 241.873 474.093 240.586 476 240.586Z" fill="#EA4335"/>
</g>
<path d="M126.209 248.209L128.834 250.834" stroke="#1A1A1A" stroke-width="0.875" stroke-linecap="round" stroke-linejoin="round"/>
<path d="M127.666 244.416C127.666 241.517 125.316 239.166 122.416 239.166C119.517 239.166 117.166 241.517 117.166 244.416C117.166 247.316 119.517 249.666 122.416 249.666C125.316 249.666 127.666 247.316 127.666 244.416Z" stroke="#1A1A1A" stroke-width="0.875" stroke-linejoin="round"/>
<path d="M240.916 195.917V193.584" stroke="white" stroke-width="0.875" stroke-linecap="round"/>
<path d="M238 195.917V190.084" stroke="white" stroke-width="0.875" stroke-linecap="round"/>
<path d="M235.084 195.916V192.416" stroke="white" stroke-width="0.875" stroke-linecap="round"/>
<path d="M243.541 193.001C243.541 190.388 243.541 189.082 242.729 188.271C241.918 187.459 240.612 187.459 237.999 187.459C235.387 187.459 234.081 187.459 233.269 188.271C232.458 189.082 232.458 190.388 232.458 193.001C232.458 195.613 232.458 196.919 233.269 197.731C234.081 198.542 235.387 198.542 237.999 198.542C240.612 198.542 241.918 198.542 242.729 197.731C243.541 196.919 243.541 195.613 243.541 193.001Z" stroke="white" stroke-width="0.875" stroke-linejoin="round"/>
<rect opacity="0.5" x="102" y="280" width="28" height="28" rx="5" fill="#00C153"/>
<rect opacity="0.75" x="102" y="344" width="28" height="28" rx="5" fill="#00C153"/>
<g style="mix-blend-mode:multiply" opacity="0.15">
<rect x="74" y="80" width="443" height="340" rx="15" fill="url(#paint1_linear_323_5136)"/>
</g>
<rect x="32.5" y="376.5" width="149" height="74" rx="14.5" fill="white" stroke="#EEEEEE"/>
<rect opacity="0.5" x="42" y="389" width="51" height="12" rx="6" fill="#EEEEEE"/>
<rect opacity="0.5" x="99" y="389" width="30" height="12" rx="6" fill="#EEEEEE"/>
<rect opacity="0.5" x="42" y="411" width="30" height="25" rx="12.5" fill="#EEEEEE"/>
<rect x="397.5" y="51.5" width="149" height="46" rx="14.5" fill="white" stroke="#EEEEEE"/>
<rect x="419" y="67.9336" width="42.4" height="14.1333" rx="7.06667" fill="#EEEEEE"/>
<rect x="464.934" y="67.9336" width="60.0667" height="14.1333" rx="7.06667" fill="#EEEEEE"/>
<path d="M165 395C165 392.239 162.761 390 160 390C157.239 390 155 392.239 155 395C155 397.761 157.239 400 160 400C162.761 400 165 397.761 165 395Z" stroke="#00C153" stroke-width="0.75"/>
<path d="M160.121 397.5V395C160.121 394.764 160.121 394.646 160.048 394.573C159.975 394.5 159.857 394.5 159.621 394.5" stroke="#00C153" stroke-width="0.75" stroke-linecap="round" stroke-linejoin="round"/>
<path d="M159.996 393H160.001" stroke="#00C153" stroke-linecap="round" stroke-linejoin="round"/>
<rect x="93" y="411" width="7" height="25" rx="3.5" fill="#00C153"/>
<rect x="104" y="411" width="7" height="25" rx="3.5" fill="#00C153"/>
<rect x="115" y="411" width="7" height="25" rx="3.5" fill="#00C153"/>
<rect x="126" y="411" width="7" height="25" rx="3.5" fill="#00C153"/>
<rect x="137" y="411" width="7" height="25" rx="3.5" fill="#00C153"/>
<rect x="148" y="411" width="7" height="25" rx="3.5" fill="#00C153"/>
<rect opacity="0.25" x="159" y="411" width="7" height="25" rx="3.5" fill="#00C153"/>
<rect x="356.5" y="276.5" width="213" height="131" rx="14.5" fill="white" stroke="#EEEEEE"/>
<rect opacity="0.5" x="369" y="290" width="51" height="12" rx="6" fill="#EEEEEE"/>
<rect opacity="0.5" x="426" y="290" width="30" height="12" rx="6" fill="#EEEEEE"/>
<rect opacity="0.5" x="369" y="316" width="30" height="12" rx="6" fill="#EEEEEE"/>
<rect opacity="0.1" x="404" y="316" width="141" height="12" rx="6" fill="#00C153"/>
<path d="M404 322C404 318.686 406.686 316 410 316H475V328H410C406.686 328 404 325.314 404 322V322Z" fill="#00C153"/>
<rect opacity="0.1" x="404" y="338" width="141" height="12" rx="6" fill="#00C153"/>
<path d="M404 344C404 340.686 406.686 338 410 338H514V350H410C406.686 350 404 347.314 404 344V344Z" fill="#00C153"/>
<rect opacity="0.1" x="404" y="360" width="141" height="12" rx="6" fill="#00C153"/>
<path d="M404 366C404 362.686 406.686 360 410 360H449V372H410C406.686 372 404 369.314 404 366V366Z" fill="#00C153"/>
<rect opacity="0.1" x="404" y="382" width="141" height="12" rx="6" fill="#00C153"/>
<path d="M404 388C404 384.686 406.686 382 410 382H536V394H410C406.686 394 404 391.314 404 388V388Z" fill="#00C153"/>
<rect opacity="0.5" x="369" y="338" width="30" height="12" rx="6" fill="#EEEEEE"/>
<rect opacity="0.5" x="369" y="360" width="30" height="12" rx="6" fill="#EEEEEE"/>
<rect opacity="0.5" x="369" y="382" width="30" height="12" rx="6" fill="#EEEEEE"/>
<path d="M556 296C556 293.239 553.761 291 551 291C548.239 291 546 293.239 546 296C546 298.761 548.239 301 551 301C553.761 301 556 298.761 556 296Z" stroke="#00C153" stroke-width="0.75"/>
<path d="M551.121 298.5V296C551.121 295.764 551.121 295.646 551.048 295.573C550.975 295.5 550.857 295.5 550.621 295.5" stroke="#00C153" stroke-width="0.75" stroke-linecap="round" stroke-linejoin="round"/>
<path d="M550.996 294H551.001" stroke="#00C153" stroke-linecap="round" stroke-linejoin="round"/>
<rect x="221.5" y="13.5" width="146" height="27" rx="13.5" fill="white"/>
<rect x="221.5" y="13.5" width="146" height="27" rx="13.5" stroke="#EEEEEE"/>
<path d="M244.604 24.6719C244.564 24.2997 244.396 24.0099 244.101 23.8026C243.808 23.5952 243.428 23.4915 242.959 23.4915C242.629 23.4915 242.347 23.5412 242.111 23.6406C241.875 23.7401 241.695 23.875 241.57 24.0455C241.445 24.2159 241.381 24.4105 241.378 24.6293C241.378 24.8111 241.419 24.9687 241.501 25.1023C241.587 25.2358 241.702 25.3494 241.847 25.4432C241.991 25.5341 242.152 25.6108 242.328 25.6733C242.504 25.7358 242.682 25.7884 242.861 25.831L243.679 26.0355C244.009 26.1122 244.325 26.2159 244.629 26.3466C244.936 26.4773 245.21 26.642 245.452 26.8409C245.696 27.0398 245.889 27.2798 246.031 27.5611C246.173 27.8423 246.244 28.1719 246.244 28.5497C246.244 29.0611 246.114 29.5114 245.852 29.9006C245.591 30.2869 245.213 30.5895 244.719 30.8082C244.227 31.0241 243.632 31.1321 242.933 31.1321C242.254 31.1321 241.665 31.027 241.165 30.8168C240.668 30.6065 240.278 30.2997 239.997 29.8963C239.719 29.4929 239.568 29.0014 239.545 28.4219H241.101C241.124 28.7259 241.217 28.9787 241.382 29.1804C241.547 29.3821 241.761 29.5327 242.026 29.6321C242.293 29.7315 242.591 29.7812 242.92 29.7812C243.264 29.7812 243.565 29.7301 243.824 29.6278C244.085 29.5227 244.29 29.3778 244.438 29.1932C244.585 29.0057 244.661 28.7869 244.663 28.5369C244.661 28.3097 244.594 28.1222 244.463 27.9744C244.332 27.8239 244.149 27.6989 243.913 27.5994C243.68 27.4972 243.408 27.4062 243.095 27.3267L242.102 27.071C241.384 26.8864 240.815 26.6065 240.398 26.2315C239.983 25.8537 239.776 25.3523 239.776 24.7273C239.776 24.2131 239.915 23.7628 240.193 23.3764C240.474 22.9901 240.857 22.6903 241.339 22.4773C241.822 22.2614 242.369 22.1534 242.98 22.1534C243.599 22.1534 244.142 22.2614 244.608 22.4773C245.077 22.6903 245.445 22.9872 245.712 23.3679C245.979 23.7457 246.116 24.1804 246.125 24.6719H244.604ZM247.534 31V22.2727H253.21V23.598H249.115V25.9673H252.916V27.2926H249.115V29.6747H253.244V31H247.534ZM254.703 31V22.2727H257.976C258.646 22.2727 259.209 22.3892 259.663 22.6222C260.12 22.8551 260.466 23.1818 260.699 23.6023C260.934 24.0199 261.052 24.5071 261.052 25.0639C261.052 25.6236 260.933 26.1094 260.694 26.5213C260.459 26.9304 260.11 27.2472 259.65 27.4716C259.19 27.6932 258.625 27.804 257.954 27.804H255.623V26.4915H257.741C258.133 26.4915 258.454 26.4375 258.704 26.3295C258.954 26.2187 259.139 26.0582 259.258 25.848C259.38 25.6349 259.441 25.3736 259.441 25.0639C259.441 24.7543 259.38 24.4901 259.258 24.2713C259.136 24.0497 258.95 23.8821 258.7 23.7685C258.45 23.652 258.128 23.5938 257.733 23.5938H256.284V31H254.703ZM259.211 27.0455L261.372 31H259.608L257.485 27.0455H259.211ZM262.388 31V22.2727H265.66C266.331 22.2727 266.893 22.3977 267.348 22.6477C267.805 22.8977 268.15 23.2415 268.383 23.679C268.619 24.1136 268.737 24.608 268.737 25.1619C268.737 25.7216 268.619 26.2187 268.383 26.6534C268.147 27.0881 267.799 27.4304 267.339 27.6804C266.879 27.9276 266.312 28.0511 265.639 28.0511H263.47V26.7514H265.426C265.818 26.7514 266.139 26.6832 266.389 26.5469C266.639 26.4105 266.824 26.223 266.943 25.9844C267.065 25.7457 267.126 25.4716 267.126 25.1619C267.126 24.8523 267.065 24.5795 266.943 24.3438C266.824 24.108 266.638 23.9247 266.385 23.794C266.135 23.6605 265.812 23.5938 265.417 23.5938H263.968V31H262.388ZM272.847 22.2727H274.781L277.372 28.5966H277.475L280.065 22.2727H282V31H280.483V25.0043H280.402L277.99 30.9744H276.857L274.445 24.9915H274.364V31H272.847V22.2727ZM291.4 26.6364C291.4 27.5767 291.224 28.3821 290.872 29.0526C290.522 29.7202 290.045 30.2315 289.44 30.5866C288.838 30.9418 288.154 31.1193 287.39 31.1193C286.626 31.1193 285.941 30.9418 285.336 30.5866C284.734 30.2287 284.257 29.7159 283.904 29.0483C283.555 28.3778 283.38 27.5739 283.38 26.6364C283.38 25.696 283.555 24.892 283.904 24.2244C284.257 23.554 284.734 23.0412 285.336 22.6861C285.941 22.331 286.626 22.1534 287.39 22.1534C288.154 22.1534 288.838 22.331 289.44 22.6861C290.045 23.0412 290.522 23.554 290.872 24.2244C291.224 24.892 291.4 25.696 291.4 26.6364ZM289.811 26.6364C289.811 25.9744 289.707 25.4162 289.499 24.9616C289.295 24.5043 289.011 24.1591 288.647 23.9261C288.284 23.6903 287.865 23.5724 287.39 23.5724C286.916 23.5724 286.497 23.6903 286.133 23.9261C285.769 24.1591 285.484 24.5043 285.276 24.9616C285.072 25.4162 284.97 25.9744 284.97 26.6364C284.97 27.2983 285.072 27.858 285.276 28.3153C285.484 28.7699 285.769 29.1151 286.133 29.3509C286.497 29.5838 286.916 29.7003 287.39 29.7003C287.865 29.7003 288.284 29.5838 288.647 29.3509C289.011 29.1151 289.295 28.7699 289.499 28.3153C289.707 27.858 289.811 27.2983 289.811 26.6364ZM299.947 22.2727V31H298.54L294.428 25.0554H294.356V31H292.775V22.2727H294.189L298.297 28.2216H298.374V22.2727H299.947ZM303.13 22.2727V31H301.549V22.2727H303.13ZM304.339 23.598V22.2727H311.302V23.598H308.604V31H307.036V23.598H304.339ZM319.936 26.6364C319.936 27.5767 319.76 28.3821 319.407 29.0526C319.058 29.7202 318.581 30.2315 317.975 30.5866C317.373 30.9418 316.69 31.1193 315.926 31.1193C315.162 31.1193 314.477 30.9418 313.872 30.5866C313.269 30.2287 312.792 29.7159 312.44 29.0483C312.09 28.3778 311.916 27.5739 311.916 26.6364C311.916 25.696 312.09 24.892 312.44 24.2244C312.792 23.554 313.269 23.0412 313.872 22.6861C314.477 22.331 315.162 22.1534 315.926 22.1534C316.69 22.1534 317.373 22.331 317.975 22.6861C318.581 23.0412 319.058 23.554 319.407 24.2244C319.76 24.892 319.936 25.696 319.936 26.6364ZM318.346 26.6364C318.346 25.9744 318.242 25.4162 318.035 24.9616C317.831 24.5043 317.546 24.1591 317.183 23.9261C316.819 23.6903 316.4 23.5724 315.926 23.5724C315.451 23.5724 315.032 23.6903 314.669 23.9261C314.305 24.1591 314.019 24.5043 313.812 24.9616C313.608 25.4162 313.505 25.9744 313.505 26.6364C313.505 27.2983 313.608 27.858 313.812 28.3153C314.019 28.7699 314.305 29.1151 314.669 29.3509C315.032 29.5838 315.451 29.7003 315.926 29.7003C316.4 29.7003 316.819 29.5838 317.183 29.3509C317.546 29.1151 317.831 28.7699 318.035 28.3153C318.242 27.858 318.346 27.2983 318.346 26.6364ZM321.31 31V22.2727H324.583C325.254 22.2727 325.816 22.3892 326.271 22.6222C326.728 22.8551 327.073 23.1818 327.306 23.6023C327.542 24.0199 327.66 24.5071 327.66 25.0639C327.66 25.6236 327.54 26.1094 327.302 26.5213C327.066 26.9304 326.718 27.2472 326.258 27.4716C325.798 27.6932 325.232 27.804 324.562 27.804H322.231V26.4915H324.349C324.741 26.4915 325.062 26.4375 325.312 26.3295C325.562 26.2187 325.746 26.0582 325.866 25.848C325.988 25.6349 326.049 25.3736 326.049 25.0639C326.049 24.7543 325.988 24.4901 325.866 24.2713C325.744 24.0497 325.557 23.8821 325.307 23.7685C325.057 23.652 324.735 23.5938 324.34 23.5938H322.891V31H321.31ZM325.819 27.0455L327.979 31H326.215L324.093 27.0455H325.819ZM330.576 22.2727V31H328.995V22.2727H330.576ZM339.34 22.2727V31H337.934L333.821 25.0554H333.749V31H332.168V22.2727H333.583L337.691 28.2216H337.767V22.2727H339.34ZM346.789 25.0597C346.718 24.8295 346.62 24.6236 346.495 24.4418C346.373 24.2571 346.225 24.0994 346.052 23.9688C345.881 23.8381 345.685 23.7401 345.464 23.6747C345.242 23.6065 345.001 23.5724 344.739 23.5724C344.271 23.5724 343.853 23.6903 343.487 23.9261C343.12 24.1619 342.832 24.5085 342.621 24.9659C342.414 25.4205 342.31 25.9744 342.31 26.6278C342.31 27.2869 342.414 27.8452 342.621 28.3026C342.829 28.7599 343.117 29.108 343.487 29.3466C343.856 29.5824 344.285 29.7003 344.773 29.7003C345.217 29.7003 345.6 29.6151 345.924 29.4446C346.251 29.2741 346.502 29.0327 346.678 28.7202C346.854 28.4048 346.943 28.0355 346.943 27.6122L347.3 27.6676H344.931V26.4318H348.472V27.4801C348.472 28.2273 348.313 28.8736 347.995 29.419C347.677 29.9645 347.239 30.3849 346.683 30.6804C346.126 30.973 345.487 31.1193 344.765 31.1193C343.961 31.1193 343.255 30.9389 342.647 30.5781C342.042 30.2145 341.569 29.6989 341.228 29.0312C340.89 28.3608 340.721 27.5653 340.721 26.6449C340.721 25.9403 340.82 25.3111 341.019 24.7571C341.221 24.2031 341.502 23.733 341.863 23.3466C342.224 22.9574 342.647 22.6619 343.133 22.4602C343.619 22.2557 344.147 22.1534 344.718 22.1534C345.201 22.1534 345.651 22.2244 346.069 22.3665C346.487 22.5057 346.857 22.7045 347.181 22.9631C347.508 23.2216 347.776 23.5284 347.987 23.8835C348.197 24.2386 348.335 24.6307 348.4 25.0597H346.789Z" fill="#12A250"/>
<defs>
<linearGradient id="paint0_linear_323_5136" x1="120" y1="106" x2="120" y2="150" gradientUnits="userSpaceOnUse">
<stop stop-color="#00C153"/>
<stop offset="1" stop-color="#009B43"/>
</linearGradient>
<linearGradient id="paint1_linear_323_5136" x1="295.5" y1="80" x2="295.5" y2="420" gradientUnits="userSpaceOnUse">
<stop stop-color="white"/>
<stop offset="1" stop-color="#797979"/>
</linearGradient>
<clipPath id="clip0_323_5136">
<rect width="16" height="16" fill="white" transform="translate(468 237)"/>
</clipPath>
</defs>
</svg>
