<svg width="382" height="269" viewBox="0 0 382 269" fill="none" xmlns="http://www.w3.org/2000/svg">
<g clip-path="url(#clip0_12_4250)">
<rect x="43.5" y="33.5" width="296" height="75" rx="9.5" fill="white" stroke="#EEEEEE"/>
<rect x="33.5" y="43.5" width="316" height="75" rx="9.5" fill="white" stroke="#EEEEEE"/>
<rect x="23.5" y="54.5" width="336" height="69" rx="9.5" fill="white" stroke="#EEEEEE"/>
<rect x="39.5" y="72.5" width="305" height="34" rx="17" fill="white" stroke="#EEEEEE"/>
<path d="M64.75 96.75L60.2501 92.25M61.75 88.5C61.75 91.3995 59.3995 93.75 56.5 93.75C53.6005 93.75 51.25 91.3995 51.25 88.5C51.25 85.6005 53.6005 83.25 56.5 83.25C59.3995 83.25 61.75 85.6005 61.75 88.5Z" stroke="#15C862" stroke-width="1.5" stroke-linecap="round" stroke-linejoin="round"/>
<rect x="76" y="84" width="129" height="12" rx="2" fill="#EEEEEE"/>
<rect x="0.524703" y="146.474" width="268.539" height="115.231" rx="14.5" transform="rotate(-2.9057 0.524703 146.474)" fill="white" stroke="#EEEEEE"/>
<rect opacity="0.5" x="8.61914" y="157.57" width="40.9122" height="11.0697" rx="5.53483" transform="rotate(-2.9057 8.61914 157.57)" fill="#EEEEEE"/>
<rect opacity="0.5" x="54.2871" y="155.252" width="24.066" height="11.0697" rx="5.53483" transform="rotate(-2.9057 54.2871 155.252)" fill="#EEEEEE"/>
<rect opacity="0.5" x="9.64844" y="177.839" width="24.066" height="23.0618" rx="11.5309" transform="rotate(-2.9057 9.64844 177.839)" fill="#EEEEEE"/>
<path d="M254.058 150.655C253.929 148.111 252.031 146.139 249.818 146.252C247.606 146.364 245.917 148.517 246.046 151.062C246.175 153.606 248.074 155.577 250.286 155.465C252.498 155.352 254.187 153.199 254.058 150.655Z" stroke="#00C153"/>
<path d="M250.266 153.157L250.15 150.853C250.139 150.636 250.133 150.528 250.071 150.463C250.009 150.399 249.914 150.404 249.726 150.413" stroke="#00C153" stroke-linecap="round" stroke-linejoin="round"/>
<path d="M249.956 149.016L249.96 149.015" stroke="#00C153" stroke-linecap="round" stroke-linejoin="round"/>
<rect x="50.459" y="174.796" width="7" height="25" rx="3.5" transform="rotate(-2.9057 50.459 174.796)" fill="#00C153"/>
<rect x="61.4443" y="174.238" width="7" height="25" rx="3.5" transform="rotate(-2.9057 61.4443 174.238)" fill="#00C153"/>
<rect x="72.4307" y="173.681" width="7" height="25" rx="3.5" transform="rotate(-2.9057 72.4307 173.681)" fill="#00C153"/>
<rect x="83.416" y="173.123" width="7" height="25" rx="3.5" transform="rotate(-2.9057 83.416 173.123)" fill="#00C153"/>
<rect x="94.4023" y="172.565" width="7" height="25" rx="3.5" transform="rotate(-2.9057 94.4023 172.565)" fill="#00C153"/>
<rect x="105.388" y="172.008" width="7" height="25" rx="3.5" transform="rotate(-2.9057 105.388 172.008)" fill="#00C153"/>
<rect x="116.374" y="171.45" width="7" height="25" rx="3.5" transform="rotate(-2.9057 116.374 171.45)" fill="#00C153"/>
<rect opacity="0.25" x="127.359" y="170.893" width="7" height="25" rx="3.5" transform="rotate(-2.9057 127.359 170.893)" fill="#00C153"/>
<rect x="138.346" y="170.335" width="7" height="25" rx="3.5" transform="rotate(-2.9057 138.346 170.335)" fill="#00C153"/>
<rect x="149.331" y="169.777" width="7" height="25" rx="3.5" transform="rotate(-2.9057 149.331 169.777)" fill="#00C153"/>
<rect opacity="0.25" x="160.317" y="169.22" width="7" height="25" rx="3.5" transform="rotate(-2.9057 160.317 169.22)" fill="#00C153"/>
<rect opacity="0.25" x="171.303" y="168.662" width="7" height="25" rx="3.5" transform="rotate(-2.9057 171.303 168.662)" fill="#00C153"/>
<rect x="182.289" y="168.104" width="7" height="25" rx="3.5" transform="rotate(-2.9057 182.289 168.104)" fill="#00C153"/>
<rect x="193.274" y="167.547" width="7" height="25" rx="3.5" transform="rotate(-2.9057 193.274 167.547)" fill="#00C153"/>
<rect opacity="0.25" x="204.261" y="166.989" width="7" height="25" rx="3.5" transform="rotate(-2.9057 204.261 166.989)" fill="#00C153"/>
<rect opacity="0.25" x="215.246" y="166.432" width="7" height="25" rx="3.5" transform="rotate(-2.9057 215.246 166.432)" fill="#00C153"/>
<rect x="226.232" y="165.874" width="7" height="25" rx="3.5" transform="rotate(-2.9057 226.232 165.874)" fill="#00C153"/>
<rect opacity="0.25" x="237.219" y="165.316" width="7" height="25" rx="3.5" transform="rotate(-2.9057 237.219 165.316)" fill="#00C153"/>
<rect x="248.204" y="164.759" width="7" height="25" rx="3.5" transform="rotate(-2.9057 248.204 164.759)" fill="#00C153"/>
<rect x="259.19" y="164.201" width="7" height="25" rx="3.5" transform="rotate(-2.9057 259.19 164.201)" fill="#00C153"/>
<rect x="270.176" y="163.644" width="7" height="25" rx="3.5" transform="rotate(-2.9057 270.176 163.644)" fill="#00C153"/>
<rect opacity="0.25" x="281.162" y="163.086" width="7" height="25" rx="3.5" transform="rotate(-2.9057 281.162 163.086)" fill="#00C153"/>
<rect x="292.147" y="162.528" width="7" height="25" rx="3.5" transform="rotate(-2.9057 292.147 162.528)" fill="#00C153"/>
<rect x="303.134" y="161.971" width="7" height="25" rx="3.5" transform="rotate(-2.9057 303.134 161.971)" fill="#00C153"/>
<g opacity="0.5">
<rect x="11.8828" y="221.877" width="122.423" height="8.65113" rx="1.70513" transform="rotate(-2.9057 11.8828 221.877)" fill="#EEEEEE"/>
<rect width="60.1856" height="6.29173" rx="1.70513" transform="matrix(-0.998714 0.0506922 0.0506922 0.998714 143.541 238.818)" fill="#EEEEEE"/>
<rect width="25.3053" height="6.29173" rx="1.70513" transform="matrix(-0.998714 0.0506922 0.0506922 0.998714 79.334 242.078)" fill="#EEEEEE"/>
<rect x="12.5195" y="234.444" width="49.9267" height="6.29173" rx="1.70513" transform="rotate(-2.9057 12.5195 234.444)" fill="#EEEEEE"/>
<rect x="67.1641" y="231.671" width="21.2017" height="6.29173" rx="1.70513" transform="rotate(-2.9057 67.1641 231.671)" fill="#EEEEEE"/>
<rect x="93.1191" y="230.354" width="30.7767" height="6.29173" rx="1.70513" transform="rotate(-2.9057 93.1191 230.354)" fill="#EEEEEE"/>
<rect x="128.639" y="228.551" width="30.7767" height="6.29173" rx="1.70513" transform="rotate(-2.9057 128.639 228.551)" fill="#EEEEEE"/>
<rect width="36.9321" height="6.29173" rx="1.70513" transform="matrix(-0.998714 0.0506922 0.0506922 0.998714 49.9629 243.569)" fill="#EEEEEE"/>
</g>
<path opacity="0.5" d="M11.4258 212.848L264.595 199.997" stroke="#EEEEEE"/>
<rect x="236.029" y="212.848" width="24.9892" height="28.8857" rx="6.32051" transform="rotate(-2.9057 236.029 212.848)" fill="#EEEEEE" fill-opacity="0.25" stroke="#EEEEEE"/>
<path d="M252.417 226.478C252.525 228.598 251.117 230.393 249.274 230.486C247.43 230.58 245.848 228.937 245.741 226.817C245.633 224.697 247.04 222.903 248.884 222.809" stroke="#C8C8C8" stroke-width="1.25" stroke-linecap="round"/>
<path d="M250.032 219.056C249.596 218.977 249.146 218.947 248.689 218.97C245.002 219.157 242.187 222.746 242.402 226.986C242.618 231.226 245.781 234.512 249.468 234.324C253.156 234.137 255.97 230.548 255.755 226.308C255.729 225.782 255.656 225.271 255.544 224.78" stroke="#C8C8C8" stroke-width="1.25" stroke-linecap="round"/>
<path d="M249.098 226.618L251.96 222.968M253.949 220.508L253.502 219.001C253.421 218.753 253.153 218.666 252.984 218.842C252.071 219.791 251.088 221.058 252.038 222.929C253.804 223.763 254.722 222.471 255.421 221.388C255.56 221.173 255.454 220.865 255.225 220.801L253.949 220.508Z" stroke="#C8C8C8" stroke-width="1.25" stroke-linecap="round" stroke-linejoin="round"/>
<rect x="-0.524703" y="0.474011" width="268.539" height="115.231" rx="14.5" transform="matrix(-0.998714 -0.0506922 -0.0506922 0.998714 381.061 145.974)" fill="white" stroke="#EEEEEE"/>
<rect opacity="0.5" width="40.9122" height="11.0697" rx="5.53483" transform="matrix(-0.998714 -0.0506922 -0.0506922 0.998714 373.467 157.57)" fill="#EEEEEE"/>
<rect opacity="0.5" width="24.066" height="11.0697" rx="5.53483" transform="matrix(-0.998714 -0.0506922 -0.0506922 0.998714 327.799 155.252)" fill="#EEEEEE"/>
<rect opacity="0.5" width="24.066" height="23.0618" rx="11.5309" transform="matrix(-0.998714 -0.0506922 -0.0506922 0.998714 372.438 177.839)" fill="#EEEEEE"/>
<path d="M128.028 150.655C128.157 148.111 130.055 146.139 132.268 146.252C134.48 146.364 136.169 148.517 136.04 151.062C135.91 153.606 134.012 155.577 131.8 155.465C129.588 155.352 127.899 153.199 128.028 150.655Z" stroke="#00C153"/>
<path d="M131.819 153.157L131.936 150.853C131.947 150.636 131.953 150.528 132.015 150.463C132.077 150.399 132.172 150.404 132.36 150.413" stroke="#00C153" stroke-linecap="round" stroke-linejoin="round"/>
<path d="M132.13 149.016L132.126 149.015" stroke="#00C153" stroke-linecap="round" stroke-linejoin="round"/>
<rect width="7" height="25" rx="3.5" transform="matrix(-0.998714 -0.0506922 -0.0506922 0.998714 331.627 174.796)" fill="#00C153"/>
<rect width="7" height="25" rx="3.5" transform="matrix(-0.998714 -0.0506922 -0.0506922 0.998714 320.642 174.238)" fill="#00C153"/>
<rect width="7" height="25" rx="3.5" transform="matrix(-0.998714 -0.0506922 -0.0506922 0.998714 309.655 173.681)" fill="#00C153"/>
<rect width="7" height="25" rx="3.5" transform="matrix(-0.998714 -0.0506922 -0.0506922 0.998714 298.67 173.123)" fill="#00C153"/>
<rect width="7" height="25" rx="3.5" transform="matrix(-0.998714 -0.0506922 -0.0506922 0.998714 287.684 172.565)" fill="#00C153"/>
<rect width="7" height="25" rx="3.5" transform="matrix(-0.998714 -0.0506922 -0.0506922 0.998714 276.698 172.008)" fill="#00C153"/>
<rect width="7" height="25" rx="3.5" transform="matrix(-0.998714 -0.0506922 -0.0506922 0.998714 265.712 171.45)" fill="#00C153"/>
<rect opacity="0.25" width="7" height="25" rx="3.5" transform="matrix(-0.998714 -0.0506922 -0.0506922 0.998714 254.727 170.893)" fill="#00C153"/>
<rect width="7" height="25" rx="3.5" transform="matrix(-0.998714 -0.0506922 -0.0506922 0.998714 243.74 170.335)" fill="#00C153"/>
<rect width="7" height="25" rx="3.5" transform="matrix(-0.998714 -0.0506922 -0.0506922 0.998714 232.755 169.777)" fill="#00C153"/>
<rect opacity="0.25" width="7" height="25" rx="3.5" transform="matrix(-0.998714 -0.0506922 -0.0506922 0.998714 221.769 169.22)" fill="#00C153"/>
<rect opacity="0.25" width="7" height="25" rx="3.5" transform="matrix(-0.998714 -0.0506922 -0.0506922 0.998714 210.783 168.662)" fill="#00C153"/>
<rect width="7" height="25" rx="3.5" transform="matrix(-0.998714 -0.0506922 -0.0506922 0.998714 199.797 168.104)" fill="#00C153"/>
<rect width="7" height="25" rx="3.5" transform="matrix(-0.998714 -0.0506922 -0.0506922 0.998714 188.812 167.547)" fill="#00C153"/>
<rect opacity="0.25" width="7" height="25" rx="3.5" transform="matrix(-0.998714 -0.0506922 -0.0506922 0.998714 177.825 166.989)" fill="#00C153"/>
<rect opacity="0.25" width="7" height="25" rx="3.5" transform="matrix(-0.998714 -0.0506922 -0.0506922 0.998714 166.84 166.432)" fill="#00C153"/>
<rect width="7" height="25" rx="3.5" transform="matrix(-0.998714 -0.0506922 -0.0506922 0.998714 155.854 165.874)" fill="#00C153"/>
<rect opacity="0.25" width="7" height="25" rx="3.5" transform="matrix(-0.998714 -0.0506922 -0.0506922 0.998714 144.867 165.316)" fill="#00C153"/>
<rect width="7" height="25" rx="3.5" transform="matrix(-0.998714 -0.0506922 -0.0506922 0.998714 133.882 164.759)" fill="#00C153"/>
<rect width="7" height="25" rx="3.5" transform="matrix(-0.998714 -0.0506922 -0.0506922 0.998714 122.896 164.201)" fill="#00C153"/>
<rect width="7" height="25" rx="3.5" transform="matrix(-0.998714 -0.0506922 -0.0506922 0.998714 111.91 163.644)" fill="#00C153"/>
<rect opacity="0.25" width="7" height="25" rx="3.5" transform="matrix(-0.998714 -0.0506922 -0.0506922 0.998714 100.924 163.086)" fill="#00C153"/>
<rect width="7" height="25" rx="3.5" transform="matrix(-0.998714 -0.0506922 -0.0506922 0.998714 89.9385 162.528)" fill="#00C153"/>
<rect width="7" height="25" rx="3.5" transform="matrix(-0.998714 -0.0506922 -0.0506922 0.998714 78.9521 161.971)" fill="#00C153"/>
<g opacity="0.5">
<rect width="122.423" height="8.65113" rx="1.70513" transform="matrix(-0.998714 -0.0506922 -0.0506922 0.998714 370.203 221.877)" fill="#EEEEEE"/>
<rect x="238.545" y="238.818" width="60.1856" height="6.29173" rx="1.70513" transform="rotate(2.9057 238.545 238.818)" fill="#EEEEEE"/>
<rect x="302.752" y="242.078" width="25.3053" height="6.29173" rx="1.70513" transform="rotate(2.9057 302.752 242.078)" fill="#EEEEEE"/>
<rect width="49.9267" height="6.29173" rx="1.70513" transform="matrix(-0.998714 -0.0506922 -0.0506922 0.998714 369.566 234.444)" fill="#EEEEEE"/>
<rect width="21.2017" height="6.29173" rx="1.70513" transform="matrix(-0.998714 -0.0506922 -0.0506922 0.998714 314.922 231.671)" fill="#EEEEEE"/>
<rect width="30.7767" height="6.29173" rx="1.70513" transform="matrix(-0.998714 -0.0506922 -0.0506922 0.998714 288.967 230.354)" fill="#EEEEEE"/>
<rect width="30.7767" height="6.29173" rx="1.70513" transform="matrix(-0.998714 -0.0506922 -0.0506922 0.998714 253.447 228.551)" fill="#EEEEEE"/>
<rect x="332.123" y="243.569" width="36.9321" height="6.29173" rx="1.70513" transform="rotate(2.9057 332.123 243.569)" fill="#EEEEEE"/>
</g>
<path opacity="0.5" d="M370.66 212.848L117.491 199.997" stroke="#EEEEEE"/>
<rect x="-0.524703" y="0.474011" width="24.9892" height="28.8857" rx="6.32051" transform="matrix(-0.998714 -0.0506922 -0.0506922 0.998714 145.557 212.348)" fill="#EEEEEE" fill-opacity="0.25" stroke="#EEEEEE"/>
<path d="M129.669 226.478C129.561 228.598 130.969 230.393 132.812 230.486C134.656 230.58 136.238 228.937 136.345 226.817C136.453 224.697 135.045 222.903 133.202 222.809" stroke="#C8C8C8" stroke-width="1.25" stroke-linecap="round"/>
<path d="M132.054 219.056C132.49 218.977 132.94 218.947 133.397 218.97C137.084 219.157 139.899 222.746 139.684 226.986C139.468 231.226 136.305 234.512 132.617 234.324C128.93 234.137 126.116 230.548 126.331 226.308C126.357 225.782 126.43 225.271 126.542 224.78" stroke="#C8C8C8" stroke-width="1.25" stroke-linecap="round"/>
<path d="M132.988 226.618L130.126 222.968M128.137 220.508L128.584 219.001C128.665 218.753 128.933 218.666 129.102 218.842C130.015 219.791 130.998 221.058 130.048 222.929C128.282 223.763 127.364 222.471 126.665 221.388C126.526 221.173 126.632 220.865 126.861 220.801L128.137 220.508Z" stroke="#C8C8C8" stroke-width="1.25" stroke-linecap="round" stroke-linejoin="round"/>
<rect x="23.5" y="131.5" width="335" height="125" rx="14.5" fill="white" stroke="#EEEEEE"/>
<rect opacity="0.5" x="33" y="144" width="51" height="12" rx="6" fill="#EEEEEE"/>
<rect opacity="0.5" x="90" y="144" width="30" height="12" rx="6" fill="#EEEEEE"/>
<rect opacity="0.5" x="33" y="166" width="30" height="25" rx="12.5" fill="#EEEEEE"/>
<path d="M339 150C339 147.239 336.761 145 334 145C331.239 145 329 147.239 329 150C329 152.761 331.239 155 334 155C336.761 155 339 152.761 339 150Z" stroke="#00C153"/>
<path d="M334.121 152.5V150C334.121 149.764 334.121 149.646 334.048 149.573C333.975 149.5 333.857 149.5 333.621 149.5" stroke="#00C153" stroke-linecap="round" stroke-linejoin="round"/>
<path d="M333.996 148H334.001" stroke="#00C153" stroke-linecap="round" stroke-linejoin="round"/>
<rect x="84" y="166" width="7" height="25" rx="3.5" fill="#00C153"/>
<rect x="95" y="166" width="7" height="25" rx="3.5" fill="#00C153"/>
<rect x="106" y="166" width="7" height="25" rx="3.5" fill="#00C153"/>
<rect x="117" y="166" width="7" height="25" rx="3.5" fill="#00C153"/>
<rect x="128" y="166" width="7" height="25" rx="3.5" fill="#00C153"/>
<rect x="139" y="166" width="7" height="25" rx="3.5" fill="#00C153"/>
<rect x="150" y="166" width="7" height="25" rx="3.5" fill="#00C153"/>
<rect opacity="0.25" x="161" y="166" width="7" height="25" rx="3.5" fill="#00C153"/>
<rect x="172" y="166" width="7" height="25" rx="3.5" fill="#00C153"/>
<rect x="183" y="166" width="7" height="25" rx="3.5" fill="#00C153"/>
<rect opacity="0.25" x="194" y="166" width="7" height="25" rx="3.5" fill="#00C153"/>
<rect opacity="0.25" x="205" y="166" width="7" height="25" rx="3.5" fill="#00C153"/>
<rect x="216" y="166" width="7" height="25" rx="3.5" fill="#00C153"/>
<rect x="227" y="166" width="7" height="25" rx="3.5" fill="#00C153"/>
<rect opacity="0.25" x="238" y="166" width="7" height="25" rx="3.5" fill="#00C153"/>
<rect opacity="0.25" x="249" y="166" width="7" height="25" rx="3.5" fill="#00C153"/>
<rect x="260" y="166" width="7" height="25" rx="3.5" fill="#00C153"/>
<rect opacity="0.25" x="271" y="166" width="7" height="25" rx="3.5" fill="#00C153"/>
<rect x="282" y="166" width="7" height="25" rx="3.5" fill="#00C153"/>
<rect x="293" y="166" width="7" height="25" rx="3.5" fill="#00C153"/>
<rect x="304" y="166" width="7" height="25" rx="3.5" fill="#00C153"/>
<rect opacity="0.25" x="315" y="166" width="7" height="25" rx="3.5" fill="#00C153"/>
<rect x="326" y="166" width="7" height="25" rx="3.5" fill="#00C153"/>
<rect x="337" y="166" width="7" height="25" rx="3.5" fill="#00C153"/>
<g opacity="0.5">
<rect x="33" y="213.802" width="152.609" height="9.37821" rx="1.70513" fill="#EEEEEE"/>
<rect width="75.0256" height="6.82051" rx="1.70513" transform="matrix(-1 0 0 1 195.84 239.379)" fill="#EEEEEE"/>
<rect width="31.5449" height="6.82051" rx="1.70513" transform="matrix(-1 0 0 1 115.699 239.379)" fill="#EEEEEE"/>
<rect x="33" y="227.442" width="62.2372" height="6.82051" rx="1.70513" fill="#EEEEEE"/>
<rect x="101.205" y="227.442" width="26.4295" height="6.82051" rx="1.70513" fill="#EEEEEE"/>
<rect x="133.602" y="227.442" width="38.3654" height="6.82051" rx="1.70513" fill="#EEEEEE"/>
<rect x="177.936" y="227.442" width="38.3654" height="6.82051" rx="1.70513" fill="#EEEEEE"/>
<rect width="46.0385" height="6.82051" rx="1.70513" transform="matrix(-1 0 0 1 79.0391 239.379)" fill="#EEEEEE"/>
</g>
<path opacity="0.5" d="M33 204L349 204" stroke="#EEEEEE"/>
<rect x="312.5" y="216.302" width="31.3974" height="31.3974" rx="6.32051" fill="#EEEEEE" fill-opacity="0.25" stroke="#EEEEEE"/>
<path d="M332.166 232.001C332.166 234.302 330.301 236.167 328 236.167C325.698 236.167 323.833 234.302 323.833 232.001C323.833 229.699 325.698 227.834 328 227.834" stroke="#C8C8C8" stroke-width="1.25" stroke-linecap="round"/>
<path d="M329.667 223.833C329.128 223.723 328.571 223.666 328 223.666C323.398 223.666 319.667 227.397 319.667 231.999C319.667 236.602 323.398 240.333 328 240.333C332.603 240.333 336.334 236.602 336.334 231.999C336.334 231.429 336.276 230.871 336.167 230.333" stroke="#C8C8C8" stroke-width="1.25" stroke-linecap="round"/>
<path d="M328.025 231.969L331.819 228.175M334.45 225.62L333.989 223.964C333.905 223.692 333.576 223.583 333.355 223.764C332.158 224.742 330.855 226.059 331.919 228.137C334.064 229.137 335.289 227.788 336.228 226.654C336.415 226.429 336.302 226.09 336.021 226.008L334.45 225.62Z" stroke="#C8C8C8" stroke-width="1.25" stroke-linecap="round" stroke-linejoin="round"/>
<rect width="46" height="46" rx="18.6486" transform="matrix(-1 5.18986e-09 5.18986e-09 1 215 2)" fill="#15C862"/>
<rect width="46" height="46" rx="18.6486" transform="matrix(-1 5.18986e-09 5.18986e-09 1 215 2)" fill="url(#paint0_linear_12_4250)" fill-opacity="0.2"/>
<rect width="46" height="46" rx="18.6486" transform="matrix(-1 5.18986e-09 5.18986e-09 1 215 2)" stroke="#FAFAFA" stroke-width="3.72973"/>
<path d="M188.923 24.3995L190.905 26.3822L195.367 21.921M199.828 24.8952C199.828 29.7612 194.52 33.3005 192.589 34.427C192.369 34.5551 192.26 34.6192 192.105 34.6524C191.984 34.6782 191.809 34.6782 191.689 34.6524C191.534 34.6192 191.424 34.5551 191.205 34.427C189.274 33.3005 183.966 29.7612 183.966 24.8952V20.154C183.966 19.3614 183.966 18.9651 184.095 18.6244C184.21 18.3235 184.396 18.055 184.638 17.8421C184.911 17.6011 185.282 17.4619 186.024 17.1836L191.34 15.1903C191.546 15.113 191.649 15.0743 191.755 15.059C191.849 15.0454 191.945 15.0454 192.039 15.059C192.145 15.0743 192.248 15.113 192.454 15.1903L197.769 17.1836C198.511 17.4619 198.883 17.6011 199.156 17.8421C199.398 18.055 199.584 18.3235 199.698 18.6244C199.828 18.9651 199.828 19.3614 199.828 20.154V24.8952Z" stroke="white" stroke-width="1.98275" stroke-linecap="round" stroke-linejoin="round"/>
</g>
<defs>
<linearGradient id="paint0_linear_12_4250" x1="23" y1="0" x2="23" y2="46" gradientUnits="userSpaceOnUse">
<stop stop-color="white" stop-opacity="0"/>
<stop offset="1" stop-color="white"/>
</linearGradient>
<clipPath id="clip0_12_4250">
<rect width="382" height="269" fill="white"/>
</clipPath>
</defs>
</svg>
