<svg width="367" height="270" viewBox="0 0 367 270" fill="none" xmlns="http://www.w3.org/2000/svg">
<path d="M366 269.5H366.5V269V47C366.5 38.4396 359.56 31.5 351 31.5H16C7.43959 31.5 0.5 38.4396 0.5 47V269V269.5H1H366Z" fill="white" stroke="#EEEEEE"/>
<mask id="mask0_12_4247" style="mask-type:alpha" maskUnits="userSpaceOnUse" x="1" y="0" width="365" height="269">
<path d="M16 0.5H351C359.008 0.5 365.5 6.99187 365.5 15V268.5H1.5V15C1.5 6.99186 7.99187 0.5 16 0.5Z" fill="white" stroke="#EEEEEE"/>
</mask>
<g mask="url(#mask0_12_4247)">
<path d="M223.567 135.089L278.051 125.73L279.873 150.24L223.567 150.24L223.567 135.089Z" fill="#F5F5F5"/>
<path d="M12.6738 249.074L2.20881 275.674L-16.7133 275.753L-14.9689 248.281L12.6738 249.074Z" fill="#F5F5F5"/>
<path d="M16.9289 249.197L67.6738 250.65L67.6725 250.67L85.5684 250.67L82.9444 275.335L6.54855 275.656L16.9544 249.206L16.9289 249.197Z" fill="#F5F5F5"/>
<path d="M125.52 250.67L128.764 275.142L87.003 275.317L89.6243 250.67L125.52 250.67Z" fill="#F5F5F5"/>
<path d="M84.8139 68.2783L70.2709 69.3083L67.1412 98.209L55.6339 95.9724L58.118 63.1636L74.6192 63.6564L85.5469 61.0394L84.8139 68.2783Z" fill="#F5F5F5"/>
<path d="M53.7891 120.368L55.5335 97.3174L81.3633 102.338L79.3243 122.456L53.7891 120.368Z" fill="#F5F5F5"/>
<path d="M51.1077 120.147L29.5697 118.386L0.0292567 115.26L-6.43728 113.977L-3.09239 61.3335L55.4277 63.0826L51.1077 120.147Z" fill="#F5F5F5"/>
<path d="M152.789 210.756L149.303 208.731L125.522 249.332L69.1134 249.332L72.1584 206.482L80.528 123.898L117.505 126.921L127.854 205.817L131.855 205.296L121.618 127.257L184.198 132.375L176.74 209.615L179.418 209.871L186.88 132.593L219.531 135.262L219.531 209.561L207.607 274.809L132.832 275.124L129.558 250.419L152.789 210.756ZM74.4973 245.175C74.4973 245.175 121.012 244.868 122.749 245.175L140.447 212.046L76.8752 207.751L74.4973 245.175Z" fill="#F5F5F5"/>
<path d="M84.5391 70.9826L81.4968 100.999L69.7903 98.7235L72.7035 71.8197L84.5391 70.9826Z" fill="#F5F5F5"/>
<path d="M223.566 185.51L241.483 181.57L241.483 151.581L279.973 151.581L286.949 245.364L250.809 245.364L244.156 274.655L211.71 274.792L223.566 209.924L223.566 185.51Z" fill="#F5F5F5"/>
<path d="M330.662 122.932L333.96 123.732L348.192 87.9188L395.15 111.213C395.087 111.634 395.045 112.061 395.046 112.499L395.23 152.075L329.511 150.998L330.662 122.932Z" fill="#F5F5F5"/>
<path d="M355.846 68.657L419.967 68.6985L420.088 94.7613C420.109 99.6296 415.984 103.595 410.874 103.615L404.26 103.645C401.107 103.657 398.331 105.174 396.671 107.477L349.682 84.1674L355.846 68.657Z" fill="#F5F5F5"/>
<path d="M353.096 203.287L420.606 206.307L420.64 213.561L420.771 241.887L360.401 253.954L353.096 203.287ZM413.764 209.743L358.785 208.777L364.319 246.427L413.764 238.183L413.764 209.743Z" fill="#F5F5F5"/>
<path d="M352.898 201.921L352.323 201.914C347.054 201.85 337.573 201.741 327.432 201.663L329.456 152.34L395.237 153.418L395.376 183.268C395.397 188.136 399.56 192.066 404.671 192.045L411.284 192.016C416.395 191.995 420.557 195.926 420.579 200.794L420.598 204.969L352.9 201.941L352.898 201.921Z" fill="#F5F5F5"/>
<path d="M360.976 257.937L420.758 245.988C420.478 261.466 407.849 273.969 392.222 274.034L362.419 274.16L363.296 274.034L360.976 257.937Z" fill="#F5F5F5"/>
<path d="M287.25 249.383L289.115 274.468L248.299 274.64L254.035 249.383L287.25 249.383Z" fill="#F5F5F5"/>
<path d="M359.652 258.199L361.953 274.16L295.854 274.438L295.599 271.002L359.652 258.199Z" fill="#F5F5F5"/>
<path d="M17.6999 207.53L70.7676 207.109L67.7697 249.313L15.7807 247.822L17.6999 207.53Z" fill="#F5F5F5"/>
<path d="M29.9476 199.768L1.19388 139.998C19.9842 139.287 37.5546 138.649 38.6736 138.71L38.7435 137.414L40.0105 136.781C39.5841 135.932 39.5841 135.932 26.7748 136.376C19.6277 136.624 10.1189 136.979 0.60477 137.339L0.604769 116.669L29.4418 119.72L79.1875 123.787L71.2738 201.879L29.9476 199.768Z" fill="#F5F5F5"/>
<path d="M118.019 53.2629L125.016 53.938L117.532 125.581L80.6645 122.566L86.9334 60.7081L118.019 53.2629Z" fill="#F5F5F5"/>
<path d="M237.451 151.58L237.451 178.342L223.569 181.395L223.569 151.58L237.451 151.58Z" fill="#F5F5F5"/>
<path d="M232.764 64.3247L237.42 131.35L221.517 134.082L187.007 131.26L193.833 60.572L232.764 64.3247ZM221.548 128.886L231.583 125.288L227.886 67.0716L199.176 63.7019L191.649 126.914L221.548 128.886Z" fill="#F5F5F5"/>
<path d="M160.631 57.3702L191.156 60.314L184.327 131.041L151.843 128.385L160.631 57.3702Z" fill="#F5F5F5"/>
<path d="M371.007 30.5172L369.982 30.1127L391.114 30.0244C406.953 29.9588 419.849 42.6861 419.921 58.459L419.963 67.3613L356.38 67.3198L371.007 30.5172Z" fill="#F5F5F5"/>
<path d="M-0.271427 140.055L29.0794 201.065L71.1387 203.215L70.8791 205.77L16.4167 206.203L14.4356 247.785L13.2211 247.75L13.1969 247.741L13.1929 247.749L-14.8856 246.944L-8.11517 140.353C-5.51001 140.254 -2.88332 140.155 -0.271427 140.055ZM10.9737 245.175L15.0758 186.973L-2.5659 149.107L-7.78698 245.175L10.9737 245.175Z" fill="#F5F5F5"/>
<path d="M300.388 47.8566L315.255 45.3615C323.094 67.2389 346.006 68.7537 352.941 68.6894L347.266 82.9717L303.919 61.4693L300.388 47.8566Z" fill="#F5F5F5"/>
<path d="M121.554 125.907L124.662 96.1629L151.043 102.025L147.822 128.056L121.554 125.907Z" fill="#F5F5F5"/>
<path d="M277.599 64.2211L277.608 119.779L277.951 124.39L241.417 130.665L236.836 64.7193L252.72 66.2515L276.184 59.7599L277.599 64.2211Z" fill="#F5F5F5"/>
<path d="M284.323 65.5805L301.761 64.8855L345.775 86.72L332.321 120.576L284.322 108.936L284.322 65.5805L284.323 65.5805ZM340.422 88.0379L302.198 68.0301L290.285 70.9203L291.579 105.155L327.736 113.714L340.422 88.0379Z" fill="#F5F5F5"/>
<path d="M73.92 56.9375L39.6696 55.9129L41.0293 31.8431L39.687 31.7667L38.3259 55.8727L-2.66947 54.6473L-1.22363 31.8886L-3.90815 31.7198L-5.35937 54.5669L-25.7434 53.9576L-25.7434 31.7788L88.5625 31.298L86.2626 53.9803L73.92 56.9375Z" fill="#F5F5F5"/>
<path d="M351.731 203.244L359.078 254.216L295.299 266.964L290.542 203.019C300.362 202.763 330.482 202.987 351.731 203.244Z" fill="#F5F5F5"/>
<path d="M284.324 119.407L284.324 111.694L329.33 122.608L328.167 150.976L286.621 150.295L284.324 119.407Z" fill="#F5F5F5"/>
<path d="M290.446 201.715L286.721 151.637L328.111 152.315L326.087 201.651C312.09 201.549 297.16 201.506 290.446 201.715Z" fill="#F5F5F5"/>
<path d="M156.615 56.9848L151.206 100.691L124.8 94.8226L129.032 54.3249L156.615 56.9848Z" fill="#F5F5F5"/>
<path d="M316.602 45.1345L333.286 42.334L332.343 30.2696L368.27 30.1182L353.48 67.332C328.199 68.0914 319.309 52.2783 316.602 45.1345Z" fill="#F5F5F5"/>
<path d="M252.124 59.4639L236.365 57.9451L234.471 30.6824L266.92 30.5457L274.158 53.3687L252.124 59.4639Z" fill="#F5F5F5"/>
<path d="M117.544 46.4886L87.6489 53.6484L89.9151 31.2915L121.265 31.1603C123.079 38.0215 124.557 44.0082 125.18 47.2252L117.544 46.4886Z" fill="#F5F5F5"/>
<path d="M283.813 61.5791L273.963 30.5167L291.703 30.4417L299.619 60.9496L283.813 61.5791Z" fill="#F5F5F5"/>
<path d="M129.284 47.6202C128.905 45.1171 127.892 40.372 125.457 31.1415L194.002 30.8536L191.8 53.6484L129.284 47.6202Z" fill="#F5F5F5"/>
<path d="M194.477 53.9058L196.704 30.8418L230.428 30.6998L232.293 57.5527L194.477 53.9058Z" fill="#F5F5F5"/>
<path d="M315.755 42.5605C314.419 38.1891 313.388 34.1216 312.629 30.3529L329.648 30.2819L330.416 40.1002L315.755 42.5605Z" fill="#F5F5F5"/>
<path d="M299.712 45.2539L295.864 30.4252L311.245 30.3609C312.017 34.1967 313.065 38.3364 314.418 42.7869L299.712 45.2539Z" fill="#F5F5F5"/>
<path d="M-3.90826 31.7188L-1.22374 31.8875L-2.66958 54.6449L38.3245 55.8703L39.6869 31.7643L41.0292 31.8406L39.6695 55.9105L73.9199 56.9351L86.2625 53.9792L88.561 31.2969L89.9127 31.2915L87.6465 53.6484L117.542 46.4886L125.177 47.2252C124.555 44.0082 123.076 38.0202 121.262 31.1603L125.454 31.1429C127.891 40.3733 128.903 45.1184 129.282 47.6216L191.798 53.6498L194 30.8549L196.703 30.8429L194.476 53.9069L232.292 57.5525L230.426 30.6996L234.471 30.6822L236.364 57.9449L252.123 59.4637L274.157 53.3685L266.919 30.5455L273.961 30.5161L283.811 61.5784L299.616 60.949L291.7 30.4411L295.861 30.4236L299.709 45.2524L314.414 42.7854C313.06 38.3349 312.012 34.1951 311.242 30.3594L312.624 30.354C313.383 34.1214 314.416 38.1889 315.75 42.5617L330.411 40.1014L329.643 30.283L332.34 30.2723L333.283 42.3367L316.599 45.1372C319.306 52.281 328.196 68.0941 353.477 67.3361L368.266 30.1223L369.977 30.1156L371.002 30.5201L356.377 67.3227L419.959 67.3642L419.965 68.7035L355.844 68.662L349.68 84.1737L396.669 107.483C395.881 108.576 395.352 109.847 395.148 111.218L348.19 87.9238L333.958 123.737L330.66 122.937L329.509 151.003L395.228 152.08L395.235 153.419L329.454 152.341L327.429 201.665C337.57 201.744 347.052 201.851 352.32 201.915L352.896 201.922L352.899 201.941L420.597 204.969L420.604 206.31L353.094 203.29L360.398 253.955L420.769 241.888L420.785 245.338C420.786 245.558 420.76 245.771 420.756 245.989L360.974 257.938L363.295 274.035L362.418 274.161L361.954 274.163L359.653 258.202L295.6 271.005L295.855 274.44L289.115 274.468L287.249 249.383L254.034 249.383L248.298 274.639L244.157 274.657L250.81 245.365L286.951 245.365L279.974 151.582L241.486 151.582L241.486 181.572L223.567 185.512L223.567 209.926L211.713 274.795L207.609 274.812L219.534 209.564L219.534 135.265L186.882 132.596L179.42 209.874L176.743 209.618L184.2 132.378L121.62 127.26L131.858 205.299L127.856 205.82L117.507 126.924L80.5303 123.901L72.1607 206.485L69.1158 249.335L125.524 249.335L149.306 208.734L152.792 210.759L129.56 250.424L132.834 275.128L128.766 275.146L125.522 250.674L89.6262 250.674L87.0049 275.321L82.9472 275.339L85.5712 250.674L67.6753 250.674L67.6767 250.654L16.9317 249.199L16.9573 249.209L6.55139 275.659L2.21125 275.677L12.6763 249.078L-14.9664 248.286L-16.7122 275.758L-17.6066 275.762L-19.4007 275.649L-17.6577 248.21L-25.7408 247.978L-25.7408 246.637L-17.5716 246.872L-10.8119 140.462C-16.0626 140.664 -21.1532 140.861 -25.7395 141.04L-25.7395 138.36C-21.4074 138.192 -16.1971 137.989 -10.6411 137.775L-9.18183 114.802L-25.7395 111.516L-25.7395 110.151L-9.09572 113.453L-5.78043 61.257L-25.7395 60.661L-25.7395 53.9605M-7.94311 137.665C-5.55448 137.574 -3.12147 137.481 -0.680387 137.388L-0.73822 116.474L-6.52555 115.324L-7.94311 137.665ZM-6.43813 113.977L0.0284114 115.26L29.5675 118.386L51.1069 120.147L55.4255 63.0811L-3.09459 61.332L-6.43813 113.977ZM81.4973 100.999L84.5396 70.983L72.7041 71.8214L69.7909 98.7239L81.4973 100.999ZM81.3629 102.337L55.5331 97.3176L53.7887 120.368L79.3239 122.456L81.3629 102.337ZM58.1181 63.1628L55.6354 95.9716L67.1414 98.2083L70.2724 69.3075L84.8153 68.2776L85.5497 61.0387L74.6207 63.6557L58.1181 63.1628ZM151.042 102.025L124.661 96.1631L121.554 125.909L147.821 128.057L151.042 102.025ZM124.801 94.8211L151.207 100.689L156.615 56.982L129.032 54.3221L124.801 94.8211ZM236.836 64.7177L241.419 130.663L277.951 124.388L277.608 119.776L277.599 64.2182L276.184 59.7583L252.72 66.2499L236.836 64.7177ZM352.943 68.6874C346.007 68.7517 323.096 67.2383 315.256 45.3595L300.389 47.8546L303.921 61.4659L347.267 82.9684L352.943 68.6874ZM345.776 86.7197L301.761 64.8852L284.324 65.5802L284.324 108.937L332.322 120.577L345.776 86.7197ZM329.33 122.608L284.322 111.694L284.322 119.405L286.62 150.294L328.164 150.974L329.33 122.608ZM328.111 152.315L286.721 151.637L290.446 201.715C297.16 201.506 312.089 201.547 326.087 201.652L328.111 152.315ZM359.079 254.216L351.731 203.244C330.482 202.987 300.362 202.763 290.543 203.019L295.3 266.964L359.079 254.216ZM278.051 125.731L223.567 135.09L223.567 150.241L279.875 150.241L278.051 125.731ZM237.45 178.342L237.45 151.581L223.566 151.581L223.566 181.395L237.45 178.342ZM221.519 134.083L237.421 131.351L232.765 64.3253L193.836 60.5713L187.01 131.259L221.519 134.083ZM191.156 60.3141L160.631 57.3704L151.844 128.385L184.327 131.041L191.156 60.3141ZM117.531 125.579L125.015 53.9364L118.018 53.2614L86.9323 60.7066L80.6635 122.565L117.531 125.579ZM29.4425 119.72L0.605375 116.669L0.605376 137.34C10.1195 136.98 19.6297 136.626 26.7754 136.377C39.5834 135.931 39.5834 135.931 40.0111 136.781L38.7441 137.415L38.6742 138.71C37.5552 138.65 19.9847 139.287 1.19445 139.998L29.9482 199.769L71.2758 201.881L79.1894 123.789L29.4425 119.72ZM70.7674 207.109L17.6997 207.53L15.7804 247.821L67.7695 249.311L70.7674 207.109ZM13.1941 247.749L13.1982 247.741L13.2224 247.75L14.4368 247.785L16.4179 206.203L70.8804 205.77L71.1399 203.215L29.0806 201.065L-0.270187 140.055C-2.88208 140.154 -5.50876 140.254 -8.11258 140.353L-14.883 246.944L13.1941 247.749Z" fill="white"/>
<path d="M15.0762 186.971L10.9741 245.173L-7.78661 245.173L-2.56554 149.104L15.0762 186.971Z" fill="#EBEBEB"/>
<path d="M227.886 67.0708L231.582 125.287L221.547 128.885L191.649 126.913L199.177 63.7011L227.886 67.0708Z" fill="#EBEBEB"/>
<path d="M358.787 208.777L413.766 209.743L413.766 238.182L364.32 246.428L358.787 208.777Z" fill="#EBEBEB"/>
<path d="M290.287 70.9202L302.198 68.03L340.424 88.0378L327.736 113.715L291.581 105.155L290.287 70.9202Z" fill="#EBEBEB"/>
<path d="M122.748 245.173C121.012 244.866 74.4971 245.173 74.4971 245.173L76.8736 207.75L140.445 212.045L122.748 245.173Z" fill="#EBEBEB"/>
<path d="M84.9754 120.359L113.803 122.339L122.088 58.1543L117.117 58.1543L90.6093 65.9156L84.9754 120.359Z" fill="#EBEBEB"/>
<path d="M11.5369 60.5219L30.3367 61.3282L27.5822 117.75C27.5136 119.233 27.8257 120.702 28.4928 122.016L69.082 202.04C70.0194 203.891 71.8969 205.11 73.9789 205.216L286.126 216.11C287.141 216.162 288.133 215.777 288.844 215.053C289.558 214.328 289.915 213.325 289.849 212.321L287.296 178.024L324.949 178.024L324.949 174.006L286.776 174.006C285.791 174.006 284.844 174.417 284.174 175.135C283.505 175.852 283.164 176.82 283.236 177.802L285.784 212.069L74.1874 201.203C73.5485 201.171 72.9729 200.797 72.6851 200.23L32.0959 120.202C31.7421 119.506 31.57 118.725 31.6144 117.944L34.3917 61.055C34.4401 60.0853 34.1065 59.1907 33.4623 58.4862C32.8181 57.7844 31.9371 57.3745 30.9822 57.333L11.7118 56.5067L11.5369 60.5219Z" fill="white"/>
<rect width="46" height="46" rx="18.6486" transform="matrix(-1 5.18986e-09 5.18986e-09 1 207 2)" fill="#15C862"/>
<rect width="46" height="46" rx="18.6486" transform="matrix(-1 5.18986e-09 5.18986e-09 1 207 2)" fill="url(#paint0_linear_12_4247)" fill-opacity="0.2"/>
<rect width="46" height="46" rx="18.6486" transform="matrix(-1 5.18986e-09 5.18986e-09 1 207 2)" stroke="#FAFAFA" stroke-width="3.72973"/>
<g clip-path="url(#clip0_12_4247)">
<path d="M185.303 30.2468H192.224M185.303 30.2468L183.457 34.1061M185.303 30.2468L188.067 24.4665C188.29 24.0008 188.401 23.7679 188.554 23.6943C188.686 23.6303 188.841 23.6303 188.973 23.6943C189.126 23.7679 189.237 24.0008 189.46 24.4665L192.224 30.2468M192.224 30.2468L194.07 34.1061M174.773 18.6689H180.562M180.562 18.6689H183.939M180.562 18.6689V16.7393M183.939 18.6689H186.351M183.939 18.6689C183.461 21.5222 182.35 24.1068 180.722 26.276M180.722 26.276C181.298 26.7176 181.901 27.0868 182.492 27.3523M180.722 26.276C179.417 25.2758 178.249 23.9046 177.668 22.5282M180.722 26.276C179.174 28.3392 177.158 30.0266 174.773 31.2116" stroke="white" stroke-width="1.92965" stroke-linecap="round" stroke-linejoin="round"/>
</g>
</g>
<path d="M287.588 202.175C281.284 202.175 276.175 207.284 276.175 213.588C276.175 219.891 281.284 225 287.588 225C293.891 225 299 219.891 299 213.588C298.998 207.286 293.889 202.175 287.588 202.175Z" fill="#15C862"/>
<g opacity="0.6">
<path d="M287.993 202.011C281.646 201.739 276.283 206.662 276.011 213.006C275.739 219.353 280.663 224.715 287.007 224.989C293.352 225.261 298.717 220.338 298.989 213.994C299.261 207.647 294.337 202.283 287.993 202.011Z" fill="white"/>
</g>
<path d="M287.5 206C283.358 206 280 209.358 280 213.5C280 217.642 283.358 221 287.5 221C291.642 221 295 217.642 295 213.5C295 209.358 291.642 206 287.5 206Z" fill="#15C862"/>
<path d="M126.588 198.175C120.284 198.175 115.175 203.284 115.175 209.588C115.175 215.891 120.284 221 126.588 221C132.891 221 138 215.891 138 209.588C137.998 203.286 132.889 198.175 126.588 198.175Z" fill="#15C862"/>
<g opacity="0.6">
<path d="M126.993 198.011C120.646 197.739 115.283 202.662 115.011 209.006C114.739 215.353 119.663 220.715 126.007 220.989C132.352 221.261 137.717 216.338 137.989 209.994C138.261 203.647 133.337 198.283 126.993 198.011Z" fill="white"/>
</g>
<path d="M126.5 202C122.358 202 119 205.358 119 209.5C119 213.642 122.358 217 126.5 217C130.642 217 134 213.642 134 209.5C134 205.358 130.642 202 126.5 202Z" fill="#15C862"/>
<path d="M51.5877 153.175C45.2842 153.175 40.1753 158.284 40.1753 164.588C40.1753 170.891 45.2842 176 51.5877 176C57.8911 176 63 170.891 63 164.588C62.998 158.286 57.8892 153.175 51.5877 153.175Z" fill="#15C862"/>
<g opacity="0.6">
<path d="M51.9926 153.011C45.646 152.739 40.2827 157.662 40.0107 164.006C39.7388 170.353 44.6628 175.715 51.0074 175.989C57.352 176.261 62.7173 171.338 62.9893 164.994C63.2612 158.647 58.3372 153.283 51.9926 153.011Z" fill="white"/>
</g>
<path d="M51.5 157C47.3578 157 44 160.358 44 164.5C44 168.642 47.3578 172 51.5 172C55.6422 172 59 168.642 59 164.5C59 160.358 55.6422 157 51.5 157Z" fill="#15C862"/>
<path d="M280.588 70.1753C274.284 70.1753 269.175 75.2842 269.175 81.5877C269.175 87.8911 274.284 93 280.588 93C286.891 93 292 87.8911 292 81.5877C291.998 75.2861 286.889 70.1753 280.588 70.1753Z" fill="#15C862"/>
<g opacity="0.6">
<path d="M280.993 70.0107C274.646 69.7389 269.283 74.6624 269.011 81.0065C268.739 87.3525 273.663 92.7154 280.007 92.9893C286.352 93.2611 291.717 88.3376 291.989 81.9935C292.261 75.6475 287.337 70.2826 280.993 70.0107Z" fill="white"/>
</g>
<path d="M280.5 74C276.358 74 273 77.3578 273 81.5C273 85.6422 276.358 89 280.5 89C284.642 89 288 85.6422 288 81.5C288 77.3578 284.642 74 280.5 74Z" fill="#15C862"/>
<rect x="25.5" y="114.5" width="53" height="33" rx="4.5" fill="white"/>
<rect x="25.5" y="114.5" width="53" height="33" rx="4.5" stroke="#EEEEEE"/>
<path opacity="0.5" d="M36.2784 137V125.364H43.5739V126.875H38.0341V130.42H43.1932V131.926H38.0341V135.489H43.642V137H36.2784ZM55.1511 125.364V137H53.5374L47.6227 128.466H47.5147V137H45.759V125.364H47.384L53.3045 133.909H53.4124V125.364H55.1511ZM65.4272 129.04C65.3173 128.695 65.1696 128.386 64.984 128.114C64.8022 127.837 64.5844 127.602 64.3306 127.409C64.0768 127.212 63.787 127.062 63.4613 126.96C63.1393 126.858 62.7851 126.807 62.3988 126.807C61.7434 126.807 61.1525 126.975 60.626 127.312C60.0995 127.65 59.6828 128.144 59.376 128.795C59.073 129.443 58.9215 130.237 58.9215 131.176C58.9215 132.119 59.0749 132.917 59.3817 133.568C59.6885 134.22 60.109 134.714 60.6431 135.051C61.1772 135.388 61.7851 135.557 62.4669 135.557C63.0995 135.557 63.6506 135.428 64.1203 135.17C64.5938 134.913 64.9594 134.549 65.2169 134.08C65.4783 133.606 65.609 133.049 65.609 132.409L66.0635 132.494H62.734V131.045H67.3078V132.369C67.3078 133.347 67.0995 134.195 66.6828 134.915C66.27 135.631 65.698 136.184 64.9669 136.574C64.2397 136.964 63.4063 137.159 62.4669 137.159C61.4139 137.159 60.4897 136.917 59.6942 136.432C58.9025 135.947 58.2851 135.259 57.8419 134.369C57.3988 133.475 57.1772 132.415 57.1772 131.188C57.1772 130.259 57.3059 129.426 57.5635 128.688C57.8211 127.949 58.1828 127.322 58.6488 126.807C59.1184 126.288 59.6696 125.892 60.3022 125.619C60.9385 125.343 61.6336 125.205 62.3874 125.205C63.0162 125.205 63.6014 125.297 64.1431 125.483C64.6885 125.669 65.1734 125.932 65.5976 126.273C66.0256 126.614 66.3798 127.019 66.6601 127.489C66.9404 127.955 67.1298 128.472 67.2283 129.04H65.4272Z" fill="#1D2026"/>
<rect x="255.5" y="164.5" width="61" height="33" rx="4.5" fill="white"/>
<rect x="255.5" y="164.5" width="61" height="33" rx="4.5" stroke="#EEEEEE"/>
<path opacity="0.5" d="M273.73 187.08C272.877 187.08 272.221 186.984 271.762 186.792C271.314 186.6 271.005 186.301 270.834 185.896C270.664 185.491 270.568 184.968 270.546 184.328L270.226 175.576H271.538L271.858 183.816C271.88 184.339 271.928 184.744 272.002 185.032C272.088 185.309 272.269 185.501 272.546 185.608C272.834 185.715 273.282 185.768 273.89 185.768C274.114 185.768 274.274 185.832 274.37 185.96C274.477 186.077 274.53 186.221 274.53 186.392C274.53 186.563 274.456 186.723 274.306 186.872C274.157 187.011 273.965 187.08 273.73 187.08ZM273.571 187.08L273.731 185.768C274.179 185.768 274.531 185.731 274.787 185.656C275.043 185.571 275.235 185.416 275.363 185.192C275.501 184.957 275.619 184.621 275.715 184.184C275.811 183.747 275.928 183.176 276.067 182.472L277.315 182.712C277.272 182.904 277.224 183.117 277.171 183.352C277.117 183.587 277.069 183.821 277.027 184.056C276.995 184.28 276.979 184.477 276.979 184.648C276.979 184.861 277.027 185.053 277.123 185.224C277.219 185.395 277.427 185.528 277.747 185.624C278.067 185.72 278.557 185.768 279.219 185.768C279.443 185.768 279.603 185.832 279.699 185.96C279.805 186.077 279.859 186.221 279.859 186.392C279.859 186.563 279.784 186.723 279.635 186.872C279.485 187.011 279.293 187.08 279.059 187.08C278.365 187.08 277.821 187.021 277.427 186.904C277.032 186.776 276.744 186.589 276.563 186.344C276.381 186.088 276.259 185.779 276.195 185.416L276.675 185.448C276.504 185.789 276.317 186.067 276.115 186.28C275.923 186.493 275.709 186.659 275.475 186.776C275.24 186.893 274.968 186.973 274.659 187.016C274.349 187.059 273.987 187.08 273.571 187.08ZM276.291 190.056C276.067 190.056 275.875 189.976 275.715 189.816C275.565 189.667 275.491 189.485 275.491 189.272C275.491 189.059 275.565 188.872 275.715 188.712C275.875 188.552 276.067 188.472 276.291 188.472C276.504 188.472 276.685 188.552 276.835 188.712C276.995 188.872 277.075 189.059 277.075 189.272C277.075 189.485 276.995 189.667 276.835 189.816C276.685 189.976 276.504 190.056 276.291 190.056ZM278.895 187.08L279.039 185.768C279.594 185.768 280.138 185.725 280.671 185.64C281.204 185.555 281.727 185.432 282.239 185.272C282.751 185.112 283.242 184.92 283.711 184.696C284.191 184.461 284.644 184.195 285.071 183.896C284.794 183.651 284.474 183.437 284.111 183.256C283.748 183.075 283.348 182.936 282.911 182.84C282.484 182.733 282.031 182.68 281.551 182.68C281.38 182.68 281.22 182.685 281.071 182.696C280.922 182.707 280.772 182.728 280.623 182.76C280.474 182.781 280.303 182.813 280.111 182.856L279.855 181.64C280.143 181.555 280.431 181.491 280.719 181.448C281.007 181.395 281.284 181.368 281.551 181.368C282.106 181.368 282.607 181.437 283.055 181.576C283.503 181.704 283.908 181.864 284.271 182.056C284.644 182.248 284.991 182.44 285.311 182.632C285.642 182.824 285.962 182.989 286.271 183.128C286.58 183.256 286.9 183.32 287.231 183.32H287.567L287.679 184.472C287.22 184.472 286.799 184.536 286.415 184.664C286.031 184.792 285.652 184.957 285.279 185.16C284.916 185.352 284.532 185.56 284.127 185.784C283.722 185.997 283.274 186.205 282.783 186.408C282.292 186.6 281.727 186.76 281.087 186.888C280.458 187.016 279.727 187.08 278.895 187.08ZM287.58 190.712L287.116 189.496C287.895 189.24 288.54 188.947 289.052 188.616C289.575 188.285 289.986 187.933 290.284 187.56C290.594 187.187 290.812 186.808 290.94 186.424C291.068 186.029 291.132 185.651 291.132 185.288C291.132 184.765 291.015 184.237 290.78 183.704C290.556 183.16 290.306 182.648 290.028 182.168L291.196 181.576C291.399 181.949 291.575 182.317 291.724 182.68C291.884 183.043 292.023 183.384 292.14 183.704C292.268 184.024 292.37 184.317 292.444 184.584C292.594 185.043 292.786 185.357 293.02 185.528C293.266 185.688 293.596 185.768 294.012 185.768C294.236 185.768 294.396 185.832 294.492 185.96C294.599 186.077 294.652 186.221 294.652 186.392C294.652 186.563 294.578 186.723 294.428 186.872C294.279 187.011 294.087 187.08 293.852 187.08C293.383 187.08 292.999 187 292.7 186.84C292.412 186.669 292.194 186.451 292.044 186.184C291.895 185.907 291.794 185.619 291.74 185.32L292.252 185.608C292.252 186.312 292.092 186.952 291.772 187.528C291.463 188.115 291.063 188.621 290.572 189.048C290.082 189.485 289.57 189.843 289.036 190.12C288.503 190.397 288.018 190.595 287.58 190.712ZM293.7 187.08L293.86 185.768C294.159 185.768 294.409 185.704 294.612 185.576C294.815 185.448 295.012 185.235 295.204 184.936C295.396 184.637 295.604 184.237 295.828 183.736C296.137 183.053 296.441 182.536 296.74 182.184C297.049 181.832 297.353 181.592 297.652 181.464C297.961 181.336 298.265 181.272 298.564 181.272C298.927 181.272 299.263 181.368 299.572 181.56C299.881 181.741 300.153 181.987 300.388 182.296C300.623 182.605 300.804 182.947 300.932 183.32C301.071 183.683 301.14 184.045 301.14 184.408C301.14 185.048 301.028 185.56 300.804 185.944C300.58 186.317 300.292 186.589 299.94 186.76C299.599 186.92 299.241 187 298.868 187C298.537 187 298.111 186.936 297.588 186.808C297.076 186.68 296.425 186.355 295.636 185.832L296.26 184.824C296.783 185.155 297.252 185.384 297.668 185.512C298.095 185.629 298.447 185.688 298.724 185.688C299.033 185.688 299.279 185.645 299.46 185.56C299.641 185.464 299.775 185.331 299.86 185.16C299.945 184.989 299.988 184.797 299.988 184.584C299.988 184.275 299.913 183.965 299.764 183.656C299.615 183.347 299.423 183.091 299.188 182.888C298.964 182.685 298.724 182.584 298.468 182.584C298.276 182.584 298.089 182.637 297.908 182.744C297.727 182.851 297.54 183.048 297.348 183.336C297.156 183.624 296.937 184.04 296.692 184.584C296.436 185.16 296.191 185.619 295.956 185.96C295.732 186.291 295.503 186.536 295.268 186.696C295.033 186.856 294.788 186.957 294.532 187C294.287 187.053 294.009 187.08 293.7 187.08Z" fill="#1D2026"/>
<rect x="145.5" y="192.5" width="53" height="33" rx="4.5" fill="white"/>
<rect x="145.5" y="192.5" width="53" height="33" rx="4.5" stroke="#EEEEEE"/>
<path opacity="0.5" d="M155 205.048H164.104V206.184H162.456V215H161.16V210.232H158.264V211.096C158.264 211.688 157.944 211.992 157.448 211.992C156.664 211.992 155.592 210.808 155.592 209.912C155.592 209.432 155.848 209.096 156.568 209.096H161.16V206.184H155V205.048ZM171.859 206.184V215H170.563V211H167.027V211.592C167.027 212.296 166.659 212.584 166.259 212.584C165.443 212.584 164.339 211.368 164.339 210.552C164.339 210.168 164.595 209.864 165.315 209.864H165.731V206.184H163.715V205.048H173.507V206.184H171.859ZM170.563 206.184H167.027V209.864H170.563V206.184ZM177.71 215.224C176.11 213.656 174.814 212.04 174.238 210.984C173.934 210.44 173.79 209.96 173.79 209.56C173.79 209 174.11 208.696 174.654 208.696C175.118 208.696 175.55 208.984 175.966 209.464C176.542 209.064 176.734 208.344 176.734 207.64C176.734 207.048 176.606 206.52 176.462 206.184H173.118V205.048H181.054V206.184H177.774C177.95 206.648 178.03 207.16 178.03 207.8C178.03 208.536 177.854 209.16 177.486 209.688C178.158 209.928 178.798 210.024 179.486 210.024C180.03 210.024 180.51 209.976 181.086 209.88L181.118 211.016C180.574 211.144 180.11 211.176 179.486 211.176C178.654 211.176 177.598 210.984 176.718 210.504C176.398 210.728 175.998 210.936 175.55 211.08C176.318 212.12 177.406 213.176 178.686 214.36L177.71 215.224ZM186.872 206.184V215H185.576V209.752H183.352C182.008 209.752 181.192 210.168 181.192 211.304C181.192 212.344 181.864 213.192 183.144 214.408L182.232 215.224C180.728 213.768 179.896 212.568 179.896 211.144C179.896 209.416 181.16 208.616 183.128 208.616H185.576V206.184H179.176V205.048H188.52V206.184H186.872ZM185.437 205.16C184.557 202.312 184.237 201.832 183.149 201.832C182.701 201.832 182.205 201.944 181.821 202.088L181.469 200.952C181.917 200.776 182.525 200.664 183.069 200.664C184.941 200.664 185.517 201.576 186.621 205.16H185.437Z" fill="#1D2026"/>
<rect x="177.5" y="64.5" width="87" height="33" rx="4.5" fill="white"/>
<rect x="177.5" y="64.5" width="87" height="33" rx="4.5" stroke="#EEEEEE"/>
<path opacity="0.5" d="M197.943 79.1477H196.17C196.102 78.7689 195.975 78.4356 195.79 78.1477C195.604 77.8598 195.377 77.6155 195.108 77.4148C194.839 77.214 194.538 77.0625 194.205 76.9602C193.875 76.858 193.525 76.8068 193.153 76.8068C192.483 76.8068 191.883 76.9754 191.352 77.3125C190.826 77.6496 190.409 78.1439 190.102 78.7955C189.799 79.447 189.648 80.2424 189.648 81.1818C189.648 82.1288 189.799 82.928 190.102 83.5795C190.409 84.2311 190.828 84.7235 191.358 85.0568C191.888 85.3902 192.485 85.5568 193.148 85.5568C193.515 85.5568 193.864 85.5076 194.193 85.4091C194.527 85.3068 194.828 85.1572 195.097 84.9602C195.366 84.7633 195.593 84.5227 195.778 84.2386C195.968 83.9508 196.098 83.6212 196.17 83.25L197.943 83.2557C197.848 83.8277 197.665 84.3542 197.392 84.8352C197.123 85.3125 196.777 85.7254 196.352 86.0739C195.932 86.4186 195.451 86.6856 194.909 86.875C194.367 87.0644 193.777 87.1591 193.136 87.1591C192.129 87.1591 191.231 86.9205 190.443 86.4432C189.655 85.9621 189.034 85.2746 188.58 84.3807C188.129 83.4867 187.903 82.4205 187.903 81.1818C187.903 79.9394 188.131 78.8731 188.585 77.983C189.04 77.089 189.661 76.4034 190.449 75.9261C191.237 75.4451 192.133 75.2045 193.136 75.2045C193.754 75.2045 194.33 75.2936 194.864 75.4716C195.402 75.6458 195.884 75.9034 196.312 76.2443C196.741 76.5814 197.095 76.9943 197.375 77.483C197.655 77.9678 197.845 78.5227 197.943 79.1477ZM199.748 87V78.2727H206.867V87H205.202V79.7386H201.401V87H199.748ZM211.518 87.1932C210.965 87.1932 210.465 87.0909 210.018 86.8864C209.571 86.678 209.217 86.3769 208.956 85.983C208.698 85.589 208.569 85.1061 208.569 84.5341C208.569 84.0417 208.664 83.6364 208.853 83.3182C209.043 83 209.298 82.7481 209.62 82.5625C209.942 82.3769 210.302 82.2367 210.7 82.142C211.098 82.0473 211.503 81.9754 211.916 81.9261C212.439 81.8655 212.863 81.8163 213.189 81.7784C213.514 81.7367 213.751 81.6705 213.899 81.5795C214.046 81.4886 214.12 81.3409 214.12 81.1364V81.0966C214.12 80.6004 213.98 80.2159 213.7 79.9432C213.423 79.6705 213.01 79.5341 212.461 79.5341C211.889 79.5341 211.439 79.661 211.109 79.9148C210.783 80.1648 210.558 80.4432 210.433 80.75L208.836 80.3864C209.026 79.8561 209.302 79.428 209.666 79.1023C210.033 78.7727 210.456 78.5341 210.933 78.3864C211.41 78.2348 211.912 78.1591 212.439 78.1591C212.787 78.1591 213.156 78.2008 213.546 78.2841C213.94 78.3636 214.308 78.5114 214.649 78.7273C214.993 78.9432 215.276 79.2519 215.495 79.6534C215.715 80.0511 215.825 80.5682 215.825 81.2045V87H214.166V85.8068H214.098C213.988 86.0265 213.823 86.2424 213.603 86.4545C213.384 86.6667 213.101 86.8428 212.757 86.983C212.412 87.1231 211.999 87.1932 211.518 87.1932ZM211.887 85.8295C212.357 85.8295 212.759 85.7367 213.092 85.5511C213.429 85.3655 213.685 85.1231 213.859 84.8239C214.037 84.5208 214.126 84.197 214.126 83.8523V82.7273C214.065 82.7879 213.948 82.8447 213.774 82.8977C213.603 82.947 213.408 82.9905 213.189 83.0284C212.969 83.0625 212.755 83.0947 212.546 83.125C212.338 83.1515 212.164 83.1742 212.024 83.1932C211.694 83.2348 211.393 83.3049 211.12 83.4034C210.851 83.5019 210.635 83.6439 210.473 83.8295C210.314 84.0114 210.234 84.2538 210.234 84.5568C210.234 84.9773 210.389 85.2955 210.7 85.5114C211.01 85.7235 211.406 85.8295 211.887 85.8295ZM221.604 87.1761C220.759 87.1761 220.032 86.9848 219.422 86.6023C218.816 86.2159 218.35 85.6837 218.024 85.0057C217.699 84.3277 217.536 83.5511 217.536 82.6761C217.536 81.7898 217.702 81.0076 218.036 80.3295C218.369 79.6477 218.839 79.1155 219.445 78.733C220.051 78.3504 220.765 78.1591 221.587 78.1591C222.25 78.1591 222.841 78.2822 223.359 78.5284C223.878 78.7708 224.297 79.1117 224.615 79.5511C224.937 79.9905 225.128 80.5038 225.189 81.0909H223.536C223.445 80.6818 223.236 80.3295 222.911 80.0341C222.589 79.7386 222.157 79.5909 221.615 79.5909C221.142 79.5909 220.727 79.7159 220.371 79.9659C220.019 80.2121 219.744 80.5644 219.547 81.0227C219.35 81.4773 219.252 82.0152 219.252 82.6364C219.252 83.2727 219.348 83.822 219.541 84.2841C219.734 84.7462 220.007 85.1042 220.359 85.358C220.716 85.6117 221.134 85.7386 221.615 85.7386C221.937 85.7386 222.229 85.6799 222.49 85.5625C222.755 85.4413 222.977 85.2689 223.155 85.0455C223.337 84.822 223.464 84.553 223.536 84.2386H225.189C225.128 84.803 224.945 85.3068 224.638 85.75C224.331 86.1932 223.92 86.5417 223.405 86.7955C222.894 87.0492 222.293 87.1761 221.604 87.1761ZM228.511 84.6193L232.357 78.2727H234.187V87H232.522V80.6477L228.692 87H226.846V78.2727H228.511V84.6193ZM243.044 75.0227L243.748 76.0966C243.487 76.3352 243.19 76.5057 242.856 76.608C242.527 76.7064 242.146 76.7689 241.714 76.7955C241.282 76.8182 240.788 76.839 240.231 76.858C239.602 76.8769 239.085 77.0133 238.68 77.267C238.275 77.517 237.962 77.8883 237.743 78.3807C237.527 78.8693 237.387 79.483 237.322 80.2216H237.43C237.714 79.6799 238.108 79.2746 238.612 79.0057C239.12 78.7367 239.69 78.6023 240.322 78.6023C241.027 78.6023 241.654 78.7633 242.203 79.0852C242.752 79.4072 243.184 79.8788 243.498 80.5C243.816 81.1174 243.976 81.8731 243.976 82.767C243.976 83.6723 243.809 84.4545 243.476 85.1136C243.146 85.7727 242.68 86.2822 242.078 86.642C241.479 86.9981 240.773 87.1761 239.959 87.1761C239.144 87.1761 238.434 86.9924 237.828 86.625C237.226 86.2538 236.758 85.7045 236.424 84.9773C236.095 84.25 235.93 83.3523 235.93 82.2841V81.4205C235.93 79.4242 236.286 77.9223 236.998 76.9148C237.71 75.9072 238.775 75.3902 240.191 75.3636C240.65 75.3523 241.059 75.3504 241.419 75.358C241.779 75.3617 242.093 75.3447 242.362 75.3068C242.635 75.2652 242.862 75.1705 243.044 75.0227ZM239.964 85.75C240.438 85.75 240.845 85.6307 241.186 85.392C241.53 85.1496 241.796 84.8068 241.981 84.3636C242.167 83.9205 242.26 83.3977 242.26 82.7955C242.26 82.2045 242.167 81.7027 241.981 81.2898C241.796 80.8769 241.53 80.5625 241.186 80.3466C240.841 80.1269 240.428 80.017 239.947 80.017C239.591 80.017 239.273 80.0795 238.993 80.2045C238.712 80.3258 238.472 80.5057 238.271 80.7443C238.074 80.983 237.921 81.2746 237.811 81.6193C237.705 81.9602 237.648 82.3523 237.64 82.7955C237.64 83.697 237.847 84.4148 238.26 84.9489C238.676 85.483 239.245 85.75 239.964 85.75ZM249.389 87.1761C248.571 87.1761 247.857 86.9886 247.247 86.6136C246.638 86.2386 246.164 85.714 245.827 85.0398C245.49 84.3655 245.321 83.5777 245.321 82.6761C245.321 81.7708 245.49 80.9792 245.827 80.3011C246.164 79.6231 246.638 79.0966 247.247 78.7216C247.857 78.3466 248.571 78.1591 249.389 78.1591C250.208 78.1591 250.922 78.3466 251.531 78.7216C252.141 79.0966 252.615 79.6231 252.952 80.3011C253.289 80.9792 253.458 81.7708 253.458 82.6761C253.458 83.5777 253.289 84.3655 252.952 85.0398C252.615 85.714 252.141 86.2386 251.531 86.6136C250.922 86.9886 250.208 87.1761 249.389 87.1761ZM249.395 85.75C249.925 85.75 250.365 85.6098 250.713 85.3295C251.062 85.0492 251.319 84.6761 251.486 84.2102C251.656 83.7443 251.742 83.2311 251.742 82.6705C251.742 82.1136 251.656 81.6023 251.486 81.1364C251.319 80.6667 251.062 80.2898 250.713 80.0057C250.365 79.7216 249.925 79.5795 249.395 79.5795C248.861 79.5795 248.418 79.7216 248.066 80.0057C247.717 80.2898 247.458 80.6667 247.287 81.1364C247.12 81.6023 247.037 82.1136 247.037 82.6705C247.037 83.2311 247.12 83.7443 247.287 84.2102C247.458 84.6761 247.717 85.0492 248.066 85.3295C248.418 85.6098 248.861 85.75 249.395 85.75Z" fill="#1D2026"/>
<defs>
<linearGradient id="paint0_linear_12_4247" x1="23" y1="0" x2="23" y2="46" gradientUnits="userSpaceOnUse">
<stop stop-color="white" stop-opacity="0"/>
<stop offset="1" stop-color="white"/>
</linearGradient>
<clipPath id="clip0_12_4247">
<rect width="23.1558" height="23.1558" fill="white" transform="translate(172.844 13.8438)"/>
</clipPath>
</defs>
</svg>
