<svg width="140" height="26" viewBox="0 0 140 26" fill="none" xmlns="http://www.w3.org/2000/svg">
<rect width="25.7143" height="25.7143" transform="translate(0.5 0.142883)" fill="#219653"/>
<path d="M13.3572 17.7265L17.2679 16.6793L18.9018 22.0001L13.3572 17.7265ZM22.3572 10.8491H15.4732L13.3572 4.00006L11.2411 10.8491H4.35718L9.92861 15.0944L7.81253 21.9435L13.384 17.6982L16.8125 15.0944L22.3572 10.8491Z" fill="white"/>
<rect width="25.7143" height="25.7143" transform="translate(28.7856 0.142883)" fill="#219653"/>
<path d="M41.6428 17.7265L45.5535 16.6793L47.1875 22.0001L41.6428 17.7265ZM50.6428 10.8491H43.7589L41.6428 4.00006L39.5268 10.8491H32.6428L38.2143 15.0944L36.0982 21.9435L41.6696 17.6982L45.0982 15.0944L50.6428 10.8491Z" fill="white"/>
<rect width="25.7143" height="25.7143" transform="translate(57.0713 0.142883)" fill="#219653"/>
<path d="M69.9285 17.7265L73.8392 16.6793L75.4731 22.0001L69.9285 17.7265ZM78.9285 10.8491H72.0445L69.9285 4.00006L67.8124 10.8491H60.9285L66.4999 15.0944L64.3838 21.9435L69.9553 17.6982L73.3838 15.0944L78.9285 10.8491Z" fill="white"/>
<rect width="25.7143" height="25.7143" transform="translate(85.3572 0.142883)" fill="#219653"/>
<path d="M98.2141 17.7265L102.125 16.6793L103.759 22.0001L98.2141 17.7265ZM107.214 10.8491H100.33L98.2141 4.00006L96.098 10.8491H89.2141L94.7855 15.0944L92.6695 21.9435L98.2409 17.6982L101.669 15.0944L107.214 10.8491Z" fill="white"/>
<rect width="25.7143" height="25.7143" transform="translate(113.643 0.142883)" fill="#219653"/>
<path d="M126.5 17.7265L130.411 16.6793L132.045 22.0001L126.5 17.7265ZM135.5 10.8491H128.616L126.5 4.00006L124.384 10.8491H117.5L123.071 15.0944L120.955 21.9435L126.527 17.6982L129.955 15.0944L135.5 10.8491Z" fill="white"/>
</svg>
