<svg width="90" height="34" viewBox="0 0 90 34" fill="none" xmlns="http://www.w3.org/2000/svg">
<path d="M9.35718 21.4732L13.2679 20.4821L14.9018 25.5178L9.35718 21.4732ZM18.3572 14.9643H11.4732L9.35718 8.48212L7.24111 14.9643H0.357178L5.92861 18.9821L3.81253 25.4643L9.38397 21.4464L12.8125 18.9821L18.3572 14.9643Z" fill="#219653"/>
<path d="M28.8262 11.0312V22H27.3948V11.0312H28.8262ZM32.3518 11.0312V12.2215H23.8767V11.0312H32.3518ZM34.5893 15.1295V22H33.1956V13.8488H34.5516L34.5893 15.1295ZM37.1356 13.8036L37.1281 15.0993C37.0126 15.0742 36.9021 15.0592 36.7966 15.0541C36.6961 15.0441 36.5806 15.0391 36.4501 15.0391C36.1286 15.0391 35.8449 15.0893 35.5988 15.1897C35.3527 15.2902 35.1443 15.4308 34.9735 15.6116C34.8027 15.7924 34.6671 16.0084 34.5667 16.2595C34.4713 16.5056 34.4085 16.7768 34.3783 17.0731L33.9866 17.2991C33.9866 16.8069 34.0343 16.3449 34.1297 15.9129C34.2302 15.481 34.3834 15.0993 34.5893 14.7679C34.7952 14.4314 35.0564 14.1702 35.3728 13.9844C35.6942 13.7935 36.0759 13.6981 36.5179 13.6981C36.6183 13.6981 36.7338 13.7107 36.8644 13.7358C36.995 13.7559 37.0854 13.7785 37.1356 13.8036ZM43.411 20.1166V13.8488H44.8122V22H43.4788L43.411 20.1166ZM43.6747 18.399L44.2547 18.3839C44.2547 18.9263 44.197 19.4286 44.0815 19.8906C43.971 20.3477 43.7902 20.7444 43.5391 21.0809C43.2879 21.4174 42.959 21.6811 42.5522 21.8719C42.1454 22.0578 41.6507 22.1507 41.0681 22.1507C40.6713 22.1507 40.3072 22.0929 39.9757 21.9774C39.6493 21.8619 39.368 21.6836 39.132 21.4425C38.8959 21.2015 38.7126 20.8876 38.582 20.5008C38.4565 20.1141 38.3937 19.6496 38.3937 19.1071V13.8488H39.7874V19.1222C39.7874 19.4888 39.8276 19.7927 39.9079 20.0338C39.9933 20.2698 40.1063 20.4581 40.2469 20.5988C40.3926 20.7344 40.5533 20.8298 40.7291 20.885C40.9099 20.9403 41.0957 20.9679 41.2866 20.9679C41.8792 20.9679 42.3488 20.8549 42.6953 20.6289C43.0419 20.3979 43.2905 20.089 43.4411 19.7023C43.5968 19.3105 43.6747 18.8761 43.6747 18.399ZM51.6828 19.8379C51.6828 19.637 51.6376 19.4512 51.5472 19.2804C51.4618 19.1046 51.2835 18.9464 51.0123 18.8058C50.7461 18.6602 50.3443 18.5346 49.8069 18.4291C49.3549 18.3337 48.9456 18.2207 48.579 18.0901C48.2174 17.9595 47.9085 17.8013 47.6523 17.6155C47.4012 17.4297 47.2079 17.2112 47.0723 16.9601C46.9367 16.709 46.8689 16.4152 46.8689 16.0787C46.8689 15.7573 46.9392 15.4534 47.0798 15.1671C47.2254 14.8809 47.4288 14.6272 47.69 14.4062C47.9562 14.1853 48.2751 14.012 48.6468 13.8864C49.0184 13.7609 49.4328 13.6981 49.8898 13.6981C50.5427 13.6981 51.1002 13.8136 51.5622 14.0446C52.0243 14.2757 52.3783 14.5845 52.6244 14.9713C52.8705 15.353 52.9936 15.7773 52.9936 16.2444H51.5999C51.5999 16.0184 51.5321 15.7999 51.3965 15.589C51.2659 15.373 51.0725 15.1948 50.8164 15.0541C50.5653 14.9135 50.2564 14.8432 49.8898 14.8432C49.5031 14.8432 49.1892 14.9035 48.9481 15.024C48.7121 15.1395 48.5388 15.2877 48.4283 15.4685C48.3228 15.6493 48.2701 15.8401 48.2701 16.041C48.2701 16.1917 48.2952 16.3273 48.3454 16.4478C48.4007 16.5633 48.4961 16.6713 48.6317 16.7718C48.7673 16.8672 48.9581 16.9576 49.2042 17.043C49.4503 17.1283 49.7642 17.2137 50.1459 17.2991C50.8139 17.4498 51.3638 17.6306 51.7958 17.8415C52.2277 18.0525 52.5491 18.3111 52.76 18.6175C52.971 18.9238 53.0765 19.2955 53.0765 19.7324C53.0765 20.089 53.0011 20.4155 52.8504 20.7118C52.7048 21.0081 52.4913 21.2642 52.2101 21.4802C51.9339 21.6911 51.6024 21.8569 51.2157 21.9774C50.834 22.0929 50.4046 22.1507 49.9275 22.1507C49.2093 22.1507 48.6016 22.0226 48.1044 21.7665C47.6071 21.5103 47.2305 21.1789 46.9743 20.772C46.7182 20.3652 46.5901 19.9358 46.5901 19.4838H47.9913C48.0114 19.8655 48.1219 20.1694 48.3228 20.3954C48.5237 20.6164 48.7698 20.7746 49.0611 20.87C49.3524 20.9604 49.6412 21.0056 49.9275 21.0056C50.3092 21.0056 50.6281 20.9554 50.8842 20.8549C51.1454 20.7545 51.3437 20.6164 51.4794 20.4406C51.615 20.2648 51.6828 20.0639 51.6828 19.8379ZM58.3198 13.8488V14.9185H53.9127V13.8488H58.3198ZM55.4043 11.8675H56.798V19.981C56.798 20.2573 56.8407 20.4657 56.9261 20.6063C57.0114 20.7469 57.1219 20.8398 57.2575 20.885C57.3931 20.9302 57.5388 20.9528 57.6945 20.9528C57.81 20.9528 57.9305 20.9428 58.0561 20.9227C58.1867 20.8976 58.2846 20.8775 58.3499 20.8624L58.3574 22C58.2469 22.0352 58.1013 22.0678 57.9205 22.0979C57.7447 22.1331 57.5312 22.1507 57.2801 22.1507C56.9386 22.1507 56.6247 22.0829 56.3384 21.9473C56.0522 21.8117 55.8237 21.5857 55.6529 21.2693C55.4872 20.9478 55.4043 20.5159 55.4043 19.9735V11.8675ZM61.3482 15.4157V25.1339H59.947V13.8488H61.2277L61.3482 15.4157ZM66.8401 17.8566V18.0148C66.8401 18.6074 66.7698 19.1574 66.6292 19.6646C66.4886 20.1669 66.2826 20.6038 66.0114 20.9754C65.7453 21.3471 65.4163 21.6359 65.0246 21.8418C64.6328 22.0477 64.1833 22.1507 63.6761 22.1507C63.1588 22.1507 62.7017 22.0653 62.305 21.8945C61.9082 21.7238 61.5717 21.4752 61.2955 21.1487C61.0193 20.8223 60.7983 20.4305 60.6325 19.9735C60.4718 19.5165 60.3613 19.0017 60.3011 18.4291V17.5854C60.3613 16.9827 60.4743 16.4428 60.6401 15.9657C60.8058 15.4886 61.0243 15.0818 61.2955 14.7453C61.5717 14.4037 61.9057 14.1451 62.2974 13.9693C62.6892 13.7885 63.1412 13.6981 63.6535 13.6981C64.1657 13.6981 64.6203 13.7985 65.017 13.9994C65.4138 14.1953 65.7478 14.4766 66.019 14.8432C66.2902 15.2098 66.4936 15.6493 66.6292 16.1616C66.7698 16.6688 66.8401 17.2338 66.8401 17.8566ZM65.4389 18.0148V17.8566C65.4389 17.4498 65.3962 17.0681 65.3108 16.7115C65.2254 16.3499 65.0924 16.0335 64.9116 15.7623C64.7358 15.486 64.5098 15.2701 64.2335 15.1144C63.9573 14.9537 63.6283 14.8733 63.2467 14.8733C62.8951 14.8733 62.5887 14.9336 62.3276 15.0541C62.0714 15.1747 61.853 15.3379 61.6722 15.5438C61.4914 15.7447 61.3432 15.9757 61.2277 16.2369C61.1172 16.493 61.0343 16.7592 60.9791 17.0354V18.9866C61.0795 19.3382 61.2201 19.6696 61.4009 19.981C61.5818 20.2874 61.8228 20.536 62.1242 20.7268C62.4255 20.9127 62.8047 21.0056 63.2617 21.0056C63.6384 21.0056 63.9623 20.9277 64.2335 20.772C64.5098 20.6113 64.7358 20.3929 64.9116 20.1166C65.0924 19.8404 65.2254 19.524 65.3108 19.1674C65.3962 18.8058 65.4389 18.4216 65.4389 18.0148ZM70.1323 13.8488V22H68.731V13.8488H70.1323ZM68.6256 11.6867C68.6256 11.4607 68.6934 11.2698 68.829 11.1141C68.9696 10.9584 69.1755 10.8806 69.4467 10.8806C69.7129 10.8806 69.9163 10.9584 70.0569 11.1141C70.2026 11.2698 70.2754 11.4607 70.2754 11.6867C70.2754 11.9026 70.2026 12.0884 70.0569 12.2441C69.9163 12.3948 69.7129 12.4701 69.4467 12.4701C69.1755 12.4701 68.9696 12.3948 68.829 12.2441C68.6934 12.0884 68.6256 11.9026 68.6256 11.6867ZM73.8839 10.4286V22H72.4827V10.4286H73.8839ZM75.7522 18.0148V17.8415C75.7522 17.2539 75.8376 16.709 76.0084 16.2068C76.1791 15.6995 76.4252 15.26 76.7467 14.8884C77.0681 14.5117 77.4573 14.2204 77.9143 14.0145C78.3714 13.8036 78.8836 13.6981 79.4512 13.6981C80.0237 13.6981 80.5385 13.8036 80.9955 14.0145C81.4576 14.2204 81.8493 14.5117 82.1708 14.8884C82.4972 15.26 82.7458 15.6995 82.9166 16.2068C83.0873 16.709 83.1727 17.2539 83.1727 17.8415V18.0148C83.1727 18.6024 83.0873 19.1473 82.9166 19.6496C82.7458 20.1518 82.4972 20.5912 82.1708 20.9679C81.8493 21.3396 81.4601 21.6309 81.0031 21.8418C80.5511 22.0477 80.0388 22.1507 79.4662 22.1507C78.8937 22.1507 78.3789 22.0477 77.9219 21.8418C77.4648 21.6309 77.0731 21.3396 76.7467 20.9679C76.4252 20.5912 76.1791 20.1518 76.0084 19.6496C75.8376 19.1473 75.7522 18.6024 75.7522 18.0148ZM77.1459 17.8415V18.0148C77.1459 18.4216 77.1936 18.8058 77.2891 19.1674C77.3845 19.524 77.5276 19.8404 77.7185 20.1166C77.9143 20.3929 78.1579 20.6113 78.4492 20.772C78.7405 20.9277 79.0795 21.0056 79.4662 21.0056C79.8479 21.0056 80.1819 20.9277 80.4682 20.772C80.7595 20.6113 81.0006 20.3929 81.1914 20.1166C81.3823 19.8404 81.5254 19.524 81.6208 19.1674C81.7213 18.8058 81.7715 18.4216 81.7715 18.0148V17.8415C81.7715 17.4397 81.7213 17.0605 81.6208 16.704C81.5254 16.3424 81.3797 16.0234 81.1839 15.7472C80.993 15.466 80.752 15.245 80.4607 15.0843C80.1744 14.9235 79.8379 14.8432 79.4512 14.8432C79.0695 14.8432 78.733 14.9235 78.4417 15.0843C78.1554 15.245 77.9143 15.466 77.7185 15.7472C77.5276 16.0234 77.3845 16.3424 77.2891 16.704C77.1936 17.0605 77.1459 17.4397 77.1459 17.8415ZM88.3331 13.8488V14.9185H83.9261V13.8488H88.3331ZM85.4177 11.8675H86.8114V19.981C86.8114 20.2573 86.8541 20.4657 86.9395 20.6063C87.0248 20.7469 87.1353 20.8398 87.2709 20.885C87.4065 20.9302 87.5522 20.9528 87.7079 20.9528C87.8234 20.9528 87.9439 20.9428 88.0695 20.9227C88.2001 20.8976 88.298 20.8775 88.3633 20.8624L88.3708 22C88.2603 22.0352 88.1147 22.0678 87.9339 22.0979C87.7581 22.1331 87.5446 22.1507 87.2935 22.1507C86.952 22.1507 86.6381 22.0829 86.3518 21.9473C86.0656 21.8117 85.8371 21.5857 85.6663 21.2693C85.5006 20.9478 85.4177 20.5159 85.4177 19.9735V11.8675Z" fill="black"/>
</svg>
