<svg width="119" height="22" viewBox="0 0 119 22" fill="none" xmlns="http://www.w3.org/2000/svg">
<g clip-path="url(#clip0_2238_18852)">
<mask id="mask0_2238_18852" style="mask-type:luminance" maskUnits="userSpaceOnUse" x="0" y="0" width="119" height="22">
<path d="M119 0.404297H0V21.2293H119V0.404297Z" fill="white"/>
</mask>
<g mask="url(#mask0_2238_18852)">
<path d="M33.5859 5.5127H35.7386V12.0698C35.7386 12.806 35.5613 13.4502 35.2066 14.0025C34.8552 14.5546 34.3632 14.9852 33.7301 15.2942C33.0971 15.5998 32.3595 15.7527 31.5176 15.7527C30.6725 15.7527 29.9335 15.5998 29.3005 15.2942C28.6675 14.9852 28.1752 14.5546 27.824 14.0025C27.4726 13.4502 27.2969 12.806 27.2969 12.0698V5.5127H29.4496V11.8874C29.4496 12.272 29.5341 12.6138 29.7032 12.9129C29.8754 13.212 30.1174 13.447 30.4289 13.6179C30.7406 13.7888 31.1034 13.8742 31.5176 13.8742C31.9353 13.8742 32.2984 13.7888 32.6066 13.6179C32.9181 13.447 33.1584 13.212 33.3274 12.9129C33.4998 12.6138 33.5859 12.272 33.5859 11.8874V5.5127Z" fill="#010101"/>
<path d="M33.5859 5.5127H35.7386V12.0698C35.7386 12.806 35.5613 13.4502 35.2066 14.0025C34.8552 14.5546 34.3632 14.9852 33.7301 15.2942C33.0971 15.5998 32.3595 15.7527 31.5176 15.7527C30.6725 15.7527 29.9335 15.5998 29.3005 15.2942C28.6675 14.9852 28.1752 14.5546 27.824 14.0025C27.4726 13.4502 27.2969 12.806 27.2969 12.0698V5.5127H29.4496V11.8874C29.4496 12.272 29.5341 12.6138 29.7032 12.9129C29.8754 13.212 30.1174 13.447 30.4289 13.6179C30.7406 13.7888 31.1034 13.8742 31.5176 13.8742C31.9353 13.8742 32.2984 13.7888 32.6066 13.6179C32.9181 13.447 33.1584 13.212 33.3274 12.9129C33.4998 12.6138 33.5859 12.272 33.5859 11.8874V5.5127Z" fill="#010101"/>
<path d="M39.5887 11.2308V15.6088H37.4707V8.03609H39.4893V9.37222H39.5787C39.7478 8.93174 40.0311 8.58337 40.4289 8.32699C40.8265 8.06733 41.3088 7.9375 41.8756 7.9375C42.4059 7.9375 42.8682 8.05251 43.2627 8.28266C43.6571 8.51269 43.9637 8.84136 44.1823 9.26863C44.4012 9.69263 44.5106 10.1988 44.5106 10.7871V15.6088H42.3927V11.1618C42.3959 10.6984 42.2767 10.3368 42.0347 10.0772C41.7928 9.81425 41.4596 9.68281 41.0353 9.68281C40.7502 9.68281 40.4985 9.74362 40.2796 9.86518C40.0642 9.9868 39.8953 10.1643 39.7726 10.3976C39.6533 10.6277 39.5919 10.9055 39.5887 11.2308Z" fill="#010101"/>
<path d="M39.5887 11.2308V15.6088H37.4707V8.03609H39.4893V9.37222H39.5787C39.7478 8.93174 40.0311 8.58337 40.4289 8.32699C40.8265 8.06733 41.3088 7.9375 41.8756 7.9375C42.4059 7.9375 42.8682 8.05251 43.2627 8.28266C43.6571 8.51269 43.9637 8.84136 44.1823 9.26863C44.4012 9.69263 44.5106 10.1988 44.5106 10.7871V15.6088H42.3927V11.1618C42.3959 10.6984 42.2767 10.3368 42.0347 10.0772C41.7928 9.81425 41.4596 9.68281 41.0353 9.68281C40.7502 9.68281 40.4985 9.74362 40.2796 9.86518C40.0642 9.9868 39.8953 10.1643 39.7726 10.3976C39.6533 10.6277 39.5919 10.9055 39.5887 11.2308Z" fill="#010101"/>
<path d="M48.9938 15.733C48.4137 15.733 47.8884 15.585 47.4178 15.2892C46.9504 14.9901 46.5792 14.5514 46.3041 13.9728C46.0323 13.3911 45.8965 12.6779 45.8965 11.8332C45.8965 10.9655 46.0374 10.244 46.3191 9.66884C46.6007 9.09038 46.9752 8.65818 47.4425 8.37222C47.9132 8.08299 48.4286 7.93834 48.9888 7.93834C49.4163 7.93834 49.7726 8.01064 50.0577 8.15528C50.3459 8.29659 50.5781 8.47408 50.7538 8.68775C50.9327 8.89808 51.0685 9.10514 51.1614 9.30893H51.226V5.5127H53.3389V15.6097H51.2508V14.3968H51.1614C51.062 14.6072 50.9211 14.8159 50.7388 15.023C50.5599 15.2268 50.3261 15.396 50.0377 15.5308C49.7527 15.6655 49.4046 15.733 48.9938 15.733ZM49.6648 14.0616C50.0061 14.0616 50.2945 13.9696 50.53 13.7855C50.7687 13.5982 50.9509 13.3368 51.0769 13.0016C51.2062 12.6664 51.2706 12.2736 51.2706 11.8233C51.2706 11.373 51.2078 10.9819 51.0818 10.6499C50.9558 10.318 50.7736 10.0616 50.5349 9.88084C50.2962 9.70008 50.0061 9.6097 49.6648 9.6097C49.3169 9.6097 49.0236 9.70335 48.7849 9.89072C48.5462 10.078 48.3656 10.3377 48.2431 10.6696C48.1204 11.0016 48.059 11.3861 48.059 11.8233C48.059 12.2638 48.1204 12.6532 48.2431 12.9917C48.3689 13.327 48.5497 13.59 48.7849 13.7806C49.0236 13.968 49.3169 14.0616 49.6648 14.0616Z" fill="#010101"/>
<path d="M48.9938 15.733C48.4137 15.733 47.8884 15.585 47.4178 15.2892C46.9504 14.9901 46.5792 14.5514 46.3041 13.9728C46.0323 13.3911 45.8965 12.6779 45.8965 11.8332C45.8965 10.9655 46.0374 10.244 46.3191 9.66884C46.6007 9.09038 46.9752 8.65818 47.4425 8.37222C47.9132 8.08299 48.4286 7.93834 48.9888 7.93834C49.4163 7.93834 49.7726 8.01064 50.0577 8.15528C50.3459 8.29659 50.5781 8.47408 50.7538 8.68775C50.9327 8.89808 51.0685 9.10514 51.1614 9.30893H51.226V5.5127H53.3389V15.6097H51.2508V14.3968H51.1614C51.062 14.6072 50.9211 14.8159 50.7388 15.023C50.5599 15.2268 50.3261 15.396 50.0377 15.5308C49.7527 15.6655 49.4046 15.733 48.9938 15.733ZM49.6648 14.0616C50.0061 14.0616 50.2945 13.9696 50.53 13.7855C50.7687 13.5982 50.9509 13.3368 51.0769 13.0016C51.2062 12.6664 51.2706 12.2736 51.2706 11.8233C51.2706 11.373 51.2078 10.9819 51.0818 10.6499C50.9558 10.318 50.7736 10.0616 50.5349 9.88084C50.2962 9.70008 50.0061 9.6097 49.6648 9.6097C49.3169 9.6097 49.0236 9.70335 48.7849 9.89072C48.5462 10.078 48.3656 10.3377 48.2431 10.6696C48.1204 11.0016 48.059 11.3861 48.059 11.8233C48.059 12.2638 48.1204 12.6532 48.2431 12.9917C48.3689 13.327 48.5497 13.59 48.7849 13.7806C49.0236 13.968 49.3169 14.0616 49.6648 14.0616Z" fill="#010101"/>
<path d="M58.5579 15.7568C57.7723 15.7568 57.096 15.599 56.5293 15.2834C55.966 14.9646 55.5318 14.5143 55.2268 13.9326C54.9218 13.3475 54.7695 12.6557 54.7695 11.857C54.7695 11.078 54.9218 10.3944 55.2268 9.80604C55.5318 9.2177 55.9609 8.75919 56.5146 8.43052C57.0713 8.10184 57.7242 7.9375 58.4732 7.9375C58.977 7.9375 59.446 8.01806 59.8801 8.17907C60.3174 8.33686 60.6988 8.57516 61.0237 8.89396C61.3521 9.21276 61.6074 9.61379 61.7895 10.0969C61.9715 10.5768 62.0626 11.1388 62.0626 11.783V12.3599H55.6146V11.0583H60.0693C60.0693 10.756 60.0027 10.488 59.8706 10.2547C59.7379 10.0213 59.554 9.83888 59.3185 9.70745C59.0864 9.57268 58.8164 9.50527 58.5082 9.50527C58.1867 9.50527 57.9016 9.57922 57.653 9.72714C57.4078 9.87179 57.2155 10.0674 57.0762 10.3139C56.9372 10.557 56.8658 10.8282 56.8625 11.1274V12.3648C56.8625 12.7395 56.9321 13.0632 57.0713 13.3361C57.2139 13.6089 57.4144 13.8192 57.6729 13.9671C57.9314 14.115 58.238 14.1889 58.5926 14.1889C58.8278 14.1889 59.0435 14.1561 59.239 14.0903C59.4345 14.0246 59.6016 13.9261 59.7409 13.7946C59.8801 13.6631 59.9866 13.5021 60.0592 13.3114L62.0179 13.4396C61.9186 13.9063 61.7145 14.3139 61.4063 14.6622C61.1016 15.0073 60.7072 15.2769 60.2234 15.4708C59.7427 15.6614 59.1875 15.7568 58.5579 15.7568Z" fill="#010101"/>
<path d="M58.5579 15.7568C57.7723 15.7568 57.096 15.599 56.5293 15.2834C55.966 14.9646 55.5318 14.5143 55.2268 13.9326C54.9218 13.3475 54.7695 12.6557 54.7695 11.857C54.7695 11.078 54.9218 10.3944 55.2268 9.80604C55.5318 9.2177 55.9609 8.75919 56.5146 8.43052C57.0713 8.10184 57.7242 7.9375 58.4732 7.9375C58.977 7.9375 59.446 8.01806 59.8801 8.17907C60.3174 8.33686 60.6988 8.57516 61.0237 8.89396C61.3521 9.21276 61.6074 9.61379 61.7895 10.0969C61.9715 10.5768 62.0626 11.1388 62.0626 11.783V12.3599H55.6146V11.0583H60.0693C60.0693 10.756 60.0027 10.488 59.8706 10.2547C59.7379 10.0213 59.554 9.83888 59.3185 9.70745C59.0864 9.57268 58.8164 9.50527 58.5082 9.50527C58.1867 9.50527 57.9016 9.57922 57.653 9.72714C57.4078 9.87179 57.2155 10.0674 57.0762 10.3139C56.9372 10.557 56.8658 10.8282 56.8625 11.1274V12.3648C56.8625 12.7395 56.9321 13.0632 57.0713 13.3361C57.2139 13.6089 57.4144 13.8192 57.6729 13.9671C57.9314 14.115 58.238 14.1889 58.5926 14.1889C58.8278 14.1889 59.0435 14.1561 59.239 14.0903C59.4345 14.0246 59.6016 13.9261 59.7409 13.7946C59.8801 13.6631 59.9866 13.5021 60.0592 13.3114L62.0179 13.4396C61.9186 13.9063 61.7145 14.3139 61.4063 14.6622C61.1016 15.0073 60.7072 15.2769 60.2234 15.4708C59.7427 15.6614 59.1875 15.7568 58.5579 15.7568Z" fill="#010101"/>
<path d="M67.5076 8.03599V9.61363H62.9082V8.03599H67.5076ZM63.9524 6.22168H66.0706V13.2817C66.0706 13.4756 66.1004 13.6268 66.1599 13.7353C66.2194 13.8404 66.3027 13.9144 66.4086 13.9571C66.5181 13.9999 66.6442 14.0212 66.7864 14.0212C66.8858 14.0212 66.9851 14.013 67.0845 13.9966C67.1839 13.9768 67.2606 13.962 67.3136 13.9522L67.6462 15.515C67.5403 15.5479 67.3915 15.5857 67.1988 15.6284C67.0066 15.6744 66.7733 15.7024 66.4978 15.7123C65.9873 15.732 65.5399 15.6646 65.1555 15.5101C64.7747 15.3556 64.4778 15.1157 64.266 14.7903C64.0536 14.4649 63.9495 14.0541 63.9524 13.5578V6.22168Z" fill="#010101"/>
<path d="M67.5076 8.03599V9.61363H62.9082V8.03599H67.5076ZM63.9524 6.22168H66.0706V13.2817C66.0706 13.4756 66.1004 13.6268 66.1599 13.7353C66.2194 13.8404 66.3027 13.9144 66.4086 13.9571C66.5181 13.9999 66.6442 14.0212 66.7864 14.0212C66.8858 14.0212 66.9851 14.013 67.0845 13.9966C67.1839 13.9768 67.2606 13.962 67.3136 13.9522L67.6462 15.515C67.5403 15.5479 67.3915 15.5857 67.1988 15.6284C67.0066 15.6744 66.7733 15.7024 66.4978 15.7123C65.9873 15.732 65.5399 15.6646 65.1555 15.5101C64.7747 15.3556 64.4778 15.1157 64.266 14.7903C64.0536 14.4649 63.9495 14.0541 63.9524 13.5578V6.22168Z" fill="#010101"/>
<path d="M72.2845 15.7568C71.4991 15.7568 70.8231 15.599 70.2561 15.2834C69.6926 14.9646 69.2583 14.5143 68.9536 13.9326C68.6484 13.3475 68.4961 12.6557 68.4961 11.857C68.4961 11.078 68.6484 10.3944 68.9536 9.80604C69.2583 9.2177 69.6873 8.75919 70.2412 8.43052C70.7981 8.10184 71.4509 7.9375 72.2 7.9375C72.7039 7.9375 73.1728 8.01806 73.6071 8.17907C74.0445 8.33686 74.4259 8.57516 74.7501 8.89396C75.0786 9.21276 75.3338 9.61379 75.5159 10.0969C75.698 10.5768 75.7896 11.1388 75.7896 11.783V12.3599H69.341V11.0583H73.7958C73.7958 10.756 73.7297 10.488 73.597 10.2547C73.4643 10.0213 73.2805 9.83888 73.0455 9.70745C72.8128 9.57268 72.5433 9.50527 72.2351 9.50527C71.9132 9.50527 71.6282 9.57922 71.3795 9.72714C71.1343 9.87179 70.9421 10.0674 70.8029 10.3139C70.6637 10.557 70.5923 10.8282 70.5893 11.1274V12.3648C70.5893 12.7395 70.6589 13.0632 70.7981 13.3361C70.9404 13.6089 71.1409 13.8192 71.3997 13.9671C71.6579 14.115 71.9649 14.1889 72.3196 14.1889C72.5546 14.1889 72.77 14.1561 72.9657 14.0903C73.1609 14.0246 73.3287 13.9261 73.4679 13.7946C73.6071 13.6631 73.7131 13.5021 73.7856 13.3114L75.7444 13.4396C75.645 13.9063 75.4415 14.3139 75.1333 14.6622C74.8281 15.0073 74.4336 15.2769 73.9499 15.4708C73.4697 15.6614 72.9146 15.7568 72.2845 15.7568Z" fill="#010101"/>
<path d="M72.2845 15.7568C71.4991 15.7568 70.8231 15.599 70.2561 15.2834C69.6926 14.9646 69.2583 14.5143 68.9536 13.9326C68.6484 13.3475 68.4961 12.6557 68.4961 11.857C68.4961 11.078 68.6484 10.3944 68.9536 9.80604C69.2583 9.2177 69.6873 8.75919 70.2412 8.43052C70.7981 8.10184 71.4509 7.9375 72.2 7.9375C72.7039 7.9375 73.1728 8.01806 73.6071 8.17907C74.0445 8.33686 74.4259 8.57516 74.7501 8.89396C75.0786 9.21276 75.3338 9.61379 75.5159 10.0969C75.698 10.5768 75.7896 11.1388 75.7896 11.783V12.3599H69.341V11.0583H73.7958C73.7958 10.756 73.7297 10.488 73.597 10.2547C73.4643 10.0213 73.2805 9.83888 73.0455 9.70745C72.8128 9.57268 72.5433 9.50527 72.2351 9.50527C71.9132 9.50527 71.6282 9.57922 71.3795 9.72714C71.1343 9.87179 70.9421 10.0674 70.8029 10.3139C70.6637 10.557 70.5923 10.8282 70.5893 11.1274V12.3648C70.5893 12.7395 70.6589 13.0632 70.7981 13.3361C70.9404 13.6089 71.1409 13.8192 71.3997 13.9671C71.6579 14.115 71.9649 14.1889 72.3196 14.1889C72.5546 14.1889 72.77 14.1561 72.9657 14.0903C73.1609 14.0246 73.3287 13.9261 73.4679 13.7946C73.6071 13.6631 73.7131 13.5021 73.7856 13.3114L75.7444 13.4396C75.645 13.9063 75.4415 14.3139 75.1333 14.6622C74.8281 15.0073 74.4336 15.2769 73.9499 15.4708C73.4697 15.6614 72.9146 15.7568 72.2845 15.7568Z" fill="#010101"/>
<path d="M80.6213 15.7568C79.8395 15.7568 79.1665 15.5924 78.6031 15.2637C78.0432 14.9318 77.6124 14.4716 77.3107 13.8833C77.0126 13.2949 76.8633 12.6179 76.8633 11.8521C76.8633 11.0764 77.0138 10.396 77.3155 9.81098C77.6207 9.22264 78.0533 8.76413 78.6132 8.43546C79.1731 8.1035 79.8395 7.9375 80.6118 7.9375C81.2782 7.9375 81.8613 8.05745 82.3617 8.29742C82.8621 8.53732 83.2583 8.87427 83.5499 9.30808C83.8414 9.74196 84.0021 10.2514 84.0324 10.8365H82.0332C81.9773 10.4585 81.828 10.1544 81.5864 9.92438C81.3472 9.69102 81.0342 9.57434 80.6463 9.57434C80.3184 9.57434 80.0317 9.66306 79.7865 9.84055C79.5443 10.0148 79.3557 10.2695 79.2195 10.6048C79.0838 10.94 79.016 11.3459 79.016 11.8225C79.016 12.3056 79.082 12.7165 79.2147 13.055C79.3504 13.3935 79.5414 13.6516 79.7865 13.8291C80.0317 14.0066 80.3184 14.0953 80.6463 14.0953C80.8885 14.0953 81.1056 14.046 81.2978 13.9474C81.4936 13.8488 81.6542 13.7058 81.7804 13.5185C81.9095 13.3278 81.994 13.0994 82.0332 12.8332H84.0324C83.9991 13.4116 83.8396 13.9211 83.5546 14.3615C83.2732 14.7987 82.8835 15.1405 82.3867 15.387C81.8892 15.6335 81.3008 15.7568 80.6213 15.7568Z" fill="#010101"/>
<path d="M80.6213 15.7568C79.8395 15.7568 79.1665 15.5924 78.6031 15.2637C78.0432 14.9318 77.6124 14.4716 77.3107 13.8833C77.0126 13.2949 76.8633 12.6179 76.8633 11.8521C76.8633 11.0764 77.0138 10.396 77.3155 9.81098C77.6207 9.22264 78.0533 8.76413 78.6132 8.43546C79.1731 8.1035 79.8395 7.9375 80.6118 7.9375C81.2782 7.9375 81.8613 8.05745 82.3617 8.29742C82.8621 8.53732 83.2583 8.87427 83.5499 9.30808C83.8414 9.74196 84.0021 10.2514 84.0324 10.8365H82.0332C81.9773 10.4585 81.828 10.1544 81.5864 9.92438C81.3472 9.69102 81.0342 9.57434 80.6463 9.57434C80.3184 9.57434 80.0317 9.66306 79.7865 9.84055C79.5443 10.0148 79.3557 10.2695 79.2195 10.6048C79.0838 10.94 79.016 11.3459 79.016 11.8225C79.016 12.3056 79.082 12.7165 79.2147 13.055C79.3504 13.3935 79.5414 13.6516 79.7865 13.8291C80.0317 14.0066 80.3184 14.0953 80.6463 14.0953C80.8885 14.0953 81.1056 14.046 81.2978 13.9474C81.4936 13.8488 81.6542 13.7058 81.7804 13.5185C81.9095 13.3278 81.994 13.0994 82.0332 12.8332H84.0324C83.9991 13.4116 83.8396 13.9211 83.5546 14.3615C83.2732 14.7987 82.8835 15.1405 82.3867 15.387C81.8892 15.6335 81.3008 15.7568 80.6213 15.7568Z" fill="#010101"/>
<path d="M89.4503 8.03599V9.61363H84.8516V8.03599H89.4503ZM85.8958 6.22168H88.0134V13.2817C88.0134 13.4756 88.0437 13.6268 88.1032 13.7353C88.1627 13.8404 88.2454 13.9144 88.352 13.9571C88.4614 13.9999 88.587 14.0212 88.7298 14.0212C88.8291 14.0212 88.9285 14.013 89.0279 13.9966C89.1272 13.9768 89.2034 13.962 89.2569 13.9522L89.5896 15.515C89.4836 15.5479 89.3343 15.5857 89.1421 15.6284C88.9499 15.6744 88.7167 15.7024 88.4412 15.7123C87.9307 15.732 87.4833 15.6646 87.0989 15.5101C86.7175 15.3556 86.4212 15.1157 86.2094 14.7903C85.9969 14.4649 85.8922 14.0541 85.8958 13.5578V6.22168Z" fill="#010101"/>
<path d="M89.4503 8.03599V9.61363H84.8516V8.03599H89.4503ZM85.8958 6.22168H88.0134V13.2817C88.0134 13.4756 88.0437 13.6268 88.1032 13.7353C88.1627 13.8404 88.2454 13.9144 88.352 13.9571C88.4614 13.9999 88.587 14.0212 88.7298 14.0212C88.8291 14.0212 88.9285 14.013 89.0279 13.9966C89.1272 13.9768 89.2034 13.962 89.2569 13.9522L89.5896 15.515C89.4836 15.5479 89.3343 15.5857 89.1421 15.6284C88.9499 15.6744 88.7167 15.7024 88.4412 15.7123C87.9307 15.732 87.4833 15.6646 87.0989 15.5101C86.7175 15.3556 86.4212 15.1157 86.2094 14.7903C85.9969 14.4649 85.8922 14.0541 85.8958 13.5578V6.22168Z" fill="#010101"/>
<path d="M93.008 15.7518C92.5206 15.7518 92.0869 15.668 91.7055 15.5004C91.3241 15.3295 91.0224 15.078 90.8005 14.7461C90.5821 14.4108 90.4727 13.9934 90.4727 13.4938C90.4727 13.0731 90.5506 12.7198 90.7065 12.4338C90.8618 12.1479 91.0742 11.9178 91.3425 11.7436C91.6109 11.5694 91.9161 11.4379 92.2577 11.3492C92.6022 11.2605 92.9633 11.198 93.3412 11.1618C93.7856 11.1158 94.1432 11.0731 94.4151 11.0336C94.6865 10.9909 94.884 10.9284 95.0066 10.8463C95.1291 10.7642 95.1904 10.6425 95.1904 10.4815V10.4519C95.1904 10.1397 95.0911 9.89808 94.8923 9.72714C94.6966 9.55626 94.4181 9.47081 94.0569 9.47081C93.6761 9.47081 93.3727 9.55459 93.1472 9.7222C92.9223 9.8866 92.7729 10.0937 92.6997 10.3434L90.741 10.1856C90.8404 9.72553 91.0361 9.32784 91.3277 8.99255C91.6192 8.65406 91.9953 8.3944 92.4564 8.21364C92.9199 8.02955 93.4572 7.9375 94.0671 7.9375C94.4913 7.9375 94.8971 7.98683 95.285 8.08542C95.6765 8.18401 96.0228 8.33686 96.3245 8.54392C96.6291 8.75098 96.8695 9.01725 97.045 9.34259C97.2206 9.66473 97.3086 10.0509 97.3086 10.5012V15.6088H95.2999V14.5587H95.2404C95.1178 14.7954 94.9536 15.0041 94.7483 15.1848C94.5425 15.3623 94.2955 15.502 94.0076 15.6039C93.719 15.7025 93.3858 15.7518 93.008 15.7518ZM93.6143 14.3023C93.926 14.3023 94.2015 14.2415 94.4401 14.1199C94.6787 13.9951 94.8661 13.8274 95.0018 13.6171C95.1375 13.4067 95.2059 13.1684 95.2059 12.9022V12.0986C95.1392 12.1413 95.0482 12.1807 94.9322 12.2169C94.8197 12.2498 94.6918 12.281 94.549 12.3106C94.4068 12.3369 94.264 12.3615 94.1218 12.3845C93.979 12.4042 93.8499 12.4223 93.7339 12.4387C93.4851 12.4749 93.2686 12.5324 93.0823 12.6113C92.8973 12.6902 92.7527 12.797 92.6504 12.9318C92.5474 13.0632 92.4957 13.2276 92.4957 13.4248C92.4957 13.7107 92.6004 13.9293 92.8092 14.0805C93.0216 14.2284 93.29 14.3023 93.6143 14.3023Z" fill="#010101"/>
<path d="M93.008 15.7518C92.5206 15.7518 92.0869 15.668 91.7055 15.5004C91.3241 15.3295 91.0224 15.078 90.8005 14.7461C90.5821 14.4108 90.4727 13.9934 90.4727 13.4938C90.4727 13.0731 90.5506 12.7198 90.7065 12.4338C90.8618 12.1479 91.0742 11.9178 91.3425 11.7436C91.6109 11.5694 91.9161 11.4379 92.2577 11.3492C92.6022 11.2605 92.9633 11.198 93.3412 11.1618C93.7856 11.1158 94.1432 11.0731 94.4151 11.0336C94.6865 10.9909 94.884 10.9284 95.0066 10.8463C95.1291 10.7642 95.1904 10.6425 95.1904 10.4815V10.4519C95.1904 10.1397 95.0911 9.89808 94.8923 9.72714C94.6966 9.55626 94.4181 9.47081 94.0569 9.47081C93.6761 9.47081 93.3727 9.55459 93.1472 9.7222C92.9223 9.8866 92.7729 10.0937 92.6997 10.3434L90.741 10.1856C90.8404 9.72553 91.0361 9.32784 91.3277 8.99255C91.6192 8.65406 91.9953 8.3944 92.4564 8.21364C92.9199 8.02955 93.4572 7.9375 94.0671 7.9375C94.4913 7.9375 94.8971 7.98683 95.285 8.08542C95.6765 8.18401 96.0228 8.33686 96.3245 8.54392C96.6291 8.75098 96.8695 9.01725 97.045 9.34259C97.2206 9.66473 97.3086 10.0509 97.3086 10.5012V15.6088H95.2999V14.5587H95.2404C95.1178 14.7954 94.9536 15.0041 94.7483 15.1848C94.5425 15.3623 94.2955 15.502 94.0076 15.6039C93.719 15.7025 93.3858 15.7518 93.008 15.7518ZM93.6143 14.3023C93.926 14.3023 94.2015 14.2415 94.4401 14.1199C94.6787 13.9951 94.8661 13.8274 95.0018 13.6171C95.1375 13.4067 95.2059 13.1684 95.2059 12.9022V12.0986C95.1392 12.1413 95.0482 12.1807 94.9322 12.2169C94.8197 12.2498 94.6918 12.281 94.549 12.3106C94.4068 12.3369 94.264 12.3615 94.1218 12.3845C93.979 12.4042 93.8499 12.4223 93.7339 12.4387C93.4851 12.4749 93.2686 12.5324 93.0823 12.6113C92.8973 12.6902 92.7527 12.797 92.6504 12.9318C92.5474 13.0632 92.4957 13.2276 92.4957 13.4248C92.4957 13.7107 92.6004 13.9293 92.8092 14.0805C93.0216 14.2284 93.29 14.3023 93.6143 14.3023Z" fill="#010101"/>
<path d="M98.9902 15.6097V5.5127H101.108V9.30893H101.173C101.266 9.10514 101.399 8.89808 101.576 8.68775C101.755 8.47408 101.987 8.29659 102.272 8.15528C102.56 8.01064 102.918 7.93834 103.345 7.93834C103.902 7.93834 104.415 8.08299 104.887 8.37222C105.357 8.65818 105.733 9.09038 106.015 9.66884C106.297 10.244 106.438 10.9655 106.438 11.8332C106.438 12.6779 106.3 13.3911 106.025 13.9728C105.753 14.5514 105.382 14.9901 104.911 15.2892C104.444 15.585 103.92 15.733 103.34 15.733C102.929 15.733 102.58 15.6655 102.291 15.5308C102.006 15.396 101.772 15.2268 101.59 15.023C101.408 14.8159 101.268 14.6072 101.173 14.3968H101.078V15.6097H98.9902ZM101.063 11.8233C101.063 12.2736 101.126 12.6664 101.252 13.0016C101.378 13.3368 101.561 13.5982 101.799 13.7855C102.038 13.9696 102.328 14.0616 102.669 14.0616C103.014 14.0616 103.306 13.968 103.544 13.7806C103.783 13.59 103.963 13.327 104.086 12.9917C104.212 12.6532 104.275 12.2638 104.275 11.8233C104.275 11.3861 104.214 11.0016 104.091 10.6696C103.969 10.3377 103.788 10.078 103.549 9.89072C103.311 9.70335 103.017 9.6097 102.669 9.6097C102.325 9.6097 102.032 9.70008 101.794 9.88084C101.559 10.0616 101.378 10.318 101.252 10.6499C101.126 10.9819 101.063 11.373 101.063 11.8233Z" fill="#010101"/>
<path d="M98.9902 15.6097V5.5127H101.108V9.30893H101.173C101.266 9.10514 101.399 8.89808 101.576 8.68775C101.755 8.47408 101.987 8.29659 102.272 8.15528C102.56 8.01064 102.918 7.93834 103.345 7.93834C103.902 7.93834 104.415 8.08299 104.887 8.37222C105.357 8.65818 105.733 9.09038 106.015 9.66884C106.297 10.244 106.438 10.9655 106.438 11.8332C106.438 12.6779 106.3 13.3911 106.025 13.9728C105.753 14.5514 105.382 14.9901 104.911 15.2892C104.444 15.585 103.92 15.733 103.34 15.733C102.929 15.733 102.58 15.6655 102.291 15.5308C102.006 15.396 101.772 15.2268 101.59 15.023C101.408 14.8159 101.268 14.6072 101.173 14.3968H101.078V15.6097H98.9902ZM101.063 11.8233C101.063 12.2736 101.126 12.6664 101.252 13.0016C101.378 13.3368 101.561 13.5982 101.799 13.7855C102.038 13.9696 102.328 14.0616 102.669 14.0616C103.014 14.0616 103.306 13.968 103.544 13.7806C103.783 13.59 103.963 13.327 104.086 12.9917C104.212 12.6532 104.275 12.2638 104.275 11.8233C104.275 11.3861 104.214 11.0016 104.091 10.6696C103.969 10.3377 103.788 10.078 103.549 9.89072C103.311 9.70335 103.017 9.6097 102.669 9.6097C102.325 9.6097 102.032 9.70008 101.794 9.88084C101.559 10.0616 101.378 10.318 101.252 10.6499C101.126 10.9819 101.063 11.373 101.063 11.8233Z" fill="#010101"/>
<path d="M109.971 5.5127V15.6097H107.854V5.5127H109.971Z" fill="#010101"/>
<path d="M109.971 5.5127V15.6097H107.854V5.5127H109.971Z" fill="#010101"/>
<path d="M115.148 15.7568C114.362 15.7568 113.686 15.599 113.119 15.2834C112.556 14.9646 112.122 14.5143 111.817 13.9326C111.512 13.3475 111.359 12.6557 111.359 11.857C111.359 11.078 111.512 10.3944 111.817 9.80604C112.122 9.2177 112.551 8.75919 113.105 8.43052C113.661 8.10184 114.314 7.9375 115.063 7.9375C115.567 7.9375 116.036 8.01806 116.47 8.17907C116.908 8.33686 117.289 8.57516 117.614 8.89396C117.942 9.21276 118.197 9.61379 118.38 10.0969C118.562 10.5768 118.653 11.1388 118.653 11.783V12.3599H112.205V11.0583H116.659C116.659 10.756 116.593 10.488 116.46 10.2547C116.328 10.0213 116.144 9.83888 115.909 9.70745C115.677 9.57268 115.407 9.50527 115.098 9.50527C114.776 9.50527 114.492 9.57922 114.243 9.72714C113.998 9.87179 113.805 10.0674 113.666 10.3139C113.527 10.557 113.456 10.8282 113.453 11.1274V12.3648C113.453 12.7395 113.522 13.0632 113.661 13.3361C113.804 13.6089 114.005 13.8192 114.263 13.9671C114.521 14.115 114.828 14.1889 115.183 14.1889C115.418 14.1889 115.633 14.1561 115.829 14.0903C116.025 14.0246 116.192 13.9261 116.331 13.7946C116.47 13.6631 116.576 13.5021 116.65 13.3114L118.608 13.4396C118.509 13.9063 118.305 14.3139 117.997 14.6622C117.692 15.0073 117.297 15.2769 116.813 15.4708C116.333 15.6614 115.778 15.7568 115.148 15.7568Z" fill="#010101"/>
<path d="M115.148 15.7568C114.362 15.7568 113.686 15.599 113.119 15.2834C112.556 14.9646 112.122 14.5143 111.817 13.9326C111.512 13.3475 111.359 12.6557 111.359 11.857C111.359 11.078 111.512 10.3944 111.817 9.80604C112.122 9.2177 112.551 8.75919 113.105 8.43052C113.661 8.10184 114.314 7.9375 115.063 7.9375C115.567 7.9375 116.036 8.01806 116.47 8.17907C116.908 8.33686 117.289 8.57516 117.614 8.89396C117.942 9.21276 118.197 9.61379 118.38 10.0969C118.562 10.5768 118.653 11.1388 118.653 11.783V12.3599H112.205V11.0583H116.659C116.659 10.756 116.593 10.488 116.46 10.2547C116.328 10.0213 116.144 9.83888 115.909 9.70745C115.677 9.57268 115.407 9.50527 115.098 9.50527C114.776 9.50527 114.492 9.57922 114.243 9.72714C113.998 9.87179 113.805 10.0674 113.666 10.3139C113.527 10.557 113.456 10.8282 113.453 11.1274V12.3648C113.453 12.7395 113.522 13.0632 113.661 13.3361C113.804 13.6089 114.005 13.8192 114.263 13.9671C114.521 14.115 114.828 14.1889 115.183 14.1889C115.418 14.1889 115.633 14.1561 115.829 14.0903C116.025 14.0246 116.192 13.9261 116.331 13.7946C116.47 13.6631 116.576 13.5021 116.65 13.3114L118.608 13.4396C118.509 13.9063 118.305 14.3139 117.997 14.6622C117.692 15.0073 117.297 15.2769 116.813 15.4708C116.333 15.6614 115.778 15.7568 115.148 15.7568Z" fill="#010101"/>
<g opacity="0.5">
<path d="M9.72918 0.454729C9.45274 0.327398 9.11877 0.449912 8.99055 0.723977C7.22233 4.45039 6.5047 8.35159 7.3233 12.6591C7.41624 12.8709 7.64293 13.0044 7.86136 12.981C7.93068 12.9763 7.99089 12.9611 8.06158 12.9368C8.33676 12.8101 8.46921 12.4777 8.34128 12.2048C7.68339 8.44507 8.42708 4.51472 10.0101 1.19781C10.1293 0.913318 10.0056 0.58206 9.72918 0.454729Z" fill="#9259DD"/>
<path d="M10.2354 4.14471C9.54034 6.52711 9.26312 8.98833 9.41568 11.5001C9.43228 11.8139 9.70164 12.0384 10.009 12.0116C10.3253 11.9953 10.5515 11.7283 10.5245 11.4235C10.3817 9.04926 10.6413 6.69419 11.3069 4.44644C11.3973 4.15012 11.2225 3.84449 10.9237 3.75462C10.6339 3.67518 10.3259 3.8484 10.2354 4.14471Z" fill="#9259DD"/>
<path d="M14.4574 1.41386C14.1572 1.24558 13.7749 1.35893 13.6242 1.66649C12.7995 3.34846 11.4879 6.46364 11.7894 11.3589L11.7985 11.3694C11.8269 11.9282 11.6019 12.4493 11.1516 12.8174C10.7104 13.196 10.1384 13.3405 9.58627 13.2128C9.28603 13.1424 8.98704 13.326 8.92522 13.6342C8.85436 13.9319 9.0397 14.2285 9.35041 14.2899C9.62197 14.3485 9.89638 14.3683 10.1631 14.3582C10.7867 14.3151 11.3854 14.0748 11.8881 13.6617C12.6011 13.0682 12.9796 12.1967 12.9178 11.2838C12.9178 11.2838 12.9087 11.2734 12.9192 11.2643C12.6415 6.67296 13.8545 3.78194 14.6906 2.23986C14.8499 1.94613 14.7502 1.57796 14.4574 1.41386Z" fill="#9259DD"/>
<path d="M6.98615 0.907317C6.69079 0.793009 6.35735 0.937507 6.24103 1.22995C5.78509 2.19908 5.51491 3.18241 5.36999 4.29493C5.32939 4.60656 5.55361 4.87547 5.86074 4.904C6.17493 4.94441 6.44595 4.72212 6.47457 4.41748C6.65414 3.41395 6.89446 2.81108 7.3181 1.61632C7.41955 1.33024 7.27098 1.01758 6.98615 0.907317Z" fill="#9259DD"/>
<path d="M2.25326 16.3972C2.00985 16.5825 1.95655 16.9314 2.14353 17.1729C2.56384 17.726 3.04461 18.2425 3.5772 18.6928C3.6911 18.7948 3.84662 18.84 4.00447 18.8268C4.14268 18.8128 4.27303 18.7498 4.37588 18.6368C4.58157 18.411 4.55634 18.059 4.32854 17.8549C3.86272 17.4561 3.42908 16.9902 3.05512 16.5073C2.84851 16.265 2.49666 16.212 2.25326 16.3972Z" fill="#9259DD"/>
<path d="M17.6591 16.5218C17.4147 16.335 17.0608 16.3716 16.8726 16.6139C14.4062 19.7051 9.79134 20.794 6.13733 19.1225C5.85324 18.9939 5.52822 19.1183 5.39868 19.4C5.26914 19.6817 5.39479 20.0041 5.67889 20.1326C9.75963 21.9799 14.9663 20.7949 17.7623 17.2922C17.9406 17.0596 17.9036 16.7086 17.6591 16.5218Z" fill="#9259DD"/>
<path d="M1.15368 5.93239C0.902038 5.90765 0.664252 6.05457 0.588175 6.29371C-0.198851 8.76766 -0.240372 12.0847 0.734147 14.8191C0.821778 15.0474 1.03108 15.1838 1.25894 15.1853C1.32841 15.1849 1.38947 15.1735 1.44212 15.1511C1.73324 15.0529 1.88674 14.7296 1.78759 14.4408C0.864946 11.8977 1.08535 9.13258 1.64324 6.60888C1.71517 6.28349 1.48795 5.96527 1.15368 5.93239Z" fill="#9259DD"/>
<path d="M19.0195 5.93239C19.2711 5.90765 19.5089 6.05457 19.585 6.29371C20.372 8.76766 20.4135 12.0847 19.439 14.8191C19.3514 15.0474 19.1421 15.1838 18.9143 15.1853C18.8448 15.1849 18.7837 15.1735 18.7311 15.1511C18.4399 15.0529 18.2864 14.7296 18.3856 14.4408C19.3082 11.8977 19.0878 9.13258 18.5299 6.60888C18.458 6.28349 18.6852 5.96527 19.0195 5.93239Z" fill="#9259DD"/>
<path d="M16.5881 2.58254C16.3152 2.44364 15.9743 2.5451 15.8342 2.81599C15.6521 3.0678 15.3947 3.67564 15.3342 4.03457C15.2899 4.18032 15.3152 4.33906 15.3947 4.47489C15.4666 4.59281 15.5799 4.68267 15.7268 4.72656C16.0206 4.81434 16.3306 4.64114 16.4192 4.34963C16.5009 4.08109 16.6423 3.62888 16.8309 3.34835C17.0195 3.06782 16.8612 2.72145 16.5881 2.58254Z" fill="#9259DD"/>
<path d="M3.9232 2.33599C3.63234 2.23902 3.31059 2.38976 3.21278 2.67836C3.07066 2.95428 2.90754 3.78042 2.90163 4.14429C2.87976 4.29496 2.92867 4.44817 3.02777 4.57073C3.11657 4.67669 3.24205 4.7488 3.39392 4.77047C3.69765 4.81381 3.97822 4.59668 4.02197 4.29533C4.06228 4.01772 4.18088 3.38964 4.27842 3.05733C4.37597 2.72501 4.21406 2.43297 3.9232 2.33599Z" fill="#9259DD"/>
<path d="M12.2405 0.747584C11.9675 0.608674 11.6267 0.710139 11.4865 0.981034C11.3045 1.23284 11.0471 1.84068 10.9865 2.19961C10.9422 2.34536 10.9675 2.5041 11.0471 2.63993C11.1189 2.75785 11.2322 2.84771 11.3791 2.8916C11.6729 2.97938 11.983 2.80618 12.0716 2.51467C12.1532 2.24613 12.2946 1.79392 12.4832 1.51339C12.6718 1.23286 12.5135 0.886494 12.2405 0.747584Z" fill="#9259DD"/>
<path d="M18.7644 4.42436C18.7644 4.73424 18.5111 4.98544 18.1986 4.98544C17.8861 4.98544 17.6328 4.73424 17.6328 4.42436C17.6328 4.11448 17.8861 3.86328 18.1986 3.86328C18.5111 3.86328 18.7644 4.11448 18.7644 4.42436Z" fill="#9259DD"/>
</g>
<path d="M2.56836 11.3488C2.56836 12.9938 3.21242 14.1826 4.15004 14.9708C5.78145 16.3422 8.28696 16.5464 10.2 15.6602C10.1186 15.6648 10.0366 15.6671 9.95409 15.6671C7.5676 15.6671 5.63297 13.7338 5.63297 11.3488L5.63298 6.10684C5.63298 5.77115 5.35856 5.49902 5.02006 5.49902C3.66602 5.49902 2.56836 6.58756 2.56836 7.9303V11.3488Z" fill="#9259DD"/>
<path d="M4.03125 15.76C5.37788 17.5626 7.52927 18.7298 9.95348 18.7298C14.0325 18.7298 17.3392 15.4252 17.3392 11.3488V6.10684C17.3392 5.77115 17.0648 5.49902 16.7262 5.49902C15.3723 5.49902 14.2745 6.58756 14.2745 7.9303V11.3488C14.2745 16.3274 7.76067 18.42 4.03125 15.76Z" fill="#9259DD"/>
</g>
</g>
<defs>
<clipPath id="clip0_2238_18852">
<rect width="119" height="20.825" fill="white" transform="translate(0 0.405273)"/>
</clipPath>
</defs>
</svg>
