<svg width="49" height="49" viewBox="0 0 49 49" fill="none" xmlns="http://www.w3.org/2000/svg">
<g filter="url(#filter0_i_2260_30602)">
<rect width="47.7867" height="48" rx="12.8" fill="url(#paint0_linear_2260_30602)"/>
<rect x="0.527059" y="0.527059" width="46.7325" height="46.9459" rx="12.2729" stroke="#EEEEEE" stroke-width="1.05412"/>
<g style="mix-blend-mode:overlay">
<path d="M31.0103 32.6663C32.3775 32.6663 33.4868 31.5581 33.4868 30.1898V25.2379L34.725 23.9997L33.4868 22.7614V17.8095C33.4868 16.4413 32.3785 15.333 31.0103 15.333M16.7733 15.333C15.4051 15.333 14.2968 16.4413 14.2968 17.8095V22.7614L13.0586 23.9997L14.2968 25.2379V30.1898C14.2968 31.5581 15.4051 32.6663 16.7733 32.6663M23.8919 19.6663V28.333M19.5586 23.9997H28.2253" stroke="white" stroke-width="2.16667" stroke-linecap="round" stroke-linejoin="round"/>
</g>
</g>
<g style="mix-blend-mode:soft-light">
<line y1="-0.5" x2="48.0716" y2="-0.5" transform="matrix(-4.37114e-08 1 1 4.37114e-08 10.2676 0)" stroke="#EEEEEE"/>
<line y1="-0.5" x2="48.0716" y2="-0.5" transform="matrix(-1 -8.74228e-08 -8.74228e-08 1 48.0723 38.8027)" stroke="#EEEEEE"/>
</g>
<g style="mix-blend-mode:soft-light">
<line y1="-0.5" x2="48.0716" y2="-0.5" transform="matrix(4.37114e-08 -1 -1 -4.37114e-08 37.8047 48.0713)" stroke="#EEEEEE"/>
<line y1="-0.5" x2="48.0716" y2="-0.5" transform="matrix(1 8.74228e-08 8.74228e-08 -1 0 9.26855)" stroke="#EEEEEE"/>
</g>
<defs>
<filter id="filter0_i_2260_30602" x="0" y="0" width="47.7871" height="52" filterUnits="userSpaceOnUse" color-interpolation-filters="sRGB">
<feFlood flood-opacity="0" result="BackgroundImageFix"/>
<feBlend mode="normal" in="SourceGraphic" in2="BackgroundImageFix" result="shape"/>
<feColorMatrix in="SourceAlpha" type="matrix" values="0 0 0 0 0 0 0 0 0 0 0 0 0 0 0 0 0 0 127 0" result="hardAlpha"/>
<feMorphology radius="2" operator="erode" in="SourceAlpha" result="effect1_innerShadow_2260_30602"/>
<feOffset dy="4"/>
<feGaussianBlur stdDeviation="2"/>
<feComposite in2="hardAlpha" operator="arithmetic" k2="-1" k3="1"/>
<feColorMatrix type="matrix" values="0 0 0 0 1 0 0 0 0 1 0 0 0 0 1 0 0 0 0.25 0"/>
<feBlend mode="normal" in2="shape" result="effect1_innerShadow_2260_30602"/>
</filter>
<linearGradient id="paint0_linear_2260_30602" x1="23.8933" y1="0" x2="23.8933" y2="48" gradientUnits="userSpaceOnUse">
<stop stop-color="#1675FF"/>
<stop offset="1" stop-color="#16D857"/>
</linearGradient>
</defs>
</svg>
