<svg width="393" height="271" viewBox="0 0 393 271" fill="none" xmlns="http://www.w3.org/2000/svg">
<mask id="mask0_12_4554" style="mask-type:alpha" maskUnits="userSpaceOnUse" x="0" y="27" width="393" height="244">
<rect y="27" width="393" height="244" fill="#D9D9D9"/>
</mask>
<g mask="url(#mask0_12_4554)">
<rect x="13" y="41" width="365" height="80" rx="15" fill="#1675FF"/>
<rect x="13" y="41" width="365" height="80" rx="15" fill="url(#paint0_linear_12_4554)" fill-opacity="0.2"/>
<rect x="13.5" y="41.5" width="364" height="79" rx="14.5" stroke="black" stroke-opacity="0.25"/>
<rect x="13.5" y="128.5" width="364" height="79" rx="14.5" fill="white" stroke="#EEEEEE"/>
<rect x="13.5" y="215.5" width="364" height="79" rx="14.5" fill="white" stroke="#EEEEEE"/>
<g opacity="0.5">
<rect opacity="0.75" x="33" y="76.999" width="231" height="12" rx="2" fill="white"/>
<rect opacity="0.75" x="33" y="93.999" width="73" height="9" rx="2" fill="white"/>
<rect opacity="0.75" x="33" y="58.999" width="100" height="9" rx="2" fill="white"/>
<rect opacity="0.75" x="111" y="93.999" width="31" height="9" rx="2" fill="white"/>
<rect opacity="0.75" x="147" y="93.999" width="45" height="9" rx="2" fill="white"/>
</g>
<rect opacity="0.75" x="33" y="163.999" width="231" height="12" rx="2" fill="#EEEEEE"/>
<rect opacity="0.75" x="33" y="180.999" width="73" height="9" rx="2" fill="#EEEEEE"/>
<rect opacity="0.75" x="33" y="145.999" width="100" height="9" rx="2" fill="#EEEEEE"/>
<rect opacity="0.75" x="111" y="180.999" width="31" height="9" rx="2" fill="#EEEEEE"/>
<rect opacity="0.75" x="147" y="180.999" width="45" height="9" rx="2" fill="#EEEEEE"/>
<rect opacity="0.75" x="33" y="250.999" width="231" height="12" rx="2" fill="#EEEEEE"/>
<rect opacity="0.75" x="33" y="267.999" width="73" height="9" rx="2" fill="#EEEEEE"/>
<rect opacity="0.75" x="33" y="232.999" width="100" height="9" rx="2" fill="#EEEEEE"/>
<rect opacity="0.75" x="111" y="267.999" width="31" height="9" rx="2" fill="#EEEEEE"/>
<rect opacity="0.75" x="147" y="267.999" width="45" height="9" rx="2" fill="#EEEEEE"/>
<rect opacity="0.25" x="322" y="60" width="42" height="42" rx="12.6" fill="white"/>
<rect opacity="0.75" x="322" y="147" width="42" height="42" rx="12.6" fill="#EEEEEE"/>
<rect opacity="0.75" x="322" y="234" width="42" height="42" rx="12.6" fill="#EEEEEE"/>
<path d="M333.148 87V75.3636H340.716V77.1307H335.256V80.2898H340.324V82.0568H335.256V85.233H340.761V87H333.148ZM352.269 75.3636V87H350.394L344.911 79.0739H344.814V87H342.706V75.3636H344.593L350.07 83.2955H350.172V75.3636H352.269Z" fill="white"/>
<path opacity="0.5" d="M339.881 174.08C338.889 174.08 338.121 173.979 337.577 173.776C337.043 173.573 336.67 173.259 336.457 172.832C336.243 172.395 336.121 171.845 336.089 171.184L335.753 162.288H337.993L338.329 170.112C338.35 170.603 338.403 170.971 338.489 171.216C338.574 171.461 338.734 171.627 338.969 171.712C339.214 171.797 339.571 171.84 340.041 171.84C340.446 171.84 340.734 171.947 340.905 172.16C341.086 172.363 341.177 172.619 341.177 172.928C341.177 173.259 341.065 173.536 340.841 173.76C340.617 173.973 340.297 174.08 339.881 174.08ZM339.743 174.08L339.903 171.84C340.308 171.84 340.628 171.803 340.863 171.728C341.108 171.653 341.3 171.504 341.439 171.28C341.588 171.045 341.711 170.704 341.807 170.256C341.913 169.808 342.02 169.211 342.127 168.464L344.223 168.816C344.201 168.976 344.169 169.163 344.127 169.376C344.095 169.589 344.063 169.808 344.031 170.032C344.009 170.245 343.999 170.448 343.999 170.64C343.999 170.896 344.052 171.115 344.159 171.296C344.276 171.467 344.479 171.6 344.767 171.696C345.065 171.792 345.492 171.84 346.047 171.84C346.452 171.84 346.74 171.947 346.911 172.16C347.081 172.363 347.167 172.619 347.167 172.928C347.167 173.259 347.055 173.536 346.831 173.76C346.617 173.973 346.303 174.08 345.887 174.08C345.151 174.08 344.553 174.011 344.095 173.872C343.636 173.733 343.295 173.499 343.071 173.168C342.847 172.837 342.703 172.384 342.639 171.808H343.407C343.215 172.32 342.991 172.731 342.735 173.04C342.479 173.339 342.191 173.563 341.871 173.712C341.551 173.861 341.209 173.957 340.847 174C340.495 174.053 340.127 174.08 339.743 174.08ZM342.591 177.76C342.281 177.76 342.015 177.653 341.791 177.44C341.577 177.227 341.471 176.965 341.471 176.656C341.471 176.347 341.577 176.075 341.791 175.84C342.015 175.616 342.281 175.504 342.591 175.504C342.9 175.504 343.161 175.616 343.375 175.84C343.599 176.075 343.711 176.347 343.711 176.656C343.711 176.965 343.599 177.227 343.375 177.44C343.161 177.653 342.9 177.76 342.591 177.76ZM345.723 174.08L345.883 171.84C346.459 171.84 347.03 171.808 347.595 171.744C348.16 171.68 348.71 171.584 349.243 171.456C349.776 171.328 350.283 171.163 350.763 170.96C351.254 170.757 351.712 170.512 352.139 170.224C351.819 170.032 351.472 169.867 351.099 169.728C350.726 169.589 350.326 169.488 349.899 169.424C349.483 169.349 349.04 169.312 348.571 169.312C348.4 169.312 348.219 169.317 348.027 169.328C347.846 169.339 347.659 169.36 347.467 169.392C347.275 169.413 347.083 169.445 346.891 169.488L346.571 167.296C346.88 167.211 347.206 167.152 347.547 167.12C347.899 167.077 348.208 167.056 348.475 167.056C349.051 167.056 349.579 167.12 350.059 167.248C350.55 167.376 350.998 167.536 351.403 167.728C351.819 167.92 352.203 168.112 352.555 168.304C352.918 168.496 353.259 168.656 353.579 168.784C353.91 168.912 354.23 168.976 354.539 168.976H355.131L355.387 171.104C354.928 171.125 354.496 171.216 354.091 171.376C353.696 171.525 353.302 171.717 352.907 171.952C352.523 172.176 352.107 172.411 351.659 172.656C351.222 172.901 350.726 173.131 350.171 173.344C349.616 173.557 348.976 173.733 348.251 173.872C347.526 174.011 346.683 174.08 345.723 174.08Z" fill="black"/>
<path opacity="0.5" d="M343.108 253.29H340.983C340.922 252.941 340.811 252.633 340.648 252.364C340.485 252.091 340.282 251.86 340.04 251.67C339.797 251.481 339.521 251.339 339.21 251.244C338.903 251.146 338.572 251.097 338.216 251.097C337.583 251.097 337.023 251.256 336.534 251.574C336.045 251.888 335.663 252.35 335.386 252.96C335.11 253.566 334.972 254.307 334.972 255.182C334.972 256.072 335.11 256.822 335.386 257.432C335.667 258.038 336.049 258.496 336.534 258.807C337.023 259.114 337.581 259.267 338.21 259.267C338.559 259.267 338.884 259.222 339.188 259.131C339.494 259.036 339.769 258.898 340.011 258.716C340.258 258.534 340.464 258.311 340.631 258.045C340.801 257.78 340.919 257.477 340.983 257.136L343.108 257.148C343.028 257.701 342.856 258.22 342.591 258.705C342.33 259.189 341.987 259.617 341.562 259.989C341.138 260.356 340.642 260.644 340.074 260.852C339.506 261.057 338.875 261.159 338.182 261.159C337.159 261.159 336.246 260.922 335.443 260.449C334.64 259.975 334.008 259.292 333.545 258.398C333.083 257.504 332.852 256.432 332.852 255.182C332.852 253.928 333.085 252.856 333.551 251.966C334.017 251.072 334.652 250.388 335.455 249.915C336.258 249.441 337.167 249.205 338.182 249.205C338.83 249.205 339.432 249.295 339.989 249.477C340.545 249.659 341.042 249.926 341.477 250.278C341.913 250.627 342.271 251.055 342.551 251.562C342.835 252.066 343.021 252.642 343.108 253.29ZM344.787 261V252.273H352.157V261H350.174V253.96H346.753V261H344.787Z" fill="black"/>
</g>
<rect width="46" height="46" rx="18.6486" transform="matrix(-1 5.18986e-09 5.18986e-09 1 219 2)" fill="#1675FF"/>
<rect width="46" height="46" rx="18.6486" transform="matrix(-1 5.18986e-09 5.18986e-09 1 219 2)" fill="url(#paint1_linear_12_4554)" fill-opacity="0.2"/>
<rect width="46" height="46" rx="18.6486" transform="matrix(-1 5.18986e-09 5.18986e-09 1 219 2)" stroke="#FAFAFA" stroke-width="3.72973"/>
<g clip-path="url(#clip0_12_4554)">
<path d="M197.303 30.2468H204.224M197.303 30.2468L195.457 34.1061M197.303 30.2468L200.067 24.4665C200.29 24.0008 200.401 23.7679 200.554 23.6943C200.686 23.6303 200.841 23.6303 200.973 23.6943C201.126 23.7679 201.237 24.0008 201.46 24.4665L204.224 30.2468M204.224 30.2468L206.07 34.1061M186.773 18.6689H192.562M192.562 18.6689H195.939M192.562 18.6689V16.7393M195.939 18.6689H198.351M195.939 18.6689C195.461 21.5222 194.35 24.1068 192.722 26.276M192.722 26.276C193.298 26.7176 193.901 27.0868 194.492 27.3523M192.722 26.276C191.417 25.2758 190.249 23.9046 189.668 22.5282M192.722 26.276C191.174 28.3392 189.158 30.0266 186.773 31.2116" stroke="white" stroke-width="1.92965" stroke-linecap="round" stroke-linejoin="round"/>
</g>
<defs>
<linearGradient id="paint0_linear_12_4554" x1="195.5" y1="41" x2="195.5" y2="121" gradientUnits="userSpaceOnUse">
<stop stop-color="white" stop-opacity="0"/>
<stop offset="1" stop-color="white"/>
</linearGradient>
<linearGradient id="paint1_linear_12_4554" x1="23" y1="0" x2="23" y2="46" gradientUnits="userSpaceOnUse">
<stop stop-color="white" stop-opacity="0"/>
<stop offset="1" stop-color="white"/>
</linearGradient>
<clipPath id="clip0_12_4554">
<rect width="23.1558" height="23.1558" fill="white" transform="translate(184.844 13.8438)"/>
</clipPath>
</defs>
</svg>
