<svg width="589" height="500" viewBox="0 0 589 500" fill="none" xmlns="http://www.w3.org/2000/svg">
<rect width="589" height="500" fill="#1675FF"/>
<mask id="mask0_95_3498" style="mask-type:alpha" maskUnits="userSpaceOnUse" x="0" y="0" width="589" height="500">
<rect x="0.5" y="0.5" width="588" height="499" rx="9.5" fill="#1675FF" stroke="#EEEEEE"/>
</mask>
<g mask="url(#mask0_95_3498)">
<rect x="44.5" y="138.5" width="501" height="224" rx="14.5" fill="white" stroke="#EEEEEE"/>
<rect opacity="0.25" x="123.5" y="34.5" width="342" height="75" rx="14.5" fill="white" stroke="#EEEEEE"/>
<rect opacity="0.5" x="136.5" y="44.5" width="55" height="55" rx="14.5" fill="white" stroke="#EEEEEE"/>
<rect opacity="0.25" x="202.5" y="62.5" width="187" height="19" rx="9.5" fill="white" stroke="#EEEEEE"/>
<rect opacity="0.25" x="83.5" y="396.5" width="342" height="75" rx="14.5" fill="white" stroke="#EEEEEE"/>
<rect opacity="0.5" x="96.5" y="406.5" width="55" height="55" rx="14.5" fill="white" stroke="#EEEEEE"/>
<rect opacity="0.25" x="162.5" y="424.5" width="187" height="19" rx="9.5" fill="white" stroke="#EEEEEE"/>
<rect opacity="0.25" x="-244.5" y="34.5" width="342" height="75" rx="14.5" fill="white" stroke="#EEEEEE"/>
<rect opacity="0.25" x="-165.5" y="62.5" width="187" height="19" rx="9.5" fill="white" stroke="#EEEEEE"/>
<rect opacity="0.25" x="-284.5" y="396.5" width="342" height="75" rx="14.5" fill="white" stroke="#EEEEEE"/>
<rect opacity="0.25" x="491.5" y="34.5" width="342" height="75" rx="14.5" fill="white" stroke="#EEEEEE"/>
<rect opacity="0.5" x="504.5" y="44.5" width="55" height="55" rx="14.5" fill="white" stroke="#EEEEEE"/>
<rect opacity="0.25" x="570.5" y="62.5" width="187" height="19" rx="9.5" fill="white" stroke="#EEEEEE"/>
<rect opacity="0.25" x="451.5" y="396.5" width="342" height="75" rx="14.5" fill="white" stroke="#EEEEEE"/>
<rect opacity="0.5" x="464.5" y="406.5" width="55" height="55" rx="14.5" fill="white" stroke="#EEEEEE"/>
<rect opacity="0.25" x="530.5" y="424.5" width="187" height="19" rx="9.5" fill="white" stroke="#EEEEEE"/>
</g>
<rect x="63" y="157" width="60" height="60" rx="10" fill="#1675FF"/>
<path d="M105.875 175.126L81.1263 199.875" stroke="white" stroke-width="2.5"/>
<path d="M111 187.5L76 187.5" stroke="white" stroke-width="2.5"/>
<path d="M93.5 205V170" stroke="white" stroke-width="2.5"/>
<path d="M81.125 175.126L105.874 199.875" stroke="white" stroke-width="2.5"/>
<rect x="134" y="171" width="210" height="14" rx="7" fill="#EEEEEE"/>
<rect x="134" y="190" width="52" height="12" rx="6" fill="#EEEEEE"/>
<rect x="192" y="190" width="31" height="12" rx="6" fill="#EEEEEE"/>
<path d="M63 230L527 230" stroke="#EEEEEE"/>
<circle cx="515.5" cy="142.5" r="52" fill="#1675FF"/>
<circle cx="515.5" cy="142.5" r="52" fill="url(#paint0_linear_95_3498)" fill-opacity="0.2"/>
<circle cx="515.5" cy="142.5" r="52" stroke="white" stroke-width="5"/>
<path d="M515.5 111C523.448 111 531.103 114.005 536.929 119.412C542.755 124.819 546.321 132.229 546.913 140.156C547.504 148.082 545.077 155.939 540.119 162.151C535.16 168.363 528.036 172.471 520.176 173.651C512.315 174.831 504.299 172.996 497.736 168.513C491.172 164.03 486.545 157.232 484.783 149.481C483.022 141.73 484.255 133.6 488.237 126.721C492.219 119.841 498.654 114.722 506.252 112.388" stroke="white" stroke-width="6" stroke-linecap="round"/>
<path d="M506.372 133.537C507.291 133.544 508.184 133.706 509.053 134.025C509.928 134.337 510.716 134.85 511.416 135.562C512.116 136.269 512.672 137.216 513.084 138.403C513.497 139.591 513.703 141.059 513.703 142.809C513.709 144.459 513.534 145.934 513.178 147.234C512.828 148.528 512.325 149.622 511.669 150.516C511.013 151.409 510.222 152.091 509.297 152.559C508.372 153.028 507.331 153.263 506.175 153.263C504.963 153.263 503.888 153.025 502.95 152.55C502.019 152.075 501.266 151.425 500.691 150.6C500.116 149.775 499.763 148.831 499.631 147.769H503.053C503.228 148.531 503.584 149.137 504.122 149.587C504.666 150.031 505.35 150.253 506.175 150.253C507.506 150.253 508.531 149.675 509.25 148.519C509.969 147.362 510.328 145.756 510.328 143.7H510.197C509.891 144.25 509.494 144.725 509.006 145.125C508.519 145.519 507.966 145.822 507.347 146.034C506.734 146.247 506.084 146.353 505.397 146.353C504.272 146.353 503.259 146.084 502.359 145.547C501.466 145.009 500.756 144.272 500.231 143.334C499.713 142.397 499.45 141.325 499.444 140.119C499.444 138.869 499.731 137.747 500.306 136.753C500.888 135.753 501.697 134.966 502.734 134.391C503.772 133.809 504.984 133.525 506.372 133.537ZM506.381 136.35C505.706 136.35 505.097 136.516 504.553 136.847C504.016 137.172 503.591 137.616 503.278 138.178C502.972 138.734 502.819 139.356 502.819 140.044C502.825 140.725 502.978 141.344 503.278 141.9C503.584 142.456 504 142.897 504.525 143.222C505.056 143.547 505.663 143.709 506.344 143.709C506.85 143.709 507.322 143.612 507.759 143.419C508.197 143.225 508.578 142.956 508.903 142.612C509.234 142.262 509.491 141.866 509.672 141.422C509.859 140.978 509.95 140.509 509.944 140.016C509.944 139.359 509.788 138.753 509.475 138.197C509.169 137.641 508.747 137.194 508.209 136.856C507.678 136.519 507.069 136.35 506.381 136.35ZM517.013 153L525.178 136.837V136.706H515.7V133.8H528.778V136.772L520.622 153H517.013Z" fill="white"/>
<rect opacity="0.5" x="63.5" y="242.5" width="84" height="101" rx="9.5" fill="#FAFAFA" stroke="#EEEEEE"/>
<rect opacity="0.5" x="158.5" y="242.5" width="84" height="101" rx="9.5" fill="#FAFAFA" stroke="#EEEEEE"/>
<rect opacity="0.5" x="252.5" y="242.5" width="85" height="101" rx="9.5" fill="#FAFAFA" stroke="#EEEEEE"/>
<rect opacity="0.5" x="347.5" y="242.5" width="84" height="101" rx="9.5" fill="#FAFAFA" stroke="#EEEEEE"/>
<rect opacity="0.5" x="442.5" y="242.5" width="84" height="101" rx="9.5" fill="#FAFAFA" stroke="#EEEEEE"/>
<path opacity="0.25" d="M82 265C82 259.477 86.4772 255 92 255H105.5L115.902 268.5L129 285.5V306C129 311.523 124.523 316 119 316H92C86.4772 316 82 311.523 82 306V265Z" fill="#00C153"/>
<path opacity="0.25" d="M177 265C177 259.477 181.477 255 187 255H200.5L210.902 268.5L224 285.5V306C224 311.523 219.523 316 214 316H187C181.477 316 177 311.523 177 306V265Z" fill="#1675FF"/>
<path opacity="0.25" d="M272 265C272 259.477 276.477 255 282 255H295.5L305.902 268.5L319 285.5V306C319 311.523 314.523 316 309 316H282C276.477 316 272 311.523 272 306V265Z" fill="#A7A7A7"/>
<path opacity="0.25" d="M366 265C366 259.477 370.477 255 376 255H389.5L399.902 268.5L413 285.5V306C413 311.523 408.523 316 403 316H376C370.477 316 366 311.523 366 306V265Z" fill="#1675FF"/>
<path opacity="0.25" d="M461 265C461 259.477 465.477 255 471 255H484.5L494.902 268.5L508 285.5V306C508 311.523 503.523 316 498 316H471C465.477 316 461 311.523 461 306V265Z" fill="#135AA0"/>
<rect opacity="0.25" x="80" y="323" width="52" height="12" rx="6" fill="#D7D7D7"/>
<rect opacity="0.25" x="175" y="323" width="52" height="12" rx="6" fill="#D7D7D7"/>
<rect opacity="0.25" x="270" y="323" width="52" height="12" rx="6" fill="#D7D7D7"/>
<rect opacity="0.25" x="365" y="323" width="52" height="12" rx="6" fill="#D7D7D7"/>
<rect opacity="0.25" x="460" y="323" width="52" height="12" rx="6" fill="#D7D7D7"/>
<rect x="63" y="157" width="60" height="60" rx="8" fill="url(#paint1_linear_95_3498)"/>
<path d="M81.4235 173.897L83.7064 168.332H101.256C103.682 168.665 108.533 170.815 108.533 176.75C108.533 182.156 104.666 184.58 102.216 185.292C101.772 185.421 101.309 185.454 100.847 185.454H88.8429L91.4112 179.604H100.297C100.555 179.604 100.813 179.571 101.046 179.463C101.845 179.095 102.968 178.221 102.968 176.75C102.968 175.279 101.845 174.405 101.046 174.037C100.813 173.93 100.555 173.897 100.297 173.897H81.4235Z" fill="white"/>
<path d="M90.867 175.558H84.5891L77.4551 192.679H89.5829L84.3037 206.091L103.28 186.972H86.1586L90.867 175.558Z" fill="white"/>
<defs>
<linearGradient id="paint0_linear_95_3498" x1="515.5" y1="88" x2="515.5" y2="197" gradientUnits="userSpaceOnUse">
<stop stop-color="white" stop-opacity="0"/>
<stop offset="1"/>
</linearGradient>
<linearGradient id="paint1_linear_95_3498" x1="93" y1="157" x2="93" y2="217" gradientUnits="userSpaceOnUse">
<stop stop-color="#1675FF"/>
<stop offset="1" stop-color="#0041A0"/>
</linearGradient>
</defs>
</svg>
