<svg width="366" height="272" viewBox="0 0 366 272" fill="none" xmlns="http://www.w3.org/2000/svg">
<path opacity="0.75" d="M15.6146 77.7278L297.363 54.4908C305.405 53.8276 312.508 59.8515 313.167 67.893L329.84 271.418L19.029 271.418L2.50361 93.3576C1.76357 85.3838 7.63356 78.3861 15.6146 77.7278Z" fill="white" stroke="#EEEEEE"/>
<path opacity="0.75" d="M67.3449 54.4672L350.382 77.8105C358.363 78.4688 364.233 85.4665 363.493 93.4403L346.968 271.5L44.1408 271.5L51.5015 68.5272C51.8032 60.2088 59.0445 53.7827 67.3449 54.4672Z" fill="white" stroke="#EEEEEE"/>
<path d="M52 34.5H313C321.008 34.5 327.5 40.9919 327.5 49V271.5H37.5V49C37.5 40.9919 43.9919 34.5 52 34.5Z" fill="white" stroke="#EEEEEE"/>
<rect x="21.3266" y="128.016" width="54.8641" height="65.9675" rx="6.20487" fill="#FAFAFA" stroke="#EEEEEE" stroke-width="0.653144"/>
<rect x="54.3266" y="91.3266" width="256.347" height="22.3469" rx="6.20487" fill="#FAFAFA" stroke="#EEEEEE" stroke-width="0.653144"/>
<g clip-path="url(#clip0_12_4557)">
<path d="M64 103L66 105M66 105L68 103M66 105V101M71 103C71 105.761 68.7614 108 66 108C63.2386 108 61 105.761 61 103C61 100.239 63.2386 98 66 98C68.7614 98 71 100.239 71 103Z" stroke="#1675FF" stroke-linecap="round" stroke-linejoin="round"/>
</g>
<rect x="87.9477" y="128.016" width="54.8641" height="65.9675" rx="6.20487" fill="#FAFAFA" stroke="#EEEEEE" stroke-width="0.653144"/>
<rect x="154.569" y="128.016" width="54.8641" height="65.9675" rx="6.20487" fill="#FAFAFA" stroke="#EEEEEE" stroke-width="0.653144"/>
<rect x="221.188" y="128.016" width="54.8641" height="65.9675" rx="6.20487" fill="#FAFAFA" stroke="#EEEEEE" stroke-width="0.653144"/>
<rect x="287.809" y="128.016" width="54.8641" height="65.9675" rx="6.20487" fill="#FAFAFA" stroke="#EEEEEE" stroke-width="0.653144"/>
<path opacity="0.25" d="M33.4102 142.712C33.4102 139.105 36.3344 136.181 39.9416 136.181H48.759L55.5528 144.998L64.1079 156.102V169.491C64.1079 173.098 61.1837 176.022 57.5765 176.022H39.9416C36.3344 176.022 33.4102 173.098 33.4102 169.491V142.712Z" fill="#00C153"/>
<path opacity="0.25" d="M100.031 142.712C100.031 139.105 102.955 136.181 106.563 136.181H115.38L122.174 144.998L130.729 156.102V169.491C130.729 173.098 127.805 176.022 124.198 176.022H106.563C102.955 176.022 100.031 173.098 100.031 169.491V142.712Z" fill="#1675FF"/>
<path opacity="0.25" d="M166.65 142.712C166.65 139.105 169.575 136.181 173.182 136.181H181.999L188.793 144.998L197.348 156.102V169.491C197.348 173.098 194.424 176.022 190.817 176.022H173.182C169.575 176.022 166.65 173.098 166.65 169.491V142.712Z" fill="#A400DD"/>
<path opacity="0.25" d="M233.271 142.712C233.271 139.105 236.196 136.181 239.803 136.181H248.62L255.414 144.998L263.969 156.102V169.491C263.969 173.098 261.045 176.022 257.438 176.022H239.803C236.196 176.022 233.271 173.098 233.271 169.491V142.712Z" fill="#E31D1C"/>
<path opacity="0.25" d="M299.893 142.712C299.893 139.105 302.817 136.181 306.424 136.181H315.241L322.035 144.998L330.59 156.102V169.491C330.59 173.098 327.666 176.022 324.059 176.022H306.424C302.817 176.022 299.893 173.098 299.893 169.491V142.712Z" fill="#FF792E"/>
<rect opacity="0.25" x="32.1035" y="180.595" width="33.9635" height="7.83773" rx="3.91886" fill="#D7D7D7"/>
<rect opacity="0.25" x="98.7246" y="180.595" width="33.9635" height="7.83773" rx="3.91886" fill="#D7D7D7"/>
<rect opacity="0.25" x="165.344" y="180.595" width="33.9635" height="7.83773" rx="3.91886" fill="#D7D7D7"/>
<rect opacity="0.25" x="231.965" y="180.595" width="33.9635" height="7.83773" rx="3.91886" fill="#D7D7D7"/>
<rect opacity="0.25" x="298.586" y="180.595" width="33.9635" height="7.83773" rx="3.91886" fill="#D7D7D7"/>
<g opacity="0.5">
<rect x="54" y="215" width="231" height="12" rx="2" fill="#EEEEEE"/>
<rect x="54" y="232" width="73" height="9" rx="2" fill="#EEEEEE"/>
<rect width="88" height="9" rx="2" transform="matrix(-1 0 0 1 245 247)" fill="#EEEEEE"/>
<rect x="132" y="232" width="31" height="9" rx="2" fill="#EEEEEE"/>
<rect width="37" height="9" rx="2" transform="matrix(-1 0 0 1 151 247)" fill="#EEEEEE"/>
<rect x="168" y="232" width="45" height="9" rx="2" fill="#EEEEEE"/>
<rect width="54" height="9" rx="2" transform="matrix(-1 0 0 1 108 247)" fill="#EEEEEE"/>
</g>
<rect opacity="0.25" x="80" y="99" width="222" height="7" rx="3.5" fill="#1675FF"/>
<rect x="77" y="99" width="190" height="7" rx="3.5" fill="#1675FF"/>
<rect x="54.5" y="47.5" width="31" height="31" rx="7.5" fill="#FAFAFA" stroke="#EEEEEE"/>
<path d="M75.8333 47.5003C75.8333 50.722 73.2217 53.3337 70 53.3337M75.8333 47.5003C75.8333 44.2787 73.2217 41.667 70 41.667M75.8333 47.5003H64.1667M70 53.3337C66.7783 53.3337 64.1667 50.722 64.1667 47.5003M70 53.3337C71.4591 51.7363 72.289 49.6633 72.3341 47.5003C72.289 45.3373 71.4591 43.2644 70 41.667M70 53.3337C68.5409 51.7363 67.7125 49.6633 67.6674 47.5003C67.7125 45.3373 68.5409 43.2644 70 41.667M70 53.3337V55.0003M70 41.667C66.7783 41.667 64.1667 44.2787 64.1667 47.5003M70 55.0003C70.9205 55.0003 71.6667 55.7465 71.6667 56.667M70 55.0003C69.0795 55.0003 68.3333 55.7465 68.3333 56.667M71.6667 56.667C71.6667 57.5875 70.9205 58.3337 70 58.3337C69.0795 58.3337 68.3333 57.5875 68.3333 56.667M71.6667 56.667H77.5M68.3333 56.667H62.5" stroke="#D0D0D0" stroke-width="1.25" stroke-linecap="round" stroke-linejoin="round"/>
<g opacity="0.5">
<rect x="91" y="50" width="211" height="12" rx="2" fill="#EEEEEE"/>
<rect x="91" y="67" width="66.6797" height="9" rx="2" fill="#EEEEEE"/>
<rect x="162.246" y="67" width="28.316" height="9" rx="2" fill="#EEEEEE"/>
<rect x="195.129" y="67" width="41.1039" height="9" rx="2" fill="#EEEEEE"/>
</g>
<rect width="46" height="46" rx="18.1154" transform="matrix(1 0 0 -1 159 48)" fill="#1675FF"/>
<rect width="46" height="46" rx="18.1154" transform="matrix(1 0 0 -1 159 48)" fill="url(#paint0_linear_12_4557)" fill-opacity="0.2"/>
<rect width="46" height="46" rx="18.1154" transform="matrix(1 0 0 -1 159 48)" stroke="#FAFAFA" stroke-width="3.62307"/>
<path d="M190.778 18.2599C190.778 19.8666 186.87 21.1692 182.05 21.1692C177.23 21.1692 173.322 19.8666 173.322 18.2599M190.778 18.2599C190.778 16.6531 186.87 15.3506 182.05 15.3506C177.23 15.3506 173.322 16.6531 173.322 18.2599M190.778 18.2599V31.8365C190.778 33.4463 186.899 34.7458 182.05 34.7458C177.201 34.7458 173.322 33.4463 173.322 31.8365V18.2599M190.778 25.0482C190.778 26.658 186.899 27.9575 182.05 27.9575C177.201 27.9575 173.322 26.658 173.322 25.0482" stroke="white" stroke-width="2.41538" stroke-linecap="round" stroke-linejoin="round"/>
<defs>
<linearGradient id="paint0_linear_12_4557" x1="23" y1="0" x2="23" y2="46" gradientUnits="userSpaceOnUse">
<stop stop-color="white" stop-opacity="0"/>
<stop offset="1" stop-color="white"/>
</linearGradient>
<clipPath id="clip0_12_4557">
<rect width="12" height="12" fill="white" transform="translate(60 97)"/>
</clipPath>
</defs>
</svg>
