<svg width="589" height="500" viewBox="0 0 589 500" fill="none" xmlns="http://www.w3.org/2000/svg">
<rect width="589" height="500" fill="#1675FF"/>
<mask id="mask0_12_1594" style="mask-type:alpha" maskUnits="userSpaceOnUse" x="0" y="0" width="589" height="500">
<rect x="0.5" y="0.5" width="588" height="499" rx="9.5" fill="#1675FF" stroke="#EEEEEE"/>
</mask>
<g mask="url(#mask0_12_1594)">
<rect x="44.5" y="138.5" width="501" height="224" rx="14.5" fill="white" stroke="#EEEEEE"/>
<rect opacity="0.25" x="123.5" y="34.5" width="342" height="75" rx="14.5" fill="white" stroke="#EEEEEE"/>
<rect opacity="0.5" x="136.5" y="44.5" width="55" height="55" rx="14.5" fill="white" stroke="#EEEEEE"/>
<rect opacity="0.25" x="202.5" y="62.5" width="187" height="19" rx="9.5" fill="white" stroke="#EEEEEE"/>
<rect opacity="0.25" x="83.5" y="396.5" width="342" height="75" rx="14.5" fill="white" stroke="#EEEEEE"/>
<rect opacity="0.5" x="96.5" y="406.5" width="55" height="55" rx="14.5" fill="white" stroke="#EEEEEE"/>
<rect opacity="0.25" x="162.5" y="424.5" width="187" height="19" rx="9.5" fill="white" stroke="#EEEEEE"/>
<rect opacity="0.25" x="-244.5" y="34.5" width="342" height="75" rx="14.5" fill="white" stroke="#EEEEEE"/>
<rect opacity="0.25" x="-165.5" y="62.5" width="187" height="19" rx="9.5" fill="white" stroke="#EEEEEE"/>
<rect opacity="0.25" x="-284.5" y="396.5" width="342" height="75" rx="14.5" fill="white" stroke="#EEEEEE"/>
<rect opacity="0.25" x="491.5" y="34.5" width="342" height="75" rx="14.5" fill="white" stroke="#EEEEEE"/>
<rect opacity="0.5" x="504.5" y="44.5" width="55" height="55" rx="14.5" fill="white" stroke="#EEEEEE"/>
<rect opacity="0.25" x="570.5" y="62.5" width="187" height="19" rx="9.5" fill="white" stroke="#EEEEEE"/>
<rect opacity="0.25" x="451.5" y="396.5" width="342" height="75" rx="14.5" fill="white" stroke="#EEEEEE"/>
<rect opacity="0.5" x="464.5" y="406.5" width="55" height="55" rx="14.5" fill="white" stroke="#EEEEEE"/>
<rect opacity="0.25" x="530.5" y="424.5" width="187" height="19" rx="9.5" fill="white" stroke="#EEEEEE"/>
</g>
<rect x="63" y="157" width="60" height="60" rx="10" fill="#1675FF"/>
<path d="M105.875 175.126L81.1263 199.875" stroke="white" stroke-width="2.5"/>
<path d="M111 187.5L76 187.5" stroke="white" stroke-width="2.5"/>
<path d="M93.5 205V170" stroke="white" stroke-width="2.5"/>
<path d="M81.125 175.126L105.874 199.875" stroke="white" stroke-width="2.5"/>
<rect x="134" y="171" width="210" height="14" rx="7" fill="#EEEEEE"/>
<rect x="134" y="190" width="52" height="12" rx="6" fill="#EEEEEE"/>
<rect x="192" y="190" width="31" height="12" rx="6" fill="#EEEEEE"/>
<path d="M63 230L527 230" stroke="#EEEEEE"/>
<circle cx="515.5" cy="142.5" r="52" fill="#1675FF"/>
<circle cx="515.5" cy="142.5" r="52" fill="url(#paint0_linear_12_1594)" fill-opacity="0.2"/>
<circle cx="515.5" cy="142.5" r="52" stroke="white" stroke-width="5"/>
<path d="M515.5 111C523.448 111 531.103 114.005 536.929 119.412C542.755 124.819 546.321 132.229 546.913 140.156C547.504 148.082 545.077 155.939 540.119 162.151C535.16 168.363 528.036 172.471 520.176 173.651C512.315 174.831 504.299 172.996 497.736 168.513C491.172 164.03 486.545 157.232 484.783 149.481C483.022 141.73 484.255 133.6 488.237 126.721C492.219 119.841 498.654 114.722 506.252 112.388" stroke="white" stroke-width="6" stroke-linecap="round"/>
<path d="M506.372 133.537C507.291 133.544 508.184 133.706 509.053 134.025C509.928 134.337 510.716 134.85 511.416 135.562C512.116 136.269 512.672 137.216 513.084 138.403C513.497 139.591 513.703 141.059 513.703 142.809C513.709 144.459 513.534 145.934 513.178 147.234C512.828 148.528 512.325 149.622 511.669 150.516C511.013 151.409 510.222 152.091 509.297 152.559C508.372 153.028 507.331 153.263 506.175 153.263C504.963 153.263 503.888 153.025 502.95 152.55C502.019 152.075 501.266 151.425 500.691 150.6C500.116 149.775 499.763 148.831 499.631 147.769H503.053C503.228 148.531 503.584 149.137 504.122 149.587C504.666 150.031 505.35 150.253 506.175 150.253C507.506 150.253 508.531 149.675 509.25 148.519C509.969 147.362 510.328 145.756 510.328 143.7H510.197C509.891 144.25 509.494 144.725 509.006 145.125C508.519 145.519 507.966 145.822 507.347 146.034C506.734 146.247 506.084 146.353 505.397 146.353C504.272 146.353 503.259 146.084 502.359 145.547C501.466 145.009 500.756 144.272 500.231 143.334C499.713 142.397 499.45 141.325 499.444 140.119C499.444 138.869 499.731 137.747 500.306 136.753C500.888 135.753 501.697 134.966 502.734 134.391C503.772 133.809 504.984 133.525 506.372 133.537ZM506.381 136.35C505.706 136.35 505.097 136.516 504.553 136.847C504.016 137.172 503.591 137.616 503.278 138.178C502.972 138.734 502.819 139.356 502.819 140.044C502.825 140.725 502.978 141.344 503.278 141.9C503.584 142.456 504 142.897 504.525 143.222C505.056 143.547 505.663 143.709 506.344 143.709C506.85 143.709 507.322 143.612 507.759 143.419C508.197 143.225 508.578 142.956 508.903 142.612C509.234 142.262 509.491 141.866 509.672 141.422C509.859 140.978 509.95 140.509 509.944 140.016C509.944 139.359 509.788 138.753 509.475 138.197C509.169 137.641 508.747 137.194 508.209 136.856C507.678 136.519 507.069 136.35 506.381 136.35ZM517.013 153L525.178 136.837V136.706H515.7V133.8H528.778V136.772L520.622 153H517.013Z" fill="white"/>
<rect opacity="0.5" x="63.5" y="242.5" width="84" height="101" rx="9.5" fill="#FAFAFA" stroke="#EEEEEE"/>
<rect opacity="0.5" x="158.5" y="242.5" width="84" height="101" rx="9.5" fill="#FAFAFA" stroke="#EEEEEE"/>
<rect opacity="0.5" x="252.5" y="242.5" width="85" height="101" rx="9.5" fill="#FAFAFA" stroke="#EEEEEE"/>
<rect opacity="0.5" x="347.5" y="242.5" width="84" height="101" rx="9.5" fill="#FAFAFA" stroke="#EEEEEE"/>
<rect opacity="0.5" x="442.5" y="242.5" width="84" height="101" rx="9.5" fill="#FAFAFA" stroke="#EEEEEE"/>
<path opacity="0.25" d="M82 265C82 259.477 86.4772 255 92 255H105.5L115.902 268.5L129 285.5V306C129 311.523 124.523 316 119 316H92C86.4772 316 82 311.523 82 306V265Z" fill="#00C153"/>
<path opacity="0.25" d="M177 265C177 259.477 181.477 255 187 255H200.5L210.902 268.5L224 285.5V306C224 311.523 219.523 316 214 316H187C181.477 316 177 311.523 177 306V265Z" fill="#1675FF"/>
<path opacity="0.25" d="M272 265C272 259.477 276.477 255 282 255H295.5L305.902 268.5L319 285.5V306C319 311.523 314.523 316 309 316H282C276.477 316 272 311.523 272 306V265Z" fill="#A7A7A7"/>
<path opacity="0.25" d="M366 265C366 259.477 370.477 255 376 255H389.5L399.902 268.5L413 285.5V306C413 311.523 408.523 316 403 316H376C370.477 316 366 311.523 366 306V265Z" fill="#1675FF"/>
<path opacity="0.25" d="M461 265C461 259.477 465.477 255 471 255H484.5L494.902 268.5L508 285.5V306C508 311.523 503.523 316 498 316H471C465.477 316 461 311.523 461 306V265Z" fill="#135AA0"/>
<rect opacity="0.25" x="80" y="323" width="52" height="12" rx="6" fill="#D7D7D7"/>
<rect opacity="0.25" x="175" y="323" width="52" height="12" rx="6" fill="#D7D7D7"/>
<rect opacity="0.25" x="270" y="323" width="52" height="12" rx="6" fill="#D7D7D7"/>
<rect opacity="0.25" x="365" y="323" width="52" height="12" rx="6" fill="#D7D7D7"/>
<rect opacity="0.25" x="460" y="323" width="52" height="12" rx="6" fill="#D7D7D7"/>
<rect x="231.5" y="13.5" width="127" height="27" rx="13.5" fill="white"/>
<rect x="231.5" y="13.5" width="127" height="27" rx="13.5" stroke="#EEEEEE"/>
<path d="M251.697 31L249.234 22.2727H250.935L252.507 28.6861H252.588L254.267 22.2727H255.814L257.497 28.6903H257.574L259.146 22.2727H260.847L258.384 31H256.824L255.077 24.8764H255.009L253.257 31H251.697ZM261.823 31V22.2727H267.499V23.598H263.404V25.9673H267.205V27.2926H263.404V29.6747H267.533V31H261.823ZM268.992 31V22.2727H272.333C272.963 22.2727 273.488 22.3722 273.905 22.571C274.326 22.767 274.64 23.0355 274.847 23.3764C275.057 23.7173 275.162 24.1037 275.162 24.5355C275.162 24.8906 275.094 25.1946 274.958 25.4474C274.821 25.6974 274.638 25.9006 274.408 26.0568C274.178 26.2131 273.921 26.3253 273.637 26.3935V26.4787C273.946 26.4957 274.243 26.5909 274.527 26.7642C274.814 26.9347 275.049 27.1761 275.231 27.4886C275.412 27.8011 275.503 28.179 275.503 28.6222C275.503 29.0739 275.394 29.4801 275.175 29.8409C274.956 30.1989 274.627 30.4815 274.186 30.6889C273.746 30.8963 273.192 31 272.525 31H268.992ZM270.573 29.679H272.273C272.847 29.679 273.26 29.5696 273.513 29.3509C273.769 29.1293 273.897 28.8452 273.897 28.4986C273.897 28.2401 273.833 28.0071 273.705 27.7997C273.577 27.5895 273.395 27.4247 273.16 27.3054C272.924 27.1832 272.642 27.1222 272.316 27.1222H270.573V29.679ZM270.573 25.9844H272.137C272.41 25.9844 272.655 25.9347 272.874 25.8352C273.093 25.733 273.265 25.5895 273.39 25.4048C273.517 25.2173 273.581 24.9957 273.581 24.7401C273.581 24.402 273.462 24.1236 273.223 23.9048C272.988 23.6861 272.637 23.5767 272.171 23.5767H270.573V25.9844ZM284.358 24.6719C284.318 24.2997 284.151 24.0099 283.855 23.8026C283.563 23.5952 283.182 23.4915 282.713 23.4915C282.384 23.4915 282.101 23.5412 281.865 23.6406C281.629 23.7401 281.449 23.875 281.324 24.0455C281.199 24.2159 281.135 24.4105 281.132 24.6293C281.132 24.8111 281.173 24.9687 281.256 25.1023C281.341 25.2358 281.456 25.3494 281.601 25.4432C281.746 25.5341 281.906 25.6108 282.083 25.6733C282.259 25.7358 282.436 25.7884 282.615 25.831L283.433 26.0355C283.763 26.1122 284.08 26.2159 284.384 26.3466C284.69 26.4773 284.965 26.642 285.206 26.8409C285.45 27.0398 285.644 27.2798 285.786 27.5611C285.928 27.8423 285.999 28.1719 285.999 28.5497C285.999 29.0611 285.868 29.5114 285.607 29.9006C285.345 30.2869 284.967 30.5895 284.473 30.8082C283.982 31.0241 283.386 31.1321 282.688 31.1321C282.009 31.1321 281.419 31.027 280.919 30.8168C280.422 30.6065 280.033 30.2997 279.752 29.8963C279.473 29.4929 279.323 29.0014 279.3 28.4219H280.855C280.878 28.7259 280.972 28.9787 281.136 29.1804C281.301 29.3821 281.516 29.5327 281.78 29.6321C282.047 29.7315 282.345 29.7812 282.675 29.7812C283.019 29.7812 283.32 29.7301 283.578 29.6278C283.84 29.5227 284.044 29.3778 284.192 29.1932C284.34 29.0057 284.415 28.7869 284.418 28.5369C284.415 28.3097 284.348 28.1222 284.217 27.9744C284.087 27.8239 283.904 27.6989 283.668 27.5994C283.435 27.4972 283.162 27.4062 282.85 27.3267L281.857 27.071C281.138 26.8864 280.57 26.6065 280.152 26.2315C279.737 25.8537 279.53 25.3523 279.53 24.7273C279.53 24.2131 279.669 23.7628 279.948 23.3764C280.229 22.9901 280.611 22.6903 281.094 22.4773C281.577 22.2614 282.124 22.1534 282.734 22.1534C283.354 22.1534 283.896 22.2614 284.362 22.4773C284.831 22.6903 285.199 22.9872 285.466 23.3679C285.733 23.7457 285.871 24.1804 285.879 24.6719H284.358ZM294.758 25.2173H293.165C293.119 24.956 293.035 24.7244 292.913 24.5227C292.791 24.3182 292.639 24.1449 292.457 24.0028C292.275 23.8608 292.068 23.7543 291.835 23.6832C291.605 23.6094 291.356 23.5724 291.089 23.5724C290.615 23.5724 290.194 23.6918 289.828 23.9304C289.461 24.1662 289.175 24.5128 288.967 24.9702C288.76 25.4247 288.656 25.9801 288.656 26.6364C288.656 27.304 288.76 27.8665 288.967 28.3239C289.177 28.7784 289.464 29.1222 289.828 29.3551C290.194 29.5852 290.613 29.7003 291.085 29.7003C291.346 29.7003 291.591 29.6662 291.818 29.598C292.048 29.527 292.254 29.4233 292.436 29.2869C292.621 29.1506 292.775 28.983 292.9 28.7841C293.028 28.5852 293.116 28.358 293.165 28.1023L294.758 28.1108C294.699 28.5256 294.569 28.9148 294.371 29.2784C294.175 29.642 293.917 29.9631 293.599 30.2415C293.281 30.517 292.909 30.733 292.483 30.8892C292.057 31.0426 291.584 31.1193 291.064 31.1193C290.297 31.1193 289.612 30.9418 289.01 30.5866C288.407 30.2315 287.933 29.7188 287.586 29.0483C287.24 28.3778 287.067 27.5739 287.067 26.6364C287.067 25.696 287.241 24.892 287.591 24.2244C287.94 23.554 288.416 23.0412 289.018 22.6861C289.621 22.331 290.302 22.1534 291.064 22.1534C291.55 22.1534 292.001 22.2216 292.419 22.358C292.836 22.4943 293.209 22.6946 293.535 22.9588C293.862 23.2202 294.13 23.5412 294.341 23.9219C294.554 24.2997 294.693 24.7315 294.758 25.2173ZM296.086 31V22.2727H299.359C300.029 22.2727 300.592 22.3892 301.046 22.6222C301.504 22.8551 301.849 23.1818 302.082 23.6023C302.318 24.0199 302.436 24.5071 302.436 25.0639C302.436 25.6236 302.316 26.1094 302.078 26.5213C301.842 26.9304 301.494 27.2472 301.034 27.4716C300.573 27.6932 300.008 27.804 299.338 27.804H297.007V26.4915H299.124C299.517 26.4915 299.838 26.4375 300.088 26.3295C300.338 26.2187 300.522 26.0582 300.642 25.848C300.764 25.6349 300.825 25.3736 300.825 25.0639C300.825 24.7543 300.764 24.4901 300.642 24.2713C300.519 24.0497 300.333 23.8821 300.083 23.7685C299.833 23.652 299.511 23.5938 299.116 23.5938H297.667V31H296.086ZM300.595 27.0455L302.755 31H300.991L298.869 27.0455H300.595ZM304.892 31H303.204L306.276 22.2727H308.228L311.305 31H309.617L307.286 24.0625H307.218L304.892 31ZM304.947 27.5781H309.549V28.848H304.947V27.5781ZM312.334 31V22.2727H315.607C316.278 22.2727 316.84 22.3977 317.295 22.6477C317.752 22.8977 318.097 23.2415 318.33 23.679C318.566 24.1136 318.684 24.608 318.684 25.1619C318.684 25.7216 318.566 26.2187 318.33 26.6534C318.094 27.0881 317.746 27.4304 317.286 27.6804C316.826 27.9276 316.259 28.0511 315.586 28.0511H313.417V26.7514H315.373C315.765 26.7514 316.086 26.6832 316.336 26.5469C316.586 26.4105 316.77 26.223 316.89 25.9844C317.012 25.7457 317.073 25.4716 317.073 25.1619C317.073 24.8523 317.012 24.5795 316.89 24.3438C316.77 24.108 316.584 23.9247 316.332 23.794C316.082 23.6605 315.759 23.5938 315.364 23.5938H313.915V31H312.334ZM321.518 22.2727V31H319.937V22.2727H321.518ZM330.282 22.2727V31H328.876L324.763 25.0554H324.691V31H323.11V22.2727H324.525L328.633 28.2216H328.709V22.2727H330.282ZM337.731 25.0597C337.66 24.8295 337.562 24.6236 337.437 24.4418C337.315 24.2571 337.167 24.0994 336.994 23.9688C336.823 23.8381 336.627 23.7401 336.406 23.6747C336.184 23.6065 335.943 23.5724 335.681 23.5724C335.213 23.5724 334.795 23.6903 334.429 23.9261C334.062 24.1619 333.774 24.5085 333.564 24.9659C333.356 25.4205 333.252 25.9744 333.252 26.6278C333.252 27.2869 333.356 27.8452 333.564 28.3026C333.771 28.7599 334.059 29.108 334.429 29.3466C334.798 29.5824 335.227 29.7003 335.716 29.7003C336.159 29.7003 336.542 29.6151 336.866 29.4446C337.193 29.2741 337.444 29.0327 337.62 28.7202C337.796 28.4048 337.885 28.0355 337.885 27.6122L338.243 27.6676H335.873V26.4318H339.414V27.4801C339.414 28.2273 339.255 28.8736 338.937 29.419C338.619 29.9645 338.181 30.3849 337.625 30.6804C337.068 30.973 336.429 31.1193 335.707 31.1193C334.903 31.1193 334.197 30.9389 333.589 30.5781C332.984 30.2145 332.511 29.6989 332.17 29.0312C331.832 28.3608 331.663 27.5653 331.663 26.6449C331.663 25.9403 331.762 25.3111 331.961 24.7571C332.163 24.2031 332.444 23.733 332.805 23.3466C333.166 22.9574 333.589 22.6619 334.075 22.4602C334.561 22.2557 335.089 22.1534 335.66 22.1534C336.143 22.1534 336.593 22.2244 337.011 22.3665C337.429 22.5057 337.799 22.7045 338.123 22.9631C338.45 23.2216 338.718 23.5284 338.929 23.8835C339.139 24.2386 339.277 24.6307 339.342 25.0597H337.731Z" fill="#1675FF"/>
<defs>
<linearGradient id="paint0_linear_12_1594" x1="515.5" y1="88" x2="515.5" y2="197" gradientUnits="userSpaceOnUse">
<stop stop-color="white" stop-opacity="0"/>
<stop offset="1"/>
</linearGradient>
</defs>
</svg>
