<svg width="150" height="155" viewBox="0 0 150 155" fill="none" xmlns="http://www.w3.org/2000/svg">
<g opacity="0.7">
<path d="M72.3382 0.378146C70.2829 -0.576593 67.7997 0.342028 66.8461 2.397C53.6981 30.3381 48.3622 59.5896 54.4489 91.8877C55.1402 93.476 56.8259 94.4772 58.4499 94.3019C58.9652 94.2661 59.4128 94.152 59.9386 93.9704C61.9846 93.0201 62.9697 90.528 62.0185 88.4814C57.1268 60.2907 62.6563 30.8204 74.4272 5.94981C75.3133 3.8167 74.3935 1.33288 72.3382 0.378146Z" fill="#434B75"/>
<path d="M76.1113 28.0503C70.9431 45.9137 68.8818 64.3686 70.0159 83.2016C70.1395 85.5544 72.1423 87.2378 74.4272 87.0373C76.7798 86.9149 78.4621 84.9128 78.2604 82.6275C77.1986 64.8251 79.1293 47.1665 84.0783 30.3127C84.751 28.0909 83.4511 25.7992 81.2291 25.1254C79.0747 24.5297 76.7839 25.8285 76.1113 28.0503Z" fill="#434B75"/>
<path d="M107.509 7.5686C105.276 6.30683 102.435 7.15674 101.313 9.46288C95.1816 22.0745 85.4286 45.4325 87.6707 82.138L87.7383 82.2161C87.9493 86.4064 86.2764 90.3136 82.9282 93.0739C79.6476 95.9123 75.3947 96.9956 71.2888 96.0386C69.0563 95.5105 66.8331 96.8875 66.3738 99.198C65.8468 101.43 67.2248 103.654 69.5354 104.115C71.5546 104.554 73.5947 104.702 75.5777 104.626C80.2153 104.303 84.6663 102.502 88.405 99.4039C93.706 94.9541 96.5203 88.4196 96.061 81.5745C96.061 81.5745 95.9934 81.4963 96.0715 81.4287C94.0064 47.0022 103.026 25.3247 109.243 13.7621C110.427 11.5596 109.686 8.79907 107.509 7.5686Z" fill="#434B75"/>
<path d="M51.9474 3.77435C49.7516 2.91725 47.2723 4.00072 46.4074 6.19349C43.017 13.4601 41.0081 20.8333 39.9304 29.1751C39.6286 31.5117 41.2958 33.528 43.5795 33.7419C45.9157 34.0449 47.9308 32.3782 48.1437 30.094C49.479 22.5694 51.2658 18.049 54.416 9.0905C55.1702 6.9455 54.0656 4.60112 51.9474 3.77435Z" fill="#434B75"/>
<path d="M16.7485 119.914C14.9387 121.303 14.5423 123.919 15.9326 125.73C19.0579 129.877 22.6328 133.75 26.5929 137.126C27.4398 137.891 28.5962 138.23 29.7699 138.131C30.7976 138.026 31.7668 137.553 32.5315 136.707C34.061 135.013 33.8734 132.374 32.1795 130.843C28.7159 127.853 25.4915 124.36 22.7109 120.739C21.1746 118.922 18.5584 118.524 16.7485 119.914Z" fill="#434B75"/>
<path d="M131.317 120.85C129.5 119.45 126.868 119.724 125.468 121.54C107.13 144.719 72.8146 152.884 45.645 140.351C43.5326 139.386 41.1158 140.319 40.1526 142.431C39.1894 144.543 40.1237 146.961 42.2362 147.925C72.5789 161.775 111.294 152.89 132.084 126.627C133.41 124.883 133.134 122.251 131.317 120.85Z" fill="#434B75"/>
<path d="M8.57833 41.4518C6.70722 41.2662 4.93916 42.3678 4.37345 44.161C-1.47859 62.7109 -1.78732 87.5822 5.45886 108.085C6.11045 109.797 7.66672 110.82 9.36105 110.831C9.87756 110.828 10.3316 110.742 10.723 110.575C12.8878 109.839 14.0291 107.414 13.2919 105.249C6.4314 86.1806 8.07026 65.447 12.2185 46.5241C12.7533 44.0843 11.0639 41.6983 8.57833 41.4518Z" fill="#434B75"/>
<path d="M141.422 41.4518C143.293 41.2662 145.061 42.3678 145.627 44.161C151.479 62.7109 151.787 87.5822 144.541 108.085C143.89 109.797 142.333 110.82 140.639 110.831C140.122 110.828 139.668 110.742 139.277 110.575C137.112 109.839 135.971 107.414 136.708 105.249C143.569 86.1806 141.93 65.447 137.782 46.5241C137.247 44.0843 138.936 41.6983 141.422 41.4518Z" fill="#434B75"/>
<path d="M123.336 16.3348C121.306 15.2932 118.771 16.054 117.73 18.0852C116.376 19.9733 114.462 24.5309 114.011 27.2222C113.682 28.3151 113.87 29.5053 114.462 30.5238C114.996 31.4079 115.838 32.0817 116.931 32.4108C119.115 33.069 121.421 31.7704 122.08 29.5846C122.687 27.5711 123.738 24.1803 125.141 22.0769C126.543 19.9734 125.366 17.3763 123.336 16.3348Z" fill="#434B75"/>
<path d="M29.1779 14.4837C27.0152 13.7566 24.6228 14.8869 23.8955 17.0508C22.8388 19.1197 21.6259 25.3142 21.582 28.0425C21.4193 29.1723 21.783 30.3211 22.5198 31.24C23.1801 32.0345 24.1132 32.5752 25.2424 32.7377C27.5008 33.0627 29.587 31.4346 29.9124 29.1751C30.2121 27.0935 31.0939 22.3841 31.8192 19.8924C32.5446 17.4006 31.3407 15.2108 29.1779 14.4837Z" fill="#434B75"/>
<path d="M91.0202 2.57265C88.9901 1.53109 86.4559 2.29188 85.414 4.32308C84.0605 6.21118 82.1464 10.7688 81.696 13.4601C81.3666 14.553 81.5548 15.7432 82.1464 16.7617C82.6808 17.6458 83.5228 18.3196 84.6151 18.6487C86.7998 19.3069 89.1055 18.0082 89.7643 15.8225C90.3711 13.809 91.4227 10.4182 92.8252 8.31476C94.2277 6.21131 93.0503 3.61421 91.0202 2.57265Z" fill="#434B75"/>
<path d="M139.515 30.1403C139.515 32.4638 137.631 34.3473 135.308 34.3473C132.984 34.3473 131.101 32.4638 131.101 30.1403C131.101 27.8168 132.984 25.9332 135.308 25.9332C137.631 25.9332 139.515 27.8168 139.515 30.1403Z" fill="#434B75"/>
</g>
<path d="M19.0967 82.0566C19.0967 94.3908 23.8857 103.305 30.8575 109.215C42.9881 119.498 61.6183 121.029 75.8428 114.385C75.2376 114.419 74.6279 114.436 74.0143 114.436C56.2692 114.436 41.884 99.9394 41.884 82.0566L41.8841 42.7521C41.8841 40.2351 39.8436 38.1946 37.3266 38.1946C27.2585 38.1946 19.0967 46.3564 19.0967 56.4245V82.0566Z" fill="#434B75"/>
<path d="M29.9802 115.132C39.9933 128.649 55.9903 137.401 74.0156 137.401C104.346 137.401 128.933 112.622 128.933 82.0566V42.7521C128.933 40.2351 126.893 38.1946 124.376 38.1946C114.308 38.1946 106.146 46.3565 106.146 56.4246V82.0566C106.146 119.387 57.7108 135.077 29.9802 115.132Z" fill="#434B75"/>
</svg>
