<svg width="165" height="44" viewBox="0 0 165 44" fill="none" xmlns="http://www.w3.org/2000/svg">
<path d="M49.3838 38.2246H53.0459V32.8929H57.2403C60.136 32.8929 62.3077 30.8749 62.3077 28.1771C62.3077 25.3944 60.1786 23.3552 57.2403 23.3552H49.3838V38.2246ZM53.0459 29.8765V26.4778H56.8145C57.8791 26.4778 58.603 27.1788 58.603 28.1984C58.603 29.1968 57.8791 29.8765 56.8145 29.8765H53.0459Z" fill="white"/>
<path d="M63.7622 38.2246H67.4243V32.8079H70.2135L73.024 38.2246H77.1119L73.8543 32.2768C75.5363 31.5121 76.6435 29.9615 76.6435 28.0922C76.6435 25.3307 74.4505 23.3552 71.3845 23.3552H63.7622V38.2246ZM67.4243 29.834V26.4778H71.0439C72.1723 26.4778 72.9388 27.1575 72.9388 28.1559C72.9388 29.1543 72.1723 29.834 71.0439 29.834H67.4243Z" fill="white"/>
<path d="M85.5297 38.4582C90.0009 38.4582 93.4927 35.0808 93.4927 30.7899C93.4927 26.499 90.0009 23.1216 85.5297 23.1216C81.0585 23.1216 77.5667 26.499 77.5667 30.7899C77.5667 35.0808 81.0585 38.4582 85.5297 38.4582ZM85.5297 35.102C83.1451 35.102 81.3353 33.254 81.3353 30.7899C81.3353 28.3258 83.1451 26.4778 85.5297 26.4778C87.9143 26.4778 89.7241 28.3258 89.7241 30.7899C89.7241 33.254 87.9143 35.102 85.5297 35.102Z" fill="white"/>
<path d="M92.2796 38.2246H96.474L100.008 33.254L103.564 38.2246H107.929L102.18 30.5562L107.482 23.3552H103.287L100.094 27.8373L96.8998 23.3552H92.5351L97.9218 30.5562L92.2796 38.2246Z" fill="white"/>
<path d="M107.958 38.2246H111.62V23.3552H107.958V38.2246Z" fill="white"/>
<path d="M113.666 38.2246H125.504V35.0595H117.328V32.2556H122.672V29.1968H117.328V26.5203H125.419V23.3552H113.666V38.2246Z" fill="white"/>
<path d="M132.726 38.437C136.772 38.437 139.263 36.5677 139.263 33.5514C139.263 31.2572 137.751 29.7915 134.877 29.3242L131.79 28.8144C130.533 28.602 130.022 28.2409 130.022 27.4974C130.022 26.6902 130.938 26.2016 132.428 26.2016C134.004 26.2016 135.43 26.7539 137.006 27.9647L138.943 25.267C137.304 23.95 134.898 23.1428 132.684 23.1428C128.873 23.1428 126.573 24.8846 126.573 27.7735C126.573 29.9615 127.914 31.4272 130.342 31.852L133.621 32.4255C135.111 32.6804 135.686 33.084 135.686 33.9125C135.686 34.8259 134.685 35.3569 133.003 35.3569C131.279 35.3569 129.852 34.7621 128.042 33.2964L125.998 35.9517C127.851 37.5236 130.32 38.437 132.726 38.437Z" fill="white"/>
<path d="M49.394 19.9212H60.7997V16.7241H53.0202V5.19768H49.394V19.9212Z" fill="white"/>
<path d="M62.3961 19.9212H66.0223V5.19768H62.3961V19.9212Z" fill="white"/>
<path d="M75.427 20.1526C79.7489 20.1526 82.9113 16.9134 82.9113 12.4753V11.4236H75.0053V14.5576H78.99C78.5683 15.9248 77.1979 16.8713 75.4902 16.8713C73.0657 16.8713 71.2526 15.0204 71.2526 12.5595C71.2526 10.1195 73.0025 8.28962 75.3637 8.28962C76.8395 8.28962 78.1045 8.92063 79.0743 10.1406L81.6253 7.84792C80.2128 6.06006 77.8726 4.96631 75.3637 4.96631C70.9575 4.96631 67.521 8.28962 67.521 12.5595C67.521 16.8293 70.9786 20.1526 75.427 20.1526Z" fill="white"/>
<path d="M84.4061 19.9212H88.0323V14.158H94.1041V19.9212H97.7303V5.19768H94.1041V10.8557H88.0323V5.19768H84.4061V19.9212Z" fill="white"/>
<path d="M103.74 19.9212H107.366V8.39479H112.194V5.19768H98.9119V8.39479H103.74V19.9212Z" fill="white"/>
<path d="M113.375 19.9212H116.79V11.045L123.705 19.9212H126.91V5.19768H123.495V13.7373L116.79 5.19768H113.375V19.9212Z" fill="white"/>
<path d="M128.93 19.9212H132.556V5.19768H128.93V19.9212Z" fill="white"/>
<path d="M134.582 19.9212H137.997V11.045L144.913 19.9212H148.117V5.19768H144.702V13.7373L137.997 5.19768H134.582V19.9212Z" fill="white"/>
<path d="M157.516 20.1526C161.838 20.1526 165 16.9134 165 12.4753V11.4236H157.094V14.5576H161.079C160.657 15.9248 159.287 16.8713 157.579 16.8713C155.155 16.8713 153.342 15.0204 153.342 12.5595C153.342 10.1195 155.092 8.28962 157.453 8.28962C158.929 8.28962 160.194 8.92063 161.163 10.1406L163.714 7.84792C162.302 6.06006 159.962 4.96631 157.453 4.96631C153.046 4.96631 149.61 8.28962 149.61 12.5595C149.61 16.8293 153.068 20.1526 157.516 20.1526Z" fill="white"/>
<rect width="43.4118" height="43.4118" rx="7.70148" fill="url(#paint0_linear_10_310)"/>
<path d="M13.4512 11.8948L15.2694 7.46289H29.2469C31.1787 7.72805 35.0424 9.44019 35.0424 14.1675C35.0424 18.4731 31.963 20.4032 30.0113 20.9709C29.6579 21.0737 29.289 21.0995 28.921 21.0995H19.3603L21.4058 16.4403H28.4833C28.6881 16.4403 28.8936 16.4139 29.0796 16.3283C29.716 16.0352 30.6105 15.339 30.6105 14.1675C30.6105 12.9961 29.716 12.2998 29.0796 12.0068C28.8936 11.9211 28.6881 11.8948 28.4833 11.8948H13.4512Z" fill="white"/>
<path d="M20.971 13.2178H15.971L10.2891 26.8543H19.9483L15.7437 37.5363L30.8575 22.3088H17.221L20.971 13.2178Z" fill="white"/>
<defs>
<linearGradient id="paint0_linear_10_310" x1="21.7059" y1="0" x2="21.7059" y2="43.4118" gradientUnits="userSpaceOnUse">
<stop stop-color="#1675FF"/>
<stop offset="1" stop-color="#1256BA"/>
</linearGradient>
</defs>
</svg>
