<svg width="22" height="16" viewBox="0 0 22 16" fill="none" xmlns="http://www.w3.org/2000/svg">
<g clip-path="url(#clip0_12_5933)">
<g clip-path="url(#clip1_12_5933)">
<path d="M19.9048 0H2.09524C0.93807 0 0 0.955126 0 2.13333V13.8667C0 15.0449 0.93807 16 2.09524 16H19.9048C21.0619 16 22 15.0449 22 13.8667V2.13333C22 0.955126 21.0619 0 19.9048 0Z" fill="#F93939"/>
<path fill-rule="evenodd" clip-rule="evenodd" d="M0 0H7V16H0V0Z" fill="#151515"/>
<path fill-rule="evenodd" clip-rule="evenodd" d="M15 0H22V16H15V0Z" fill="#249F58"/>
<path fill-rule="evenodd" clip-rule="evenodd" d="M10.9999 10.6668C12.4456 10.6668 13.619 9.47216 13.619 8.00016C13.619 6.52816 12.4456 5.3335 10.9999 5.3335C9.55419 5.3335 8.38086 6.52816 8.38086 8.00016C8.38086 9.47216 9.55419 10.6668 10.9999 10.6668ZM10.9999 9.60016C11.8673 9.60016 12.5713 8.6455 12.5713 7.46683C12.5713 6.28816 11.8673 5.3335 10.9999 5.3335C10.1325 5.3335 9.42848 6.28816 9.42848 7.46683C9.42848 8.6455 10.1325 9.60016 10.9999 9.60016ZM10.9999 8.5335C11.2891 8.5335 11.5237 8.05563 11.5237 7.46683C11.5237 6.87803 11.2891 6.40016 10.9999 6.40016C10.7108 6.40016 10.4761 6.87803 10.4761 7.46683C10.4761 8.05563 10.7108 8.5335 10.9999 8.5335Z" fill="white"/>
</g>
</g>
<defs>
<clipPath id="clip0_12_5933">
<rect width="22" height="16" fill="white"/>
</clipPath>
<clipPath id="clip1_12_5933">
<rect width="22" height="16" rx="2" fill="white"/>
</clipPath>
</defs>
</svg>
