<svg width="22" height="16" viewBox="0 0 22 16" fill="none" xmlns="http://www.w3.org/2000/svg">
<g clip-path="url(#clip0_12_5932)">
<g clip-path="url(#clip1_12_5932)">
<rect width="22" height="16" rx="2" fill="#F93939"/>
<path d="M19.9048 0H2.09524C0.93807 0 0 0.955126 0 2.13333V13.8667C0 15.0449 0.93807 16 2.09524 16H19.9048C21.0619 16 22 15.0449 22 13.8667V2.13333C22 0.955126 21.0619 0 19.9048 0Z" fill="#F93939"/>
<path fill-rule="evenodd" clip-rule="evenodd" d="M10.9994 4.26686L9.42801 3.2002L8.38039 4.26686H9.42801L8.38039 5.33353L6.28516 4.26686V9.6002L9.42801 8.53353L8.38039 10.6669H7.33278L8.38039 11.7335L9.42801 10.6669L10.9994 12.8002V4.26686ZM12.5709 3.2002L13.6185 4.26686H12.5709L13.6185 5.33353L15.7137 4.26686V9.6002L12.5709 8.53353L13.6185 10.6669H14.6661L13.6185 11.7335L12.5709 10.6669L10.9994 12.8002V4.26686L12.5709 3.2002Z" fill="#151515"/>
</g>
</g>
<defs>
<clipPath id="clip0_12_5932">
<rect width="22" height="16" fill="white"/>
</clipPath>
<clipPath id="clip1_12_5932">
<rect width="22" height="16" rx="2" fill="white"/>
</clipPath>
</defs>
</svg>
