<svg width="22" height="16" viewBox="0 0 22 16" fill="none" xmlns="http://www.w3.org/2000/svg">
<g clip-path="url(#clip0_12_5934)">
<g clip-path="url(#clip1_12_5934)">
<rect width="22" height="16" rx="2" fill="white"/>
<path d="M19.9048 0H2.09524C0.93807 0 0 0.955126 0 2.13333V13.8667C0 15.0449 0.93807 16 2.09524 16H19.9048C21.0619 16 22 15.0449 22 13.8667V2.13333C22 0.955126 21.0619 0 19.9048 0Z" fill="white"/>
<path fill-rule="evenodd" clip-rule="evenodd" d="M0 0H11V16H0V0Z" fill="#249F58"/>
<path fill-rule="evenodd" clip-rule="evenodd" d="M13.6737 10.9474C12.8126 12.0749 11.4653 12.8002 9.95257 12.8002C7.34923 12.8002 5.23828 10.6509 5.23828 8.0002C5.23828 5.34953 7.34923 3.2002 9.95257 3.2002C11.4653 3.2002 12.8126 3.92553 13.6737 5.053C13.0085 4.5602 12.1714 4.26686 11.2621 4.26686C9.09352 4.26686 7.33352 5.93833 7.33352 8.0002C7.33352 10.0621 9.09352 11.7335 11.2621 11.7335C12.1714 11.7335 13.0085 11.4402 13.6737 10.9474Z" fill="#F93939"/>
<path fill-rule="evenodd" clip-rule="evenodd" d="M13.6191 7.9999L14.6668 7.46657L15.1906 6.3999L15.7144 7.46657L16.762 7.9999L15.7144 8.53324L15.1906 9.5999L14.6668 8.53324L13.6191 7.9999Z" fill="#F93939"/>
</g>
</g>
<defs>
<clipPath id="clip0_12_5934">
<rect width="22" height="16" fill="white"/>
</clipPath>
<clipPath id="clip1_12_5934">
<rect width="22" height="16" rx="2" fill="white"/>
</clipPath>
</defs>
</svg>
