<svg width="22" height="16" viewBox="0 0 22 16" fill="none" xmlns="http://www.w3.org/2000/svg">
<g clip-path="url(#clip0_12_5930)">
<g clip-path="url(#clip1_12_5930)">
<rect width="22" height="16" rx="2" fill="#F93939"/>
<path d="M19.9048 0H2.09524C0.93807 0 0 0.955126 0 2.13333V13.8667C0 15.0449 0.93807 16 2.09524 16H19.9048C21.0619 16 22 15.0449 22 13.8667V2.13333C22 0.955126 21.0619 0 19.9048 0Z" fill="#F93939"/>
<path fill-rule="evenodd" clip-rule="evenodd" d="M0 8H22V16H0V8Z" fill="#151515"/>
<path fill-rule="evenodd" clip-rule="evenodd" d="M13.0446 10.2249C13.4992 9.60408 13.7674 8.83395 13.7674 7.99982C13.7674 6.43502 12.8214 5.09528 11.4805 4.53955L10.8467 5.44302C11.9299 5.77048 12.7198 6.79128 12.7198 7.99982C12.7198 8.63342 12.5029 9.21582 12.1405 9.67235L8.52932 7.46648L11.3537 10.3422C10.9818 10.5492 10.5544 10.6665 10.1007 10.6665C9.22075 10.6665 8.44236 10.2249 7.96779 9.54648L7.33398 10.45C8.00551 11.2361 8.99551 11.7332 10.1007 11.7332C10.8446 11.7332 11.5381 11.507 12.1164 11.1188L12.7198 11.7332L13.7674 10.6665L13.0446 10.2249ZM8.52932 5.33315H9.57694V6.39982H8.52932V5.33315Z" fill="#FFDA2C"/>
</g>
</g>
<defs>
<clipPath id="clip0_12_5930">
<rect width="22" height="16" fill="white"/>
</clipPath>
<clipPath id="clip1_12_5930">
<rect width="22" height="16" rx="2" fill="white"/>
</clipPath>
</defs>
</svg>
