<svg width="22" height="16" viewBox="0 0 22 16" fill="none" xmlns="http://www.w3.org/2000/svg">
<g clip-path="url(#clip0_12_5929)">
<g clip-path="url(#clip1_12_5929)">
<rect width="22" height="16" rx="2" fill="#151515"/>
<rect width="22" height="16" fill="#151515"/>
<path d="M11.0007 9.59997C13.0257 9.59997 14.6673 7.9285 14.6673 5.86663C14.6673 3.80477 13.0257 2.1333 11.0007 2.1333C8.97561 2.1333 7.33398 3.80477 7.33398 5.86663C7.33398 7.9285 8.97561 9.59997 11.0007 9.59997Z" fill="#FFDA2C"/>
<path fill-rule="evenodd" clip-rule="evenodd" d="M0 9.6001H22V16.0001H0V9.6001Z" fill="white"/>
<path fill-rule="evenodd" clip-rule="evenodd" d="M0 6.3999H22V9.5999H0V6.3999Z" fill="#3A99FF"/>
<path fill-rule="evenodd" clip-rule="evenodd" d="M11.5238 16H0V0L11.5238 16Z" fill="#F93939"/>
<path fill-rule="evenodd" clip-rule="evenodd" d="M10.4766 16H22.0004V0L10.4766 16Z" fill="#F93939"/>
</g>
</g>
<defs>
<clipPath id="clip0_12_5929">
<rect width="22" height="16" fill="white"/>
</clipPath>
<clipPath id="clip1_12_5929">
<rect width="22" height="16" rx="2" fill="white"/>
</clipPath>
</defs>
</svg>
