<svg width="22" height="16" viewBox="0 0 22 16" fill="none" xmlns="http://www.w3.org/2000/svg">
<g clip-path="url(#clip0_12_5924)">
<g clip-path="url(#clip1_12_5924)">
<rect width="22" height="16" rx="2" fill="#3ECBF8"/>
<path d="M19.9048 0H2.09524C0.93807 0 0 0.955126 0 2.13333V13.8667C0 15.0449 0.93807 16 2.09524 16H19.9048C21.0619 16 22 15.0449 22 13.8667V2.13333C22 0.955126 21.0619 0 19.9048 0Z" fill="#3ECBF8"/>
<path fill-rule="evenodd" clip-rule="evenodd" d="M4.69904 4.78397C5.61047 4.7253 6.28618 4.5173 6.28618 4.26663C6.28618 4.01703 5.61047 3.80797 4.69904 3.7493C4.64142 2.8213 4.43713 2.1333 4.19094 2.1333C3.9458 2.1333 3.74047 2.8213 3.68285 3.7493C2.77142 3.80797 2.0957 4.01597 2.0957 4.26663C2.0957 4.51623 2.77142 4.7253 3.68285 4.78397C3.74047 5.71197 3.94475 6.39997 4.19094 6.39997C4.43608 6.39997 4.64142 5.71197 4.69904 4.78397Z" fill="#F93939"/>
<path fill-rule="evenodd" clip-rule="evenodd" d="M4.69941 4.7841C5.61084 4.72543 6.28655 4.51743 6.28655 4.26676C6.28655 4.01716 5.61084 3.8081 4.69941 3.74943C4.64179 2.82143 4.4375 2.13343 4.19131 2.13343C3.94617 2.13343 3.74084 2.82143 3.68322 3.74943C2.77179 3.8081 2.09608 4.0161 2.09608 4.26676C2.09608 4.51636 2.77179 4.72543 3.68322 4.7841C3.74084 5.7121 3.94512 6.4001 4.19131 6.4001C4.43646 6.4001 4.64179 5.7121 4.69941 4.7841ZM4.73084 5.31743L5.22322 4.8161C5.14465 6.09396 4.88274 6.93343 4.19131 6.93343C3.49988 6.93343 3.23798 6.0929 3.16046 4.81716L3.65074 5.31636C2.39779 5.23743 1.57227 4.97076 1.57227 4.26676C1.57227 3.56276 2.39779 3.2961 3.65074 3.21716L3.16046 3.71636C3.23798 2.44063 3.49988 1.6001 4.19131 1.6001C4.88274 1.6001 5.14465 2.44063 5.22217 3.71636L4.73188 3.21716C5.98484 3.2961 6.81036 3.56276 6.81036 4.26676C6.81036 4.97076 5.98484 5.23743 4.73188 5.31636L4.73084 5.31743Z" fill="white"/>
<path fill-rule="evenodd" clip-rule="evenodd" d="M0 10H22V11H0V10ZM0 12H22V13H0V12Z" fill="#FFDA2C"/>
</g>
</g>
<defs>
<clipPath id="clip0_12_5924">
<rect width="22" height="16" fill="white"/>
</clipPath>
<clipPath id="clip1_12_5924">
<rect width="22" height="16" rx="2" fill="white"/>
</clipPath>
</defs>
</svg>
