<svg width="22" height="16" viewBox="0 0 22 16" fill="none" xmlns="http://www.w3.org/2000/svg">
<g clip-path="url(#clip0_12_5927)">
<g clip-path="url(#clip1_12_5927)">
<rect width="22" height="16" rx="2" fill="#1A47B8"/>
<path d="M19.9048 0H2.09524C0.93807 0 0 0.955126 0 2.13333V13.8667C0 15.0449 0.93807 16 2.09524 16H19.9048C21.0619 16 22 15.0449 22 13.8667V2.13333C22 0.955126 21.0619 0 19.9048 0Z" fill="#1A47B8"/>
<path opacity="0.5" fill-rule="evenodd" clip-rule="evenodd" d="M4.19141 12.2669L5.23903 11.7335L5.76283 10.6669L6.28664 11.7335L7.33426 12.2669L6.28664 12.8002L5.76283 13.8669L5.23903 12.8002L4.19141 12.2669ZM14.6676 3.2002V4.26686H15.7152V3.2002H14.6676ZM17.8105 4.26686V5.33353H18.8581V4.26686H17.8105ZM13.62 6.4002V7.46686H14.6676V6.4002H13.62ZM16.7628 7.46686V8.53353H17.8105V7.46686H16.7628ZM15.7152 10.6669V11.7335H16.7628V10.6669H15.7152Z" fill="white"/>
<path d="M9.42783 1.06689H2.09449C1.51591 1.06689 1.04688 1.54446 1.04688 2.13356V7.4669C1.04688 8.056 1.51591 8.53356 2.09449 8.53356H9.42783C10.0064 8.53356 10.4754 8.056 10.4754 7.4669V2.13356C10.4754 1.54446 10.0064 1.06689 9.42783 1.06689Z" fill="white"/>
<path fill-rule="evenodd" clip-rule="evenodd" d="M5.23856 5.3333H2.0957V4.26663H5.23856V2.1333H6.28618V4.26663H9.42904V5.3333H6.28618V7.46663H5.23856V5.3333ZM7.85761 6.39997V7.46663H9.42904V6.39997H7.85761ZM7.85761 2.1333V3.19997H9.42904V2.1333H7.85761ZM2.0957 6.39997V7.46663H3.66713V6.39997H2.0957ZM2.0957 2.1333V3.19997H3.66713V2.1333H2.0957Z" fill="#F93939"/>
</g>
</g>
<defs>
<clipPath id="clip0_12_5927">
<rect width="22" height="16" fill="white"/>
</clipPath>
<clipPath id="clip1_12_5927">
<rect width="22" height="16" rx="2" fill="white"/>
</clipPath>
</defs>
</svg>
