<svg width="22" height="16" viewBox="0 0 22 16" fill="none" xmlns="http://www.w3.org/2000/svg">
<g clip-path="url(#clip0_12_5918)">
<g clip-path="url(#clip1_12_5918)">
<path d="M19.9048 0H2.09524C0.93807 0 0 0.955126 0 2.13333V13.8667C0 15.0449 0.93807 16 2.09524 16H19.9048C21.0619 16 22 15.0449 22 13.8667V2.13333C22 0.955126 21.0619 0 19.9048 0Z" fill="#FFDA2C"/>
<path fill-rule="evenodd" clip-rule="evenodd" d="M0 0H7V16H0V0ZM15 0H22V16H15V0Z" fill="#1A47B8"/>
<path fill-rule="evenodd" clip-rule="evenodd" d="M10.4761 10.6665H11.5237V11.7332H10.4761V10.6665ZM12.5713 8.5332H13.619V9.59987H12.5713V8.5332ZM8.38086 8.5332H9.42848V9.59987H8.38086V8.5332Z" fill="#AE6A3E"/>
<path fill-rule="evenodd" clip-rule="evenodd" d="M11.5237 8.53327V4.2666H10.4761V8.53327H9.42848V9.59993H10.4761V10.6666H11.5237V9.59993H12.5713V8.53327H11.5237ZM12.5713 5.33327H13.619V8.53327H12.5713V5.33327ZM8.38086 5.33327H9.42848V8.53327H8.38086V5.33327Z" fill="#151515"/>
</g>
</g>
<defs>
<clipPath id="clip0_12_5918">
<rect width="22" height="16" fill="white"/>
</clipPath>
<clipPath id="clip1_12_5918">
<rect width="22" height="16" rx="2" fill="white"/>
</clipPath>
</defs>
</svg>
