<svg width="22" height="16" viewBox="0 0 22 16" fill="none" xmlns="http://www.w3.org/2000/svg">
<g clip-path="url(#clip0_12_5915)">
<g clip-path="url(#clip1_12_5915)">
<rect width="22" height="16" rx="2" fill="#1A47B8"/>
<path d="M10.9994 12.8002C13.6031 12.8002 15.7137 10.6512 15.7137 8.0002C15.7137 5.34923 13.6031 3.2002 10.9994 3.2002C8.39581 3.2002 6.28516 5.34923 6.28516 8.0002C6.28516 10.6512 8.39581 12.8002 10.9994 12.8002Z" fill="white"/>
<path fill-rule="evenodd" clip-rule="evenodd" d="M8.9043 8.5332H13.0948V9.59987H8.9043V8.5332Z" fill="#CBCBCB"/>
<path fill-rule="evenodd" clip-rule="evenodd" d="M8.38086 5.33327H9.42848V6.39993H8.38086V5.33327ZM10.4761 4.2666H11.5237V5.33327H10.4761V4.2666ZM12.5713 5.33327H13.619V6.39993H12.5713V5.33327ZM13.619 7.4666H14.6666V8.53327H13.619V7.4666ZM12.5713 9.59993H13.619V10.6666H12.5713V9.59993Z" fill="#249F58"/>
<path fill-rule="evenodd" clip-rule="evenodd" d="M11.5234 6.3999H12.5711V7.46657H11.5234V6.3999Z" fill="#151515"/>
<path fill-rule="evenodd" clip-rule="evenodd" d="M11.5234 7.4668H12.5711V8.53346H11.5234V7.4668Z" fill="#AE6A3E"/>
<path fill-rule="evenodd" clip-rule="evenodd" d="M9.42773 6.3999H10.4754V7.46657H9.42773V6.3999Z" fill="#AE6A3E"/>
<path fill-rule="evenodd" clip-rule="evenodd" d="M9.42773 7.4668H10.4754V8.53346H9.42773V7.4668Z" fill="#FFDA2C"/>
<path fill-rule="evenodd" clip-rule="evenodd" d="M10.4768 10.6668H11.5245V11.7335H10.4768V10.6668ZM8.3816 9.60013H9.42922V10.6668H8.3816V9.60013ZM7.33398 7.4668H8.3816V8.53346H7.33398V7.4668Z" fill="#249F58"/>
<path fill-rule="evenodd" clip-rule="evenodd" d="M0 13.8667H22V16H0V13.8667ZM0 0H22V2.13333H0V0Z" fill="#F93939"/>
</g>
</g>
<defs>
<clipPath id="clip0_12_5915">
<rect width="22" height="16" fill="white"/>
</clipPath>
<clipPath id="clip1_12_5915">
<rect width="22" height="16" rx="2" fill="white"/>
</clipPath>
</defs>
</svg>
