<svg width="22" height="16" viewBox="0 0 22 16" fill="none" xmlns="http://www.w3.org/2000/svg">
<g clip-path="url(#clip0_12_5905)">
<g clip-path="url(#clip1_12_5905)">
<rect width="22" height="16" rx="2" fill="#F93939"/>
<path d="M19.9048 0H2.09524C0.93807 0 0 0.955126 0 2.13333V13.8667C0 15.0449 0.93807 16 2.09524 16H19.9048C21.0619 16 22 15.0449 22 13.8667V2.13333C22 0.955126 21.0619 0 19.9048 0Z" fill="#F93939"/>
<path fill-rule="evenodd" clip-rule="evenodd" d="M0 8H22V16H0V8Z" fill="#249F58"/>
<path fill-rule="evenodd" clip-rule="evenodd" d="M11.0003 9.8666L8.84534 11.0207L9.25705 8.57807L7.51172 6.84473L9.92124 6.48847L11.0003 4.2666L12.0793 6.48953L14.4889 6.8458L12.7435 8.577L13.1552 11.0218" fill="#FFDA2C"/>
</g>
</g>
<defs>
<clipPath id="clip0_12_5905">
<rect width="22" height="16" fill="white"/>
</clipPath>
<clipPath id="clip1_12_5905">
<rect width="22" height="16" rx="2" fill="white"/>
</clipPath>
</defs>
</svg>
