<svg width="22" height="16" viewBox="0 0 22 16" fill="none" xmlns="http://www.w3.org/2000/svg">
<g clip-path="url(#clip0_12_5903)">
<g clip-path="url(#clip1_12_5903)">
<rect width="22" height="16" rx="2" fill="#F93939"/>
<path fill-rule="evenodd" clip-rule="evenodd" d="M8.38039 5.3335H8.9042L9.42801 6.40016H8.38039V5.3335ZM9.42801 6.40016H10.4756V7.46683H9.42801V6.40016ZM8.38039 7.46683H9.42801V8.5335H8.38039V7.46683ZM7.33278 8.5335H8.38039V9.60016H7.33278V8.5335ZM7.33278 9.60016H8.38039V10.6668H7.33278V9.60016ZM6.80897 9.60016H7.33278V10.6668H6.28516L6.80897 9.60016ZM9.42801 8.5335H11.5233V10.6668H9.42801V8.5335ZM13.6185 5.3335H13.0947L12.5709 6.40016H13.6185V5.3335ZM12.5709 6.40016H11.5233V7.46683H12.5709V6.40016ZM13.6185 7.46683H12.5709V8.5335H13.6185V7.46683ZM14.6661 8.5335H13.6185V9.60016H14.6661V8.5335ZM14.6661 9.60016H13.6185V10.6668H14.6661V9.60016ZM15.1899 9.60016H14.6661V10.6668H15.7137L15.1899 9.60016ZM12.5709 8.5335H11.5233V10.6668H12.5709V8.5335Z" fill="white"/>
<path opacity="0.7" fill-rule="evenodd" clip-rule="evenodd" d="M9.42922 7.46657H10.4768V8.53324H9.42922V7.46657ZM8.3816 8.53324H9.42922V10.6666H8.3816V8.53324ZM8.3816 6.3999H9.42922V7.46657H8.3816V6.3999ZM7.85779 7.46657H8.3816V8.53324H7.33398L7.85779 7.46657ZM12.5721 7.46657H11.5245V8.53324H12.5721V7.46657ZM13.6197 8.53324H12.5721V10.6666H13.6197V8.53324ZM13.6197 6.3999H12.5721V7.46657H13.6197V6.3999ZM14.1435 7.46657H13.6197V8.53324H14.6673L14.1435 7.46657ZM11.5245 6.3999H10.4768V8.53324H11.5245V6.3999Z" fill="white"/>
<path opacity="0.7" fill-rule="evenodd" clip-rule="evenodd" d="M10.4766 5.3335H11.5242V6.40016H10.4766V5.3335Z" fill="white"/>
<path fill-rule="evenodd" clip-rule="evenodd" d="M0 0H22V4H0V0ZM0 12H22V16H0V12Z" fill="#232C80"/>
</g>
</g>
<defs>
<clipPath id="clip0_12_5903">
<rect width="22" height="16" fill="white"/>
</clipPath>
<clipPath id="clip1_12_5903">
<rect width="22" height="16" rx="2" fill="white"/>
</clipPath>
</defs>
</svg>
