<svg width="22" height="16" viewBox="0 0 22 16" fill="none" xmlns="http://www.w3.org/2000/svg">
<g clip-path="url(#clip0_12_5900)">
<rect width="22" height="16" rx="2" fill="#1A47B8"/>
<path fill-rule="evenodd" clip-rule="evenodd" d="M0 8.5332H22V9.59987H0V8.5332Z" fill="white"/>
<path fill-rule="evenodd" clip-rule="evenodd" d="M0 9.6001H22V10.6668H0V9.6001Z" fill="#F93939"/>
<path fill-rule="evenodd" clip-rule="evenodd" d="M0 10.6665H22V11.7332H0V10.6665Z" fill="white"/>
<path fill-rule="evenodd" clip-rule="evenodd" d="M5.23903 7.46657H6.28664V8.53324H5.23903V7.46657ZM7.33426 6.3999H8.38188V7.46657H7.33426V6.3999ZM9.4295 7.46657H10.4771V8.53324H9.4295V7.46657ZM10.4771 9.5999H11.5247V10.6666H10.4771V9.5999ZM4.19141 9.5999H5.23903V10.6666H4.19141V9.5999ZM9.4295 11.7332H10.4771V12.7999H9.4295V11.7332ZM7.33426 12.7999H8.38188V13.8666H7.33426V12.7999ZM5.23903 11.7332H6.28664V12.7999H5.23903V11.7332Z" fill="#FFDA2C"/>
</g>
<defs>
<clipPath id="clip0_12_5900">
<rect width="22" height="16" fill="white"/>
</clipPath>
</defs>
</svg>
