<svg width="22" height="16" viewBox="0 0 22 16" fill="none" xmlns="http://www.w3.org/2000/svg">
<g clip-path="url(#clip0_12_5896)">
<g clip-path="url(#clip1_12_5896)">
<rect width="22" height="16" rx="2" fill="#F93939"/>
<path d="M19.9048 0H2.09524C0.93807 0 0 0.955126 0 2.13333V13.8667C0 15.0449 0.93807 16 2.09524 16H19.9048C21.0619 16 22 15.0449 22 13.8667V2.13333C22 0.955126 21.0619 0 19.9048 0Z" fill="#F93939"/>
<path fill-rule="evenodd" clip-rule="evenodd" d="M5.76077 7.7122L4.22077 8.53673L4.5141 6.7906L3.26953 5.55326L4.99077 5.30046L5.76077 3.71113L6.52972 5.30046L8.25096 5.55326L7.00429 6.7906L7.29972 8.53566L5.76077 7.7122ZM9.42953 3.2002H10.4772V4.26686H9.42953V3.2002ZM10.4772 5.33353H11.5248V6.4002H10.4772V5.33353ZM10.4772 7.46686H11.5248V8.53353H10.4772V7.46686ZM9.42953 9.6002H10.4772V10.6669H9.42953V9.6002Z" fill="#FFDA2C"/>
</g>
</g>
<defs>
<clipPath id="clip0_12_5896">
<rect width="22" height="16" fill="white"/>
</clipPath>
<clipPath id="clip1_12_5896">
<rect width="22" height="16" rx="2" fill="white"/>
</clipPath>
</defs>
</svg>
