<svg width="22" height="16" viewBox="0 0 22 16" fill="none" xmlns="http://www.w3.org/2000/svg">
<g clip-path="url(#clip0_12_5891)">
<g clip-path="url(#clip1_12_5891)">
<rect width="22" height="16" rx="2" fill="white"/>
<path fill-rule="evenodd" clip-rule="evenodd" d="M0 11H22V16H0V11Z" fill="#1A47B8"/>
<path fill-rule="evenodd" clip-rule="evenodd" d="M0 0H22V5H0V0Z" fill="#F93939"/>
<path fill-rule="evenodd" clip-rule="evenodd" d="M8.38086 4.26686H9.42848V5.33353H8.38086V4.26686ZM10.4761 3.2002H11.5237V5.33353H10.4761V3.2002ZM12.5713 4.26686H13.619V5.33353H12.5713V4.26686Z" fill="#3A99FF"/>
<path fill-rule="evenodd" clip-rule="evenodd" d="M11.523 3.2002H12.5706V5.33353H11.523V3.2002ZM9.42773 3.2002H10.4754V5.33353H9.42773V3.2002Z" fill="#1A47B8"/>
<mask id="mask0_12_5891" style="mask-type:alpha" maskUnits="userSpaceOnUse" x="8" y="5" width="6" height="7">
<path d="M13.619 9.06683C13.619 10.5388 12.4456 11.7335 10.9999 11.7335C9.55419 11.7335 8.38086 10.5388 8.38086 9.06683V5.3335H13.619V9.06683Z" fill="white"/>
</mask>
<g mask="url(#mask0_12_5891)">
<path d="M13.619 9.06683C13.619 10.5388 12.4456 11.7335 10.9999 11.7335C9.55419 11.7335 8.38086 10.5388 8.38086 9.06683V5.3335H13.619V9.06683Z" fill="#F93939"/>
<path fill-rule="evenodd" clip-rule="evenodd" d="M9.42848 10.6668H10.4761V11.7335H9.42848V10.6668ZM11.5237 10.6668H12.5713V11.7335H11.5237V10.6668ZM10.4761 9.60016H11.5237V10.6668H10.4761V9.60016ZM9.42848 8.5335H10.4761V9.60016H9.42848V8.5335ZM11.5237 8.5335H12.5713V9.60016H11.5237V8.5335ZM10.4761 7.46683H11.5237V8.5335H10.4761V7.46683ZM9.42848 6.40016H10.4761V7.46683H9.42848V6.40016ZM11.5237 6.40016H12.5713V7.46683H11.5237V6.40016ZM10.4761 5.3335H11.5237V6.40016H10.4761V5.3335ZM12.5713 5.3335H13.619V6.40016H12.5713V5.3335ZM12.5713 7.46683H13.619V8.5335H12.5713V7.46683ZM12.5713 9.60016H13.619V10.6668H12.5713V9.60016ZM8.38086 9.60016H9.42848V10.6668H8.38086V9.60016ZM8.38086 7.46683H9.42848V8.5335H8.38086V7.46683ZM8.38086 5.3335H9.42848V6.40016H8.38086V5.3335Z" fill="white"/>
</g>
</g>
</g>
<defs>
<clipPath id="clip0_12_5891">
<rect width="22" height="16" fill="white"/>
</clipPath>
<clipPath id="clip1_12_5891">
<rect width="22" height="16" rx="2" fill="white"/>
</clipPath>
</defs>
</svg>
