<svg width="22" height="16" viewBox="0 0 22 16" fill="none" xmlns="http://www.w3.org/2000/svg">
<g clip-path="url(#clip0_12_5883)">
<g clip-path="url(#clip1_12_5883)">
<rect width="22" height="16" rx="2" fill="#249F58"/>
<path fill-rule="evenodd" clip-rule="evenodd" d="M10.4762 7.46667H0V8.53333H10.4762V16H11.5238V8.53333H22V7.46667H11.5238V0H10.4762V7.46667Z" fill="#151515"/>
<path fill-rule="evenodd" clip-rule="evenodd" d="M9.42857 6.4V7.46667H10.4762V0H9.42857V6.4H0V7.46667H10.4762V6.4H9.42857ZM10.4762 7.46667H22V6.4H9.42857V7.46667H10.4762V6.4H9.42857V16H10.4762V7.46667Z" fill="#FFDA2C"/>
<path fill-rule="evenodd" clip-rule="evenodd" d="M12.5714 9.6V8.53333H11.5238V16H12.5714V9.6H22V8.53333H11.5238V9.6H12.5714ZM0 8.53333H13.619V9.6H0V8.53333ZM11.5238 0H12.5714V9.6H11.5238V0Z" fill="white"/>
<path d="M11.0007 11.7333C13.0257 11.7333 14.6673 10.0618 14.6673 7.99994C14.6673 5.93807 13.0257 4.2666 11.0007 4.2666C8.97561 4.2666 7.33398 5.93807 7.33398 7.99994C7.33398 10.0618 8.97561 11.7333 11.0007 11.7333Z" fill="#F93939"/>
<path fill-rule="evenodd" clip-rule="evenodd" d="M9.42773 6.3999H10.4754V7.46657H9.42773V6.3999ZM11.523 6.3999H12.5706V7.46657H11.523V6.3999ZM11.523 8.53324H12.5706V9.5999H11.523V8.53324ZM9.42773 8.53324H10.4754V9.5999H9.42773V8.53324Z" fill="#0A6A30"/>
<path fill-rule="evenodd" clip-rule="evenodd" d="M10.4766 6.3999H11.5242V8.53324H10.4766V6.3999Z" fill="#955DCC"/>
</g>
</g>
<defs>
<clipPath id="clip0_12_5883">
<rect width="22" height="16" fill="white"/>
</clipPath>
<clipPath id="clip1_12_5883">
<rect width="22" height="16" rx="2" fill="white"/>
</clipPath>
</defs>
</svg>
