<svg width="22" height="16" viewBox="0 0 22 16" fill="none" xmlns="http://www.w3.org/2000/svg">
<g clip-path="url(#clip0_12_5879)">
<g clip-path="url(#clip1_12_5879)">
<rect width="22" height="16" rx="2" fill="white"/>
<path fill-rule="evenodd" clip-rule="evenodd" d="M0 11H22V16H0V11ZM0 0H22V5H0V0Z" fill="#1A47B8"/>
<path d="M10.9992 9.5999C11.867 9.5999 12.5706 8.88356 12.5706 7.9999C12.5706 7.11625 11.867 6.3999 10.9992 6.3999C10.1313 6.3999 9.42773 7.11625 9.42773 7.9999C9.42773 8.88356 10.1313 9.5999 10.9992 9.5999Z" fill="#1A47B8"/>
<path d="M11.0004 8.53346C11.2897 8.53346 11.5242 8.29468 11.5242 8.00013C11.5242 7.70558 11.2897 7.4668 11.0004 7.4668C10.7111 7.4668 10.4766 7.70558 10.4766 8.00013C10.4766 8.29468 10.7111 8.53346 11.0004 8.53346Z" fill="#FFDA2C"/>
<path fill-rule="evenodd" clip-rule="evenodd" d="M8.38086 7.4668L9.42848 8.53346L10.9999 9.60013L12.5713 8.53346L13.619 7.4668L12.5713 9.60013H9.42848L8.38086 7.4668Z" fill="#249F58"/>
</g>
</g>
<defs>
<clipPath id="clip0_12_5879">
<rect width="22" height="16" fill="white"/>
</clipPath>
<clipPath id="clip1_12_5879">
<rect width="22" height="16" rx="2" fill="white"/>
</clipPath>
</defs>
</svg>
