<svg width="22" height="16" viewBox="0 0 22 16" fill="none" xmlns="http://www.w3.org/2000/svg">
<g clip-path="url(#clip0_12_5850)">
<g clip-path="url(#clip1_12_5850)">
<rect width="22" height="16" rx="2" fill="white"/>
<path fill-rule="evenodd" clip-rule="evenodd" d="M0 11H22V16H0V11Z" fill="#151515"/>
<path fill-rule="evenodd" clip-rule="evenodd" d="M10.4756 8.53324H11.5233V9.06124C11.5233 9.37057 11.7579 9.5999 12.0471 9.5999C12.3278 9.5999 12.5709 9.35884 12.5709 9.06124V6.9279C12.5709 6.6367 12.8139 6.3999 13.0947 6.3999C13.3838 6.3999 13.6185 6.6303 13.6185 6.9279V8.53324H15.1794C15.4749 8.53324 15.7137 8.7807 15.7137 9.06657C15.7137 9.36097 15.4812 9.5999 15.1794 9.5999H6.81944C6.52401 9.5999 6.28516 9.35244 6.28516 9.06657C6.28516 8.84044 6.42135 8.64737 6.62039 8.5695C6.64659 8.50124 6.68639 8.43617 6.74192 8.3807L8.22954 6.86604C8.43278 6.6591 8.76906 6.66657 8.96811 6.86817C9.17344 7.07617 9.17973 7.40684 8.9723 7.61804L8.07344 8.53324H9.42801V8.00524C9.42801 7.70657 9.67106 7.46657 9.95182 7.46657C10.241 7.46657 10.4756 7.69484 10.4756 8.00524V8.53324Z" fill="#249F58"/>
<path fill-rule="evenodd" clip-rule="evenodd" d="M0 0H22V5H0V0Z" fill="#F93939"/>
</g>
</g>
<defs>
<clipPath id="clip0_12_5850">
<rect width="22" height="16" fill="white"/>
</clipPath>
<clipPath id="clip1_12_5850">
<rect width="22" height="16" rx="2" fill="white"/>
</clipPath>
</defs>
</svg>
