<svg width="22" height="16" viewBox="0 0 22 16" fill="none" xmlns="http://www.w3.org/2000/svg">
<g clip-path="url(#clip0_12_5841)">
<g clip-path="url(#clip1_12_5841)">
<rect width="22" height="16" rx="2" fill="#151515"/>
<path fill-rule="evenodd" clip-rule="evenodd" d="M0 10.6665H22V11.7332H0V10.6665Z" fill="white"/>
<path fill-rule="evenodd" clip-rule="evenodd" d="M0 11.7334H22V16.0001H0V11.7334Z" fill="#0A6A30"/>
<path fill-rule="evenodd" clip-rule="evenodd" d="M0 5.3335H22V10.6668H0V5.3335Z" fill="#F93939"/>
<path fill-rule="evenodd" clip-rule="evenodd" d="M0 4.2666H22V5.33327H0V4.2666Z" fill="white"/>
<path fill-rule="evenodd" clip-rule="evenodd" d="M13.0061 6.3084C13.0815 6.3084 13.5299 5.59373 13.5299 4.7084C13.5299 3.8252 13.0815 3.1084 13.0061 3.1084C12.9327 3.1084 12.4822 3.8252 12.4822 4.7084C12.4822 5.59373 12.9327 6.3084 13.0061 6.3084ZM9.92711 5.84013C9.87472 5.89347 9.05758 5.71213 8.44577 5.086C7.83291 4.46093 7.65272 3.63107 7.70615 3.57773C7.75853 3.5244 8.57358 3.70573 9.18749 4.33186C9.80139 4.95693 9.98053 5.7868 9.92815 5.8412L9.92711 5.84013ZM11.8956 10.6753C11.948 10.6252 12.7651 10.7959 13.378 11.3793C13.9908 11.966 14.171 12.7415 14.1186 12.7916C14.0662 12.8417 13.2491 12.6711 12.6352 12.0876C12.0223 11.5009 11.8422 10.7255 11.8956 10.6753ZM9.92711 10.6753C9.87472 10.6252 9.05758 10.7959 8.44577 11.3793C7.83291 11.966 7.65272 12.7415 7.70615 12.7916C7.75853 12.8417 8.57358 12.6711 9.18749 12.0876C9.80139 11.5009 9.98053 10.7255 9.92815 10.6753H9.92711Z" fill="white"/>
<path fill-rule="evenodd" clip-rule="evenodd" d="M10.9999 12.8002C11.3739 12.8002 13.619 10.6509 13.619 8.0002C13.619 5.34953 11.3739 3.2002 10.9999 3.2002C10.6259 3.2002 8.38086 5.34953 8.38086 8.0002C8.38086 10.6509 10.6259 12.8002 10.9999 12.8002Z" fill="#F93939"/>
<path fill-rule="evenodd" clip-rule="evenodd" d="M8.90467 9.5999C8.978 9.5999 9.42848 8.8831 9.42848 7.9999C9.42848 7.1167 8.978 6.3999 8.90467 6.3999C8.83134 6.3999 8.38086 7.1167 8.38086 7.9999C8.38086 8.8831 8.83134 9.5999 8.90467 9.5999ZM13.0951 9.5999C13.1685 9.5999 13.619 8.8831 13.619 7.9999C13.619 7.1167 13.1685 6.3999 13.0951 6.3999C13.0218 6.3999 12.5713 7.1167 12.5713 7.9999C12.5713 8.8831 13.0218 9.5999 13.0951 9.5999Z" fill="#151515"/>
<path d="M11.5242 7.9999C11.5242 7.11625 11.2897 6.3999 11.0004 6.3999C10.7111 6.3999 10.4766 7.11625 10.4766 7.9999C10.4766 8.88356 10.7111 9.5999 11.0004 9.5999C11.2897 9.5999 11.5242 8.88356 11.5242 7.9999Z" fill="white"/>
</g>
</g>
<defs>
<clipPath id="clip0_12_5841">
<rect width="22" height="16" fill="white"/>
</clipPath>
<clipPath id="clip1_12_5841">
<rect width="22" height="16" rx="2" fill="white"/>
</clipPath>
</defs>
</svg>
