<svg width="22" height="16" viewBox="0 0 22 16" fill="none" xmlns="http://www.w3.org/2000/svg">
<g clip-path="url(#clip0_12_5832)">
<g clip-path="url(#clip1_12_5832)">
<rect width="22" height="16" rx="2" fill="#151515"/>
<path fill-rule="evenodd" clip-rule="evenodd" d="M0 11.7334H22V16.0001H0V11.7334Z" fill="#249F58"/>
<path fill-rule="evenodd" clip-rule="evenodd" d="M0 0H22V4.26667H0V0Z" fill="#F93939"/>
<path fill-rule="evenodd" clip-rule="evenodd" d="M12.5723 7.4668H13.6199V8.53346H12.5723V7.4668Z" fill="white"/>
<path fill-rule="evenodd" clip-rule="evenodd" d="M13.0951 9.60016C12.6174 10.2476 11.8569 10.6668 10.9999 10.6668C9.55419 10.6668 8.38086 9.47216 8.38086 8.00016C8.38086 6.52816 9.55419 5.3335 10.9999 5.3335C11.8569 5.3335 12.6174 5.7527 13.0951 6.40016H11.5237C10.6563 6.40016 9.95229 7.11696 9.95229 8.00016C9.95229 8.88336 10.6563 9.60016 11.5237 9.60016H13.0951Z" fill="white"/>
</g>
</g>
<defs>
<clipPath id="clip0_12_5832">
<rect width="22" height="16" fill="white"/>
</clipPath>
<clipPath id="clip1_12_5832">
<rect width="22" height="16" rx="2" fill="white"/>
</clipPath>
</defs>
</svg>
