<svg width="22" height="16" viewBox="0 0 22 16" fill="none" xmlns="http://www.w3.org/2000/svg">
<g clip-path="url(#clip0_12_5815)">
<g clip-path="url(#clip1_12_5815)">
<rect width="22" height="16" rx="2" fill="#1A47B8"/>
<path fill-rule="evenodd" clip-rule="evenodd" d="M0 0H7.33333V16H0V0Z" fill="#F93939"/>
<path fill-rule="evenodd" clip-rule="evenodd" d="M2.0957 7.4668H3.14332V11.7335H2.0957V7.4668ZM5.23856 7.4668H6.28618V11.7335H5.23856V7.4668Z" fill="#FFDA2C"/>
<path d="M4.1902 11.7334C4.76878 11.7334 5.23782 11.2559 5.23782 10.6668C5.23782 10.0777 4.76878 9.6001 4.1902 9.6001C3.61161 9.6001 3.14258 10.0777 3.14258 10.6668C3.14258 11.2559 3.61161 11.7334 4.1902 11.7334Z" fill="#FFDA2C"/>
<path d="M4.1902 8.53324C4.76878 8.53324 5.23782 8.05567 5.23782 7.46657C5.23782 6.87747 4.76878 6.3999 4.1902 6.3999C3.61161 6.3999 3.14258 6.87747 3.14258 7.46657C3.14258 8.05567 3.61161 8.53324 4.1902 8.53324Z" fill="#FFDA2C"/>
<path fill-rule="evenodd" clip-rule="evenodd" d="M4.1902 3.2002L5.23782 5.33353H3.14258L4.1902 3.2002Z" fill="#FFDA2C"/>
<path fill-rule="evenodd" clip-rule="evenodd" d="M14.666 0H21.9993V16H14.666V0Z" fill="#F93939"/>
</g>
</g>
<defs>
<clipPath id="clip0_12_5815">
<rect width="22" height="16" fill="white"/>
</clipPath>
<clipPath id="clip1_12_5815">
<rect width="22" height="16" rx="2" fill="white"/>
</clipPath>
</defs>
</svg>
