<svg width="22" height="16" viewBox="0 0 22 16" fill="none" xmlns="http://www.w3.org/2000/svg">
<g clip-path="url(#clip0_12_5814)">
<rect width="22" height="16" rx="2" fill="#D4AF2C"/>
<rect x="1.04688" y="1.06689" width="19.9048" height="13.8667" fill="#AF010D"/>
<path fill-rule="evenodd" clip-rule="evenodd" d="M11.0007 5.09647L9.77808 4.2666L8.96408 5.09647H9.77808L8.96408 5.92634L7.33398 5.09647V9.2458L9.77808 8.4138L8.96408 10.0735H8.14903L8.96408 10.9034L9.77808 10.0735L11.0007 11.7333V5.09647ZM12.2232 4.2666L13.0372 5.09647H12.2232L13.0372 5.92634L14.6673 5.09647V9.2458L12.2232 8.4138L13.0372 10.0735H13.8523L13.0372 10.9034L12.2232 10.0735L11.0007 11.7333V5.09647L12.2232 4.2666Z" fill="#D4AF2C"/>
<path fill-rule="evenodd" clip-rule="evenodd" d="M9.42773 6.93883C9.42773 6.0535 10.1254 5.3335 10.9992 5.3335C11.8666 5.3335 12.5706 6.05136 12.5706 6.93883V6.57296C12.5706 7.4583 12.0384 8.65936 11.3973 9.24176L10.9992 9.60016L10.6011 9.24176C9.95469 8.6551 9.42773 7.46043 9.42773 6.57296V6.93883Z" fill="#1A47B8"/>
<path fill-rule="evenodd" clip-rule="evenodd" d="M9.42773 6.3999H12.5706V7.46657H9.42773V6.3999Z" fill="#AE6A3E"/>
</g>
<defs>
<clipPath id="clip0_12_5814">
<rect width="22" height="16" fill="white"/>
</clipPath>
</defs>
</svg>
