<svg width="22" height="16" viewBox="0 0 22 16" fill="none" xmlns="http://www.w3.org/2000/svg">
<g clip-path="url(#clip0_12_5806)">
<g clip-path="url(#clip1_12_5806)">
<rect width="22" height="16" rx="2" fill="#1A47B8"/>
<path d="M19.9048 0H2.09524C0.93807 0 0 0.955126 0 2.13333V13.8667C0 15.0449 0.93807 16 2.09524 16H19.9048C21.0619 16 22 15.0449 22 13.8667V2.13333C22 0.955126 21.0619 0 19.9048 0Z" fill="#1A47B8"/>
<path fill-rule="evenodd" clip-rule="evenodd" d="M15.7144 4.2666V5.33327H16.762V4.2666H15.7144ZM17.8096 6.39994V7.4666H18.8572V6.39994H17.8096ZM13.6191 7.4666V8.53327H14.6668V7.4666H13.6191ZM15.7144 11.7333V12.7999H16.762V11.7333H15.7144Z" fill="#F93939"/>
<path d="M9.42783 1.06689H2.09449C1.51591 1.06689 1.04688 1.54446 1.04688 2.13356V7.4669C1.04688 8.056 1.51591 8.53356 2.09449 8.53356H9.42783C10.0064 8.53356 10.4754 8.056 10.4754 7.4669V2.13356C10.4754 1.54446 10.0064 1.06689 9.42783 1.06689Z" fill="white"/>
<path fill-rule="evenodd" clip-rule="evenodd" d="M5.23856 5.3333H2.0957V4.26663H5.23856V2.1333H6.28618V4.26663H9.42904V5.3333H6.28618V7.46663H5.23856V5.3333ZM7.85761 6.39997V7.46663H9.42904V6.39997H7.85761ZM7.85761 2.1333V3.19997H9.42904V2.1333H7.85761ZM2.0957 6.39997V7.46663H3.66713V6.39997H2.0957ZM2.0957 2.1333V3.19997H3.66713V2.1333H2.0957Z" fill="#F93939"/>
</g>
</g>
<defs>
<clipPath id="clip0_12_5806">
<rect width="22" height="16" fill="white"/>
</clipPath>
<clipPath id="clip1_12_5806">
<rect width="22" height="16" rx="2" fill="white"/>
</clipPath>
</defs>
</svg>
