<svg width="22" height="16" viewBox="0 0 22 16" fill="none" xmlns="http://www.w3.org/2000/svg">
<g clip-path="url(#clip0_12_5801)">
<g clip-path="url(#clip1_12_5801)">
<rect width="22" height="16" rx="2" fill="#AF010D"/>
<path fill-rule="evenodd" clip-rule="evenodd" d="M0 0L10.4762 7.46667H11.5238L4.19048 0H0ZM0 16L10.4762 8.53333H11.5238L4.19048 16H0Z" fill="#FFDA2C"/>
<path fill-rule="evenodd" clip-rule="evenodd" d="M11.5238 7.46667H10.4762L17.8095 0H22L11.5238 7.46667ZM11.5238 8.53333H10.4762L17.8095 16H22L11.5238 8.53333ZM8.38095 7.46667L0 6.4V9.6L8.38095 8.53333V7.46667ZM13.619 7.46667L22 6.4V9.6L13.619 8.53333V7.46667ZM10.4762 5.33333L9.42857 0H12.5714L11.5238 5.33333H10.4762ZM10.4762 10.6667L9.42857 16H12.5714L11.5238 10.6667" fill="#FFDA2C"/>
<path d="M10.9999 10.6668C12.4464 10.6668 13.619 9.47292 13.619 8.00016C13.619 6.5274 12.4464 5.3335 10.9999 5.3335C9.55345 5.3335 8.38086 6.5274 8.38086 8.00016C8.38086 9.47292 9.55345 10.6668 10.9999 10.6668Z" fill="#AF010D"/>
<path d="M10.9992 9.5999C11.867 9.5999 12.5706 8.88356 12.5706 7.9999C12.5706 7.11625 11.867 6.3999 10.9992 6.3999C10.1313 6.3999 9.42773 7.11625 9.42773 7.9999C9.42773 8.88356 10.1313 9.5999 10.9992 9.5999Z" fill="#FFDA2C"/>
</g>
</g>
<defs>
<clipPath id="clip0_12_5801">
<rect width="22" height="16" fill="white"/>
</clipPath>
<clipPath id="clip1_12_5801">
<rect width="22" height="16" rx="2" fill="white"/>
</clipPath>
</defs>
</svg>
