<svg width="22" height="16" viewBox="0 0 22 16" fill="none" xmlns="http://www.w3.org/2000/svg">
<g clip-path="url(#clip0_12_5799)">
<g clip-path="url(#clip1_12_5799)">
<rect width="22" height="16" rx="2" fill="#F93939"/>
<path d="M19.9048 0H2.09524C0.93807 0 0 0.955126 0 2.13333V13.8667C0 15.0449 0.93807 16 2.09524 16H19.9048C21.0619 16 22 15.0449 22 13.8667V2.13333C22 0.955126 21.0619 0 19.9048 0Z" fill="#F93939"/>
<path fill-rule="evenodd" clip-rule="evenodd" d="M6 11H22V16H6V11Z" fill="#249F58"/>
<path fill-rule="evenodd" clip-rule="evenodd" d="M6.00073 0H22.0007V5H6.00073V0ZM4.79463 4.1632C4.73701 4.25173 4.67101 4.33387 4.59559 4.41173C3.98063 5.0368 2.9854 5.0368 2.37254 4.41173C1.75863 3.78773 1.75863 2.7744 2.37254 2.1504C2.44797 2.07147 2.52968 2.00427 2.61663 1.9456C2.38092 2.3936 2.57473 3.1104 3.1132 3.6576C3.65168 4.20373 4.35463 4.40213 4.79568 4.16213L4.79463 4.1632Z" fill="white"/>
<path fill-rule="evenodd" clip-rule="evenodd" d="M2.54011 4.1634C2.59773 4.25193 2.66373 4.33407 2.73916 4.41193C3.35411 5.037 4.34935 5.037 4.96221 4.41193C5.57611 3.78793 5.57611 2.7746 4.96221 2.1506C4.88678 2.07167 4.80506 2.00447 4.71811 1.9458C4.95382 2.3938 4.76001 3.1106 4.22154 3.6578C3.68306 4.20393 2.98011 4.40233 2.53906 4.16233L2.54011 4.1634Z" fill="white"/>
</g>
</g>
<defs>
<clipPath id="clip0_12_5799">
<rect width="22" height="16" fill="white"/>
</clipPath>
<clipPath id="clip1_12_5799">
<rect width="22" height="16" rx="2" fill="white"/>
</clipPath>
</defs>
</svg>
