<svg width="22" height="16" viewBox="0 0 22 16" fill="none" xmlns="http://www.w3.org/2000/svg">
<g clip-path="url(#clip0_12_5798)">
<rect width="22" height="16" rx="2" fill="#0A6A30"/>
<path fill-rule="evenodd" clip-rule="evenodd" d="M16.7347 6.37227C16.6655 7.008 16.4686 7.46667 16.2381 7.46667C16.0076 7.46667 15.8107 7.008 15.7415 6.37227C15.1171 6.30187 14.6667 6.10133 14.6667 5.86667C14.6667 5.632 15.1171 5.43147 15.7415 5.36107C15.8107 4.72533 16.0076 4.26667 16.2381 4.26667C16.4686 4.26667 16.6655 4.72533 16.7347 5.36107C17.359 5.43147 17.8095 5.632 17.8095 5.86667C17.8095 6.10133 17.359 6.30187 16.7347 6.37227ZM0 0H6V16H0V0Z" fill="white"/>
<path fill-rule="evenodd" clip-rule="evenodd" d="M18.8249 7.43273C18.8458 7.6194 18.8563 7.8082 18.8563 8.0002C18.8563 10.6509 16.7454 12.8002 14.142 12.8002C11.5387 12.8002 9.42773 10.6509 9.42773 8.0002C9.42773 5.34953 11.5387 3.2002 14.142 3.2002C14.3306 3.2002 14.516 3.21086 14.6994 3.2322C12.9058 3.47753 11.523 5.04233 11.523 6.93353C11.523 8.9954 13.1646 10.6669 15.1896 10.6669C17.0481 10.6669 18.5839 9.25886 18.8249 7.43273Z" fill="white"/>
</g>
<defs>
<clipPath id="clip0_12_5798">
<rect width="22" height="16" fill="white"/>
</clipPath>
</defs>
</svg>
