<svg width="22" height="16" viewBox="0 0 22 16" fill="none" xmlns="http://www.w3.org/2000/svg">
<g clip-path="url(#clip0_12_5795)">
<g clip-path="url(#clip1_12_5795)">
<rect width="22" height="16" rx="2" fill="white"/>
<path d="M19.9048 0H2.09524C0.93807 0 0 0.955126 0 2.13333V13.8667C0 15.0449 0.93807 16 2.09524 16H19.9048C21.0619 16 22 15.0449 22 13.8667V2.13333C22 0.955126 21.0619 0 19.9048 0Z" fill="white"/>
<path fill-rule="evenodd" clip-rule="evenodd" d="M6.25941 5.3058C6.19026 5.94153 5.99331 6.4002 5.76283 6.4002C5.53236 6.4002 5.33541 5.94153 5.26626 5.3058C4.64188 5.2354 4.19141 5.03486 4.19141 4.8002C4.19141 4.56553 4.64188 4.365 5.26626 4.2946C5.33541 3.65886 5.53236 3.2002 5.76283 3.2002C5.99331 3.2002 6.19026 3.65886 6.25941 4.2946C6.88379 4.365 7.33426 4.56553 7.33426 4.8002C7.33426 5.03486 6.88379 5.2354 6.25941 5.3058Z" fill="#1A47B8"/>
<path fill-rule="evenodd" clip-rule="evenodd" d="M16.734 12.7721C16.6649 13.4078 16.4679 13.8665 16.2374 13.8665C16.007 13.8665 15.81 13.4078 15.7409 12.7721C15.1165 12.7017 14.666 12.5012 14.666 12.2665C14.666 12.0318 15.1165 11.8313 15.7409 11.7609C15.81 11.1252 16.0059 10.6665 16.2374 10.6665C16.4679 10.6665 16.6649 11.1252 16.734 11.7609C17.3584 11.8313 17.8089 12.0308 17.8089 12.2665C17.8089 12.5012 17.3584 12.7017 16.734 12.7721Z" fill="#F93939"/>
<path fill-rule="evenodd" clip-rule="evenodd" d="M0 8H11V16H0V8Z" fill="#1A47B8"/>
<path fill-rule="evenodd" clip-rule="evenodd" d="M11 0H22V8H11V0Z" fill="#F93939"/>
</g>
</g>
<defs>
<clipPath id="clip0_12_5795">
<rect width="22" height="16" fill="white"/>
</clipPath>
<clipPath id="clip1_12_5795">
<rect width="22" height="16" rx="2" fill="white"/>
</clipPath>
</defs>
</svg>
