<svg width="22" height="16" viewBox="0 0 22 16" fill="none" xmlns="http://www.w3.org/2000/svg">
<g clip-path="url(#clip0_12_5794)">
<g clip-path="url(#clip1_12_5794)">
<rect width="22" height="16" rx="2" fill="#AF010D"/>
<path fill-rule="evenodd" clip-rule="evenodd" d="M12.5718 3.19997L14.667 5.3333C14.667 5.3333 12.5718 4.26663 11.5242 5.3333L10.4766 6.39997H13.6194L18.8575 9.59997L16.7623 6.39997H18.8575C18.8575 6.39997 18.8575 5.3333 17.8099 4.26663C16.7623 3.19997 15.7147 3.19997 15.7147 3.19997V2.1333L14.667 3.19997H12.5718Z" fill="#FFDA2C"/>
<path fill-rule="evenodd" clip-rule="evenodd" d="M0 0L22 16H0V0Z" fill="#151515"/>
<path d="M5.76209 8.53346C6.05138 8.53346 6.2859 8.29468 6.2859 8.00013C6.2859 7.70558 6.05138 7.4668 5.76209 7.4668C5.4728 7.4668 5.23828 7.70558 5.23828 8.00013C5.23828 8.29468 5.4728 8.53346 5.76209 8.53346Z" fill="white"/>
<path d="M3.66639 10.6668C3.95568 10.6668 4.1902 10.428 4.1902 10.1334C4.1902 9.83888 3.95568 9.6001 3.66639 9.6001C3.3771 9.6001 3.14258 9.83888 3.14258 10.1334C3.14258 10.428 3.3771 10.6668 3.66639 10.6668Z" fill="white"/>
<path d="M7.85779 10.6668C8.14709 10.6668 8.3816 10.428 8.3816 10.1334C8.3816 9.83888 8.14709 9.6001 7.85779 9.6001C7.5685 9.6001 7.33398 9.83888 7.33398 10.1334C7.33398 10.428 7.5685 10.6668 7.85779 10.6668Z" fill="white"/>
<path d="M5.76209 13.8665C6.05138 13.8665 6.2859 13.6277 6.2859 13.3331C6.2859 13.0386 6.05138 12.7998 5.76209 12.7998C5.4728 12.7998 5.23828 13.0386 5.23828 13.3331C5.23828 13.6277 5.4728 13.8665 5.76209 13.8665Z" fill="white"/>
<path d="M6.80897 12.8001C7.09826 12.8001 7.33278 12.5613 7.33278 12.2667C7.33278 11.9722 7.09826 11.7334 6.80897 11.7334C6.51967 11.7334 6.28516 11.9722 6.28516 12.2667C6.28516 12.5613 6.51967 12.8001 6.80897 12.8001Z" fill="white"/>
</g>
</g>
<defs>
<clipPath id="clip0_12_5794">
<rect width="22" height="16" fill="white"/>
</clipPath>
<clipPath id="clip1_12_5794">
<rect width="22" height="16" rx="2" fill="white"/>
</clipPath>
</defs>
</svg>
