<svg width="22" height="16" viewBox="0 0 22 16" fill="none" xmlns="http://www.w3.org/2000/svg">
<g clip-path="url(#clip0_12_5782)">
<g clip-path="url(#clip1_12_5782)">
<rect width="22" height="16" rx="2" fill="#F93939"/>
<path d="M19.9048 0H2.09524C0.93807 0 0 0.955126 0 2.13333V13.8667C0 15.0449 0.93807 16 2.09524 16H19.9048C21.0619 16 22 15.0449 22 13.8667V2.13333C22 0.955126 21.0619 0 19.9048 0Z" fill="#F93939"/>
<path fill-rule="evenodd" clip-rule="evenodd" d="M0 0H11.5238V8.53333H0V0Z" fill="#232C80"/>
<path opacity="0.5" fill-rule="evenodd" clip-rule="evenodd" d="M5.23903 2.1333H6.28664V3.19997H5.23903V2.1333ZM7.33426 3.19997H8.38188V4.26663H7.33426V3.19997ZM6.28664 4.26663H7.33426V5.3333H6.28664V4.26663ZM5.23903 5.3333H6.28664V6.39997H5.23903V5.3333ZM4.19141 3.19997H5.23903V4.26663H4.19141V3.19997Z" fill="white"/>
</g>
</g>
<defs>
<clipPath id="clip0_12_5782">
<rect width="22" height="16" fill="white"/>
</clipPath>
<clipPath id="clip1_12_5782">
<rect width="22" height="16" rx="2" fill="white"/>
</clipPath>
</defs>
</svg>
