<svg width="22" height="16" viewBox="0 0 22 16" fill="none" xmlns="http://www.w3.org/2000/svg">
<g clip-path="url(#clip0_12_5777)">
<g clip-path="url(#clip1_12_5777)">
<rect width="22" height="16" rx="2" fill="#1A47B8"/>
<path fill-rule="evenodd" clip-rule="evenodd" d="M0 11H22V16H0V11Z" fill="white"/>
<path fill-rule="evenodd" clip-rule="evenodd" d="M0 0H22V5.41667H0V0ZM8.38095 10.8333V5.41667H4.19048V10.8333C4.19048 12.0304 5.1281 13 6.28571 13C7.44333 13 8.38095 12.0304 8.38095 10.8333Z" fill="#F93939"/>
<path fill-rule="evenodd" clip-rule="evenodd" d="M5.23903 5.33353L4.19141 4.26686C4.19141 4.26686 5.23903 3.2002 6.28664 3.2002C7.33426 3.2002 8.38188 4.26686 8.38188 4.26686L7.33426 5.33353H5.23903Z" fill="#FFDA2C"/>
<path fill-rule="evenodd" clip-rule="evenodd" d="M5.23903 6.3999L4.19141 7.46657L6.28664 8.53324L5.23903 10.6666L6.28664 12.7999L7.33426 10.6666L6.28664 8.53324L8.38188 7.46657L7.33426 6.3999L6.28664 7.46657L5.23903 6.3999Z" fill="white"/>
<path fill-rule="evenodd" clip-rule="evenodd" d="M5.23903 6.3999H4.19141V7.46657L5.23903 6.3999ZM7.33426 6.3999H8.38188V7.46657L7.33426 6.3999Z" fill="#FFDA2C"/>
<path fill-rule="evenodd" clip-rule="evenodd" d="M6.2859 3.2002L5.23828 4.26686L6.2859 5.33353L7.33352 4.26686L6.2859 3.2002Z" fill="#A75835"/>
<path fill-rule="evenodd" clip-rule="evenodd" d="M6.28664 8.5332L4.19141 9.59987H8.38188L6.28664 8.5332Z" fill="#88605F"/>
</g>
</g>
<defs>
<clipPath id="clip0_12_5777">
<rect width="22" height="16" fill="white"/>
</clipPath>
<clipPath id="clip1_12_5777">
<rect width="22" height="16" rx="2" fill="white"/>
</clipPath>
</defs>
</svg>
