<svg width="22" height="16" viewBox="0 0 22 16" fill="none" xmlns="http://www.w3.org/2000/svg">
<g clip-path="url(#clip0_12_5772)">
<g clip-path="url(#clip1_12_5772)">
<rect width="22" height="16" rx="2" fill="#1A47B8"/>
<path fill-rule="evenodd" clip-rule="evenodd" d="M0 10.6665H22V15.9998H0V10.6665Z" fill="#F93939"/>
<path fill-rule="evenodd" clip-rule="evenodd" d="M0 0H22V5.33333H0V0ZM10.4029 10.6667H10.4762V5.33333H3.14286V10.6667H3.21619C3.168 10.8395 3.14286 11.0187 3.14286 11.2C3.14286 12.672 6.80952 13.8667 6.80952 13.8667C6.80952 13.8667 10.4762 12.672 10.4762 11.2C10.4762 11.0187 10.451 10.8395 10.4029 10.6667Z" fill="white"/>
<path fill-rule="evenodd" clip-rule="evenodd" d="M9.4295 10.6666V4.2666H4.19141V10.6666C4.19141 11.8453 6.81045 12.7999 6.81045 12.7999C6.81045 12.7999 9.4295 11.8453 9.4295 10.6666Z" fill="#F93939"/>
<path fill-rule="evenodd" clip-rule="evenodd" d="M6.28627 8.5335V7.46683H5.23865V6.40016H6.28627V5.3335H7.33389V6.40016H8.38151V7.46683H7.33389V8.5335H8.90532V9.60016H7.33389V10.6668H6.28627V9.60016H4.71484V8.5335H6.28627Z" fill="white"/>
<path fill-rule="evenodd" clip-rule="evenodd" d="M6.81045 12.8001C6.81045 12.8001 9.4295 11.8454 9.4295 10.6667C9.4295 9.48808 8.38188 9.60008 6.81045 10.6667C5.23903 9.60008 4.19141 9.48808 4.19141 10.6667C4.19141 11.8454 6.81045 12.8001 6.81045 12.8001Z" fill="#1A47B8"/>
</g>
</g>
<defs>
<clipPath id="clip0_12_5772">
<rect width="22" height="16" fill="white"/>
</clipPath>
<clipPath id="clip1_12_5772">
<rect width="22" height="16" rx="2" fill="white"/>
</clipPath>
</defs>
</svg>
