<svg width="22" height="16" viewBox="0 0 22 16" fill="none" xmlns="http://www.w3.org/2000/svg">
<g clip-path="url(#clip0_12_5767)">
<rect width="22" height="16" rx="2" fill="white"/>
<path fill-rule="evenodd" clip-rule="evenodd" d="M14.6673 7.9999C14.6673 10.0618 13.0257 11.7332 11.0007 11.7332C8.9756 11.7332 7.33398 10.0618 7.33398 7.9999C7.33398 6.80524 9.79589 6.3039 11.8681 6.4927C12.0881 6.43297 12.3248 6.3999 12.5721 6.3999C13.7297 6.3999 14.6673 7.1167 14.6673 7.9999Z" fill="#232C80"/>
<path fill-rule="evenodd" clip-rule="evenodd" d="M10.4768 7.4666C10.4768 7.4666 11.4145 6.39994 12.5721 6.39994C13.7297 6.39994 14.6673 7.11673 14.6673 7.99994C14.6673 5.93807 13.0257 4.2666 11.0007 4.2666C9.53713 4.2666 8.2737 5.13913 7.68598 6.40207C7.33398 7.4666 7.33398 7.77807 7.33398 7.99994C7.85779 8.53327 8.44027 8.53327 8.90541 8.53327C9.37056 8.53327 9.78856 8.3274 10.0767 7.99994L10.4768 7.4666Z" fill="#F93939"/>
<path fill-rule="evenodd" clip-rule="evenodd" d="M15.7152 5.33353H17.8105L15.7152 3.2002H14.6676L15.7152 5.33353ZM6.28664 5.33353H4.19141L6.28664 3.2002H7.33426L6.28664 5.33353ZM15.7152 10.6669H17.8105L15.7152 12.8002H14.6676L15.7152 10.6669ZM6.28664 10.6669H4.19141L6.28664 12.8002H7.33426L6.28664 10.6669Z" fill="#151515"/>
</g>
<defs>
<clipPath id="clip0_12_5767">
<rect width="22" height="16" fill="white"/>
</clipPath>
</defs>
</svg>
