<svg width="22" height="16" viewBox="0 0 22 16" fill="none" xmlns="http://www.w3.org/2000/svg">
<g clip-path="url(#clip0_12_5764)">
<g clip-path="url(#clip1_12_5764)">
<rect width="22" height="16" rx="2" fill="#FFDA2C"/>
<rect width="22" height="16" fill="#FFDA2C"/>
<rect opacity="0.3" width="22" height="16" fill="#FF6C2D"/>
<path fill-rule="evenodd" clip-rule="evenodd" d="M2.0957 2.1333H5.23856V13.8666H2.0957V2.1333Z" fill="#0A6A30"/>
<path fill-rule="evenodd" clip-rule="evenodd" d="M5.23828 2.1333H8.38114V13.8666H5.23828V2.1333Z" fill="#FF6C2D"/>
<path opacity="0.2" fill-rule="evenodd" clip-rule="evenodd" d="M5.23828 2.1333H8.38114V13.8666H5.23828V2.1333Z" fill="#151515"/>
<path fill-rule="evenodd" clip-rule="evenodd" d="M9.42773 2.1333H19.9039V13.8666H9.42773V2.1333ZM13.1311 11.3237L13.1918 11.2768L13.217 11.3237C13.2516 11.3877 13.3469 11.3856 13.4097 11.3237L13.459 11.2736L13.5009 11.3216C13.5533 11.3856 13.6517 11.3856 13.7146 11.3216C13.7607 11.2768 13.767 11.2757 13.7963 11.3109C13.8131 11.3301 13.8644 11.3536 13.9095 11.3611C13.9912 11.376 13.9933 11.3749 14.0404 11.2779C14.0823 11.1968 14.0876 11.1648 14.0781 11.0859C14.0718 11.0325 14.0645 10.9493 14.0624 10.8992C14.0603 10.8075 14.0603 10.8064 14.1588 10.7605C14.2112 10.7349 14.274 10.7008 14.2981 10.6837C14.3369 10.656 14.4448 10.4843 14.4448 10.4491C14.4448 10.4405 14.4029 10.4277 14.3505 10.4192C14.1462 10.3872 14.1116 10.2379 14.2457 9.96052C14.4626 9.51039 14.5936 9.06986 14.5946 8.78932C14.5946 8.66452 14.5998 8.62186 14.6124 8.65066C14.6606 8.76052 14.5736 9.22666 14.4416 9.56266L14.3893 9.69812L14.4396 9.68212C14.4668 9.67146 14.6313 9.57866 14.8031 9.47306C15.2745 9.18506 15.4369 9.12746 15.7428 9.14452C15.9984 9.15946 16.1074 9.22666 16.2876 9.48372C16.3839 9.61919 16.4761 9.71626 16.6437 9.85919C17.0041 10.1643 17.0188 10.1899 17.0356 10.5483C17.0534 10.9109 17.046 10.9323 16.8417 10.992C16.6689 11.0432 16.5589 11.152 16.5306 11.3045C16.5159 11.3867 16.5484 11.3899 16.6354 11.3131L16.6982 11.2576L16.7276 11.3131C16.7653 11.3877 16.8449 11.3877 16.9109 11.3131L16.9601 11.2597L17.0104 11.3131C17.09 11.3984 17.1958 11.3792 17.2252 11.2704C17.2304 11.2512 17.2461 11.2576 17.2776 11.2939C17.3352 11.3621 17.4829 11.392 17.4996 11.3365C17.5059 11.3173 17.4934 11.2672 17.4735 11.2256C17.3876 11.0507 17.3603 10.9664 17.3582 10.8715C17.3582 10.7392 17.3865 10.6752 17.4986 10.5664C17.6348 10.4352 17.6767 10.2677 17.574 10.2677C17.5112 10.2677 17.4462 10.1899 17.4064 10.0651C17.3226 9.81439 17.3383 9.53172 17.463 9.06239C17.5887 8.58239 17.6034 8.49706 17.6044 8.17706C17.6044 7.91786 17.6013 7.87306 17.5573 7.73119C17.5311 7.64586 17.4766 7.51572 17.4378 7.44532L17.3676 7.31732L17.4588 7.21279C17.7385 6.89919 17.6819 6.38506 17.3436 6.18879C17.2419 6.12692 17.2157 6.12159 17.0356 6.12479C16.9266 6.12479 16.7632 6.14399 16.6689 6.16746C16.5725 6.18879 16.4112 6.20799 16.3001 6.20799C16.1241 6.20799 16.0948 6.20372 16.0277 6.15466C15.9565 6.10346 15.9439 6.07999 15.9303 5.96266C15.9282 5.93706 15.9156 5.91359 15.9031 5.90932C15.879 5.89866 15.7669 6.02666 15.7522 6.08639C15.7438 6.11412 15.7365 6.11199 15.7135 6.07572C15.6977 6.04906 15.6757 5.99039 15.6642 5.94559C15.6359 5.83039 15.6705 5.74292 15.769 5.67892L15.8476 5.62986L15.8036 5.59146C15.7093 5.51252 15.549 5.56586 15.4914 5.69812C15.4746 5.73332 15.4568 5.76426 15.4516 5.76426C15.4463 5.76426 15.4149 5.72906 15.3824 5.68639C15.2609 5.52639 15.3028 5.28746 15.4662 5.21386C15.5521 5.17546 15.6286 5.20532 15.6443 5.28319C15.6684 5.40266 15.7449 5.24586 15.7313 5.10399C15.7208 5.01012 15.7208 5.00586 15.77 5.00586C15.8371 5.00586 15.9796 5.12532 16.0246 5.21919C16.077 5.32586 16.0717 5.49652 16.0141 5.62239L15.9722 5.72159L16.0288 5.70666C16.1126 5.68319 16.1964 5.61066 16.2383 5.52532C16.2823 5.43359 16.2876 5.25546 16.2488 5.15839C16.21 5.06559 16.2142 5.05172 16.2697 5.08372C16.3661 5.13706 16.4164 5.19466 16.4552 5.29706C16.4908 5.38772 16.4929 5.41012 16.474 5.50506C16.4636 5.56372 16.4374 5.64052 16.4175 5.67572C16.386 5.73226 16.386 5.74186 16.4101 5.74186C16.4552 5.74186 16.5516 5.68319 16.5851 5.63519C16.6018 5.60959 16.627 5.54986 16.6406 5.49866L16.6647 5.40906L16.693 5.47732C16.7328 5.57332 16.8082 5.66186 16.9025 5.71626C17.0041 5.77599 17.046 5.78026 16.9936 5.72479C16.958 5.68746 16.892 5.42612 16.9119 5.40159C16.9224 5.38666 17.0607 5.52959 17.2157 5.71946C17.3645 5.90079 17.4567 5.95839 17.5929 5.95839C17.7678 5.95839 17.8684 5.75359 17.7919 5.56052C17.7448 5.44746 17.6432 5.43252 17.5845 5.52852C17.5573 5.57332 17.5499 5.60852 17.5573 5.65439C17.5677 5.71199 17.5636 5.71839 17.5258 5.71839C17.4735 5.71839 17.375 5.63306 17.199 5.43252C16.9297 5.12852 16.6018 4.87039 16.3661 4.77652C16.2142 4.71466 15.8905 4.69119 15.7376 4.72959C15.5699 4.77012 15.3709 4.90026 15.264 5.03892C15.0734 5.28426 15.0713 5.60959 15.2567 5.90719L15.3091 5.99252L15.2735 6.06719C15.2211 6.17812 15.2253 6.32639 15.2839 6.43519C15.3101 6.48319 15.3363 6.52266 15.3426 6.52266C15.3489 6.52266 15.3552 6.49066 15.3573 6.45332C15.3625 6.35732 15.3929 6.29332 15.4453 6.26879C15.4914 6.24532 15.5217 6.25599 15.7365 6.37119C15.9617 6.49386 16.3316 6.50132 16.7255 6.39252C16.9193 6.34132 17.1466 6.34452 17.2472 6.40106C17.4305 6.50559 17.4735 6.77652 17.3383 6.98239C17.2796 7.06986 17.2231 7.10612 17.0345 7.17652C16.8899 7.22986 16.8564 7.23412 16.5285 7.22986C16.2488 7.22559 16.1482 7.23306 16.034 7.26506C15.9104 7.30026 15.835 7.30346 15.4704 7.29172L15.0493 7.27679L15.0964 7.33012C15.1216 7.35786 15.1593 7.39412 15.1771 7.40799C15.2085 7.43146 15.2085 7.43466 15.1603 7.45812C15.132 7.47306 15.0713 7.48372 15.0241 7.48372H14.9372L14.9267 7.58399C14.9204 7.63946 14.9204 7.70132 14.9267 7.72586C14.9372 7.76106 14.934 7.76532 14.9057 7.75252C14.889 7.74186 14.8387 7.72586 14.7947 7.71306C14.7507 7.70026 14.692 7.67572 14.6637 7.65652C14.6156 7.62452 14.6114 7.62452 14.5925 7.66719C14.5778 7.70559 14.4312 7.85279 14.4092 7.85279C14.406 7.85279 14.4018 7.82399 14.3987 7.78879C14.3987 7.75466 14.3777 7.66399 14.3526 7.58826C14.3296 7.51359 14.3044 7.43039 14.2981 7.40479C14.2876 7.36639 14.2845 7.36426 14.2719 7.39412C14.2646 7.41226 14.2531 7.46346 14.2468 7.50826C14.2416 7.55092 14.2196 7.62559 14.1986 7.66826L14.1609 7.74719L14.1368 7.67892C14.1116 7.60639 14.0687 7.52959 14.053 7.52959C14.0477 7.52959 14.0383 7.55412 14.032 7.58292C14.0216 7.64159 13.9199 7.80692 13.8958 7.80692C13.8854 7.80692 13.878 7.75999 13.878 7.70346C13.878 7.64586 13.8707 7.59999 13.8602 7.59999C13.8518 7.59999 13.8435 7.61386 13.8435 7.63199C13.8435 7.67466 13.7565 7.80586 13.7282 7.80586C13.7146 7.80586 13.6947 7.82079 13.6821 7.83999C13.6507 7.88906 13.6245 7.88266 13.6371 7.82932C13.6444 7.80266 13.6402 7.74399 13.6287 7.69599L13.6004 7.58399C13.5962 7.56692 13.5658 7.57119 13.4998 7.59999C13.393 7.64586 13.3574 7.63839 13.4118 7.57866C13.4328 7.55732 13.4642 7.48479 13.4799 7.41652C13.4967 7.34826 13.5218 7.28852 13.5365 7.28106C13.5554 7.27466 13.5543 7.28426 13.5313 7.32586C13.5156 7.35572 13.5019 7.39626 13.5019 7.41546C13.5019 7.43466 13.4883 7.47946 13.4736 7.51679C13.459 7.55519 13.4496 7.58826 13.4527 7.59146C13.4569 7.59679 13.4967 7.57652 13.5428 7.54666L13.6266 7.49332V7.54132C13.6266 7.56799 13.6371 7.63732 13.6476 7.69706L13.6706 7.80372L13.7272 7.76852C13.7848 7.73226 13.8403 7.60319 13.8403 7.50399C13.8403 7.45279 13.8613 7.46132 13.8696 7.51466L13.899 7.64266L13.9241 7.74292L13.9629 7.67892C13.9838 7.64372 14.0121 7.57546 14.0236 7.52639C14.0446 7.44319 14.0739 7.40692 14.0739 7.46772C14.0739 7.51252 14.164 7.67039 14.1808 7.65759C14.1892 7.65119 14.2059 7.59146 14.2175 7.52532C14.2426 7.38666 14.2824 7.29279 14.3086 7.31199C14.3191 7.32052 14.3212 7.33332 14.3159 7.34399C14.3117 7.35466 14.3316 7.44532 14.362 7.54452C14.3935 7.64372 14.4249 7.74399 14.4301 7.76639C14.4406 7.80372 14.4511 7.79839 14.516 7.72052C14.5579 7.67252 14.5936 7.61919 14.5977 7.60106C14.604 7.57546 14.6135 7.57652 14.6501 7.60746C14.7025 7.65226 14.8806 7.72479 14.8942 7.70559C14.8995 7.69919 14.9047 7.63626 14.9047 7.56692L14.9078 7.43892L14.9602 7.45279C14.9885 7.46132 15.0472 7.46026 15.0912 7.45279L15.1708 7.43679L15.1006 7.37066C15.0618 7.33439 15.022 7.28746 15.0126 7.26612C15.0021 7.24479 14.9665 7.22346 14.9288 7.22026C14.8209 7.20746 14.6313 7.06346 14.6313 6.99626C14.6313 6.98239 14.6575 7.00372 14.6899 7.04426C14.7612 7.13172 14.8596 7.18719 14.9456 7.18719H15.0105L14.9707 7.11679C14.9476 7.07412 14.9267 6.99732 14.9215 6.93226C14.9141 6.83092 14.9057 6.81492 14.8272 6.74026C14.78 6.69546 14.7203 6.62826 14.6962 6.59092L14.6522 6.52372L14.6292 6.60372C14.6166 6.64852 14.6009 6.68372 14.5956 6.68372C14.5894 6.68372 14.5642 6.65812 14.5433 6.62719C14.5192 6.59519 14.4951 6.56959 14.4909 6.56959C14.4836 6.56959 14.4636 6.61226 14.4437 6.66559L14.4092 6.75839L14.3819 6.70506C14.3662 6.67306 14.3316 6.62186 14.3034 6.58772C14.2751 6.55146 14.2594 6.52372 14.2698 6.52372C14.2803 6.52372 14.3159 6.55999 14.3484 6.60372L14.4081 6.68479L14.4322 6.62506C14.4458 6.59092 14.4511 6.53652 14.4448 6.49279C14.4343 6.42879 14.4364 6.42666 14.4553 6.46612C14.4657 6.49172 14.5003 6.54079 14.5317 6.57279L14.5883 6.63679L14.6271 6.54079C14.6658 6.44479 14.6669 6.44479 14.6836 6.50026C14.7077 6.57706 14.8775 6.76692 15.022 6.87572C15.043 6.89279 15.0346 6.83306 14.9937 6.69972C14.9833 6.66452 14.9728 6.60052 14.9728 6.55786C14.9728 6.49386 14.9602 6.46506 14.8995 6.40319C14.8136 6.31359 14.7863 6.25066 14.7696 6.10666C14.7633 6.04799 14.7486 5.98292 14.736 5.96266C14.7182 5.93066 14.7151 5.94879 14.7203 6.05652C14.7224 6.13119 14.7151 6.22079 14.7036 6.25919L14.6826 6.32746L14.6658 6.26986C14.6554 6.23786 14.6166 6.18452 14.5768 6.14719C14.5349 6.11199 14.5087 6.07679 14.5139 6.06932C14.5192 6.06292 14.5611 6.09492 14.6051 6.14186C14.6732 6.21332 14.6889 6.22079 14.6973 6.18986C14.7077 6.15252 14.6973 5.99146 14.6763 5.88052C14.6658 5.82292 14.6658 5.82292 14.7182 5.89119C14.7559 5.94452 14.7758 6.00426 14.7916 6.11092C14.8125 6.24639 14.823 6.27092 14.9152 6.37759C14.9707 6.44479 15.0199 6.49492 15.022 6.49066C15.0262 6.48639 15.0325 6.31572 15.0377 6.11199C15.0482 5.72266 15.0377 5.62986 14.9676 5.50932L14.9319 5.44746L14.9875 5.36532C15.0608 5.25866 15.0943 5.17332 15.109 5.05599L15.1216 4.95999L15.0587 5.04212C15.0063 5.10826 14.9822 5.12319 14.9225 5.12319C14.8628 5.12319 14.8387 5.11039 14.7999 5.05172C14.7517 4.98239 14.6658 4.91626 14.5841 4.88319C14.5527 4.87252 14.5422 4.87679 14.5422 4.90452C14.5422 4.92586 14.5265 4.98346 14.5056 5.03466L14.4689 5.12852L14.3914 5.02399C14.3432 4.95999 14.2866 4.91092 14.2447 4.89599C14.1368 4.85759 14.1316 4.86079 14.1316 4.97066C14.1316 5.13386 14.0792 5.16479 13.9849 5.05599C13.9147 4.97066 13.855 4.95359 13.7198 4.97386L13.6151 4.98986L13.636 5.05386C13.6507 5.10719 13.6465 5.12852 13.613 5.18932C13.5585 5.28746 13.4873 5.33012 13.3783 5.33012C13.328 5.33012 13.2652 5.34399 13.2379 5.36212C13.2117 5.37812 13.1457 5.39839 13.0913 5.40479C13.0368 5.41226 12.9792 5.42612 12.9624 5.43359C12.9373 5.44639 12.9341 5.43572 12.9415 5.35679C12.9551 5.23519 12.8933 5.14666 12.7948 5.14666C12.6691 5.14666 12.6115 5.29919 12.6607 5.50079C12.67 5.53486 12.6793 5.58742 12.6857 5.62342L12.6879 5.63626C12.6953 5.67359 12.7508 5.77279 12.822 5.86772C12.8891 5.95946 12.9519 6.05439 12.9624 6.07892C12.9729 6.10346 13.0075 6.14292 13.0389 6.16639L13.0965 6.20906L13.0892 6.12692C13.0808 6.03519 13.0955 6.02026 13.1311 6.08426C13.1447 6.10879 13.1772 6.14612 13.2044 6.16959C13.2463 6.20372 13.2536 6.20479 13.2536 6.17386C13.2536 6.15252 13.262 6.10986 13.2725 6.07359L13.2935 6.00959L13.3249 6.09706C13.3437 6.14506 13.4045 6.25492 13.459 6.34239C13.5658 6.50772 13.6308 6.69439 13.5973 6.73706C13.5836 6.75519 13.547 6.75306 13.4716 6.73279C13.4118 6.71786 13.3385 6.70932 13.3081 6.71466C13.2453 6.72532 13.2421 6.71466 13.2798 6.65066C13.3196 6.58346 13.3134 6.57279 13.2348 6.57279C13.1436 6.57279 12.9184 6.51306 12.8315 6.46612C12.7476 6.42346 12.7267 6.43412 12.7026 6.54079L12.6576 6.73812L12.6335 6.84479L12.7246 6.83412C12.7749 6.82666 12.8398 6.81279 12.8681 6.79999C12.8975 6.78932 12.9236 6.78292 12.9268 6.78612C12.9299 6.79039 12.9163 6.83306 12.8985 6.87999L12.8629 6.96532L12.9205 6.95039C12.9519 6.94186 12.9991 6.92052 13.0253 6.90346C13.0714 6.87359 13.0745 6.87572 13.1112 6.95359C13.1552 7.04959 13.1908 7.04639 13.1981 6.94292C13.2065 6.83839 13.2327 6.85439 13.2819 6.99412C13.327 7.12852 13.3762 7.17546 13.3846 7.09652C13.3877 7.07092 13.4118 7.02719 13.4401 7.00052C13.4956 6.94719 13.5376 6.96426 13.5606 7.04746C13.5868 7.13279 13.5313 7.22239 13.372 7.35466C13.0473 7.61919 12.8608 7.98186 12.8063 8.44266C12.7581 8.85866 12.909 9.28959 13.2117 9.59892C13.3563 9.74826 13.5868 9.90292 13.5721 9.84426C13.5114 9.59039 13.5135 9.10826 13.5763 9.02612C13.5868 9.01332 13.5826 9.06346 13.569 9.13706C13.5187 9.41226 13.5407 9.63092 13.6706 10.144C13.7858 10.6091 13.7712 10.8075 13.6056 10.9376C13.5533 10.9803 13.5176 10.9867 13.3752 10.9845C13.2201 10.9824 13.2034 10.9867 13.1531 11.04C13.1049 11.0933 13.0431 11.264 13.0431 11.3429C13.0431 11.3856 13.0776 11.3803 13.1478 11.3259L13.1311 11.3237ZM11.9577 10.4704C11.9745 10.4416 11.9871 10.3957 11.9871 10.3691C11.9871 10.3285 12.0007 10.3179 12.0677 10.3051L12.1484 10.2901L12.096 10.2315C12.0311 10.1632 12.0248 10.1099 12.0814 10.1099C12.1369 10.1099 12.2322 10.0309 12.2469 9.97119C12.2542 9.94559 12.25 9.90932 12.2385 9.89012C12.2071 9.84212 12.1474 9.84959 12.1369 9.90292C12.1243 9.96052 12.1055 9.96159 12.0604 9.90292C11.9934 9.81759 11.9913 9.63839 12.0573 9.53386C12.0866 9.48479 12.0866 9.48052 12.0468 9.43146C12.0049 9.37599 11.9735 9.26826 11.9944 9.24266C12.0007 9.23519 12.0342 9.24266 12.0677 9.25759C12.118 9.27892 12.1379 9.28106 12.1578 9.25759C12.2207 9.19359 12.1526 9.10826 12.0531 9.12746C12.0143 9.13492 11.9986 9.12746 11.9923 9.09972C11.9881 9.07839 11.9536 9.04959 11.9137 9.03572C11.8446 9.01226 11.8436 9.01439 11.8436 9.07839C11.8436 9.14986 11.8121 9.16372 11.7566 9.11786C11.7095 9.08052 11.6644 9.10932 11.6644 9.17652C11.6644 9.23839 11.7116 9.26932 11.7943 9.26186C11.8572 9.25652 11.8603 9.32159 11.7996 9.41332L11.7556 9.48052L11.7901 9.54772C11.8425 9.64692 11.8373 9.81226 11.7796 9.89439L11.7377 9.95839L11.7084 9.90719C11.6686 9.83572 11.6141 9.84106 11.5984 9.91786C11.5879 9.96799 11.5984 9.99039 11.6435 10.0437C11.6749 10.0789 11.7199 10.1077 11.744 10.1077C11.8048 10.1077 11.8027 10.1717 11.7398 10.2379L11.6906 10.2891L11.7681 10.3051C11.81 10.3136 11.8436 10.3307 11.8436 10.3424C11.8436 10.3851 11.8959 10.5216 11.9137 10.5216C11.9242 10.5216 11.9452 10.5003 11.9588 10.4715L11.9577 10.4704ZM12.2228 8.15572C12.3967 8.05226 12.4114 7.78879 12.2479 7.71839C12.1798 7.69066 12.1369 7.70772 12.1117 7.76852C12.0908 7.81652 12.1044 7.90292 12.1327 7.90292C12.1411 7.90292 12.1484 7.91786 12.1484 7.93706C12.1484 8.02879 11.8834 8.07039 11.7755 7.99572C11.7377 7.96906 11.7231 7.90186 11.7545 7.90186C11.7755 7.90186 11.7933 7.83146 11.7817 7.78239C11.765 7.71626 11.7147 7.69279 11.6435 7.71839C11.4811 7.77599 11.4863 8.03412 11.6508 8.14506C11.787 8.23359 12.0845 8.23892 12.2249 8.15572H12.2228ZM12.1149 7.95306C12.1254 7.94239 12.1212 7.92106 12.1044 7.90292C12.0677 7.86346 12.0698 7.80479 12.1096 7.73759C12.1411 7.68746 12.1442 7.61279 12.1547 6.85652C12.1725 5.55092 12.2437 4.57066 12.338 4.33599C12.3757 4.24212 12.3695 4.23999 12.2731 4.33066C12.1474 4.44586 12.0531 4.59732 11.9693 4.81066C11.81 5.21599 11.7545 5.76212 11.7545 6.92692C11.7545 7.58826 11.7587 7.67359 11.7859 7.73759C11.8132 7.79519 11.8142 7.81759 11.7964 7.88052C11.7838 7.92106 11.7786 7.96052 11.7838 7.96586C11.8195 8.01279 12.0772 8.00106 12.1159 7.95199L12.1149 7.95306ZM11.523 3.19997H10.4754V4.26663H11.523V3.19997ZM18.8563 3.19997H17.8087V4.26663H18.8563V3.19997ZM11.523 11.7333H10.4754V12.8H11.523V11.7333ZM18.8563 11.7333H17.8087V12.8H18.8563V11.7333Z" fill="#AF010D"/>
</g>
</g>
<defs>
<clipPath id="clip0_12_5764">
<rect width="22" height="16" fill="white"/>
</clipPath>
<clipPath id="clip1_12_5764">
<rect width="22" height="16" rx="2" fill="white"/>
</clipPath>
</defs>
</svg>
