<svg width="22" height="16" viewBox="0 0 22 16" fill="none" xmlns="http://www.w3.org/2000/svg">
<g clip-path="url(#clip0_12_5758)">
<g clip-path="url(#clip1_12_5758)">
<rect width="22" height="16" rx="2" fill="white"/>
<path fill-rule="evenodd" clip-rule="evenodd" d="M0 11H22V16H0V11Z" fill="#249F58"/>
<path fill-rule="evenodd" clip-rule="evenodd" d="M12.5392 7.6799C12.5601 7.78337 12.5706 7.89004 12.5706 7.9999C12.5706 8.8831 11.8666 9.5999 10.9992 9.5999C10.1317 9.5999 9.42773 8.8831 9.42773 7.9999C9.42773 7.89004 9.43821 7.78337 9.45916 7.6799C9.60583 8.1663 10.2386 8.53324 10.9992 8.53324C11.7597 8.53324 12.3925 8.1663 12.5392 7.6799ZM10.9992 7.46657C11.2883 7.46657 11.523 7.22764 11.523 6.93324C11.523 6.63884 11.2883 6.3999 10.9992 6.3999C10.71 6.3999 10.4754 6.63884 10.4754 6.93324C10.4754 7.22764 10.71 7.46657 10.9992 7.46657Z" fill="#FFDA2C"/>
<path fill-rule="evenodd" clip-rule="evenodd" d="M0 0H22V5H0V0Z" fill="#AF010D"/>
</g>
</g>
<defs>
<clipPath id="clip0_12_5758">
<rect width="22" height="16" fill="white"/>
</clipPath>
<clipPath id="clip1_12_5758">
<rect width="22" height="16" rx="2" fill="white"/>
</clipPath>
</defs>
</svg>
