<svg width="22" height="16" viewBox="0 0 22 16" fill="none" xmlns="http://www.w3.org/2000/svg">
<g clip-path="url(#clip0_12_5753)">
<g clip-path="url(#clip1_12_5753)">
<rect width="22" height="16" rx="2" fill="#AF010D"/>
<path d="M19.9048 0H2.09524C0.93807 0 0 0.955126 0 2.13333V13.8667C0 15.0449 0.93807 16 2.09524 16H19.9048C21.0619 16 22 15.0449 22 13.8667V2.13333C22 0.955126 21.0619 0 19.9048 0Z" fill="#AF010D"/>
<path fill-rule="evenodd" clip-rule="evenodd" d="M0 0H12V11H0V0Z" fill="white"/>
<path fill-rule="evenodd" clip-rule="evenodd" d="M7.33305 4.26663V2.1333H5.23782V4.26663H3.14258V6.39997H5.23782V8.5333H7.33305V6.39997H9.42829V4.26663H7.33305Z" fill="#AF010D"/>
</g>
</g>
<defs>
<clipPath id="clip0_12_5753">
<rect width="22" height="16" fill="white"/>
</clipPath>
<clipPath id="clip1_12_5753">
<rect width="22" height="16" rx="2" fill="white"/>
</clipPath>
</defs>
</svg>
