<svg width="22" height="16" viewBox="0 0 22 16" fill="none" xmlns="http://www.w3.org/2000/svg">
<g clip-path="url(#clip0_12_5751)">
<rect width="22" height="16" rx="2" fill="#F93939"/>
<path d="M11.0007 11.7333C13.0257 11.7333 14.6673 10.0618 14.6673 7.99994C14.6673 5.93807 13.0257 4.2666 11.0007 4.2666C8.97561 4.2666 7.33398 5.93807 7.33398 7.99994C7.33398 10.0618 8.97561 11.7333 11.0007 11.7333Z" fill="white"/>
<path fill-rule="evenodd" clip-rule="evenodd" d="M12.5723 7.4668H13.6199V8.53346H12.5723V7.4668Z" fill="#F93939"/>
<path fill-rule="evenodd" clip-rule="evenodd" d="M13.0951 9.60016C12.6174 10.2476 11.8569 10.6668 10.9999 10.6668C9.55419 10.6668 8.38086 9.47216 8.38086 8.00016C8.38086 6.52816 9.55419 5.3335 10.9999 5.3335C11.8569 5.3335 12.6174 5.7527 13.0951 6.40016H11.5237C10.6563 6.40016 9.95229 7.11696 9.95229 8.00016C9.95229 8.88336 10.6563 9.60016 11.5237 9.60016H13.0951Z" fill="#F93939"/>
</g>
<defs>
<clipPath id="clip0_12_5751">
<rect width="22" height="16" fill="white"/>
</clipPath>
</defs>
</svg>
