<svg width="22" height="16" viewBox="0 0 22 16" fill="none" xmlns="http://www.w3.org/2000/svg">
<g clip-path="url(#clip0_12_5750)">
<rect width="22" height="16" rx="2" fill="#F93939"/>
<path fill-rule="evenodd" clip-rule="evenodd" d="M14.6687 9.22868L13.4514 9.87934L13.684 8.50014L12.6992 7.52201L14.0611 7.31934L14.6687 6.06494L15.2764 7.32041L16.6383 7.52307L15.6535 8.49907L15.8861 9.87827" fill="white"/>
<path fill-rule="evenodd" clip-rule="evenodd" d="M9.95182 11.7333C11.9769 11.7333 13.6185 10.0618 13.6185 7.99994C13.6185 5.93807 11.9769 4.2666 9.95182 4.2666C7.92678 4.2666 6.28516 5.93807 6.28516 7.99994C6.28516 10.0618 7.92678 11.7333 9.95182 11.7333ZM10.9994 10.6666C12.4452 10.6666 13.6185 9.47194 13.6185 7.99994C13.6185 6.52794 12.4452 5.33327 10.9994 5.33327C9.55373 5.33327 8.38039 6.52794 8.38039 7.99994C8.38039 9.47194 9.55373 10.6666 10.9994 10.6666Z" fill="white"/>
</g>
<defs>
<clipPath id="clip0_12_5750">
<rect width="22" height="16" fill="white"/>
</clipPath>
</defs>
</svg>
