<svg width="22" height="16" viewBox="0 0 22 16" fill="none" xmlns="http://www.w3.org/2000/svg">
<g clip-path="url(#clip0_12_5749)">
<rect width="22" height="16" rx="2" fill="#249F58"/>
<path fill-rule="evenodd" clip-rule="evenodd" d="M2.0957 0H3.14332V16H2.0957V0ZM4.19094 0H5.23856V16H4.19094V0ZM6.28618 0H7.3338V16H6.28618V0Z" fill="#D4AF2C"/>
<path fill-rule="evenodd" clip-rule="evenodd" d="M5.23856 0L7.3338 1.6L5.23856 3.2V0ZM5.23856 3.2L7.3338 4.8L5.23856 6.4V3.2ZM5.23856 6.4L7.3338 8L5.23856 9.6V6.4ZM5.23856 9.6L7.3338 11.2L5.23856 12.8V9.6ZM5.23856 12.8L7.3338 14.4L5.23856 16V12.8ZM4.19094 0L2.0957 1.6L4.19094 3.2V0ZM4.19094 3.2L2.0957 4.8L4.19094 6.4V3.2ZM4.19094 6.4L2.0957 8L4.19094 9.6V6.4ZM4.19094 9.6L2.0957 11.2L4.19094 12.8V9.6ZM4.19094 12.8L2.0957 14.4L4.19094 16V12.8ZM4.19094 0H5.23856V2.13333H4.19094V0ZM4.19094 13.8667H5.23856V16H4.19094V13.8667ZM4.19094 5.33333H5.23856V7.46667H4.19094V5.33333ZM4.19094 3.2H5.23856V4.26667H4.19094V3.2ZM4.19094 11.7333H5.23856V12.8H4.19094V11.7333ZM4.19094 8.53333H5.23856V10.6667H4.19094V8.53333Z" fill="#AE6A3E"/>
<path fill-rule="evenodd" clip-rule="evenodd" d="M11.7702 3.21513C11.8614 3.20446 11.9535 3.2002 12.0468 3.2002C13.4925 3.2002 14.6658 4.39486 14.6658 5.86686C14.6658 7.33886 13.4925 8.53353 12.0468 8.53353C10.6011 8.53353 9.42773 7.33886 9.42773 5.86686C9.42773 5.77086 9.43297 5.67806 9.4424 5.58526C9.56392 6.64553 10.4481 7.46686 11.523 7.46686C12.6806 7.46686 13.6182 6.5122 13.6182 5.33353C13.6182 4.2402 12.8115 3.33886 11.7702 3.21513ZM10.4754 4.26686H11.523V5.33353H10.4754V4.26686Z" fill="white"/>
<path opacity="0.5" fill-rule="evenodd" clip-rule="evenodd" d="M8.38086 4.26663H9.42848V5.3333H8.38086V4.26663ZM10.4761 2.1333H11.5237V3.19997H10.4761V2.1333Z" fill="white"/>
</g>
<defs>
<clipPath id="clip0_12_5749">
<rect width="22" height="16" fill="white"/>
</clipPath>
</defs>
</svg>
