<svg width="43" height="32" viewBox="0 0 43 32" fill="none" xmlns="http://www.w3.org/2000/svg">
<mask id="mask0_79_2207" style="mask-type:alpha" maskUnits="userSpaceOnUse" x="0" y="0" width="43" height="32">
<rect width="42.6667" height="32" rx="3.13725" fill="#FAFAFA"/>
</mask>
<g mask="url(#mask0_79_2207)">
<mask id="mask1_79_2207" style="mask-type:luminance" maskUnits="userSpaceOnUse" x="-1" y="0" width="44" height="32">
<path d="M-0.000701904 0H42.666V32H-0.000701904V0Z" fill="white"/>
</mask>
<g mask="url(#mask1_79_2207)">
<path fill-rule="evenodd" clip-rule="evenodd" d="M-0.000457764 0V32H42.6662V0H-0.000457764Z" fill="#2E42A5"/>
<mask id="mask2_79_2207" style="mask-type:luminance" maskUnits="userSpaceOnUse" x="-1" y="0" width="44" height="32">
<path fill-rule="evenodd" clip-rule="evenodd" d="M-0.0010376 0V32H42.6656V0H-0.0010376Z" fill="white"/>
</mask>
<g mask="url(#mask2_79_2207)">
<mask id="mask3_79_2207" style="mask-type:luminance" maskUnits="userSpaceOnUse" x="-1" y="0" width="44" height="32">
<path d="M-0.00125122 0H42.6654V32H-0.00125122V0Z" fill="white"/>
</mask>
<g mask="url(#mask3_79_2207)">
<path d="M-4.75256 29.7138L4.63636 33.6845L42.878 4.31705L47.8304 -1.58359L37.7904 -2.91074L22.1925 9.74456L9.63782 18.2713L-4.75256 29.7138Z" fill="white"/>
<path d="M-3.46732 32.4958L1.3159 34.8L46.0519 -2.13188H39.3358L-3.46732 32.4958Z" fill="#F50100"/>
<path d="M47.4166 29.7138L38.0276 33.6845L-0.213999 4.31705L-5.16644 -1.58359L4.87366 -2.91074L20.4715 9.74456L33.0262 18.2713L47.4166 29.7138Z" fill="white"/>
<path d="M47.096 31.7105L42.3128 34.0147L23.2638 18.2023L17.616 16.4355L-5.64319 -1.56334H1.07301L24.3192 16.0083L30.4939 18.1269L47.096 31.7105Z" fill="#F50100"/>
<path fill-rule="evenodd" clip-rule="evenodd" d="M26.3691 -2.66669H16.2951V10.6666H-2.63123V21.3333H16.2951V34.6666H26.3691V21.3333H45.3688V10.6666H26.3691V-2.66669Z" fill="#F50100"/>
<mask id="mask4_79_2207" style="mask-type:luminance" maskUnits="userSpaceOnUse" x="-3" y="-3" width="49" height="38">
<path fill-rule="evenodd" clip-rule="evenodd" d="M26.3687 -2.66678H16.2947V10.6666H-2.63165V21.3332H16.2947V34.6666H26.3687V21.3332H45.3684V10.6666H26.3687V-2.66678Z" fill="white"/>
</mask>
<g mask="url(#mask4_79_2207)">
<path d="M16.2948 -2.66672V-5.33339H13.6282V-2.66672H16.2948ZM26.3688 -2.66672H29.0355V-5.33339H26.3688V-2.66672ZM16.2948 10.6666V13.3333H18.9615V10.6666H16.2948ZM-2.63149 10.6666V7.99994H-5.29816V10.6666H-2.63149ZM-2.63149 21.3333H-5.29816V23.9999H-2.63149V21.3333ZM16.2948 21.3333H18.9615V18.6666H16.2948V21.3333ZM16.2948 34.6666H13.6282V37.3333H16.2948V34.6666ZM26.3688 34.6666V37.3333H29.0355V34.6666H26.3688ZM26.3688 21.3333V18.6666H23.7022V21.3333H26.3688ZM45.3686 21.3333V23.9999H48.0352V21.3333H45.3686ZM45.3686 10.6666H48.0352V7.99994H45.3686V10.6666ZM26.3688 10.6666H23.7022V13.3333H26.3688V10.6666ZM16.2948 -5.57899e-05H26.3688V-5.33339H16.2948V-5.57899e-05ZM18.9615 10.6666V-2.66672H13.6282V10.6666H18.9615ZM-2.63149 13.3333H16.2948V7.99994H-2.63149V13.3333ZM0.035171 21.3333V10.6666H-5.29816V21.3333H0.035171ZM16.2948 18.6666H-2.63149V23.9999H16.2948V18.6666ZM18.9615 34.6666V21.3333H13.6282V34.6666H18.9615ZM26.3688 31.9999H16.2948V37.3333H26.3688V31.9999ZM23.7022 21.3333V34.6666H29.0355V21.3333H23.7022ZM45.3686 18.6666H26.3688V23.9999H45.3686V18.6666ZM42.7019 10.6666V21.3333H48.0352V10.6666H42.7019ZM26.3688 13.3333H45.3686V7.99994H26.3688V13.3333ZM23.7022 -2.66672V10.6666H29.0355V-2.66672H23.7022Z" fill="white"/>
</g>
</g>
</g>
</g>
</g>
</svg>
