<svg width="43" height="32" viewBox="0 0 43 32" fill="none" xmlns="http://www.w3.org/2000/svg">
<mask id="mask0_79_2184" style="mask-type:alpha" maskUnits="userSpaceOnUse" x="0" y="0" width="43" height="32">
<rect y="1.52588e-05" width="42.6666" height="32" rx="3.13725" fill="#FAFAFA"/>
</mask>
<g mask="url(#mask0_79_2184)">
<mask id="mask1_79_2184" style="mask-type:luminance" maskUnits="userSpaceOnUse" x="-1" y="0" width="44" height="32">
<path d="M-0.000305176 0H42.6538V31.9906H-0.000305176V0Z" fill="white"/>
</mask>
<g mask="url(#mask1_79_2184)">
<path fill-rule="evenodd" clip-rule="evenodd" d="M-0.000427246 -1.52588e-05H42.6537V31.9905H-0.000427246V-1.52588e-05Z" fill="#F7FCFF"/>
<path fill-rule="evenodd" clip-rule="evenodd" d="M-0.000244141 19.5498V22.2157H42.6538V19.5498H-0.000244141Z" fill="#E31D1C"/>
<path fill-rule="evenodd" clip-rule="evenodd" d="M-0.000244141 24.4372V27.1031H42.6538V24.4372H-0.000244141Z" fill="#E31D1C"/>
<path fill-rule="evenodd" clip-rule="evenodd" d="M-0.000244141 9.77484V12.4407H42.6538V9.77484H-0.000244141Z" fill="#E31D1C"/>
<path fill-rule="evenodd" clip-rule="evenodd" d="M-0.000244141 29.3247V31.9906H42.6538V29.3247H-0.000244141Z" fill="#E31D1C"/>
<path fill-rule="evenodd" clip-rule="evenodd" d="M-0.000244141 14.6623V17.3282H42.6538V14.6623H-0.000244141Z" fill="#E31D1C"/>
<path fill-rule="evenodd" clip-rule="evenodd" d="M-0.000427246 -1.52588e-05V2.66587H42.6537V-1.52588e-05H-0.000427246Z" fill="#E31D1C"/>
<path fill-rule="evenodd" clip-rule="evenodd" d="M-0.000244141 4.8876V7.55348H42.6538V4.8876H-0.000244141Z" fill="#E31D1C"/>
<path d="M-0.000305176 0H26.6585V17.3282H-0.000305176V0Z" fill="#2E42A5"/>
<path fill-rule="evenodd" clip-rule="evenodd" d="M2.29519 3.91717L1.32763 4.59548L1.65429 3.38835L0.794922 2.62337H1.91737L2.29383 1.63823L2.73526 2.62337H3.69213L2.94029 3.38835L3.23136 4.59548L2.29519 3.91717ZM7.62695 3.91717L6.6594 4.59548L6.98605 3.38835L6.12669 2.62337H7.24913L7.62559 1.63823L8.06702 2.62337H9.02389L8.27205 3.38835L8.56312 4.59548L7.62695 3.91717ZM11.9912 4.59548L12.9587 3.91717L13.8949 4.59548L13.6038 3.38835L14.3557 2.62337H13.3988L12.9574 1.63823L12.5809 2.62337H11.4584L12.3178 3.38835L11.9912 4.59548ZM18.2905 3.91717L17.3229 4.59548L17.6496 3.38835L16.7902 2.62337H17.9126L18.2892 1.63823L18.7305 2.62337H19.6874L18.9355 3.38835L19.2266 4.59548L18.2905 3.91717ZM1.32763 9.92724L2.29519 9.24893L3.23136 9.92724L2.94029 8.72011L3.69213 7.95513H2.73526L2.29383 6.96999L1.91737 7.95513H0.794922L1.65429 8.72011L1.32763 9.92724ZM7.62695 9.24893L6.6594 9.92724L6.98605 8.72011L6.12669 7.95513H7.24913L7.62559 6.96999L8.06702 7.95513H9.02389L8.27205 8.72011L8.56312 9.92724L7.62695 9.24893ZM11.9912 9.92724L12.9587 9.24893L13.8949 9.92724L13.6038 8.72011L14.3557 7.95513H13.3988L12.9574 6.96999L12.5809 7.95513H11.4584L12.3178 8.72011L11.9912 9.92724ZM18.2905 9.24893L17.3229 9.92724L17.6496 8.72011L16.7902 7.95513H17.9126L18.2892 6.96999L18.7305 7.95513H19.6874L18.9355 8.72011L19.2266 9.92724L18.2905 9.24893ZM1.32763 15.259L2.29519 14.5807L3.23136 15.259L2.94029 14.0519L3.69213 13.2869H2.73526L2.29383 12.3018L1.91737 13.2869H0.794922L1.65429 14.0519L1.32763 15.259ZM7.62695 14.5807L6.6594 15.259L6.98605 14.0519L6.12669 13.2869H7.24913L7.62559 12.3018L8.06702 13.2869H9.02389L8.27205 14.0519L8.56312 15.259L7.62695 14.5807ZM11.9912 15.259L12.9587 14.5807L13.8949 15.259L13.6038 14.0519L14.3557 13.2869H13.3988L12.9574 12.3018L12.5809 13.2869H11.4584L12.3178 14.0519L11.9912 15.259ZM18.2905 14.5807L17.3229 15.259L17.6496 14.0519L16.7902 13.2869H17.9126L18.2892 12.3018L18.7305 13.2869H19.6874L18.9355 14.0519L19.2266 15.259L18.2905 14.5807ZM22.6547 4.59548L23.6223 3.91717L24.5584 4.59548L24.2673 3.38835L25.0192 2.62337H24.0623L23.6209 1.63823L23.2444 2.62337H22.1219L22.9814 3.38835L22.6547 4.59548ZM23.6223 9.24893L22.6547 9.92724L22.9814 8.72011L22.1219 7.95513H23.2444L23.6209 6.96999L24.0623 7.95513H25.0192L24.2673 8.72011L24.5584 9.92724L23.6223 9.24893ZM22.6547 15.259L23.6223 14.5807L24.5584 15.259L24.2673 14.0519L25.0192 13.2869H24.0623L23.6209 12.3018L23.2444 13.2869H22.1219L22.9814 14.0519L22.6547 15.259ZM4.96107 6.58305L3.99352 7.26136L4.32017 6.05423L3.46081 5.28925H4.58325L4.95971 4.30411L5.40114 5.28925H6.35801L5.60617 6.05423L5.89724 7.26136L4.96107 6.58305ZM9.32528 7.26136L10.2928 6.58305L11.229 7.26136L10.9379 6.05423L11.6898 5.28925H10.7329L10.2915 4.30411L9.91501 5.28925H8.79257L9.65193 6.05423L9.32528 7.26136ZM15.6246 6.58305L14.6571 7.26136L14.9838 6.05423L14.1243 5.28925H15.2467L15.6233 4.30411L16.0646 5.28925H17.0216L16.2696 6.05423L16.5608 7.26136L15.6246 6.58305ZM3.99352 12.5931L4.96107 11.9148L5.89724 12.5931L5.60617 11.386L6.35801 10.621H5.40114L4.95971 9.63587L4.58325 10.621H3.46081L4.32017 11.386L3.99352 12.5931ZM10.2928 11.9148L9.32528 12.5931L9.65193 11.386L8.79257 10.621H9.91501L10.2915 9.63587L10.7329 10.621H11.6898L10.9379 11.386L11.229 12.5931L10.2928 11.9148ZM14.6571 12.5931L15.6246 11.9148L16.5608 12.5931L16.2696 11.386L17.0216 10.621H16.0646L15.6233 9.63587L15.2467 10.621H14.1243L14.9838 11.386L14.6571 12.5931ZM20.9564 6.58305L19.9888 7.26136L20.3155 6.05423L19.456 5.28925H20.5785L20.9551 4.30411L21.3964 5.28925H22.3533L21.6014 6.05423L21.8925 7.26136L20.9564 6.58305ZM19.9888 12.5931L20.9564 11.9148L21.8925 12.5931L21.6014 11.386L22.3533 10.621H21.3964L20.9551 9.63587L20.5785 10.621H19.456L20.3155 11.386L19.9888 12.5931Z" fill="#F7FCFF"/>
</g>
</g>
</svg>
